<svg xmlns="http://www.w3.org/2000/svg" xmlns:xlink="http://www.w3.org/1999/xlink" width="297.457" height="230.594" viewBox="0 0 297.457 230.594">
  <defs>
    <clipPath id="clip-path">
      <path id="Path_66927" data-name="Path 66927" d="M115.6,230.78a5.309,5.309,0,1,0,9.082,0h6.155a5.3,5.3,0,1,0,9.864,2.7,5.211,5.211,0,0,0-.747-2.7h6.155a5.3,5.3,0,1,0,9.864,2.7,5.211,5.211,0,0,0-.747-2.7h6.155a5.3,5.3,0,1,0,9.124,0h6.189a5.3,5.3,0,1,0,9.124,0h6.148a5.3,5.3,0,1,0,9.124,0h3.849V340.458H113.57V230.78Z" transform="translate(-113.57 -230.78)" fill="none"/>
    </clipPath>
  </defs>
  <g id="Notes-pana" transform="translate(-1.351 -43.65)">
    <path id="Path_67700" data-name="Path 67700" d="M74.742,72.515l1.239-2c10.232-16.9,28.768-27.083,48.317-25.844a51.212,51.212,0,0,1,7.478,1.024,55.644,55.644,0,0,1,39.649,34.456c3.772,10.122,4.824,21.774,11.977,29.809,9.312,10.463,25.117,10.788,39.011,10.353s29.737-.061,38.978,10.436c5.8,6.575,7.644,15.937,7.175,24.748-1.239,23.316-17.484,44.154-38.141,54.518s-44.98,11.289-67.591,6.729c-31.67-6.382-61.787-23.916-79.894-51S60.253,101.746,74.742,72.515Z" transform="translate(-34.497 54.896)" fill="#ebebeb"/>
    <g id="freepik--Floor--inject-228" transform="translate(1.351 270.987)">
      <path id="Path_66850" data-name="Path 66850" d="M37.1,442.312c0,.1,66.589.182,148.722.182s148.736-.084,148.736-.182-66.575-.182-148.736-.182S37.1,442.207,37.1,442.312Z" transform="translate(-37.1 -442.13)" fill="#263238"/>
    </g>
    <g id="freepik--Notes--inject-228" transform="translate(3.848 43.65)">
      <g id="Group_161569" data-name="Group 161569" transform="translate(0 0)">
        <path id="Path_66881" data-name="Path 66881" d="M149.751,61.83l14.295,71.6c-6.637,6.637-13.669,12.9-24.965,15.211L84.763,157.78,72.63,73.653Z" transform="translate(-65.895 -53.288)" fill="#e0e0e0"/>
        <path id="Path_66882" data-name="Path 66882" d="M148.313,55.17l14.295,71.6-24.965,15.211L83.325,151.12,67.89,70.335Z" transform="translate(-61.332 -51.018)" fill="#efa00b"/>
        <path id="Path_66883" data-name="Path 66883" d="M82.771,157.91,92.855,161.8s-3.7,5.931-9.042,9.108a45.263,45.263,0,0,1-15.923,6.1S79.779,171.2,82.771,157.91Z" transform="translate(8.421 -86.048)" fill="#efa00b"/>
        <g id="Group_161413" data-name="Group 161413" transform="translate(76.311 71.862)" opacity="0.3">
          <path id="Path_66884" data-name="Path 66884" d="M82.771,157.91c3.888,2.636,8.159,5.931,10.083,3.888,0,0-3.7,5.931-9.042,9.108a45.263,45.263,0,0,1-15.923,6.1S79.779,171.2,82.771,157.91Z" transform="translate(-67.89 -157.91)"/>
        </g>
        <path id="Path_66885" data-name="Path 66885" d="M109.622,68.43,72.63,56.66l2.425-7.79L112.66,60.1Z" transform="translate(-14.509 -48.87)" fill="#e0e0e0"/>
        <path id="Path_66886" data-name="Path 66886" d="M175.04,91.7,199.293,61.39l6.406,5.055L181.729,97.525Z" transform="translate(-175.04 -53.139)" fill="#e0e0e0"/>
        <path id="Path_66887" data-name="Path 66887" d="M97.92,108.412c0,.092,13.721-2.406,30.606-5.582S159.086,97,159.066,96.9,145.351,99.3,128.46,102.48,97.9,108.32,97.92,108.412Z" transform="translate(-77.582 -65.244)" fill="#263238"/>
        <path id="Path_66888" data-name="Path 66888" d="M94.36,125.042c0,.092,13.721-2.406,30.606-5.582s30.56-5.826,30.547-5.931-13.721,2.406-30.606,5.582S94.347,124.969,94.36,125.042Z" transform="translate(-71.682 -70.914)" fill="#263238"/>
        <path id="Path_66889" data-name="Path 66889" d="M92.09,140.042c0,.092,13.721-2.406,30.6-5.582s30.567-5.826,30.547-5.931-13.721,2.406-30.606,5.582S92.07,139.923,92.09,140.042Z" transform="translate(-67.91 -76.028)" fill="#263238"/>
        <path id="Path_66890" data-name="Path 66890" d="M89.31,154.262c0,.092,13.721-2.405,30.606-5.582s30.56-5.826,30.54-5.931-13.715,2.406-30.606,5.582S89.29,154.17,89.31,154.262Z" transform="translate(-63.297 -80.877)" fill="#263238"/>
      </g>
      <path id="Path_66895" data-name="Path 66895" d="M122.172,235.07a5.3,5.3,0,1,0,9.124,0h6.148a5.3,5.3,0,1,0,9.123,0h6.148a5.3,5.3,0,1,0,9.124,0h6.148a5.3,5.3,0,1,0,9.124,0h6.155a5.3,5.3,0,1,0,9.124,0h6.148a5.3,5.3,0,1,0,9.124,0h3.849V344.748L115.57,350l4.576-114.924Z" transform="translate(31.893 -169.983)" fill="#e0e0e0"/>
      <g id="Group_161414" data-name="Group 161414" transform="translate(153.429 62.09)" clip-path="url(#clip-path)">
        <path id="Path_66896" data-name="Path 66896" d="M115.6,230.78a5.309,5.309,0,1,0,9.082,0h6.155a5.3,5.3,0,1,0,9.864,2.7,5.211,5.211,0,0,0-.747-2.7h6.155a5.3,5.3,0,1,0,9.864,2.7,5.211,5.211,0,0,0-.747-2.7h6.155a5.3,5.3,0,1,0,9.124,0h6.189a5.3,5.3,0,1,0,9.124,0h6.148a5.3,5.3,0,1,0,9.124,0h3.849V340.458H113.57V230.78Z" transform="translate(-113.57 -230.78)" fill="#f5f5f5"/>
        <path id="Path_66897" data-name="Path 66897" d="M103.857,343.759c.1,0,.454-26.581.789-59.38s.524-59.38.419-59.38-.447,26.546-.782,59.38S103.752,343.759,103.857,343.759Z" transform="translate(-6.921 -229.038)" fill="#e0e0e0"/>
        <path id="Path_66898" data-name="Path 66898" d="M124.848,343.539c.1,0,.447-26.546.782-59.38s.531-59.38.426-59.38-.454,26.546-.789,59.38S124.744,343.539,124.848,343.539Z" transform="translate(-42.576 -228.971)" fill="#e0e0e0"/>
        <path id="Path_66899" data-name="Path 66899" d="M135.254,343.539c.1,0,.454-26.546.789-59.38s.524-59.38.426-59.38-.454,26.546-.789,59.38S135.142,343.539,135.254,343.539Z" transform="translate(-60.254 -228.971)" fill="#e0e0e0"/>
        <path id="Path_66900" data-name="Path 66900" d="M156.488,343.539c.1,0,.447-26.546.782-59.38s.531-59.38.426-59.38-.454,26.546-.789,59.38S156.384,343.539,156.488,343.539Z" transform="translate(-96.319 -228.971)" fill="#e0e0e0"/>
        <path id="Path_66901" data-name="Path 66901" d="M177.7,343.539c.1,0,.454-26.546.789-59.38s.524-59.38.426-59.38-.454,26.546-.789,59.38S177.6,343.539,177.7,343.539Z" transform="translate(-132.354 -228.971)" fill="#e0e0e0"/>
        <path id="Path_66902" data-name="Path 66902" d="M198.917,343.539c.1,0,.454-26.546.789-59.38s.524-59.38.419-59.38-.454,26.546-.789,59.38S198.813,343.539,198.917,343.539Z" transform="translate(-168.389 -228.971)" fill="#e0e0e0"/>
        <path id="Path_66903" data-name="Path 66903" d="M219.047,343.539c.1,0,.454-26.546.789-59.38s.524-59.38.419-59.38-.447,26.546-.782,59.38S218.942,343.539,219.047,343.539Z" transform="translate(-202.581 -228.971)" fill="#e0e0e0"/>
        <path id="Path_66904" data-name="Path 66904" d="M239.177,343.539c.1,0,.454-26.546.789-59.38s.524-59.38.419-59.38-.454,26.546-.789,59.38S239.073,343.539,239.177,343.539Z" transform="translate(-236.774 -228.971)" fill="#e0e0e0"/>
        <path id="Path_66905" data-name="Path 66905" d="M145.839,343.329c.1,0,.454-26.581.789-59.38s.524-59.38.426-59.38-.454,26.546-.789,59.38S145.741,343.329,145.839,343.329Z" transform="translate(-78.237 -228.908)" fill="#e0e0e0"/>
        <path id="Path_66906" data-name="Path 66906" d="M166.829,343.109c.1,0,.454-26.546.789-59.38s.524-59.38.426-59.38-.454,26.546-.789,59.38S166.731,343.109,166.829,343.109Z" transform="translate(-113.89 -228.842)" fill="#e0e0e0"/>
        <path id="Path_66907" data-name="Path 66907" d="M187.819,342.9c.1,0,.454-26.581.789-59.38s.524-59.38.426-59.38-.454,26.546-.789,59.38S187.721,342.9,187.819,342.9Z" transform="translate(-149.543 -228.779)" fill="#e0e0e0"/>
        <path id="Path_66908" data-name="Path 66908" d="M208.811,342.679c.1,0,.454-26.546.789-59.38s.524-59.38.426-59.38-.454,26.546-.789,59.38S208.707,342.679,208.811,342.679Z" transform="translate(-185.199 -228.712)" fill="#e0e0e0"/>
        <path id="Path_66909" data-name="Path 66909" d="M228.935,343.759c.1,0,.454-26.581.789-59.38s.531-59.38.426-59.38-.454,26.546-.789,59.38S228.837,343.759,228.935,343.759Z" transform="translate(-219.386 -229.038)" fill="#e0e0e0"/>
        <path id="Path_66910" data-name="Path 66910" d="M250.8,342.249c.1,0,.454-26.546.789-59.38s.531-59.38.426-59.38-.454,26.546-.789,59.38S250.7,342.249,250.8,342.249Z" transform="translate(-256.517 -228.583)" fill="#e0e0e0"/>
        <path id="Path_66911" data-name="Path 66911" d="M105.07,373.567c0,.1,26.546.447,59.38.775s59.38.51,59.38.412-26.546-.447-59.38-.775S105.07,373.463,105.07,373.567Z" transform="translate(-126.524 -273.81)" fill="#e0e0e0"/>
        <path id="Path_66912" data-name="Path 66912" d="M106,384.3c0,.1,26.546.447,59.38.775s59.38.51,59.38.412-26.546-.447-59.38-.775S106,384.2,106,384.3Z" transform="translate(-128.103 -277.045)" fill="#e0e0e0"/>
        <path id="Path_66913" data-name="Path 66913" d="M104.86,352.577c0,.1,26.581.447,59.38.775s59.38.51,59.38.405-26.546-.447-59.38-.775S104.86,352.472,104.86,352.577Z" transform="translate(-126.167 -267.483)" fill="#e0e0e0"/>
        <path id="Path_66914" data-name="Path 66914" d="M104.65,331.579c0,.1,26.546.447,59.38.775s59.38.517,59.38.412-26.546-.447-59.38-.775S104.65,331.481,104.65,331.579Z" transform="translate(-125.81 -261.154)" fill="#e0e0e0"/>
        <path id="Path_66915" data-name="Path 66915" d="M104.44,310.589c0,.1,26.581.447,59.38.775s59.38.51,59.38.412-26.546-.447-59.38-.775S104.44,310.491,104.44,310.589Z" transform="translate(-125.453 -254.828)" fill="#e0e0e0"/>
        <path id="Path_66916" data-name="Path 66916" d="M104.23,289.6c0,.1,26.581.447,59.38.775s59.38.51,59.38.412-26.546-.447-59.38-.775S104.23,289.5,104.23,289.6Z" transform="translate(-125.097 -248.501)" fill="#e0e0e0"/>
        <path id="Path_66917" data-name="Path 66917" d="M104,268.607c0,.1,26.546.447,59.38.775s59.38.51,59.38.412-26.546-.447-59.38-.775S104,268.5,104,268.607Z" transform="translate(-124.706 -242.173)" fill="#e0e0e0"/>
        <path id="Path_66918" data-name="Path 66918" d="M103.81,247.618c0,.1,26.546.447,59.38.775s59.38.51,59.38.405-26.546-.447-59.38-.768S103.81,247.513,103.81,247.618Z" transform="translate(-124.383 -235.847)" fill="#e0e0e0"/>
        <path id="Path_66919" data-name="Path 66919" d="M103.81,239.207c0,.1,26.546.447,59.38.775s59.38.51,59.38.412-26.546-.447-59.38-.775S103.81,239.1,103.81,239.207Z" transform="translate(-124.383 -233.311)" fill="#e0e0e0"/>
        <path id="Path_66920" data-name="Path 66920" d="M103.81,258.339c0,.1,26.546.447,59.38.775s59.38.51,59.38.412-26.546-.447-59.38-.775S103.81,258.241,103.81,258.339Z" transform="translate(-124.383 -239.079)" fill="#e0e0e0"/>
        <path id="Path_66921" data-name="Path 66921" d="M103.81,279.164c0,.1,26.546.447,59.38.775s59.38.51,59.38.405-26.546-.447-59.38-.768S103.81,279.039,103.81,279.164Z" transform="translate(-124.383 -245.353)" fill="#e0e0e0"/>
        <path id="Path_66922" data-name="Path 66922" d="M103.81,299.989c0,.1,26.546.447,59.38.775s59.38.51,59.38.412-26.546-.447-59.38-.775S103.81,299.891,103.81,299.989Z" transform="translate(-124.383 -251.633)" fill="#e0e0e0"/>
        <path id="Path_66923" data-name="Path 66923" d="M103.81,320.817c0,.1,26.546.447,59.38.768s59.38.517,59.38.412-26.546-.447-59.38-.775S103.81,320.712,103.81,320.817Z" transform="translate(-124.383 -257.91)" fill="#e0e0e0"/>
        <path id="Path_66924" data-name="Path 66924" d="M103.81,341.639c0,.1,26.546.447,59.38.775s59.38.51,59.38.412-26.546-.447-59.38-.775S103.81,341.541,103.81,341.639Z" transform="translate(-124.383 -264.187)" fill="#e0e0e0"/>
        <path id="Path_66925" data-name="Path 66925" d="M103.81,362.459c0,.1,26.546.447,59.38.775s59.38.517,59.38.412-26.546-.447-59.38-.775S103.81,362.361,103.81,362.459Z" transform="translate(-124.383 -270.462)" fill="#e0e0e0"/>
        <path id="Path_66926" data-name="Path 66926" d="M115.6,230.78a5.309,5.309,0,1,0,9.082,0h6.155a5.3,5.3,0,1,0,9.864,2.7,5.211,5.211,0,0,0-.747-2.7h6.155a5.3,5.3,0,1,0,9.864,2.7,5.211,5.211,0,0,0-.747-2.7h6.155a5.3,5.3,0,1,0,9.124,0h6.189a5.3,5.3,0,1,0,9.124,0h6.148a5.3,5.3,0,1,0,9.124,0h3.849V340.458H113.57V230.78Z" transform="translate(-113.57 -230.78)" fill="none"/>
      </g>
      <path id="Path_66928" data-name="Path 66928" d="M188.259,250.383c-.657,3.241-2.1,6.539-4.8,8.383a8.586,8.586,0,1,1-3.158-15.481" transform="translate(17.117 -172.407)" fill="#e0e0e0"/>
      <path id="Path_66929" data-name="Path 66929" d="M183.39,250.374a6.832,6.832,0,1,1-6.462-7.188A6.832,6.832,0,0,1,183.39,250.374Z" transform="translate(22.16 -172.426)" fill="#efa00b"/>
      <path id="Path_66930" data-name="Path 66930" d="M172.318,248a4.1,4.1,0,1,1-3.877-4.31,4.1,4.1,0,0,1,3.877,4.31Z" transform="translate(37.159 -172.579)" fill="#efa00b"/>
      <path id="Path_66931" data-name="Path 66931" d="M174.308,252.149a6.983,6.983,0,0,1-1.537-.175,3.933,3.933,0,0,1-2.613-2.389,4.192,4.192,0,0,1,.447-3.535,8.321,8.321,0,0,1,1.013-1.181.964.964,0,0,0-.391.2,3.4,3.4,0,0,0-.838.845,4.24,4.24,0,0,0-.573,3.8,3.989,3.989,0,0,0,1.285,1.76,4.116,4.116,0,0,0,1.607.754,3.22,3.22,0,0,0,1.188.049C174.168,252.233,174.315,252.17,174.308,252.149Z" transform="translate(31.347 -172.937)" fill="#263238"/>
      <path id="Path_66932" data-name="Path 66932" d="M179.013,245.554a6.05,6.05,0,0,1-2.4.119,6.14,6.14,0,0,1-2.1-1.153c-.035,0,.091.3.419.636a3.4,3.4,0,0,0,1.607.873,3.3,3.3,0,0,0,1.83-.091A2.026,2.026,0,0,0,179.013,245.554Z" transform="translate(23.212 -172.831)" fill="#263238"/>
      <path id="Path_66933" data-name="Path 66933" d="M170.3,259.154a5,5,0,0,0,.293-.824,4.687,4.687,0,0,1,1.118-1.7,4.548,4.548,0,0,1,1.767-1.02c.5-.161.845-.2.838-.251s-.342-.1-.9,0a3.975,3.975,0,0,0-3.067,2.892C170.206,258.8,170.241,259.154,170.3,259.154Z" transform="translate(30.88 -176.078)" fill="#263238"/>
      <path id="Path_66934" data-name="Path 66934" d="M136.49,286.782c0,.1,14.579.182,32.554.182s32.561-.077,32.561-.182-14.572-.182-32.561-.182S136.49,286.684,136.49,286.782Z" transform="translate(27.18 -185.515)" fill="#263238"/>
      <path id="Path_66935" data-name="Path 66935" d="M136.49,296.472c0,.1,14.579.182,32.554.182s32.561-.084,32.561-.182-14.572-.182-32.561-.182S136.49,296.374,136.49,296.472Z" transform="translate(27.18 -188.436)" fill="#263238"/>
      <path id="Path_66936" data-name="Path 66936" d="M136.49,306.162c0,.1,14.579.182,32.554.182s32.561-.084,32.561-.182-14.572-.182-32.561-.182S136.49,306.064,136.49,306.162Z" transform="translate(27.18 -191.356)" fill="#263238"/>
      <path id="Path_66937" data-name="Path 66937" d="M136.49,315.852c0,.1,14.579.182,32.554.182s32.561-.084,32.561-.182-14.572-.182-32.561-.182S136.49,315.754,136.49,315.852Z" transform="translate(27.18 -194.277)" fill="#263238"/>
      <path id="Path_66938" data-name="Path 66938" d="M136.49,325.542c0,.1,14.579.182,32.554.182s32.561-.084,32.561-.182-14.572-.182-32.561-.182S136.49,325.444,136.49,325.542Z" transform="translate(27.18 -197.198)" fill="#263238"/>
      <path id="Path_66939" data-name="Path 66939" d="M136.49,335.232c0,.1,14.579.182,32.554.182s32.561-.084,32.561-.182-14.572-.182-32.561-.182S136.49,335.127,136.49,335.232Z" transform="translate(27.18 -200.119)" fill="#263238"/>
      <path id="Path_66940" data-name="Path 66940" d="M136.49,344.922c0,.1,14.579.182,32.554.182s32.561-.084,32.561-.182-14.572-.182-32.561-.182S136.49,344.817,136.49,344.922Z" transform="translate(27.18 -203.039)" fill="#263238"/>
    </g>
    <g id="freepik--Character--inject-228" transform="translate(56.347 127.86)">
      <path id="Path_66941" data-name="Path 66941" d="M243.04,432.458C224.463,426.3,237.2,401.73,237.2,401.73l81.2,7.642a11.743,11.743,0,0,1,11.828,11.743h0a11.751,11.751,0,0,1-11.751,11.751l-75.415-.408" transform="translate(-213.846 -289.696)" fill="#263238"/>
      <path id="Path_66942" data-name="Path 66942" d="M270.258,432.434c-18.107-6.11-5.625-30.7-5.625-30.7l79.155,7.457c7.7.1,11.5,3.848,11.5,11.72h0c0,6.487-2.409,11.959-11.481,11.774l-73.552-.246" transform="translate(-260.073 -289.696)" fill="#263238"/>
      <path id="Path_66943" data-name="Path 66943" d="M260.438,407.12h.885l2.532.108,9.311.462,30.72,1.685c1.539.069,2.978.2,4.44.215s2.909.085,4.325.169,2.809.192,4.163.339a15.253,15.253,0,0,1,3.963.816,9.587,9.587,0,0,1,3.294,2.109,8.812,8.812,0,0,1,1.993,3.2,16.107,16.107,0,0,1,.816,3.463,24.253,24.253,0,0,1,.216,3.278,13.928,13.928,0,0,1-1.047,5.51,8.966,8.966,0,0,1-2.463,3.355,6.481,6.481,0,0,1-2.239,1.262c-.562.177-.569.123,0-.077a7.056,7.056,0,0,0,2.162-1.316,9.018,9.018,0,0,0,2.355-3.324,13.751,13.751,0,0,0,.97-5.387,25.153,25.153,0,0,0-.246-3.232,15.632,15.632,0,0,0-.816-3.378,8.518,8.518,0,0,0-1.924-3.078,9.273,9.273,0,0,0-3.178-2.009,14.708,14.708,0,0,0-3.848-.769c-1.347-.138-2.732-.239-4.148-.323s-2.847-.139-4.309-.162-2.947-.154-4.448-.223L273.2,408l-9.3-.6-2.532-.185-.654-.054A.77.77,0,0,1,260.438,407.12Z" transform="translate(-231.876 -290.939)" fill="#455a64"/>
      <path id="Path_66944" data-name="Path 66944" d="M356.45,414.171a1.969,1.969,0,0,0,.639.323,6.617,6.617,0,0,0,1.924.392,7.511,7.511,0,0,0,8.049-8.249,6.793,6.793,0,0,0-.439-1.916c-.177-.431-.315-.646-.339-.631a13.374,13.374,0,0,1,.469,2.563,7.442,7.442,0,0,1-7.7,7.926A13.351,13.351,0,0,1,356.45,414.171Z" transform="translate(-345.764 -290.24)" fill="#455a64"/>
      <path id="Path_66945" data-name="Path 66945" d="M342.181,314.8c10.073,1.131,11.7,7.972,16.4,14.706l6.795,12.536-12.49,7.657.431,19.238,5.11,17.022-47.042-2.655,5.241-16.16-6.264-24.7c-.477-3.371-1.77-9.627-.893-12.944,2.74-10.35,13.5-13.375,20.9-15.3a49.486,49.486,0,0,1,10.173-.062" transform="translate(-307.655 -269.457)" fill="#efa00b"/>
      <path id="Path_66946" data-name="Path 66946" d="M333.494,383.468a2.309,2.309,0,0,0-1.724.362,3.378,3.378,0,0,0-1.339,1.431,3.255,3.255,0,0,0-.169,2.393,3.309,3.309,0,0,0,1.454,1.908,3.347,3.347,0,0,0,1.908.446,2.309,2.309,0,0,0,1.639-.639,5.34,5.34,0,0,1-1.647.362,3.347,3.347,0,0,1-1.708-.485,3.078,3.078,0,0,1-1.147-3.848,3.285,3.285,0,0,1,1.154-1.339,5.254,5.254,0,0,1,1.578-.593Z" transform="translate(-293.658 -285.479)" fill="#fafafa"/>
      <path id="Path_66947" data-name="Path 66947" d="M368.655,356.479c0,.077-4.8,1.747-10.773,3.725s-10.851,3.525-10.881,3.448,4.8-1.747,10.774-3.732S368.655,356.4,368.655,356.479Z" transform="translate(-340.047 -279.267)" fill="#263238"/>
      <g id="Group_161415" data-name="Group 161415" transform="translate(9.277 86.008)" opacity="0.3">
        <path id="Path_66948" data-name="Path 66948" d="M336.85,369.441a94.321,94.321,0,0,0,3.471,12.059,26.01,26.01,0,0,0,3.794,6.964,17.592,17.592,0,0,0,9.1,5.556,28.8,28.8,0,0,0,10.773.531l-17.892-10.1-4.756-16.537Z" transform="translate(-336.85 -367.91)"/>
      </g>
      <path id="Path_66949" data-name="Path 66949" d="M325.868,374.318a7.951,7.951,0,0,1-.115-1.339c-.046-.954-.108-2.209-.177-3.725-.139-3.147-.292-7.5-.439-12.313s-.254-9.165-.308-12.313c0-1.539,0-2.778-.046-3.732a8.159,8.159,0,0,1,.046-1.377,8.636,8.636,0,0,1,.123,1.37c.046.954.108,2.209.185,3.725.131,3.147.292,7.5.431,12.313s.254,9.157.315,12.313c0,1.539,0,2.77.038,3.732A8.712,8.712,0,0,1,325.868,374.318Z" transform="translate(-280.214 -275.359)" fill="#263238"/>
      <path id="Path_66950" data-name="Path 66950" d="M322.316,346.14a90.406,90.406,0,0,1-10.766,6.326,44.1,44.1,0,0,1,5.271-3.355,43.541,43.541,0,0,1,5.494-2.97Z" transform="translate(-266.427 -276.885)" fill="#263238"/>
      <path id="Path_66951" data-name="Path 66951" d="M334.669,334.387a2.308,2.308,0,0,0,1.454,1,3.348,3.348,0,0,0,4.194-3.9,3.387,3.387,0,0,0-.954-1.716,2.309,2.309,0,0,0-1.593-.77,5.334,5.334,0,0,1,1.393.947,3.262,3.262,0,0,1,.823,1.539,3.032,3.032,0,0,1-.369,2.093,2.986,2.986,0,0,1-1.624,1.378,3.355,3.355,0,0,1-1.77.085A5.385,5.385,0,0,1,334.669,334.387Z" transform="translate(-302.29 -272.935)" fill="#fafafa"/>
      <path id="Path_66952" data-name="Path 66952" d="M334.856,351.79a2.309,2.309,0,0,0,.416-1.716,3.34,3.34,0,0,0-5.141-2.524,3.409,3.409,0,0,0-1.231,1.539,2.309,2.309,0,0,0-.131,1.755,5.209,5.209,0,0,1,.393-1.639,3.317,3.317,0,0,1,1.17-1.331,3.14,3.14,0,0,1,3.955.623,3.3,3.3,0,0,1,.708,1.624A5.055,5.055,0,0,1,334.856,351.79Z" transform="translate(-292.573 -277.087)" fill="#fafafa"/>
      <path id="Path_66953" data-name="Path 66953" d="M334.856,373.86a2.309,2.309,0,0,0,.416-1.716,3.34,3.34,0,0,0-5.141-2.524,3.41,3.41,0,0,0-1.231,1.539,2.309,2.309,0,0,0-.131,1.755,5.211,5.211,0,0,1,.393-1.639,3.317,3.317,0,0,1,1.17-1.331,3.14,3.14,0,0,1,3.932.616,3.3,3.3,0,0,1,.708,1.624A5.056,5.056,0,0,1,334.856,373.86Z" transform="translate(-292.573 -282.173)" fill="#fafafa"/>
      <path id="Path_66954" data-name="Path 66954" d="M347.414,345.816a2.309,2.309,0,0,0,1.647-.623,3.371,3.371,0,0,0,1.116-1.608,3.309,3.309,0,0,0-.192-2.393,3.348,3.348,0,0,0-1.731-1.67,3.44,3.44,0,0,0-1.955-.154,2.308,2.308,0,0,0-1.539.877,5.562,5.562,0,0,1,1.539-.6,3.248,3.248,0,0,1,1.762.223,3.078,3.078,0,0,1,1.708,3.609,3.3,3.3,0,0,1-.947,1.5,5.115,5.115,0,0,1-1.408.839Z" transform="translate(-319.983 -275.307)" fill="#fafafa"/>
      <path id="Path_66955" data-name="Path 66955" d="M335.132,356.59a2.309,2.309,0,0,0-1.054,1.416,3.309,3.309,0,0,0,5.479,3.4,2.308,2.308,0,0,0,.808-1.539,5.17,5.17,0,0,1-1,1.362,3.256,3.256,0,0,1-1.6.77,3.117,3.117,0,0,1-3.394-2.108,3.323,3.323,0,0,1,0-1.778,4.947,4.947,0,0,1,.762-1.524Z" transform="translate(-301.676 -279.293)" fill="#fafafa"/>
      <path id="Path_66956" data-name="Path 66956" d="M325.922,326.617a2.262,2.262,0,0,0-1.724.362,3.408,3.408,0,0,0-1.347,1.424,3.317,3.317,0,0,0,3.2,4.756,2.309,2.309,0,0,0,1.639-.639,5.5,5.5,0,0,1-1.647.354,3.262,3.262,0,0,1-1.708-.477,3.115,3.115,0,0,1-1.147-3.832,3.231,3.231,0,0,1,1.154-1.339,5.009,5.009,0,0,1,1.578-.608Z" transform="translate(-280.246 -272.376)" fill="#fafafa"/>
      <path id="Path_66957" data-name="Path 66957" d="M358.327,351.8a2.309,2.309,0,0,0,.239-1.747,3.44,3.44,0,0,0-.885-1.747,3.371,3.371,0,0,0-2.2-.97,3.255,3.255,0,0,0-3.355,2.37,2.308,2.308,0,0,0,.046,1.762,5.309,5.309,0,0,1,.223-1.678,3.279,3.279,0,0,1,1.031-1.439,3.124,3.124,0,0,1,3.994.215,3.293,3.293,0,0,1,.87,1.539A5.5,5.5,0,0,1,358.327,351.8Z" transform="translate(-333.859 -277.159)" fill="#fafafa"/>
      <path id="Path_66958" data-name="Path 66958" d="M343.564,369.338a2.309,2.309,0,0,0-1.724.362,3.432,3.432,0,0,0-1.347,1.431,3.3,3.3,0,0,0,3.194,4.748,2.308,2.308,0,0,0,1.647-.639,5.517,5.517,0,0,1-1.654.354,3.254,3.254,0,0,1-1.7-.477,3.078,3.078,0,0,1-1.147-3.848,3.286,3.286,0,0,1,1.154-1.339A4.941,4.941,0,0,1,343.564,369.338Z" transform="translate(-311.477 -282.222)" fill="#fafafa"/>
      <path id="Path_66959" data-name="Path 66959" d="M364.947,397.4a2.308,2.308,0,0,0-.677-1.631,3.34,3.34,0,0,0-5.641.993,3.385,3.385,0,0,0-.1,1.955,2.347,2.347,0,0,0,.931,1.5,5.278,5.278,0,0,1-.654-1.539,3.332,3.332,0,0,1,.169-1.762,3.124,3.124,0,0,1,3.555-1.824,3.316,3.316,0,0,1,1.539.893A5.639,5.639,0,0,1,364.947,397.4Z" transform="translate(-345.134 -288.057)" fill="#fafafa"/>
      <path id="Path_66960" data-name="Path 66960" d="M367.878,382.34a2.309,2.309,0,0,0-1.539.877,3.337,3.337,0,0,0,1.716,5.464,3.348,3.348,0,0,0,1.947-.154,2.308,2.308,0,0,0,1.362-1.116,5.277,5.277,0,0,1-1.454.846,3.3,3.3,0,0,1-1.77.069,3.132,3.132,0,0,1-2.27-3.294,3.2,3.2,0,0,1,.685-1.631A5.117,5.117,0,0,1,367.878,382.34Z" transform="translate(-356.969 -285.228)" fill="#fafafa"/>
      <path id="Path_66961" data-name="Path 66961" d="M367.862,351.75a2.37,2.37,0,0,0-1.539.885,3.306,3.306,0,0,0,1.716,5.464,3.448,3.448,0,0,0,1.955-.154,2.309,2.309,0,0,0,1.362-1.124,5.078,5.078,0,0,1-1.462.854,3.225,3.225,0,0,1-1.77.061,3.078,3.078,0,0,1-2.27-3.286,3.263,3.263,0,0,1,.685-1.631,5.432,5.432,0,0,1,1.324-1.07Z" transform="translate(-356.954 -278.178)" fill="#fafafa"/>
      <path id="Path_66962" data-name="Path 66962" d="M375,344.177a2.355,2.355,0,0,0,1.678-.546,3.3,3.3,0,0,0-2.5-5.925,2.308,2.308,0,0,0-1.539.816,5.07,5.07,0,0,1,1.6-.539,3.341,3.341,0,0,1,1.747.3,3.117,3.117,0,0,1,1.539,3.686,3.254,3.254,0,0,1-1.008,1.454,5.3,5.3,0,0,1-1.516.754Z" transform="translate(-369.161 -274.93)" fill="#fafafa"/>
      <path id="Path_66963" data-name="Path 66963" d="M363.886,327.317a2.308,2.308,0,0,0,1.67-.546,3.3,3.3,0,0,0-2.5-5.925,2.308,2.308,0,0,0-1.539.816,5.462,5.462,0,0,1,1.6-.531,3.239,3.239,0,0,1,1.747.292,3.117,3.117,0,0,1,1.539,3.686,3.325,3.325,0,0,1-1.008,1.462A5.525,5.525,0,0,1,363.886,327.317Z" transform="translate(-349.483 -271.044)" fill="#fafafa"/>
      <path id="Path_66964" data-name="Path 66964" d="M319.415,346.74a2.309,2.309,0,0,0,1.67-.554,3.247,3.247,0,0,0,1.1-3.955,3.3,3.3,0,0,0-1.654-1.739,3.37,3.37,0,0,0-1.947-.246,2.254,2.254,0,0,0-1.539.816,5.069,5.069,0,0,1,1.6-.539,3.339,3.339,0,0,1,1.747.3,3.117,3.117,0,0,1,1.539,3.686,3.3,3.3,0,0,1-1.008,1.454,5.44,5.44,0,0,1-1.508.777Z" transform="translate(-270.799 -275.515)" fill="#fafafa"/>
      <path id="Path_66965" data-name="Path 66965" d="M363.462,333.13a2.308,2.308,0,0,0-1.539.885,3.347,3.347,0,0,0-.839,1.77,3.394,3.394,0,0,0,2.547,3.694,3.44,3.44,0,0,0,1.955-.154,2.309,2.309,0,0,0,1.362-1.123,5.079,5.079,0,0,1-1.462.854,3.224,3.224,0,0,1-1.77.062,3.032,3.032,0,0,1-1.731-1.231,3.078,3.078,0,0,1-.539-2.055,3.27,3.27,0,0,1,.693-1.631,5.492,5.492,0,0,1,1.324-1.07Z" transform="translate(-349.159 -273.887)" fill="#fafafa"/>
      <path id="Path_66966" data-name="Path 66966" d="M345.54,344.627a1.9,1.9,0,0,1,.1.269c.062.192.154.454.262.77.231.716.554,1.731.962,3.032l3.424,10.981-.162-.077,20.916-7.7.523-.215-.092.169a92.136,92.136,0,0,0-4.894-13.752,39.163,39.163,0,0,0-6.218-10.081,13.743,13.743,0,0,0-3.517-2.84,7.234,7.234,0,0,0-3.247-.962,4.871,4.871,0,0,0-.662,0l-.585.062a1.276,1.276,0,0,0-.493.062l-.408.108-.546.139-.185.038.177-.062.539-.177.408-.115c.146-.038.316-.046.5-.077l.585-.077a5.025,5.025,0,0,1,.677,0,7.234,7.234,0,0,1,3.317.931,13.6,13.6,0,0,1,3.594,2.847,38.722,38.722,0,0,1,6.31,10.112,90.849,90.849,0,0,1,4.94,13.79v.123l-.115.046-.531.215c-7.834,2.932-15.1,5.541-20.939,7.7l-.115.046-.039-.123L346.7,348.8c-.385-1.308-.685-2.309-.9-3.078-.092-.346-.169-.608-.223-.808a1.233,1.233,0,0,1-.039-.285Z" transform="translate(-342.034 -271.809)" fill="#263238"/>
      <path id="Path_66967" data-name="Path 66967" d="M263.893,364.212l4.048,12.674a14.621,14.621,0,0,0,11.366,10.181l27.049,5.079,7.365-.239-7.365-9.111-20.331-6.926a5.433,5.433,0,0,1-4.1-3.894l-8.1-17.607-10.258,6.287Z" transform="translate(-220.91 -278.782)" fill="#ffbe9d"/>
      <path id="Path_66968" data-name="Path 66968" d="M304.29,367.191,308.7,381.62a14.721,14.721,0,0,0,11.335,10.312l27.049,5.141,7.357-.239-2.5-6.279-25.195-9.966a5.487,5.487,0,0,1-4.1-3.948L318.88,362.12Z" transform="translate(-292.966 -280.568)" fill="#ffbe9d"/>
      <path id="Path_66969" data-name="Path 66969" d="M247.26,399.318l.231-1.755,20.778-.816,10.2-25.718,38.854,2.632-13.113,28.55Z" transform="translate(-211.965 -282.621)" fill="#455a64"/>
      <path id="Path_66970" data-name="Path 66970" d="M281.239,391.773a2.039,2.039,0,1,1-.631-2.809,2.039,2.039,0,0,1,.631,2.809Z" transform="translate(-199.441 -286.681)" fill="#fff"/>
      <path id="Path_66971" data-name="Path 66971" d="M376.163,257A15.768,15.768,0,0,0,362.4,267.335c-.369,1.077-.623,2.193-1.093,3.232a4.786,4.786,0,0,1-2.247,2.478c-.77.346-1.631.385-2.416.677a4.409,4.409,0,0,0-2.67,3.078,5.387,5.387,0,0,0,.723,4.071,4.164,4.164,0,0,1,.908,1.893,5.326,5.326,0,0,1-.285,1.408,3.848,3.848,0,0,0,6.318,3.763,5.509,5.509,0,0,0,2.309,2.932c1.154.546,2.855.054,3.078-1.2a3.078,3.078,0,0,0,5.787-1.1" transform="translate(-352.826 -256.341)" fill="#263238"/>
      <path id="Path_66972" data-name="Path 66972" d="M356.106,275.733c2.509-2.932,2.547-7.534.77-10.966s-5.156-5.795-8.711-7.2c-4.894-1.924-10.735-2.124-15.137.77a13.044,13.044,0,0,0,1.878,22.686" transform="translate(-314.324 -256.144)" fill="#efa00b"/>
      <path id="Path_66973" data-name="Path 66973" d="M362.84,272.246a7.4,7.4,0,0,0,1.8.208,7.525,7.525,0,0,0,1.808.146A4.617,4.617,0,0,0,362.84,272.246Z" transform="translate(-350.03 -259.806)" fill="#fafafa"/>
      <path id="Path_66974" data-name="Path 66974" d="M360.27,263.951a7.351,7.351,0,0,0,1.616.369c.877.192,1.539.477,1.616.369a2.562,2.562,0,0,0-1.539-.77A2.486,2.486,0,0,0,360.27,263.951Z" transform="translate(-345.106 -257.905)" fill="#fafafa"/>
      <path id="Path_66975" data-name="Path 66975" d="M352.62,258.381c0,.115,1.047.254,2.309.67a22.949,22.949,0,0,0,2.216.816,4.363,4.363,0,0,0-2.093-1.2A4.3,4.3,0,0,0,352.62,258.381Z" transform="translate(-332.862 -256.645)" fill="#fafafa"/>
      <path id="Path_66976" data-name="Path 66976" d="M343.79,256.19c0,.108.954.423,1.955,1.162s1.608,1.539,1.708,1.493a3.509,3.509,0,0,0-1.478-1.824,3.417,3.417,0,0,0-2.186-.831Z" transform="translate(-316.375 -256.155)" fill="#fafafa"/>
      <path id="Path_66977" data-name="Path 66977" d="M335.637,259.853c-.062.092.254.4.531.839.192.3.316.593.416.77l.177.269v-.262c0-.085,0-.139-.046-.154s-.085,0-.138.092h.185a1.539,1.539,0,0,0-.262-.908C336.175,259.961,335.706,259.761,335.637,259.853Z" transform="translate(-299.402 -256.994)" fill="#fafafa"/>
      <path id="Path_66978" data-name="Path 66978" d="M361.805,280.792c0,.108.693.169,1.5-.077s1.339-.693,1.285-.77a5.5,5.5,0,0,0-1.4.393C362.444,280.569,361.8,280.684,361.805,280.792Z" transform="translate(-347.38 -261.626)" fill="#fafafa"/>
      <path id="Path_66979" data-name="Path 66979" d="M369.888,271.634a1.322,1.322,0,0,0,.939.77,1.855,1.855,0,0,0,1.454-.162,2.055,2.055,0,0,0,.97-1.67,2.309,2.309,0,0,0-1.108-2.055,2.747,2.747,0,0,0-2.678-.115,3.263,3.263,0,0,0-1.808,2.347,3.909,3.909,0,0,0,.77,3.078,3.563,3.563,0,0,0,2.917,1.27,5.386,5.386,0,0,0,2.824-.908,13.167,13.167,0,0,0,3.34-3.64,23.091,23.091,0,0,1,2-2.616c.531-.562.87-.831.847-.854s-.1.038-.269.162a8.3,8.3,0,0,0-.693.585,18.715,18.715,0,0,0-2.116,2.563,13.574,13.574,0,0,1-3.309,3.494,5.132,5.132,0,0,1-2.632.823,3.155,3.155,0,0,1-2.593-1.124,3.54,3.54,0,0,1-.685-2.77,2.894,2.894,0,0,1,1.585-2.093,2.416,2.416,0,0,1,2.309.069,1.963,1.963,0,0,1,1,1.755,1.839,1.839,0,0,1-.77,1.493,1.708,1.708,0,0,1-1.293.2A1.855,1.855,0,0,1,369.888,271.634Z" transform="translate(-367.598 -258.663)" fill="#263238"/>
      <path id="Path_66980" data-name="Path 66980" d="M331.12,266.607a2.716,2.716,0,0,0-2.432,2.755h0l1.539,36.73c.062,4.34,7.926,9.465,12.574,9.373h0c4.686-.1,3.309-5.079,3.378-9.234.115-6.926.108-9.481.115-9.442s5.925-.985,7.149-8.719c.616-3.848.423-10.15.092-15.306-.285-4.617-3.363-10.327-7.98-9.842Z" transform="translate(-311.146 -257.699)" fill="#ffbe9d"/>
      <path id="Path_66981" data-name="Path 66981" d="M333.678,282a.985.985,0,0,1-.954,1,.946.946,0,0,1-1.023-.893,1,1,0,0,1,.977-1.008.954.954,0,0,1,1,.9Z" transform="translate(-293.295 -261.895)" fill="#263238"/>
      <path id="Path_66982" data-name="Path 66982" d="M334.783,279.689c-.123.131-.877-.423-1.947-.423s-1.847.539-1.962.408.069-.292.408-.539a2.763,2.763,0,0,1,1.578-.485,2.632,2.632,0,0,1,1.539.5C334.729,279.419,334.845,279.689,334.783,279.689Z" transform="translate(-293.755 -261.331)" fill="#263238"/>
      <path id="Path_66983" data-name="Path 66983" d="M347.228,282a.993.993,0,0,1-.954,1,.947.947,0,0,1-1.023-.893.993.993,0,0,1,.954-1.008.962.962,0,0,1,1.023.9Z" transform="translate(-317.273 -261.895)" fill="#263238"/>
      <path id="Path_66984" data-name="Path 66984" d="M348.413,279.969c-.123.131-.877-.423-1.947-.423s-1.847.539-1.962.408.069-.292.408-.539a2.763,2.763,0,0,1,1.577-.485,2.578,2.578,0,0,1,1.539.5C348.359,279.676,348.474,279.915,348.413,279.969Z" transform="translate(-317.873 -261.396)" fill="#263238"/>
      <path id="Path_66985" data-name="Path 66985" d="M336.394,287.906a6.992,6.992,0,0,1,1.731-.316c.277,0,.531-.085.577-.269a1.37,1.37,0,0,0-.185-.808l-.77-2.07a34.374,34.374,0,0,1-1.808-5.433,36.425,36.425,0,0,1,2.239,5.271l.77,2.085a1.539,1.539,0,0,1,.108,1.1.685.685,0,0,1-.454.4,1.737,1.737,0,0,1-.462.062,6.923,6.923,0,0,1-1.747-.023Z" transform="translate(-301.984 -261.414)" fill="#263238"/>
      <path id="Path_66986" data-name="Path 66986" d="M348.889,306.168A19.731,19.731,0,0,1,338.5,303.39s2.516,5.31,10.25,4.617Z" transform="translate(-313.74 -267.033)" fill="#eb996e"/>
      <path id="Path_66987" data-name="Path 66987" d="M343.084,293.692a1.931,1.931,0,0,0-1.724-.716,1.762,1.762,0,0,0-1.208.654,1.108,1.108,0,0,0-.085,1.27,1.277,1.277,0,0,0,1.4.354,4.116,4.116,0,0,0,1.362-.816,1.061,1.061,0,0,0,.3-.316.346.346,0,0,0,0-.4" transform="translate(-309.128 -264.63)" fill="#eb996e"/>
      <path id="Path_66988" data-name="Path 66988" d="M339.274,291.53c.169,0,.177,1.147,1.17,1.97s2.224.693,2.232.854-.277.223-.77.239a2.909,2.909,0,0,1-1.862-.646,2.493,2.493,0,0,1-.9-1.654C339.066,291.807,339.2,291.522,339.274,291.53Z" transform="translate(-308.003 -264.299)" fill="#263238"/>
      <path id="Path_66989" data-name="Path 66989" d="M348.733,277.618c-.108.285-1.17.146-2.424.3s-2.262.493-2.432.231c-.069-.123.108-.392.516-.677a4.078,4.078,0,0,1,1.8-.631,4.017,4.017,0,0,1,1.893.223C348.548,277.249,348.779,277.48,348.733,277.618Z" transform="translate(-317.716 -260.907)" fill="#263238"/>
      <path id="Path_66990" data-name="Path 66990" d="M334.97,275.677c-.192.246-.923,0-1.808,0s-1.631.169-1.808-.085c-.069-.123.046-.369.369-.6a2.647,2.647,0,0,1,2.917.092C334.947,275.315,335.055,275.569,334.97,275.677Z" transform="translate(-294.334 -260.397)" fill="#263238"/>
      <path id="Path_66991" data-name="Path 66991" d="M363.768,283.718a1.931,1.931,0,0,0-2.024.1,3.586,3.586,0,0,0,2.262,6.656" transform="translate(-345.371 -262.444)" fill="#ffbe9d"/>
      <path id="Path_66992" data-name="Path 66992" d="M341.806,259.622a15.645,15.645,0,0,1,7.426,2.309,10.774,10.774,0,0,1,5.3,6.3,2.193,2.193,0,0,1-.062,1.739,1.693,1.693,0,0,1-2.116.462,5.033,5.033,0,0,1-1.724-1.6,3.309,3.309,0,0,1-6.418-.069,2.886,2.886,0,0,1-2.978,2.655,3.848,3.848,0,0,1-3.294-2.593,9.773,9.773,0,0,1-1.354,3.771,3.317,3.317,0,0,1-3.5,1.431,6.926,6.926,0,0,1-.054,3.455,2.358,2.358,0,0,1-2.724,1.6c-1.1-.377-1.485-1.639-1.739-2.747a25.627,25.627,0,0,1-.831-6.48,9.5,9.5,0,0,1,7.657-9.619,25,25,0,0,1,6.733-.616" transform="translate(-311.251 -256.94)" fill="#263238"/>
      <path id="Path_66993" data-name="Path 66993" d="M362.526,288.68c0-.054-.3.069-.677-.108a1.339,1.339,0,0,1-.662-1.316,1.37,1.37,0,0,1,.823-1.239c.392-.162.677-.085.693-.146s-.262-.239-.77-.123a1.378,1.378,0,0,0-.77.469,1.747,1.747,0,0,0-.385,1.016,1.539,1.539,0,0,0,.97,1.608C362.3,289.011,362.587,288.711,362.526,288.68Z" transform="translate(-344.691 -262.958)" fill="#eb996e"/>
      <path id="Path_66994" data-name="Path 66994" d="M359.766,290.09a1.421,1.421,0,0,0-.316.092,4.357,4.357,0,0,0-.862.385,6.41,6.41,0,0,0-2.524,2.378,4.949,4.949,0,0,0-.693,2.309,5.464,5.464,0,0,0,.646,2.709,6.4,6.4,0,0,0,2.055,2.309,5.725,5.725,0,0,0,3.155,1.016,5.979,5.979,0,0,0,5.217-3.263,5.11,5.11,0,0,0,.554-2.74,5.8,5.8,0,0,0-.77-2.309,5.579,5.579,0,0,0-2.563-2.309,3.843,3.843,0,0,0-.9-.285,1.08,1.08,0,0,0-.331,0c0,.046.446.1,1.17.454a5.633,5.633,0,0,1,3.04,4.525,4.833,4.833,0,0,1-.546,2.539,5.656,5.656,0,0,1-4.894,3.032,5.8,5.8,0,0,1-4.887-3.078,4.848,4.848,0,0,1,0-4.733,6.648,6.648,0,0,1,2.355-2.386C359.35,290.282,359.781,290.128,359.766,290.09Z" transform="translate(-344.847 -263.967)" fill="#efa00b"/>
    </g>
    <g id="freepik--Plant--inject-228" transform="translate(234.14 123.195)">
      <path id="Path_66995" data-name="Path 66995" d="M81.124,401.118a2.623,2.623,0,0,0-.131-.314c-.114-.227-.253-.533-.437-.917a23.527,23.527,0,0,1-1.258-3.669,32.384,32.384,0,0,1,.079-14.169A77.069,77.069,0,0,1,82,372.535c1.109-3.372,2.4-6.989,3.494-10.832a41.782,41.782,0,0,0,1.747-12.457c-.157-4.368-1.459-8.806-2.892-13.182s-2.918-8.666-3.363-12.981A19.769,19.769,0,0,1,83.369,311.1c1.9-3.494,4.289-6.491,6.115-9.609a33.336,33.336,0,0,0,3.652-9.225,34.27,34.27,0,0,0,.236-14.274A26.739,26.739,0,0,0,91.791,273a2.063,2.063,0,0,0,.087.341c.079.236.175.559.306.961a37.229,37.229,0,0,1,.926,3.774,34.724,34.724,0,0,1-.376,14.143,33.126,33.126,0,0,1-3.66,9.1c-1.747,3.058-4.184,6.036-6.115,9.609a20.171,20.171,0,0,0-2.455,12.23c.446,4.368,1.939,8.692,3.363,13.1S86.593,345,86.75,349.315a41.713,41.713,0,0,1-1.66,12.326c-1.04,3.861-2.315,7.443-3.416,10.832a75.229,75.229,0,0,0-2.621,9.566,32.061,32.061,0,0,0,0,14.274,21.256,21.256,0,0,0,1.354,3.66l.472.874a1.274,1.274,0,0,0,.245.271Z" transform="translate(-49.089 -273)" fill="#263238"/>
      <path id="Path_66996" data-name="Path 66996" d="M88.928,306.449s3.634-11.6-2.883-18.4a.4.4,0,0,0-.69.192C85.015,290.165,84.578,296,88.928,306.449Z" transform="translate(-51.049 -274.886)" fill="#efa00b"/>
      <path id="Path_66997" data-name="Path 66997" d="M86.106,292.49a10.91,10.91,0,0,0,.245,2.149c.245,1.468.524,3.206.874,5.119s.577,3.643.812,5.119a12.324,12.324,0,0,0,.384,2.114,8.945,8.945,0,0,0-.061-2.158c-.122-1.328-.358-3.145-.681-5.154s-.681-3.8-.961-5.1A9.915,9.915,0,0,0,86.106,292.49Z" transform="translate(-50.402 -275.464)" fill="#263238"/>
      <path id="Path_66998" data-name="Path 66998" d="M102.914,338.317s-2.219-11.959-11.191-14.921a.4.4,0,0,0-.515.5C91.837,325.747,94.178,331.11,102.914,338.317Z" transform="translate(-69.297 -279.369)" fill="#efa00b"/>
      <path id="Path_66999" data-name="Path 66999" d="M91.11,326.93a10.481,10.481,0,0,0,1.214,1.747l3.127,4.167c1.162,1.555,2.219,2.953,3.119,4.149a11.352,11.352,0,0,0,1.328,1.695,8.734,8.734,0,0,0-1.066-1.878c-.725-1.118-1.747-2.621-3.014-4.237s-2.385-3.049-3.241-4.062a9.449,9.449,0,0,0-1.468-1.581Z" transform="translate(-66.212 -279.818)" fill="#263238"/>
      <path id="Path_67000" data-name="Path 67000" d="M95.3,372.273s1.345-12.073-6.342-17.524a.4.4,0,0,0-.638.332C88.334,357.029,89.024,362.821,95.3,372.273Z" transform="translate(-59.26 -283.326)" fill="#efa00b"/>
      <path id="Path_67001" data-name="Path 67001" d="M88.37,359a10.742,10.742,0,0,0,.646,2.053c.515,1.4,1.118,3.049,1.747,4.866s1.258,3.494,1.747,4.875a12.045,12.045,0,0,0,.777,2,8.8,8.8,0,0,0-.472-2.105c-.367-1.275-.952-3.023-1.651-4.927s-1.389-3.608-1.922-4.831A10.065,10.065,0,0,0,88.37,359Z" transform="translate(-57.208 -283.873)" fill="#263238"/>
      <path id="Path_67002" data-name="Path 67002" d="M103.715,406.849s.874-12.134-6.989-17.279a.4.4,0,0,0-.629.349C96.22,391.867,97.119,397.65,103.715,406.849Z" transform="translate(-74.414 -287.729)" fill="#efa00b"/>
      <path id="Path_67003" data-name="Path 67003" d="M96,393.71a10.142,10.142,0,0,0,.725,2.027c.559,1.389,1.223,3.014,1.957,4.8s1.389,3.416,1.957,4.778a11.716,11.716,0,0,0,.874,1.974,9.5,9.5,0,0,0-.55-2.088c-.419-1.267-1.057-2.988-1.834-4.866s-1.511-3.555-2.088-4.752A9.909,9.909,0,0,0,96,393.71Z" transform="translate(-72.098 -288.261)" fill="#263238"/>
      <path id="Path_67004" data-name="Path 67004" d="M67.75,295.223s10.771-5.643,10.99-15.043a.4.4,0,0,0-.629-.341C76.5,280.94,72.065,284.758,67.75,295.223Z" transform="translate(-24.646 -273.856)" fill="#efa00b"/>
      <path id="Path_67005" data-name="Path 67005" d="M78.976,283.94a10.879,10.879,0,0,0-1.345,1.686l-3.04,4.2-3.049,4.193a11.655,11.655,0,0,0-1.232,1.747A9.139,9.139,0,0,0,71.8,294.2c.874-1.022,1.974-2.481,3.162-4.123s2.219-3.171,2.935-4.289A9.493,9.493,0,0,0,78.976,283.94Z" transform="translate(-27.119 -274.383)" fill="#263238"/>
      <path id="Path_67006" data-name="Path 67006" d="M80,323.86s11.1-4.971,11.872-14.344a.4.4,0,0,0-.612-.384C89.615,310.136,84.951,313.674,80,323.86Z" transform="translate(-48.478 -277.56)" fill="#efa00b"/>
      <path id="Path_67007" data-name="Path 67007" d="M92.16,313.11a11.113,11.113,0,0,0-1.45,1.651l-3.285,4.01-3.337,3.957a11.355,11.355,0,0,0-1.328,1.686,8.735,8.735,0,0,0,1.572-1.476c.917-.97,2.123-2.35,3.407-3.922s2.411-3.031,3.189-4.106A9.912,9.912,0,0,0,92.16,313.11Z" transform="translate(-51.179 -278.071)" fill="#263238"/>
      <path id="Path_67008" data-name="Path 67008" d="M80.564,355.16s7.618-9.461,4.045-18.2a.4.4,0,0,0-.716-.061C82.87,338.562,80.328,343.838,80.564,355.16Z" transform="translate(-42.649 -281.055)" fill="#efa00b"/>
      <path id="Path_67009" data-name="Path 67009" d="M85.7,341.43a10.752,10.752,0,0,0-.55,2.079c-.323,1.468-.69,3.18-1.1,5.075s-.795,3.6-1.118,5.058a11.862,11.862,0,0,0-.419,2.114,8.474,8.474,0,0,0,.734-2.035c.367-1.275.821-3.057,1.249-5.041s.76-3.791.97-5.11a9.61,9.61,0,0,0,.236-2.14Z" transform="translate(-44.499 -281.651)" fill="#263238"/>
      <path id="Path_67010" data-name="Path 67010" d="M81.588,393.122s11.016-5.154,11.645-14.545a.4.4,0,0,0-.611-.376C90.971,379.241,86.367,382.857,81.588,393.122Z" transform="translate(-51.23 -286.293)" fill="#efa00b"/>
      <path id="Path_67011" data-name="Path 67011" d="M93.483,382.23a9.761,9.761,0,0,0-1.415,1.625l-3.223,4.062-3.232,4.053a11.61,11.61,0,0,0-1.3,1.747,8.982,8.982,0,0,0,1.581-1.538c.874-.987,2.088-2.385,3.346-3.983s2.35-3.066,3.119-4.149a9.986,9.986,0,0,0,1.127-1.817Z" transform="translate(-53.856 -286.81)" fill="#263238"/>
      <path id="Path_67012" data-name="Path 67012" d="M95.941,340.55a.875.875,0,0,0,0,.271v.778c0,.725.07,1.747.131,2.944.14,2.621.341,6.211.577,10.535h0c.786,4.368,3.031,9.277,6.036,13.977,2.21,3.494,4.525,6.657,6.526,9.609a68.139,68.139,0,0,1,4.883,8.081,34.164,34.164,0,0,1,2.289,5.932c.192.725.341,1.293.419,1.677a2.724,2.724,0,0,0,.166.585,2.839,2.839,0,0,0-.07-.6c-.061-.393-.175-.97-.341-1.7a31.142,31.142,0,0,0-2.175-6.028,63.509,63.509,0,0,0-4.831-8.177c-1.983-2.97-4.281-6.115-6.482-9.609-3-4.709-5.241-9.513-6.036-13.846h0c-.306-4.324-.559-7.932-.734-10.483-.1-1.232-.183-2.219-.245-2.944a5.513,5.513,0,0,0-.079-.777A.872.872,0,0,0,95.941,340.55Z" transform="translate(-87.492 -281.54)" fill="#263238"/>
      <path id="Path_67013" data-name="Path 67013" d="M111.49,369.5s-4.665-11.225,1.206-18.59a.4.4,0,0,1,.708.14C113.918,352.925,114.879,358.7,111.49,369.5Z" transform="translate(-96.516 -282.83)" fill="#efa00b"/>
      <path id="Path_67014" data-name="Path 67014" d="M112.613,355.42a9.942,9.942,0,0,0-.367,2.123c-.166,1.319-.349,3.145-.5,5.172s-.21,3.861-.21,5.189a8.666,8.666,0,0,0,.131,2.158,12.107,12.107,0,0,0,.192-2.14c.1-1.494.218-3.241.341-5.172s.262-3.686.367-5.18A10.743,10.743,0,0,0,112.613,355.42Z" transform="translate(-96.792 -283.42)" fill="#263238"/>
      <g id="Group_161416" data-name="Group 161416" transform="translate(13.217 67.919)" opacity="0.3">
        <path id="Path_67015" data-name="Path 67015" d="M111.49,369.5s-4.665-11.225,1.206-18.59a.4.4,0,0,1,.708.14C113.918,352.925,114.879,358.7,111.49,369.5Z" transform="translate(-109.732 -350.749)"/>
      </g>
      <path id="Path_67016" data-name="Path 67016" d="M92.913,400.514s-3.739-11.575,2.708-18.432a.411.411,0,0,1,.7.192C96.687,384.187,97.176,390.022,92.913,400.514Z" transform="translate(-63.499 -286.775)" fill="#efa00b"/>
      <path id="Path_67017" data-name="Path 67017" d="M95.752,386.53a9.741,9.741,0,0,0-.542,2.088c-.271,1.3-.6,3.11-.874,5.119s-.524,3.835-.629,5.154a8.9,8.9,0,0,0,0,2.167,12.569,12.569,0,0,0,.358-2.123c.218-1.476.48-3.215.769-5.128s.55-3.652.777-5.128A10.709,10.709,0,0,0,95.752,386.53Z" transform="translate(-64.285 -287.353)" fill="#263238"/>
      <g id="Group_161417" data-name="Group 161417" transform="translate(28.336 95.178)" opacity="0.3">
        <path id="Path_67018" data-name="Path 67018" d="M92.913,400.514s-3.739-11.575,2.708-18.432a.411.411,0,0,1,.7.192C96.687,384.187,97.176,390.022,92.913,400.514Z" transform="translate(-91.835 -381.953)"/>
      </g>
      <path id="Path_67019" data-name="Path 67019" d="M128.364,354.084S118.4,347.1,119.4,337.748a.411.411,0,0,1,.673-.262C121.515,338.8,125.429,343.164,128.364,354.084Z" transform="translate(-119.33 -281.14)" fill="#efa00b"/>
      <g id="Group_161418" data-name="Group 161418" transform="translate(0 56.248)" opacity="0.3">
        <path id="Path_67020" data-name="Path 67020" d="M128.364,354.084S118.4,347.1,119.4,337.748a.411.411,0,0,1,.673-.262C121.515,338.8,125.429,343.164,128.364,354.084Z" transform="translate(-119.33 -337.389)"/>
      </g>
      <path id="Path_67021" data-name="Path 67021" d="M119.43,341.8a8.866,8.866,0,0,0,.821,1.992c.577,1.206,1.4,2.848,2.359,4.63s1.9,3.381,2.621,4.5a8.491,8.491,0,0,0,1.267,1.747,12.313,12.313,0,0,0-1-1.913l-2.481-4.543c-.926-1.747-1.747-3.25-2.472-4.56A10.858,10.858,0,0,0,119.43,341.8Z" transform="translate(-117.551 -281.698)" fill="#263238"/>
      <path id="Path_67022" data-name="Path 67022" d="M115.848,388.431s-12.02-1.869-15.244-10.719a.4.4,0,0,1,.489-.524C102.963,377.721,108.4,379.913,115.848,388.431Z" transform="translate(-90.435 -286.17)" fill="#efa00b"/>
      <g id="Group_161419" data-name="Group 161419" transform="translate(10.145 91.002)" opacity="0.3">
        <path id="Path_67023" data-name="Path 67023" d="M115.848,388.431s-12.02-1.869-15.244-10.719a.4.4,0,0,1,.489-.524C102.963,377.721,108.4,379.913,115.848,388.431Z" transform="translate(-100.58 -377.172)"/>
      </g>
      <path id="Path_67024" data-name="Path 67024" d="M100.62,380.48a9.426,9.426,0,0,0,1.616,1.415c1.04.83,2.507,1.948,4.158,3.119s3.189,2.2,4.368,2.891a8.614,8.614,0,0,0,1.9,1.013,12.047,12.047,0,0,0-1.747-1.275l-4.237-3-4.228-3.005a10.411,10.411,0,0,0-1.835-1.162Z" transform="translate(-87.288 -286.588)" fill="#263238"/>
      <path id="Path_67025" data-name="Path 67025" d="M101.8,415.38l3.5,23.6H83.45l2.839-23.6Z" transform="translate(-64.92 -291.001)" fill="#455a64"/>
      <path id="Path_67026" data-name="Path 67026" d="M86.05,423.713a86.622,86.622,0,0,0,8.806.227,86.6,86.6,0,0,0,8.806-.227,83.634,83.634,0,0,0-8.806-.227,83.635,83.635,0,0,0-8.806.227Z" transform="translate(-65.555 -292.022)" fill="#263238"/>
      <path id="Path_67027" data-name="Path 67027" d="M85.88,425.863c0,.122,4.071.227,9.094.227s9.1-.1,9.1-.227a89.331,89.331,0,0,0-9.1-.227,89.212,89.212,0,0,0-9.094.227Z" transform="translate(-65.821 -292.293)" fill="#263238"/>
    </g>
  </g>
</svg>
