<svg xmlns="http://www.w3.org/2000/svg" width="11.118" height="16" viewBox="0 0 11.118 16">
  <g id="delete12" transform="translate(0 0)">
    <path id="Path_66610" data-name="Path 66610" d="M10.18,1.808H8.467v-.09A1.721,1.721,0,0,0,6.748,0H4.369A1.721,1.721,0,0,0,2.651,1.719v.09H.937A.938.938,0,0,0,0,2.746v.715a.312.312,0,0,0,.312.312H10.805a.312.312,0,0,0,.312-.312V2.746a.937.937,0,0,0-.937-.937Zm-6.592-.09A.782.782,0,0,1,4.369.938H6.748a.782.782,0,0,1,.781.781v.09H3.588Zm0,0" transform="translate(0 0)" fill="#ef0b30"/>
    <path id="Path_66611" data-name="Path 66611" d="M12.949,150.738l.757,10.853a.469.469,0,0,0,.468.436h7.859a.469.469,0,0,0,.468-.436l.757-10.853Zm3.3,9.7h-.02a.469.469,0,0,1-.468-.449l-.313-7.344a.469.469,0,1,1,.937-.04l.313,7.344A.469.469,0,0,1,16.249,160.433Zm2.324-.468a.469.469,0,1,1-.937,0v-7.344a.469.469,0,1,1,.937,0Zm1.875.02a.469.469,0,0,1-.468.449h-.02a.469.469,0,0,1-.448-.488l.313-7.344a.469.469,0,0,1,.937.04Zm0,0" transform="translate(-12.545 -146.027)" fill="#ef0b30"/>
  </g>
</svg>
