<svg xmlns="http://www.w3.org/2000/svg" width="20" height="20.64" viewBox="0 0 20 20.64"><defs><style>.a{fill:#969697;}</style></defs><g transform="translate(-7.934)"><g transform="translate(10.478)"><g transform="translate(0)"><path class="a" d="M76.3,0a7.651,7.651,0,0,0-7.457,7.816v.848h1.517V7.816a5.947,5.947,0,1,1,11.88,0v.848h1.517V7.816A7.651,7.651,0,0,0,76.3,0Z" transform="translate(-68.841)"/></g></g><g transform="translate(7.934 7.412)"><g transform="translate(0)"><path class="a" d="M12.385,188.431H10.425a2.493,2.493,0,0,0-2.491,2.491v3.63a2.494,2.494,0,0,0,2.491,2.491h1.961a.8.8,0,0,0,.795-.795v-7.021A.8.8,0,0,0,12.385,188.431Zm-.795,7.021H10.425a.891.891,0,0,1-.9-.9v-3.63a.891.891,0,0,1,.9-.9H11.59Z" transform="translate(-7.934 -188.431)"/></g></g><g transform="translate(22.688 7.412)"><path class="a" d="M381.207,188.431h-1.96a.8.8,0,0,0-.795.795v7.021a.8.8,0,0,0,.795.795h1.961a2.493,2.493,0,0,0,2.49-2.491v-3.63A2.493,2.493,0,0,0,381.207,188.431Zm.9,6.12a.891.891,0,0,1-.9.9h-1.166v-5.432h1.166a.891.891,0,0,1,.9.9Z" transform="translate(-378.452 -188.431)"/></g><g transform="translate(20.224 14.943)"><path class="a" d="M323.582,375.594a2.016,2.016,0,0,1-2.014,2.014h-2.12v1.59h2.12a3.608,3.608,0,0,0,3.6-3.6Z" transform="translate(-319.448 -375.594)"/></g><g transform="translate(15.55 14.864)"><g transform="translate(0)"><path class="a" d="M205.314,376.567a2.82,2.82,0,1,0-.764,2.018A2.741,2.741,0,0,0,205.314,376.567Zm-1.913.919a1.313,1.313,0,0,1-.948.4,1.329,1.329,0,0,1-1.325-1.3,1.3,1.3,0,0,1,2.6,0c0,.012,0,.024,0,.036A1.166,1.166,0,0,1,203.4,377.486Z" transform="translate(-199.538 -373.697)"/></g></g></g></svg>