<svg xmlns="http://www.w3.org/2000/svg" width="20" height="21.818" viewBox="0 0 20 21.818"><defs><style>.a{fill:#ef0b30;}</style></defs><path class="a" d="M136.741,420.091a3.413,3.413,0,0,1-3.409-3.409.682.682,0,1,1,1.364,0,2.045,2.045,0,1,0,4.091,0,.682.682,0,1,1,1.364,0A3.413,3.413,0,0,1,136.741,420.091Zm0,0" transform="translate(-127.65 -398.273)"/><path class="a" d="M16.591,80.364h-15a1.591,1.591,0,0,1-1.035-2.8.629.629,0,0,1,.073-.055,6.11,6.11,0,0,0,2.1-4.609V70.364A6.371,6.371,0,0,1,9.091,64a2.739,2.739,0,0,1,.448.027.681.681,0,1,1-.224,1.345,1.429,1.429,0,0,0-.225-.008,5.006,5.006,0,0,0-5,5V72.9a7.477,7.477,0,0,1-2.639,5.7c-.014.011-.025.021-.04.031a.225.225,0,0,0-.048.141A.23.23,0,0,0,1.591,79h15a.23.23,0,0,0,.227-.227.217.217,0,0,0-.049-.141L16.73,78.6a7.475,7.475,0,0,1-2.639-5.7v-.991a.682.682,0,1,1,1.364,0V72.9a6.112,6.112,0,0,0,2.1,4.612.661.661,0,0,1,.07.053,1.591,1.591,0,0,1-1.035,2.8Zm0,0" transform="translate(0 -61.273)"/><path class="a" d="M260.546,9.091a4.545,4.545,0,1,1,4.545-4.545A4.551,4.551,0,0,1,260.546,9.091Zm0-7.727a3.182,3.182,0,1,0,3.182,3.182,3.185,3.185,0,0,0-3.182-3.182Zm0,0" transform="translate(-245.091)"/></svg>