<svg xmlns="http://www.w3.org/2000/svg" width="25.407" height="25.407" viewBox="0 0 25.407 25.407">
  <g id="crop" transform="translate(0)">
    <path id="Path_69128" data-name="Path 69128" d="M153.567,151.449a2.117,2.117,0,1,1-2.117-2.117A2.117,2.117,0,0,1,153.567,151.449Zm0,0" transform="translate(-141.922 -141.922)" fill="#372c51"/>
    <path id="Path_69129" data-name="Path 69129" d="M24.349,20.114H22.231V6.352a3.18,3.18,0,0,0-3.176-3.176H5.293V1.059a1.059,1.059,0,0,0-2.117,0V3.176H1.059a1.059,1.059,0,0,0,0,2.117H3.176V19.055a3.18,3.18,0,0,0,3.176,3.176H20.114v2.117a1.059,1.059,0,0,0,2.117,0V22.231h2.117a1.059,1.059,0,0,0,0-2.117ZM19.055,5.293a1.06,1.06,0,0,1,1.059,1.059V13.7l-2.392-2.393a1.9,1.9,0,0,0-2.625,0l-5.039,5.039L8.723,15.011a1.9,1.9,0,0,0-2.625,0l-.8.8V5.293Zm0,0" fill="#372c51"/>
  </g>
</svg>
