<svg id="Group_18878" data-name="Group 18878" xmlns="http://www.w3.org/2000/svg" width="21.989" height="16" viewBox="0 0 21.989 16">
  <path id="Path_55162" data-name="Path 55162" d="M17.182,82.65H12.464V77.883h1.559a.488.488,0,0,0,.4-.773l-3.033-4.2a.483.483,0,0,0-.786,0l-3.033,4.2a.486.486,0,0,0,.4.773H9.521V82.65H4.237A4.725,4.725,0,0,1,0,77.923a4.476,4.476,0,0,1,2.22-3.864,3,3,0,0,1-.184-1.047,3.043,3.043,0,0,1,3.046-3.046,2.994,2.994,0,0,1,1.042.184,6.1,6.1,0,0,1,11.588,2.013,5.305,5.305,0,0,1-.53,10.487Z" transform="translate(0 -66.65)" fill="#372c51"/>
</svg>
