<svg xmlns="http://www.w3.org/2000/svg" width="13.377" height="12.661" viewBox="0 0 13.377 12.661">
  <g id="attach" transform="translate(-0.001 -13.707)">
    <g id="Group_18954" data-name="Group 18954" transform="translate(0.001 13.707)">
      <path id="Path_57303" data-name="Path 57303" d="M12.125,14.957a4.281,4.281,0,0,0-6.048,0L.894,20.141a3.055,3.055,0,0,0,4.32,4.32l4.752-4.752a1.833,1.833,0,1,0-2.592-2.592L4.266,20.224a.611.611,0,1,0,.864.864l3.107-3.107a.611.611,0,1,1,.864.864L4.35,23.6A1.833,1.833,0,0,1,1.758,21l5.184-5.184a3.054,3.054,0,1,1,4.32,4.32L6.077,25.324a.611.611,0,0,0,.864.864L12.125,21a4.276,4.276,0,0,0,0-6.048Z" transform="translate(-0.001 -13.706)" fill="#fff"/>
    </g>
  </g>
</svg>
