<svg xmlns="http://www.w3.org/2000/svg" width="304.221" height="257.929" viewBox="0 0 304.221 257.929">
  <g id="Active_Support-pana" data-name="Active Support-pana" transform="translate(-74.522 -35.685)">
    <g id="freepik--background-complete--inject-28" transform="translate(74.522 42.094)">
      <path id="Path_69009" data-name="Path 69009" d="M137.828,333.711c6.29-4.388,8.405-9.8,9.124-17.431a26.891,26.891,0,0,0-7.449-21.013c-4.469-4.568-10.62-7.571-13.953-13.031-3.548-5.8-3.426-13.744-8.353-18.451-3.385-3.229-8.336-4.093-12.452-6.33-3.356-1.826-6.116-4.55-9.188-6.823s-6.718-4.156-10.527-3.872c-5.745.435-10.22,6.075-10.492,11.831s2.939,11.263,7.333,14.991c3.188,2.707,7.113,4.776,9.2,8.4,3.919,6.8-.174,16.231,4.058,22.874,3.072,4.84,10.046,7.153,11.014,12.805.354,2.081-.238,4.2-.22,6.307.052,6.591,6.214,11.907,12.707,13.072s13.107-.864,19.222-3.327" transform="translate(-74.522 -116.502)" fill="#f5f5f5"/>
      <path id="Path_69010" data-name="Path 69010" d="M114.13,286.75a4.769,4.769,0,0,0,.69.771l2.087,2.1c.922.893,2.035,2,3.24,3.368s2.684,2.823,4.11,4.637q1.1,1.322,2.319,2.765c.812.962,1.548,2.029,2.365,3.1,1.669,2.116,3.24,4.533,4.945,7.037a139.416,139.416,0,0,1,9.431,17.275,139.442,139.442,0,0,1,6.655,18.55c.742,2.939,1.507,5.716,1.982,8.371.255,1.322.58,2.585.748,3.826s.365,2.417.533,3.553c.394,2.261.528,4.33.73,6.145s.307,3.374.365,4.637.133,2.2.18,2.951a4.874,4.874,0,0,0,.122,1.032,5.477,5.477,0,0,0,.041-1.032c0-.759,0-1.739-.035-2.962s-.058-2.864-.232-4.684-.255-3.9-.614-6.179q-.238-1.739-.493-3.582c-.174-1.241-.464-2.522-.707-3.849-.446-2.678-1.159-5.472-1.919-8.434a133.383,133.383,0,0,0-6.655-18.666,135.353,135.353,0,0,0-9.542-17.39c-1.739-2.5-3.327-4.921-5.032-7.031-.835-1.067-1.6-2.127-2.412-3.084l-2.354-2.748c-1.461-1.78-2.956-3.235-4.214-4.562s-2.388-2.417-3.345-3.281l-2.191-1.994a5.8,5.8,0,0,0-.8-.632Z" transform="translate(-91.17 -133.323)" fill="#e0e0e0"/>
      <g id="Group_161855" data-name="Group 161855" transform="translate(252.514)">
        <path id="Path_69019" data-name="Path 69019" d="M463,87.41h43.481a3.427,3.427,0,0,1,3.427,3.427v28.812a3.427,3.427,0,0,1-3.427,3.427H483.607l-10.888,10.888V123.075H463a2.534,2.534,0,0,1-2.534-2.533V89.95A2.534,2.534,0,0,1,463,87.41Z" transform="translate(-460.47 -87.41)" fill="#e0e0e0"/>
        <path id="Path_69020" data-name="Path 69020" d="M484.317,115.053a2.534,2.534,0,1,1-2.534-2.534A2.533,2.533,0,0,1,484.317,115.053Z" transform="translate(-467.355 -96.616)" fill="#fafafa"/>
        <path id="Path_69021" data-name="Path 69021" d="M500.3,115.053a2.533,2.533,0,1,1-2.534-2.534A2.533,2.533,0,0,1,500.3,115.053Z" transform="translate(-473.214 -96.616)" fill="#fafafa"/>
        <path id="Path_69022" data-name="Path 69022" d="M516.267,115.053a2.533,2.533,0,1,1-2.534-2.534A2.534,2.534,0,0,1,516.267,115.053Z" transform="translate(-479.069 -96.616)" fill="#fafafa"/>
      </g>
    </g>
    <g id="freepik--speech-bubble--inject-28" transform="translate(89.689 35.685)">
      <path id="Path_69035" data-name="Path 69035" d="M276.216,91.667l-5.287,4.411-2.571-1.147-.529-2.18s5.672-4.191,5.464-4.411a3.265,3.265,0,0,0-1.947-.895,5.211,5.211,0,0,0-3.831,1.027l-1,.75a6.119,6.119,0,0,0-2.413,5.942,1.9,1.9,0,0,0,.038.2l-15.672,13.026a5.041,5.041,0,1,0,3.334,3.693l15.5-13.007a3.283,3.283,0,0,0,2.225.807,5.772,5.772,0,0,0,4.2-1.7l1.311-1.26A5.262,5.262,0,0,0,276.216,91.667Zm-30.248,23.612a26.529,26.529,0,1,1-.025,0Z" transform="translate(-227.452 -71.255)" fill="#efa00b"/>
      <path id="Path_69036" data-name="Path 69036" d="M291.472,112.25,274.6,113.661l.057-.031a31.363,31.363,0,0,1-23.467,11.248,32.566,32.566,0,0,1-10.94-1.733,31.111,31.111,0,0,1-10.36-5.98,31.508,31.508,0,0,1-10.845-23.108,11.292,11.292,0,0,1,0-1.727c0-.573.063-1.153.088-1.733a13.333,13.333,0,0,1,.221-1.727l.284-1.746c.12-.573.284-1.141.422-1.708s.271-1.153.466-1.708.4-1.109.63-1.664l.3-.838c.1-.277.252-.542.372-.813a32.006,32.006,0,0,1,8.035-10.807,31.174,31.174,0,0,1,23.581-7.669,31.565,31.565,0,0,1,25.572,17.846,15.973,15.973,0,0,1,.933,2.143c.258.725.529,1.43.769,2.143a33.843,33.843,0,0,1,.952,4.235c.094.693.227,1.367.284,2.042s.063,1.342.095,1.991a6.339,6.339,0,0,0,.05.97,4.752,4.752,0,0,1-.044.952c0,.63-.057,1.26-.088,1.84v-.057c5.98,10.158,9.2,15.622,9.547,16.221l-9.7-16.12h0q.038-.895.076-1.834c0-.315.032-.63.038-.945s-.031-.63-.05-.964c-.032-.63-.069-1.3-.1-1.979s-.2-1.336-.3-2.029a33.291,33.291,0,0,0-.952-4.2c-.24-.706-.51-1.405-.775-2.124a16.555,16.555,0,0,0-.926-2.124,31.174,31.174,0,0,0-48.743-10.083,31.773,31.773,0,0,0-7.94,10.713c-.126.271-.271.523-.372.8l-.3.832-.63,1.645c-.2.555-.3,1.128-.46,1.689s-.3,1.122-.422,1.689-.17,1.147-.258,1.714a14.31,14.31,0,0,0-.214,1.714c-.032.573-.063,1.141-.088,1.714a11.9,11.9,0,0,0,0,1.708,31.281,31.281,0,0,0,21,28.843,32.448,32.448,0,0,0,10.839,1.733,31.206,31.206,0,0,0,23.316-11.091h.038Z" transform="translate(-219.007 -61.779)" fill="#263238"/>
    </g>
    <g id="freepik--Device--inject-28" transform="translate(109.233 126.886)">
      <rect id="Rectangle_147913" data-name="Rectangle 147913" width="248.757" height="164.503" rx="14.57" transform="translate(10.053)" fill="#455a64"/>
      <path id="Path_69037" data-name="Path 69037" d="M157.26,432.36H426.77V435.9a10.852,10.852,0,0,1-10.852,10.852H168.112A10.852,10.852,0,0,1,157.26,435.9Z" transform="translate(-157.26 -280.026)" fill="#455a64"/>
      <rect id="Rectangle_147914" data-name="Rectangle 147914" width="234.705" height="138.916" transform="translate(17.083 6.535)" fill="#f5f5f5"/>
      <path id="Path_69038" data-name="Path 69038" d="M338.11,432.278h4.1l11.37-.049,38.024-.079h.28l-.14.244c-.475.817-.994,1.695-1.506,2.585s-1.085,1.829-1.6,2.731l-.049.079H388.5l-47.059-.085H341.4v-.037l-2.439-4.005-.61-1.018-.2-.335.238.354c.152.244.372.579.658,1.018.573.9,1.421,2.207,2.512,3.914l-.061-.037,47.059-.085-.14.079,1.6-2.737c.518-.884,1.03-1.768,1.512-2.585l.134.244-37.866-.085-11.48-.073h-3.926Z" transform="translate(-227.854 -279.944)" fill="#263238"/>
      <path id="Path_69039" data-name="Path 69039" d="M324.14,232.548a8.013,8.013,0,0,1,1.494-1.518l-.354-1.945,3.006-1.286,1.158,1.6a8.008,8.008,0,0,1,2.128,0l1.122-1.622L335.741,229l-.311,1.951a8.189,8.189,0,0,1,1.518,1.494l1.945-.354,1.286,3.006-1.6,1.158a8,8,0,0,1,0,2.128l1.622,1.128-1.219,3.048-1.945-.311a8.235,8.235,0,0,1-1.494,1.524l.354,1.939L332.888,247l-1.158-1.6a8.056,8.056,0,0,1-2.134,0l-1.122,1.628-3.048-1.219.311-1.951a8.046,8.046,0,0,1-1.524-1.494l-1.939.354L321,239.68l1.6-1.158a7.767,7.767,0,0,1,0-2.128l-1.6-1.128,1.219-3.048,1.951.311Zm3.256,3.377a3.506,3.506,0,1,0,1.892-1.907A3.506,3.506,0,0,0,327.4,235.925Z" transform="translate(-221.175 -200.169)" fill="#e0e0e0" fill-rule="evenodd"/>
      <path id="Path_69040" data-name="Path 69040" d="M300.281,330.1a23.548,23.548,0,0,1,4.322-4.414l-1.03-5.633,8.712-3.713,3.359,4.639a23.242,23.242,0,0,1,6.176-.073l3.249-4.707,8.791,3.536-.908,5.645a23.363,23.363,0,0,1,4.414,4.322L343,328.68l3.713,8.736-4.639,3.353a23,23,0,0,1,.067,6.176l4.713,3.256-3.536,8.785-5.645-.908a23.361,23.361,0,0,1-4.322,4.414l1.024,5.633-8.712,3.719-3.353-4.639a23.252,23.252,0,0,1-6.176.067l-3.25,4.706-8.791-3.53L305,362.8a23.171,23.171,0,0,1-4.414-4.322l-5.633,1.03-3.719-8.712,4.639-3.359a23.205,23.205,0,0,1-.067-6.17l-4.707-3.237,3.53-8.791,5.651.908Zm9.425,9.791a7.814,7.814,0,1,1,0,.012Z" transform="translate(-209.504 -234.683)" fill="#f5f5f5" fill-rule="evenodd"/>
      <path id="Path_69041" data-name="Path 69041" d="M230.729,353.348a12.978,12.978,0,0,1,2.39-2.439l-.567-3.115,4.816-2.055,1.829,2.567a12.54,12.54,0,0,1,3.414-.037l1.8-2.609,4.877,1.957-.512,3.128a12.763,12.763,0,0,1,2.439,2.39l3.115-.567,2.061,4.816-2.567,1.859a13.048,13.048,0,0,1,.037,3.414l2.6,1.829-1.957,4.877-3.121-.5a12.8,12.8,0,0,1-2.4,2.439l.573,3.115-4.81,2.006-1.829-2.567a12.592,12.592,0,0,1-3.42.037l-1.829,2.609-4.877-1.957.506-3.121a13.009,13.009,0,0,1-2.439-2.4l-3.115.573-2.055-4.835,2.567-1.829a12.841,12.841,0,0,1-.037-3.42l-2.6-1.8,1.951-4.877,3.128.506Zm5.213,5.414a3.008,3.008,0,1,0-.03,0Z" transform="translate(-183.944 -246.183)" fill="none"/>
      <path id="Path_69042" data-name="Path 69042" d="M242.175,364.828a4.19,4.19,0,0,1,.61-1.219,5.56,5.56,0,0,1,3.048-2.183,5.676,5.676,0,0,1,5.365,1.219,5.406,5.406,0,0,1,1.073,1.268,5.519,5.519,0,0,1,.677,1.591,5.737,5.737,0,1,1-11.218.671,4.3,4.3,0,0,1,.408-1.329,13.228,13.228,0,0,0-.286,1.347,5.633,5.633,0,0,0,.78,3.566,5.491,5.491,0,1,0,8.383-6.913,5.585,5.585,0,0,0-2.579-1.3,5.487,5.487,0,0,0-2.53.079,5.609,5.609,0,0,0-3.048,2.036C242.376,364.37,242.211,364.846,242.175,364.828Z" transform="translate(-198.92 -252.249)" fill="#263238"/>
      <path id="Path_69043" data-name="Path 69043" d="M230.659,353.27h-.2l-.61-.079-2.341-.347.055-.037-1.926,4.877-.031-.1,2.615,1.786.043.037v.055a12.95,12.95,0,0,0,.049,3.39v.061l-.055.043-2.561,1.859.037-.134,2.073,4.81-.14-.073,3.115-.573h.079l.049.067a12.693,12.693,0,0,0,2.439,2.359l.073.049v.085c-.152.969-.323,2.036-.494,3.127l-.091-.159,4.877,1.951-.177.055,1.8-2.609.049-.073h.091a12.844,12.844,0,0,0,3.377-.043h.091l.055.073,1.859,2.567-.189-.049,4.822-2.061-.1.177c-.183-.988-.372-2.048-.567-3.115v-.1l.073-.061a12.635,12.635,0,0,0,2.359-2.408h0l.061-.079h.1l3.128.506-.177.1q.988-2.439,1.957-4.877l.055.189-2.6-1.829-.079-.055v-.091a12.8,12.8,0,0,0-.037-3.377v-.092l.079-.055,2.567-1.829-.055.183-2.048-4.822.165.091-3.121.561h-.085l-.055-.073a12.808,12.808,0,0,0-2.439-2.365l-.067-.049v-.085c.177-1.073.341-2.109.506-3.128l.085.146-4.877-1.963.146-.043-1.829,2.6-.043.061h-.067a12.808,12.808,0,0,0-3.39,0h-.061l-.037-.049c-.671-.933-1.28-1.774-1.829-2.573l.11.031-4.835,2.067.043-.079c.219,1.219.4,2.268.549,3.121v.031h0a13.88,13.88,0,0,0-1.872,1.756l-.408.488-.14.159a1.218,1.218,0,0,1,.116-.177c.085-.116.213-.286.39-.506a12.563,12.563,0,0,1,1.829-1.8v.049c-.165-.847-.354-1.872-.61-3.115v-.055h.055l4.81-2.079h.073l.043.061,1.866,2.561-.1-.043a12.937,12.937,0,0,1,3.445-.049l-.1.049c.567-.829,1.158-1.695,1.792-2.609l.055-.079.091.037,4.877,1.945.1.037v.1c-.165,1.018-.329,2.054-.5,3.128l-.055-.134a13.236,13.236,0,0,1,2.475,2.439l-.14-.049,3.115-.573h.116l.049.11q.994,2.353,2.061,4.816l.049.116-.1.073-2.561,1.829.061-.146a12.857,12.857,0,0,1,.037,3.457l-.067-.146,2.609,1.8.1.073-.049.116-1.951,4.877-.049.116h-.128l-3.128-.5.158-.067h0a13.3,13.3,0,0,1-2.439,2.469l.055-.159c.2,1.073.39,2.134.573,3.115v.128l-.122-.024-4.822,2.055-.116.049-.073-.1-1.829-2.573.146.067a13.16,13.16,0,0,1-3.457.03l.146-.061-1.829,2.6-.067.1-.11-.043-4.877-1.963-.11-.043v-.116c.177-1.085.354-2.152.506-3.121l.055.134a13.085,13.085,0,0,1-2.439-2.439l.128.049-3.115.561h-.1l-.043-.091q-1.079-2.542-2.042-4.829l-.037-.079.073-.055,2.573-1.829-.043.1a13.073,13.073,0,0,1-.031-3.445l.043.091-2.6-1.829-.055-.037v-.061c.811-1.975,1.475-3.609,1.981-4.877v-.037h.037l2.317.4.61.11Z" transform="translate(-192.586 -246.105)" fill="#263238"/>
      <path id="Path_69044" data-name="Path 69044" d="M208.623,234.737a31.745,31.745,0,0,1,4.012-7.529l-3.579-7.041,10.053-8.34,6.261,4.816a31.842,31.842,0,0,1,8.133-2.518l2.439-7.5,13,1.219,1.024,7.828a32.065,32.065,0,0,1,7.511,3.987l7.042-3.573,8.334,10.053-4.81,6.255a32.207,32.207,0,0,1,2.506,8.121l7.5,2.439-1.219,13L269,256.971a31.829,31.829,0,0,1-3.938,7.541l3.573,7.041-10.053,8.34-6.261-4.81a31.831,31.831,0,0,1-8.145,2.487l-2.439,7.5-13-1.219-1.024-7.822a32.081,32.081,0,0,1-7.541-3.951l-7.035,3.573-8.34-10.053,4.792-6.255a32.239,32.239,0,0,1-2.518-8.133l-7.5-2.439,1.219-13,7.822-1.024Zm16.308,9.23a14.022,14.022,0,1,0,15.241-12.65A14.022,14.022,0,0,0,224.932,243.967Z" transform="translate(-182.487 -191.909)" fill="#e0e0e0" fill-rule="evenodd"/>
      <path id="Path_69045" data-name="Path 69045" d="M422.519,432.266c0,.085-55.692.152-124.369.152s-124.369-.067-124.369-.152,55.68-.146,124.369-.146S422.519,432.187,422.519,432.266Z" transform="translate(-163.709 -279.932)" fill="#263238"/>
    </g>
    <g id="freepik--Character--inject-28" transform="translate(169.801 67.237)">
      <path id="Path_69046" data-name="Path 69046" d="M349.3,125.79c-4.181,1.835-6.615,6.349-7.525,10.823s-.618,9.1-1.01,13.655-1.642,9.307-4.966,12.438c-3.1,2.925-7.652,4.115-10.291,7.459a9.373,9.373,0,0,0,5.318,14.964c-2.088,3.324-1.044,7.918,1.629,10.77s6.588,4.215,10.45,4.8a28.377,28.377,0,0,0,19.777-3.889c5.737-3.783,9.752-10.351,9.739-17.218" transform="translate(-277.38 -115.941)" fill="#263238"/>
      <path id="Path_69047" data-name="Path 69047" d="M334.479,209.657a5.318,5.318,0,0,1-.738-1.482,8.922,8.922,0,0,1-.266-4.481,12.634,12.634,0,0,1,.957-2.985,17.07,17.07,0,0,1,1.921-3.031,56.182,56.182,0,0,1,5.75-5.817,59.877,59.877,0,0,0,5.591-5.917,27.674,27.674,0,0,0,3.583-5.578,19.5,19.5,0,0,0,1.449-4.221c.126-.512.159-.924.219-1.2a1.782,1.782,0,0,1,.093-.419,2.048,2.048,0,0,1,0,.425c-.04.279-.053.7-.16,1.217a17.889,17.889,0,0,1-1.369,4.294,26.773,26.773,0,0,1-3.55,5.664,57.451,57.451,0,0,1-5.6,5.983,57.172,57.172,0,0,0-5.744,5.77,16.129,16.129,0,0,0-1.908,2.958,12.068,12.068,0,0,0-.977,2.905,9.035,9.035,0,0,0,.16,4.408A13.657,13.657,0,0,0,334.479,209.657Z" transform="translate(-280.671 -132.28)" fill="#455a64"/>
      <path id="Path_69048" data-name="Path 69048" d="M426.987,148.38c0,6.143,2.832,11.773,5.378,13.847,3.61,2.925,8.9,4.341,12.385,5.318a13.808,13.808,0,0,1,9.972,11.1c.665,5.238-2.792,10.829-7.9,12.146,3.211,3.277,2.254,8.915-.386,12.631-5.006,7.107-15,9.839-23.267,7.206s-14.625-9.972-17.112-18.3" transform="translate(-305.06 -123.514)" fill="#263238"/>
      <path id="Path_69049" data-name="Path 69049" d="M448.4,217.581a5.365,5.365,0,0,0,1.954-.858,5.651,5.651,0,0,0,1.635-1.875,6.914,6.914,0,0,0,.878-3.164,7.793,7.793,0,0,0-1.03-3.829,12.445,12.445,0,0,0-2.985-3.5c-2.52-2.121-5.943-3.444-9.254-5.318a18.188,18.188,0,0,1-4.388-3.45,10.206,10.206,0,0,1-1.536-2.194,9.821,9.821,0,0,1-.864-2.413,16.5,16.5,0,0,1-.213-4.707c.113-1.469.3-2.819.425-4.062a18.067,18.067,0,0,0-.093-5.85c-.086-.332-.166-.625-.239-.891s-.179-.459-.239-.632a4.886,4.886,0,0,1-.193-.525,2.767,2.767,0,0,1,.253.5c.073.173.186.372.273.625l.273.9a17.329,17.329,0,0,1,.2,5.9c-.113,1.243-.286,2.6-.386,4.055a16.36,16.36,0,0,0,.239,4.653,9.5,9.5,0,0,0,2.34,4.454,17.948,17.948,0,0,0,4.314,3.384c3.277,1.881,6.721,3.224,9.307,5.4a12.59,12.59,0,0,1,3.031,3.6,7.925,7.925,0,0,1,1.024,3.989,6.962,6.962,0,0,1-.951,3.251,5.8,5.8,0,0,1-1.722,1.888,4.875,4.875,0,0,1-1.469.665,2.941,2.941,0,0,1-.585.007Z" transform="translate(-313.842 -132.206)" fill="#455a64"/>
      <path id="Path_69050" data-name="Path 69050" d="M460.983,192.614a3.238,3.238,0,0,0,.625-1.708,4.181,4.181,0,0,0-.479-2.074,5.226,5.226,0,0,0-1.881-2.081,9.217,9.217,0,0,0-3.277-1.1c-1.236-.219-2.586-.3-3.989-.518a21.38,21.38,0,0,1-8.6-3.4,21.093,21.093,0,0,1-6.355-6.721,21.343,21.343,0,0,1-2.606-7.1,19.975,19.975,0,0,1-.273-5.1,13.574,13.574,0,0,1,.16-1.376,1.992,1.992,0,0,1,.093-.472c.033,0-.08.665-.126,1.861a21.871,21.871,0,0,0,3.011,12.033,21.127,21.127,0,0,0,6.276,6.6,21.505,21.505,0,0,0,8.463,3.37c1.4.226,2.752.319,3.989.545a9.194,9.194,0,0,1,3.324,1.177,5.278,5.278,0,0,1,1.928,2.194,4.221,4.221,0,0,1,.439,2.161,3,3,0,0,1-.439,1.33c-.086.126-.173.219-.226.286Z" transform="translate(-314.458 -127.734)" fill="#455a64"/>
      <path id="Path_69051" data-name="Path 69051" d="M361.252,212.277c.878-9.181,1.629-18.86,1.629-18.86s-11.627-3.125-12.558-18.793c-.891-14.938,4.873-48.669,4.873-48.669h0a44.531,44.531,0,0,1,48.2,16.148h0l-8.336,74.456c-.964,8.642-9.167,14.692-18.414,13.582h0C367.308,229.016,360.421,221.025,361.252,212.277Z" transform="translate(-286.344 -115.395)" fill="#b78876"/>
      <path id="Path_69052" data-name="Path 69052" d="M360.355,166.607a1.994,1.994,0,0,0,1.709,2.18,1.895,1.895,0,0,0,2.214-1.582,1.994,1.994,0,0,0-1.709-2.181,1.895,1.895,0,0,0-2.214,1.582Z" transform="translate(-289.735 -129.083)" fill="#263238"/>
      <path id="Path_69053" data-name="Path 69053" d="M355.849,162.737c.219.286,1.828-.665,3.955-.465s3.583,1.436,3.842,1.2c.126-.106-.08-.592-.711-1.157a5.457,5.457,0,0,0-3.045-1.276,5.318,5.318,0,0,0-3.178.665C356.008,162.166,355.742,162.611,355.849,162.737Z" transform="translate(-288.22 -127.747)" fill="#263238"/>
      <path id="Path_69054" data-name="Path 69054" d="M393.075,170.4a1.994,1.994,0,0,0,1.715,2.18A1.895,1.895,0,0,0,397,170.995a1.994,1.994,0,0,0-1.708-2.18,1.9,1.9,0,0,0-2.22,1.582Z" transform="translate(-300.703 -130.354)" fill="#263238"/>
      <path id="Path_69055" data-name="Path 69055" d="M389.149,167.187c.219.286,1.828-.665,3.955-.459s3.583,1.429,3.842,1.19c.12-.1-.08-.592-.711-1.157a5.478,5.478,0,0,0-3.045-1.276,5.318,5.318,0,0,0-3.178.665C389.308,166.616,389.042,167.061,389.149,167.187Z" transform="translate(-299.383 -129.238)" fill="#263238"/>
      <path id="Path_69056" data-name="Path 69056" d="M372.531,181.762a14.582,14.582,0,0,0-3.4-.964c-.538-.113-1.037-.273-1.1-.665a2.812,2.812,0,0,1,.525-1.576l1.994-3.989c2.812-5.671,4.906-10.357,4.654-10.47s-2.692,4.4-5.5,10.071c-.665,1.4-1.33,2.732-1.954,3.989a3.185,3.185,0,0,0-.492,2.1,1.33,1.33,0,0,0,.818.884,3.655,3.655,0,0,0,.911.219A13.206,13.206,0,0,0,372.531,181.762Z" transform="translate(-292.046 -128.782)" fill="#263238"/>
      <path id="Path_69057" data-name="Path 69057" d="M369.173,226.587a39.376,39.376,0,0,0,21.2-3.477s-6.083,10.1-21.373,7.14Z" transform="translate(-292.636 -148.565)" fill="#aa6550"/>
      <path id="Path_69058" data-name="Path 69058" d="M375.667,197.927a3.855,3.855,0,0,1,3.576-1.09,3.563,3.563,0,0,1,2.293,1.536,2.234,2.234,0,0,1-.086,2.559,2.573,2.573,0,0,1-2.859.425,8.052,8.052,0,0,1-2.559-1.888,2.368,2.368,0,0,1-.545-.665.711.711,0,0,1,.08-.791" transform="translate(-294.783 -139.729)" fill="#aa6550"/>
      <path id="Path_69059" data-name="Path 69059" d="M380.708,193.81c-.346-.053-.578,2.254-2.719,3.7s-4.574.951-4.62,1.27c-.047.14.505.505,1.542.665a5.757,5.757,0,0,0,3.842-.931,5,5,0,0,0,2.127-3.118C381.1,194.408,380.867,193.81,380.708,193.81Z" transform="translate(-294.1 -138.742)" fill="#263238"/>
      <path id="Path_69060" data-name="Path 69060" d="M418.164,175.88a9.221,9.221,0,0,1,4.933.8,6.435,6.435,0,0,1,3.324,3.656,6.728,6.728,0,0,1-.439,4.933,11.456,11.456,0,0,1-3.218,3.876,7.725,7.725,0,0,1-3.191,1.689,3.67,3.67,0,0,1-3.384-.871" transform="translate(-308.455 -132.713)" fill="#b78876"/>
      <path id="Path_69061" data-name="Path 69061" d="M419.033,187.187c-.193.04.425,1.11,1.994.851a3.265,3.265,0,0,0,1.994-1.443,7.413,7.413,0,0,0,1.1-2.659,4.4,4.4,0,0,0-.412-2.972,2.918,2.918,0,0,0-2.041-1.5c-1.549-.186-2.141.844-1.994.891a2.96,2.96,0,0,1,1.762,0,2.785,2.785,0,0,1,1.409,3.324c-.372,1.615-1.157,3.164-2.1,3.463S419.152,187.06,419.033,187.187Z" transform="translate(-309.397 -133.928)" fill="#aa6550"/>
      <path id="Path_69062" data-name="Path 69062" d="M362.338,129.583a18.893,18.893,0,0,1-12.731,10.723,46.07,46.07,0,0,1,.073-11.441,18.056,18.056,0,0,1,4.906-10.145,11.386,11.386,0,0,1,10.524-3.1" transform="translate(-286.028 -112.429)" fill="#263238"/>
      <path id="Path_69063" data-name="Path 69063" d="M369.98,121.136a15.17,15.17,0,0,0,15.682,20.688,6.506,6.506,0,0,1,3.018.06,5.541,5.541,0,0,1,2.287,2.247c2.46,3.676,5.059,7.5,8.935,9.626s9.42,1.915,12.013-1.669a13.293,13.293,0,0,0,1.921-6.083c.984-7.16,1.389-14.851-2.028-21.22A24.212,24.212,0,0,0,399.895,114.4a46.765,46.765,0,0,0-15.689-3.324c-3.111-.193-6.335-.2-9.227.984s-5.385,3.8-5.551,6.92" transform="translate(-292.605 -110.975)" fill="#263238"/>
      <path id="Path_69064" data-name="Path 69064" d="M414.971,149.688a3.938,3.938,0,0,1-.186-.525c-.106-.346-.286-.858-.519-1.5a28.1,28.1,0,0,0-2.626-5.232A27.376,27.376,0,0,0,405.877,136a37.375,37.375,0,0,0-9.234-5.2c-3.483-1.463-6.894-2.659-9.879-4.062a34.516,34.516,0,0,1-7.452-4.554,19.4,19.4,0,0,1-3.949-4.354,12.619,12.619,0,0,1-.791-1.4,2.658,2.658,0,0,1-.233-.505,4.75,4.75,0,0,1,.293.479,15.425,15.425,0,0,0,.838,1.33,20.124,20.124,0,0,0,3.989,4.248,34.659,34.659,0,0,0,7.426,4.454c2.972,1.376,6.382,2.573,9.879,4.035a37.452,37.452,0,0,1,9.307,5.265,27.036,27.036,0,0,1,5.77,6.548,26.7,26.7,0,0,1,2.546,5.318c.219.665.379,1.177.459,1.536a3.32,3.32,0,0,1,.126.545Z" transform="translate(-294.426 -112.636)" fill="#455a64"/>
      <path id="Path_69065" data-name="Path 69065" d="M410.178,149.038a2.522,2.522,0,0,1-.259-.439c-.173-.286-.425-.711-.8-1.223a16.287,16.287,0,0,0-3.823-3.69,37.6,37.6,0,0,0-7.02-3.69c-1.376-.592-2.832-1.2-4.308-1.908s-2.985-1.489-4.474-2.38a38.884,38.884,0,0,1-7.738-5.983,29.876,29.876,0,0,1-4.84-6.349,25.058,25.058,0,0,1-2.127-4.946c-.173-.612-.3-1.09-.359-1.416a2.67,2.67,0,0,1-.093-.505,2.546,2.546,0,0,1,.153.485c.086.326.233.791.425,1.4a26.51,26.51,0,0,0,2.207,4.866,30.322,30.322,0,0,0,4.846,6.256,39.7,39.7,0,0,0,7.7,5.937c1.476.884,2.972,1.669,4.441,2.38s2.912,1.33,4.288,1.915a36.179,36.179,0,0,1,7.033,3.776,15.657,15.657,0,0,1,3.8,3.809,10.748,10.748,0,0,1,.745,1.263A3.315,3.315,0,0,1,410.178,149.038Z" transform="translate(-294.426 -112.831)" fill="#455a64"/>
      <path id="Path_69066" data-name="Path 69066" d="M349.247,146.479a2.334,2.334,0,0,1-.146-.359c-.086-.233-.219-.585-.366-1.044a17.986,17.986,0,0,1-.665-3.989,19.185,19.185,0,0,1,3.989-12.591,17.313,17.313,0,0,1,2.659-2.766c.964-.784,1.954-1.449,2.9-2.074a30.5,30.5,0,0,0,4.8-3.57,10.634,10.634,0,0,0,2.353-3.231c.386-.871.472-1.4.505-1.4a1.391,1.391,0,0,1-.06.386,7.427,7.427,0,0,1-.326,1.057,10.365,10.365,0,0,1-2.307,3.324,29.4,29.4,0,0,1-4.793,3.656,35.226,35.226,0,0,0-2.865,2.074,17.5,17.5,0,0,0-2.619,2.712,18.941,18.941,0,0,0-3.271,6.482,19.182,19.182,0,0,0-.738,5.9,20.065,20.065,0,0,0,.558,3.989q.18.665.3,1.057A1.575,1.575,0,0,1,349.247,146.479Z" transform="translate(-285.614 -112.479)" fill="#455a64"/>
      <path id="Path_69067" data-name="Path 69067" d="M402.179,198.374a14.845,14.845,0,0,1-9.879-3.623l.425-.472a14,14,0,0,0,22.4-15.536l.592-.233a15.151,15.151,0,0,1-5.278,17.384,14.525,14.525,0,0,1-8.257,2.48Z" transform="translate(-300.447 -133.614)" fill="#efa00b"/>
      <circle id="Ellipse_2191" data-name="Ellipse 2191" cx="3.065" cy="3.065" r="3.065" transform="translate(90.464 58.989)" fill="#efa00b"/>
      <circle id="Ellipse_2192" data-name="Ellipse 2192" cx="10.258" cy="10.258" r="10.258" transform="translate(105.284 54.974) rotate(-80.83)" fill="#efa00b"/>
      <path id="Path_69068" data-name="Path 69068" d="M409.4,157.567a12.532,12.532,0,0,1,.053-2.6l.12-3.038c0-1.183.053-2.533,0-4.022,0-.745-.053-1.522-.093-2.327s-.126-1.649-.206-2.52-.233-1.755-.346-2.659c-.087-.452-.173-.917-.259-1.383s-.179-.944-.306-1.416a27.115,27.115,0,0,0-5.371-11.3,25,25,0,0,0-10.224-7.166,45.058,45.058,0,0,0-10.065-2.526c-2.952-.412-5.365-.538-7.027-.665a12.768,12.768,0,0,1-2.593-.213,13.069,13.069,0,0,1,2.6-.166,63.094,63.094,0,0,1,7.107.339,42.64,42.64,0,0,1,10.311,2.38,25.3,25.3,0,0,1,10.637,7.379,27.429,27.429,0,0,1,5.5,11.74c.12.485.213.971.292,1.456s.16.951.239,1.416c.106.944.253,1.848.306,2.732s.14,1.742.146,2.559.053,1.609,0,2.36c0,1.509-.086,2.865-.153,4.055s-.186,2.207-.286,3.045a13.345,13.345,0,0,1-.379,2.539Z" transform="translate(-294.004 -112.511)" fill="#efa00b"/>
      <g id="Group_161811" data-name="Group 161811" transform="translate(108.095 37.267)" opacity="0.4">
        <circle id="Ellipse_2193" data-name="Ellipse 2193" cx="7.06" cy="7.06" r="7.06" transform="translate(0 5.44) rotate(-22.66)"/>
      </g>
      <path id="Path_69069" data-name="Path 69069" d="M425.65,170.732a1.548,1.548,0,0,1,.319-.16,4.77,4.77,0,0,1,.977-.293,5.6,5.6,0,0,1,3.663.625,4.973,4.973,0,0,1,1.881,1.808,5.484,5.484,0,0,1,.751,2.892,5.318,5.318,0,0,1-7.552,4.727,5.2,5.2,0,0,1-2.353-2.32,5.386,5.386,0,0,1-.6-2.932,5.565,5.565,0,0,1,.871-2.46,5.105,5.105,0,0,1,2.925-2.274,3.357,3.357,0,0,1,1.017-.12,1.5,1.5,0,0,1,.352.053,4.928,4.928,0,0,0-1.33.186,5.112,5.112,0,0,0-2.759,2.28,4.993,4.993,0,0,0-.2,5.126,4.939,4.939,0,0,0,2.221,2.167,5.179,5.179,0,0,0,6.123-1.489,5.105,5.105,0,0,0,1-2.952,5.206,5.206,0,0,0-.665-2.746,4.7,4.7,0,0,0-1.762-1.742,5.551,5.551,0,0,0-3.523-.7A10.977,10.977,0,0,0,425.65,170.732Z" transform="translate(-310.643 -130.828)" fill="#263238"/>
      <path id="Path_69070" data-name="Path 69070" d="M430.353,189.671a3.509,3.509,0,0,1-.319-1.669,3.571,3.571,0,0,1,.179-1.682,5.939,5.939,0,0,1,.146,1.669,5.829,5.829,0,0,1-.007,1.682Z" transform="translate(-313.086 -136.232)" fill="#263238"/>
      <path id="Path_69071" data-name="Path 69071" d="M435.807,187.8a7.852,7.852,0,0,1-1.157-2.978A7.852,7.852,0,0,1,435.807,187.8Z" transform="translate(-314.643 -135.729)" fill="#263238"/>
      <path id="Path_69072" data-name="Path 69072" d="M439.358,183.787c-.06.066-.545-.273-1.084-.758s-.917-.937-.858-1,.545.273,1.084.758S439.418,183.721,439.358,183.787Z" transform="translate(-315.569 -134.79)" fill="#263238"/>
      <path id="Path_69073" data-name="Path 69073" d="M439.887,177.943c-.033.086-.379.04-.784-.106s-.7-.332-.665-.419.379-.04.784.106S439.921,177.857,439.887,177.943Z" transform="translate(-315.912 -133.234)" fill="#263238"/>
      <path id="Path_69074" data-name="Path 69074" d="M423.6,187.488a5.465,5.465,0,0,1,1.536-3,6.608,6.608,0,0,1-.711,1.529A6.783,6.783,0,0,1,423.6,187.488Z" transform="translate(-310.939 -135.619)" fill="#263238"/>
      <path id="Path_69075" data-name="Path 69075" d="M420.426,182.564c-.066-.066.339-.565.9-1.11s1.064-.944,1.13-.877-.339.565-.9,1.11S420.493,182.631,420.426,182.564Z" transform="translate(-309.873 -134.304)" fill="#263238"/>
      <path id="Path_69076" data-name="Path 69076" d="M422.209,176.173c0,.086-.266.239-.665.339s-.7.113-.725,0,.259-.246.665-.346S422.182,176.086,422.209,176.173Z" transform="translate(-310.007 -132.806)" fill="#263238"/>
      <path id="Path_69077" data-name="Path 69077" d="M497.185,241.748a12.213,12.213,0,0,0-3.231-6.867,18.554,18.554,0,0,0-3.251-2.792,19.872,19.872,0,0,0-4.813-2.32c-1.6-.346-1.994-2.426-.665-3.025s5.784.259,10.058,3.4,2.107-4.813,1.376-7.725-2.546-12.019-1.881-12.937c1.057-1.33,2.726-.425,3.4,2.5s3.284,11.567,4.806,11.142-2.44-15.2-2.44-15.2-1.33-3.031.392-3.577c3.151-.99,6.182,15,6.435,16.533.173,1.057,1.848.665,1.6-.472s-4.281-14.659-1.084-15.7c2.453-.791,2.619,13.136,5.013,15.516s-1.21-10.577,1.17-11.241c.884-.246,1.582-.306,2.573,7.406.539,4.142.193,9.852,1.808,17.756" transform="translate(-331.328 -142.26)" fill="#b78876"/>
      <path id="Path_69078" data-name="Path 69078" d="M479.978,284.614l14.532,20.854-6.973-53.781,20.775-8.2s26.219,100.515-8.941,101.924c0,0-24.338-.665-42.5-42.785Z" transform="translate(-322.092 -155.396)" fill="#b78876"/>
      <path id="Path_69079" data-name="Path 69079" d="M521.32,242.9c.04.053-.452.379-1.1,1.1a7.393,7.393,0,0,0-1.7,3.324l-.08.392-.286-.292a9.334,9.334,0,0,0-1.077-.937,9.214,9.214,0,0,0-4.414-1.715c-1.23-.133-1.994,0-1.994-.073a4.434,4.434,0,0,1,2.034-.239,8.476,8.476,0,0,1,5.784,2.659l-.372.1a6.929,6.929,0,0,1,1.928-3.457,3.271,3.271,0,0,1,1.276-.858Z" transform="translate(-340.127 -155.199)" fill="#aa6550"/>
      <path id="Path_69080" data-name="Path 69080" d="M401.579,329.486,384,307.183,379.422,330a47.272,47.272,0,0,0,2.739,27.515l2.267,5.431H303l2.034-7.253c1.15-8.882-.386-18.149-.12-30.873l-2.26-14.339-12.318,52.465H254.13s19.857-81.429,32.328-97.544c15.7-20.309,43.125-17.63,43.125-17.63l16.8,26.339L362.8,250.357s28.2-5.983,50.218,31.91l11.78,20.189h0l-5.471-41.569,25.514-5.877s9.207,40.838,8.6,62.709c-.539,19.531-8.855,29.776-20.376,30.786C414.921,350.088,401.579,329.486,401.579,329.486Z" transform="translate(-254.13 -156.792)" fill="#efa00b"/>
      <path id="Path_69081" data-name="Path 69081" d="M364.4,246.174l.286-3.284s12.445,2.766,16.62,24.5c0,0,4.188-20.057,17.59-22.071l2.26,5.777-8.23,21.426-14.452,4.228-14.067-4.228L358,259.815Z" transform="translate(-288.949 -155.195)" fill="#efa00b"/>
      <path id="Path_69082" data-name="Path 69082" d="M315.449,260.83a3.443,3.443,0,0,1,.066.558c0,.4.066.937.12,1.622.086,1.4.233,3.43.432,5.943.406,5.012,1.09,11.933,2.174,19.531s2.373,14.439,3.39,19.365c.512,2.466.937,4.454,1.25,5.83.14.665.253,1.2.339,1.582a3.216,3.216,0,0,1,.093.558,3.755,3.755,0,0,1-.16-.538q-.153-.578-.4-1.576c-.346-1.363-.811-3.324-1.33-5.8-1.077-4.919-2.393-11.76-3.49-19.372s-1.735-14.539-2.074-19.565c-.173-2.513-.286-4.547-.339-5.95,0-.665-.04-1.223-.053-1.622S315.442,260.83,315.449,260.83Z" transform="translate(-274.685 -161.209)" fill="#263238"/>
      <path id="Path_69083" data-name="Path 69083" d="M412.561,250.56a1.724,1.724,0,0,1-.179.312l-.558.864-2.074,3.164c-1.742,2.659-4.088,6.415-6.535,10.637-.093.166-.193.326-.279.485l-.16.273-.133-.286a9.812,9.812,0,0,0-1.788-2.879,3.251,3.251,0,0,0-2.772-1.037,3.809,3.809,0,0,0-2.287,1.5,7.065,7.065,0,0,0-1.143,2.187c-.465,1.462-.738,2.692-1.09,3.49a7.275,7.275,0,0,1-.432.9q-.18.293-.2.279a10.141,10.141,0,0,0,.519-1.223c.292-.8.538-1.994.99-3.51a7.027,7.027,0,0,1,1.143-2.287,3.989,3.989,0,0,1,2.453-1.629,3.517,3.517,0,0,1,3.038,1.1,9.839,9.839,0,0,1,1.868,2.965h-.293l.279-.485c2.446-4.228,4.833-7.977,6.648-10.6.9-1.33,1.642-2.387,2.161-3.111.253-.332.452-.612.612-.831A1.7,1.7,0,0,1,412.561,250.56Z" transform="translate(-300.658 -157.766)" fill="#263238"/>
      <path id="Path_69084" data-name="Path 69084" d="M396.474,268.219a1.859,1.859,0,0,1-.133.279l-.439.771-1.669,2.805-2.513,4.128-1.5,2.44c-.266.419-.532.851-.8,1.29a1.182,1.182,0,0,1-.312.319.592.592,0,0,1-.505.067,1.263,1.263,0,0,1-.665-.605c-2.333-3.51-4.075-6.907-5.438-9.307-.665-1.2-1.23-2.167-1.615-2.832a8.932,8.932,0,0,1-.585-1.044,1.852,1.852,0,0,1,.193.246c.113.166.293.406.5.731.425.665,1.01,1.6,1.708,2.785,1.416,2.36,3.191,5.737,5.518,9.227.14.226.273.419.452.472s.319-.066.459-.259l.8-1.276,1.509-2.426,2.573-4.1,1.755-2.746c.2-.293.359-.539.5-.738A1.244,1.244,0,0,1,396.474,268.219Z" transform="translate(-296.424 -163.12)" fill="#263238"/>
      <path id="Path_69085" data-name="Path 69085" d="M464.867,272a3.486,3.486,0,0,1-.193.432q-.219.459-.6,1.217c-.532,1.05-1.276,2.579-2.167,4.481s-1.9,4.195-2.965,6.761-2.147,5.425-3.2,8.456-1.928,5.983-2.659,8.642-1.33,5.106-1.815,7.153-.824,3.716-1.05,4.866c-.113.552-.206.991-.273,1.33a2.408,2.408,0,0,1-.12.459,2.235,2.235,0,0,1,.053-.472c.053-.339.126-.784.213-1.33.186-1.163.512-2.839.951-4.9s1.024-4.494,1.748-7.186,1.629-5.611,2.659-8.642,2.161-5.89,3.224-8.463,2.121-4.853,3.045-6.748,1.7-3.41,2.26-4.441l.665-1.183a2.239,2.239,0,0,1,.219-.432Z" transform="translate(-319.732 -164.953)" fill="#263238"/>
      <path id="Path_69086" data-name="Path 69086" d="M392.408,389.11a4.827,4.827,0,0,1-.505,0L390.447,389c-.665-.053-1.4-.12-2.294-.233s-1.915-.213-3.031-.386c-2.247-.306-4.906-.771-7.838-1.376s-6.129-1.416-9.447-2.393-6.422-2.087-9.221-3.158-5.265-2.161-7.313-3.131c-1.037-.465-1.948-.937-2.752-1.329s-1.5-.758-2.048-1.064l-1.283-.7a3.319,3.319,0,0,1-.432-.259,2.572,2.572,0,0,1,.465.2l1.33.665c.565.286,1.256.665,2.067,1.011s1.728.838,2.766,1.283c2.061.944,4.54,1.994,7.313,3.058s5.9,2.134,9.2,3.124,6.5,1.768,9.413,2.413,5.571,1.11,7.811,1.443c1.11.193,2.127.313,3.018.432s1.655.219,2.287.286l1.449.18A2.862,2.862,0,0,1,392.408,389.11Z" transform="translate(-284.521 -199.471)" fill="#263238"/>
      <path id="Path_69087" data-name="Path 69087" d="M393.964,398.379a1.459,1.459,0,0,1-.339.086l-.971.186c-.844.153-2.074.346-3.6.558a120.876,120.876,0,0,1-23.932.831c-1.536-.106-2.772-.213-3.623-.312l-.984-.113a2.289,2.289,0,0,1-.339-.06,1.252,1.252,0,0,1,.346,0l.984.053c.857.06,2.094.133,3.63.206,3.058.146,7.313.246,11.966.087s8.895-.559,11.966-.917c1.522-.179,2.752-.339,3.6-.452l.984-.126A1.141,1.141,0,0,1,393.964,398.379Z" transform="translate(-289.68 -207.318)" fill="#263238"/>
      <path id="Path_69088" data-name="Path 69088" d="M454.35,320.294a2.369,2.369,0,0,1,.093-.479l.339-1.33,1.263-4.979c1.07-4.2,2.486-10.018,4.235-16.4.878-3.191,1.775-6.216,2.659-8.948s1.735-5.165,2.52-7.186c.372-1.024.758-1.928,1.077-2.726s.618-1.476.871-2.028l.578-1.27a2.877,2.877,0,0,1,.226-.439,3.062,3.062,0,0,1-.166.465c-.126.319-.3.751-.519,1.29s-.512,1.25-.818,2.054-.665,1.708-1.03,2.732c-.758,2.028-1.582,4.474-2.446,7.2s-1.748,5.757-2.626,8.941c-1.742,6.375-3.191,12.186-4.321,16.374-.558,2.094-1.024,3.789-1.363,4.953l-.4,1.33A2.179,2.179,0,0,1,454.35,320.294Z" transform="translate(-321.247 -165.795)" fill="#263238"/>
      <path id="Path_69089" data-name="Path 69089" d="M320.823,316.535a4,4,0,0,1-.346-.4c-.213-.279-.552-.665-.924-1.2a34.661,34.661,0,0,1-2.905-4.773,46.221,46.221,0,0,1-3.051-7.711,68.094,68.094,0,0,1-2.114-9.925c-.971-7.14-1.13-13.668-1.423-18.361-.133-2.353-.259-4.255-.352-5.571-.047-.632-.087-1.137-.113-1.509a3.564,3.564,0,0,1,0-.532,3.086,3.086,0,0,1,.086.525c.04.339.106.851.173,1.509.14,1.33.3,3.211.459,5.558.352,4.7.545,11.221,1.516,18.335a69.435,69.435,0,0,0,2.081,9.885,47.367,47.367,0,0,0,2.945,7.7,39.093,39.093,0,0,0,2.8,4.806c.359.552.665.944.878,1.236A2.728,2.728,0,0,1,320.823,316.535Z" transform="translate(-272.719 -163.126)" fill="#263238"/>
      <path id="Path_69090" data-name="Path 69090" d="M319.949,319.72c0,.1-.944.306-1.994.917s-1.682,1.33-1.755,1.263a4.653,4.653,0,0,1,3.723-2.18Z" transform="translate(-274.937 -180.95)" fill="#263238"/>
      <path id="Path_69091" data-name="Path 69091" d="M318.577,306.878a17.527,17.527,0,0,0-2.486.891,17.954,17.954,0,0,0-2.141,1.542,5.239,5.239,0,0,1,4.654-2.433Z" transform="translate(-274.183 -176.643)" fill="#263238"/>
      <path id="Path_69092" data-name="Path 69092" d="M316.226,295.126a17.522,17.522,0,0,0-1.994.665,17.845,17.845,0,0,0-1.722,1.163,3.756,3.756,0,0,1,3.69-1.828Z" transform="translate(-273.7 -172.697)" fill="#263238"/>
      <path id="Path_69093" data-name="Path 69093" d="M314.96,282.99c0,.093-.831.259-1.788.665s-1.662.9-1.722.831a3.324,3.324,0,0,1,1.589-1.137A3.37,3.37,0,0,1,314.96,282.99Z" transform="translate(-273.345 -168.631)" fill="#263238"/>
      <path id="Path_69094" data-name="Path 69094" d="M314.187,273.211c0,.093-.838.253-1.795.7s-1.622,1-1.682.931a3.158,3.158,0,0,1,1.542-1.23A3.2,3.2,0,0,1,314.187,273.211Z" transform="translate(-273.097 -165.353)" fill="#263238"/>
      <path id="Path_69095" data-name="Path 69095" d="M455.482,327.719c-.08.06-.512-.525-1.33-.838a9.272,9.272,0,0,0-1.522-.312,1.781,1.781,0,0,1,1.642,0C455.2,326.941,455.568,327.692,455.482,327.719Z" transform="translate(-320.671 -183.179)" fill="#263238"/>
      <path id="Path_69096" data-name="Path 69096" d="M458.863,317.183a4.275,4.275,0,0,0-3.523-2.28c0-.04.246-.126.665-.113a3.224,3.224,0,0,1,1.569.512,3.171,3.171,0,0,1,1.11,1.223C458.877,316.923,458.9,317.169,458.863,317.183Z" transform="translate(-321.579 -179.297)" fill="#263238"/>
      <path id="Path_69097" data-name="Path 69097" d="M461.56,306.523a4.481,4.481,0,0,0-3.709-1.469c0-.033.213-.153.612-.206a3.118,3.118,0,0,1,1.542.2,3.151,3.151,0,0,1,1.256.911C461.513,306.271,461.593,306.51,461.56,306.523Z" transform="translate(-322.42 -175.957)" fill="#263238"/>
      <path id="Path_69098" data-name="Path 69098" d="M465.356,296.019c-.086.047-.432-.612-1.2-1a7.114,7.114,0,0,0-1.5-.425c0-.04.173-.12.485-.14a2.413,2.413,0,0,1,2.061,1.09C465.356,295.806,465.389,296,465.356,296.019Z" transform="translate(-324.029 -172.479)" fill="#263238"/>
      <path id="Path_69099" data-name="Path 69099" d="M469.008,286.256a4.529,4.529,0,0,0-1.33-1.143,4.734,4.734,0,0,0-1.748-.292c0-.033.173-.16.525-.219a2.513,2.513,0,0,1,2.4,1.11C469.015,286.017,469.041,286.243,469.008,286.256Z" transform="translate(-325.129 -169.171)" fill="#263238"/>
      <path id="Path_69100" data-name="Path 69100" d="M398.163,273.22a1.363,1.363,0,0,1-.146.306l-.465.851c-.412.731-1.024,1.788-1.8,3.085s-1.7,2.825-2.765,4.507c-.538.838-1.1,1.715-1.715,2.613a28.952,28.952,0,0,1-1.994,2.706,2.939,2.939,0,0,1-.665.612.458.458,0,0,1-.293.06.939.939,0,0,1-.253-.08,2.71,2.71,0,0,1-.379-.259,9.513,9.513,0,0,1-1.163-1.217c-.665-.838-1.33-1.688-1.881-2.5-1.143-1.635-2.114-3.144-2.918-4.421s-1.429-2.313-1.855-3.045l-.479-.844a1.071,1.071,0,0,1-.146-.306,2,2,0,0,1,.2.273l.532.811c.485.745,1.143,1.755,1.941,2.992s1.822,2.745,2.972,4.361c.578.811,1.2,1.649,1.881,2.473a9.851,9.851,0,0,0,1.124,1.17c.2.16.452.332.578.233a2.826,2.826,0,0,0,.578-.532,30.437,30.437,0,0,0,1.994-2.659c.612-.891,1.183-1.762,1.722-2.6,1.077-1.669,2.027-3.184,2.825-4.467s1.416-2.267,1.881-3.025L398,273.5C398.083,273.306,398.15,273.213,398.163,273.22Z" transform="translate(-296.072 -165.362)" fill="#263238"/>
      <path id="Path_69101" data-name="Path 69101" d="M386.344,285.973c-.04,0-.113-.226-.086-.612a2.619,2.619,0,0,1,.558-1.369,2.586,2.586,0,0,1,1.2-.864c.366-.113.6-.093.612-.053a4.8,4.8,0,0,0-1.556,1.124A4.653,4.653,0,0,0,386.344,285.973Z" transform="translate(-298.419 -168.655)" fill="#263238"/>
      <path id="Path_69102" data-name="Path 69102" d="M392.839,292.688a11.611,11.611,0,0,1-.04-5.239,17.028,17.028,0,0,1,.046,2.619A17.343,17.343,0,0,1,392.839,292.688Z" transform="translate(-300.52 -170.133)" fill="#263238"/>
      <path id="Path_69103" data-name="Path 69103" d="M399.2,284.242a5.942,5.942,0,0,0-.991-1.276,6.482,6.482,0,0,0-1.429-.745c0-.04.2-.086.519-.033a2.427,2.427,0,0,1,1.124.525,2.387,2.387,0,0,1,.718,1.01C399.246,284.049,399.24,284.229,399.2,284.242Z" transform="translate(-301.949 -168.361)" fill="#263238"/>
      <path id="Path_69104" data-name="Path 69104" d="M404.207,275.968a6.458,6.458,0,0,0-.818-1.376,6.788,6.788,0,0,0-1.33-.911c0-.04.206-.06.512,0a2.427,2.427,0,0,1,1.044.665,2.368,2.368,0,0,1,.585,1.084C404.28,275.762,404.247,275.961,404.207,275.968Z" transform="translate(-303.719 -165.504)" fill="#263238"/>
      <path id="Path_69105" data-name="Path 69105" d="M381.339,278.045c-.04,0-.146-.246-.16-.665a3.41,3.41,0,0,1,.406-1.675,3.5,3.5,0,0,1,1.163-1.276c.379-.233.665-.286.665-.253a4.574,4.574,0,0,0-2.081,3.9Z" transform="translate(-296.719 -165.68)" fill="#263238"/>
      <g id="Group_161812" data-name="Group 161812" transform="translate(75.28 90.923)" opacity="0.4">
        <path id="Path_69106" data-name="Path 69106" d="M367.37,247.749c1.423,5.465,3.8,14.366,6.375,21.326a2.267,2.267,0,0,0,.492.884,1.789,1.789,0,0,0,2.393-.419,16.125,16.125,0,0,0,1.4-2.147A2.772,2.772,0,0,1,380.074,266a2.38,2.38,0,0,1,1.808.9,10.347,10.347,0,0,1,1.11,1.775,1.33,1.33,0,0,0,.784.751.472.472,0,0,0,.558-.665l-2.274-5.9s-1.044-4.328-4.653-3.656c-4.042.751-2.207,7.4-2.207,7.4S367.31,247.516,367.37,247.749Z" transform="translate(-367.369 -247.747)"/>
      </g>
      <path id="Path_69107" data-name="Path 69107" d="M384.535,269.03a1.589,1.589,0,0,1-.193-.386c-.12-.259-.286-.665-.492-1.137-.405-1.037-.977-2.473-1.675-4.235-.18-.445-.372-.911-.578-1.389a4.354,4.354,0,0,0-.831-1.33,3.989,3.989,0,0,0-3.151-1.177,3.111,3.111,0,0,0-1.662.745,4.141,4.141,0,0,0-.9,1.722,4.876,4.876,0,0,0-.14,1.994,17.022,17.022,0,0,0,.379,2.114c.06.259.126.518.186.758l-.319.093c-.931-2.659-1.994-5.159-2.978-7.4s-1.881-4.261-2.586-5.983-1.223-3.111-1.536-4.1c-.166-.485-.266-.871-.339-1.137a1.678,1.678,0,0,1-.093-.4,2.481,2.481,0,0,1,.153.379c.093.259.213.665.4,1.117.346.964.9,2.353,1.629,4.042s1.642,3.7,2.659,5.937,2.081,4.727,3.018,7.419l-.312.1c-.06-.246-.126-.505-.193-.764a17.286,17.286,0,0,1-.379-2.161,5.125,5.125,0,0,1,.16-2.154,4.453,4.453,0,0,1,.984-1.848,3.376,3.376,0,0,1,1.848-.818,4.222,4.222,0,0,1,3.384,1.29,4.727,4.727,0,0,1,.864,1.429c.206.485.386.957.565,1.4.665,1.775,1.19,3.224,1.575,4.275.18.479.319.864.432,1.157A2.4,2.4,0,0,1,384.535,269.03Z" transform="translate(-292.177 -156.838)" fill="#263238"/>
      <g id="Group_161813" data-name="Group 161813" transform="translate(92.616 93.465)" opacity="0.4">
        <path id="Path_69108" data-name="Path 69108" d="M393.509,270.137c-.133.093-.033.339.126.372a.578.578,0,0,0,.459-.16,10.029,10.029,0,0,0,1.915-2.539,3.341,3.341,0,0,1,2.539-1.742A3.4,3.4,0,0,1,401.16,268a12.216,12.216,0,0,0,1.755,2.905,79.709,79.709,0,0,0,9.646-19.339,11.581,11.581,0,0,0-3.045,3.756q-3.238,5.4-6.475,10.8a8.31,8.31,0,0,0-1.828-2.879,3.55,3.55,0,0,0-3.138-1.01,4.672,4.672,0,0,0-2.746,2.579A15.335,15.335,0,0,0,393.6,270.2" transform="translate(-393.447 -251.57)"/>
      </g>
      <path id="Path_69109" data-name="Path 69109" d="M517.613,349.456a3.925,3.925,0,0,1-.432-.725c-.259-.479-.618-1.183-1.037-2.054a75.857,75.857,0,0,1-2.919-7.013,74.852,74.852,0,0,1-2.194-7.266c-.233-.944-.4-1.708-.505-2.247a4.707,4.707,0,0,1-.126-.831,4.029,4.029,0,0,1,.253.8c.16.585.366,1.329.605,2.214.519,1.868,1.283,4.434,2.28,7.22s2.034,5.252,2.819,7.02c.379.838.665,1.542.937,2.094A4.094,4.094,0,0,1,517.613,349.456Z" transform="translate(-340.036 -184.168)" fill="#263238"/>
      <path id="Path_69110" data-name="Path 69110" d="M510.706,347.928a3.825,3.825,0,0,1-.266-.724c-.153-.479-.346-1.17-.559-2.034a44.28,44.28,0,0,1-1.09-13.827c.073-.884.153-1.6.233-2.094a2.907,2.907,0,0,1,.153-.758,3.573,3.573,0,0,1,0,.771c-.04.492-.08,1.21-.126,2.094a53.883,53.883,0,0,0,1.083,13.761c.186.871.339,1.569.459,2.054A2.971,2.971,0,0,1,510.706,347.928Z" transform="translate(-339.451 -183.89)" fill="#263238"/>
      <path id="Path_69111" data-name="Path 69111" d="M529.327,270.19a2.368,2.368,0,0,1,.505.193l.1.047-.1.04a89.968,89.968,0,0,1-12.671,3.244c-3.71.665-7.107,1.077-9.566,1.277-1.23.1-2.227.159-2.918.179a6.079,6.079,0,0,1-1.077,0,7.607,7.607,0,0,1,1.064-.133l2.912-.286c2.446-.259,5.83-.665,9.526-1.369,6.169-1.124,11.241-2.619,12.724-3v.08A2.331,2.331,0,0,1,529.327,270.19Z" transform="translate(-337.757 -164.347)" fill="#263238"/>
      <path id="Path_69112" data-name="Path 69112" d="M533.3,265.673a.441.441,0,0,1,.266-.166,1.064,1.064,0,0,1,.858.193,1.216,1.216,0,0,1,.545,1.183.963.963,0,0,1-.485.665,1.33,1.33,0,0,1-.851.16,1.436,1.436,0,0,1-.784-.366,1.051,1.051,0,0,1-.312-.764,1.33,1.33,0,0,1,.711-1.09,1.223,1.223,0,0,1,.857-.14c.206.053.286.146.279.16a1.383,1.383,0,0,0-1.017.179,1.11,1.11,0,0,0-.525.891.857.857,0,0,0,.831.8.838.838,0,0,0,1-.558,1.1,1.1,0,0,0-1.077-1.183C533.411,265.647,533.318,265.706,533.3,265.673Z" transform="translate(-347.458 -162.715)" fill="#263238"/>
      <path id="Path_69113" data-name="Path 69113" d="M362.52,287a3.727,3.727,0,0,1-.366.319c-.253.186-.6.505-1.1.838a24.93,24.93,0,0,1-4.421,2.52,27.011,27.011,0,0,1-7.259,2.061,27.771,27.771,0,0,1-4.461.239,27.162,27.162,0,0,1-4.76-.592c-3.218-.725-6.116-1.908-8.848-2.659a23.5,23.5,0,0,0-3.916-.771,15.862,15.862,0,0,0-3.49.04,10.638,10.638,0,0,0-4.7,1.655,18.35,18.35,0,0,0-1.443,1.163,6.5,6.5,0,0,1,1.37-1.27,10.471,10.471,0,0,1,4.747-1.782,16.159,16.159,0,0,1,3.523-.073,23.118,23.118,0,0,1,3.989.751c2.759.718,5.657,1.895,8.835,2.613a27.787,27.787,0,0,0,4.707.592,28.787,28.787,0,0,0,4.408-.219,27.167,27.167,0,0,0,7.206-1.994,26.162,26.162,0,0,0,4.441-2.406c.512-.312.864-.612,1.13-.784A2.1,2.1,0,0,1,362.52,287Z" transform="translate(-275.46 -169.982)" fill="#fafafa"/>
      <path id="Path_69114" data-name="Path 69114" d="M407.006,325.471a.946.946,0,0,1-.2-.093l-.578-.3c-.253-.126-.578-.259-.957-.432a8.592,8.592,0,0,0-1.33-.459,21,21,0,0,0-9.054-.326,51.944,51.944,0,0,0-6.163,1.4c-2.194.6-4.534,1.3-7.047,1.808a26.073,26.073,0,0,1-8.037.492,38.365,38.365,0,0,1-8.409-1.994c-2.812-.944-5.5-1.994-8.137-2.879a41.206,41.206,0,0,0-7.758-1.908,36.5,36.5,0,0,0-13.455.731,40.081,40.081,0,0,0-4.959,1.6c-.7.306-1.363.578-1.954.864s-1.13.545-1.6.811l-1.256.7-.9.558-.552.332a.667.667,0,0,1-.2.106l.18-.133.539-.366c.233-.153.525-.359.877-.578l1.243-.731c.472-.273,1.017-.532,1.6-.838s1.25-.578,1.954-.9a39.409,39.409,0,0,1,4.966-1.655,36.318,36.318,0,0,1,13.555-.8,41.215,41.215,0,0,1,7.825,1.9c2.659.878,5.318,1.928,8.13,2.872a38.507,38.507,0,0,0,8.343,1.994,25.536,25.536,0,0,0,7.944-.465c2.5-.5,4.833-1.183,7.033-1.775a51.748,51.748,0,0,1,6.2-1.363,20.675,20.675,0,0,1,9.074.406c.525.146.971.346,1.363.492a6.741,6.741,0,0,1,.951.459l.558.332A1.049,1.049,0,0,1,407.006,325.471Z" transform="translate(-277.706 -181.103)" fill="#fafafa"/>
      <path id="Path_69115" data-name="Path 69115" d="M398.24,284.251a14.842,14.842,0,0,0,1.7.372,12.357,12.357,0,0,0,4.687-.372,57.549,57.549,0,0,0,6.6-2.473,21.723,21.723,0,0,1,4.029-1.2,18.992,18.992,0,0,1,4.5-.259,26.061,26.061,0,0,1,8.436,1.994,44.741,44.741,0,0,1,6.289,3.264c1.722,1.05,3.071,1.994,3.989,2.6.445.306.8.552,1.064.745a2.491,2.491,0,0,1,.359.273,2.051,2.051,0,0,1-.392-.219l-1.1-.665c-.957-.6-2.32-1.482-4.055-2.506a48.531,48.531,0,0,0-6.282-3.184,26.388,26.388,0,0,0-8.343-1.994,19.475,19.475,0,0,0-4.427.246,22.047,22.047,0,0,0-3.989,1.17,48.464,48.464,0,0,1-6.648,2.413,11.828,11.828,0,0,1-4.76.273A5.887,5.887,0,0,1,398.24,284.251Z" transform="translate(-302.438 -167.731)" fill="#fafafa"/>
      <path id="Path_69116" data-name="Path 69116" d="M444.337,260.134a6.347,6.347,0,0,1-.944.286c-.312.087-.665.18-1.13.266s-.944.206-1.509.286a34.325,34.325,0,0,1-3.989.432,39.486,39.486,0,0,1-4.853-.053,39.013,39.013,0,0,1-4.84-.745,35.035,35.035,0,0,1-3.849-1.09c-.538-.173-1.01-.379-1.436-.538s-.778-.319-1.064-.452a5.782,5.782,0,0,1-.884-.445,5.828,5.828,0,0,1,.931.326c.3.12.665.259,1.084.4s.9.332,1.443.492c1.077.346,2.38.7,3.836,1.017a38.868,38.868,0,0,0,9.659.818c1.489-.066,2.832-.193,3.949-.352.565-.066,1.064-.166,1.509-.239s.824-.146,1.13-.213A4.914,4.914,0,0,1,444.337,260.134Z" transform="translate(-309.679 -160.287)" fill="#fafafa"/>
      <path id="Path_69117" data-name="Path 69117" d="M315.86,262.265a2.107,2.107,0,0,1,.286-.253c.2-.16.492-.4.878-.665.764-.585,1.881-1.409,3.324-2.367a46.353,46.353,0,0,1,12.039-5.943,28.32,28.32,0,0,1,13.335-.931,20.985,20.985,0,0,1,3.922,1.123c.452.166.784.346,1.017.445a1.793,1.793,0,0,1,.339.18l-1.4-.505a22.326,22.326,0,0,0-3.922-1.01,29.078,29.078,0,0,0-13.2,1.01,48.992,48.992,0,0,0-11.966,5.823c-1.443.931-2.586,1.728-3.37,2.28l-.911.665A1.415,1.415,0,0,1,315.86,262.265Z" transform="translate(-274.823 -158.151)" fill="#fafafa"/>
      <path id="Path_69118" data-name="Path 69118" d="M404.756,370.224a.61.61,0,0,1-.186.053l-.558.12a6.434,6.434,0,0,1-.917.14l-.585.066h-.665a24.668,24.668,0,0,1-7.891-1.449c-1.622-.505-3.377-1.13-5.285-1.7a32.5,32.5,0,0,0-6.216-1.2,54.071,54.071,0,0,0-14.472,1.037c-5.079.924-9.905,2.074-14.373,2.606a44.845,44.845,0,0,1-11.926.073,24.731,24.731,0,0,1-7.685-2.32l-1.117-.585-.8-.472-.479-.312-.153-.113a.615.615,0,0,1,.173.086l.492.279.8.472,1.124.558a25.646,25.646,0,0,0,7.665,2.207,45.73,45.73,0,0,0,11.853-.146c4.447-.552,9.247-1.708,14.353-2.659a52.486,52.486,0,0,1,14.559-1.011,32.251,32.251,0,0,1,6.262,1.243c1.915.578,3.67,1.21,5.278,1.728a25.126,25.126,0,0,0,7.825,1.549h.665l.585-.053a6.014,6.014,0,0,0,.917-.106l.558-.086Z" transform="translate(-280.049 -196.393)" fill="#fafafa"/>
      <g id="Group_161814" data-name="Group 161814" transform="translate(66.119 178.411)" opacity="0.3">
        <path id="Path_69119" data-name="Path 69119" d="M353.61,379.35c3.012,7.519,8.842,12.857,16.865,13.96s16.141-.731,23.932-2.859c-14.206-1.994-26.778-3.955-40.818-11.1" transform="translate(-353.59 -379.35)"/>
      </g>
      <path id="Path_69120" data-name="Path 69120" d="M406.776,406.631l-.193-.073-.565-.239-2.147-.957c-1.875-.818-4.554-2.081-7.9-3.53a34.872,34.872,0,0,0-5.631-1.908,18.063,18.063,0,0,0-6.754-.313,23.83,23.83,0,0,0-3.59.818,37.73,37.73,0,0,0-3.6,1.33c-2.4,1.05-4.786,2.353-7.246,3.67a57.662,57.662,0,0,1-7.392,3.444,22.862,22.862,0,0,1-7.439,1.509,16.721,16.721,0,0,1-6.734-1.33,45.784,45.784,0,0,1-5.318-2.712c-1.589-.911-3.018-1.735-4.315-2.367a23.076,23.076,0,0,0-3.437-1.4,11.865,11.865,0,0,0-1.33-.352,7.3,7.3,0,0,0-.971-.186l-.6-.1a.827.827,0,0,1-.206-.04.664.664,0,0,1,.206,0l.612.066a6.921,6.921,0,0,1,.984.16,11.347,11.347,0,0,1,1.33.319,22.922,22.922,0,0,1,3.477,1.33c1.329.618,2.759,1.436,4.348,2.327a45.648,45.648,0,0,0,5.318,2.659,16.62,16.62,0,0,0,6.648,1.27,22.722,22.722,0,0,0,7.313-1.516,57.8,57.8,0,0,0,7.313-3.43c2.453-1.329,4.846-2.619,7.266-3.67a36.807,36.807,0,0,1,3.636-1.37,25.1,25.1,0,0,1,3.643-.811,18.275,18.275,0,0,1,6.854.346,33.964,33.964,0,0,1,5.664,1.994c3.324,1.482,5.983,2.772,7.858,3.63l2.121,1.01.552.272A1.639,1.639,0,0,1,406.776,406.631Z" transform="translate(-280.036 -207.545)" fill="#fafafa"/>
    </g>
  </g>
</svg>
