<svg id="pencil" xmlns="http://www.w3.org/2000/svg" width="12.013" height="12" viewBox="0 0 12.013 12">
  <path id="Path_65223" data-name="Path 65223" d="M7.443,82.473.811,89.105a.264.264,0,0,0-.069.121L.007,92.177A.261.261,0,0,0,.26,92.5a.259.259,0,0,0,.063-.008l2.951-.735a.261.261,0,0,0,.121-.069l6.633-6.632Zm0,0" transform="translate(0 -80.501)" fill="#372c51"/>
  <path id="Path_65224" data-name="Path 65224" d="M337.817,1.355l-.738-.738a1.337,1.337,0,0,0-1.846,0l-.9.9,2.585,2.585.9-.9a1.306,1.306,0,0,0,0-1.846Zm0,0" transform="translate(-326.187 -0.246)" fill="#372c51"/>
</svg>
