<svg id="Group_19244" data-name="Group 19244" xmlns="http://www.w3.org/2000/svg" width="105.503" height="209.005" viewBox="0 0 105.503 209.005">
  <g id="freepik--background-complete--inject-228" transform="translate(0 0)">
    <path id="Path_59157" data-name="Path 59157" d="M98.442,95.456a12.179,12.179,0,0,0-9.393,1.713,21.381,21.381,0,0,0-6.66,7.094c-3.334,5.381-4.46,12.582-4.567,18.907,7.026-.35,12.94-5.93,15.817-8.944,4.506-4.78,9.682-16.144,4.8-18.77" transform="translate(-25.621 -95.156)" fill="#f5f5f5"/>
    <path id="Path_59158" data-name="Path 59158" d="M127.692,131.394a10.4,10.4,0,0,0,3.486-9.85,13.838,13.838,0,0,0-6.028-8.807c-1.408-.936-3.136-1.682-4.757-1.187a4.46,4.46,0,0,0-2.847,3.494,9.134,9.134,0,0,0,.586,4.651c1.827,5.1,4.521,9.7,9.56,11.7" transform="translate(-86.741 -99.034)" fill="#f5f5f5"/>
    <path id="Path_59159" data-name="Path 59159" d="M121.908,149.3a20.687,20.687,0,0,0,1.987-3.684,19.029,19.029,0,0,0,1.4-4.354,42.245,42.245,0,0,0,.906-5.5,20.947,20.947,0,0,0-1.583-9.994,15.4,15.4,0,0,0-1.522-2.664,4.546,4.546,0,0,0-.761-.83,21.242,21.242,0,0,1,3.2,13.435,49.4,49.4,0,0,1-.807,5.435,21.374,21.374,0,0,1-1.218,4.285A24.153,24.153,0,0,0,121.908,149.3Z" transform="translate(-85.037 -101.633)" fill="#e0e0e0"/>
    <path id="Path_59160" data-name="Path 59160" d="M120.061,106.45a11.828,11.828,0,0,0-1.477,1.522c-.906,1.012-2.207,2.5-3.806,4.339-3.174,3.692-7.505,8.837-12.179,14.63s-8.7,11.174-11.516,15.117c-1.423,1.979-2.558,3.585-3.319,4.712a12.452,12.452,0,0,0-1.134,1.8,12.613,12.613,0,0,0,1.355-1.629l3.5-4.567c2.953-3.867,7.064-9.18,11.707-14.972l11.981-14.767,3.623-4.476A13.349,13.349,0,0,0,120.061,106.45Z" transform="translate(-51.974 -97.853)" fill="#e0e0e0"/>
    <path id="Path_59161" data-name="Path 59161" d="M82.142,145.326a24.357,24.357,0,0,1,22.074-2.786c1.842.685,3.806,1.971,3.9,3.935s-1.872,3.364-3.692,4.126a20.788,20.788,0,0,1-22.546-4.849" transform="translate(-36.411 -110.726)" fill="#f5f5f5"/>
    <path id="Path_59162" data-name="Path 59162" d="M118.642,146.525a3.548,3.548,0,0,0-1.058-.365c-.685-.19-1.7-.411-2.953-.647a27.615,27.615,0,0,0-10.009-.084,17.263,17.263,0,0,0-5.191,1.987,16.647,16.647,0,0,0-5.42,5.229,3.486,3.486,0,0,0-.54.974c.114.084.982-1.248,2.778-3.045a16.906,16.906,0,0,1,8.517-4.491,30.972,30.972,0,0,1,9.789-.114C117.066,146.3,118.619,146.6,118.642,146.525Z" transform="translate(-55.762 -111.998)" fill="#e0e0e0"/>
    <path id="Path_59163" data-name="Path 59163" d="M72.906,301.773c-22.7-11.022-31.55-36.772-34.527-60.711-.5-4-1.606-8.114-.266-11.9s5.366-6.851,9.195-5.762c3.166.913,5,4.148,7.1,6.721a23.6,23.6,0,0,0,10.74,7.421c2.74.906,6,1.21,8.282-.563,3.128-2.436,2.778-7.239,2.124-11.189L71.9,203.711c-.655-3.95-1.309-7.985-.677-11.935s2.793-7.863,6.386-9.515,8.586-.221,9.994,3.517c.594,1.56.525,3.281.9,4.91s1.423,3.311,3.045,3.524,3.045-1.157,4.049-2.5c3.44-4.643,5.4-10.222,7.17-15.749s3.448-11.159,6.462-16.1,7.612-9.21,13.191-10.436,12.179,1.317,14.508,6.645,0,11.516-2.847,16.593a89.323,89.323,0,0,1-15.589,20.43c-1.1,1.088-2.283,2.283-2.542,3.806-.441,2.771,2.474,4.993,5.214,5.442,3.1.51,6.249-.3,9.393-.426s6.691.7,8.32,3.425c2.284,3.806-.441,8.556-3.326,11.859a76.415,76.415,0,0,1-20.3,16.464c-2.733,1.522-5.648,2.946-7.665,5.366s-2.87,6.2-1.012,8.753,5.64,2.87,8.594,1.819,5.42-3.144,8.152-4.666c5.1-2.915,12.179-3.661,16.4.48,2.778,2.725,3.661,6.988,3.09,10.854s-2.413,7.4-4.438,10.717c-7.079,11.6-16.913,21.6-28.825,27.973s-23.391,9.423-36.643,6.85" transform="translate(-37.473 -132.28)" fill="#ebebeb"/>
    <path id="Path_59164" data-name="Path 59164" d="M54.6,303.8c-.639-9.568-1.066-4.605.548-17.172a362.541,362.541,0,0,1,7.992-40.342L65.783,235.8c.875-3.433,1.735-6.851,2.793-10.124a178.434,178.434,0,0,1,7.132-18.5c2.55-5.777,5.184-11.166,7.688-16.182s4.925-9.674,7.33-13.8a142.445,142.445,0,0,1,12.734-18.618c1.667-2.07,3.045-3.631,3.943-4.681l1.066-1.187a2.61,2.61,0,0,1,.381-.388,2.9,2.9,0,0,1-.327.441c-.251.3-.586.708-1,1.233-.891,1.073-2.2,2.672-3.806,4.765a150.715,150.715,0,0,0-12.506,18.7c-2.36,4.133-4.75,8.769-7.239,13.785s-5.077,10.42-7.612,16.19a179.262,179.262,0,0,0-7.064,18.474c-1.043,3.265-1.9,6.645-2.771,10.093s-1.743,6.934-2.634,10.466A368.241,368.241,0,0,0,55.85,286.75c-1.629,12.529-1.271,7.513-.7,17.05" transform="translate(-15.949 -133.044)" fill="#e0e0e0"/>
    <path id="Path_59165" data-name="Path 59165" d="M119.4,235.232a8.578,8.578,0,0,1-.655-1.629c-.381-1.058-.883-2.6-1.469-4.529-1.187-3.852-2.641-9.218-4.224-15.14s-3.113-11.265-4.354-15.079c-.609-1.911-1.127-3.456-1.522-4.514a7.932,7.932,0,0,1-.495-1.682,8.372,8.372,0,0,1,.761,1.576c.449,1.035,1.043,2.55,1.72,4.453,1.37,3.806,2.984,9.134,4.567,15.048s2.946,11.144,4.019,15.223c.487,1.819.906,3.357,1.241,4.567a7.277,7.277,0,0,1,.411,1.705Z" transform="translate(-66.574 -130.244)" fill="#e0e0e0"/>
    <path id="Path_59166" data-name="Path 59166" d="M91.206,225.48a10.854,10.854,0,0,1-1.994.571c-1.279.32-3.144.761-5.427,1.416-4.567,1.248-10.831,3.182-17.644,5.625s-12.879,4.94-17.218,6.851c-2.177.951-3.92,1.766-5.123,2.284a10.6,10.6,0,0,1-1.911.807,11.09,11.09,0,0,1,1.781-1.066c1.172-.632,2.885-1.522,5.039-2.535,4.293-2.048,10.352-4.62,17.18-7.079a181.437,181.437,0,0,1,17.766-5.435c2.284-.571,4.194-.959,5.5-1.2A11.564,11.564,0,0,1,91.206,225.48Z" transform="translate(10.935 -139.831)" fill="#e0e0e0"/>
    <path id="Path_59167" data-name="Path 59167" d="M159.92,308.323a4.722,4.722,0,0,1-.449-.563l-1.165-1.7c-1-1.484-2.39-3.661-4.08-6.379-3.38-5.435-7.81-13.084-12.582-21.594S132.51,261.9,129.252,256.4c-1.6-2.664-2.908-4.864-3.882-6.493-.419-.708-.761-1.294-1.05-1.774a2.679,2.679,0,0,1-.32-.647,4.722,4.722,0,0,1,.449.563l1.218,1.7c1,1.484,2.4,3.661,4.087,6.379,3.357,5.45,7.787,13.062,12.559,21.594s9.134,16.19,12.392,21.686c1.6,2.664,2.908,4.864,3.882,6.493l1.043,1.773a2.579,2.579,0,0,1,.289.647Z" transform="translate(-120.278 -155.774)" fill="#e0e0e0"/>
    <path id="Path_59168" data-name="Path 59168" d="M103.809,284.7a2.7,2.7,0,0,1-.624.381l-1.827.967-6.851,3.494c-5.792,2.953-13.747,7.125-22.523,11.745S55.239,310,49.348,312.84c-2.923,1.416-5.328,2.535-6.965,3.281l-1.918.845a2.776,2.776,0,0,1-.685.244,2.7,2.7,0,0,1,.624-.381l1.857-.967,6.851-3.494c5.792-2.953,13.747-7.125,22.523-11.745s16.746-8.723,22.63-11.555c2.931-1.416,5.328-2.535,6.972-3.281l1.888-.86a2.778,2.778,0,0,1,.685-.228Z" transform="translate(-0.062 -164.661)" fill="#e0e0e0"/>
  </g>
  <g id="freepik--Plant--inject-228" transform="translate(18.971 107.925)">
    <path id="Path_59170" data-name="Path 59170" d="M127.424,269.245s-5.252-3.547-11.813,9.035a164.555,164.555,0,0,0-9.073,19.851s-1.728,2.634-3.532.883-4.247-6.683-7.353-5.823-4.308,4.453-3.745,9.72,1.37,16.852,1.439,17.9-.533,2.535-1.949,1.522-9.553-10.223-13.7-6.089-.175,18.534.228,20.118.091,2.284-.662,2.641-3.2-2.976-5.617-5.5-5.671-5.047-7.863-2.466S60.791,344.388,70.892,362l5.214,7.855,9.461-.434c20.194-2.169,28.452-9.134,29.244-12.43s-3.136-4.445-6.607-4.917-7.612-.48-7.756-1.317.228-1.484,1.751-2.086,15.52-5.846,16.418-11.623-11.341-6.942-12.986-7.513-.761-1.933.107-2.481,10.74-6.706,15.33-9.347,6.851-5.61,5.671-8.738c-1.127-3.045-6.554-2.093-9.035-2.527s-1.355-3.38-1.355-3.38a161.892,161.892,0,0,0,10.74-19.029c6.325-12.734.221-14.9.221-14.9" transform="translate(-62.4 -268.784)" fill="#efa00b"/>
    <path id="Path_59171" data-name="Path 59171" d="M118.9,284.18a2.289,2.289,0,0,0-.129.221l-.358.677-1.332,2.6-4.871,9.575c-4.148,8.084-9.9,19.22-16.175,31.528s-12.042,23.467-16.091,31.581c-2.009,4.049-3.631,7.338-4.765,9.629l-1.271,2.626-.327.693c-.068.152-.1.236-.1.236a1.846,1.846,0,0,0,.137-.221l.35-.67c.32-.617.761-1.522,1.332-2.6,1.165-2.284,2.824-5.541,4.871-9.575,4.08-8.084,9.842-19.227,16.182-31.52s12.034-23.474,16.061-31.588l4.8-9.629c.54-1.127.967-2.009,1.271-2.626.137-.289.244-.518.32-.693A.891.891,0,0,0,118.9,284.18Z" transform="translate(-59.774 -272.461)" fill="#263238"/>
    <path id="Path_59172" data-name="Path 59172" d="M97.99,310.1a18.777,18.777,0,0,0,.525,2.481c.365,1.621.837,3.676,1.362,5.96s1.02,4.422,1.416,5.945c.206.761.381,1.362.518,1.781a2.283,2.283,0,0,0,.251.632,24.313,24.313,0,0,0-.518-2.481l-1.317-5.968c-.533-2.329-1.05-4.43-1.469-5.945-.213-.761-.4-1.362-.533-1.774A2.322,2.322,0,0,0,97.99,310.1Z" transform="translate(-61.594 -278.652)" fill="#263238"/>
    <path id="Path_59173" data-name="Path 59173" d="M71.59,330.744c0,.091,4.354-1.02,9.667-2.5s9.591-2.74,9.56-2.839-4.346,1.02-9.659,2.489S71.567,330.645,71.59,330.744Z" transform="translate(-30.253 -282.306)" fill="#263238"/>
    <path id="Path_59174" data-name="Path 59174" d="M89.72,360.082a2.612,2.612,0,0,0,.693.1c.441.046,1.088.091,1.888.129,1.6.076,3.806.129,6.257.061s4.643-.244,6.234-.411c.761-.084,1.439-.167,1.888-.236a2.5,2.5,0,0,0,.677-.145,20.651,20.651,0,0,0-2.58.122c-1.6.107-3.806.236-6.234.3s-4.636.061-6.234.046a20.109,20.109,0,0,0-2.588.03Z" transform="translate(-60.593 -290.468)" fill="#263238"/>
    <path id="Path_59175" data-name="Path 59175" d="M112.69,341.34a15.528,15.528,0,0,0,1.058,2.147c.7,1.3,1.682,3.09,2.786,5.054s2.124,3.737,2.877,5.008a15.22,15.22,0,0,0,1.286,2.017,15.526,15.526,0,0,0-1.058-2.147c-.7-1.3-1.682-3.09-2.786-5.054s-2.124-3.737-2.877-5A15.71,15.71,0,0,0,112.69,341.34Z" transform="translate(-91.418 -286.113)" fill="#263238"/>
    <path id="Path_59176" data-name="Path 59176" d="M126.79,364.1a3.311,3.311,0,0,0,.343.761l1.073,1.971c.913,1.652,2.2,3.928,3.638,6.432s2.763,4.765,3.737,6.386c.457.761.853,1.393,1.165,1.918a3.373,3.373,0,0,0,.472.67,3.554,3.554,0,0,0-.343-.761l-1.073-1.971c-.913-1.659-2.2-3.935-3.638-6.439s-2.763-4.757-3.737-6.379l-1.165-1.918a4.141,4.141,0,0,0-.472-.67Z" transform="translate(-118.671 -291.549)" fill="#263238"/>
    <path id="Path_59177" data-name="Path 59177" d="M97.63,386.864a3.54,3.54,0,0,0,.875.076c.571,0,1.393.038,2.405.046,2.025,0,4.833,0,7.924-.206s5.891-.434,7.9-.67c1.012-.114,1.827-.228,2.382-.312a3.806,3.806,0,0,0,.868-.175,4.829,4.829,0,0,0-.883,0l-2.39.2c-2.017.175-4.811.4-7.893.563s-5.884.259-7.909.312l-2.405.068a4.515,4.515,0,0,0-.875.1Z" transform="translate(-79.243 -296.684)" fill="#263238"/>
  </g>
</svg>
