<svg xmlns="http://www.w3.org/2000/svg" width="291.458" height="238.118" viewBox="0 0 291.458 238.118">
  <g id="Wallet-pana" transform="translate(-58.514 0)">
    <path id="Path_72740" data-name="Path 72740" d="M75.109,73.711l1.292-2.09c10.67-17.618,30-28.241,50.385-26.949a53.4,53.4,0,0,1,7.8,1.068c18.531,3.968,34.656,17.98,41.346,35.931,3.934,10.555,5.03,22.706,12.49,31.084,9.711,10.911,26.191,11.25,40.68,10.8s31.009-.063,40.645,10.882c6.047,6.856,7.971,16.619,7.482,25.807-1.292,24.314-18.232,46.043-39.772,56.85s-46.9,11.772-70.483,7.017c-33.025-6.656-64.431-24.94-83.312-53.181S60,104.192,75.109,73.711Z" transform="translate(21.985 -30.896)" fill="#ebebeb"/>
    <g id="freepik--Plant--inject-34" transform="translate(69.293 195.931)">
      <path id="Path_64653" data-name="Path 64653" d="M575.569,394.829c1.149,1.634,3.381,1.1,4.411.095a8.367,8.367,0,0,0,1.871-3.837c.912-3.156,1.823-6.471,1.148-9.692a5.411,5.411,0,0,0-1.237-2.635,2.824,2.824,0,0,0-2.664-.888,4.11,4.11,0,0,0-2.327,2.451,23.09,23.09,0,0,0-2.285,9.911,8.079,8.079,0,0,0,1.083,4.594" transform="translate(-559.208 -377.816)" fill="#efa00b"/>
      <g id="Group_160275" data-name="Group 160275" transform="translate(15.277)" opacity="0.2">
        <path id="Path_64654" data-name="Path 64654" d="M575.569,394.829c1.149,1.634,3.381,1.1,4.411.095a8.367,8.367,0,0,0,1.871-3.837c.912-3.156,1.823-6.471,1.148-9.692a5.411,5.411,0,0,0-1.237-2.635,2.824,2.824,0,0,0-2.664-.888,4.11,4.11,0,0,0-2.327,2.451,23.09,23.09,0,0,0-2.285,9.911,8.079,8.079,0,0,0,1.083,4.594" transform="translate(-574.485 -377.816)"/>
      </g>
      <path id="Path_64655" data-name="Path 64655" d="M565.785,419.919a9.947,9.947,0,0,1,6.175-.752A5.1,5.1,0,0,1,575,420.529a2.2,2.2,0,0,1,.036,3.043,2.924,2.924,0,0,1-1.924.486c-1.628,0-3.44-.308-4.737.675-.746.562-1.237,1.492-2.131,1.776a2.108,2.108,0,0,1-2.309-1.03,3.552,3.552,0,0,1-.261-2.652A4.032,4.032,0,0,1,565.785,419.919Z" transform="translate(-545.125 -394.606)" fill="#efa00b"/>
      <path id="Path_64656" data-name="Path 64656" d="M603.895,400.8a5.968,5.968,0,0,0,.924-5.488,10.569,10.569,0,0,0-3.25-4.737,17.5,17.5,0,0,0-5.82-3.434,6.229,6.229,0,0,0-2.617-.444,2.747,2.747,0,0,0-2.2,1.326c-.592,1.184-.03,2.587.592,3.742a43.688,43.688,0,0,0,3.825,5.826,10.135,10.135,0,0,0,4.2,3.6c1.747.639,3.552.592,4.488-.592" transform="translate(-590.683 -381.435)" fill="#efa00b"/>
      <path id="Path_64657" data-name="Path 64657" d="M573.157,437.94a4.2,4.2,0,0,0,.1-.746c.053-.539.118-1.22.2-2.031a29.668,29.668,0,0,1,.456-2.96A23.369,23.369,0,0,1,575,428.686a12.838,12.838,0,0,1,1.776-3.185,6.377,6.377,0,0,1,4.18-2.487,3.319,3.319,0,0,0,.746-.107,3.939,3.939,0,0,0-.758,0,5.861,5.861,0,0,0-2,.521,6.7,6.7,0,0,0-2.368,1.906,12.817,12.817,0,0,0-1.859,3.245,21.3,21.3,0,0,0-1.078,3.582,25.951,25.951,0,0,0-.4,3.02c-.065.858-.089,1.557-.1,2.043a3.1,3.1,0,0,0,.012.716Z" transform="translate(-556.873 -396.203)" fill="#263238"/>
      <path id="Path_64658" data-name="Path 64658" d="M581.1,422.516a1.421,1.421,0,0,0,0-.343c0-.26,0-.592,0-.989,0-.859,0-2.1.047-3.635.077-3.067.338-7.294.847-11.948s1.184-8.84,1.818-11.841c.148-.752.3-1.427.432-2.025s.249-1.107.355-1.522.172-.7.231-.959a1.43,1.43,0,0,0,.059-.343,1.77,1.77,0,0,0-.118.326l-.29.947c-.124.414-.254.924-.4,1.516s-.32,1.261-.479,2.013a112.989,112.989,0,0,0-1.906,11.841c-.515,4.666-.74,8.881-.764,11.978,0,1.539,0,2.783.053,3.641,0,.4.047.728.059.989A2,2,0,0,0,581.1,422.516Z" transform="translate(-564.682 -382.342)" fill="#263238"/>
      <path id="Path_64659" data-name="Path 64659" d="M598.212,416.053a7.236,7.236,0,0,0,0-1.03c-.041-.663-.13-1.622-.32-2.795a36.974,36.974,0,0,0-.906-4.079,36.167,36.167,0,0,0-1.705-4.819,25.627,25.627,0,0,0-5.009-7.8,12.812,12.812,0,0,0-1.184-1.1c-.184-.148-.343-.3-.5-.42l-.462-.32a6.758,6.758,0,0,0-.865-.557,32.3,32.3,0,0,1,2.848,2.546,27.132,27.132,0,0,1,4.879,7.762,38.553,38.553,0,0,1,1.717,4.778c.444,1.5.74,2.878.965,4.038s.337,2.114.414,2.771A6.1,6.1,0,0,0,598.212,416.053Z" transform="translate(-581.768 -384.067)" fill="#263238"/>
    </g>
    <g id="freepik--credit-card--inject-34" transform="translate(128.941 30.045)">
      <path id="Path_64660" data-name="Path 64660" d="M278.6,243.6l91.641-96.934a2.552,2.552,0,0,0-.1-3.6L309.976,86.2a2.546,2.546,0,0,0-3.6.1l-91.635,96.94a2.552,2.552,0,0,0,.1,3.6l60.148,56.839a2.54,2.54,0,0,0,3.606-.083Z" transform="translate(-221.048 -78.504)" fill="#efa00b"/>
      <g id="Group_160276" data-name="Group 160276" transform="translate(-7 7)" opacity="0.3">
        <path id="Path_64661" data-name="Path 64661" d="M278.6,243.6l91.641-96.934a2.552,2.552,0,0,0-.1-3.6L309.976,86.2a2.546,2.546,0,0,0-3.6.1l-91.635,96.94a2.552,2.552,0,0,0,.1,3.6l60.148,56.839a2.54,2.54,0,0,0,3.606-.083Z" transform="translate(-214.048 -85.504)"/>
      </g>
      <path id="Path_64662" data-name="Path 64662" d="M287.144,182.807l90.3-95.519a3.517,3.517,0,0,1,4.979-.142L399.513,103.3a1.4,1.4,0,0,1,.426,1.255c-1.711,9.556-8.544,18.1-16.69,23.76-9.84,6.838-21.5,10.444-32.564,15.009s-22.209,10.58-28.857,20.557c-6.27,9.42-7.75,21.1-10.941,31.972a62.607,62.607,0,0,1-3.245,8.632,1.415,1.415,0,0,1-2.25.438L287.28,187.8a3.517,3.517,0,0,1-.136-5Z" transform="translate(-292.775 -78.78)" fill="#efa00b"/>
      <path id="Path_64663" data-name="Path 64663" d="M5.388,7.579c-.817.776-1.906.592-3.079-.669L0,4.464,4.737,0,6.915,2.309c1.119,1.184,1.184,2.256.468,2.96a1.557,1.557,0,0,1-1.634.355,1.61,1.61,0,0,1-.361,1.954ZM4.926,1.865,3.813,2.919,4.831,4.026c.5.533.965.645,1.338.3s.278-.811-.225-1.344ZM4.458,6.371c.4-.373.3-.858-.237-1.427L3.037,3.671l-1.184,1.1L3.037,6.051c.557.568,1.018.7,1.421.343Z" transform="translate(67.125 52.993) rotate(-90)" fill="#fff"/>
      <path id="Path_64664" data-name="Path 64664" d="M4.541,5.145l-2.078-2.2-1.409.539L0,2.368,6.714,0,7.732,1.083,5.009,7.661,3.919,6.513Zm.5-1.131,1.1-2.457-2.516.959Z" transform="translate(73.763 48.7) rotate(-90)" fill="#fff"/>
      <path id="Path_64665" data-name="Path 64665" d="M8.816,4.364,4.079,8.828l-.835-.912L3.89,2.854,1.018,5.548,0,4.464,4.737,0,5.6.906,4.944,5.962,7.815,3.25Z" transform="translate(77.445 43.23) rotate(-90)" fill="#fff"/>
      <path id="Path_64666" data-name="Path 64666" d="M3.5,4.435H2.238L1.054,5.565,0,4.47,4.737,0,5.761,1.089,3.552,3.174H7.738L8.887,4.358l-3.955.036L4.281,8.976,3.1,7.7Z" transform="translate(82.898 38.096) rotate(-90)" fill="#fff"/>
      <path id="Path_64667" data-name="Path 64667" d="M3.57,4.488l-.793-.87L1.593,4.7l-.42-.444L2.315,3.173,0,.728.32.42,5.37,0l.468.5L.941.93,2.718,2.812l1-.953.409.438-1,.947.817.864Z" transform="translate(94.248 65.32) rotate(-90)" fill="#fff"/>
      <path id="Path_64668" data-name="Path 64668" d="M3.689,5.879c-.728.681-1.776.687-2.771-.361A3.108,3.108,0,0,1,0,3.428L.557,3.31a2.6,2.6,0,0,0,.77,1.818c.681.722,1.385.8,1.924.29s.515-1.184-.243-1.983l-.3-.308.332-.314,2.641-.219L3.588.373,3.985,0,6.619,2.789l-.314.3L3.6,3.316A1.724,1.724,0,0,1,3.689,5.879Z" transform="translate(95.941 62.318) rotate(-90)" fill="#fff"/>
      <path id="Path_64669" data-name="Path 64669" d="M3.712,5.524c-.74.7-1.776.728-2.8-.332A3.061,3.061,0,0,1,0,3.108L.557,2.99a2.57,2.57,0,0,0,.758,1.776c.693.74,1.421.793,1.948.29s.592-1.184-.462-2.3l-.876-.924L4.292,0,6.536,2.368l-.4.373L4.287.787,2.759,1.942l.527.592C4.523,3.789,4.476,4.772,3.712,5.524Z" transform="translate(99.795 58.997) rotate(-90)" fill="#fff"/>
      <path id="Path_64670" data-name="Path 64670" d="M3.426,5.082A1.853,1.853,0,0,1,.7,4.862c-1.089-1.154-.882-2.534.486-3.831C2.657-.36,4.184-.283,5.3.9a2.706,2.706,0,0,1,.74,1.255l-.533.16a2.025,2.025,0,0,0-.592-1.036C4.03.339,2.864.3,1.686,1.417c-.1.095-.219.219-.337.355a1.9,1.9,0,0,1,2,.622A1.8,1.8,0,0,1,3.426,5.082ZM3,4.655a1.291,1.291,0,0,0-.095-1.972,1.38,1.38,0,0,0-2-.219,1.376,1.376,0,0,0,.154,2.019A1.3,1.3,0,0,0,3,4.655Z" transform="translate(104.015 55.082) rotate(-90)" fill="#fff"/>
      <path id="Path_64671" data-name="Path 64671" d="M316.671,196.429l-.385-2.321,2.368.249.468-.5-2.9-.3-.42-2.724-.474.5.355,2.185-2.2-.231-.456.486,2.741.272.444,2.883Z" transform="translate(-227.843 -121.473)" fill="#fff"/>
      <path id="Path_64672" data-name="Path 64672" d="M321.941,202.019l-.385-2.327,2.368.249.474-.5-2.9-.29-.426-2.724-.468.491.349,2.185-2.2-.225-.462.486,2.747.272.444,2.883Z" transform="translate(-236.24 -123.754)" fill="#fff"/>
      <path id="Path_64673" data-name="Path 64673" d="M327.231,207.6l-.385-2.321,2.368.249.468-.5-2.889-.29-.426-2.729-.468.5.349,2.185-2.2-.225-.456.48,2.747.272.444,2.883Z" transform="translate(-244.656 -126.03)" fill="#fff"/>
      <path id="Path_64674" data-name="Path 64674" d="M332.5,213.149l-.385-2.321,2.368.249.468-.5-2.889-.3-.426-2.724-.468.5.349,2.185-2.2-.231-.456.486,2.747.272.438,2.883Z" transform="translate(-253.046 -128.294)" fill="#fff"/>
      <path id="Path_64675" data-name="Path 64675" d="M350.751,232.479l-.385-2.321,2.368.249.468-.5-2.889-.29-.426-2.729-.468.5.349,2.185-2.2-.231-.456.486,2.747.272.444,2.883Z" transform="translate(-282.101 -136.179)" fill="#fff"/>
      <path id="Path_64676" data-name="Path 64676" d="M356.031,238.069l-.385-2.327,2.368.249.468-.491-2.889-.3-.426-2.724-.468.5.349,2.185-2.2-.231-.456.485,2.747.272.444,2.883Z" transform="translate(-290.507 -138.46)" fill="#fff"/>
      <path id="Path_64677" data-name="Path 64677" d="M361.327,243.659l-.391-2.327,2.368.249.468-.5-2.889-.29-.426-2.724-.468.491.349,2.185-2.2-.225-.456.48,2.747.272.438,2.883Z" transform="translate(-298.929 -140.74)" fill="#fff"/>
      <path id="Path_64678" data-name="Path 64678" d="M366.6,249.239l-.385-2.321,2.368.249.468-.5-2.889-.29-.426-2.729-.474.5.355,2.185-2.2-.231-.456.486,2.747.272.438,2.883Z" transform="translate(-307.335 -143.016)" fill="#fff"/>
      <path id="Path_64679" data-name="Path 64679" d="M382.76,262.478l4.334,4.1.426-.45-3.943-3.724.965-1.018-.4-.379Z" transform="translate(-337.526 -150.098)" fill="#fff"/>
      <path id="Path_64680" data-name="Path 64680" d="M388.511,270.949c.722.687,1.776.687,2.771-.361a3.108,3.108,0,0,0,.918-2.09l-.557-.119a2.646,2.646,0,0,1-.77,1.824c-.681.716-1.391.8-1.93.29s-.515-1.184.249-1.989l.29-.308-.326-.308-2.641-.225,2.1-2.214-.4-.379-2.635,2.789.314.3,2.7.231C387.765,269.38,387.806,270.3,388.511,270.949Z" transform="translate(-343.875 -151.754)" fill="#fff"/>
      <path id="Path_64681" data-name="Path 64681" d="M394.789,279.382l.823-.87,1.137,1.078.426-.444-1.143-1.078,2.315-2.445-.326-.308-5.044-.414-.468.491,4.9.432-1.776,1.883-1-.947-.414.432,1.007.947-.823.87Z" transform="translate(-354.126 -155.764)" fill="#fff"/>
      <path id="Path_64682" data-name="Path 64682" d="M400.207,284.933l.4.373,2.877-3.043-.32-.3-3.47.13a1.977,1.977,0,0,1-1.622-.426c-.5-.48-.48-1.125.148-1.776a2.025,2.025,0,0,1,1.6-.722v-.592a2.676,2.676,0,0,0-2.072.947c-.829.882-.912,1.859-.184,2.546a2.6,2.6,0,0,0,2.025.592l2.848-.1Z" transform="translate(-361.96 -157.265)" fill="#fff"/>
      <path id="Path_64683" data-name="Path 64683" d="M.488.363a1.569,1.569,0,0,1,2.57,1.308l-.592-.036a.916.916,0,1,0-1.575.5.9.9,0,0,0,.74.284v.592A1.48,1.48,0,0,1,.447,2.507,1.462,1.462,0,0,1,.488.363Z" transform="translate(96.237 83.799) rotate(-90)" fill="#fff"/>
      <path id="Path_64684" data-name="Path 64684" d="M1.966,2.25l-.912-.959-.592.237L0,1.036,2.96,0,3.4.474,2.22,3.357l-.515-.515Zm.219-.491L2.664.681l-1.1.42Z" transform="translate(98.495 82.441) rotate(-90)" fill="#fff"/>
      <path id="Path_64685" data-name="Path 64685" d="M1.249,3.25l.2-.947h0l-.4-.414-.592.545L0,1.954,2.072,0l.847.894a1.058,1.058,0,0,1,.095,1.6.918.918,0,0,1-1.054.2L1.735,3.783ZM2.5,1.214,2.131.823,1.409,1.5l.373.391c.272.29.551.308.776.1S2.777,1.5,2.5,1.19Z" transform="translate(100.147 80.066) rotate(-90)" fill="#fff"/>
      <path id="Path_64686" data-name="Path 64686" d="M0,1.364l.515-.178a1.646,1.646,0,0,0,.432.888c.266.284.468.308.592.189C1.924,1.9.521.949,1.291.221,1.646-.11,2.2-.1,2.759.482a1.883,1.883,0,0,1,.5.894l-.5.2A1.616,1.616,0,0,0,2.374.843C2.1.559,1.895.553,1.782.671c-.379.361,1.018,1.32.261,2.037-.349.326-.912.32-1.474-.272A2.066,2.066,0,0,1,0,1.364Z" transform="translate(102.531 77.959) rotate(-90)" fill="#fff"/>
      <path id="Path_64687" data-name="Path 64687" d="M3.866,1.895,1.794,3.854l-.45-.48.847-.805L1.3,1.628l-.847.805L0,1.954,2.072,0l.45.474-.817.776.888.941.817-.776Z" transform="translate(105.026 75.431) rotate(-90)" fill="#fff"/>
      <path id="Path_64688" data-name="Path 64688" d="M.459.491a1.563,1.563,0,1,1,0,2.143,1.48,1.48,0,0,1,0-2.143ZM2.141,2.268A.864.864,0,0,0,2.194.995a.912.912,0,1,0-.053,1.273Z" transform="translate(107.773 72.716) rotate(-90)" fill="#fff"/>
      <path id="Path_64689" data-name="Path 64689" d="M2.072,0l.45.48L.841,2.078l.983,1.036-.391.367L0,1.966Z" transform="translate(109.916 70.806) rotate(-90)" fill="#fff"/>
      <path id="Path_64690" data-name="Path 64690" d="M2.066,0l.888.941A1.427,1.427,0,1,1,.888,2.9L0,1.954ZM1.255,2.5A.888.888,0,1,0,2.54,1.314L2.126.876.847,2.066Z" transform="translate(111.704 69.113) rotate(-90)" fill="#fff"/>
      <path id="Path_64691" data-name="Path 64691" d="M1.9,3.191l-.385.367L0,1.954,2.072,0,3.546,1.563l-.379.361L2.137.841l-.45.42.906.965-.373.349-.906-.959-.48.45Z" transform="translate(114.132 66.804) rotate(-90)" fill="#fff"/>
      <path id="Path_64692" data-name="Path 64692" d="M1.249,3.25l.2-.941h0l-.4-.414-.592.545L0,1.96,2.072,0l.847.9a1.058,1.058,0,0,1,.095,1.6.918.918,0,0,1-1.054.2L1.735,3.789ZM2.5,1.214,2.131.823l-.716.687.367.391c.278.29.551.308.776.095S2.777,1.51,2.5,1.214Z" transform="translate(116.157 64.927) rotate(-90)" fill="#fff"/>
      <path id="Path_64693" data-name="Path 64693" d="M.019,2.854l1.1-.071a1.273,1.273,0,0,0,.261,1.155c.349.367.758.355,1.184-.059L4.46,2.1,3.134.7l.74-.7,2.2,2.321L3.483,4.76A1.771,1.771,0,0,1,.659,4.719,2.208,2.208,0,0,1,.019,2.854Z" transform="translate(101.159 91.613) rotate(-90)" fill="#fff"/>
      <path id="Path_64694" data-name="Path 64694" d="M.237.207a.758.758,0,1,1-.03,1.072A.758.758,0,0,1,.237.207Z" transform="translate(107.127 88.669) rotate(-90)" fill="#fff"/>
      <path id="Path_64695" data-name="Path 64695" d="M8.769,6.371,3.546,8.834l-.935-.989L4.482,4.417.93,6.063,0,5.08,2.747,0l.906.953L1.7,4.506,5.394,2.795l.805.853L4.233,7.229,7.94,5.489Z" transform="translate(105.257 86.579) rotate(-90)" fill="#fff"/>
      <path id="Path_64696" data-name="Path 64696" d="M3.884.185A.687.687,0,0,1,4.9.268a.681.681,0,0,1,.047,1A.7.7,0,0,1,3.908,1.2.693.693,0,0,1,3.884.185Zm-.823.977L3.9,2.05.835,4.945,0,4.057Z" transform="translate(111.839 81.322) rotate(-90)" fill="#fff"/>
      <path id="Path_64697" data-name="Path 64697" d="M4.227,0l.841.888-4.227,4L0,4Z" transform="translate(113.616 79.705) rotate(-90)" fill="#fff"/>
      <path id="Path_64698" data-name="Path 64698" d="M4.227,0l.841.888-4.227,4L0,4Z" transform="translate(115.328 78.089) rotate(-90)" fill="#fff"/>
      <path id="Path_64699" data-name="Path 64699" d="M3.884.18A.7.7,0,0,1,4.9.262a.693.693,0,0,1,.041,1.007A.764.764,0,0,1,3.884.18Zm-.823.983L3.9,2.05.841,4.946,0,4.058Z" transform="translate(116.978 76.467) rotate(-90)" fill="#fff"/>
      <path id="Path_64700" data-name="Path 64700" d="M4.021,3.706,2.245,5.358l-.787-.829.385-.361A1.385,1.385,0,0,1,.534,3.635,1.359,1.359,0,0,1,.38,1.616c.533-.5,1.273-.485,2.155.444l.669.71c.385-.361.391-.8-.065-1.279A2.019,2.019,0,0,0,2.02.9L2.34,0A3.239,3.239,0,0,1,3.962.965,1.706,1.706,0,0,1,4.021,3.706ZM2.405,3.558l.314-.3L2.127,2.67c-.391-.42-.669-.4-.876-.213s-.189.539.107.853a.906.906,0,0,0,1.048.219Z" transform="translate(120.129 74.561) rotate(-90)" fill="#fff"/>
      <path id="Path_64701" data-name="Path 64701" d="M6.631,6.394,4.855,8.052,4.02,7.164,5.637,5.637c.491-.468.509-.906.172-1.261a.964.964,0,0,0-1.445.077L2.83,5.909l-.841-.888L3.606,3.493c.5-.474.521-.9.172-1.267a.947.947,0,0,0-1.439.089L.841,3.783,0,2.9,3.061,0l.805.847-.355.337a1.693,1.693,0,0,1,1.308.592,1.575,1.575,0,0,1,.45,1.486,1.9,1.9,0,0,1,1.551.628A1.62,1.62,0,0,1,6.631,6.394Z" transform="translate(123.362 71.511) rotate(-90)" fill="#fff"/>
      <path id="Path_64702" data-name="Path 64702" d="M0,1.986l.918-.308a2.836,2.836,0,0,0,.71,1.344c.385.409.639.462.811.3.5-.474-1.776-1.841-.539-3,.592-.545,1.486-.409,2.333.486A3.487,3.487,0,0,1,5.08,2.24l-.912.3a2.368,2.368,0,0,0-.592-1.1c-.373-.4-.663-.45-.823-.3-.521.5,1.735,1.871.527,3.008-.592.539-1.474.4-2.368-.521A3.582,3.582,0,0,1,0,1.986Z" transform="translate(129.677 65.881) rotate(-90)" fill="#fff"/>
      <path id="Path_64703" data-name="Path 64703" d="M352.322,287.391c-1.314-1.243-2.747-1.22-3.677-.243s-.87,2.416.45,3.659,2.741,1.226,3.677.243S353.637,288.635,352.322,287.391Zm-2.368,2.487c-.906-.853-.983-1.528-.545-1.989s1.107-.42,2.013.438.983,1.528.551,1.983-1.1.426-2-.432Z" transform="translate(-282.837 -160.47)" fill="#fff"/>
      <path id="Path_64704" data-name="Path 64704" d="M356.5,297.975a1.883,1.883,0,0,0,2.753-.255c1.036-1.1.995-2.439-.29-3.653a2.68,2.68,0,0,0-4.068,0,2.961,2.961,0,0,0-.781,1.374l1,.3a1.847,1.847,0,0,1,.509-.935,1.456,1.456,0,0,1,2.214-.03,1.894,1.894,0,0,0-1.285.651,1.776,1.776,0,0,0-.053,2.552Zm.888-.853a.829.829,0,0,1,.047-1.243.858.858,0,0,1,1.249-.124.847.847,0,0,1-.071,1.261.829.829,0,0,1-1.237.107Z" transform="translate(-293.034 -163.202)" fill="#fff"/>
      <path id="Path_64705" data-name="Path 64705" d="M357.692,298.8l-.752.787,7.146,3.2.746-.793Z" transform="translate(-299.551 -165.513)" fill="#fff"/>
      <path id="Path_64706" data-name="Path 64706" d="M364.46,307.687l.752.71,2.86-3.014-.592-.562-2.907.166a1.385,1.385,0,0,1-1.131-.278c-.314-.3-.29-.687.112-1.107a1.332,1.332,0,0,1,1.184-.45l.2-1.083a2.552,2.552,0,0,0-2.238.882c-.841.894-.941,1.912-.219,2.6a2.173,2.173,0,0,0,1.889.521l1.729-.1Z" transform="translate(-305.787 -166.84)" fill="#fff"/>
      <path id="Path_64707" data-name="Path 64707" d="M371.1,314.836l.592-.645.835.787.853-.9-.841-.787,2.031-2.149-.622-.592-4.3-.509-.918.965,4.05.521-1.012,1.072-.746-.7-.823.87.746.7-.592.651Z" transform="translate(-316.273 -170.098)" fill="#fff"/>
      <path id="Path_64708" data-name="Path 64708" d="M384.209,225.591a8.571,8.571,0,0,1,1.652-10.859,10.728,10.728,0,0,1,3.144-2.06c2.883-1.184,6.7-.326,8.218,2.41,1.237,2.232.74,5.021-.13,7.419-.906,2.516-2.368,5.086-4.861,6.063a6.608,6.608,0,0,1-7.069-1.776,7.463,7.463,0,0,1-.953-1.2Z" transform="translate(-348.081 -130.168)" fill="#efa00b"/>
    </g>
    <g id="freepik--Wallet--inject-34" transform="translate(113.762 112.55)">
      <rect id="Rectangle_147508" data-name="Rectangle 147508" width="149.523" height="108.517" rx="17.44" transform="translate(6.519 16.531)" fill="#efa00b"/>
      <path id="Path_64709" data-name="Path 64709" d="M225.495,246.1v-.324a7.261,7.261,0,0,1,.093-.962A8.779,8.779,0,0,1,226.9,241.3a9.362,9.362,0,0,1,1.832-2.084,9.078,9.078,0,0,1,2.928-1.605c.288-.1.592-.154.9-.242a7.989,7.989,0,0,1,.952-.149l.993-.046h5.546l53.649.041h71.224a14.2,14.2,0,0,1,2.732.154,8.778,8.778,0,0,1,4.764,2.573,8.63,8.63,0,0,1,1.58,2.269,8.385,8.385,0,0,1,.8,2.66,22.4,22.4,0,0,1,.087,2.83V336.62a8.907,8.907,0,0,1-2.2,5.85,8.747,8.747,0,0,1-5.449,2.938,27.02,27.02,0,0,1-3.169.087H235.219a12.518,12.518,0,0,1-2.413-.16,8.854,8.854,0,0,1-2.259-.761,9.64,9.64,0,0,1-1.029-.587,10.7,10.7,0,0,1-.926-.731,8.783,8.783,0,0,1-2.969-6.112c-.051-6.174,0-12.112-.031-17.771,0-22.639-.036-40.976-.046-53.643,0-6.334,0-11.247-.026-14.587v0c0,3.339,0,8.232-.026,14.587,0,12.667,0,30.994-.041,53.643,0,5.66-.036,11.592,0,17.782a9.019,9.019,0,0,0,1.461,4.451,9.215,9.215,0,0,0,1.544,1.811,10.293,10.293,0,0,0,.952.746,10.15,10.15,0,0,0,1.029.6,8.873,8.873,0,0,0,2.31.782,12.28,12.28,0,0,0,2.454.165H364.09a26.8,26.8,0,0,0,3.205-.093,8.973,8.973,0,0,0,5.613-3.02,9.178,9.178,0,0,0,2.264-6c0-17.283,0-34.148,0-50.423v-38.46a22.263,22.263,0,0,0-.093-2.866,8.584,8.584,0,0,0-.828-2.732,8.772,8.772,0,0,0-1.626-2.336,9.521,9.521,0,0,0-2.243-1.708,9.26,9.26,0,0,0-2.655-.926l-.695-.108-.695-.036c-.468-.026-.926,0-1.384,0H293.73l-53.649.046h-5.521l-1,.051c-.324.057-.648.093-.957.159a7.23,7.23,0,0,0-.9.247,9.107,9.107,0,0,0-2.948,1.626,9.333,9.333,0,0,0-1.837,2.1,8.747,8.747,0,0,0-1.3,3.54,6.221,6.221,0,0,0-.082.967A2.582,2.582,0,0,0,225.495,246.1Z" transform="translate(-218.975 -220.598)" fill="#263238"/>
      <path id="Path_64710" data-name="Path 64710" d="M509.277,250.134a8.973,8.973,0,0,0-3.087,0A8.973,8.973,0,0,0,509.277,250.134Z" transform="translate(-497.52 -226.915)" fill="#263238"/>
      <path id="Path_64711" data-name="Path 64711" d="M488.008,250.134a37.124,37.124,0,0,0-6.3,0A37.134,37.134,0,0,0,488.008,250.134Z" transform="translate(-463.655 -226.915)" fill="#263238"/>
      <path id="Path_64712" data-name="Path 64712" d="M463.533,250.134a37.041,37.041,0,0,0-6.293,0A37.048,37.048,0,0,0,463.533,250.134Z" transform="translate(-426.59 -226.914)" fill="#263238"/>
      <path id="Path_64713" data-name="Path 64713" d="M439.058,250.134a37.124,37.124,0,0,0-6.3,0A37.133,37.133,0,0,0,439.058,250.134Z" transform="translate(-389.52 -226.915)" fill="#263238"/>
      <path id="Path_64714" data-name="Path 64714" d="M414.583,250.134a37.042,37.042,0,0,0-6.293,0,37.048,37.048,0,0,0,6.293,0Z" transform="translate(-352.454 -226.914)" fill="#263238"/>
      <path id="Path_64715" data-name="Path 64715" d="M390.108,250.134a37.123,37.123,0,0,0-6.3,0A37.133,37.133,0,0,0,390.108,250.134Z" transform="translate(-315.384 -226.915)" fill="#263238"/>
      <path id="Path_64716" data-name="Path 64716" d="M365.632,250.134a37.042,37.042,0,0,0-6.293,0A37.048,37.048,0,0,0,365.632,250.134Z" transform="translate(-278.319 -226.914)" fill="#263238"/>
      <path id="Path_64717" data-name="Path 64717" d="M341.158,250.134a37.124,37.124,0,0,0-6.3,0A37.134,37.134,0,0,0,341.158,250.134Z" transform="translate(-241.248 -226.915)" fill="#263238"/>
      <path id="Path_64718" data-name="Path 64718" d="M316.678,250.134a37.125,37.125,0,0,0-6.3,0A37.131,37.131,0,0,0,316.678,250.134Z" transform="translate(-204.173 -226.915)" fill="#263238"/>
      <path id="Path_64719" data-name="Path 64719" d="M292.192,250.119a36.937,36.937,0,0,0-6.282,0,36.958,36.958,0,0,0,6.282,0Z" transform="translate(-167.097 -226.9)" fill="#263238"/>
      <path id="Path_64720" data-name="Path 64720" d="M267.728,250.119a37.124,37.124,0,0,0-6.3,0,37.137,37.137,0,0,0,6.3,0Z" transform="translate(-130.038 -226.899)" fill="#263238"/>
      <path id="Path_64721" data-name="Path 64721" d="M245.992,253.221a17.488,17.488,0,0,0,.134-3.087l-.134-.134h-1.2l-.983.031a3.3,3.3,0,0,0-.906.093,3.156,3.156,0,0,0,.906.1l.983.026h1.2l-.134-.134A18.121,18.121,0,0,0,245.992,253.221Z" transform="translate(-98.923 -226.914)" fill="#263238"/>
      <path id="Path_64722" data-name="Path 64722" d="M243.055,273.248a31.152,31.152,0,0,0,0-5.768,31.159,31.159,0,0,0,0,5.768Z" transform="translate(-95.986 -235.401)" fill="#263238"/>
      <path id="Path_64723" data-name="Path 64723" d="M243.074,295.678a31.152,31.152,0,0,0,0-5.768A31.155,31.155,0,0,0,243.074,295.678Z" transform="translate(-96.004 -246.29)" fill="#263238"/>
      <path id="Path_64724" data-name="Path 64724" d="M243.074,318.1a31.205,31.205,0,0,0,0-5.773,31.2,31.2,0,0,0,0,5.773Z" transform="translate(-96.004 -257.175)" fill="#263238"/>
      <path id="Path_64725" data-name="Path 64725" d="M243.074,340.553a31.206,31.206,0,0,0,0-5.773A31.206,31.206,0,0,0,243.074,340.553Z" transform="translate(-96.004 -268.074)" fill="#263238"/>
      <path id="Path_64726" data-name="Path 64726" d="M243.074,362.958a31.153,31.153,0,0,0,0-5.768,31.153,31.153,0,0,0,0,5.768Z" transform="translate(-96.004 -278.954)" fill="#263238"/>
      <path id="Path_64727" data-name="Path 64727" d="M243.074,385.388a31.152,31.152,0,0,0,0-5.768,31.152,31.152,0,0,0,0,5.768Z" transform="translate(-96.004 -289.843)" fill="#263238"/>
      <path id="Path_64728" data-name="Path 64728" d="M243.074,407.818a31.152,31.152,0,0,0,0-5.768,31.152,31.152,0,0,0,0,5.768Z" transform="translate(-96.004 -300.733)" fill="#263238"/>
      <path id="Path_64729" data-name="Path 64729" d="M242.914,427.572a18.172,18.172,0,0,0,3.087.134c.268-.268.077-.077.134-.139h0V425.39a2.9,2.9,0,0,0-.1-.9,3.243,3.243,0,0,0-.093.9c0,.319,0,.643-.031.983v1.194h0c.062-.057-.134.139.134-.129A17.554,17.554,0,0,0,242.914,427.572Z" transform="translate(-98.931 -311.627)" fill="#263238"/>
      <path id="Path_64730" data-name="Path 64730" d="M261.32,430.338a35.7,35.7,0,0,0,6.174,0,35.676,35.676,0,0,0-6.174,0Z" transform="translate(-129.748 -314.392)" fill="#263238"/>
      <path id="Path_64731" data-name="Path 64731" d="M285.44,430.338a35.7,35.7,0,0,0,6.174,0,35.674,35.674,0,0,0-6.174,0Z" transform="translate(-166.278 -314.392)" fill="#263238"/>
      <path id="Path_64732" data-name="Path 64732" d="M309.5,430.354a36.041,36.041,0,0,0,6.2,0,36.043,36.043,0,0,0-6.205,0Z" transform="translate(-202.748 -314.409)" fill="#263238"/>
      <path id="Path_64733" data-name="Path 64733" d="M333.62,430.354a36.042,36.042,0,0,0,6.205,0A36.042,36.042,0,0,0,333.62,430.354Z" transform="translate(-239.278 -314.409)" fill="#263238"/>
      <path id="Path_64734" data-name="Path 64734" d="M357.74,430.354a36.043,36.043,0,0,0,6.205,0,36.043,36.043,0,0,0-6.205,0Z" transform="translate(-275.808 -314.409)" fill="#263238"/>
      <path id="Path_64735" data-name="Path 64735" d="M381.86,430.354a36.043,36.043,0,0,0,6.205,0A36.043,36.043,0,0,0,381.86,430.354Z" transform="translate(-312.338 -314.409)" fill="#263238"/>
      <path id="Path_64736" data-name="Path 64736" d="M405.94,430.354a36.043,36.043,0,0,0,6.205,0,36.043,36.043,0,0,0-6.205,0Z" transform="translate(-348.808 -314.409)" fill="#263238"/>
      <path id="Path_64737" data-name="Path 64737" d="M430.1,430.354a36.043,36.043,0,0,0,6.205,0A36.043,36.043,0,0,0,430.1,430.354Z" transform="translate(-385.398 -314.409)" fill="#263238"/>
      <path id="Path_64738" data-name="Path 64738" d="M454.22,430.354a36.043,36.043,0,0,0,6.205,0A36.043,36.043,0,0,0,454.22,430.354Z" transform="translate(-421.929 -314.409)" fill="#263238"/>
      <path id="Path_64739" data-name="Path 64739" d="M478.35,430.354a36.043,36.043,0,0,0,6.205,0A36.043,36.043,0,0,0,478.35,430.354Z" transform="translate(-458.474 -314.409)" fill="#263238"/>
      <path id="Path_64740" data-name="Path 64740" d="M502.47,430.354a8.973,8.973,0,0,0,3.087,0A8.975,8.975,0,0,0,502.47,430.354Z" transform="translate(-491.886 -314.409)" fill="#263238"/>
      <g id="Group_160277" data-name="Group 160277" transform="translate(104.468 76.718)" opacity="0.3">
        <path id="Path_64741" data-name="Path 64741" d="M225.68,354.24s-.031,5.145,1.544,8.232,2.058,4.312,5.351,5.505,44.722,5.747,44.722,5.747V359.745Z" transform="translate(-225.68 -354.24)"/>
      </g>
      <g id="Group_160278" data-name="Group 160278" transform="translate(105.191 45.153)" opacity="0.3">
        <path id="Path_64742" data-name="Path 64742" d="M225.762,305.058s-.473-5.253,12.7-7.2c15.07-2.228,38.146-4.965,38.146-4.965v9.935Z" transform="translate(-225.76 -292.89)"/>
      </g>
      <rect id="Rectangle_147509" data-name="Rectangle 147509" width="57.59" height="33.917" rx="14.31" transform="translate(104.447 52.557)" fill="#efa00b"/>
      <path id="Path_64743" data-name="Path 64743" d="M264.37,341.077h.437a6.665,6.665,0,0,0,1.281-.175,7.1,7.1,0,0,0,1.96-.762,7.292,7.292,0,0,0,2.166-1.868,7.384,7.384,0,0,0,1.466-3.267,10.719,10.719,0,0,0,.123-2.058V314.281a7.45,7.45,0,0,0-2.953-5.711,7.275,7.275,0,0,0-3.185-1.4,9.393,9.393,0,0,0-1.78-.123H221.469a7.5,7.5,0,0,0-7.46,6.766c-.057.725-.036,1.43-.041,2.135v16.315c0,.659-.026,1.3,0,1.955a7.712,7.712,0,0,0,.118.973,9.686,9.686,0,0,0,.257.936,7.5,7.5,0,0,0,5.438,4.852,8.9,8.9,0,0,0,.9.159c.3.026.607.036.911.046h17.828l18.255-.046,4.965-.026h0l-4.965-.026-18.255-.041H223.363a15.244,15.244,0,0,1-3.524-.206,7.26,7.26,0,0,1-5.186-4.723,10.762,10.762,0,0,1-.381-3.787V316.015c0-.7,0-1.42.036-2.11a7.239,7.239,0,0,1,1.58-3.849,7.986,7.986,0,0,1,1.544-1.435,7.824,7.824,0,0,1,1.929-.921,8.015,8.015,0,0,1,2.125-.319H263.9a9.316,9.316,0,0,1,1.744.118,7.081,7.081,0,0,1,3.087,1.348,7.244,7.244,0,0,1,2.881,5.541c.026,2.094,0,4.116,0,6.046v12.616a10.867,10.867,0,0,1-.113,2.032,7.358,7.358,0,0,1-5.474,5.865,6.976,6.976,0,0,1-1.271.2Z" transform="translate(-109.695 -254.609)" fill="#263238"/>
      <ellipse id="Ellipse_1941" data-name="Ellipse 1941" cx="12.328" cy="12.328" rx="12.328" ry="12.328" transform="translate(109.469 58.463)" fill="#263238"/>
      <path id="Path_64744" data-name="Path 64744" d="M305.918,345.22a13.039,13.039,0,0,1-2.943-1.544,10.651,10.651,0,0,1-2.49-2.573,9.663,9.663,0,0,1-1.333-8.381,10.47,10.47,0,0,1,1.574-3.216,12.751,12.751,0,0,1,2.315-2.377,1.238,1.238,0,0,0-.2.113,6.2,6.2,0,0,0-.551.386,9.384,9.384,0,0,0-1.718,1.765,10.429,10.429,0,0,0-1.657,3.257,9.688,9.688,0,0,0,1.369,8.592,10.419,10.419,0,0,0,2.573,2.573,9.123,9.123,0,0,0,2.182,1.137,5.451,5.451,0,0,0,.638.2A.649.649,0,0,0,305.918,345.22Z" transform="translate(-187.28 -264.36)" fill="#fafafa"/>
    </g>
    <g id="freepik--Floor--inject-34" transform="translate(58.514 237.449)">
      <path id="Path_64757" data-name="Path 64757" d="M41.53,448.094c0,.089,65.25.16,145.72.16s145.738-.071,145.738-.16-65.237-.154-145.738-.154S41.53,448.011,41.53,448.094Z" transform="translate(-41.53 -447.94)" fill="#263238"/>
    </g>
    <g id="freepik--Character--inject-34" transform="translate(88.879 12.985)">
      <path id="Path_64758" data-name="Path 64758" d="M537.387,257.6a31.14,31.14,0,0,1,.213-3.973l8.076,1.806c.089.509,1.107,6.975.935,7.6l-9.112,2.528S537.387,257.834,537.387,257.6Z" transform="translate(-534.126 -144.211)" fill="#ffbe9d"/>
      <path id="Path_64759" data-name="Path 64759" d="M549.118,269.253a.391.391,0,0,1-.036-.178c-.095-.882-.042-4.737.432-4.9s1.841.112,1.93.622-.219,4.843-.219,4.843-.089.681-1.238.847C549.266,270.567,549.118,269.253,549.118,269.253Z" transform="translate(-545.856 -148.495)" fill="#ffbe9d"/>
      <path id="Path_64760" data-name="Path 64760" d="M545.237,271.587a.392.392,0,0,1-.036-.178c-.095-.882-.041-4.737.432-4.9s1.841.118,1.93.628-.219,4.843-.219,4.843-.089.681-1.238.847C545.4,272.925,545.237,271.587,545.237,271.587Z" transform="translate(-539.679 -149.445)" fill="#ffbe9d"/>
      <path id="Path_64761" data-name="Path 64761" d="M541.423,272.753a.714.714,0,0,1-.041-.178c-.095-.882-.036-4.737.432-4.9s1.847.118,1.936.628-.219,4.837-.219,4.837-.089.687-1.237.853C541.6,274.1,541.423,272.753,541.423,272.753Z" transform="translate(-533.602 -149.923)" fill="#ffbe9d"/>
      <path id="Path_64762" data-name="Path 64762" d="M537.62,273.853a.542.542,0,0,0-.042-.178c-.095-.882-.035-4.737.432-4.9s1.841.118,1.936.622-.219,4.843-.219,4.843-.095.681-1.243.847C537.774,275.2,537.62,273.853,537.62,273.853Z" transform="translate(-527.55 -150.372)" fill="#ffbe9d"/>
      <path id="Path_64763" data-name="Path 64763" d="M549.114,267.16a7.543,7.543,0,0,0-.178,1.877A7.1,7.1,0,0,0,549,270.89a7.546,7.546,0,0,0,.178-1.877A7.109,7.109,0,0,0,549.114,267.16Z" transform="translate(-543.52 -149.73)" fill="#eb996e"/>
      <path id="Path_64764" data-name="Path 64764" d="M545.367,267.14a14.306,14.306,0,0,0-.219,2.664,14.153,14.153,0,0,0,.03,2.676,15.33,15.33,0,0,0,.213-2.664,15.114,15.114,0,0,0-.024-2.676Z" transform="translate(-537.5 -149.722)" fill="#eb996e"/>
      <g id="Group_160285" data-name="Group 160285" transform="translate(9.898 117.607)" opacity="0.78">
        <path id="Path_64765" data-name="Path 64765" d="M541.5,267.46a15.3,15.3,0,0,0-.213,2.664,15.119,15.119,0,0,0,0,2.676,14.973,14.973,0,0,0,.219-2.664A15.452,15.452,0,0,0,541.5,267.46Z" transform="translate(-541.227 -267.46)" fill="#eb996e"/>
      </g>
      <path id="Path_64766" data-name="Path 64766" d="M534.181,257s3.2,7.282,2.735,7.738a10.733,10.733,0,0,1-1.972,1.143Z" transform="translate(-522.56 -145.586)" fill="#ffbe9d"/>
      <path id="Path_64767" data-name="Path 64767" d="M472.376,84.223l2.368,27.235,13.618-1.089c.089-1.593-.03-7.756-.03-7.756s5.678-.882,5.749-6.554c.03-2.753-.361-8.449-.776-13.582a10.5,10.5,0,0,0-11.078-9.639h0a10.5,10.5,0,0,0-9.852,11.386Z" transform="translate(-443.064 -70.453)" fill="#ffbe9d"/>
      <path id="Path_64768" data-name="Path 64768" d="M489.375,121.548a13.179,13.179,0,0,1-7.395-2.108s1.776,4.085,7.407,3.552Z" transform="translate(-444.077 -89.471)" fill="#eb996e"/>
      <path id="Path_64769" data-name="Path 64769" d="M477.767,95.343a.817.817,0,0,1-.782.817.77.77,0,0,1-.835-.728.805.805,0,0,1,.776-.823.782.782,0,0,1,.841.734Z" transform="translate(-429.005 -79.34)" fill="#263238"/>
      <path id="Path_64770" data-name="Path 64770" d="M478.849,93.413c-.1.107-.716-.349-1.587-.343s-1.51.438-1.6.332.053-.237.332-.444a2.274,2.274,0,0,1,1.291-.4,2.2,2.2,0,0,1,1.261.409C478.808,93.152,478.9,93.342,478.849,93.413Z" transform="translate(-429.791 -78.506)" fill="#263238"/>
      <path id="Path_64771" data-name="Path 64771" d="M492.267,95.343a.817.817,0,0,1-.8.817.77.77,0,0,1-.817-.728.805.805,0,0,1,.776-.823.782.782,0,0,1,.841.734Z" transform="translate(-452.09 -79.34)" fill="#263238"/>
      <path id="Path_64772" data-name="Path 64772" d="M493.311,93.653c-.1.107-.716-.349-1.587-.349s-1.516.438-1.61.332.059-.237.338-.438a2.232,2.232,0,0,1,1.285-.4,2.084,2.084,0,0,1,1.261.409C493.264,93.416,493.382,93.605,493.311,93.653Z" transform="translate(-452.82 -78.604)" fill="#263238"/>
      <path id="Path_64773" data-name="Path 64773" d="M481.455,100.154a5.921,5.921,0,0,1,1.415-.255c.225,0,.432-.071.474-.219a1.149,1.149,0,0,0-.148-.663l-.663-1.693a28.792,28.792,0,0,1-1.474-4.435,28.568,28.568,0,0,1,1.83,4.3c.219.592.432,1.184.633,1.705a1.309,1.309,0,0,1,.113.876.592.592,0,0,1-.367.326,1.938,1.938,0,0,1-.379.053A5.732,5.732,0,0,1,481.455,100.154Z" transform="translate(-437.803 -78.64)" fill="#263238"/>
      <path id="Path_64774" data-name="Path 64774" d="M484.563,106.18c.142,0,.142.935.953,1.61a4.592,4.592,0,0,0,1.824.7c.006.107-.225.184-.651.2a2.368,2.368,0,0,1-1.522-.533,2.019,2.019,0,0,1-.74-1.35C484.391,106.4,484.5,106.174,484.563,106.18Z" transform="translate(-443.474 -84.062)" fill="#263238"/>
      <path id="Path_64775" data-name="Path 64775" d="M493.713,88.02c-.089.237-.959.124-1.983.249s-1.847.4-1.983.189c-.059-.107.083-.326.414-.557a3.464,3.464,0,0,1,3.02-.332C493.559,87.741,493.748,87.907,493.713,88.02Z" transform="translate(-452.997 -76.387)" fill="#263238"/>
      <path id="Path_64776" data-name="Path 64776" d="M479.126,89.094c-.154.2-.752,0-1.474,0s-1.338.136-1.48-.071c-.059-.1.036-.3.3-.485a2.143,2.143,0,0,1,2.368.071C479.108,88.792,479.191,89,479.126,89.094Z" transform="translate(-430.387 -76.734)" fill="#263238"/>
      <path id="Path_64777" data-name="Path 64777" d="M471.569,79.088c.326,2.753,1.078,6.24,1.3,9.059a1.41,1.41,0,0,0,.2.746c.4.533,1.368,1.693,1.859,1.232,1.184-1.113,1.658-4.227,1.9-5.844s.2-3.262.414-4.885v-.112a4.47,4.47,0,0,1,1.652-2.877,2.842,2.842,0,0,1,.663-.349c1.67-.592,4.446.5,6.11,1.1.853.314,1.687.7,2.516,1.078a5.873,5.873,0,0,0,5.856-.491c1.012-.734,1.1-3.049.657-4.512-1.184-3.949-6.163-5.329-12.54-3.8S470.918,73.416,471.569,79.088Z" transform="translate(-443.441 -68.823)" fill="#263238"/>
      <path id="Path_64778" data-name="Path 64778" d="M509.114,96.291c-.095-.041-3.9-1.184-3.772,2.724s3.991,2.96,4,2.848S509.114,96.291,509.114,96.291Z" transform="translate(-477.86 -79.952)" fill="#ffbe9d"/>
      <path id="Path_64779" data-name="Path 64779" d="M509.2,101.293a1.581,1.581,0,0,1-.178.107.669.669,0,0,1-.5,0,1.67,1.67,0,0,1-.823-1.474,2.262,2.262,0,0,1,.16-.977.77.77,0,0,1,.491-.533.343.343,0,0,1,.4.172c.059.107.036.184.059.189s.077-.065.041-.225a.414.414,0,0,0-.16-.237.527.527,0,0,0-.379-.089.953.953,0,0,0-.687.628,2.3,2.3,0,0,0-.2,1.083,1.776,1.776,0,0,0,1.036,1.646.693.693,0,0,0,.592-.124C509.2,101.388,509.213,101.3,509.2,101.293Z" transform="translate(-478.953 -80.815)" fill="#eb996e"/>
      <path id="Path_64780" data-name="Path 64780" d="M501.49,86.6a5.968,5.968,0,0,0,5.571.1,16.625,16.625,0,0,1-2.795.332,16.975,16.975,0,0,1-2.777-.432Z" transform="translate(-473.303 -76.075)" fill="#455a64"/>
      <path id="Path_64781" data-name="Path 64781" d="M501.65,88.48a4.559,4.559,0,0,0,2.653.74,4.619,4.619,0,0,0,2.688-.639,16.651,16.651,0,0,1-2.682.326A15.987,15.987,0,0,1,501.65,88.48Z" transform="translate(-473.326 -76.841)" fill="#455a64"/>
      <path id="Path_64782" data-name="Path 64782" d="M465.778,413.426l-2.522,11.611s10.953,6.459,10.693,8.65l-22.676-4.079,3.185-18.248Z" transform="translate(-410.462 -208.553)" fill="#263238"/>
      <path id="Path_64783" data-name="Path 64783" d="M451.212,440.919l.391-1.83,21.6,4.594s.93.592.687,1.314Z" transform="translate(-410.401 -219.865)" fill="#455a64"/>
      <path id="Path_64784" data-name="Path 64784" d="M500.38,417l-.373,11.871s11.942,4.37,12.084,6.566l-23.043.1-.178-18.52Z" transform="translate(-470.86 -210.854)" fill="#263238"/>
      <g id="Group_160286" data-name="Group 160286" transform="translate(18.187 222.824)" opacity="0.6">
        <path id="Path_64785" data-name="Path 64785" d="M488.855,447.035l.053-1.865,22.072.592s1.03.438.918,1.184Z" transform="translate(-488.855 -445.17)" fill="#455a64"/>
      </g>
      <path id="Path_64786" data-name="Path 64786" d="M460.442,383.261s11.841-57.946,11.841-59.106L451.171,313,443,381Z" transform="translate(-403.895 -168.43)" fill="#263238"/>
      <path id="Path_64787" data-name="Path 64787" d="M493.863,350.861,510.174,250.4V228.74l-22.285,2.072c-.284.841-7.579,120.149-7.579,120.149l2.3-.13h11.249" transform="translate(-463.875 -134.057)" fill="#263238"/>
      <path id="Path_64788" data-name="Path 64788" d="M462.878,226.15l9.248,62.576-20.681-5.015-8.425-55.525Z" transform="translate(-403.749 -133.001)" fill="#263238"/>
      <path id="Path_64789" data-name="Path 64789" d="M506.947,235.11v.308c0,.2-.053.515-.095.9-.095.8-.225,1.96-.4,3.446-.349,3-.882,7.324-1.581,12.67-1.38,10.687-3.469,25.459-5.719,41.723-1.125,8.147-2.155,15.915-3.031,22.984-.231,1.776-.409,3.5-.657,5.169s-.5,3.292-.746,4.855c-.474,3.132-.918,6.051-1.32,8.715-.8,5.329-1.433,9.645-1.847,12.629-.207,1.492-.361,2.652-.45,3.44-.047.4-.077.693-.089.9a1.573,1.573,0,0,0,0,.225c0,.065.036,0,.036,0h-.041a.832.832,0,0,1,0-.231,5.71,5.71,0,0,1,.059-.9c.071-.787.207-1.954.4-3.446.385-2.99.983-7.312,1.776-12.647.4-2.664.829-5.583,1.291-8.721.237-1.563.48-3.185.728-4.855s.42-3.4.645-5.163c.865-7.075,1.889-14.843,3.008-23,2.25-16.288,4.375-31.025,5.808-41.711l1.634-12.623c.19-1.486.343-2.641.444-3.44l.124-.894C506.947,235.217,506.947,235.11,506.947,235.11Z" transform="translate(-466.977 -136.656)" fill="#455a64"/>
      <path id="Path_64790" data-name="Path 64790" d="M452.043,352.075a1.6,1.6,0,0,1,.041-.3c.041-.2.083-.5.142-.87.13-.77.32-1.895.592-3.333l2.149-12.25,7.188-40.391a9.242,9.242,0,0,0,.172-2.931c-.118-.965-.284-1.948-.426-2.907q-.444-2.9-.882-5.7c-.592-3.73-1.184-7.33-1.735-10.752-1.143-6.844-2.238-13.026-3.221-18.159s-1.847-9.313-2.5-12.173c-.308-1.439-.592-2.54-.764-3.3-.089-.367-.154-.651-.2-.853a2.026,2.026,0,0,1-.053-.3.855.855,0,0,0,.083.29,7.669,7.669,0,0,1,.225.847c.2.752.491,1.853.817,3.28.693,2.86,1.587,7.01,2.593,12.167s2.131,11.3,3.28,18.153c.592,3.422,1.184,7.022,1.776,10.752q.438,2.8.882,5.7c.148.965.308,1.924.432,2.919a9.731,9.731,0,0,1-.178,3.014c-2.836,15.761-5.406,30.03-7.271,40.373-.941,5.157-1.705,9.337-2.238,12.232-.266,1.439-.474,2.558-.622,3.327-.071.367-.124.657-.166.864A.677.677,0,0,1,452.043,352.075Z" transform="translate(-399.64 -137.782)" fill="#455a64"/>
      <path id="Path_64791" data-name="Path 64791" d="M484.887,264.13c.083,0-.882,6.513-2.149,14.488s-2.368,14.458-2.433,14.447.888-6.513,2.155-14.488S484.81,264.118,484.887,264.13Z" transform="translate(-438.589 -148.494)" fill="#455a64"/>
      <path id="Path_64792" data-name="Path 64792" d="M521.254,434.633a1.805,1.805,0,0,1-.539.095c-.343.041-.847.089-1.462.136-1.243.1-2.96.189-4.855.219s-3.617,0-4.861-.059c-.592,0-1.119-.059-1.468-.089a2.314,2.314,0,0,1-.539-.071,15.947,15.947,0,0,1,2.013-.041h4.849c1.889,0,3.606-.089,4.849-.136a16.481,16.481,0,0,1,2.013-.053Z" transform="translate(-491.072 -218.043)" fill="#455a64"/>
      <path id="Path_64793" data-name="Path 64793" d="M480.448,430.1a3.386,3.386,0,0,1-.693-.036l-1.871-.2c-1.587-.178-3.766-.45-6.175-.758s-4.589-.592-6.163-.841l-1.865-.284a3.981,3.981,0,0,1-.681-.142,3.6,3.6,0,0,1,.693,0c.444.041,1.089.107,1.877.2,1.581.178,3.766.444,6.175.758s4.589.592,6.163.847l1.865.284A3.278,3.278,0,0,1,480.448,430.1Z" transform="translate(-423.901 -215.269)" fill="#455a64"/>
      <path id="Path_64794" data-name="Path 64794" d="M431.1,153.331l-13.3,10.118s-12.374-21.113-13.47-22.428a15.572,15.572,0,0,0-3.872-2.712l1.528,27.052s6.7,17.087,15.885,16.158c7.034-.71,19.195-19.272,19.195-19.272Z" transform="translate(-343.492 -97.169)" fill="#455a64"/>
      <g id="Group_160287" data-name="Group 160287" transform="translate(70.96 65.961)" opacity="0.2">
        <path id="Path_64795" data-name="Path 64795" d="M433.05,180.23a11.688,11.688,0,0,1,1.344,9.734,1.451,1.451,0,0,1-.539.859,1.06,1.06,0,0,1-1.332-.444,3.078,3.078,0,0,1-.343-1.5,3.411,3.411,0,0,1-.983,1.285,1.184,1.184,0,0,1-1.5-.053c-.438-.485-.2-1.255.071-1.859q1.693-3.848,3.4-7.7" transform="translate(-429.458 -180.23)"/>
      </g>
      <path id="Path_64796" data-name="Path 64796" d="M405.388,168.8a48.847,48.847,0,0,0,3.049,5.1,50.575,50.575,0,0,0,3.345,4.908,46.022,46.022,0,0,0-3.043-5.1A53.347,53.347,0,0,0,405.388,168.8Z" transform="translate(-321.125 -109.606)" fill="#263238"/>
      <path id="Path_64797" data-name="Path 64797" d="M410.651,168.084c.036,0-.136-.207-.438-.089a.589.589,0,1,0,.793.414c-.077-.314-.32-.355-.326-.308a1.036,1.036,0,0,1,.071.338c-.012.189-.166.391-.409.266a.272.272,0,0,1,0-.485C410.48,168.1,410.628,168.131,410.651,168.084Z" transform="translate(-323.002 -109.263)" fill="#263238"/>
      <path id="Path_64798" data-name="Path 64798" d="M432.019,187.19a7.342,7.342,0,0,0,.592-3.191,7.261,7.261,0,0,0-.509-3.209c-.089.03.184,1.439.148,3.2S431.895,187.16,432.019,187.19Z" transform="translate(-357.709 -114.497)" fill="#263238"/>
      <path id="Path_64799" data-name="Path 64799" d="M432.817,187.112a10.414,10.414,0,0,0,1.705-2.99,10.84,10.84,0,0,0,1.007-3.292c-.1-.03-.592,1.421-1.338,3.15S432.729,187.058,432.817,187.112Z" transform="translate(-361.107 -114.513)" fill="#263238"/>
      <path id="Path_64800" data-name="Path 64800" d="M469.279,131.259l2.013-3.979h14.547l2.291,4.518,8.988,2.037,3.872,57.958a4.015,4.015,0,0,1-.515,2.1h0L465.135,195.2l-1.439.592c-1.267-.782-.48-4.014-.491-5.53l-.456-28.7-6.992-22.937Z" transform="translate(-440.156 -92.669)" fill="#455a64"/>
      <g id="Group_160288" data-name="Group 160288" transform="translate(29.271 34.907)" opacity="0.2">
        <path id="Path_64801" data-name="Path 64801" d="M498.782,133.452l-2.57-2.576q-1.445,3.493-2.889,6.969a72.707,72.707,0,0,1-9.473-6.625l9.787,3.144q1.243-3.3,2.481-6.584a25.193,25.193,0,0,0,2.463,5.7" transform="translate(-483.85 -127.78)"/>
      </g>
      <path id="Path_64802" data-name="Path 64802" d="M523.576,211.744l9.526.491V184.9l9.852-15.483-6.992-22.937c-1.439.592-12.291,27.827-15.056,35.216a8.338,8.338,0,0,0-.515,3.339Z" transform="translate(-520.38 -100.501)" fill="#455a64"/>
      <path id="Path_64803" data-name="Path 64803" d="M458.121,158.51c-.1,0,.373,5.619,1.054,12.516s1.314,12.5,1.415,12.487-.373-5.613-1.06-12.522S458.215,158.5,458.121,158.51Z" transform="translate(-401.159 -105.409)" fill="#263238"/>
      <path id="Path_64804" data-name="Path 64804" d="M478.62,127.81a35.366,35.366,0,0,0,1.735,4.66l.2.468a1.119,1.119,0,0,0,.314.486.592.592,0,0,0,.634.035,4.458,4.458,0,0,0,.4-.249l1.308-.888a5.81,5.81,0,0,0,1.155-.894,5.917,5.917,0,0,0-1.291.681l-1.35.817c-.26.166-.521.355-.639.219a2.961,2.961,0,0,1-.4-.811A33.716,33.716,0,0,0,478.62,127.81Z" transform="translate(-437.064 -92.885)" fill="#263238"/>
      <path id="Path_64805" data-name="Path 64805" d="M488.3,131.5a16.116,16.116,0,0,0,2.22.894c1.391.509,3.316,1.184,5.447,1.918l1.184.4.16.053.059-.154c.752-1.818,1.4-3.422,1.847-4.583a12.43,12.43,0,0,0,.663-1.883,11.37,11.37,0,0,0-.876,1.776c-.509,1.131-1.184,2.724-1.96,4.535l.219-.1-1.184-.4c-2.137-.728-4.073-1.368-5.483-1.818A14.855,14.855,0,0,0,488.3,131.5Z" transform="translate(-458.313 -93.02)" fill="#263238"/>
      <path id="Path_64806" data-name="Path 64806" d="M515.07,147.86c0,.107,2.019.663,4.393,1.723s4.144,2.2,4.227,2.114a4.622,4.622,0,0,0-1.113-.847,22.736,22.736,0,0,0-6.134-2.729A4.764,4.764,0,0,0,515.07,147.86Z" transform="translate(-497.972 -101.064)" fill="#263238"/>
      <path id="Path_64807" data-name="Path 64807" d="M480.291,127.81a.657.657,0,0,0,0,.172v.509c0,.45-.041,1.107-.047,1.96,0,1.7,0,4.145.112,7.2.213,6.081.977,14.458,2.185,23.653.592,4.606,1.243,8.976,1.682,12.966a84.665,84.665,0,0,1,.592,10.657,54.857,54.857,0,0,1-.592,7.158c-.107.847-.243,1.492-.308,1.93-.03.207-.053.373-.071.509a.632.632,0,0,0,0,.172.646.646,0,0,0,.053-.166c.03-.136.065-.3.112-.5.083-.438.243-1.084.367-1.924a48.872,48.872,0,0,0,.681-7.176,80.7,80.7,0,0,0-.5-10.657c-.42-4-1.066-8.378-1.652-12.972-1.184-9.195-2.013-17.555-2.291-23.624-.154-3.031-.2-5.489-.225-7.188v-2.469A.657.657,0,0,0,480.291,127.81Z" transform="translate(-438.735 -92.885)" fill="#263238"/>
      <path id="Path_64808" data-name="Path 64808" d="M536.98,249.26a70.4,70.4,0,0,0,10.077-.491,35.063,35.063,0,0,0-5.044.065,36.264,36.264,0,0,0-5.033.426Z" transform="translate(-534.311 -142.203)" fill="#263238"/>
      <path id="Path_64809" data-name="Path 64809" d="M539.924,251.314v.26a.162.162,0,0,1-.278.1c-.124-.1-.083-.213.036-.3s.213-.047.249-.083-.065-.2-.32-.16a.444.444,0,0,0-.349.272.468.468,0,0,0,.16.545.474.474,0,0,0,.592.041.462.462,0,0,0,.2-.4C540.131,251.338,539.941,251.273,539.924,251.314Z" transform="translate(-528.794 -143.192)" fill="#263238"/>
      <g id="Group_160289" data-name="Group 160289" transform="translate(22.456 63.232)" opacity="0.2">
        <path id="Path_64810" data-name="Path 64810" d="M514.336,181.227l3.1-5.607a77.1,77.1,0,0,1-2.049,29.568l-.959-23.837" transform="translate(-514.336 -175.62)"/>
      </g>
      <path id="Path_64811" data-name="Path 64811" d="M501.325,167.584a3.156,3.156,0,0,0-.592-.036l-1.652-.041c-1.439-.03-3.517-.065-6.016-.077H492.9v.166c.16,2.191.343,4.737.545,7.425v.1l.089.047.373.2,4.02,2.114.1.053.089-.071,3.8-3.055.059-.047v-.077c-.178-2.007-.32-3.683-.426-4.92-.053-.533-.1-.977-.136-1.332a2.2,2.2,0,0,0-.065-.444,3.417,3.417,0,0,0,0,.509c0,.361.035.817.059,1.368.065,1.184.16,2.866.272,4.837l.053-.124-3.771,3.014h.189l-4.014-2.126-.367-.2.095.142c-.219-2.7-.42-5.228-.592-7.419l-.16.172c2.433,0,4.47-.047,5.921-.077l1.693-.041A5.326,5.326,0,0,0,501.325,167.584Z" transform="translate(-463.132 -109.047)" fill="#263238"/>
      <path id="Path_64812" data-name="Path 64812" d="M461.815,238.746c0,.095.746-.036,1.226-.752s.332-1.451.237-1.415a8.069,8.069,0,0,1-.539,1.184C462.324,238.355,461.786,238.645,461.815,238.746Z" transform="translate(-406.126 -137.255)" fill="#263238"/>
      <path id="Path_64813" data-name="Path 64813" d="M464.162,237.142a3.274,3.274,0,0,0,.9-3.552c-.107,0,0,.853-.255,1.829S464.079,237.077,464.162,237.142Z" transform="translate(-409.391 -136.036)" fill="#263238"/>
      <path id="Path_64814" data-name="Path 64814" d="M506.974,232.86a4.842,4.842,0,0,0,.557,2.919,4.923,4.923,0,0,0,1.895,2.285,17.221,17.221,0,0,1-1.569-2.439A27.43,27.43,0,0,1,506.974,232.86Z" transform="translate(-478.882 -135.738)" fill="#263238"/>
      <path id="Path_64815" data-name="Path 64815" d="M381.447,159.08s10.764-8.153,12.268-8.7c2.5-.906,3.108-.663,3.108-.663l-5.921,6.359s6.24,2.1,6.69,2.368.669,1.622-.847,1.622c-1.249,0-7.235.142-7.235.142l-4.932,3.6Z" transform="translate(-293.093 -101.811)" fill="#ffbe9d"/>
    </g>
    <g id="freepik--speech-bubble--inject-34" transform="translate(61.272 0)">
      <path id="Path_64816" data-name="Path 64816" d="M555.886,46.9a1.464,1.464,0,0,0-.355,0l-1.042.03h-.77l-.918.13-1.078.154-1.184.3a19.445,19.445,0,0,0-5.82,2.558,20.51,20.51,0,0,0-9.473,15.435,21.13,21.13,0,0,0-.059,2.812,11.818,11.818,0,0,0,.095,1.439c.095.48.148.959.219,1.451a20.583,20.583,0,0,0,1.954,5.719,22.12,22.12,0,0,0,3.742,5.151,21.635,21.635,0,0,0,5.388,3.866,19.591,19.591,0,0,0,6.566,2.019,13.206,13.206,0,0,0,1.776.148,16.036,16.036,0,0,0,1.776,0,21.28,21.28,0,0,0,3.552-.444,20.722,20.722,0,0,0,7.057-2.96H567.1l7.194,2.889.426.172-.124-.444c-.722-2.641-1.433-5.2-2.114-7.7l-.036.189a20.646,20.646,0,0,0,3.837-8.786,18.742,18.742,0,0,0,.278-4.5,14.531,14.531,0,0,0-.2-2.167c-.053-.349-.113-.7-.166-1.048s-.166-.681-.249-1.018a20.592,20.592,0,0,0-8.022-11.7,19.806,19.806,0,0,0-4.784-2.463c-.373-.136-.728-.266-1.078-.385l-1.018-.261-.935-.231c-.3-.059-.592-.089-.858-.13-.545-.071-1.024-.166-1.439-.184l-1.06-.036h-.645a.907.907,0,0,0-.219,0,1.711,1.711,0,0,0,.219.03l.645.047,1.048.071c.414.036.888.136,1.427.219A20.444,20.444,0,0,1,575.578,62.45c.077.332.184.663.243,1s.1.687.154,1.036a13.125,13.125,0,0,1,.19,2.12,18.3,18.3,0,0,1-.29,4.411,20.262,20.262,0,0,1-3.783,8.6l-.065.089v.1q1.013,3.73,2.1,7.7l.3-.266-7.188-2.9-.112-.047-.1.065a20.25,20.25,0,0,1-6.9,2.907,20.915,20.915,0,0,1-3.464.438,15.394,15.394,0,0,1-1.735-.036,11.769,11.769,0,0,1-1.711-.142,19.048,19.048,0,0,1-6.424-1.966,21.186,21.186,0,0,1-5.275-3.777,21.661,21.661,0,0,1-3.671-5.027,20.18,20.18,0,0,1-1.936-5.6c-.071-.48-.148-.953-.219-1.421s-.059-.941-.095-1.409a20.105,20.105,0,0,1,9.23-18.011,19.489,19.489,0,0,1,5.719-2.581l1.184-.314,1.06-.178.912-.148c.278-.03.539-.036.764-.059l1.078-.077A3.265,3.265,0,0,0,555.886,46.9Z" transform="translate(-535.165 -46.892)" fill="#263238"/>
      <path id="Path_64817" data-name="Path 64817" d="M552.74,81.841a1.368,1.368,0,0,0,.243,0h.7l2.593.041,8.686.077h.071v-.071c.071-.456.142-.947.213-1.439.592-4.21,1.137-7.969,1.486-10.42l-.047.041H569.8a.979.979,0,0,0-.213,0h-.592L566.683,70h-.047v.041c-.367,2.457-.924,6.211-1.551,10.415l-.207,1.439.083-.071h-8.686l-2.617.018h-.7a1.142,1.142,0,0,0-.213,0Z" transform="translate(-538.775 -56.318)" fill="#efa00b"/>
      <path id="Path_64818" data-name="Path 64818" d="M564.6,82.033h.29l.047-.3h0v-.071l.172-1.184,1.51-10.349h2.818c.249,0,.29,0,.29-.083v-.03h0l-.266-.041h-.592l-2.173-.03V69.89l-.059.053h-.2v.107a.522.522,0,0,1,0,.095l-.059.053h.053c-.367,2.457-.912,6.146-1.528,10.267l-.189,1.308H552.874c-.278,0-.314,0-.314.089s0,.083.314.089h.7l2.587.036,8.508.077Zm0-.178Zm.793-4.2L564.8,81.7h0l.189-1.285C565.13,79.476,565.266,78.552,565.4,77.652Z" transform="translate(-538.601 -56.273)" fill="#efa00b"/>
      <path id="Path_64819" data-name="Path 64819" d="M572.579,80.692h-.941l-2.611-.041-9.017-.083.077.065c-.261-1.516-.539-3.162-.829-4.861-.148-.87-.3-1.729-.432-2.552l-.083.095,10.628.036H572.5l-3.144-.041-10.628-.089h-.095v.095c.136.817.284,1.676.432,2.552.29,1.7.592,3.339.835,4.861v.065h12.635Z" transform="translate(-546.027 -57.632)" fill="#efa00b"/>
      <path id="Path_64820" data-name="Path 64820" d="M568.815,80.725h3.493c.065,0,.136,0,.136-.083s-.071-.077-.136-.083h-.876l-2.617-.036-8.881-.083-.805-4.737c-.142-.811-.278-1.6-.409-2.368l10.444.036h4.216c.077,0,.148,0,.148-.083s-.071-.077-.148-.083h-1.066l-3.15-.047-10.5-.089h-.337l.047.284h0l1.184,7.1h0l.047.284h.29Zm-8.881-.178h0Zm-1.385-7.253c.13.77.266,1.575.408,2.368l.8,4.737h0l-1.184-7.1Zm.124-.16h0Z" transform="translate(-545.815 -57.571)" fill="#efa00b"/>
      <path id="Path_64821" data-name="Path 64821" d="M561.847,94.794a.9.9,0,0,1,.071-.29,1.178,1.178,0,0,1,1.545-.776,1.149,1.149,0,0,1,.74,1.078,1.153,1.153,0,0,1-1.847.918,1.238,1.238,0,0,1-.444-.639c-.053-.178-.053-.29-.065-.29a.591.591,0,0,0,0,.308,1.219,1.219,0,0,0,.432.71,1.291,1.291,0,1,0,1.232-2.226,1.259,1.259,0,0,0-1.664.9C561.818,94.688,561.836,94.794,561.847,94.794Z" transform="translate(-538.735 -65.908)" fill="#efa00b"/>
      <path id="Path_64822" data-name="Path 64822" d="M563.018,96.118a1.29,1.29,0,0,0,.438-.077,1.363,1.363,0,1,0-1.273-2.368,1.273,1.273,0,0,0-.468.752.85.85,0,0,0,0,.32.961.961,0,0,0,0,.32,1.285,1.285,0,0,0,.462.758A1.368,1.368,0,0,0,563.018,96.118Zm.255-2.558.154.047a1.22,1.22,0,0,1,0,2.3l-.154.041.148-.047a1.22,1.22,0,0,0,0-2.291Zm-.284.118a1.024,1.024,0,0,1,.385.071,1.077,1.077,0,1,1-1.036,1.865,1.184,1.184,0,0,1-.42-.592,1.239,1.239,0,0,1-.047-.219v-.053a.111.111,0,0,0,0-.047,1.28,1.28,0,0,1,.053-.219,1.131,1.131,0,0,1,.42-.592,1.09,1.09,0,0,1,.639-.213Z" transform="translate(-538.662 -65.858)" fill="#efa00b"/>
      <path id="Path_64823" data-name="Path 64823" d="M575.157,94.715a.9.9,0,0,1,.071-.29,1.169,1.169,0,1,1,.438,1.22,1.226,1.226,0,0,1-.444-.634c-.053-.184-.053-.3-.065-.3a.656.656,0,0,0,0,.308,1.184,1.184,0,0,0,.432.716,1.291,1.291,0,1,0,0-2.037,1.243,1.243,0,0,0-.444.71.593.593,0,0,0,.012.3Z" transform="translate(-559.907 -65.876)" fill="#efa00b"/>
      <path id="Path_64824" data-name="Path 64824" d="M576.265,96.033a1.336,1.336,0,0,0,.444-.071,1.368,1.368,0,1,0-1.279-2.368,1.309,1.309,0,0,0-.468.752.852.852,0,0,0,0,.32.963.963,0,0,0,0,.32,1.326,1.326,0,0,0,1.309,1.054Zm.266-2.552.142.041a1.22,1.22,0,0,1,0,2.3l-.172.047.166-.047a1.226,1.226,0,0,0,0-2.3Zm-.3.113a1,1,0,0,1,.385.071,1.078,1.078,0,1,1-1.036,1.865,1.184,1.184,0,0,1-.42-.592,2.236,2.236,0,0,1-.047-.219.173.173,0,0,0,0-.053.111.111,0,0,0,0-.047.409.409,0,0,1,.053-.219,1.131,1.131,0,0,1,.42-.592,1.1,1.1,0,0,1,.645-.213Z" transform="translate(-559.778 -65.821)" fill="#efa00b"/>
    </g>
  </g>
</svg>
