<svg xmlns="http://www.w3.org/2000/svg" width="393.318" height="251.353" viewBox="0 0 393.318 251.353">
  <g id="Wallet-pana" transform="translate(-22.358 0)">
    <g id="freepik--background-complete--inject-34" transform="translate(28.447 5.275)">
      <path id="Path_64618" data-name="Path 64618" d="M361.287,77.743A26.249,26.249,0,1,0,391,55.612a26.249,26.249,0,0,0-29.718,22.13Z" transform="translate(-225.935 -55.332)" fill="#f5f5f5"/>
      <path id="Path_64619" data-name="Path 64619" d="M371.225,82.379A20,20,0,1,0,393.88,65.5,20,20,0,0,0,371.225,82.379Z" transform="translate(-229.699 -59.068)" fill="#ebebeb"/>
      <path id="Path_64620" data-name="Path 64620" d="M370.551,81.34a12.671,12.671,0,0,0,.869-2.306,21.3,21.3,0,0,1,3.162-5.731,20.461,20.461,0,0,1,3.125-3.212,20.156,20.156,0,0,1,4.375-2.7,18.981,18.981,0,0,1,2.606-.969,19.6,19.6,0,0,1,11.881.3,20.064,20.064,0,0,1,2.75,1.194,18.646,18.646,0,0,1,2.45,1.537,18.038,18.038,0,0,1,2.112,1.806,19.7,19.7,0,0,1,5,8.125,21.282,21.282,0,0,1,1,6.469,15.737,15.737,0,0,0,0,2.462,5.611,5.611,0,0,0,.575-2.425,18.517,18.517,0,0,0-.55-6.806,20.424,20.424,0,0,0-1.737-4.394,20.129,20.129,0,0,0-3.275-4.375,18.984,18.984,0,0,0-2.237-1.975,19.375,19.375,0,0,0-2.619-1.694,20.313,20.313,0,0,0-2.956-1.312,22.737,22.737,0,0,0-3.219-.844,22.232,22.232,0,0,0-3.319-.312,19.649,19.649,0,0,0-3.225.212,19.011,19.011,0,0,0-3.037.687A18.478,18.478,0,0,0,381.5,66.11a20.093,20.093,0,0,0-7.787,6.55,18.526,18.526,0,0,0-2.837,6.2A5.785,5.785,0,0,0,370.551,81.34Z" transform="translate(-228.932 -58.649)" fill="#e0e0e0"/>
      <path id="Path_64621" data-name="Path 64621" d="M401.636,100.338l.55,3.444-3.075.487-.531-3.344a14.6,14.6,0,0,1-8.043-1.25l1.094-4.019a12.462,12.462,0,0,0,6.306,1.25l-.825-5.125c-3.537-.281-7.531-.812-8.231-5.2-.519-3.256,1.394-6.431,6.156-7.756l-.544-3.412,3.069-.494.538,3.35a14.068,14.068,0,0,1,6.531.875L403.7,83.17a12.737,12.737,0,0,0-4.95-.85l.838,5.225c3.531.25,7.462.787,8.156,5.119C408.255,95.851,406.361,98.988,401.636,100.338Zm-5.212-13.075-.7-4.375c-1.569.625-2.069,1.625-1.906,2.637S394.968,87.051,396.424,87.263Zm6.462,6.55c-.169-1.075-1.156-1.512-2.55-1.762l.681,4.237c1.45-.581,1.994-1.487,1.837-2.475Z" transform="translate(-237.629 -62.678)" fill="#e0e0e0"/>
      <path id="Path_64622" data-name="Path 64622" d="M564.635,271.783s5.818-3.362,11.837,10.431,8.125,21.662,8.125,21.662,1.637,2.912,3.669,1.2,5-6.762,8.206-5.625c3.337,1.175,4.225,5.031,3.244,10.556s-2.687,17.724-2.837,18.824.375,2.725,1.95,1.775,10.856-10.106,14.943-5.444-1.181,19.618-1.731,21.249-.256,2.381.513,2.844,3.6-2.912,6.343-5.412,6.369-4.912,8.5-2.025,2.181,14.375-9.8,32.236l-6.094,7.925-10-1.156c-21.193-3.75-29.418-11.762-30-15.3s3.65-4.475,7.35-4.719,8.125.056,8.3-.819-.131-1.587-1.694-2.337-15.987-7.325-16.512-13.506,12.5-6.506,14.287-6.981.956-1.994.075-2.637-10.868-7.887-15.531-11.012-6.825-6.444-5.356-9.662c1.412-3.125,7.093-1.731,9.737-2.006s1.688-3.475,1.688-3.475-4.2-6.987-9.962-20.887.863-15.768.863-15.768" transform="translate(-551.571 -136.371)" fill="#ebebeb"/>
      <path id="Path_64623" data-name="Path 64623" d="M630.382,387.517c-4.275-10.193-10.293-24.218-16.993-39.7s-12.756-29.48-17.081-39.649l-5.118-12.043-1.394-3.275-.369-.844c-.088-.194-.137-.287-.137-.287a2.568,2.568,0,0,0,.1.3l.344.856c.306.769.756,1.875,1.331,3.3,1.162,2.862,2.875,6.993,5,12.087,4.294,10.193,10.312,24.255,17,39.692s12.756,29.493,17.081,39.655" transform="translate(-585.49 -143.983)" fill="#e0e0e0"/>
      <path id="Path_64624" data-name="Path 64624" d="M624.471,327.78a3.122,3.122,0,0,0-.3.662c-.169.431-.4,1.062-.681,1.875-.55,1.569-1.25,3.75-1.981,6.181l-1.875,6.219c-.225.737-.412,1.362-.569,1.875a.362.362,0,1,0,.125.044c.175-.437.406-1.069.675-1.875.538-1.575,1.206-3.75,1.937-6.194l1.875-6.2.575-1.875a2.553,2.553,0,0,0,.219-.712Z" transform="translate(-598.078 -157.506)" fill="#e0e0e0"/>
      <path id="Path_64625" data-name="Path 64625" d="M649.168,351.767c0-.088-4.412-1.737-9.918-3.687s-10-3.456-10-3.362,4.412,1.737,9.919,3.687S649.137,351.83,649.168,351.767Z" transform="translate(-629.25 -163.857)" fill="#e0e0e0"/>
      <path id="Path_64626" data-name="Path 64626" d="M629.7,392.133a3.011,3.011,0,0,0-.731-.081l-2.006-.119c-1.687-.1-4.025-.25-6.593-.506s-4.887-.55-6.562-.788l-1.987-.269a2.974,2.974,0,0,0-.737-.062,2.782,2.782,0,0,0,.712.194c.462.1,1.138.231,1.975.381,1.669.294,3.987.625,6.569.888s4.919.362,6.619.4h2.006A2.777,2.777,0,0,0,629.7,392.133Z" transform="translate(-598.424 -180.955)" fill="#e0e0e0"/>
      <path id="Path_64627" data-name="Path 64627" d="M605.608,369.82a4.7,4.7,0,0,0-.431.531c-.256.356-.625.869-1.069,1.519-.881,1.287-2.087,3.087-3.4,5.081s-2.5,3.812-3.325,5.137c-.419.662-.75,1.206-.975,1.581a2.934,2.934,0,0,0-.319.625,2.5,2.5,0,0,0,.431-.531c.256-.356.625-.875,1.069-1.519.881-1.294,2.087-3.087,3.4-5.087s2.5-3.812,3.325-5.137c.419-.662.75-1.2.975-1.581A3.012,3.012,0,0,0,605.608,369.82Z" transform="translate(-564.966 -173.272)" fill="#e0e0e0"/>
      <path id="Path_64628" data-name="Path 64628" d="M588.238,400.69a4.707,4.707,0,0,0-.537.681c-.362.519-.825,1.169-1.375,1.944-1.144,1.65-2.706,3.944-4.412,6.481s-3.237,4.856-4.331,6.537l-1.281,2.006a4.484,4.484,0,0,0-.431.762,4.325,4.325,0,0,0,.544-.687l1.369-1.944c1.144-1.65,2.706-3.937,4.419-6.481s3.237-4.856,4.331-6.537c.512-.8.938-1.475,1.281-2.006A3.756,3.756,0,0,0,588.238,400.69Z" transform="translate(-534.959 -184.849)" fill="#e0e0e0"/>
      <path id="Path_64629" data-name="Path 64629" d="M618.9,427.536a4.892,4.892,0,0,0-.931-.131l-2.5-.238c-2.137-.206-5.094-.494-8.343-.906s-6.187-.85-8.312-1.187l-2.5-.394a4.611,4.611,0,0,0-.931-.1,5.109,5.109,0,0,0,.906.231c.588.131,1.438.306,2.5.5,2.112.4,5.05.881,8.306,1.287s6.25.669,8.369.806c1.075.069,1.944.119,2.544.138a4.739,4.739,0,0,0,.894-.006Z" transform="translate(-577.812 -193.808)" fill="#e0e0e0"/>
      <path id="Path_64630" data-name="Path 64630" d="M141.729,266.45l119.114-37.074a5.806,5.806,0,0,0,3.819-7.269l-22.905-73.566a5.8,5.8,0,0,0-7.281-3.831L115.355,181.79a5.8,5.8,0,0,0-3.812,7.262l22.937,73.585a5.794,5.794,0,0,0,7.25,3.812Z" transform="translate(78.713 -88.751)" fill="#e0e0e0"/>
      <path id="Path_64631" data-name="Path 64631" d="M289.916,221.59a9.406,9.406,0,1,0,.65-7.176,9.412,9.412,0,0,0-.65,7.176Z" transform="translate(-76.055 -113.102)" fill="#fff"/>
      <path id="Path_64632" data-name="Path 64632" d="M317.352,233.827a10.157,10.157,0,0,0,1.706-.375,9.681,9.681,0,1,0-1.706.375Zm-2.331-18.687a9.031,9.031,0,1,1-7.5,11.643h0a9.037,9.037,0,0,1,5.937-11.306,9.753,9.753,0,0,1,1.594-.337Z" transform="translate(-104.16 -115.039)" fill="#fff"/>
      <path id="Path_64633" data-name="Path 64633" d="M137.81,234.072l2.237,7.225.744-.231-2.044-6.562,1.7-.531-.206-.662Z" transform="translate(186.266 -122.078)" fill="#fff"/>
      <path id="Path_64634" data-name="Path 64634" d="M144.01,244.122l.206.662,5.069-1.581-.169-.525-3.919-2.006c-1.062-.556-1.369-.994-1.525-1.487-.262-.837.169-1.537,1.25-1.875a2.575,2.575,0,0,1,2.225.194l.387-.625a3.4,3.4,0,0,0-2.881-.237c-1.469.456-2.169,1.494-1.794,2.7.219.694.625,1.25,1.875,1.875l3.212,1.65Z" transform="translate(174.679 -123.247)" fill="#fff"/>
      <path id="Path_64635" data-name="Path 64635" d="M154.151,246.9l1.45-.444.587,1.875.744-.237-.587-1.875,4.075-1.25-.163-.537-5.325-3.594-.825.256,5.15,3.512-3.125.981-.519-1.675-.719.225.519,1.675-1.444.45Z" transform="translate(156.537 -124.902)" fill="#fff"/>
      <path id="Path_64636" data-name="Path 64636" d="M171.884,252.418l1.444-.45.594,1.875.744-.231-.594-1.875,4.081-1.25-.169-.537-5.319-3.6-.825.256,5.144,3.519-3.125.975-.519-1.669-.725.225.525,1.669-1.45.45Z" transform="translate(127.73 -126.968)" fill="#fff"/>
      <path id="Path_64637" data-name="Path 64637" d="M184.176,254.97c.381,1.25,1.537,1.925,3.306,1.375a3.894,3.894,0,0,0,2.3-1.737l-.544-.475a3.269,3.269,0,0,1-1.956,1.525c-1.25.387-2.069,0-2.344-.887s.112-1.687,1.95-2.262l1.537-.475-1.5-3.512-3.956,1.25.206.662,3.306-1.031.962,2.231-.931.288C184.339,252.57,183.776,253.695,184.176,254.97Z" transform="translate(109.051 -127.782)" fill="#fff"/>
      <path id="Path_64638" data-name="Path 64638" d="M196.079,258.76a2.345,2.345,0,0,0,3.125,1.456c1.919-.625,2.55-2.256,1.837-4.537-.762-2.456-2.5-3.325-4.469-2.712a3.475,3.475,0,0,0-1.587.925l.481.506a2.7,2.7,0,0,1,1.3-.775c1.556-.487,2.875.206,3.481,2.169a5.7,5.7,0,0,1,.156.594,2.425,2.425,0,0,0-2.6-.55A2.31,2.31,0,0,0,196.079,258.76Zm.737-.219a1.666,1.666,0,0,1,1.331-2.125,1.667,1.667,0,1,1,.925,3.144,1.656,1.656,0,0,1-2.256-1.019Z" transform="translate(89.998 -129.379)" fill="#fff"/>
      <path id="Path_64639" data-name="Path 64639" d="M211.535,263.4c.381,1.206,1.544,1.875,3.287,1.319a3.925,3.925,0,0,0,2.312-1.737l-.544-.475a3.275,3.275,0,0,1-1.981,1.531c-1.194.375-2.031,0-2.306-.875s.163-1.625,1.5-2.044l.519-.163-.169-.544-2.787-1.875,3.7-1.15-.206-.663-4.65,1.45.169.525,2.844,1.937C211.7,261.192,211.179,262.249,211.535,263.4Z" transform="translate(64.674 -130.861)" fill="#fff"/>
      <path id="Path_64640" data-name="Path 64640" d="M223.417,267.3a2.364,2.364,0,0,0,3.156,1.45c1.919-.625,2.55-2.256,1.837-4.537-.762-2.456-2.5-3.319-4.469-2.706a3.456,3.456,0,0,0-1.587.925l.481.506a2.706,2.706,0,0,1,1.3-.781c1.562-.481,2.875.206,3.481,2.169a5.852,5.852,0,0,1,.156.625,2.419,2.419,0,0,0-2.594-.556A2.262,2.262,0,0,0,223.417,267.3Zm.737-.212a1.661,1.661,0,0,1,1.331-2.119,1.748,1.748,0,0,1,2.35,1c.25.794-.175,1.75-1.425,2.144a1.656,1.656,0,0,1-2.256-1.025Z" transform="translate(45.523 -132.581)" fill="#fff"/>
      <path id="Path_64641" data-name="Path 64641" d="M234.27,265.1l.169.525,5.106,5.762.806-.256-5-5.625,3.712-1.156.425,1.35.731-.231-.625-2.012Z" transform="translate(26.42 -133.385)" fill="#fff"/>
      <path id="Path_64642" data-name="Path 64642" d="M250.77,270.251l.163.531,5.112,5.756.806-.25-5-5.625,3.75-1.156.419,1.356.738-.231-.625-2.012Z" transform="translate(-0.392 -135.32)" fill="#fff"/>
      <path id="Path_64643" data-name="Path 64643" d="M261.063,279.315c.4,1.281,1.731,1.737,3.456,1.2s2.537-1.662,2.137-2.944a1.875,1.875,0,0,0-1.944-1.344,1.7,1.7,0,0,0,.625-1.944c-.362-1.175-1.594-1.594-3.125-1.119s-2.319,1.525-1.956,2.7a1.713,1.713,0,0,0,1.656,1.25A1.875,1.875,0,0,0,261.063,279.315Zm.756-.25c-.275-.887.319-1.681,1.6-2.081s2.206-.075,2.5.812-.3,1.694-1.581,2.087S262.1,279.965,261.819,279.065Zm1.412-2.669c-1.125.35-1.95.05-2.194-.731s.3-1.531,1.387-1.875,1.937-.062,2.187.744S264.363,276.046,263.232,276.4Z" transform="translate(-16.172 -136.952)" fill="#fff"/>
      <path id="Path_64644" data-name="Path 64644" d="M271.934,281.178c.763,2.456,2.5,3.319,4.469,2.706a3.425,3.425,0,0,0,1.587-.925l-.481-.506a2.625,2.625,0,0,1-1.3.775c-1.556.487-2.875-.2-3.481-2.162a5.333,5.333,0,0,1-.156-.625,2.425,2.425,0,0,0,2.6.55,2.289,2.289,0,0,0,1.756-2.925,2.362,2.362,0,0,0-3.125-1.45C271.853,277.209,271.221,278.866,271.934,281.178Zm.575-1.756a1.758,1.758,0,0,1,1.425-2.144,1.654,1.654,0,1,1,.925,3.144,1.749,1.749,0,0,1-2.35-1.025Z" transform="translate(-34.58 -138.266)" fill="#fff"/>
      <path id="Path_64645" data-name="Path 64645" d="M290.05,281.462l2.25,7.231.744-.231L291,281.894l1.706-.531-.206-.662Z" transform="translate(-61.133 -139.85)" fill="#fff"/>
      <path id="Path_64646" data-name="Path 64646" d="M296.237,291.511l.206.662,5.081-1.581-.163-.525-3.919-2.006c-1.069-.55-1.375-.987-1.531-1.487-.256-.831.169-1.531,1.25-1.875a2.581,2.581,0,0,1,2.225.187l.381-.625a3.4,3.4,0,0,0-2.881-.231c-1.462.456-2.162,1.487-1.787,2.694.219.694.625,1.25,1.875,1.875l3.206,1.65Z" transform="translate(-72.708 -141.018)" fill="#fff"/>
      <path id="Path_64647" data-name="Path 64647" d="M306.9,293.095c.375,1.206,1.544,1.875,3.294,1.319a3.956,3.956,0,0,0,2.306-1.737l-.544-.475a3.325,3.325,0,0,1-1.975,1.531c-1.2.375-2.037,0-2.312-.875s.163-1.625,1.5-2.044l.519-.162-.169-.544-2.787-1.875,3.7-1.15-.206-.663-4.65,1.444.163.531,2.85,1.931C307.067,290.882,306.549,291.939,306.9,293.095Z" transform="translate(-90.3 -141.995)" fill="#fff"/>
      <rect id="Rectangle_147503" data-name="Rectangle 147503" width="3.287" height="60.629" transform="translate(217.505 162.413) rotate(-107.29)" fill="#fff"/>
      <rect id="Rectangle_147504" data-name="Rectangle 147504" width="3.287" height="31.099" transform="translate(219.452 168.685) rotate(-107.29)" fill="#fff"/>
      <g id="Group_160274" data-name="Group 160274" transform="translate(296.601 86.241)" opacity="0.5">
        <rect id="Rectangle_147505" data-name="Rectangle 147505" width="25.443" height="19.006" rx="4.96" transform="matrix(-0.955, 0.297, -0.297, -0.955, 29.942, 18.147)" fill="#ebebeb"/>
      </g>
      <path id="Path_64648" data-name="Path 64648" d="M158.889,209.782l-.362-1.162-12.5,3.894a2.744,2.744,0,1,1-1.631-5.237l12.5-3.894-.362-1.162-12.5,3.894a3.962,3.962,0,1,0,2.356,7.562Z" transform="translate(166.093 -110.418)" fill="#e0e0e0"/>
      <rect id="Rectangle_147506" data-name="Rectangle 147506" width="1.214" height="8.96" transform="translate(300.126 104.495) rotate(-107.526)" fill="#e0e0e0"/>
      <rect id="Rectangle_147507" data-name="Rectangle 147507" width="65.429" height="5.612" transform="matrix(-0.955, 0.297, -0.297, -0.955, 315.041, 77.559)" fill="#fff"/>
      <path id="Path_64649" data-name="Path 64649" d="M138.093,386.986A16.593,16.593,0,1,0,156.9,372.993a16.593,16.593,0,0,0-18.806,13.993Z" transform="translate(155.89 -174.395)" fill="#f5f5f5"/>
      <path id="Path_64650" data-name="Path 64650" d="M144.353,389.918a12.65,12.65,0,1,0,14.331-10.668,12.65,12.65,0,0,0-14.331,10.668Z" transform="translate(153.536 -176.758)" fill="#ebebeb"/>
      <path id="Path_64651" data-name="Path 64651" d="M143.966,389.221a7.461,7.461,0,0,0,.55-1.456,13.532,13.532,0,0,1,2-3.625,12.5,12.5,0,0,1,6.4-4.375,11.2,11.2,0,0,1,1.787-.381,12.637,12.637,0,0,1,1.875-.112,14.717,14.717,0,0,1,1.944.188,14.167,14.167,0,0,1,1.875.494,12.353,12.353,0,0,1,1.737.756,12.509,12.509,0,0,1,4.894,4.669,13.025,13.025,0,0,1,1.169,2.594,13.525,13.525,0,0,1,.625,4.087,6.874,6.874,0,0,0,0,1.563,3.894,3.894,0,0,0,.362-1.537,11.912,11.912,0,0,0-.35-4.306,13.244,13.244,0,0,0-1.125-2.8,12.956,12.956,0,0,0-2.075-2.787,11.923,11.923,0,0,0-1.412-1.25,12.737,12.737,0,0,0-1.656-1.069,13.229,13.229,0,0,0-1.875-.825,14.556,14.556,0,0,0-2.037-.537,14.118,14.118,0,0,0-2.1-.2,12.879,12.879,0,0,0-2.037.138,12.126,12.126,0,0,0-1.925.431,12.494,12.494,0,0,0-1.756.687,12.7,12.7,0,0,0-4.925,4.144,11.806,11.806,0,0,0-1.812,3.919A3.712,3.712,0,0,0,143.966,389.221Z" transform="translate(153.985 -176.455)" fill="#e0e0e0"/>
      <path id="Path_64652" data-name="Path 64652" d="M163.58,401.271l.35,2.175-1.944.313-.337-2.119a9.3,9.3,0,0,1-5.081-.775l.687-2.544a7.962,7.962,0,0,0,3.987.775l-.519-3.244c-2.244-.175-4.762-.506-5.206-3.287-.331-2.056.881-4.062,3.894-4.906l-.344-2.156,1.937-.312.344,2.119a8.906,8.906,0,0,1,4.131.556l-.587,2.544a8.063,8.063,0,0,0-3.125-.538l.531,3.306c2.237.156,4.719.5,5.156,3.237C167.768,398.433,166.574,400.414,163.58,401.271ZM160.268,393l-.444-2.762c-.994.4-1.312,1.031-1.206,1.669S159.368,392.865,160.268,393Zm4.087,4.144c-.106-.681-.731-.956-1.612-1.119l.431,2.681C164.112,398.34,164.455,397.764,164.355,397.146Z" transform="translate(148.519 -179.036)" fill="#e0e0e0"/>
    </g>
    <g id="freepik--Plant--inject-34" transform="translate(71.901 206.82)">
      <path id="Path_64653" data-name="Path 64653" d="M575.629,395.774c1.212,1.725,3.569,1.156,4.656.1a8.831,8.831,0,0,0,1.975-4.05c.962-3.331,1.925-6.831,1.212-10.231a5.712,5.712,0,0,0-1.306-2.781,2.981,2.981,0,0,0-2.812-.937,4.339,4.339,0,0,0-2.456,2.587,24.375,24.375,0,0,0-2.412,10.462,8.528,8.528,0,0,0,1.144,4.85" transform="translate(-558.359 -377.816)" fill="#efa00b"/>
      <g id="Group_160275" data-name="Group 160275" transform="translate(16.127)" opacity="0.2">
        <path id="Path_64654" data-name="Path 64654" d="M575.629,395.774c1.212,1.725,3.569,1.156,4.656.1a8.831,8.831,0,0,0,1.975-4.05c.962-3.331,1.925-6.831,1.212-10.231a5.712,5.712,0,0,0-1.306-2.781,2.981,2.981,0,0,0-2.812-.937,4.339,4.339,0,0,0-2.456,2.587,24.375,24.375,0,0,0-2.412,10.462,8.528,8.528,0,0,0,1.144,4.85" transform="translate(-574.485 -377.816)"/>
      </g>
      <path id="Path_64655" data-name="Path 64655" d="M565.91,419.972a10.5,10.5,0,0,1,6.519-.794,5.381,5.381,0,0,1,3.212,1.437,2.318,2.318,0,0,1,.037,3.212,3.087,3.087,0,0,1-2.031.513c-1.719,0-3.631-.325-5,.712-.787.594-1.306,1.575-2.25,1.875a2.225,2.225,0,0,1-2.437-1.087,3.749,3.749,0,0,1-.275-2.8A4.256,4.256,0,0,1,565.91,419.972Z" transform="translate(-544.102 -393.252)" fill="#efa00b"/>
      <path id="Path_64656" data-name="Path 64656" d="M604.629,401.583a6.3,6.3,0,0,0,.975-5.794,11.156,11.156,0,0,0-3.431-5,18.468,18.468,0,0,0-6.143-3.625,6.575,6.575,0,0,0-2.762-.469,2.9,2.9,0,0,0-2.319,1.4c-.625,1.25-.031,2.731.625,3.95a46.111,46.111,0,0,0,4.037,6.15,10.7,10.7,0,0,0,4.437,3.8c1.844.675,3.75.625,4.737-.625" transform="translate(-590.683 -381.143)" fill="#efa00b"/>
      <path id="Path_64657" data-name="Path 64657" d="M573.159,438.777a4.441,4.441,0,0,0,.106-.787c.056-.569.125-1.287.212-2.144a31.331,31.331,0,0,1,.481-3.125,24.67,24.67,0,0,1,1.144-3.712,13.552,13.552,0,0,1,1.875-3.362,6.731,6.731,0,0,1,4.412-2.625,3.5,3.5,0,0,0,.787-.112,4.16,4.16,0,0,0-.8,0,6.186,6.186,0,0,0-2.106.55,7.075,7.075,0,0,0-2.5,2.012,13.529,13.529,0,0,0-1.962,3.425,22.479,22.479,0,0,0-1.137,3.781,27.389,27.389,0,0,0-.419,3.187c-.069.906-.094,1.644-.106,2.156a3.265,3.265,0,0,0,.012.756Z" transform="translate(-555.97 -394.719)" fill="#263238"/>
      <path id="Path_64658" data-name="Path 64658" d="M581.111,424.384a1.494,1.494,0,0,0,0-.362c0-.275,0-.625,0-1.044,0-.906,0-2.219.05-3.837.081-3.237.356-7.7.894-12.612s1.25-9.331,1.919-12.5c.156-.794.313-1.506.456-2.137s.262-1.169.375-1.606.181-.744.244-1.012a1.508,1.508,0,0,0,.062-.362,1.874,1.874,0,0,0-.125.344l-.306,1c-.131.437-.269.975-.425,1.6s-.338,1.331-.506,2.125a119.279,119.279,0,0,0-2.012,12.5c-.544,4.925-.781,9.375-.806,12.643,0,1.625,0,2.937.056,3.844,0,.425.05.769.063,1.044a2.109,2.109,0,0,0,.063.375Z" transform="translate(-563.779 -381.976)" fill="#263238"/>
      <path id="Path_64659" data-name="Path 64659" d="M598.821,417.327a7.643,7.643,0,0,0,0-1.087c-.044-.7-.138-1.712-.338-2.95a39.046,39.046,0,0,0-.956-4.306,38.187,38.187,0,0,0-1.8-5.087,27.051,27.051,0,0,0-5.287-8.231,13.517,13.517,0,0,0-1.25-1.156c-.194-.156-.362-.319-.531-.444l-.488-.337a7.127,7.127,0,0,0-.912-.588,34.1,34.1,0,0,1,3.006,2.687,28.64,28.64,0,0,1,5.15,8.194,40.689,40.689,0,0,1,1.813,5.044c.469,1.581.781,3.037,1.019,4.262s.356,2.231.438,2.925A6.439,6.439,0,0,0,598.821,417.327Z" transform="translate(-581.463 -383.563)" fill="#263238"/>
    </g>
    <g id="freepik--credit-card--inject-34" transform="translate(142.254 24.132)">
      <path id="Path_64660" data-name="Path 64660" d="M282.184,252.383l96.734-102.321a2.694,2.694,0,0,0-.106-3.8l-63.5-60.023a2.687,2.687,0,0,0-3.8.106L214.78,188.673a2.694,2.694,0,0,0,.106,3.8l63.491,60a2.681,2.681,0,0,0,3.806-.087Z" transform="translate(-214.048 -85.504)" fill="#efa00b"/>
      <g id="Group_160276" data-name="Group 160276" opacity="0.3">
        <path id="Path_64661" data-name="Path 64661" d="M282.184,252.383l96.734-102.321a2.694,2.694,0,0,0-.106-3.8l-63.5-60.023a2.687,2.687,0,0,0-3.8.106L214.78,188.673a2.694,2.694,0,0,0,.106,3.8l63.491,60a2.681,2.681,0,0,0,3.806-.087Z" transform="translate(-214.048 -85.504)"/>
      </g>
      <path id="Path_64662" data-name="Path 64662" d="M287.2,188.177,382.519,87.349a3.712,3.712,0,0,1,5.256-.15l18.037,17.056a1.481,1.481,0,0,1,.45,1.325c-1.806,10.087-9.018,19.106-17.618,25.08-10.387,7.219-22.7,11.025-34.374,15.843s-23.443,11.168-30.461,21.7c-6.618,9.943-8.181,22.274-11.55,33.749a66.083,66.083,0,0,1-3.425,9.112,1.494,1.494,0,0,1-2.375.462l-19.118-18.074a3.712,3.712,0,0,1-.144-5.275Z" transform="translate(-285.753 -85.758)" fill="#efa00b"/>
      <path id="Path_64663" data-name="Path 64663" d="M5.687,8c-.862.819-2.012.625-3.25-.706L0,4.712,5,0,7.3,2.437c1.181,1.25,1.25,2.381.494,3.125a1.644,1.644,0,0,1-1.725.375A1.7,1.7,0,0,1,5.687,8ZM5.2,1.969,4.025,3.081,5.1,4.25c.531.562,1.019.681,1.412.313s.294-.856-.238-1.419ZM4.706,6.725c.419-.394.319-.906-.25-1.506L3.206,3.875,1.956,5.037l1.25,1.35c.588.6,1.075.744,1.5.362Z" transform="translate(78.245 48.549) rotate(-90)" fill="#fff"/>
      <path id="Path_64664" data-name="Path 64664" d="M4.794,5.431,2.6,3.112l-1.487.569L0,2.5,7.087,0,8.162,1.144,5.287,8.087,4.137,6.875Zm.531-1.194L6.487,1.644,3.831,2.656Z" transform="translate(85.251 44.018) rotate(-90)" fill="#fff"/>
      <path id="Path_64665" data-name="Path 64665" d="M9.306,4.606l-5,4.712-.881-.962.681-5.344L1.075,5.856,0,4.712,5,0l.906.956L5.219,6.294,8.25,3.431Z" transform="translate(89.139 38.243) rotate(-90)" fill="#fff"/>
      <path id="Path_64666" data-name="Path 64666" d="M3.694,4.681H2.362L1.112,5.875,0,4.719,5,0,6.081,1.15,3.75,3.35H8.168L9.381,4.6l-4.175.037L4.519,9.475,3.269,8.131Z" transform="translate(94.895 32.825) rotate(-90)" fill="#fff"/>
      <path id="Path_64667" data-name="Path 64667" d="M3.769,4.737l-.837-.919L1.681,4.956l-.444-.469L2.444,3.35,0,.769.338.444,5.669,0l.494.525L.994.981,2.869,2.969,3.925,1.962l.431.462-1.056,1,.862.912Z" transform="translate(106.875 61.562) rotate(-90)" fill="#fff"/>
      <path id="Path_64668" data-name="Path 64668" d="M3.894,6.206c-.769.719-1.875.725-2.925-.381A3.281,3.281,0,0,1,0,3.619l.587-.125A2.744,2.744,0,0,0,1.4,5.412c.719.762,1.462.844,2.031.306s.544-1.25-.256-2.094L2.862,3.3l.35-.331L6,2.737,3.787.394,4.206,0,6.987,2.944l-.331.312L3.8,3.5C4.675,4.531,4.625,5.525,3.894,6.206Z" transform="translate(108.663 58.393) rotate(-90)" fill="#fff"/>
      <path id="Path_64669" data-name="Path 64669" d="M3.919,5.831c-.781.737-1.875.769-2.956-.35A3.231,3.231,0,0,1,0,3.281l.587-.125a2.712,2.712,0,0,0,.8,1.875c.731.781,1.5.837,2.056.306s.625-1.25-.487-2.431l-.925-.975L4.531,0,6.9,2.5l-.419.394L4.525.831,2.912,2.05l.556.625C4.775,4,4.725,5.037,3.919,5.831Z" transform="translate(112.731 54.887) rotate(-90)" fill="#fff"/>
      <path id="Path_64670" data-name="Path 64670" d="M3.617,5.364A1.956,1.956,0,0,1,.736,5.133C-.414,3.914-.2,2.458,1.248,1.089,2.8-.38,4.417-.3,5.592.945A2.856,2.856,0,0,1,6.373,2.27l-.562.169a2.137,2.137,0,0,0-.625-1.094C4.254.358,3.023.32,1.779,1.5c-.106.1-.231.231-.356.375a2,2,0,0,1,2.106.656A1.9,1.9,0,0,1,3.617,5.364Zm-.45-.45a1.363,1.363,0,0,0-.1-2.081A1.456,1.456,0,0,0,.954,2.6a1.452,1.452,0,0,0,.163,2.131,1.375,1.375,0,0,0,2.05.181Z" transform="translate(117.185 50.754) rotate(-90)" fill="#fff"/>
      <path id="Path_64671" data-name="Path 64671" d="M316.874,196.74l-.406-2.45,2.5.262.494-.525-3.056-.312-.444-2.875-.5.525.375,2.306-2.325-.244-.481.512,2.894.287.469,3.044Z" transform="translate(-215.72 -125.007)" fill="#fff"/>
      <path id="Path_64672" data-name="Path 64672" d="M322.144,202.33l-.406-2.456,2.5.262.5-.525-3.056-.306-.45-2.875-.494.519.369,2.306-2.319-.238-.487.512,2.9.287.469,3.044Z" transform="translate(-224.29 -127.103)" fill="#fff"/>
      <path id="Path_64673" data-name="Path 64673" d="M327.434,207.91l-.406-2.45,2.5.262.494-.525-3.05-.306-.45-2.881-.494.525.369,2.306-2.325-.237-.481.506,2.9.287.469,3.044Z" transform="translate(-232.879 -129.196)" fill="#fff"/>
      <path id="Path_64674" data-name="Path 64674" d="M332.7,213.46l-.406-2.45,2.5.262.494-.525-3.05-.312-.45-2.875-.494.525.369,2.306-2.325-.244-.481.512,2.9.287.462,3.044Z" transform="translate(-241.443 -131.278)" fill="#fff"/>
      <path id="Path_64675" data-name="Path 64675" d="M350.954,232.79l-.406-2.45,2.5.262.494-.525-3.05-.306-.45-2.881-.494.525.369,2.306-2.325-.244-.481.512,2.9.288.469,3.044Z" transform="translate(-271.099 -138.527)" fill="#fff"/>
      <path id="Path_64676" data-name="Path 64676" d="M356.234,238.38l-.406-2.456,2.5.262.494-.519-3.05-.312-.45-2.875-.494.525.369,2.306-2.325-.244-.481.512,2.9.287.469,3.044Z" transform="translate(-279.679 -140.623)" fill="#fff"/>
      <path id="Path_64677" data-name="Path 64677" d="M361.53,243.97l-.412-2.456,2.5.262.494-.525-3.05-.306-.45-2.875-.494.519.369,2.306-2.325-.237-.481.506,2.9.287.462,3.044Z" transform="translate(-288.275 -142.719)" fill="#fff"/>
      <path id="Path_64678" data-name="Path 64678" d="M366.8,249.55l-.406-2.45,2.5.262.494-.525-3.05-.306-.45-2.881-.5.525.375,2.306-2.325-.244-.481.513,2.9.287.462,3.044Z" transform="translate(-296.855 -144.812)" fill="#fff"/>
      <path id="Path_64679" data-name="Path 64679" d="M382.76,262.56l4.575,4.331.45-.475-4.162-3.931,1.019-1.075-.419-.4Z" transform="translate(-327.623 -151.322)" fill="#fff"/>
      <path id="Path_64680" data-name="Path 64680" d="M388.674,271.276c.762.725,1.875.725,2.925-.381a3.281,3.281,0,0,0,.969-2.206l-.587-.125a2.793,2.793,0,0,1-.812,1.925c-.719.756-1.469.844-2.037.306s-.544-1.25.263-2.1l.306-.325-.344-.325-2.787-.238,2.212-2.337-.419-.4-2.781,2.944.331.319,2.85.244C387.886,269.62,387.93,270.595,388.674,271.276Z" transform="translate(-334.168 -152.845)" fill="#fff"/>
      <path id="Path_64681" data-name="Path 64681" d="M394.916,279.631l.869-.919,1.2,1.137.45-.469-1.206-1.138,2.444-2.581-.344-.325L393,274.9l-.494.519,5.169.456-1.875,1.987-1.056-1-.437.456,1.062,1-.869.919Z" transform="translate(-344.604 -156.531)" fill="#fff"/>
      <path id="Path_64682" data-name="Path 64682" d="M400.381,285.286l.419.394,3.037-3.212-.337-.312-3.662.138a2.087,2.087,0,0,1-1.712-.45c-.531-.506-.506-1.187.156-1.875a2.138,2.138,0,0,1,1.694-.763v-.625a2.825,2.825,0,0,0-2.187,1c-.875.931-.962,1.962-.194,2.687a2.746,2.746,0,0,0,2.137.625l3.006-.106Z" transform="translate(-352.619 -157.911)" fill="#fff"/>
      <path id="Path_64683" data-name="Path 64683" d="M.516.383A1.656,1.656,0,0,1,3.228,1.765L2.6,1.727a.967.967,0,1,0-1.662.531.95.95,0,0,0,.781.3v.625a1.562,1.562,0,0,1-1.25-.537A1.544,1.544,0,0,1,.516.383Z" transform="translate(108.975 81.068) rotate(-90)" fill="#fff"/>
      <path id="Path_64684" data-name="Path 64684" d="M2.075,2.375,1.112,1.362l-.625.25L0,1.094,3.125,0l.469.5L2.344,3.544,1.8,3Zm.231-.519L2.812.719,1.65,1.162Z" transform="translate(111.358 79.634) rotate(-90)" fill="#fff"/>
      <path id="Path_64685" data-name="Path 64685" d="M1.319,3.431l.206-1h0l-.419-.437-.625.575L0,2.062,2.187,0l.894.944a1.117,1.117,0,0,1,.1,1.694.969.969,0,0,1-1.112.206l-.238,1.15Zm1.325-2.15L2.25.869l-.762.719L1.881,2c.287.306.581.325.819.106s.231-.519-.056-.85Z" transform="translate(113.102 77.127) rotate(-90)" fill="#fff"/>
      <path id="Path_64686" data-name="Path 64686" d="M0,1.44l.544-.188A1.737,1.737,0,0,0,1,2.19c.281.3.494.325.625.2C2.031,2,.55,1,1.362.234c.375-.35.962-.344,1.55.275a1.988,1.988,0,0,1,.525.944l-.531.206a1.706,1.706,0,0,0-.4-.769C2.219.59,2,.584,1.881.709c-.4.381,1.075,1.394.275,2.15C1.787,3.2,1.194,3.2.6,2.571A2.181,2.181,0,0,1,0,1.44Z" transform="translate(115.618 74.903) rotate(-90)" fill="#fff"/>
      <path id="Path_64687" data-name="Path 64687" d="M4.081,2,1.894,4.069l-.475-.506.894-.85-.937-.994-.894.85L0,2.062,2.187,0l.475.5L1.8,1.319l.937.994L3.6,1.494Z" transform="translate(118.252 72.234) rotate(-90)" fill="#fff"/>
      <path id="Path_64688" data-name="Path 64688" d="M.485.519a1.65,1.65,0,1,1,0,2.262,1.562,1.562,0,0,1,0-2.262ZM2.26,2.394A.912.912,0,0,0,2.316,1.05.962.962,0,1,0,2.26,2.394Z" transform="translate(121.152 69.369) rotate(-90)" fill="#fff"/>
      <path id="Path_64689" data-name="Path 64689" d="M2.187,0l.475.506L.887,2.194,1.925,3.287l-.413.387L0,2.075Z" transform="translate(123.414 67.353) rotate(-90)" fill="#fff"/>
      <path id="Path_64690" data-name="Path 64690" d="M2.181,0l.937.994A1.506,1.506,0,1,1,.937,3.056L0,2.062ZM1.325,2.637a.937.937,0,1,0,1.356-1.25L2.244.925.894,2.181Z" transform="translate(125.301 65.565) rotate(-90)" fill="#fff"/>
      <path id="Path_64691" data-name="Path 64691" d="M2.006,3.369,1.6,3.756,0,2.062,2.187,0,3.744,1.65l-.4.381L2.256.887l-.475.444L2.737,2.35l-.394.369L1.387,1.706l-.506.475Z" transform="translate(127.864 63.128) rotate(-90)" fill="#fff"/>
      <path id="Path_64692" data-name="Path 64692" d="M1.319,3.431l.206-.994h0L1.106,2l-.625.575L0,2.069,2.187,0l.894.95a1.117,1.117,0,0,1,.1,1.694.969.969,0,0,1-1.112.206L1.831,4Zm1.325-2.15L2.25.869l-.756.725.387.412c.294.306.581.325.819.1S2.931,1.594,2.644,1.281Z" transform="translate(130.001 61.147) rotate(-90)" fill="#fff"/>
      <path id="Path_64693" data-name="Path 64693" d="M.02,3.012l1.162-.075a1.344,1.344,0,0,0,.275,1.219c.369.387.8.375,1.25-.063l2-1.875L3.308.737,4.089,0,6.408,2.45,3.677,5.025A1.869,1.869,0,0,1,.7,4.981,2.331,2.331,0,0,1,.02,3.012Z" transform="translate(114.171 89.316) rotate(-90)" fill="#fff"/>
      <path id="Path_64694" data-name="Path 64694" d="M.25.219A.8.8,0,1,1,.219,1.35.8.8,0,0,1,.25.219Z" transform="translate(120.47 86.209) rotate(-90)" fill="#fff"/>
      <path id="Path_64695" data-name="Path 64695" d="M9.256,6.725l-5.512,2.6L2.756,8.281,4.731,4.662.981,6.4,0,5.362,2.9,0l.956,1.006L1.794,4.756l3.9-1.806.85.9L4.469,7.631,8.381,5.794Z" transform="translate(118.496 84.002) rotate(-90)" fill="#fff"/>
      <path id="Path_64696" data-name="Path 64696" d="M4.1.195A.725.725,0,0,1,5.169.282a.719.719,0,0,1,.05,1.056A.737.737,0,0,1,4.125,1.27.731.731,0,0,1,4.1.195ZM3.231,1.226l.887.937L.881,5.22,0,4.282Z" transform="translate(125.444 78.452) rotate(-90)" fill="#fff"/>
      <path id="Path_64697" data-name="Path 64697" d="M4.462,0,5.35.937.887,5.162,0,4.225Z" transform="translate(127.32 76.746) rotate(-90)" fill="#fff"/>
      <path id="Path_64698" data-name="Path 64698" d="M4.462,0,5.35.937.887,5.156,0,4.219Z" transform="translate(129.127 75.04) rotate(-90)" fill="#fff"/>
      <path id="Path_64699" data-name="Path 64699" d="M4.1.189A.744.744,0,0,1,5.175.277a.731.731,0,0,1,.044,1.062A.806.806,0,0,1,4.1.189ZM3.231,1.227l.887.937L.887,5.221,0,4.283Z" transform="translate(130.868 73.328) rotate(-90)" fill="#fff"/>
      <path id="Path_64700" data-name="Path 64700" d="M4.245,3.912,2.37,5.656l-.831-.875L1.945,4.4A1.462,1.462,0,0,1,.564,3.837,1.434,1.434,0,0,1,.4,1.706c.562-.525,1.344-.512,2.275.469l.706.75c.406-.381.413-.844-.069-1.35A2.131,2.131,0,0,0,2.132.95L2.47,0A3.419,3.419,0,0,1,4.182,1.019,1.8,1.8,0,0,1,4.245,3.912ZM2.539,3.756l.331-.312-.625-.625c-.412-.444-.706-.425-.925-.225s-.2.569.113.9a.956.956,0,0,0,1.106.231Z" transform="translate(134.195 71.316) rotate(-90)" fill="#fff"/>
      <path id="Path_64701" data-name="Path 64701" d="M7,6.75,5.125,8.5l-.881-.937L5.95,5.95c.519-.494.537-.956.181-1.331A1.018,1.018,0,0,0,4.606,4.7L2.987,6.237,2.1,5.3,3.806,3.687c.525-.5.55-.95.181-1.337a1,1,0,0,0-1.519.094L.887,3.994,0,3.056,3.231,0l.85.894-.375.356a1.787,1.787,0,0,1,1.381.625,1.662,1.662,0,0,1,.475,1.569A2.006,2.006,0,0,1,7.2,4.106,1.71,1.71,0,0,1,7,6.75Z" transform="translate(137.607 68.097) rotate(-90)" fill="#fff"/>
      <path id="Path_64702" data-name="Path 64702" d="M0,2.1l.969-.325a2.994,2.994,0,0,0,.75,1.419c.406.431.675.487.856.319C3.1,3.009.7,1.565,2.006.34c.625-.575,1.569-.431,2.462.512a3.681,3.681,0,0,1,.894,1.512L4.4,2.684a2.5,2.5,0,0,0-.625-1.162c-.394-.419-.7-.475-.869-.319-.55.525,1.831,1.975.556,3.175-.625.569-1.556.419-2.5-.55A3.781,3.781,0,0,1,0,2.1Z" transform="translate(144.274 62.153) rotate(-90)" fill="#fff"/>
      <path id="Path_64703" data-name="Path 64703" d="M352.561,287.444c-1.387-1.312-2.9-1.287-3.881-.256s-.919,2.55.475,3.862,2.894,1.294,3.881.256S353.949,288.757,352.561,287.444Zm-2.5,2.625c-.956-.9-1.037-1.612-.575-2.1s1.169-.444,2.125.462,1.037,1.612.581,2.094-1.156.45-2.112-.456Z" transform="translate(-271.826 -160.857)" fill="#fff"/>
      <path id="Path_64704" data-name="Path 64704" d="M356.636,298.244a1.987,1.987,0,0,0,2.906-.269c1.094-1.162,1.05-2.575-.306-3.856a2.829,2.829,0,0,0-4.294,0,3.125,3.125,0,0,0-.825,1.45l1.056.313a1.95,1.95,0,0,1,.538-.987,1.537,1.537,0,0,1,2.337-.031,2,2,0,0,0-1.356.687,1.875,1.875,0,0,0-.056,2.694Zm.937-.9a.875.875,0,0,1,.05-1.312.906.906,0,0,1,1.319-.131.894.894,0,0,1-.075,1.331.875.875,0,0,1-1.306.113Z" transform="translate(-282.25 -163.37)" fill="#fff"/>
      <path id="Path_64705" data-name="Path 64705" d="M357.734,298.8l-.794.831,7.543,3.375.787-.837Z" transform="translate(-288.972 -165.495)" fill="#fff"/>
      <path id="Path_64706" data-name="Path 64706" d="M364.6,308l.794.75,3.019-3.181-.625-.594-3.069.175a1.462,1.462,0,0,1-1.194-.294c-.331-.312-.306-.725.119-1.169a1.406,1.406,0,0,1,1.25-.475l.213-1.144a2.694,2.694,0,0,0-2.362.931c-.887.944-.994,2.019-.231,2.744a2.294,2.294,0,0,0,1.994.55l1.825-.106Z" transform="translate(-295.273 -166.714)" fill="#fff"/>
      <path id="Path_64707" data-name="Path 64707" d="M371.236,315.1l.625-.681.881.831.9-.95-.887-.831L374.9,311.2l-.656-.625-4.544-.537-.969,1.019,4.275.55-1.069,1.131-.787-.744-.869.919.788.744-.625.687Z" transform="translate(-305.968 -169.71)" fill="#fff"/>
      <path id="Path_64708" data-name="Path 64708" d="M384.279,226.338a9.047,9.047,0,0,1,1.744-11.462,11.324,11.324,0,0,1,3.319-2.175c3.044-1.25,7.075-.344,8.675,2.544,1.306,2.356.781,5.3-.138,7.831-.956,2.656-2.5,5.369-5.131,6.4a6.976,6.976,0,0,1-7.462-1.875,7.878,7.878,0,0,1-1.006-1.262Z" transform="translate(-338.754 -133)" fill="#efa00b"/>
    </g>
    <g id="freepik--Wallet--inject-34" transform="translate(118.843 118.806)">
      <rect id="Rectangle_147508" data-name="Rectangle 147508" width="181.625" height="131.814" rx="17.44" transform="translate(0.069 0.17)" fill="#efa00b"/>
      <path id="Path_64709" data-name="Path 64709" d="M225.507,248.058v-.394a8.826,8.826,0,0,1,.112-1.169,10.664,10.664,0,0,1,1.6-4.269,11.371,11.371,0,0,1,2.225-2.531,11.026,11.026,0,0,1,3.556-1.95c.35-.119.719-.187,1.087-.294a9.705,9.705,0,0,1,1.156-.181l1.206-.056h6.737l65.166.05H394.87a17.256,17.256,0,0,1,3.319.187,10.662,10.662,0,0,1,5.787,3.125,10.481,10.481,0,0,1,1.919,2.756,10.185,10.185,0,0,1,.975,3.231,27.2,27.2,0,0,1,.106,3.437V358.01a10.819,10.819,0,0,1-2.675,7.106,10.624,10.624,0,0,1-6.619,3.569,32.825,32.825,0,0,1-3.85.106H237.319a15.21,15.21,0,0,1-2.931-.194,10.755,10.755,0,0,1-2.744-.925,11.714,11.714,0,0,1-1.25-.712,13,13,0,0,1-1.125-.888,10.669,10.669,0,0,1-3.606-7.425c-.062-7.5,0-14.712-.038-21.587,0-27.5-.044-49.773-.056-65.16,0-7.693,0-13.662-.031-17.718v0c0,4.056,0,10-.031,17.718,0,15.387,0,37.649-.05,65.16,0,6.875-.044,14.081,0,21.6a10.955,10.955,0,0,0,1.775,5.406,11.193,11.193,0,0,0,1.875,2.2,12.494,12.494,0,0,0,1.156.906,12.329,12.329,0,0,0,1.25.731,10.777,10.777,0,0,0,2.806.95,14.915,14.915,0,0,0,2.981.2H393.857a32.557,32.557,0,0,0,3.894-.112,10.9,10.9,0,0,0,6.818-3.669,11.149,11.149,0,0,0,2.75-7.294c0-20.993,0-41.48,0-61.248V250.014a27.044,27.044,0,0,0-.112-3.481,10.425,10.425,0,0,0-1.006-3.319,10.656,10.656,0,0,0-1.975-2.837A11.567,11.567,0,0,0,401.5,238.3a11.248,11.248,0,0,0-3.225-1.125l-.844-.131-.844-.044c-.569-.031-1.125,0-1.681,0H308.391l-65.166.056h-6.706l-1.219.063c-.394.069-.787.112-1.162.194a8.788,8.788,0,0,0-1.094.3,11.062,11.062,0,0,0-3.581,1.975,11.337,11.337,0,0,0-2.231,2.556,10.625,10.625,0,0,0-1.575,4.3,7.559,7.559,0,0,0-.1,1.175A3.136,3.136,0,0,0,225.507,248.058Z" transform="translate(-225.438 -236.988)" fill="#263238"/>
      <path id="Path_64710" data-name="Path 64710" d="M509.94,250.163a10.9,10.9,0,0,0-3.75,0,10.9,10.9,0,0,0,3.75,0Z" transform="translate(-503.508 -241.868)" fill="#263238"/>
      <path id="Path_64711" data-name="Path 64711" d="M489.36,250.162a45.1,45.1,0,0,0-7.65,0A45.1,45.1,0,0,0,489.36,250.162Z" transform="translate(-467.629 -241.868)" fill="#263238"/>
      <path id="Path_64712" data-name="Path 64712" d="M464.883,250.162a44.994,44.994,0,0,0-7.643,0A45,45,0,0,0,464.883,250.162Z" transform="translate(-427.859 -241.868)" fill="#263238"/>
      <path id="Path_64713" data-name="Path 64713" d="M440.41,250.162a45.1,45.1,0,0,0-7.65,0A45.1,45.1,0,0,0,440.41,250.162Z" transform="translate(-388.086 -241.868)" fill="#263238"/>
      <path id="Path_64714" data-name="Path 64714" d="M415.934,250.162a45,45,0,0,0-7.644,0,45,45,0,0,0,7.643,0Z" transform="translate(-348.317 -241.868)" fill="#263238"/>
      <path id="Path_64715" data-name="Path 64715" d="M391.46,250.162a45.1,45.1,0,0,0-7.65,0A45.1,45.1,0,0,0,391.46,250.162Z" transform="translate(-308.543 -241.868)" fill="#263238"/>
      <path id="Path_64716" data-name="Path 64716" d="M366.983,250.162a45,45,0,0,0-7.643,0A45,45,0,0,0,366.983,250.162Z" transform="translate(-268.774 -241.868)" fill="#263238"/>
      <path id="Path_64717" data-name="Path 64717" d="M342.51,250.162a45.1,45.1,0,0,0-7.65,0A45.1,45.1,0,0,0,342.51,250.162Z" transform="translate(-229.001 -241.868)" fill="#263238"/>
      <path id="Path_64718" data-name="Path 64718" d="M318.03,250.162a45.1,45.1,0,0,0-7.65,0A45.1,45.1,0,0,0,318.03,250.162Z" transform="translate(-189.221 -241.868)" fill="#263238"/>
      <path id="Path_64719" data-name="Path 64719" d="M293.541,250.151a44.873,44.873,0,0,0-7.631,0,44.881,44.881,0,0,0,7.631,0Z" transform="translate(-149.439 -241.856)" fill="#263238"/>
      <path id="Path_64720" data-name="Path 64720" d="M269.08,250.151a45.1,45.1,0,0,0-7.65,0,45.106,45.106,0,0,0,7.65,0Z" transform="translate(-109.679 -241.856)" fill="#263238"/>
      <path id="Path_64721" data-name="Path 64721" d="M246.655,253.912a21.246,21.246,0,0,0,.163-3.75l-.163-.163H245.2l-1.194.038a4.007,4.007,0,0,0-1.1.112,3.835,3.835,0,0,0,1.1.119l1.194.031h1.456l-.162-.163A22.011,22.011,0,0,0,246.655,253.912Z" transform="translate(-75.861 -241.868)" fill="#263238"/>
      <path id="Path_64722" data-name="Path 64722" d="M243.088,274.486a37.843,37.843,0,0,0,0-7.006,37.848,37.848,0,0,0,0,7.006Z" transform="translate(-72.293 -248.423)" fill="#263238"/>
      <path id="Path_64723" data-name="Path 64723" d="M243.1,296.916a37.845,37.845,0,0,0,0-7.006A37.842,37.842,0,0,0,243.1,296.916Z" transform="translate(-72.308 -256.835)" fill="#263238"/>
      <path id="Path_64724" data-name="Path 64724" d="M243.1,319.342a37.9,37.9,0,0,0,0-7.012,37.9,37.9,0,0,0,0,7.012Z" transform="translate(-72.308 -265.243)" fill="#263238"/>
      <path id="Path_64725" data-name="Path 64725" d="M243.1,341.792a37.9,37.9,0,0,0,0-7.012,37.9,37.9,0,0,0,0,7.012Z" transform="translate(-72.308 -273.662)" fill="#263238"/>
      <path id="Path_64726" data-name="Path 64726" d="M243.1,364.2a37.841,37.841,0,0,0,0-7.006,37.845,37.845,0,0,0,0,7.006Z" transform="translate(-72.308 -282.066)" fill="#263238"/>
      <path id="Path_64727" data-name="Path 64727" d="M243.1,386.626a37.841,37.841,0,0,0,0-7.006,37.845,37.845,0,0,0,0,7.006Z" transform="translate(-72.308 -290.478)" fill="#263238"/>
      <path id="Path_64728" data-name="Path 64728" d="M243.1,409.056a37.841,37.841,0,0,0,0-7.006,37.845,37.845,0,0,0,0,7.006Z" transform="translate(-72.308 -298.89)" fill="#263238"/>
      <path id="Path_64729" data-name="Path 64729" d="M242.914,428.234a22.074,22.074,0,0,0,3.75.163c.325-.325.094-.094.162-.169h0v-2.644a3.521,3.521,0,0,0-.119-1.094,3.939,3.939,0,0,0-.112,1.094c0,.387,0,.781-.038,1.194v1.45h0c.075-.069-.162.169.163-.156A21.327,21.327,0,0,0,242.914,428.234Z" transform="translate(-75.869 -307.305)" fill="#263238"/>
      <path id="Path_64730" data-name="Path 64730" d="M261.32,430.37a43.362,43.362,0,0,0,7.5,0,43.338,43.338,0,0,0-7.5,0Z" transform="translate(-109.35 -309.442)" fill="#263238"/>
      <path id="Path_64731" data-name="Path 64731" d="M285.44,430.37a43.362,43.362,0,0,0,7.5,0,43.337,43.337,0,0,0-7.5,0Z" transform="translate(-148.544 -309.442)" fill="#263238"/>
      <path id="Path_64732" data-name="Path 64732" d="M309.5,430.382a43.785,43.785,0,0,0,7.537,0,43.78,43.78,0,0,0-7.537,0Z" transform="translate(-187.679 -309.454)" fill="#263238"/>
      <path id="Path_64733" data-name="Path 64733" d="M333.62,430.382a43.785,43.785,0,0,0,7.537,0A43.779,43.779,0,0,0,333.62,430.382Z" transform="translate(-226.873 -309.454)" fill="#263238"/>
      <path id="Path_64734" data-name="Path 64734" d="M357.74,430.382a43.785,43.785,0,0,0,7.537,0,43.78,43.78,0,0,0-7.537,0Z" transform="translate(-266.068 -309.454)" fill="#263238"/>
      <path id="Path_64735" data-name="Path 64735" d="M381.86,430.382a43.786,43.786,0,0,0,7.537,0A43.78,43.78,0,0,0,381.86,430.382Z" transform="translate(-305.262 -309.454)" fill="#263238"/>
      <path id="Path_64736" data-name="Path 64736" d="M405.94,430.382a43.785,43.785,0,0,0,7.537,0,43.78,43.78,0,0,0-7.537,0Z" transform="translate(-344.392 -309.454)" fill="#263238"/>
      <path id="Path_64737" data-name="Path 64737" d="M430.1,430.382a43.786,43.786,0,0,0,7.537,0A43.78,43.78,0,0,0,430.1,430.382Z" transform="translate(-383.651 -309.454)" fill="#263238"/>
      <path id="Path_64738" data-name="Path 64738" d="M454.22,430.382a43.786,43.786,0,0,0,7.537,0A43.78,43.78,0,0,0,454.22,430.382Z" transform="translate(-422.846 -309.454)" fill="#263238"/>
      <path id="Path_64739" data-name="Path 64739" d="M478.35,430.382a43.785,43.785,0,0,0,7.537,0A43.779,43.779,0,0,0,478.35,430.382Z" transform="translate(-462.056 -309.454)" fill="#263238"/>
      <path id="Path_64740" data-name="Path 64740" d="M502.47,430.383a10.9,10.9,0,0,0,3.75,0A10.9,10.9,0,0,0,502.47,430.383Z" transform="translate(-497.463 -309.454)" fill="#263238"/>
      <g id="Group_160277" data-name="Group 160277" transform="translate(119.046 73.28)" opacity="0.3">
        <path id="Path_64741" data-name="Path 64741" d="M225.68,354.24s-.037,6.25,1.875,10,2.5,5.237,6.5,6.687,54.323,6.981,54.323,6.981V360.927Z" transform="translate(-225.68 -354.24)"/>
      </g>
      <g id="Group_160278" data-name="Group 160278" transform="translate(119.925 34.938)" opacity="0.3">
        <path id="Path_64742" data-name="Path 64742" d="M225.763,307.671s-.575-6.381,15.431-8.75c18.306-2.706,46.336-6.031,46.336-6.031v12.068Z" transform="translate(-225.76 -292.89)"/>
      </g>
      <rect id="Rectangle_147509" data-name="Rectangle 147509" width="69.954" height="41.199" rx="14.31" transform="translate(119.021 43.931)" fill="#efa00b"/>
      <path id="Path_64743" data-name="Path 64743" d="M275.193,348.384h.531a8.087,8.087,0,0,0,1.556-.212,8.619,8.619,0,0,0,2.381-.925,8.856,8.856,0,0,0,2.631-2.269,8.969,8.969,0,0,0,1.781-3.969,13.019,13.019,0,0,0,.15-2.5V315.835a9.05,9.05,0,0,0-3.587-6.937,8.837,8.837,0,0,0-3.869-1.7,11.406,11.406,0,0,0-2.162-.15H223.082a9.108,9.108,0,0,0-9.062,8.218c-.069.881-.044,1.737-.05,2.594v19.818c0,.8-.031,1.575,0,2.375a9.37,9.37,0,0,0,.144,1.181,11.768,11.768,0,0,0,.313,1.137,9.106,9.106,0,0,0,6.606,5.894,10.812,10.812,0,0,0,1.094.194c.369.031.737.044,1.106.056h21.655l22.174-.056,6.031-.031h0l-6.031-.031-22.174-.05H225.382a18.519,18.519,0,0,1-4.281-.25,8.818,8.818,0,0,1-6.3-5.737,13.073,13.073,0,0,1-.462-4.6V317.941c0-.856,0-1.725.044-2.562A8.793,8.793,0,0,1,216.3,310.7a9.7,9.7,0,0,1,1.875-1.744,9.5,9.5,0,0,1,2.344-1.119,9.736,9.736,0,0,1,2.581-.387h51.523a11.315,11.315,0,0,1,2.119.144,8.6,8.6,0,0,1,3.75,1.637,8.8,8.8,0,0,1,3.5,6.731c.031,2.544,0,5,0,7.344v15.324a13.2,13.2,0,0,1-.138,2.469,8.937,8.937,0,0,1-6.65,7.125,8.478,8.478,0,0,1-1.544.237Z" transform="translate(-95.161 -263.26)" fill="#263238"/>
      <ellipse id="Ellipse_1941" data-name="Ellipse 1941" cx="14.974" cy="14.974" rx="14.974" ry="14.974" transform="translate(125.121 51.106)" fill="#263238"/>
      <path id="Path_64744" data-name="Path 64744" d="M307.519,349.1a15.838,15.838,0,0,1-3.575-1.875,12.938,12.938,0,0,1-3.025-3.125,11.737,11.737,0,0,1-1.619-10.181,12.717,12.717,0,0,1,1.912-3.906,15.489,15.489,0,0,1,2.812-2.887,1.5,1.5,0,0,0-.244.137,7.505,7.505,0,0,0-.669.469,11.4,11.4,0,0,0-2.087,2.144,12.667,12.667,0,0,0-2.012,3.956,11.768,11.768,0,0,0,1.662,10.437A12.655,12.655,0,0,0,303.8,347.4a11.081,11.081,0,0,0,2.65,1.381,6.621,6.621,0,0,0,.775.244A.787.787,0,0,0,307.519,349.1Z" transform="translate(-171.261 -270.793)" fill="#fafafa"/>
    </g>
    <g id="freepik--Money--inject-34" transform="translate(27.544 14.98)">
      <g id="Group_160400" data-name="Group 160400" transform="translate(0 55.117)">
        <path id="Path_64745" data-name="Path 64745" d="M579.187,174.071a27.668,27.668,0,1,0,30-25,27.668,27.668,0,0,0-30,25Z" transform="translate(-579.068 -148.959)" fill="#efa00b"/>
        <g id="Group_160279" data-name="Group 160279" transform="translate(6.672 5.655)" opacity="0.3">
          <path id="Path_64746" data-name="Path 64746" d="M589.174,177.377a13.184,13.184,0,0,0,.775-2.5,22.5,22.5,0,0,1,3-6.219,21.515,21.515,0,0,1,3.125-3.569,21.024,21.024,0,0,1,4.437-3.125A19.6,19.6,0,0,1,603.2,160.8a20.373,20.373,0,0,1,2.944-.794,20.678,20.678,0,0,1,3.125-.356,21.872,21.872,0,0,1,3.25.131,23.212,23.212,0,0,1,3.187.625,20.918,20.918,0,0,1,2.962,1.1,20.516,20.516,0,0,1,5,3.25,21.086,21.086,0,0,1,3.575,4.069,21.5,21.5,0,0,1,2.175,4.212,22.217,22.217,0,0,1,1.425,6.75,12.293,12.293,0,0,0,.169,2.594c.131.019.356-.894.462-2.594a19.554,19.554,0,0,0-.975-7.131,21.05,21.05,0,0,0-5.837-9,21.392,21.392,0,0,0-8.512-4.787,23.124,23.124,0,0,0-3.437-.706,23.671,23.671,0,0,0-3.506-.137,22.3,22.3,0,0,0-3.387.412,21.6,21.6,0,0,0-6.025,2.2,21.137,21.137,0,0,0-7.818,7.35,19.484,19.484,0,0,0-2.65,6.694C589.061,176.439,589.061,177.377,589.174,177.377Z" transform="translate(-589.102 -158.007)"/>
        </g>
        <g id="Group_160280" data-name="Group 160280" transform="translate(17.268 12.888)" opacity="0.3">
          <path id="Path_64747" data-name="Path 64747" d="M621.318,196.579l.381,3.65-3.262.344-.369-3.556a15.572,15.572,0,0,1-8.387-1.762l1.375-4.169a13.23,13.23,0,0,0,6.562,1.656l-.569-5.444c-3.706-.506-7.875-1.287-8.362-5.956-.363-3.456,1.844-6.681,6.931-7.806l-.375-3.619,3.262-.337.369,3.55a14.913,14.913,0,0,1,6.825,1.3l-1.206,4.162a13.456,13.456,0,0,0-5.162-1.175l.575,5.544c3.706.469,7.812,1.25,8.287,5.862C628.549,192.235,626.368,195.429,621.318,196.579ZM616.562,182.5l-.487-4.631c-1.681.569-2.269,1.587-2.156,2.662S615.074,182.2,616.562,182.5Zm6.425,7.275c-.119-1.144-1.131-1.662-2.581-2.006l.469,4.5C622.468,191.748,623.093,190.823,622.987,189.779Z" transform="translate(-608.649 -169.58)"/>
        </g>
        <path id="Path_64748" data-name="Path 64748" d="M631.833,193.849a.775.775,0,0,0-.044.169,3.334,3.334,0,0,1-.087.494c-.038.2-.075.494-.125.8a9.044,9.044,0,0,1-.219,1.087,21.325,21.325,0,0,1-5.7,10.287l-.987.9c-.169.144-.325.306-.506.45l-.556.412c-.375.275-.744.581-1.144.837l-1.25.756a21.356,21.356,0,0,1-5.719,2.219,20.887,20.887,0,0,1-12.956-1.194,21.337,21.337,0,0,1-5.218-3.225l-1.087-.969c-.35-.325-.625-.694-.969-1.031-.156-.169-.319-.337-.469-.506s-.281-.363-.425-.538c-.269-.363-.537-.712-.806-1.062a22.149,22.149,0,0,1-2.269-4.287,21.247,21.247,0,0,1-1.456-6.875,8.3,8.3,0,0,1,0-1.106v-1.312a1,1,0,0,0,0-.175.7.7,0,0,0,0,.169,2.572,2.572,0,0,1-.038.5c-.037.2,0,.5-.044.819a7.111,7.111,0,0,0,0,1.112,20.569,20.569,0,0,0,1.369,6.943,21.4,21.4,0,0,0,2.262,4.375l.781,1.094c.144.181.275.375.425.55l.475.519c.319.344.625.712.981,1.044l1.094.994a21.6,21.6,0,0,0,5.287,3.287,21.086,21.086,0,0,0,13.125,1.212,21.418,21.418,0,0,0,5.8-2.275l1.25-.769c.406-.262.775-.575,1.156-.85l.556-.425c.181-.144.344-.312.519-.463l1.012-.95a21.915,21.915,0,0,0,3.019-3.875,20.628,20.628,0,0,0,2.612-6.581,7.577,7.577,0,0,0,.188-1.094c.038-.312.069-.587.1-.812s.037-.369.056-.5a.846.846,0,0,0,.006-.156Z" transform="translate(-583.166 -164.343)" fill="#263238"/>
      </g>
      <g id="Group_160399" data-name="Group 160399" transform="translate(289.839)">
        <path id="Path_64749" data-name="Path 64749" d="M557.676,305.831a16.074,16.074,0,1,0,7.5-21.424A16.074,16.074,0,0,0,557.676,305.831Z" transform="translate(-556.083 -282.802)" fill="#efa00b"/>
        <g id="Group_160281" data-name="Group 160281" transform="translate(3.458 3.358)" opacity="0.3">
          <path id="Path_64750" data-name="Path 64750" d="M565.321,305.84a7.141,7.141,0,0,0-.35-1.469,13.125,13.125,0,0,1-.356-3.994,12.936,12.936,0,0,1,.494-2.712A12.368,12.368,0,0,1,566.4,294.8a11.934,11.934,0,0,1,5.369-4.669,12.6,12.6,0,0,1,1.781-.625,12.207,12.207,0,0,1,1.806-.331,11.256,11.256,0,0,1,1.769-.063,11.416,11.416,0,0,1,1.694.194,12.009,12.009,0,0,1,2.994.962,12.8,12.8,0,0,1,2.344,1.45,13.048,13.048,0,0,1,2.719,2.95,7.63,7.63,0,0,0,.856,1.25,3.568,3.568,0,0,0-.544-1.431,11.25,11.25,0,0,0-2.625-3.294,12.118,12.118,0,0,0-2.419-1.637,12.466,12.466,0,0,0-8.868-.969,13.817,13.817,0,0,0-1.925.675,13.356,13.356,0,0,0-1.794.975A12.537,12.537,0,0,0,568,291.447a11.448,11.448,0,0,0-1.312,1.394,11.7,11.7,0,0,0-1.037,1.5,12.538,12.538,0,0,0-1.306,3.125,12.377,12.377,0,0,0-.406,2.887,11.338,11.338,0,0,0,.669,4.131,3.75,3.75,0,0,0,.719,1.356Z" transform="translate(-563.93 -288.175)"/>
        </g>
        <g id="Group_160282" data-name="Group 160282" transform="translate(9.186 8.142)" opacity="0.3">
          <path id="Path_64751" data-name="Path 64751" d="M575.542,310.936l-.894,1.931-1.731-.8.875-1.875a9.075,9.075,0,0,1-3.662-3.381l1.931-1.669a7.712,7.712,0,0,0,2.781,2.787l1.344-2.887c-1.706-1.356-3.55-2.994-2.4-5.462.85-1.831,2.906-2.787,5.781-1.831l.894-1.919,1.725.806-.875,1.875a8.618,8.618,0,0,1,3.019,2.681l-1.875,1.725a7.836,7.836,0,0,0-2.225-2.125l-1.362,2.937c1.706,1.337,3.519,2.956,2.387,5.394C580.448,310.936,578.411,311.855,575.542,310.936Zm1.819-8.444,1.144-2.45c-1.012-.219-1.612.113-1.875.681s.088,1.163.731,1.756Zm1.044,5.55c.275-.625-.069-1.169-.694-1.775l-1.106,2.387c.944.2,1.569-.075,1.8-.625Z" transform="translate(-570.13 -295.83)"/>
        </g>
        <path id="Path_64752" data-name="Path 64752" d="M584.119,300s.188.506.494,1.425a12.282,12.282,0,0,1,.575,4.025,12.77,12.77,0,0,1-.381,2.781,13.192,13.192,0,0,1-1.194,3.019,12.5,12.5,0,0,1-2.187,2.794,12.031,12.031,0,0,1-6.781,3.25,12.412,12.412,0,0,1-3.544-.05,12.137,12.137,0,0,1-5.487-2.369,12.5,12.5,0,0,1-2.781-2.969c-.519-.812-.762-1.3-.794-1.281a1.584,1.584,0,0,0,.156.356,10.068,10.068,0,0,0,.531.987,12.207,12.207,0,0,0,8.325,5.587,12.375,12.375,0,0,0,3.637.069,12.267,12.267,0,0,0,6.956-3.331,12.565,12.565,0,0,0,2.225-2.875,13.086,13.086,0,0,0,1.25-3.062,12.771,12.771,0,0,0,.344-2.844,11.718,11.718,0,0,0-.681-4.069,8.165,8.165,0,0,0-.437-1.031A1.954,1.954,0,0,0,584.119,300Z" transform="translate(-557.021 -289.251)" fill="#263238"/>
      </g>
      <g id="Group_160401" data-name="Group 160401" transform="translate(298.93 135)">
        <path id="Path_64753" data-name="Path 64753" d="M97.176,302.552a26.249,26.249,0,1,0,29.73-22.131,26.249,26.249,0,0,0-29.73,22.131Z" transform="translate(-96.892 -280.141)" fill="#efa00b"/>
        <g id="Group_160283" data-name="Group 160283" transform="translate(6.511 5.429)" opacity="0.3">
          <path id="Path_64754" data-name="Path 64754" d="M106.449,306.072a12.458,12.458,0,0,0,.869-2.3,21.049,21.049,0,0,1,3.162-5.737,20.735,20.735,0,0,1,3.125-3.212,19.856,19.856,0,0,1,4.375-2.7,18.179,18.179,0,0,1,2.606-.962,18.637,18.637,0,0,1,2.831-.625,19.617,19.617,0,0,1,2.987-.175,21.415,21.415,0,0,1,3.069.3,20.919,20.919,0,0,1,2.987.775,20.5,20.5,0,0,1,2.75,1.194,18.681,18.681,0,0,1,2.45,1.544,19.248,19.248,0,0,1,2.119,1.8,19.874,19.874,0,0,1,5,8.125,21.056,21.056,0,0,1,.994,6.475,16.71,16.71,0,0,0,0,2.456,5.677,5.677,0,0,0,.569-2.425,18.25,18.25,0,0,0-.55-6.806,20.073,20.073,0,0,0-1.775-4.425,20.625,20.625,0,0,0-3.275-4.406,19.5,19.5,0,0,0-2.237-1.975,20,20,0,0,0-2.619-1.694,20.627,20.627,0,0,0-9.493-2.469,21.128,21.128,0,0,0-3.225.213,19.245,19.245,0,0,0-3.044.687,20.2,20.2,0,0,0-10.568,7.631,18.668,18.668,0,0,0-2.862,6.206A6.389,6.389,0,0,0,106.449,306.072Z" transform="translate(-106.401 -288.828)"/>
        </g>
        <g id="Group_160284" data-name="Group 160284" transform="translate(16.109 12.23)" opacity="0.3">
          <path id="Path_64755" data-name="Path 64755" d="M137.516,325.128l.55,3.437-3.069.494-.537-3.35a14.577,14.577,0,0,1-8.037-1.25l1.087-4.019a12.5,12.5,0,0,0,6.306,1.25L133,316.566c-3.544-.281-7.531-.812-8.237-5.2-.519-3.256,1.4-6.431,6.162-7.756l-.55-3.412,3.075-.487.531,3.344a14.173,14.173,0,0,1,6.537.875l-.931,4.025a12.738,12.738,0,0,0-4.956-.844l.837,5.219c3.537.25,7.462.787,8.156,5.119C144.135,320.634,142.241,323.772,137.516,325.128Zm-5.244-13.081-.7-4.375c-1.569.625-2.069,1.625-1.906,2.637S130.854,311.835,132.273,312.047Zm6.469,6.556c-.175-1.075-1.156-1.519-2.55-1.769l.675,4.237C138.348,320.516,138.9,319.584,138.741,318.6Z" transform="translate(-124.678 -299.71)"/>
        </g>
        <path id="Path_64756" data-name="Path 64756" d="M147.06,323.171a1.006,1.006,0,0,0-.044.156c-.031.119-.069.275-.113.462l-.162.75a8.8,8.8,0,0,1-.262,1.019,20.138,20.138,0,0,1-2.881,6A20.625,20.625,0,0,1,140.541,335l-.981.8c-.169.131-.331.275-.506.4l-.55.362c-.369.237-.731.506-1.125.731l-1.212.625a20.381,20.381,0,0,1-5.531,1.806,21.493,21.493,0,0,1-6.25.069,21.711,21.711,0,0,1-5.962-1.875,20.457,20.457,0,0,1-4.769-3.325l-.975-.981c-.319-.325-.581-.687-.869-1.019l-.419-.506c-.138-.175-.25-.356-.369-.531-.244-.356-.475-.706-.712-1.05a21.25,21.25,0,0,1-1.925-4.175,20.1,20.1,0,0,1-1.019-6.581,6.875,6.875,0,0,1,.044-1.05c0-.294.044-.55.056-.769a3.038,3.038,0,0,1,.031-.475.536.536,0,0,0,0-.163.513.513,0,0,0-.031.163,4.461,4.461,0,0,1-.063.469c-.025.188-.056.475-.094.769a7.5,7.5,0,0,0-.069,1.056,19.374,19.374,0,0,0,.925,6.65,20.475,20.475,0,0,0,1.919,4.25l.706,1.063c.125.181.237.369.375.544l.419.512c.288.344.556.713.875,1.044s.625.662.987.994a20.5,20.5,0,0,0,4.837,3.4,20,20,0,0,0,12.393,1.831,20.567,20.567,0,0,0,5.625-1.875l1.25-.669c.4-.225.762-.5,1.137-.744l.556-.369c.175-.131.337-.281.512-.412l.987-.813a20.727,20.727,0,0,0,3.062-3.512,19.511,19.511,0,0,0,2.812-6.1,6.457,6.457,0,0,0,.237-1.031c.05-.294.094-.544.138-.762l.075-.469A.625.625,0,0,0,147.06,323.171Z" transform="translate(-101.033 -294.073)" fill="#263238"/>
      </g>
    </g>
    <g id="freepik--Floor--inject-34" transform="translate(22.358 250.646)">
      <path id="Path_64757" data-name="Path 64757" d="M41.53,448.1c0,.094,88.053.169,196.647.169s196.671-.075,196.671-.169-88.036-.163-196.671-.163S41.53,448.015,41.53,448.1Z" transform="translate(-41.53 -447.94)" fill="#263238"/>
    </g>
    <g id="freepik--Character--inject-34" transform="translate(92.577 13.706)">
      <path id="Path_64758" data-name="Path 64758" d="M537.387,257.824a32.874,32.874,0,0,1,.225-4.194l8.525,1.906c.094.537,1.169,7.362.987,8.025l-9.618,2.669S537.387,258.067,537.387,257.824Z" transform="translate(-533.945 -138.129)" fill="#ffbe9d"/>
      <path id="Path_64759" data-name="Path 64759" d="M549.122,269.537a.413.413,0,0,1-.037-.187c-.1-.931-.044-5,.456-5.169s1.944.119,2.037.656-.231,5.112-.231,5.112-.094.719-1.306.894C549.278,270.925,549.122,269.537,549.122,269.537Z" transform="translate(-545.679 -142.068)" fill="#ffbe9d"/>
      <path id="Path_64760" data-name="Path 64760" d="M545.242,271.872a.414.414,0,0,1-.037-.187c-.1-.931-.044-5,.456-5.175s1.944.125,2.037.662-.231,5.112-.231,5.112-.094.719-1.306.894C545.41,273.285,545.242,271.872,545.242,271.872Z" transform="translate(-539.374 -142.941)" fill="#ffbe9d"/>
      <path id="Path_64761" data-name="Path 64761" d="M541.427,273.038a.753.753,0,0,1-.044-.188c-.1-.931-.038-5,.456-5.169s1.95.125,2.044.662-.231,5.106-.231,5.106-.094.725-1.306.9C541.614,274.456,541.427,273.038,541.427,273.038Z" transform="translate(-533.172 -143.381)" fill="#ffbe9d"/>
      <path id="Path_64762" data-name="Path 64762" d="M537.624,274.138a.573.573,0,0,0-.044-.187c-.1-.931-.037-5,.456-5.169s1.944.125,2.044.656-.231,5.112-.231,5.112-.1.719-1.312.894C537.787,275.556,537.624,274.138,537.624,274.138Z" transform="translate(-526.994 -143.794)" fill="#ffbe9d"/>
      <path id="Path_64763" data-name="Path 64763" d="M549.126,267.16a7.965,7.965,0,0,0-.187,1.981A7.5,7.5,0,0,0,549,271.1a7.965,7.965,0,0,0,.188-1.981A7.5,7.5,0,0,0,549.126,267.16Z" transform="translate(-543.221 -143.204)" fill="#eb996e"/>
      <path id="Path_64764" data-name="Path 64764" d="M545.382,267.14a15.1,15.1,0,0,0-.231,2.812,14.93,14.93,0,0,0,.031,2.825,16.183,16.183,0,0,0,.225-2.812,15.949,15.949,0,0,0-.025-2.825Z" transform="translate(-537.077 -143.196)" fill="#eb996e"/>
      <g id="Group_160285" data-name="Group 160285" transform="translate(10.448 124.144)" opacity="0.78">
        <path id="Path_64765" data-name="Path 64765" d="M541.514,267.46a16.159,16.159,0,0,0-.225,2.812,15.961,15.961,0,0,0,0,2.825,15.8,15.8,0,0,0,.231-2.812A16.311,16.311,0,0,0,541.514,267.46Z" transform="translate(-541.227 -267.46)" fill="#eb996e"/>
      </g>
      <path id="Path_64766" data-name="Path 64766" d="M534.181,257s3.381,7.687,2.887,8.168a11.333,11.333,0,0,1-2.081,1.206Z" transform="translate(-521.914 -139.393)" fill="#ffbe9d"/>
      <path id="Path_64767" data-name="Path 64767" d="M472.378,84.857l2.5,28.749,14.374-1.15c.094-1.681-.031-8.187-.031-8.187s5.994-.931,6.069-6.919c.031-2.906-.381-8.918-.819-14.337a11.087,11.087,0,0,0-11.693-10.175h0a11.087,11.087,0,0,0-10.4,12.018Z" transform="translate(-441.437 -70.322)" fill="#ffbe9d"/>
      <path id="Path_64768" data-name="Path 64768" d="M489.786,121.665a13.912,13.912,0,0,1-7.806-2.225s1.875,4.312,7.818,3.75Z" transform="translate(-441.97 -87.805)" fill="#eb996e"/>
      <path id="Path_64769" data-name="Path 64769" d="M477.856,95.383a.862.862,0,0,1-.825.862.812.812,0,0,1-.881-.769.85.85,0,0,1,.819-.869.825.825,0,0,1,.888.775Z" transform="translate(-426.384 -78.492)" fill="#263238"/>
      <path id="Path_64770" data-name="Path 64770" d="M479.028,93.46c-.106.112-.756-.369-1.675-.362s-1.594.462-1.694.35.056-.25.35-.469a2.4,2.4,0,0,1,1.362-.419,2.319,2.319,0,0,1,1.331.431C478.984,93.185,479.078,93.385,479.028,93.46Z" transform="translate(-427.244 -77.725)" fill="#263238"/>
      <path id="Path_64771" data-name="Path 64771" d="M492.356,95.383a.862.862,0,0,1-.844.862.813.813,0,0,1-.863-.769.85.85,0,0,1,.819-.869.825.825,0,0,1,.887.775Z" transform="translate(-449.946 -78.492)" fill="#263238"/>
      <path id="Path_64772" data-name="Path 64772" d="M493.49,93.7c-.106.112-.756-.369-1.675-.369s-1.6.462-1.7.35.063-.25.356-.462a2.356,2.356,0,0,1,1.356-.419,2.2,2.2,0,0,1,1.331.431C493.44,93.45,493.565,93.65,493.49,93.7Z" transform="translate(-450.749 -77.815)" fill="#263238"/>
      <path id="Path_64773" data-name="Path 64773" d="M481.478,100.558a6.25,6.25,0,0,1,1.494-.269c.237,0,.456-.075.5-.231a1.212,1.212,0,0,0-.156-.7l-.7-1.787a30.391,30.391,0,0,1-1.556-4.681,30.147,30.147,0,0,1,1.931,4.544c.231.625.456,1.25.669,1.8a1.381,1.381,0,0,1,.119.925.625.625,0,0,1-.388.344,2.045,2.045,0,0,1-.4.056A6.052,6.052,0,0,1,481.478,100.558Z" transform="translate(-435.399 -77.848)" fill="#263238"/>
      <path id="Path_64774" data-name="Path 64774" d="M484.571,106.18c.15,0,.15.987,1.006,1.7a4.848,4.848,0,0,0,1.925.737c.006.112-.238.194-.687.206a2.5,2.5,0,0,1-1.606-.562,2.131,2.131,0,0,1-.781-1.425C484.39,106.417,484.5,106.174,484.571,106.18Z" transform="translate(-441.199 -82.832)" fill="#263238"/>
      <path id="Path_64775" data-name="Path 64775" d="M493.934,88.056c-.094.25-1.012.131-2.094.262s-1.95.425-2.094.2c-.062-.113.088-.344.438-.587a3.656,3.656,0,0,1,3.187-.35C493.772,87.762,493.972,87.937,493.934,88.056Z" transform="translate(-450.955 -75.777)" fill="#263238"/>
      <path id="Path_64776" data-name="Path 64776" d="M479.291,89.143c-.163.212-.794,0-1.556,0s-1.412.144-1.562-.075c-.062-.106.038-.319.319-.512a2.262,2.262,0,0,1,2.5.075C479.272,88.824,479.36,89.043,479.291,89.143Z" transform="translate(-427.844 -76.095)" fill="#263238"/>
      <path id="Path_64777" data-name="Path 64777" d="M471.572,79.658c.344,2.906,1.137,6.587,1.369,9.562a1.488,1.488,0,0,0,.213.787c.425.562,1.444,1.787,1.962,1.3,1.25-1.175,1.75-4.462,2.006-6.169s.206-3.444.438-5.156v-.119a4.719,4.719,0,0,1,1.744-3.037,3,3,0,0,1,.7-.369c1.762-.625,4.694.525,6.45,1.162.9.331,1.781.737,2.656,1.137a6.2,6.2,0,0,0,6.181-.519c1.069-.775,1.162-3.219.694-4.762-1.25-4.169-6.506-5.625-13.237-4.012S470.885,73.671,471.572,79.658Z" transform="translate(-441.881 -68.823)" fill="#263238"/>
      <path id="Path_64778" data-name="Path 64778" d="M509.324,96.3c-.1-.044-4.112-1.25-3.981,2.875s4.212,3.125,4.219,3.006S509.324,96.3,509.324,96.3Z" transform="translate(-476.332 -79.054)" fill="#ffbe9d"/>
      <path id="Path_64779" data-name="Path 64779" d="M509.294,101.464a1.674,1.674,0,0,1-.187.112.706.706,0,0,1-.531,0,1.762,1.762,0,0,1-.869-1.556,2.388,2.388,0,0,1,.169-1.031.813.813,0,0,1,.519-.562.362.362,0,0,1,.425.181c.063.112.038.194.063.2s.081-.069.044-.237a.437.437,0,0,0-.169-.25.556.556,0,0,0-.4-.094,1.006,1.006,0,0,0-.725.662,2.431,2.431,0,0,0-.206,1.144,1.875,1.875,0,0,0,1.094,1.737.731.731,0,0,0,.625-.131C509.294,101.564,509.313,101.47,509.294,101.464Z" transform="translate(-477.371 -79.847)" fill="#eb996e"/>
      <path id="Path_64780" data-name="Path 64780" d="M501.49,86.6a6.3,6.3,0,0,0,5.881.106,17.549,17.549,0,0,1-2.95.35,17.918,17.918,0,0,1-2.931-.456Z" transform="translate(-471.736 -75.49)" fill="#455a64"/>
      <path id="Path_64781" data-name="Path 64781" d="M501.65,88.48a4.812,4.812,0,0,0,2.8.781,4.875,4.875,0,0,0,2.837-.675,17.577,17.577,0,0,1-2.831.344A16.875,16.875,0,0,1,501.65,88.48Z" transform="translate(-471.752 -76.195)" fill="#455a64"/>
      <path id="Path_64782" data-name="Path 64782" d="M466.584,413.541,463.922,425.8s11.562,6.818,11.287,9.131l-23.937-4.306,3.362-19.262Z" transform="translate(-408.194 -197.282)" fill="#263238"/>
      <path id="Path_64783" data-name="Path 64783" d="M451.212,441.021l.412-1.931,22.8,4.85s.981.625.725,1.387Z" transform="translate(-408.133 -207.681)" fill="#455a64"/>
      <path id="Path_64784" data-name="Path 64784" d="M501.02,417l-.394,12.531s12.606,4.612,12.756,6.931l-24.324.106-.187-19.549Z" transform="translate(-469.859 -199.397)" fill="#263238"/>
      <g id="Group_160286" data-name="Group 160286" transform="translate(19.198 235.209)" opacity="0.6">
        <path id="Path_64785" data-name="Path 64785" d="M488.855,447.139l.056-1.969,23.3.625s1.088.462.969,1.25Z" transform="translate(-488.855 -445.17)" fill="#455a64"/>
      </g>
      <path id="Path_64786" data-name="Path 64786" d="M461.412,387.166s12.5-61.167,12.5-62.392L451.625,313,443,384.779Z" transform="translate(-401.721 -160.394)" fill="#263238"/>
      <path id="Path_64787" data-name="Path 64787" d="M494.616,357.648l17.218-106.04V228.74l-23.524,2.187c-.3.887-8,126.827-8,126.827l2.425-.138h11.875" transform="translate(-462.962 -128.795)" fill="#263238"/>
      <path id="Path_64788" data-name="Path 64788" d="M463.982,226.15l9.762,66.054-21.831-5.294L443.02,228.3Z" transform="translate(-401.566 -127.824)" fill="#263238"/>
      <path id="Path_64789" data-name="Path 64789" d="M507.833,235.11v.325c0,.212-.056.544-.1.95-.1.844-.238,2.069-.419,3.637-.369,3.162-.931,7.731-1.669,13.375-1.456,11.281-3.662,26.874-6.037,44.042-1.187,8.6-2.275,16.8-3.2,24.262-.244,1.875-.431,3.694-.694,5.456s-.531,3.475-.787,5.125c-.5,3.306-.969,6.387-1.394,9.2-.844,5.625-1.512,10.181-1.95,13.331-.219,1.575-.381,2.8-.475,3.631-.05.419-.081.731-.094.95a1.659,1.659,0,0,0,0,.238c0,.069.037,0,.037,0h-.044a.872.872,0,0,1,0-.244,6.033,6.033,0,0,1,.062-.95c.075-.831.219-2.062.419-3.637.406-3.156,1.037-7.718,1.875-13.35.419-2.812.875-5.894,1.362-9.206.25-1.65.506-3.362.769-5.125s.444-3.587.681-5.45c.913-7.469,1.994-15.668,3.175-24.274,2.375-17.193,4.619-32.749,6.131-44.03l1.725-13.325c.2-1.569.362-2.787.469-3.631l.131-.944C507.833,235.222,507.833,235.11,507.833,235.11Z" transform="translate(-465.642 -131.184)" fill="#455a64"/>
      <path id="Path_64790" data-name="Path 64790" d="M452.043,358.422a1.694,1.694,0,0,1,.044-.313c.044-.206.087-.525.15-.919.137-.812.337-2,.625-3.519l2.269-12.931,7.587-42.636a9.756,9.756,0,0,0,.181-3.094c-.125-1.019-.3-2.056-.45-3.069q-.469-3.056-.931-6.012c-.625-3.937-1.25-7.737-1.831-11.35-1.206-7.225-2.362-13.75-3.4-19.168s-1.95-9.831-2.644-12.85c-.325-1.519-.625-2.681-.806-3.481-.094-.387-.162-.687-.212-.9a2.137,2.137,0,0,1-.056-.312.9.9,0,0,0,.087.306,8.092,8.092,0,0,1,.237.894c.206.794.519,1.956.862,3.462.731,3.019,1.675,7.4,2.737,12.843s2.25,11.931,3.462,19.162c.625,3.612,1.25,7.412,1.875,11.35q.462,2.956.931,6.012c.156,1.019.325,2.031.456,3.081a10.273,10.273,0,0,1-.187,3.181c-2.994,16.637-5.706,31.7-7.675,42.617-.994,5.444-1.8,9.856-2.362,12.912-.281,1.519-.5,2.7-.656,3.512-.075.388-.131.694-.175.912A.715.715,0,0,1,452.043,358.422Z" transform="translate(-396.727 -132.219)" fill="#455a64"/>
      <path id="Path_64791" data-name="Path 64791" d="M485.142,264.13c.088,0-.931,6.875-2.269,15.293s-2.5,15.262-2.569,15.249.937-6.875,2.275-15.293S485.061,264.117,485.142,264.13Z" transform="translate(-436.27 -142.067)" fill="#455a64"/>
      <path id="Path_64792" data-name="Path 64792" d="M522.017,434.634a1.9,1.9,0,0,1-.569.1c-.362.044-.894.094-1.544.144-1.312.106-3.125.2-5.125.231s-3.819,0-5.131-.062c-.625,0-1.181-.063-1.55-.094a2.444,2.444,0,0,1-.569-.075,16.825,16.825,0,0,1,2.125-.044h5.118c1.994,0,3.806-.094,5.119-.144a17.4,17.4,0,0,1,2.125-.056Z" transform="translate(-490.157 -206.006)" fill="#455a64"/>
      <path id="Path_64793" data-name="Path 64793" d="M481.418,430.227a3.575,3.575,0,0,1-.731-.037l-1.975-.212c-1.675-.187-3.975-.475-6.519-.8s-4.844-.625-6.506-.888l-1.969-.3a4.2,4.2,0,0,1-.719-.15,3.8,3.8,0,0,1,.731,0c.469.044,1.15.112,1.981.206,1.669.188,3.975.469,6.519.8s4.844.625,6.506.894l1.969.3A3.465,3.465,0,0,1,481.418,430.227Z" transform="translate(-421.728 -203.455)" fill="#455a64"/>
      <path id="Path_64794" data-name="Path 64794" d="M432.8,154.166l-14.037,10.681S405.7,142.56,404.547,141.172a16.437,16.437,0,0,0-4.087-2.862l1.612,28.555s7.069,18.037,16.768,17.056c7.425-.75,20.262-20.343,20.262-20.343Z" transform="translate(-340.326 -94.882)" fill="#455a64"/>
      <g id="Group_160287" data-name="Group 160287" transform="translate(74.904 69.627)" opacity="0.2">
        <path id="Path_64795" data-name="Path 64795" d="M433.249,180.23a12.337,12.337,0,0,1,1.419,10.275,1.531,1.531,0,0,1-.569.906,1.119,1.119,0,0,1-1.406-.469,3.249,3.249,0,0,1-.362-1.581,3.6,3.6,0,0,1-1.038,1.356,1.25,1.25,0,0,1-1.581-.056c-.462-.512-.206-1.325.075-1.962q1.787-4.062,3.587-8.125" transform="translate(-429.458 -180.23)"/>
      </g>
      <path id="Path_64796" data-name="Path 64796" d="M405.388,168.8a51.572,51.572,0,0,0,3.219,5.387,53.389,53.389,0,0,0,3.531,5.181,48.577,48.577,0,0,0-3.212-5.387A56.311,56.311,0,0,0,405.388,168.8Z" transform="translate(-316.442 -106.316)" fill="#263238"/>
      <path id="Path_64797" data-name="Path 64797" d="M410.7,168.091c.038,0-.144-.219-.462-.094a.622.622,0,1,0,.837.437c-.081-.331-.337-.375-.344-.325a1.094,1.094,0,0,1,.075.356c-.013.2-.175.412-.431.281a.287.287,0,0,1,0-.512C410.515,168.109,410.671,168.141,410.7,168.091Z" transform="translate(-318.176 -106.001)" fill="#263238"/>
      <path id="Path_64798" data-name="Path 64798" d="M432.021,187.546a7.75,7.75,0,0,0,.625-3.369,7.665,7.665,0,0,0-.537-3.387c-.094.031.194,1.519.156,3.381S431.889,187.514,432.021,187.546Z" transform="translate(-353.581 -110.813)" fill="#263238"/>
      <path id="Path_64799" data-name="Path 64799" d="M432.818,187.461a10.993,10.993,0,0,0,1.8-3.156,11.443,11.443,0,0,0,1.063-3.475c-.106-.031-.625,1.5-1.412,3.325S432.724,187.4,432.818,187.461Z" transform="translate(-357.122 -110.828)" fill="#263238"/>
      <path id="Path_64800" data-name="Path 64800" d="M470.031,131.48l2.125-4.2h15.356l2.419,4.769,9.487,2.15,4.087,61.179a4.237,4.237,0,0,1-.544,2.219h0l-37.3,1.381-1.519.625c-1.337-.825-.506-4.237-.519-5.837l-.481-30.3-7.381-24.212Z" transform="translate(-439.289 -90.745)" fill="#455a64"/>
      <g id="Group_160288" data-name="Group 160288" transform="translate(30.898 36.847)" opacity="0.2">
        <path id="Path_64801" data-name="Path 64801" d="M499.612,133.767l-2.712-2.719q-1.525,3.687-3.05,7.356a76.747,76.747,0,0,1-10-6.994l10.331,3.319q1.312-3.481,2.619-6.95a26.591,26.591,0,0,0,2.6,6.019" transform="translate(-483.85 -127.78)"/>
      </g>
      <path id="Path_64802" data-name="Path 64802" d="M523.754,215.371l10.056.519V187.035l10.4-16.343-7.381-24.212c-1.519.625-12.975,29.374-15.893,37.174a8.8,8.8,0,0,0-.544,3.525Z" transform="translate(-520.38 -97.946)" fill="#455a64"/>
      <path id="Path_64803" data-name="Path 64803" d="M458.121,158.51c-.106,0,.394,5.931,1.112,13.212s1.387,13.193,1.494,13.181-.394-5.925-1.119-13.218S458.221,158.5,458.121,158.51Z" transform="translate(-397.993 -102.457)" fill="#263238"/>
      <path id="Path_64804" data-name="Path 64804" d="M478.62,127.81a37.324,37.324,0,0,0,1.831,4.919l.206.494a1.181,1.181,0,0,0,.331.512.625.625,0,0,0,.669.037,4.7,4.7,0,0,0,.425-.262l1.381-.937a6.132,6.132,0,0,0,1.219-.944,6.248,6.248,0,0,0-1.362.719l-1.425.862c-.275.175-.55.375-.675.231a3.125,3.125,0,0,1-.419-.856A35.6,35.6,0,0,0,478.62,127.81Z" transform="translate(-434.754 -90.944)" fill="#263238"/>
      <path id="Path_64805" data-name="Path 64805" d="M488.3,131.684a17.014,17.014,0,0,0,2.344.944c1.469.537,3.5,1.25,5.75,2.025l1.25.419.169.056.063-.162c.794-1.919,1.481-3.612,1.95-4.837a13.126,13.126,0,0,0,.7-1.987,12,12,0,0,0-.925,1.875c-.538,1.194-1.25,2.875-2.069,4.787l.231-.106-1.25-.425c-2.256-.769-4.3-1.444-5.787-1.919A15.678,15.678,0,0,0,488.3,131.684Z" transform="translate(-456.646 -91.068)" fill="#263238"/>
      <path id="Path_64806" data-name="Path 64806" d="M515.07,147.86c0,.112,2.131.7,4.637,1.819s4.375,2.325,4.462,2.231a4.879,4.879,0,0,0-1.175-.894,24,24,0,0,0-6.475-2.881A5.03,5.03,0,0,0,515.07,147.86Z" transform="translate(-497.022 -98.463)" fill="#263238"/>
      <path id="Path_64807" data-name="Path 64807" d="M480.294,127.81a.7.7,0,0,0,0,.181c0,.144,0,.319,0,.537,0,.475-.044,1.169-.05,2.069,0,1.794,0,4.375.119,7.6.225,6.419,1.031,15.262,2.306,24.968.625,4.862,1.312,9.475,1.775,13.687a89.368,89.368,0,0,1,.625,11.25,57.914,57.914,0,0,1-.625,7.556c-.112.894-.256,1.575-.325,2.037-.031.219-.056.394-.075.537a.665.665,0,0,0,0,.181.681.681,0,0,0,.056-.175c.031-.144.069-.312.119-.525.088-.462.256-1.144.387-2.031a51.594,51.594,0,0,0,.719-7.575,85.2,85.2,0,0,0-.525-11.25c-.444-4.225-1.125-8.843-1.744-13.693-1.25-9.706-2.125-18.531-2.419-24.937-.163-3.2-.212-5.794-.238-7.587v-2.606a.694.694,0,0,0-.106-.225Z" transform="translate(-436.428 -90.944)" fill="#263238"/>
      <path id="Path_64808" data-name="Path 64808" d="M536.98,249.291a74.317,74.317,0,0,0,10.637-.519,37,37,0,0,0-5.325.069,38.274,38.274,0,0,0-5.312.45Z" transform="translate(-534.162 -136.284)" fill="#263238"/>
      <path id="Path_64809" data-name="Path 64809" d="M539.962,251.324v.275a.171.171,0,0,1-.294.106c-.131-.106-.088-.225.038-.312s.225-.05.262-.087-.069-.206-.338-.169a.469.469,0,0,0-.369.287.494.494,0,0,0,.169.575.5.5,0,0,0,.625.044.488.488,0,0,0,.206-.419C540.181,251.349,539.981,251.28,539.962,251.324Z" transform="translate(-528.214 -137.192)" fill="#263238"/>
      <g id="Group_160289" data-name="Group 160289" transform="translate(23.704 66.746)" opacity="0.2">
        <path id="Path_64810" data-name="Path 64810" d="M514.336,181.539l3.275-5.919a81.38,81.38,0,0,1-2.163,31.211l-1.012-25.162" transform="translate(-514.336 -175.62)"/>
      </g>
      <path id="Path_64811" data-name="Path 64811" d="M501.793,167.592a3.328,3.328,0,0,0-.625-.038l-1.744-.044c-1.519-.031-3.712-.069-6.35-.081H492.9v.175c.169,2.312.362,5,.575,7.837v.106l.094.05.394.206,4.244,2.231.106.056.094-.075,4.012-3.225.062-.05v-.081c-.187-2.119-.337-3.887-.45-5.194-.056-.562-.106-1.031-.144-1.406a2.329,2.329,0,0,0-.069-.469,3.616,3.616,0,0,0,0,.538c0,.381.037.862.063,1.444.069,1.25.169,3.025.287,5.106l.056-.131-3.981,3.181h.2l-4.237-2.244-.387-.206.1.15c-.231-2.85-.444-5.519-.625-7.831l-.169.181c2.569,0,4.719-.05,6.25-.081l1.787-.044A5.621,5.621,0,0,0,501.793,167.592Z" transform="translate(-461.477 -105.803)" fill="#263238"/>
      <path id="Path_64812" data-name="Path 64812" d="M461.815,238.867c0,.1.787-.037,1.294-.794s.35-1.531.25-1.494a8.522,8.522,0,0,1-.569,1.25C462.353,238.454,461.784,238.76,461.815,238.867Z" transform="translate(-403.031 -131.735)" fill="#263238"/>
      <path id="Path_64813" data-name="Path 64813" d="M464.163,237.34a3.456,3.456,0,0,0,.95-3.75c-.112,0,0,.9-.269,1.931S464.075,237.271,464.163,237.34Z" transform="translate(-406.347 -130.614)" fill="#263238"/>
      <path id="Path_64814" data-name="Path 64814" d="M506.977,232.86a5.111,5.111,0,0,0,.588,3.081,5.2,5.2,0,0,0,2,2.412,18.183,18.183,0,0,1-1.656-2.575A28.958,28.958,0,0,1,506.977,232.86Z" transform="translate(-477.323 -130.34)" fill="#263238"/>
      <path id="Path_64815" data-name="Path 64815" d="M381.447,159.6s11.362-8.606,12.95-9.181c2.644-.956,3.281-.7,3.281-.7l-6.25,6.712s6.587,2.219,7.062,2.5.706,1.712-.894,1.712c-1.319,0-7.637.15-7.637.15l-5.206,3.8Z" transform="translate(-288.183 -99.15)" fill="#ffbe9d"/>
    </g>
    <g id="freepik--speech-bubble--inject-34" transform="translate(63.435 0)">
      <path id="Path_64816" data-name="Path 64816" d="M557.038,46.9a1.545,1.545,0,0,0-.375,0l-1.1.031h-.812l-.969.137-1.138.162-1.25.319a20.526,20.526,0,0,0-6.143,2.7,21.649,21.649,0,0,0-10,16.293,22.3,22.3,0,0,0-.062,2.969,12.474,12.474,0,0,0,.1,1.519c.1.506.156,1.012.231,1.531a21.728,21.728,0,0,0,2.062,6.037,23.354,23.354,0,0,0,3.95,5.437,22.837,22.837,0,0,0,5.687,4.081,20.68,20.68,0,0,0,6.931,2.131,13.939,13.939,0,0,0,1.875.156,16.927,16.927,0,0,0,1.875,0,22.463,22.463,0,0,0,3.75-.469,21.874,21.874,0,0,0,7.45-3.125h-.225l7.594,3.05.45.181-.131-.469c-.762-2.787-1.512-5.494-2.231-8.125l-.038.2a21.794,21.794,0,0,0,4.05-9.275,19.786,19.786,0,0,0,.294-4.75,15.336,15.336,0,0,0-.213-2.287c-.056-.369-.119-.737-.175-1.106s-.175-.719-.263-1.075a21.737,21.737,0,0,0-8.468-12.35,20.906,20.906,0,0,0-5.05-2.6c-.394-.144-.769-.281-1.138-.406l-1.075-.275-.987-.244c-.313-.063-.625-.094-.906-.138-.575-.075-1.081-.175-1.519-.194l-1.119-.038h-.681a.956.956,0,0,0-.231,0,1.807,1.807,0,0,0,.231.031l.681.05,1.106.075c.438.037.937.144,1.506.231a21.58,21.58,0,0,1,17.262,16.012c.081.35.194.7.256,1.056s.106.725.162,1.094a13.851,13.851,0,0,1,.2,2.237,19.317,19.317,0,0,1-.306,4.656,21.388,21.388,0,0,1-3.994,9.075l-.069.094v.106q1.069,3.937,2.212,8.125l.319-.281-7.587-3.056-.119-.05-.106.069a21.375,21.375,0,0,1-7.287,3.069,22.079,22.079,0,0,1-3.656.462,16.25,16.25,0,0,1-1.831-.037,12.424,12.424,0,0,1-1.806-.15,20.107,20.107,0,0,1-6.781-2.075,22.364,22.364,0,0,1-5.568-3.987,22.866,22.866,0,0,1-3.875-5.306,21.3,21.3,0,0,1-2.044-5.912c-.075-.506-.156-1.006-.231-1.5s-.062-.994-.1-1.487A21.223,21.223,0,0,1,545.357,50.5a20.573,20.573,0,0,1,6.037-2.725l1.25-.331,1.119-.187.962-.156c.294-.031.569-.038.806-.063l1.137-.081A3.443,3.443,0,0,0,557.038,46.9Z" transform="translate(-535.165 -46.892)" fill="#263238"/>
      <path id="Path_64817" data-name="Path 64817" d="M552.74,82.5a1.444,1.444,0,0,0,.256,0h.737l2.737.044,9.168.081h.075V82.55c.075-.481.15-1,.225-1.519.625-4.444,1.2-8.412,1.569-11l-.05.044h3.287a1.033,1.033,0,0,0-.225,0H569.9L567.458,70h-.05v.044c-.388,2.594-.975,6.556-1.638,10.993l-.219,1.519.088-.075h-9.168l-2.762.019h-.744a1.2,1.2,0,0,0-.225,0Z" transform="translate(-537.999 -55.558)" fill="#efa00b"/>
      <path id="Path_64818" data-name="Path 64818" d="M565.272,82.708h.306l.05-.312h0v-.075l.181-1.25L567.4,70.146h2.975c.262,0,.306,0,.306-.088v-.031h0l-.281-.044h-.625l-2.294-.031V69.89l-.062.056h-.213v.112a.558.558,0,0,1,0,.1l-.062.056h.056c-.388,2.594-.962,6.487-1.612,10.837l-.2,1.381h-12.5c-.294,0-.331,0-.331.094s0,.087.331.094h.737l2.731.037,8.981.081Zm0-.187Zm.837-4.437-.625,4.275h0l.2-1.356C565.828,80.008,565.972,79.033,566.109,78.083Z" transform="translate(-537.825 -55.517)" fill="#efa00b"/>
      <path id="Path_64819" data-name="Path 64819" d="M573.354,81.107h-.994l-2.756-.044-9.518-.087.081.069c-.275-1.6-.569-3.337-.875-5.131-.156-.919-.312-1.825-.456-2.694l-.087.1,11.218.037h3.3l-3.319-.044L558.73,73.22h-.1v.1c.144.862.3,1.769.456,2.694.306,1.794.625,3.525.881,5.131v.069H573.3Z" transform="translate(-545.326 -56.765)" fill="#efa00b"/>
      <path id="Path_64820" data-name="Path 64820" d="M569.4,81.151h3.687c.069,0,.144,0,.144-.087s-.075-.081-.144-.088h-.925l-2.762-.037-9.375-.088-.85-5c-.15-.856-.294-1.694-.431-2.5l11.025.037h4.45c.081,0,.156,0,.156-.087s-.075-.081-.156-.087h-1.125l-3.325-.05-11.081-.094h-.356l.05.3h0l1.25,7.5h0l.05.3h.306Zm-9.375-.187h0Zm-1.462-7.656c.137.812.281,1.662.431,2.5l.844,5h0l-1.25-7.5Zm.131-.169h0Z" transform="translate(-545.12 -56.709)" fill="#efa00b"/>
      <path id="Path_64821" data-name="Path 64821" d="M561.849,94.866a.95.95,0,0,1,.075-.306,1.243,1.243,0,0,1,1.631-.819,1.212,1.212,0,0,1,.781,1.137,1.218,1.218,0,0,1-1.95.969,1.306,1.306,0,0,1-.469-.675c-.056-.188-.056-.306-.069-.306a.624.624,0,0,0,0,.325,1.287,1.287,0,0,0,.456.75,1.362,1.362,0,1,0,1.3-2.35,1.329,1.329,0,0,0-1.756.95C561.817,94.753,561.836,94.866,561.849,94.866Z" transform="translate(-537.451 -64.374)" fill="#efa00b"/>
      <path id="Path_64822" data-name="Path 64822" d="M563.091,96.27a1.362,1.362,0,0,0,.462-.081,1.439,1.439,0,1,0-1.344-2.5,1.344,1.344,0,0,0-.494.794.9.9,0,0,0,0,.337,1.015,1.015,0,0,0,0,.337,1.356,1.356,0,0,0,.488.8A1.444,1.444,0,0,0,563.091,96.27Zm.269-2.7.162.05a1.287,1.287,0,0,1,0,2.425l-.162.044.156-.05a1.287,1.287,0,0,0,0-2.419Zm-.3.125a1.08,1.08,0,0,1,.406.075,1.136,1.136,0,1,1-1.094,1.969,1.25,1.25,0,0,1-.444-.625,1.308,1.308,0,0,1-.05-.231v-.056a.117.117,0,0,0,0-.05,1.343,1.343,0,0,1,.056-.231,1.193,1.193,0,0,1,.444-.625,1.15,1.15,0,0,1,.675-.225Z" transform="translate(-537.381 -64.328)" fill="#efa00b"/>
      <path id="Path_64823" data-name="Path 64823" d="M575.158,94.786a.949.949,0,0,1,.075-.306,1.234,1.234,0,1,1,.463,1.287,1.294,1.294,0,0,1-.469-.669c-.056-.194-.056-.312-.069-.312a.693.693,0,0,0,0,.325,1.25,1.25,0,0,0,.456.756,1.362,1.362,0,1,0,0-2.15,1.312,1.312,0,0,0-.469.75.625.625,0,0,0,.013.319Z" transform="translate(-559.061 -64.345)" fill="#efa00b"/>
      <path id="Path_64824" data-name="Path 64824" d="M576.338,96.185a1.411,1.411,0,0,0,.469-.075,1.444,1.444,0,1,0-1.35-2.5,1.381,1.381,0,0,0-.494.794.9.9,0,0,0,0,.337,1.017,1.017,0,0,0,0,.337,1.4,1.4,0,0,0,1.381,1.112Zm.281-2.694.15.044a1.287,1.287,0,0,1,0,2.425l-.181.05.175-.05a1.294,1.294,0,0,0,0-2.425Zm-.312.119a1.056,1.056,0,0,1,.406.075,1.137,1.137,0,1,1-1.094,1.969,1.25,1.25,0,0,1-.444-.625,2.354,2.354,0,0,1-.05-.231.185.185,0,0,0,0-.056.117.117,0,0,0,0-.05.432.432,0,0,1,.056-.231,1.194,1.194,0,0,1,.444-.625,1.162,1.162,0,0,1,.681-.225Z" transform="translate(-558.935 -64.294)" fill="#efa00b"/>
    </g>
  </g>
</svg>
