<svg xmlns="http://www.w3.org/2000/svg" width="13.446" height="16" viewBox="0 0 13.446 16"><defs><style>.a{fill:#aac148;}</style></defs><g transform="translate(-32.973 0)"><path class="a" d="M101.782,136.4H93.665a.327.327,0,0,0-.327.327v6.807a.327.327,0,0,0,.327.327h1.447v2.294a.964.964,0,0,0,.964.964h0a.964.964,0,0,0,.964-.964v-2.294h1.348v2.294a.964.964,0,0,0,.964.964h0a.964.964,0,0,0,.964-.964v-2.294h1.467a.327.327,0,0,0,.327-.327v-6.807A.327.327,0,0,0,101.782,136.4Z" transform="translate(-58.027 -131.113)"/><path class="a" d="M33.937,136.354h0a.964.964,0,0,0-.964.964v3.914a.964.964,0,0,0,.964.964h0a.964.964,0,0,0,.964-.964v-3.914A.964.964,0,0,0,33.937,136.354Z" transform="translate(0 -131.073)"/><path class="a" d="M331.362,136.354h0a.964.964,0,0,0-.964.964v3.914a.964.964,0,0,0,.964.964h0a.964.964,0,0,0,.964-.964v-3.914A.964.964,0,0,0,331.362,136.354Z" transform="translate(-285.906 -131.073)"/><path class="a" d="M95.352,4.8h7.966a.327.327,0,0,0,.32-.395,4.4,4.4,0,0,0-2.148-2.926l.681-1.229a.172.172,0,0,0-.3-.167l-.686,1.238a4.407,4.407,0,0,0-3.7,0L96.8.089a.172.172,0,1,0-.3.167l.681,1.229A4.4,4.4,0,0,0,95.032,4.41.327.327,0,0,0,95.352,4.8Zm6.36-1.831a.37.37,0,1,1-.37-.37A.37.37,0,0,1,101.713,2.974ZM97.329,2.6a.37.37,0,1,1-.37.37A.37.37,0,0,1,97.329,2.6Z" transform="translate(-59.649)"/></g></svg>