<svg xmlns="http://www.w3.org/2000/svg" width="19.853" height="14.89" viewBox="0 0 19.853 14.89"><defs><style>.a{fill:#e2e3e5;}</style></defs><path class="a" d="M11.7,9.1A3.1,3.1,0,1,1,8.6,6a3.1,3.1,0,0,1,3.1,3.1Z" transform="translate(1.324 -1.037)"/><path class="a" d="M2.482,4.482A2.482,2.482,0,0,0,0,6.963v7.445A2.482,2.482,0,0,0,2.482,16.89h14.89a2.482,2.482,0,0,0,2.482-2.482V6.963a2.482,2.482,0,0,0-2.482-2.482H15.917a2.481,2.481,0,0,1-1.754-.727L13.135,2.727A2.482,2.482,0,0,0,11.381,2H8.472a2.481,2.481,0,0,0-1.754.727L5.69,3.754a2.482,2.482,0,0,1-1.754.727ZM3.1,6.963a.62.62,0,1,1,.62-.62A.62.62,0,0,1,3.1,6.963Zm11.167,3.1A4.343,4.343,0,1,1,9.926,5.722,4.343,4.343,0,0,1,14.269,10.065Z" transform="translate(0 -2)"/></svg>