<svg xmlns="http://www.w3.org/2000/svg" width="14.928" height="14.932" viewBox="0 0 14.928 14.932"><defs><style>.a{fill:#372c51;}</style></defs><path class="a" d="M10.457,0H4.486A4.483,4.483,0,0,0,.008,4.478V7.961a4.484,4.484,0,0,0,4.229,4.472v2.076a.424.424,0,0,0,.424.423.419.419,0,0,0,.3-.124l.467-.467a6.447,6.447,0,0,1,4.589-1.9h.443a4.483,4.483,0,0,0,4.478-4.478V4.478A4.483,4.483,0,0,0,10.457,0ZM4.237,7.215a1,1,0,1,1,1-1A1,1,0,0,1,4.237,7.215Zm3.234,0a1,1,0,1,1,1-1A1,1,0,0,1,7.472,7.215Zm3.234,0a1,1,0,1,1,1-1A1,1,0,0,1,10.706,7.215Z" transform="translate(-0.008)"/></svg>