<svg xmlns="http://www.w3.org/2000/svg" width="11.743" height="16" viewBox="0 0 11.743 16"><defs><style>.a{fill:#707070;}</style></defs><g transform="translate(0 0)"><path class="a" d="M10.337,1.965H8.78V1.719A1.721,1.721,0,0,0,7.061,0H4.682A1.721,1.721,0,0,0,2.963,1.719v.246H1.406A1.408,1.408,0,0,0,0,3.371V4.4a.469.469,0,0,0,.469.469H.845l.629,10.692A.469.469,0,0,0,1.942,16H9.8a.469.469,0,0,0,.468-.441L10.9,4.867h.377a.469.469,0,0,0,.469-.469V3.371a1.408,1.408,0,0,0-1.406-1.406ZM3.9,1.719A.782.782,0,0,1,4.682.938H7.061a.782.782,0,0,1,.781.781v.246H3.9ZM.937,3.371A.469.469,0,0,1,1.406,2.9h8.931a.469.469,0,0,1,.469.469v.558H.937ZM9.359,15.062H2.384l-.6-10.2H9.959Zm0,0"/><path class="a" d="M173.36,194.281a.469.469,0,0,0,.469-.469v-7.344a.469.469,0,1,0-.937,0v7.344A.469.469,0,0,0,173.36,194.281Zm0,0" transform="translate(-167.488 -180.188)"/><path class="a" d="M233.341,194.279h.02a.469.469,0,0,0,.468-.449l.313-7.344a.469.469,0,1,0-.937-.04l-.312,7.344a.469.469,0,0,0,.448.488Zm0,0" transform="translate(-225.615 -180.186)"/><path class="a" d="M103.673,194.28h.02a.469.469,0,0,0,.448-.488l-.312-7.344a.469.469,0,1,0-.937.04l.313,7.344A.469.469,0,0,0,103.673,194.28Zm0,0" transform="translate(-99.677 -180.186)"/></g></svg>