<svg xmlns="http://www.w3.org/2000/svg" width="17.068" height="16" viewBox="0 0 17.068 16"><defs><style>.a{fill:#372c51;}</style></defs><g transform="translate(0 -9.35)"><path class="a" d="M15.139,9.35H1.93A1.932,1.932,0,0,0,0,11.281V23.421A1.931,1.931,0,0,0,1.93,25.35H15.139a1.931,1.931,0,0,0,1.93-1.929V11.281A1.932,1.932,0,0,0,15.139,9.35Zm-4.1,2.872a1.865,1.865,0,1,1-1.865,1.865A1.865,1.865,0,0,1,11.037,12.222Zm3.5,11.343H2.8a.527.527,0,0,1-.512-.832L5.49,16.4a.539.539,0,0,1,.987-.092l3.218,4.205a.789.789,0,0,0,1.222.077l.787-.8a.749.749,0,0,1,1.19.1L14.931,22.8C15.226,23.223,15.048,23.566,14.533,23.566Z"/></g></svg>