<svg xmlns="http://www.w3.org/2000/svg" width="13.028" height="16" viewBox="0 0 13.028 16"><defs><style>.a{fill:#030104;}</style></defs><g transform="translate(-1.282)"><g transform="translate(1.282)"><path class="a" d="M12.163,7.971A3.618,3.618,0,0,1,13.89,4.924a3.734,3.734,0,0,0-2.926-1.584c-1.244-.128-2.43.733-3.063.733s-1.607-.715-2.64-.7a3.919,3.919,0,0,0-3.31,2.006C.541,7.831,1.59,11.457,2.965,13.445c.672.971,1.475,2.062,2.526,2.024,1.013-.041,1.4-.656,2.621-.656s1.57.656,2.641.636c1.091-.021,1.781-.991,2.447-1.965a8.9,8.9,0,0,0,1.109-2.276A3.54,3.54,0,0,1,12.163,7.971Z" transform="translate(-1.282 0.53)"/><path class="a" d="M9.259,2.555A3.525,3.525,0,0,0,10.091,0,3.582,3.582,0,0,0,7.734,1.211a3.354,3.354,0,0,0-.849,2.475A2.966,2.966,0,0,0,9.259,2.555Z" transform="translate(-0.393)"/></g></g></svg>