<svg xmlns="http://www.w3.org/2000/svg" width="25.907" height="25.907" viewBox="0 0 25.907 25.907"><defs><style>.a{fill:none;}.b{fill:#9a95a7;}</style></defs><rect class="a" width="25.907" height="25.907"/><g transform="translate(1.587 7.287)"><circle class="b" cx="1.973" cy="1.973" r="1.973" transform="translate(1.973 1.48)"/><path class="b" d="M6.58,13.395a4.134,4.134,0,0,0-1.647,3.3v.247H.74a.745.745,0,0,1-.74-.74v-.493A2.711,2.711,0,0,1,2.713,13H5.179A2.7,2.7,0,0,1,6.58,13.395Z" transform="translate(0 -6.969)"/><circle class="b" cx="1.973" cy="1.973" r="1.973" transform="translate(15.85 1.48)"/><path class="b" d="M23.91,15.713v.493a.745.745,0,0,1-.74.74H18.977V16.7a4.134,4.134,0,0,0-1.647-3.3,2.7,2.7,0,0,1,1.4-.395H21.2A2.711,2.711,0,0,1,23.91,15.713Z" transform="translate(-2.141 -6.969)"/><circle class="b" cx="2.96" cy="2.96" r="2.96" transform="translate(7.925 0)"/><path class="b" d="M15.129,14H9.376A2.8,2.8,0,0,0,6.5,16.713v1.48a.763.763,0,0,0,.784.74h9.936a.763.763,0,0,0,.784-.74v-1.48A2.8,2.8,0,0,0,15.129,14Z" transform="translate(-1.368 -6.982)"/></g></svg>