<svg xmlns="http://www.w3.org/2000/svg" width="16.534" height="16.534" viewBox="0 0 16.534 16.534"><defs><style>.a{fill:#efa00b;}</style></defs><path class="a" d="M15.012,6.226h-.351a6.677,6.677,0,0,0-.43-1.036l.249-.249a1.522,1.522,0,0,0,0-2.153l-.733-.733a1.522,1.522,0,0,0-2.153,0l-.249.249a6.681,6.681,0,0,0-1.036-.43V1.522A1.524,1.524,0,0,0,8.786,0H7.748A1.524,1.524,0,0,0,6.226,1.522v.351A6.675,6.675,0,0,0,5.19,2.3l-.249-.249a1.522,1.522,0,0,0-2.153,0l-.733.733a1.522,1.522,0,0,0,0,2.153L2.3,5.19a6.675,6.675,0,0,0-.43,1.036H1.522A1.524,1.524,0,0,0,0,7.748V8.786a1.524,1.524,0,0,0,1.522,1.522h.351a6.677,6.677,0,0,0,.43,1.036l-.249.249a1.522,1.522,0,0,0,0,2.153l.733.733a1.522,1.522,0,0,0,2.153,0l.249-.249a6.681,6.681,0,0,0,1.037.43v.351a1.524,1.524,0,0,0,1.522,1.522H8.786a1.524,1.524,0,0,0,1.522-1.522v-.351a6.675,6.675,0,0,0,1.036-.43l.249.249a1.522,1.522,0,0,0,2.153,0l.733-.733a1.522,1.522,0,0,0,0-2.153l-.249-.249a6.675,6.675,0,0,0,.43-1.037h.351a1.524,1.524,0,0,0,1.522-1.522V7.748a1.524,1.524,0,0,0-1.522-1.522ZM8.267,11.864a3.6,3.6,0,1,1,3.6-3.6A3.6,3.6,0,0,1,8.267,11.864Z" transform="translate(0 0)"/></svg>