<svg xmlns="http://www.w3.org/2000/svg" width="18.883" height="11.802" viewBox="0 0 18.883 11.802"><defs><style>.a{fill:#707070;fill-rule:evenodd;}</style></defs><path class="a" d="M0,5.36A2.36,2.36,0,0,1,2.36,3h8.851a2.36,2.36,0,0,1,2.34,2.051l3.67-1.631A1.18,1.18,0,0,1,18.883,4.5V13.3a1.18,1.18,0,0,1-1.659,1.078l-3.672-1.631a2.36,2.36,0,0,1-2.34,2.051H2.36A2.36,2.36,0,0,1,0,12.442Zm13.572,6.107L17.7,13.3V4.5L13.572,6.334v5.134ZM2.36,4.18A1.18,1.18,0,0,0,1.18,5.36v7.081a1.18,1.18,0,0,0,1.18,1.18h8.851a1.18,1.18,0,0,0,1.18-1.18V5.36a1.18,1.18,0,0,0-1.18-1.18Z" transform="translate(0 -3)"/></svg>