<svg xmlns="http://www.w3.org/2000/svg" width="16pt" height="16pt" viewBox="0 0 18.883 12.001"><defs><style>.a{fill:#707070;}</style></defs><g transform="translate(-17.9 -14.862)"><g transform="translate(17.9 14.862)"><g transform="translate(0 0)"><g transform="translate(3.499 2.103)"><path class="a" d="M130.05,67.913a.741.741,0,0,1-.526-.218,5.2,5.2,0,0,1,0-7.36.743.743,0,1,1,1.051,1.051,3.717,3.717,0,0,0,0,5.257.743.743,0,0,1-.526,1.269Z" transform="translate(-128 -60.118)"/></g><g transform="translate(3.499 2.103)"><path class="a" d="M128.743,64.759a.743.743,0,0,1-.743-.743,5.17,5.17,0,0,1,1.524-3.68.743.743,0,1,1,1.051,1.051,3.693,3.693,0,0,0-1.089,2.628A.743.743,0,0,1,128.743,64.759Z" transform="translate(-128 -60.118)"/></g><path class="a" d="M66.921,26.863a.741.741,0,0,1-.526-.218,8.178,8.178,0,0,1,0-11.565.743.743,0,0,1,1.051,1.051,6.691,6.691,0,0,0,0,9.462.743.743,0,0,1-.526,1.269Z" transform="translate(-64 -14.862)"/><path class="a" d="M64.743,21.606A.743.743,0,0,1,64,20.863a8.124,8.124,0,0,1,2.4-5.783.743.743,0,0,1,1.051,1.051,6.647,6.647,0,0,0-1.96,4.731A.743.743,0,0,1,64.743,21.606Z" transform="translate(-64 -14.862)"/></g><g transform="translate(12.6 0)"><g transform="translate(0 2.103)"><path class="a" d="M324.626,67.913a.743.743,0,0,1-.526-1.269,3.717,3.717,0,0,0,0-5.257.743.743,0,0,1,1.051-1.051,5.2,5.2,0,0,1,0,7.36A.741.741,0,0,1,324.626,67.913Z" transform="translate(-323.882 -60.118)"/><path class="a" d="M325.932,64.759a.743.743,0,0,1-.743-.743,3.693,3.693,0,0,0-1.089-2.628.743.743,0,0,1,1.051-1.051,5.17,5.17,0,0,1,1.524,3.68A.743.743,0,0,1,325.932,64.759Z" transform="translate(-323.882 -60.118)"/></g><g transform="translate(2.619)"><path class="a" d="M369.88,26.864a.743.743,0,0,1-.526-1.269,6.691,6.691,0,0,0,0-9.462.743.743,0,1,1,1.051-1.051,8.178,8.178,0,0,1,0,11.565A.741.741,0,0,1,369.88,26.864Z" transform="translate(-369.137 -14.863)"/><path class="a" d="M372.058,21.607a.743.743,0,0,1-.743-.743,6.647,6.647,0,0,0-1.96-4.731.743.743,0,1,1,1.051-1.051,8.124,8.124,0,0,1,2.4,5.783A.743.743,0,0,1,372.058,21.607Z" transform="translate(-369.137 -14.863)"/></g></g><g transform="translate(7.847 4.198)"><circle class="a" cx="2" cy="2" r="2" transform="translate(-0.347 -0.198)"/></g></g></g></svg>