<svg xmlns="http://www.w3.org/2000/svg" width="439.496" height="275" viewBox="0 0 439.496 275">
  <g id="Security-pana" transform="translate(-34.609 -33.8)">
    <g id="freepik--background-complete--inject-62" transform="translate(34.609 33.8)">
      <path id="Path_64423" data-name="Path 64423" d="M55.362,216.409s-5.373-.393-4.877,11.666a136.332,136.332,0,0,0,1.75,18.48s-.161,2.67-2.226,2.149-5.971-3.127-7.889-1.184-1.287,5.109,1.358,8.758,8.114,11.84,8.622,12.58.676,2.1-.791,1.969-11.37-3.494-12.683,1.287,7.722,13.732,8.7,14.729,1.017,1.628.643,2.226-3.616-.836-6.473-1.679-6.312-1.287-6.84,1.519,3.423,11.138,18.352,19.845l7.168,3.578L66.963,308c13.97-10.154,17.1-18.8,16.3-21.556s-4.2-1.93-6.962-.83-5.823,2.883-6.274,2.323-.463-1.19.405-2.284,8.964-10.887,7.181-15.527-11.306-.309-12.754-.032-1.39-1.1-.978-1.872,5.071-9.5,7.342-13.384,2.664-7.04.476-8.848-5.72,1.235-7.722,1.963-2.432-1.93-2.432-1.93a139.965,139.965,0,0,0-.135-18.558c-.714-12.046-6.152-11.074-6.152-11.074" transform="translate(-34.609 -98.892)" fill="#ebebeb"/>
      <path id="Path_64424" data-name="Path 64424" d="M67.518,233.21v.251c0,.167.032.425.051.74.045.643.116,1.622.193,2.844.167,2.477.38,6.055.643,10.476.489,8.848,1.068,21.08,1.654,34.586S71.2,307.846,71.636,316.7c.225,4.414.405,7.992.534,10.482.064,1.229.109,2.181.142,2.851a4.731,4.731,0,0,0,.032.74,2.454,2.454,0,0,1,0,.251,1.5,1.5,0,0,0-.032-.251c-.032-.167,0-.425-.051-.74-.045-.643-.116-1.622-.193-2.844-.167-2.471-.38-6.055-.643-10.476-.489-8.848-1.068-21.08-1.654-34.593s-1.139-25.739-1.576-34.586c-.225-4.414-.405-7.992-.534-10.482-.064-1.229-.109-2.181-.142-2.851v-.74A2.449,2.449,0,0,1,67.518,233.21Z" transform="translate(-46.341 -104.896)" fill="#e0e0e0"/>
      <path id="Path_64425" data-name="Path 64425" d="M54.47,270.78a2.09,2.09,0,0,1,.45.367c.277.251.643.643,1.139,1.094.946.939,2.22,2.271,3.6,3.764l3.507,3.861,1.068,1.158a2.687,2.687,0,0,1,.373.444,2.29,2.29,0,0,1-.45-.367c-.277-.251-.643-.643-1.132-1.1-.939-.946-2.194-2.291-3.571-3.784L55.918,272.4l-1.075-1.152a2.687,2.687,0,0,1-.373-.47Z" transform="translate(-41.69 -118.291)" fill="#e0e0e0"/>
      <path id="Path_64426" data-name="Path 64426" d="M71.329,280.3c-.058-.058,2.574-2.806,5.856-6.139s6-6,6.055-5.946-2.574,2.805-5.862,6.139S71.381,280.349,71.329,280.3Z" transform="translate(-47.701 -117.378)" fill="#e0e0e0"/>
      <path id="Path_64427" data-name="Path 64427" d="M71.28,314.944a2.286,2.286,0,0,1,.5-.315l1.4-.792c1.184-.643,2.812-1.589,4.575-2.67s3.333-2.117,4.466-2.87l1.338-.894a2.729,2.729,0,0,1,.508-.3,5.116,5.116,0,0,1-.444.392c-.3.238-.74.566-1.287.965-1.1.8-2.658,1.86-4.427,2.941s-3.423,1.988-4.633,2.612c-.6.309-1.1.553-1.448.708a2.3,2.3,0,0,1-.553.225Z" transform="translate(-47.684 -131.24)" fill="#e0e0e0"/>
      <path id="Path_64428" data-name="Path 64428" d="M52.81,308a1.775,1.775,0,0,1,.5.232c.309.161.759.412,1.287.721,1.094.643,2.574,1.493,4.24,2.471s3.127,1.885,4.2,2.574c.534.328.965.6,1.287.8a2.175,2.175,0,0,1,.444.322,1.878,1.878,0,0,1-.5-.232l-1.287-.721c-1.094-.643-2.574-1.5-4.24-2.477s-3.127-1.879-4.2-2.542c-.534-.335-.965-.6-1.287-.8A2.446,2.446,0,0,1,52.81,308Z" transform="translate(-41.099 -131.561)" fill="#e0e0e0"/>
      <path id="Path_64429" data-name="Path 64429" d="M49.15,336.5a3.212,3.212,0,0,1,.643.3l1.667.927c1.4.785,3.333,1.892,5.457,3.127s4.041,2.362,5.418,3.217l1.628.991a3.618,3.618,0,0,1,.573.4,3.214,3.214,0,0,1-.643-.3l-1.667-.92c-1.4-.791-3.333-1.892-5.457-3.127s-4.041-2.368-5.418-3.217l-1.654-1a3.155,3.155,0,0,1-.547-.4Z" transform="translate(-39.794 -141.722)" fill="#e0e0e0"/>
      <path id="Path_64430" data-name="Path 64430" d="M72.56,344.152a3.98,3.98,0,0,1,.643-.418l1.744-1.062c1.474-.894,3.5-2.143,5.7-3.578s4.17-2.78,5.579-3.764l1.679-1.165a3.973,3.973,0,0,1,.643-.405,4.779,4.779,0,0,1-.573.489c-.38.3-.933.721-1.628,1.235-1.383,1.03-3.333,2.407-5.54,3.861s-4.253,2.658-5.753,3.513c-.753.425-1.364.766-1.789.984A3.794,3.794,0,0,1,72.56,344.152Z" transform="translate(-48.14 -140.745)" fill="#e0e0e0"/>
      <path id="Path_64431" data-name="Path 64431" d="M78.325,369.15H58.48l6.473,49.032h6.892Z" transform="translate(-43.12 -153.363)" fill="#e0e0e0"/>
      <path id="Path_64432" data-name="Path 64432" d="M60.08,377.424s0,.064.1.174a1.287,1.287,0,0,0,.483.341,2.4,2.4,0,0,0,2.091-.257,17.488,17.488,0,0,1,2.574-1.692,5.617,5.617,0,0,1,3.655.071,15.563,15.563,0,0,1,3.4,1.673,23.434,23.434,0,0,0,2.76,1.48,7.682,7.682,0,0,0,2.04.592,4.515,4.515,0,0,0,.573.039h.206a10.142,10.142,0,0,1-2.722-.817,26.019,26.019,0,0,1-2.7-1.531,14.8,14.8,0,0,0-3.462-1.7,5.849,5.849,0,0,0-3.861-.045,4.987,4.987,0,0,0-1.448.9,10.856,10.856,0,0,1-1.139.875,2.349,2.349,0,0,1-1.93.341,2.169,2.169,0,0,1-.618-.444Z" transform="translate(-43.691 -155.607)" fill="#f5f5f5"/>
      <path id="Path_64433" data-name="Path 64433" d="M61.2,390.557s.161-.2.47-.528a4.414,4.414,0,0,1,1.583-1,7.169,7.169,0,0,1,2.76-.418,29.783,29.783,0,0,1,3.455.47,11.584,11.584,0,0,0,3.533.148,9.652,9.652,0,0,0,2.786-.791,8.735,8.735,0,0,0,1.673-1,2.219,2.219,0,0,0,.528-.476,17.9,17.9,0,0,1-2.291,1.287,10.017,10.017,0,0,1-2.728.708,12,12,0,0,1-3.449-.167,25.49,25.49,0,0,0-3.494-.45,6.944,6.944,0,0,0-2.857.5,4.106,4.106,0,0,0-1.589,1.133,2.575,2.575,0,0,0-.3.438A.554.554,0,0,0,61.2,390.557Z" transform="translate(-44.09 -159.713)" fill="#f5f5f5"/>
      <path id="Path_64434" data-name="Path 64434" d="M77.69,399.3a1.93,1.93,0,0,0-.547-.283,5.841,5.841,0,0,0-1.647-.354,11.019,11.019,0,0,0-2.484.142c-.927.154-1.93.405-2.96.643a12.617,12.617,0,0,1-2.96.335,6.434,6.434,0,0,1-2.342-.508A5.43,5.43,0,0,1,63,397.94a1.493,1.493,0,0,0,.335.515,4.092,4.092,0,0,0,1.351,1.017,6.364,6.364,0,0,0,2.426.6,11.785,11.785,0,0,0,3.037-.315c1.055-.225,2.04-.489,2.941-.643a11.338,11.338,0,0,1,2.426-.206A9.216,9.216,0,0,1,77.69,399.3Z" transform="translate(-44.732 -163.627)" fill="#f5f5f5"/>
      <path id="Path_64435" data-name="Path 64435" d="M63.93,409.992a3.173,3.173,0,0,1,1.93-.193,9.47,9.47,0,0,1,2.02.753,7.722,7.722,0,0,0,2.612.721,7.863,7.863,0,0,0,4.749-1.1,6.962,6.962,0,0,0,1.184-.907c.238-.257.36-.405.347-.425a17.051,17.051,0,0,1-1.647,1.133,8.146,8.146,0,0,1-4.6.978c-1.885-.077-3.333-1.229-4.62-1.364a2.909,2.909,0,0,0-1.493.129C64.058,409.831,63.917,409.979,63.93,409.992Z" transform="translate(-45.063 -167.514)" fill="#f5f5f5"/>
      <path id="Path_64436" data-name="Path 64436" d="M65.65,423.741a3.859,3.859,0,0,0,1.654-.335c1-.328,2.233-1.094,3.674-1.667a6.029,6.029,0,0,1,2.111-.444,3.977,3.977,0,0,1,1.692.386,3.764,3.764,0,0,1,1.229,1.062.907.907,0,0,0-.193-.418,2.683,2.683,0,0,0-.933-.843,3.862,3.862,0,0,0-1.8-.483,5.855,5.855,0,0,0-2.226.438c-1.493.592-2.69,1.383-3.642,1.757S65.644,423.69,65.65,423.741Z" transform="translate(-45.676 -171.849)" fill="#f5f5f5"/>
      <path id="Path_64437" data-name="Path 64437" d="M67.16,432.053a4.569,4.569,0,0,0,1.287.405,22.256,22.256,0,0,0,3.14.534,22.551,22.551,0,0,0,3.217.09,4.833,4.833,0,0,0,1.287-.154c0-.1-2.008,0-4.466-.257S67.186,431.956,67.16,432.053Z" transform="translate(-46.215 -175.785)" fill="#f5f5f5"/>
      <path id="Path_64438" data-name="Path 64438" d="M647.089,46.914,610.559,33.8,574.377,46.74c-4.62,2.181-8.668,3.488-8.668,7.78V75.954a80.992,80.992,0,0,0,11.917,42.636,74.191,74.191,0,0,0,33.312,29.394c14.8-4.8,25.829-17.612,32.572-28.564a80.9,80.9,0,0,0,11.924-42.63V57.525C655.409,51.386,652.153,48.394,647.089,46.914Z" transform="translate(-223.963 -33.8)" fill="#f5f5f5"/>
      <path id="Path_64439" data-name="Path 64439" d="M610.939,135.552A59.1,59.1,0,0,1,584.6,112.1a64.051,64.051,0,0,1-9.427-33.731V63.348c0-3.4,2.053-6.6,6.132-8.5l29.284-10.939V33.8L574.377,46.74c-3.8,1.66-8.668,3.488-8.668,7.792V75.954a80.992,80.992,0,0,0,11.917,42.636,74.191,74.191,0,0,0,33.312,29.394Z" transform="translate(-223.963 -33.8)" fill="#ebebeb"/>
      <path id="Path_64440" data-name="Path 64440" d="M635.79,147.984a44.02,44.02,0,0,0,7.175-3.076,64.559,64.559,0,0,0,15.192-11.949,81.917,81.917,0,0,0,10.566-14.195A77.97,77.97,0,0,0,680.3,75.722V58.033c0-8.809-4.5-9.459-8.365-11.119L635.41,33.8V43.9l29.6,11.126c4.08,1.93,6.132,5.09,6.132,8.494V78.547a64.043,64.043,0,0,1-9.433,33.731c-5.328,8.668-13.217,17.605-25.919,23.274Z" transform="translate(-248.814 -33.8)" fill="#e0e0e0"/>
      <path id="Path_64441" data-name="Path 64441" d="M637.464,94.714l.039-2.889a9.485,9.485,0,1,0-18.969,0l-.039,2.941a5.309,5.309,0,0,0-4.5,5.244v17.052a5.309,5.309,0,0,0,5.309,5.309h17.708a5.309,5.309,0,0,0,5.309-5.309V100.01A5.309,5.309,0,0,0,637.464,94.714Zm-6.917,18.094H625.92l.721-3.346a2.818,2.818,0,1,1,3.063-.051Zm4.871-18.12H620.54l.039-2.863a7.445,7.445,0,0,1,14.883,0Z" transform="translate(-241.177 -51.106)" fill="#e0e0e0"/>
      <path id="Path_64442" data-name="Path 64442" d="M589.1,90.569a11.838,11.838,0,0,1-.547-2.966,51.122,51.122,0,0,1-.3-7.278c.039-1.422.135-2.773.264-4a8.474,8.474,0,0,1,.817-3.217,3.751,3.751,0,0,1,1.6-1.609c.5-.232.8-.219.811-.187a4.169,4.169,0,0,0-2.008,1.995,8.906,8.906,0,0,0-.643,3.089c-.1,1.216-.174,2.574-.212,3.964-.084,2.818,0,5.373.109,7.22A17,17,0,0,1,589.1,90.569Z" transform="translate(-231.993 -47.167)" fill="#fff"/>
      <path id="Path_64443" data-name="Path 64443" d="M590.219,113.554c-.18,0-.341-.875-.36-1.969s.1-1.975.277-1.975.341.875.36,1.93S590.393,113.548,590.219,113.554Z" transform="translate(-232.573 -60.829)" fill="#fff"/>
    </g>
    <g id="freepik--Floor--inject-62" transform="translate(35.376 298.491)">
      <path id="Path_64444" data-name="Path 64444" d="M474.53,445.317c0,.1-98.225.167-219.358.167S35.8,445.414,35.8,445.317s98.2-.167,219.371-.167S474.53,445.227,474.53,445.317Z" transform="translate(-35.8 -445.15)" fill="#263238"/>
    </g>
    <g id="freepik--Device--inject-62" transform="translate(107.882 51.984)">
      <path id="Path_64445" data-name="Path 64445" d="M436.445,62.06H157.18a8.719,8.719,0,0,0-8.7,8.713V267.989a8.719,8.719,0,0,0,8.7,8.719H264.362s6.814,21.08-14.317,31.987H350.252s-23.84-8.178-17.728-31.987h103.92a8.719,8.719,0,0,0,8.713-8.719V70.773A8.713,8.713,0,0,0,436.445,62.06Z" transform="translate(-148.48 -62.06)" fill="#455a64"/>
      <path id="Path_64446" data-name="Path 64446" d="M379.67,362.48c3.8,5.431-2.149,11.376-7.58,7.58a1.893,1.893,0,0,1-.463-.47c-3.79-5.424,2.149-11.364,7.574-7.574A2.005,2.005,0,0,1,379.67,362.48Z" transform="translate(-227.612 -168.577)" fill="#263238"/>
      <path id="Path_64447" data-name="Path 64447" d="M162.209,67.67H436.765a6.242,6.242,0,0,1,6.242,6.242V242.629H156V73.912a6.242,6.242,0,0,1,6.21-6.242Z" transform="translate(-151.161 -64.06)" fill="#fff"/>
      <path id="Path_64448" data-name="Path 64448" d="M161.862,67.67H438.167a4.839,4.839,0,0,1,4.82,4.839v9.7H156V73.558a5.888,5.888,0,0,1,5.862-5.888Z" transform="translate(-151.161 -64.06)" fill="#ebebeb"/>
      <circle id="Ellipse_1935" data-name="Ellipse 1935" cx="2.014" cy="2.014" r="2.014" transform="translate(11.936 9.169)" fill="#e0e0e0"/>
      <circle id="Ellipse_1936" data-name="Ellipse 1936" cx="2.014" cy="2.014" r="2.014" transform="translate(17.946 9.169)" fill="#e0e0e0"/>
      <circle id="Ellipse_1937" data-name="Ellipse 1937" cx="2.014" cy="2.014" r="2.014" transform="translate(23.66 9.169)" fill="#e0e0e0"/>
      <path id="Path_64449" data-name="Path 64449" d="M420.042,395.587c0,.1-39.734.167-88.734.167s-88.747-.071-88.747-.167,39.728-.167,88.747-.167S420.042,395.5,420.042,395.587Z" transform="translate(-182.022 -180.913)" fill="#263238"/>
      <path id="Path_64450" data-name="Path 64450" d="M393.878,119.589,350.122,103.47l-43.338,15.907c-5.534,2.677-10.386,4.285-10.386,9.568v26.344a101.436,101.436,0,0,0,14.279,52.391,89.572,89.572,0,0,0,39.9,36.118c17.715-5.9,30.938-21.633,39.02-35.095a101.4,101.4,0,0,0,14.279-52.385V132.626C403.839,125.084,399.946,121.4,393.878,119.589Z" transform="translate(-201.217 -76.824)" fill="#efa00b"/>
      <g id="Group_160248" data-name="Group 160248" transform="translate(95.181 26.646)" opacity="0.8">
        <path id="Path_64451" data-name="Path 64451" d="M393.878,119.589,350.122,103.47l-43.338,15.907c-5.534,2.677-10.386,4.285-10.386,9.568v26.344a101.436,101.436,0,0,0,14.279,52.391,89.572,89.572,0,0,0,39.9,36.118c17.715-5.9,30.938-21.633,39.02-35.095a101.4,101.4,0,0,0,14.279-52.385V132.626C403.839,125.084,399.946,121.4,393.878,119.589Z" transform="translate(-296.398 -103.47)" fill="#fff"/>
      </g>
      <path id="Path_64452" data-name="Path 64452" d="M391.793,193.026H383.75V149.27a18.683,18.683,0,1,0-37.366,0v43.756H338.34V149.27a26.728,26.728,0,1,1,53.456,0Z" transform="translate(-216.171 -83.623)" fill="#efa00b"/>
      <g id="Group_160249" data-name="Group 160249" transform="translate(122.169 38.917)" opacity="0.4">
        <path id="Path_64453" data-name="Path 64453" d="M391.793,193.026H383.75V149.27a18.683,18.683,0,1,0-37.366,0v43.756H338.34V149.27a26.728,26.728,0,1,1,53.456,0Z" transform="translate(-338.34 -122.54)"/>
      </g>
      <rect id="Rectangle_147502" data-name="Rectangle 147502" width="72.036" height="46.214" rx="5.81" transform="translate(112.877 89.931)" fill="#efa00b"/>
      <g id="Group_160250" data-name="Group 160250" transform="translate(142.869 100.995)" opacity="0.5">
        <path id="Path_64454" data-name="Path 64454" d="M382.555,225.041a6.023,6.023,0,1,0-7.664,5.791v9.009h3.288v-9.009A6,6,0,0,0,382.555,225.041Z" transform="translate(-370.509 -219.014)"/>
      </g>
      <path id="Path_64455" data-name="Path 64455" d="M329.706,247.756c-.167,0-.3-7.722-.3-17.213s.129-17.213.3-17.213.3,7.722.3,17.213S329.873,247.756,329.706,247.756Z" transform="translate(-212.987 -115.993)" fill="#fafafa"/>
      <path id="Path_64456" data-name="Path 64456" d="M370.35,231.822a2.81,2.81,0,0,1-.708-.4,7.225,7.225,0,0,1-1.551-1.583,8.436,8.436,0,0,1,3-12.664,7.4,7.4,0,0,1,2.123-.714,1.93,1.93,0,0,1,.811-.045,18.253,18.253,0,0,0-2.7,1.132,8.365,8.365,0,0,0-2.851,12.052,17.815,17.815,0,0,0,1.879,2.22Z" transform="translate(-226.168 -117.085)" fill="#fafafa"/>
      <path id="Path_64457" data-name="Path 64457" d="M400.535,248.238s.174-.245.521-.7l.29-.386c.1-.148.193-.322.3-.508a7.613,7.613,0,0,0,.643-1.319c.1-.264.225-.534.328-.83s.174-.643.264-.952a5.956,5.956,0,0,0,.219-1.062,10.933,10.933,0,0,0,.167-1.171,22.459,22.459,0,0,0-.257-5.643,50.479,50.479,0,0,0-5.186-14.6,113.754,113.754,0,0,0-11.132-17.309,177.23,177.23,0,0,0-16.6-18.661,202.777,202.777,0,0,0-21.788-18.6c-4.073-2.986-8.365-5.888-12.869-8.622a125.408,125.408,0,0,0-14.311-7.5,66.921,66.921,0,0,0-15.919-4.987,28.257,28.257,0,0,0-8.494-.212,16.016,16.016,0,0,0-4.1,1.19,10.218,10.218,0,0,0-5.579,6.222,15.841,15.841,0,0,0-.714,4.208,28.144,28.144,0,0,0,1.165,8.417,66.758,66.758,0,0,0,6.769,15.25,124.96,124.96,0,0,0,9.086,13.371c3.217,4.183,6.6,8.114,10.032,11.814a202.811,202.811,0,0,0,20.964,19.542,178.131,178.131,0,0,0,20.417,14.369,113.778,113.778,0,0,0,18.461,9.086,50.674,50.674,0,0,0,15.1,3.488,21.945,21.945,0,0,0,5.637-.386,11.313,11.313,0,0,0,1.139-.29,7.524,7.524,0,0,0,1.036-.341l.914-.373c.283-.135.541-.29.785-.418a8.319,8.319,0,0,0,1.242-.811c.167-.129.335-.232.47-.347l.347-.335.643-.6-.611.644-.348.347c-.135.116-.3.225-.47.36a8.362,8.362,0,0,1-1.235.824c-.245.135-.5.29-.785.431l-.92.38a6.521,6.521,0,0,1-1.036.348,11.42,11.42,0,0,1-1.145.309,22.31,22.31,0,0,1-5.663.418,50.771,50.771,0,0,1-15.154-3.443,113.437,113.437,0,0,1-18.519-9.066,175.388,175.388,0,0,1-20.469-14.356,202.45,202.45,0,0,1-21.016-19.542c-3.443-3.706-6.821-7.644-10.057-11.833a125.843,125.843,0,0,1-9.118-13.4,67.352,67.352,0,0,1-6.808-15.327A28.514,28.514,0,0,1,286,156.788a15.934,15.934,0,0,1,.734-4.3,10.514,10.514,0,0,1,5.733-6.435,16.022,16.022,0,0,1,4.189-1.216,28.312,28.312,0,0,1,8.6.212,66.851,66.851,0,0,1,16,5.019,123.412,123.412,0,0,1,14.3,7.548c4.5,2.741,8.828,5.65,12.869,8.642a203.41,203.41,0,0,1,21.807,18.661,177.3,177.3,0,0,1,16.589,18.7,113.711,113.711,0,0,1,11.113,17.374,51,51,0,0,1,5.148,14.658,22.277,22.277,0,0,1,.225,5.675,10.8,10.8,0,0,1-.167,1.178,7.433,7.433,0,0,1-.232,1.068c-.1.335-.187.643-.27.959a7.181,7.181,0,0,1-.341.83,7.358,7.358,0,0,1-.682,1.319c-.109.187-.2.36-.3.508l-.3.38C400.7,248.012,400.535,248.238,400.535,248.238Z" transform="translate(-197.508 -91.489)" fill="#efa00b"/>
      <path id="Path_64458" data-name="Path 64458" d="M413.115,213.2s-.032-.3-.077-.869a3.36,3.36,0,0,0-.039-.483,3.683,3.683,0,0,0-.116-.579,7.992,7.992,0,0,0-.386-1.428c-.1-.264-.187-.547-.3-.837s-.29-.573-.444-.888a6.747,6.747,0,0,0-.566-.959c-.212-.309-.393-.643-.643-.978a22.239,22.239,0,0,0-3.951-4.041,50.9,50.9,0,0,0-13.584-7.445,114.066,114.066,0,0,0-19.832-5.508,177.2,177.2,0,0,0-24.8-2.863,203.341,203.341,0,0,0-28.647.644c-5.026.476-10.16,1.171-15.353,2.143a124.9,124.9,0,0,0-15.675,3.925,67.046,67.046,0,0,0-15.218,6.872,28.311,28.311,0,0,0-6.435,5.5,15.738,15.738,0,0,0-2.265,3.616,10.212,10.212,0,0,0,0,8.365A15.956,15.956,0,0,0,267.048,221a28.137,28.137,0,0,0,6.435,5.463,66.919,66.919,0,0,0,15.212,6.879,124.348,124.348,0,0,0,15.675,3.925c5.193.978,10.328,1.667,15.353,2.143a202.371,202.371,0,0,0,28.647.643,177.09,177.09,0,0,0,24.8-2.863A113.743,113.743,0,0,0,393,231.683a50.6,50.6,0,0,0,13.584-7.445,22.028,22.028,0,0,0,3.951-4.041,10.837,10.837,0,0,0,.643-.978,6.39,6.39,0,0,0,.541-.939l.444-.888c.116-.29.206-.573.3-.837a7.987,7.987,0,0,0,.386-1.429c.039-.206.09-.4.116-.573s0-.341.039-.483c.045-.579.077-.869.077-.869s0,.3-.045.869v.489a3.62,3.62,0,0,1-.109.579,8.053,8.053,0,0,1-.373,1.435c-.1.27-.18.553-.3.849l-.431.894a6.7,6.7,0,0,1-.54.946c-.212.315-.392.676-.643,1a22.075,22.075,0,0,1-3.957,4.08,50.718,50.718,0,0,1-13.6,7.516A114.011,114.011,0,0,1,373.22,237.4a177.242,177.242,0,0,1-24.831,2.915,202.849,202.849,0,0,1-28.692-.6c-5.032-.476-10.173-1.165-15.385-2.136a125.482,125.482,0,0,1-15.714-3.925,67.234,67.234,0,0,1-15.289-6.911,28.73,28.73,0,0,1-6.551-5.566,16.086,16.086,0,0,1-2.316-3.706,10.546,10.546,0,0,1,0-8.6,16.267,16.267,0,0,1,2.316-3.7,28.437,28.437,0,0,1,6.557-5.56,66.921,66.921,0,0,1,15.282-6.9,124.374,124.374,0,0,1,15.714-3.932c5.206-.972,10.347-1.66,15.379-2.136a202.808,202.808,0,0,1,28.692-.592,176.3,176.3,0,0,1,24.838,2.928,113.772,113.772,0,0,1,19.851,5.566,50.942,50.942,0,0,1,13.6,7.516,22.3,22.3,0,0,1,3.944,4.086,10.957,10.957,0,0,1,.643.991,7.518,7.518,0,0,1,.54.946l.431.9c.122.29.206.579.3.843a7.964,7.964,0,0,1,.373,1.441c.039.206.084.4.109.579a3.012,3.012,0,0,1,0,.483A5.988,5.988,0,0,1,413.115,213.2Z" transform="translate(-189.497 -106.175)" fill="#efa00b"/>
      <path id="Path_64459" data-name="Path 64459" d="M400.059,130.861s-.257-.154-.734-.47l-.405-.264c-.154-.09-.341-.167-.528-.264a8.158,8.158,0,0,0-1.364-.566c-.27-.084-.547-.193-.849-.277l-.984-.219a6.872,6.872,0,0,0-1.075-.148c-.38,0-.766-.1-1.178-.084a22.523,22.523,0,0,0-5.617.643,50.581,50.581,0,0,0-14.2,6.177,113.57,113.57,0,0,0-16.5,12.3,177.016,177.016,0,0,0-17.457,17.843A203.212,203.212,0,0,0,322.1,188.555c-2.7,4.266-5.3,8.745-7.722,13.448a125.614,125.614,0,0,0-6.5,14.8,66.848,66.848,0,0,0-3.861,16.228,28.067,28.067,0,0,0,.38,8.487,15.7,15.7,0,0,0,1.467,4.009,10.2,10.2,0,0,0,6.589,5.116,15.721,15.721,0,0,0,4.247.425,28.139,28.139,0,0,0,8.314-1.744,66.919,66.919,0,0,0,14.755-7.805,124.579,124.579,0,0,0,12.708-9.987c3.951-3.507,7.644-7.142,11.1-10.823A202.562,202.562,0,0,0,381.6,198.451a177.058,177.058,0,0,0,12.953-21.337,114.138,114.138,0,0,0,7.792-19.047,50.385,50.385,0,0,0,2.439-15.3,22.013,22.013,0,0,0-.772-5.6,10.881,10.881,0,0,0-.373-1.12,6.8,6.8,0,0,0-.405-1c-.154-.309-.3-.643-.431-.888s-.328-.521-.476-.753a7.972,7.972,0,0,0-.894-1.184c-.135-.161-.257-.315-.38-.444l-.36-.328c-.425-.386-.643-.592-.643-.592l.643.566.36.322c.129.129.251.283.393.444a7.2,7.2,0,0,1,.907,1.178c.154.238.328.483.489.753l.438.888a6.516,6.516,0,0,1,.425,1.01c.116.36.29.721.38,1.126a22.354,22.354,0,0,1,.811,5.617,50.607,50.607,0,0,1-2.394,15.353,113.7,113.7,0,0,1-7.76,19.1,177.21,177.21,0,0,1-12.914,21.408,202.877,202.877,0,0,1-18.017,22.309c-3.462,3.694-7.155,7.336-11.113,10.855a124.687,124.687,0,0,1-12.741,10.012,66.817,66.817,0,0,1-14.8,7.844,28.223,28.223,0,0,1-8.462,1.77,16.236,16.236,0,0,1-4.343-.438,10.534,10.534,0,0,1-6.8-5.276,16.011,16.011,0,0,1-1.5-4.1,28.532,28.532,0,0,1-.386-8.584,67.185,67.185,0,0,1,3.906-16.312,125.362,125.362,0,0,1,6.525-14.8c2.419-4.71,5.025-9.2,7.722-13.468a202.991,202.991,0,0,1,17.1-23.036,177.264,177.264,0,0,1,17.515-17.843,113.253,113.253,0,0,1,16.608-12.329,50.6,50.6,0,0,1,14.272-6.145,21.935,21.935,0,0,1,5.643-.643,11.338,11.338,0,0,1,1.184.09,6.934,6.934,0,0,1,1.081.154l.978.206c.3.09.579.193.849.283a7.666,7.666,0,0,1,1.364.586c.193.1.373.18.528.27l.4.27C399.821,130.688,400.059,130.861,400.059,130.861Z" transform="translate(-203.749 -85.729)" fill="#efa00b"/>
      <circle id="Ellipse_1938" data-name="Ellipse 1938" cx="2.773" cy="2.773" r="2.773" transform="translate(68.645 137.046)" fill="#efa00b"/>
      <path id="Path_64460" data-name="Path 64460" d="M502.707,141.16a2.773,2.773,0,1,1-.81-1.965,2.773,2.773,0,0,1,.81,1.965Z" transform="translate(-272.795 -89.27)" fill="#efa00b"/>
      <path id="Path_64461" data-name="Path 64461" d="M288.956,290.088a.708.708,0,1,1-.7-.708A.708.708,0,0,1,288.956,290.088Z" transform="translate(-198.059 -143.107)" fill="#efa00b"/>
      <path id="Path_64462" data-name="Path 64462" d="M312.346,169.268a.708.708,0,1,1-.708-.708A.708.708,0,0,1,312.346,169.268Z" transform="translate(-206.398 -100.031)" fill="#efa00b"/>
      <path id="Path_64463" data-name="Path 64463" d="M483.336,228a.7.7,0,1,1-.2-.5A.708.708,0,0,1,483.336,228Z" transform="translate(-267.362 -120.97)" fill="#efa00b"/>
      <path id="Path_64464" data-name="Path 64464" d="M498.566,176.911a.708.708,0,1,1-.7-.7A.708.708,0,0,1,498.566,176.911Z" transform="translate(-272.792 -102.758)" fill="#efa00b"/>
    </g>
    <g id="freepik--Plant--inject-62" transform="translate(382.765 151.947)">
      <path id="Path_64465" data-name="Path 64465" d="M675.52,338.9a24.072,24.072,0,0,1,10.3-3.533,6.847,6.847,0,0,1,4.858.894,1,1,0,0,1,.5.888,1.068,1.068,0,0,1-.476.6,14.673,14.673,0,0,1-15.147,1.145" transform="translate(-611.27 -259.438)" fill="#efa00b"/>
      <path id="Path_64466" data-name="Path 64466" d="M675.93,331.53a50.26,50.26,0,0,0,6.634-5.836,16.808,16.808,0,0,0,4.157-7.69,3.108,3.108,0,0,0-.328-2.574c-5.289,4.131-9.44,9.472-10.463,16.087" transform="translate(-611.416 -252.357)" fill="#efa00b"/>
      <path id="Path_64467" data-name="Path 64467" d="M672.673,332.034a23.988,23.988,0,0,0-.129-8.706,11.769,11.769,0,0,0-4.633-7.188c-.914,2.136-.521,4.594.122,6.827a33.151,33.151,0,0,0,4.594,9.684" transform="translate(-608.365 -252.61)" fill="#efa00b"/>
      <path id="Path_64468" data-name="Path 64468" d="M667.55,355.27a15.184,15.184,0,0,1,8.236,4.17,15.592,15.592,0,0,1,4.71,8.082c-3.089-.187-5.7-2.362-7.606-4.807s-3.217-5.116-5.3-7.393" transform="translate(-608.428 -266.561)" fill="#efa00b"/>
      <path id="Path_64469" data-name="Path 64469" d="M663.967,346.934a20.321,20.321,0,0,0-2.342-19.214,24.469,24.469,0,0,0,2.342,19.214" transform="translate(-605.971 -256.739)" fill="#efa00b"/>
      <path id="Path_64470" data-name="Path 64470" d="M655.135,370.234a14.684,14.684,0,0,1,14.053,8.082c.174.347.328.792.1,1.1a1.049,1.049,0,0,1-.933.277c-2.767-.18-5.219-1.847-7.239-3.739s-3.79-4.086-6.023-5.727" transform="translate(-603.986 -271.886)" fill="#efa00b"/>
      <path id="Path_64471" data-name="Path 64471" d="M653.067,358.783a26.169,26.169,0,0,0,.264-14.607c-.515-1.885-1.383-3.861-3.121-4.742a.6.6,0,0,0-.476-.084.644.644,0,0,0-.3.347,8.8,8.8,0,0,0-.734,4.189,26.39,26.39,0,0,0,.643,4.247c.547,2.574.837,5.379,2.259,7.612a15.576,15.576,0,0,1,.907,1.673c.27.573.27.772.515,1.223" transform="translate(-601.699 -260.88)" fill="#efa00b"/>
      <path id="Path_64472" data-name="Path 64472" d="M624.583,364.841a18.812,18.812,0,0,0-3.3-15.488c-.232-.309-.547-.643-.933-.6-.6.058-.746.843-.721,1.441a27.985,27.985,0,0,0,4.955,14.652" transform="translate(-591.342 -264.235)" fill="#efa00b"/>
      <path id="Path_64473" data-name="Path 64473" d="M614.55,372.524a22.522,22.522,0,0,1-18.48-3.758,14.947,14.947,0,0,1,10.006-1.229,14.294,14.294,0,0,1,8.474,4.987" transform="translate(-582.943 -270.805)" fill="#efa00b"/>
      <path id="Path_64474" data-name="Path 64474" d="M613.355,364.834a21.346,21.346,0,0,0-16.775-9.7,10.334,10.334,0,0,0,5.489,6.068,30.416,30.416,0,0,0,8.05,2.355c1.075.206,2.574.438,3.217,1.287" transform="translate(-583.125 -266.512)" fill="#efa00b"/>
      <path id="Path_64475" data-name="Path 64475" d="M625.573,333.732a48.642,48.642,0,0,1-2.149-9.826,16.532,16.532,0,0,1,1.93-9.716,21.471,21.471,0,0,1,.29,19.877" transform="translate(-592.672 -251.915)" fill="#efa00b"/>
      <path id="Path_64476" data-name="Path 64476" d="M599.071,328.695c-3.8-6.9-11.544-12.413-19.381-13.185,3.024,7.529,11.274,13.346,19.381,13.185" transform="translate(-577.103 -252.386)" fill="#efa00b"/>
      <path id="Path_64477" data-name="Path 64477" d="M601.273,337.453c-5.663.862-10.482,4.5-15.778,6.666a7.078,7.078,0,0,1-3.565.688,2.793,2.793,0,0,1-1.75-4.942,7.58,7.58,0,0,1,2.574-1.57,28.813,28.813,0,0,1,18.017-1" transform="translate(-576.918 -259.805)" fill="#efa00b"/>
      <path id="Path_64478" data-name="Path 64478" d="M609.713,344.1c-1.287.367-1.724,1.03-2.741,1.892a29.445,29.445,0,0,1-11.962,6.145c-.457.116-1.055.161-1.287-.251s.051-.8.309-1.12a16.441,16.441,0,0,1,7.233-4.9c2.76-1.03,5.148-2.265,8.449-2" transform="translate(-582.076 -262.484)" fill="#efa00b"/>
      <path id="Path_64479" data-name="Path 64479" d="M614.208,306.662a22.631,22.631,0,0,1-17.374,5.907,1.165,1.165,0,0,1-.785-.283c-.437-.476.084-1.21.592-1.6a20,20,0,0,1,17.554-4.022" transform="translate(-582.877 -249.013)" fill="#efa00b"/>
      <path id="Path_64480" data-name="Path 64480" d="M605.549,301.872A24.188,24.188,0,0,0,583.89,298.3a17.053,17.053,0,0,0,10.3,4.5,32.567,32.567,0,0,0,11.338-.959" transform="translate(-578.601 -245.845)" fill="#efa00b"/>
      <path id="Path_64481" data-name="Path 64481" d="M620.26,278.862c.5-5.09.174-9.112.528-14.234,0-.405.116-.9.5-1.049.534-.2.978.45,1.152,1a16.318,16.318,0,0,1-2.169,14.156" transform="translate(-591.568 -233.858)" fill="#efa00b"/>
      <path id="Path_64482" data-name="Path 64482" d="M614.627,279.356a29.878,29.878,0,0,1-8.442-8.2c-1.667-2.278-3.069-5.013-2.69-7.812a8.107,8.107,0,0,1,6.094,3,17.025,17.025,0,0,1,3.1,6.242c.676,2.239,1.145,4.543,1.93,6.75" transform="translate(-585.568 -233.785)" fill="#efa00b"/>
      <path id="Path_64483" data-name="Path 64483" d="M596.435,277.591a68.209,68.209,0,0,1-20.765-12.226c2.477-1,5.321-.405,7.8.6a24.587,24.587,0,0,1,13.075,11.582" transform="translate(-575.67 -234.324)" fill="#efa00b"/>
      <path id="Path_64484" data-name="Path 64484" d="M604.417,289.231a42.464,42.464,0,0,1-11.531.058,48.185,48.185,0,0,1-10.765-3.578,1.242,1.242,0,0,1-.727-.56.837.837,0,0,1,.257-.92,2.377,2.377,0,0,1,.92-.431,19.985,19.985,0,0,1,11.634.695,53.882,53.882,0,0,1,10.212,4.736" transform="translate(-577.694 -240.874)" fill="#efa00b"/>
      <path id="Path_64485" data-name="Path 64485" d="M650.434,297.888a20.379,20.379,0,0,0,.187-16.878c-1.589,2.426-1.782,5.508-1.493,8.365s1.171,5.856,1.223,8.751" transform="translate(-601.82 -240.085)" fill="#efa00b"/>
      <path id="Path_64486" data-name="Path 64486" d="M667.3,299.059a23.532,23.532,0,0,1,17.5,7.451,16.377,16.377,0,0,1-9.581-1.776,48.87,48.87,0,0,1-8.211-5.5" transform="translate(-608.232 -246.52)" fill="#efa00b"/>
      <path id="Path_64487" data-name="Path 64487" d="M678.369,295.232c3.217-.257,6.267-.643,9.337.29a11.167,11.167,0,0,1,7.117,6.036,16.865,16.865,0,0,1-8.751-1.654,50.028,50.028,0,0,1-7.722-4.672" transform="translate(-612.279 -245.048)" fill="#efa00b"/>
      <path id="Path_64488" data-name="Path 64488" d="M662.01,292.853c2.876-1.885,5.791-3.8,9.169-4.581s7.226-.2,9.562,2.323c-2.709,1.589-6,1.776-9.137,1.77s-6.988-.039-9.954,1.01" transform="translate(-606.325 -242.56)" fill="#efa00b"/>
      <path id="Path_64489" data-name="Path 64489" d="M662.087,284.679c4.91-4.826,6.776-13.513,4.794-20.089a30.584,30.584,0,0,0-4.794,20.089" transform="translate(-606.414 -234.231)" fill="#efa00b"/>
      <path id="Path_64490" data-name="Path 64490" d="M634.58,265.779c-.927-2.149-1.576-4.414-2.407-6.6a19.061,19.061,0,0,0-3.436-6.094,9.008,9.008,0,0,0-6.087-3.153,24.529,24.529,0,0,0,11.808,15.887" transform="translate(-592.42 -229.004)" fill="#efa00b"/>
      <path id="Path_64491" data-name="Path 64491" d="M645,274.2c1.531-2.111,3.307-4.974,5.386-6.551a9.028,9.028,0,0,1,7.323-1.93A17.065,17.065,0,0,1,645,274.2" transform="translate(-600.388 -234.57)" fill="#efa00b"/>
      <path id="Path_64492" data-name="Path 64492" d="M643.45,266.069a36.821,36.821,0,0,0,2.426-7.85,12.272,12.272,0,0,0-1.229-7.979c-2.7,5.1-3.565,10.566-1.332,15.887" transform="translate(-599.334 -229.115)" fill="#efa00b"/>
      <path id="Path_64493" data-name="Path 64493" d="M633.087,244.259c-1.525-5.058-6.152-8.777-11.151-10.489a4.177,4.177,0,0,0-1.93-.29,1.705,1.705,0,0,0-1.441,1.2c-.18.856.528,1.628,1.2,2.2a38.1,38.1,0,0,0,13.352,7.374" transform="translate(-590.953 -223.134)" fill="#efa00b"/>
      <path id="Path_64494" data-name="Path 64494" d="M636.839,234.4a36.364,36.364,0,0,0-1.461-9.652,12.2,12.2,0,0,0-6.074-7.336c-.5,3.295.946,6.57,2.7,9.4s3.861,5.5,4.916,8.661" transform="translate(-594.756 -217.41)" fill="#efa00b"/>
      <path id="Path_64495" data-name="Path 64495" d="M641.19,237.478c1.287-3.687,1.4-8.365,3.6-11.582,1.544-2.246,4.015-3.771,5.341-6.145a9.362,9.362,0,0,1-.309,6.975,20.391,20.391,0,0,1-4.08,5.843c-1.634,1.744-3.031,3.05-4.549,4.9" transform="translate(-599.03 -218.244)" fill="#efa00b"/>
      <path id="Path_64496" data-name="Path 64496" d="M641.061,355.05c.1,0,.187-24.568.193-54.869s-.071-54.881-.167-54.881-.18,24.568-.187,54.881S640.964,355.05,641.061,355.05Z" transform="translate(-598.926 -227.354)" fill="#efa00b"/>
      <path id="Path_64497" data-name="Path 64497" d="M607.78,301.48a5.087,5.087,0,0,0,.927.347l2.542.856c2.143.734,5.09,1.789,8.288,3.1s6.145,2.458,7.844,3.932a5.734,5.734,0,0,1,1.576,2.085c.245.579.29.933.322.927a.724.724,0,0,0,0-.257,3.855,3.855,0,0,0-.18-.721,5.489,5.489,0,0,0-1.551-2.214,13.786,13.786,0,0,0-3.4-2.117c-1.364-.643-2.87-1.287-4.5-1.93-3.217-1.287-6.171-2.336-8.365-3.011-1.081-.335-1.969-.586-2.574-.746A6.019,6.019,0,0,0,607.78,301.48Z" transform="translate(-587.118 -247.384)" fill="#efa00b"/>
      <path id="Path_64498" data-name="Path 64498" d="M596.85,274.619a2.654,2.654,0,0,0,.257.277l.785.74,2.947,2.67,9.793,8.725c3.861,3.4,7.13,6.653,9.42,9.105,1.145,1.223,2.053,2.233,2.664,2.941l.714.817a2.37,2.37,0,0,0,.264.27,2.419,2.419,0,0,0-.206-.315c-.148-.2-.367-.5-.643-.856-.586-.74-1.461-1.782-2.574-3.031a124.6,124.6,0,0,0-9.369-9.2c-3.861-3.4-7.329-6.435-9.865-8.648l-3.018-2.574-.837-.695A2.4,2.4,0,0,0,596.85,274.619Z" transform="translate(-583.221 -237.806)" fill="#efa00b"/>
      <path id="Path_64499" data-name="Path 64499" d="M623.15,294.577c.1-.045-.7-1.892-1.493-4.221s-1.184-4.3-1.287-4.285a14.573,14.573,0,0,0,.946,4.395,27.734,27.734,0,0,0,1.19,2.954A4.456,4.456,0,0,0,623.15,294.577Z" transform="translate(-591.607 -241.889)" fill="#efa00b"/>
      <path id="Path_64500" data-name="Path 64500" d="M641.12,312.453a4.845,4.845,0,0,0,.585-.682l1.512-1.93c1.287-1.641,3.018-3.906,4.987-6.377s3.771-4.7,5.077-6.306c.643-.766,1.139-1.4,1.544-1.93a4.454,4.454,0,0,0,.534-.727,4.158,4.158,0,0,0-.643.643c-.393.425-.952,1.055-1.634,1.84-1.358,1.564-3.217,3.764-5.148,6.242s-3.693,4.768-4.91,6.435c-.643.843-1.094,1.525-1.422,2.008a4.145,4.145,0,0,0-.483.785Z" transform="translate(-599.005 -244.895)" fill="#efa00b"/>
      <path id="Path_64501" data-name="Path 64501" d="M648.43,308.875a8.656,8.656,0,0,0,1.975-3.693,10.5,10.5,0,0,0,.444-3.726H650.7c.071.283.122.438.148.431s.032-.161,0-.457h-.154a17.174,17.174,0,0,1-.643,3.623,27.3,27.3,0,0,1-1.615,3.822Z" transform="translate(-601.611 -247.366)" fill="#efa00b"/>
      <path id="Path_64502" data-name="Path 64502" d="M657.88,300.277a6.587,6.587,0,0,1,1.377-.8,9.265,9.265,0,0,1,3.822-.3,23.49,23.49,0,0,1,3.861.643,12.5,12.5,0,0,0,1.589.386,5.346,5.346,0,0,0-1.519-.643,17.791,17.791,0,0,0-3.861-.734,8.365,8.365,0,0,0-3.944.425,2.42,2.42,0,0,0-1.326,1.023Z" transform="translate(-604.98 -246.413)" fill="#efa00b"/>
      <path id="Path_64503" data-name="Path 64503" d="M660.12,297c0,.051.8-.322,2.111-.772a21.306,21.306,0,0,1,10.63-.811c1.358.245,2.181.5,2.2.438a2.421,2.421,0,0,0-.56-.238,13.259,13.259,0,0,0-1.6-.444,18.659,18.659,0,0,0-5.444-.38,18.878,18.878,0,0,0-5.321,1.2,12.823,12.823,0,0,0-1.506.689C660.293,296.835,660.107,296.971,660.12,297Z" transform="translate(-605.779 -244.978)" fill="#efa00b"/>
      <path id="Path_64504" data-name="Path 64504" d="M641.19,280.1a42.847,42.847,0,0,0,1.538-5.347,43.842,43.842,0,0,0,1.2-5.431A88.131,88.131,0,0,0,641.19,280.1Z" transform="translate(-599.03 -235.918)" fill="#efa00b"/>
      <path id="Path_64505" data-name="Path 64505" d="M641,282.861a24.862,24.862,0,0,1,1.705-3.217,14.042,14.042,0,0,1,2.51-2.574,2.316,2.316,0,0,0-.972.5,7.772,7.772,0,0,0-1.828,1.885A7.007,7.007,0,0,0,641,282.861Z" transform="translate(-598.962 -238.681)" fill="#efa00b"/>
      <path id="Path_64506" data-name="Path 64506" d="M641.128,375.637c.039,0,.109-.592.386-1.634a23.393,23.393,0,0,1,1.647-4.253,58.546,58.546,0,0,1,8.706-12.277c1.93-2.22,3.861-4.318,5.437-6.325a44.478,44.478,0,0,0,3.861-5.6,26.658,26.658,0,0,0,1.931-4.157c.18-.508.315-.914.386-1.19a1.934,1.934,0,0,0,.1-.425s-.212.566-.643,1.564a30.537,30.537,0,0,1-2.046,4.086,47.3,47.3,0,0,1-3.925,5.521c-1.609,1.988-3.494,4.073-5.444,6.3a55.7,55.7,0,0,0-8.674,12.4,20.962,20.962,0,0,0-1.544,4.324,11.4,11.4,0,0,0-.219,1.235A1.848,1.848,0,0,0,641.128,375.637Z" transform="translate(-598.994 -261.035)" fill="#efa00b"/>
      <path id="Path_64507" data-name="Path 64507" d="M611,361.449a9.471,9.471,0,0,0,1.017.573,22.009,22.009,0,0,1,2.638,1.744,29.48,29.48,0,0,1,3.462,3.159c1.216,1.287,2.471,2.773,3.745,4.369,2.574,3.217,4.948,6.042,6.377,8.307a27.064,27.064,0,0,1,1.6,2.735,8.836,8.836,0,0,0,.56,1.03.848.848,0,0,0-.09-.29c-.077-.187-.18-.457-.347-.8a24.7,24.7,0,0,0-1.512-2.806,86,86,0,0,0-6.312-8.365c-1.287-1.6-2.574-3.1-3.784-4.382a28.253,28.253,0,0,0-3.552-3.134,18.382,18.382,0,0,0-2.722-1.66c-.335-.174-.611-.277-.792-.354A2.81,2.81,0,0,0,611,361.449Z" transform="translate(-588.266 -268.764)" fill="#efa00b"/>
      <path id="Path_64508" data-name="Path 64508" d="M610.41,372.491a15.272,15.272,0,0,0,2.149.309,28.57,28.57,0,0,1,5.1,1,15.444,15.444,0,0,1,4.562,2.394c1.055.817,1.551,1.486,1.6,1.448a1.928,1.928,0,0,0-.322-.5,8.472,8.472,0,0,0-1.126-1.12,13.826,13.826,0,0,0-4.614-2.535,22.862,22.862,0,0,0-5.18-.92A11.758,11.758,0,0,0,610.41,372.491Z" transform="translate(-588.056 -272.695)" fill="#efa00b"/>
      <path id="Path_64509" data-name="Path 64509" d="M628.81,375.264c.116-.064-.856-1.544-1.609-3.533s-.869-3.771-1-3.751a3.579,3.579,0,0,0,.039,1.152,12.338,12.338,0,0,0,.643,2.722,13.3,13.3,0,0,0,1.248,2.49,3.555,3.555,0,0,0,.676.92Z" transform="translate(-593.676 -271.093)" fill="#efa00b"/>
      <path id="Path_64510" data-name="Path 64510" d="M601.23,331.79a2.576,2.576,0,0,0,.347.18l1.01.457c.444.193.978.431,1.583.753s1.319.643,2.053,1.081l1.171.643c.412.238.811.515,1.242.779.862.528,1.731,1.171,2.651,1.834A45.516,45.516,0,0,1,621.512,348.1c.644.946,1.242,1.834,1.737,2.715.251.438.515.849.74,1.287l.643,1.2c.418.753.714,1.467,1,2.085s.521,1.165.7,1.609l.425,1.03a1.484,1.484,0,0,0,.174.347,1.531,1.531,0,0,0-.1-.373l-.367-1.049a16.6,16.6,0,0,0-.643-1.641c-.277-.643-.56-1.358-.965-2.123-.2-.386-.4-.792-.611-1.21s-.476-.843-.721-1.287c-.489-.894-1.1-1.8-1.725-2.754a43.884,43.884,0,0,0-10.3-10.656c-.933-.643-1.815-1.287-2.69-1.815-.431-.264-.843-.541-1.287-.772l-1.19-.644c-.753-.431-1.473-.74-2.091-1.036a16.245,16.245,0,0,0-1.615-.695l-1.036-.4a1.326,1.326,0,0,0-.36-.122Z" transform="translate(-584.783 -258.19)" fill="#efa00b"/>
      <path id="Path_64511" data-name="Path 64511" d="M620.012,346.354a2.477,2.477,0,0,0-.843-1.287,5.335,5.335,0,0,0-3.4-1.287,9.312,9.312,0,0,0-3.578.7,5.248,5.248,0,0,0-1.358.643,7.809,7.809,0,0,0,1.435-.418,10.939,10.939,0,0,1,3.488-.586,5.527,5.527,0,0,1,3.217,1.145A10.243,10.243,0,0,1,620.012,346.354Z" transform="translate(-588.206 -262.465)" fill="#efa00b"/>
      <path id="Path_64512" data-name="Path 64512" d="M627.908,347.9a13.319,13.319,0,0,1-.965-3.147,12.953,12.953,0,0,1,.219-3.282,2.156,2.156,0,0,0-.4.92,6.53,6.53,0,0,0,.547,4.7A2.215,2.215,0,0,0,627.908,347.9Z" transform="translate(-593.811 -261.641)" fill="#efa00b"/>
      <path id="Path_64513" data-name="Path 64513" d="M648.745,401c-.528,9.388-3.359,18.937-7.722,28.589H622.112c-4.15-9.555-6.789-19.092-7.252-28.589Z" transform="translate(-589.643 -282.866)" fill="#263238"/>
      <path id="Path_64514" data-name="Path 64514" d="M619.62,424.49c0,.1,6.235.18,13.918.18s13.918-.084,13.918-.18-6.229-.18-13.918-.18S619.62,424.394,619.62,424.49Z" transform="translate(-591.339 -291.176)" fill="#fafafa"/>
      <path id="Path_64515" data-name="Path 64515" d="M620.28,429.78c0,.1,5.843.174,13.05.174s13.043-.077,13.043-.174-5.836-.18-13.043-.18S620.28,429.677,620.28,429.78Z" transform="translate(-591.575 -293.062)" fill="#fafafa"/>
      <path id="Path_64516" data-name="Path 64516" d="M654.97,410.56a52.831,52.831,0,0,0,0,8.719A54.773,54.773,0,0,0,654.97,410.56Z" transform="translate(-603.879 -286.274)" fill="#fafafa"/>
      <path id="Path_64517" data-name="Path 64517" d="M639.211,410.56a56.629,56.629,0,0,0,0,9.009,58.744,58.744,0,0,0,0-9.009Z" transform="translate(-598.26 -286.274)" fill="#fafafa"/>
      <path id="Path_64518" data-name="Path 64518" d="M624.414,410.44a61.079,61.079,0,0,0,0,9.208A58.912,58.912,0,0,0,624.414,410.44Z" transform="translate(-592.987 -286.231)" fill="#fafafa"/>
      <path id="Path_64519" data-name="Path 64519" d="M615.79,410.46c0,.1,7.31.174,16.325.174s16.318-.077,16.318-.174-7.3-.18-16.318-.18S615.79,410.364,615.79,410.46Z" transform="translate(-589.974 -286.174)" fill="#fafafa"/>
    </g>
    <g id="freepik--Character--inject-62" transform="translate(73.013 62.688)">
      <path id="Path_64520" data-name="Path 64520" d="M103.518,412.8l-3.056,15.649-5.991,11.673a1.634,1.634,0,0,0,.811,2.246h0a1.615,1.615,0,0,0,1.493-.1c2.876-1.757,13.423-8.275,13.584-9.433.18-1.338,4.318-16.286,4.318-16.286Z" transform="translate(-94.292 -197.813)" fill="#efa00b"/>
      <path id="Path_64521" data-name="Path 64521" d="M95.83,452.885,111.138,442.3l-.148.643a2.445,2.445,0,0,1-.907,1.435c-1.274.946-4.736,3.52-12.715,8.416A1.628,1.628,0,0,1,95.83,452.885Z" transform="translate(-94.84 -208.331)" fill="#263238"/>
      <path id="Path_64522" data-name="Path 64522" d="M116.014,435.1a.984.984,0,0,0-.541,1.2.946.946,0,0,0,1.184.547,1.036,1.036,0,0,0,.566-1.287.991.991,0,0,0-1.287-.437" transform="translate(-101.827 -205.743)" fill="#ebebeb"/>
      <path id="Path_64523" data-name="Path 64523" d="M102.129,448.079a5.006,5.006,0,0,0-1.081-1.538,5.084,5.084,0,0,0-1.718-.734c0-.039.219-.116.6-.09a2.574,2.574,0,0,1,2.175,1.737C102.2,447.828,102.168,448.079,102.129,448.079Z" transform="translate(-96.088 -209.547)" fill="#263238"/>
      <path id="Path_64524" data-name="Path 64524" d="M99.749,451.36c-.09.052-.483-.56-1.235-.972a13.525,13.525,0,0,0-1.474-.528,1.8,1.8,0,0,1,1.647.225C99.543,450.556,99.839,451.341,99.749,451.36Z" transform="translate(-95.272 -210.989)" fill="#263238"/>
      <path id="Path_64525" data-name="Path 64525" d="M105.589,444.458a16.8,16.8,0,0,0-1.8-1.628,16.09,16.09,0,0,0-2.188-1.042,3.6,3.6,0,0,1,2.381.753,3.642,3.642,0,0,1,1.609,1.918Z" transform="translate(-96.897 -208.147)" fill="#263238"/>
      <path id="Path_64526" data-name="Path 64526" d="M107.642,437.975c-.064.084-.843-.463-1.93-.746s-2.059-.212-2.072-.315a3.1,3.1,0,0,1,2.156,0,3.166,3.166,0,0,1,1.847,1.062Z" transform="translate(-97.625 -206.341)" fill="#263238"/>
      <path id="Path_64527" data-name="Path 64527" d="M109.115,430.885a8.027,8.027,0,0,0-2.014-.836,7.825,7.825,0,0,0-2.181.071c0-.039.2-.2.6-.328a3.571,3.571,0,0,1,3.153.579C109,430.634,109.141,430.859,109.115,430.885Z" transform="translate(-98.081 -203.82)" fill="#263238"/>
      <path id="Path_64528" data-name="Path 64528" d="M107.5,427.3a1.345,1.345,0,0,1,.1-.592,4.305,4.305,0,0,1,.811-1.441,1.866,1.866,0,0,1,.965-.695.643.643,0,0,1,.695.3,1.062,1.062,0,0,1,.09.753,2.3,2.3,0,0,1-2.439,1.654,2.677,2.677,0,0,1-2.271-1.93.939.939,0,0,1,.122-.766.644.644,0,0,1,.734-.187,2.31,2.31,0,0,1,.907.759,4.6,4.6,0,0,1,.8,1.441,1.474,1.474,0,0,1,.122.592,7.414,7.414,0,0,0-1.107-1.873,2.071,2.071,0,0,0-.811-.643.335.335,0,0,0-.4.1.643.643,0,0,0-.051.508,2.387,2.387,0,0,0,1.988,1.647,2,2,0,0,0,2.085-1.371.778.778,0,0,0-.039-.534.348.348,0,0,0-.38-.167,1.609,1.609,0,0,0-.83.573A6.164,6.164,0,0,0,107.5,427.3Z" transform="translate(-98.259 -201.931)" fill="#263238"/>
      <path id="Path_64529" data-name="Path 64529" d="M183.414,414.69l2.606,15.726,5.643,11.846a1.628,1.628,0,0,1-.869,2.22h0a1.622,1.622,0,0,1-1.486-.148c-2.825-1.84-13.185-8.655-13.307-9.819-.148-1.345-3.861-16.408-3.861-16.408Z" transform="translate(-122.047 -198.487)" fill="#efa00b"/>
      <path id="Path_64530" data-name="Path 64530" d="M192.823,454.893,177.83,443.87l.122.643a2.478,2.478,0,0,0,.869,1.454c1.216.984,4.633,3.616,12.464,8.771a1.654,1.654,0,0,0,1.538.135Z" transform="translate(-124.076 -208.891)" fill="#263238"/>
      <path id="Path_64531" data-name="Path 64531" d="M180.6,436.771a.991.991,0,0,1,.508,1.216.959.959,0,0,1-1.2.515,1.036,1.036,0,0,1-.528-1.287.978.978,0,0,1,1.287-.393" transform="translate(-124.605 -206.341)" fill="#ebebeb"/>
      <path id="Path_64532" data-name="Path 64532" d="M193.534,450.15a4.968,4.968,0,0,1,1.145-1.48,4.832,4.832,0,0,1,1.737-.682c0-.045-.219-.129-.592-.109a2.574,2.574,0,0,0-2.226,1.673C193.476,449.886,193.5,450.143,193.534,450.15Z" transform="translate(-129.664 -210.319)" fill="#263238"/>
      <path id="Path_64533" data-name="Path 64533" d="M195.892,453.483c.09.052.5-.547,1.287-.933a13.193,13.193,0,0,1,1.493-.489,1.815,1.815,0,0,0-1.654.174C196.124,452.679,195.8,453.458,195.892,453.483Z" transform="translate(-130.51 -211.767)" fill="#263238"/>
      <path id="Path_64534" data-name="Path 64534" d="M189.53,446.424a17.617,17.617,0,0,1,1.847-1.577,16.316,16.316,0,0,1,2.22-.978,4.453,4.453,0,0,0-4.067,2.574Z" transform="translate(-128.247 -208.891)" fill="#263238"/>
      <path id="Path_64535" data-name="Path 64535" d="M187.68,439.865c.058.084.856-.444,1.975-.695s2.059-.154,2.078-.257a3.217,3.217,0,0,0-2.156-.084,3.16,3.16,0,0,0-1.9,1.036Z" transform="translate(-127.588 -207.041)" fill="#263238"/>
      <path id="Path_64536" data-name="Path 64536" d="M186.308,432.727a7.975,7.975,0,0,1,2.04-.772,7.873,7.873,0,0,1,2.175.129c0-.039-.193-.206-.592-.347a3.61,3.61,0,0,0-1.641-.129,3.546,3.546,0,0,0-1.519.644C186.43,432.489,186.275,432.7,186.308,432.727Z" transform="translate(-127.097 -204.504)" fill="#263238"/>
      <path id="Path_64537" data-name="Path 64537" d="M187.715,429.209a1.4,1.4,0,0,0-.1-.6,4.125,4.125,0,0,0-.759-1.461,1.847,1.847,0,0,0-.952-.727.644.644,0,0,0-.695.283,1.042,1.042,0,0,0-.116.753,2.317,2.317,0,0,0,2.387,1.725,2.683,2.683,0,0,0,2.323-1.866.927.927,0,0,0-.1-.766.643.643,0,0,0-.727-.212,2.233,2.233,0,0,0-.927.734,4.762,4.762,0,0,0-.843,1.416,1.506,1.506,0,0,0-.135.586,7.619,7.619,0,0,1,1.158-1.84,2.233,2.233,0,0,1,.83-.643.341.341,0,0,1,.393.116.643.643,0,0,1,.039.508,2.381,2.381,0,0,1-2.033,1.589,2,2,0,0,1-2.046-1.409.772.772,0,0,1,.058-.534.373.373,0,0,1,.386-.161,1.731,1.731,0,0,1,.811.6A6.282,6.282,0,0,1,187.715,429.209Z" transform="translate(-126.657 -202.627)" fill="#263238"/>
      <path id="Path_64538" data-name="Path 64538" d="M107.067,244.849c-1.454-2.214-7.484,117.993-7.078,118.688l15.881.225,8.642-64.231,4.7-49.116,7.548,46.15,9.3,67.635,17.374.245L152.689,241.869,130.232,229Z" transform="translate(-96.316 -132.283)" fill="#263238"/>
      <path id="Path_64539" data-name="Path 64539" d="M123.592,127.415s-4.839.849-6.724,2.5a21.976,21.976,0,0,0-3.745,5.354l-9.253,6.229,8.146,32.457-6.827,44.856,1.364,3.861,51.04-.849.972-3.52-5.276-40.77,2.316-27.36,2.13-10.99-9.24-4.138s4.234-1.287,4.427-2.046-9.543-5.727-9.543-5.727S128.026,124.642,123.592,127.415Z" transform="translate(-97.707 -95.611)" fill="#efa00b"/>
      <path id="Path_64540" data-name="Path 64540" d="M110.45,236.306c5.791,7.458,13.622,12.959,21.363,18.339a14.486,14.486,0,0,0,5.276,2.677,7.393,7.393,0,0,0,7.426-3.114c1.12-1.705,1.5-3.861,2.825-5.405.9-1.049,2.156-1.724,3.121-2.715a13.411,13.411,0,0,0,2-2.953l3.166-5.714c-3.861,0-7.4,1.879-10.875,3.533s-7.329,3.159-11.074,2.3c-5.193-1.19-8.5-6.473-13.513-8.333a11.28,11.28,0,0,0-9.652.92" transform="translate(-100.053 -134.152)" opacity="0.3"/>
      <path id="Path_64541" data-name="Path 64541" d="M101.027,149.929s-1.93,2.426-2.323,7.522S95,189.29,96.13,193.132s15.4,19.883,20.16,19.491l1.776-.644,1.7,1.319,7.606-5.7-16.762-21.1.9-30.372S106.329,148.752,101.027,149.929Z" transform="translate(-94.863 -104.046)" fill="#efa00b"/>
      <path id="Path_64542" data-name="Path 64542" d="M121.346,132a3.825,3.825,0,0,0-.418.347,7.523,7.523,0,0,0-1.023,1.21,23.039,23.039,0,0,0-1.332,2.194c-.508.907-1.165,1.84-1.86,2.947l-.109-.135a4.71,4.71,0,0,1,3.134,0,11.01,11.01,0,0,1,3.159,1.731,29.793,29.793,0,0,1,5.688,6.119,126.077,126.077,0,0,1,10.456,17.638v.084c-.077,2.651-.154,5.424-.238,8.256-.412,14.356-.779,27.347-1.049,36.774-.148,4.691-.264,8.494-.347,11.138-.045,1.287-.084,2.323-.109,3.031a4.45,4.45,0,0,1-.039.785,1.73,1.73,0,0,1,0,.27,1.719,1.719,0,0,1,0-.27v-.785c0-.714.032-1.731.052-3.031.058-2.651.135-6.435.238-11.145.225-9.414.521-22.412.952-36.774.084-2.831.161-5.611.238-8.262v.077a128.787,128.787,0,0,0-10.36-17.657,29.948,29.948,0,0,0-5.6-6.1,10.977,10.977,0,0,0-3.076-1.718,4.5,4.5,0,0,0-3.011,0l-.257.1.148-.225c.708-1.094,1.345-2.072,1.892-2.928s.952-1.615,1.377-2.175a6.7,6.7,0,0,1,1.068-1.184A2.1,2.1,0,0,1,121.346,132Z" transform="translate(-102.185 -97.699)" fill="#263238"/>
      <path id="Path_64543" data-name="Path 64543" d="M169.205,138c0,.051-.978.341-2.522.959a24.046,24.046,0,0,0-5.65,3.14,37.326,37.326,0,0,0-4.71,4.466l-1.332,1.461a3.218,3.218,0,0,1-.521.508,3.057,3.057,0,0,1,.425-.592c.283-.373.714-.894,1.287-1.531a31.187,31.187,0,0,1,4.678-4.575,21.551,21.551,0,0,1,5.791-3.1c.791-.29,1.441-.476,1.9-.6A2.613,2.613,0,0,1,169.205,138Z" transform="translate(-115.747 -99.838)" fill="#263238"/>
      <path id="Path_64544" data-name="Path 64544" d="M151.519,169.165a4.851,4.851,0,0,1,.064-.959c.071-.611.2-1.493.405-2.574.4-2.162,1.113-5.148,2.059-8.365a74.287,74.287,0,0,1,2.863-8.1c.438-1.017.83-1.815,1.126-2.355a5.185,5.185,0,0,1,.508-.811,5.511,5.511,0,0,1-.393.875c-.257.553-.643,1.364-1.023,2.381-.824,2.027-1.8,4.9-2.76,8.108s-1.692,6.145-2.149,8.294c-.232,1.068-.4,1.93-.508,2.542A5.964,5.964,0,0,1,151.519,169.165Z" transform="translate(-114.694 -102.691)" fill="#263238"/>
      <path id="Path_64545" data-name="Path 64545" d="M154,147.721a62.3,62.3,0,0,1,2.606-5.791,60.3,60.3,0,0,1,2.915-5.65,61.78,61.78,0,0,1-2.613,5.791A59.422,59.422,0,0,1,154,147.721Z" transform="translate(-115.58 -99.225)" fill="#263238"/>
      <path id="Path_64546" data-name="Path 64546" d="M156.45,171.839l.148-.315a1.113,1.113,0,0,0,.6.2c.257,0,.36-.077.36-.193,0-.347-1.068-.122-1.062-.811,0-.309.264-.566.785-.56a1.21,1.21,0,0,1,.643.174l-.135.322a1.055,1.055,0,0,0-.508-.154c-.251,0-.354.09-.354.206,0,.341,1.075.122,1.062.8,0,.309-.264.566-.791.56A1.287,1.287,0,0,1,156.45,171.839Z" transform="translate(-116.453 -111.304)" fill="#fff"/>
      <path id="Path_64547" data-name="Path 64547" d="M160.718,171.766v.341H159.29l.032-1.847h1.39v.341h-.965v.405h.856v.335h-.856v.425Z" transform="translate(-117.466 -111.34)" fill="#fff"/>
      <path id="Path_64548" data-name="Path 64548" d="M161.86,171.178a.959.959,0,0,1,1.017-.939.933.933,0,0,1,.753.341l-.277.244a.585.585,0,0,0-.457-.219.592.592,0,1,0,0,1.178.586.586,0,0,0,.463-.212l.27.257a.933.933,0,0,1-.766.315.946.946,0,0,1-1-.965Z" transform="translate(-118.382 -111.332)" fill="#fff"/>
      <path id="Path_64549" data-name="Path 64549" d="M166.387,171.626a2.127,2.127,0,0,1-.077-.27.674.674,0,0,0-.064-.18v.174c0,.354-.161.5-.418.489s-.412-.148-.405-.5V170.32H165v1.036a.772.772,0,0,0,.824.856.817.817,0,0,0,.688-.3A1.1,1.1,0,0,1,166.387,171.626Z" transform="translate(-119.499 -111.361)" fill="#fff"/>
      <path id="Path_64550" data-name="Path 64550" d="M167.31,171v.708a1.341,1.341,0,0,1,.051.148l.058.232a1.975,1.975,0,0,1,.039.6.856.856,0,0,0,.251-.643v-1.036Z" transform="translate(-120.325 -111.604)" fill="#fff"/>
      <path id="Path_64551" data-name="Path 64551" d="M169.755,172.977l-.347-.515h-.393v.515h-.425V171.13h.8c.489,0,.8.264.791.682a.592.592,0,0,1-.393.573l.405.6Zm-.38-1.5h-.347v.643h.347c.257,0,.393-.116.4-.315a.353.353,0,0,0-.4-.36Z" transform="translate(-120.781 -111.65)" fill="#fff"/>
      <path id="Path_64552" data-name="Path 64552" d="M171.63,171.1h.425v1.847h-.425Z" transform="translate(-121.865 -111.639)" fill="#fff"/>
      <path id="Path_64553" data-name="Path 64553" d="M173.232,171.477h-.592v-.347h1.6v.347h-.592v1.5h-.431Z" transform="translate(-122.225 -111.65)" fill="#fff"/>
      <path id="Path_64554" data-name="Path 64554" d="M176.18,172.337v.643h-.425v-.643l-.695-1.2h.457l.476.83.508-.811h.418Z" transform="translate(-123.088 -111.654)" fill="#fff"/>
      <path id="Path_64555" data-name="Path 64555" d="M168.485,173a1.744,1.744,0,0,1-.257-.483c-.142-.315-.328-.791-.534-1.383a24.969,24.969,0,0,1-1.094-4.775,24.511,24.511,0,0,1-.135-4.89c.051-.643.116-1.133.174-1.48a1.505,1.505,0,0,1,.129-.528,13.986,13.986,0,0,1-.064,2.014,30.417,30.417,0,0,0,1.216,9.588A19.741,19.741,0,0,1,168.485,173Z" transform="translate(-120.001 -107.489)" fill="#263238"/>
      <g id="Group_160251" data-name="Group 160251" transform="translate(36.563 39.362)" opacity="0.3">
        <path id="Path_64556" data-name="Path 64556" d="M152.63,160.89c-.27,2.291-1,3.423-1.042,5.727,0,.5-.791,8.3-.328,8.474s2.574-5.469,3.056-8.3c.354-2.22.978-5.148,1.351-7.355,1.081-6.467,3.481-9.948,6.846-15.578.643-1.062,3.011-3.964,3.011-3.964-.225-.148-1.171.3-1.827.6a36.62,36.62,0,0,0-5.3,3.565,64.442,64.442,0,0,0-2.728,5.862,83.691,83.691,0,0,0-3.1,11.344" transform="translate(-151.114 -139.865)"/>
      </g>
      <g id="Group_160252" data-name="Group 160252" transform="translate(14.773 40.736)" opacity="0.3">
        <path id="Path_64557" data-name="Path 64557" d="M119.309,142s-2.072,1.132-2.059,2.046a2.664,2.664,0,0,0,1.506,2.13,19.791,19.791,0,0,0,2.574.952,15.044,15.044,0,0,1,5.206,3.713,44.117,44.117,0,0,1,6.486,8.314c1.512,2.51,2.9,5.309,5.424,6.789-1.712-3.063-3.488-6.029-5.2-9.092a58.74,58.74,0,0,0-5.913-8.655c-2.226-2.7-5.856-5.978-8.018-6.2" transform="translate(-117.25 -142)"/>
      </g>
      <path id="Path_64558" data-name="Path 64558" d="M108.993,198.412a.643.643,0,0,1,0-.167,2.575,2.575,0,0,1,0-.5,4.05,4.05,0,0,1,2.954-3.43,4.112,4.112,0,0,1,3.565.791l-.251.122a32.231,32.231,0,0,1,.386-6.48c.322-2.117.714-4.112.933-5.939a48.4,48.4,0,0,0,.38-4.89c.039-1.4,0-2.529,0-3.307v-.9a1,1,0,0,1,0-.315,1.062,1.062,0,0,1,.045.309c0,.244.045.547.071.9.058.785.1,1.93.09,3.32a43.672,43.672,0,0,1-.309,4.916c-.206,1.847-.586,3.861-.914,5.958a33.743,33.743,0,0,0-.412,6.435v.341l-.264-.219a3.861,3.861,0,0,0-3.307-.779,3.694,3.694,0,0,0-2.22,1.531,4,4,0,0,0-.643,1.667A2.812,2.812,0,0,0,108.993,198.412Z" transform="translate(-99.529 -112.46)" fill="#263238"/>
      <path id="Path_64559" data-name="Path 64559" d="M111.49,226.172a1.176,1.176,0,0,1,.206.174c.142.148.328.328.56.553.5.47,1.235,1.165,2.226,1.969a33.133,33.133,0,0,0,3.751,2.645,14.8,14.8,0,0,0,2.49,1.255,3.218,3.218,0,0,0,1.435.212,2.123,2.123,0,0,0,1.326-.579l.1-.1.109.077c.534.418,1.113.862,1.705,1.287h-.187l7.6-5.708-.032.238-.135-.167c-2.291-2.857-4.337-5.675-6.235-8.2s-3.616-4.813-5.1-6.686-2.741-3.352-3.642-4.337c-.444-.5-.811-.869-1.055-1.12a2.694,2.694,0,0,1-.36-.4,3.052,3.052,0,0,1,.405.354c.264.232.643.592,1.107,1.075.933.965,2.22,2.413,3.732,4.279s3.256,4.118,5.148,6.647,3.97,5.334,6.255,8.178l.129.167.109.135-.135.1-7.612,5.695-.1.071-.1-.071-1.7-1.326h.212a2.407,2.407,0,0,1-1.531.643,3.455,3.455,0,0,1-1.551-.245,15.254,15.254,0,0,1-2.529-1.287,31.261,31.261,0,0,1-3.7-2.722,29.55,29.55,0,0,1-2.181-2.04l-.534-.579A1.134,1.134,0,0,1,111.49,226.172Z" transform="translate(-100.423 -124.539)" fill="#263238"/>
      <path id="Path_64560" data-name="Path 64560" d="M115.221,158.289c-.058,0-.3-.74-.927-1.86a13.044,13.044,0,0,0-1.248-1.86,14.8,14.8,0,0,0-1.93-1.963,15.306,15.306,0,0,0-2.271-1.531,13.833,13.833,0,0,0-2.053-.894c-1.216-.405-2.014-.508-2-.573a1.893,1.893,0,0,1,.566,0,8.656,8.656,0,0,1,1.506.315,12.27,12.27,0,0,1,2.13.849,13.8,13.8,0,0,1,2.336,1.544,13.95,13.95,0,0,1,1.93,2.027,11.839,11.839,0,0,1,1.216,1.93,9.472,9.472,0,0,1,.586,1.428A1.988,1.988,0,0,1,115.221,158.289Z" transform="translate(-98.035 -103.969)" fill="#263238"/>
      <g id="Group_160253" data-name="Group 160253" transform="translate(46.516 55.169)" opacity="0.3">
        <path id="Path_64561" data-name="Path 64561" d="M167.957,173.162c.212.457.965.174,1.055-.187a1.551,1.551,0,0,0-.232-1.1,19.3,19.3,0,0,1-2.117-7.445,18.409,18.409,0,0,0,1.293,8.732" transform="translate(-166.581 -164.43)"/>
      </g>
      <g id="Group_160254" data-name="Group 160254" transform="translate(9.004 80.075)" opacity="0.3">
        <path id="Path_64562" data-name="Path 64562" d="M108.456,208.338a4.234,4.234,0,0,1,1.93-4.845,2.478,2.478,0,0,1,1.377-.354c1.042.077,1.789,1,2.4,1.847a4.343,4.343,0,0,0-5.5,3.32" transform="translate(-108.285 -203.137)"/>
      </g>
      <path id="Path_64563" data-name="Path 64563" d="M184.477,150.75a18.2,18.2,0,0,1-.869,1.647,26.138,26.138,0,0,0-1.75,4.125,26.484,26.484,0,0,0-1.01,4.369,16.5,16.5,0,0,1-.27,1.847,7.631,7.631,0,0,1,0-1.879,20.861,20.861,0,0,1,2.825-8.577A7.393,7.393,0,0,1,184.477,150.75Z" transform="translate(-125.035 -104.384)" fill="#263238"/>
      <path id="Path_64564" data-name="Path 64564" d="M172.444,176.14c-.341.354-.438,3.352-.438,3.352,0,3.623.232,5.212.238,8.828a16.654,16.654,0,0,1-.4,4.453,16.263,16.263,0,0,1-.849,2.22,13.971,13.971,0,0,1-1.4,2.658A15.879,15.879,0,0,1,167.9,199.5a68.428,68.428,0,0,0-7.786,9.24L158.7,210.8l14.04-13.172.689-1.737.039-.206Z" transform="translate(-117.255 -113.436)" opacity="0.3"/>
      <path id="Path_64565" data-name="Path 64565" d="M176.9,146.36s2.214.837,3.365,5.791a178.17,178.17,0,0,1,3.346,18.764c.225,3.018,3.217,14.047.894,18.905s-13.371,19.851-17.747,20.334l-1.827-.463-1.93.328-5.373-6.19.47-1.77a1.769,1.769,0,0,1,0-1.866c.643-.882,14.349-13.764,14.349-13.764s-.528-.064-.643-.952c-.193-1.531,1.139-1.48,1.139-1.48l-.888-13.481Z" transform="translate(-116.874 -102.819)" fill="#efa00b"/>
      <path id="Path_64566" data-name="Path 64566" d="M186,210.108c-.058.084-1.068-.643-2.5-1.094s-2.677-.47-2.677-.573a5.148,5.148,0,0,1,2.78.251A5.025,5.025,0,0,1,186,210.108Z" transform="translate(-125.142 -124.922)" fill="#263238"/>
      <path id="Path_64567" data-name="Path 64567" d="M189.016,206.634a9.974,9.974,0,0,0-7.516-2.014,3.037,3.037,0,0,1,1.158-.3,7.831,7.831,0,0,1,5.5,1.474A2.966,2.966,0,0,1,189.016,206.634Z" transform="translate(-125.384 -123.468)" fill="#263238"/>
      <path id="Path_64568" data-name="Path 64568" d="M180.309,207.114a1,1,0,0,1-.508-.193,1.088,1.088,0,0,1-.36-.515,1.4,1.4,0,0,1,0-.766,1.692,1.692,0,0,1,.2-.47v.032a.978.978,0,0,1,.856-.573c.257,0,.393.058.386.1s-.142.039-.347.109a.862.862,0,0,0-.586.47h0a2.1,2.1,0,0,0-.154.386,1.081,1.081,0,0,0,.206,1.023C180.155,206.966,180.335,207.069,180.309,207.114Z" transform="translate(-124.631 -123.594)" fill="#263238"/>
      <path id="Path_64569" data-name="Path 64569" d="M179.838,175.12a3.1,3.1,0,0,1,.122.746c.058.483.122,1.184.187,2.046.142,1.731.277,4.125.393,6.769s.212,4.968.29,6.776c.032.811.058,1.5.077,2.053a3.416,3.416,0,0,1,0,.753,3.1,3.1,0,0,1-.122-.746c-.058-.483-.122-1.178-.187-2.046-.142-1.731-.27-4.125-.386-6.769s-.212-4.968-.29-6.776c-.032-.811-.064-1.493-.084-2.053a3.416,3.416,0,0,1,0-.753Z" transform="translate(-124.784 -113.073)" fill="#263238"/>
      <path id="Path_64570" data-name="Path 64570" d="M172.542,208.35a2.921,2.921,0,0,1-.341.335l-1.017.914-3.764,3.417c-1.583,1.461-3.468,3.217-5.54,5.251-1.036,1-2.13,2.085-3.217,3.217a3.778,3.778,0,0,0-.689.92,1.686,1.686,0,0,0-.116,1.1,6.157,6.157,0,0,1,.2,1.287,1.287,1.287,0,0,1-.688,1.2l.064-.264c.888,1.023,1.827,2.085,2.773,3.172l2.728,3.121-.154-.084,1.93-.328h0a8.589,8.589,0,0,0,2.265.367,4.259,4.259,0,0,0,1.93-.9,30.676,30.676,0,0,0,3.069-2.863c1.847-1.93,3.352-3.777,4.594-5.315s2.207-2.806,2.876-3.661c.328-.412.579-.74.772-.985a2.382,2.382,0,0,1,.283-.328,1.929,1.929,0,0,1-.232.36l-.727,1.017c-.643.882-1.583,2.162-2.806,3.726s-2.715,3.423-4.556,5.379a30.058,30.058,0,0,1-3.089,2.921,4.556,4.556,0,0,1-2.1.965,8.256,8.256,0,0,1-2.336-.36h.058l-1.93.328h-.1l-.058-.071L159.9,229.07l-2.773-3.179-.154-.18.219-.084a.939.939,0,0,0,.483-.894,5.927,5.927,0,0,0-.193-1.2,2.059,2.059,0,0,1,.148-1.287,4.066,4.066,0,0,1,.753-1q1.692-1.7,3.262-3.217c2.091-2.014,3.99-3.764,5.6-5.206s2.921-2.574,3.861-3.34l1.055-.869A2.5,2.5,0,0,1,172.542,208.35Z" transform="translate(-116.639 -124.92)" fill="#263238"/>
      <path id="Path_64571" data-name="Path 64571" d="M158.954,196c0,.1-8.77.045-19.587-.109s-19.587-.36-19.587-.45,8.77-.045,19.594.116S158.954,195.914,158.954,196Z" transform="translate(-103.379 -120.303)" fill="#263238"/>
      <path id="Path_64572" data-name="Path 64572" d="M155.131,204.59a1.219,1.219,0,0,1,0,.251,3.522,3.522,0,0,1-.116.7,14.246,14.246,0,0,1-.772,2.5,15.443,15.443,0,0,1-13.365,9.62,14.64,14.64,0,0,1-2.619-.064c-.309-.032-.54-.084-.7-.109a.8.8,0,0,1-.238-.064,28.434,28.434,0,0,0,3.539,0,15.759,15.759,0,0,0,13.165-9.478A29.4,29.4,0,0,0,155.131,204.59Z" transform="translate(-109.633 -123.58)" fill="#263238"/>
      <path id="Path_64573" data-name="Path 64573" d="M135.187,245.632c-.058.071-.425-.135-.759-.521s-.476-.772-.4-.824.341.245.643.6S135.245,245.561,135.187,245.632Z" transform="translate(-108.452 -137.731)" fill="#263238"/>
      <path id="Path_64574" data-name="Path 64574" d="M139.089,242.676c-.071.058-.347-.187-.643-.547s-.425-.7-.347-.753.354.193.643.553S139.166,242.625,139.089,242.676Z" transform="translate(-109.902 -136.693)" fill="#263238"/>
      <path id="Path_64575" data-name="Path 64575" d="M160.828,235.376c.045.084-.322.347-.785.643s-.849.547-.907.476.245-.431.721-.753S160.79,235.293,160.828,235.376Z" transform="translate(-117.408 -134.547)" fill="#263238"/>
      <path id="Path_64576" data-name="Path 64576" d="M163.7,238.167c.077.051-.148.541-.643,1s-.959.676-1,.6.335-.405.766-.837S163.618,238.116,163.7,238.167Z" transform="translate(-118.448 -135.549)" fill="#263238"/>
      <path id="Path_64577" data-name="Path 64577" d="M166.4,241.495c.064.064-.219.476-.695.849s-.939.56-.984.483.322-.386.779-.746S166.327,241.431,166.4,241.495Z" transform="translate(-119.4 -136.734)" fill="#263238"/>
      <path id="Path_64578" data-name="Path 64578" d="M128.53,135.07c.1-.039.862,1.93,2.175,4.086s2.638,3.79,2.574,3.861a5.206,5.206,0,0,1-.952-.984,22.222,22.222,0,0,1-1.892-2.7,21.149,21.149,0,0,1-1.474-2.953A4.819,4.819,0,0,1,128.53,135.07Z" transform="translate(-106.499 -98.793)" fill="#263238"/>
      <path id="Path_64579" data-name="Path 64579" d="M159.228,269.314a4.5,4.5,0,0,1-.547,0h-1.557l-5.733.051c-4.839.058-11.525.238-18.905.463s-14.079.373-18.918.367c-2.426,0-4.382,0-5.733-.051l-1.564-.045a2.96,2.96,0,0,1-.541-.039,3.541,3.541,0,0,1,.541-.032h1.564l5.727-.058c4.845-.058,11.525-.238,18.912-.463s14.073-.367,18.918-.367c2.419,0,4.382,0,5.733.052l1.557.051a3.007,3.007,0,0,1,.547.071Z" transform="translate(-98.37 -146.594)" fill="#263238"/>
      <path id="Path_64580" data-name="Path 64580" d="M160.44,247.21a1.422,1.422,0,0,0,1.351.643c.528,0,1.036-.193,1.557-.219a1.448,1.448,0,0,1,1.377.579,1.229,1.229,0,0,1-.039,1.19,2.42,2.42,0,0,1-.907.837,4.9,4.9,0,0,1-5.56-.534" transform="translate(-117.084 -138.775)" fill="#b78876"/>
      <path id="Path_64581" data-name="Path 64581" d="M143.34,256.481a31.179,31.179,0,0,0,4.974,4.028,2,2,0,0,0,1.287.444c.47-.077.837-.689.528-1.042a1.448,1.448,0,0,0,1.712.045,1.467,1.467,0,0,0,.521-1.557.045.045,0,0,1,.058-.051,1.628,1.628,0,0,0,1.416-.1,1.216,1.216,0,0,0,.528-1.358,1.25,1.25,0,0,0,1.988-.322,2.2,2.2,0,0,0-.373-2.252,11.159,11.159,0,0,0-1.782-1.609,3.552,3.552,0,0,1-1.338-1.93" transform="translate(-111.779 -140.048)" fill="#b78876"/>
      <path id="Path_64582" data-name="Path 64582" d="M152.707,263.838a3.443,3.443,0,0,1-1.692-1.094,3.378,3.378,0,0,1-1.075-1.705c.084-.045.547.708,1.287,1.474S152.758,263.748,152.707,263.838Z" transform="translate(-114.132 -143.705)" fill="#aa6550"/>
      <path id="Path_64583" data-name="Path 64583" d="M156.56,261.642a3.578,3.578,0,0,1-1.525-1.062,3.642,3.642,0,0,1-1.075-1.512c.084-.058.6.573,1.287,1.287A16.247,16.247,0,0,1,156.56,261.642Z" transform="translate(-115.565 -143.002)" fill="#aa6550"/>
      <path id="Path_64584" data-name="Path 64584" d="M159.864,259.421a3.217,3.217,0,0,1-1.461-.978,3.32,3.32,0,0,1-1.023-1.435c.077-.058.579.54,1.287,1.2S159.922,259.344,159.864,259.421Z" transform="translate(-116.785 -142.267)" fill="#aa6550"/>
      <path id="Path_64585" data-name="Path 64585" d="M135.219,236.44s-.193-.824,1.93-.56a24.267,24.267,0,0,0,5.431.347c2.374-.122,6.229-.8,6.229-.8l6.2,5.457s-6.338,5.566-8.236,6.557-5.753,3.462-7.953,3.346c-1.667-.09-1.815-.92-1.815-.92s-1.634-1.12-1.39-1.667c0,0-1.93-.109-1.57-1.589,0,0-1.383-.257-1.609-1.042s.817-1.712,1.223-2.111c.643-.644,6.28-4.775,6.306-4.89C139.948,238.6,135.129,238.113,135.219,236.44Z" transform="translate(-107.879 -134.575)" fill="#b78876"/>
      <path id="Path_64586" data-name="Path 64586" d="M140.08,246.39a16.432,16.432,0,0,1-2.535,2.162,16.729,16.729,0,0,1-2.735,1.93,16.248,16.248,0,0,1,2.535-2.168,17.263,17.263,0,0,1,2.735-1.924Z" transform="translate(-108.738 -138.483)" fill="#aa6550"/>
      <path id="Path_64587" data-name="Path 64587" d="M143.95,247.289a3.939,3.939,0,0,1-.74,1.01,16.467,16.467,0,0,1-4.742,3.706,3.9,3.9,0,0,1-1.158.47c-.051-.09,1.66-.933,3.494-2.368S143.873,247.218,143.95,247.289Z" transform="translate(-109.629 -138.802)" fill="#aa6550"/>
      <path id="Path_64588" data-name="Path 64588" d="M147.324,250.26a4.268,4.268,0,0,1-.837,1.132,12.007,12.007,0,0,1-5.791,3.481,4.125,4.125,0,0,1-1.4.212,21.771,21.771,0,0,0,4.369-1.827,21.51,21.51,0,0,0,3.655-3Z" transform="translate(-110.339 -139.863)" fill="#aa6550"/>
      <path id="Path_64589" data-name="Path 64589" d="M155.33,247.5a2.787,2.787,0,0,1-.47.483c-.315.3-.785.708-1.383,1.19a40.529,40.529,0,0,1-4.955,3.423c-1.017.592-2.008,1.12-2.928,1.557a10.294,10.294,0,0,1-2.574.952,4.1,4.1,0,0,1-1.847,0,1.5,1.5,0,0,1-.643-.27,4.5,4.5,0,0,0,2.413,0,11.474,11.474,0,0,0,2.471-1c.9-.45,1.885-.985,2.889-1.57a53.035,53.035,0,0,0,4.98-3.32C154.564,248.065,155.291,247.46,155.33,247.5Z" transform="translate(-110.777 -138.878)" fill="#aa6550"/>
      <path id="Path_64590" data-name="Path 64590" d="M138.759,79.344a11.119,11.119,0,0,0-12.11,10.238c-.386,5.148-.753,10.739-.759,13.558,0,6.036,6.016,7.078,6.016,7.078s-.174,1.789-.373,4.009a7.953,7.953,0,0,0,7.445,8.635h0a7.94,7.94,0,0,0,8.417-7.464l1.441-24.31A11.119,11.119,0,0,0,138.759,79.35Z" transform="translate(-105.558 -78.909)" fill="#b78876"/>
      <path id="Path_64591" data-name="Path 64591" d="M135.155,126.013a14.021,14.021,0,0,0,7.9-2.123s-2.02,4.363-8.037,3.732Z" transform="translate(-108.813 -94.808)" fill="#aa6550"/>
      <path id="Path_64592" data-name="Path 64592" d="M160.462,100.724c.1-.045,4.17-1.171,3.977,2.96s-4.292,3.082-4.3,2.96S160.462,100.724,160.462,100.724Z" transform="translate(-117.769 -86.486)" fill="#b78876"/>
      <path id="Path_64593" data-name="Path 64593" d="M162.208,105.9a1.317,1.317,0,0,0,.193.109.689.689,0,0,0,.534.039,1.8,1.8,0,0,0,.9-1.557,2.458,2.458,0,0,0-.154-1.036.856.856,0,0,0-.515-.579.373.373,0,0,0-.438.18c-.058.109-.039.193-.058.2s-.084-.071-.045-.245a.457.457,0,0,1,.174-.251.56.56,0,0,1,.405-.084,1.023,1.023,0,0,1,.721.643,2.432,2.432,0,0,1,.193,1.158,1.879,1.879,0,0,1-1.132,1.737.785.785,0,0,1-.643-.142C162.215,106,162.2,105.905,162.208,105.9Z" transform="translate(-118.505 -87.241)" fill="#aa6550"/>
      <path id="Path_64594" data-name="Path 64594" d="M130.71,99.974a.869.869,0,0,0,.824.882.817.817,0,0,0,.894-.766.856.856,0,0,0-.817-.882.83.83,0,0,0-.9.766Z" transform="translate(-107.276 -86.007)" fill="#263238"/>
      <path id="Path_64595" data-name="Path 64595" d="M129.433,98.171c.1.116.766-.36,1.692-.341s1.6.489,1.705.373-.058-.251-.354-.47a2.31,2.31,0,0,0-1.358-.444,2.278,2.278,0,0,0-1.351.412C129.478,97.92,129.381,98.12,129.433,98.171Z" transform="translate(-106.816 -85.324)" fill="#263238"/>
      <path id="Path_64596" data-name="Path 64596" d="M145.16,100.364a.862.862,0,0,0,.817.882.824.824,0,0,0,.9-.759.862.862,0,0,0-.817-.888.83.83,0,0,0-.9.766Z" transform="translate(-112.428 -86.146)" fill="#263238"/>
      <path id="Path_64597" data-name="Path 64597" d="M143.6,98.641c.1.116.766-.36,1.692-.341s1.6.489,1.705.38-.058-.257-.354-.476a2.342,2.342,0,0,0-1.358-.444,2.233,2.233,0,0,0-1.351.418C143.648,98.39,143.551,98.59,143.6,98.641Z" transform="translate(-111.868 -85.491)" fill="#263238"/>
      <path id="Path_64598" data-name="Path 64598" d="M136.921,105.471a6.12,6.12,0,0,0-1.506-.29c-.232,0-.457-.077-.5-.245a1.229,1.229,0,0,1,.167-.695l.727-1.8a31.813,31.813,0,0,0,1.641-4.7,31.15,31.15,0,0,0-2.014,4.549l-.695,1.808a1.358,1.358,0,0,0-.142.927.643.643,0,0,0,.386.354,1.692,1.692,0,0,0,.405.064A5.572,5.572,0,0,0,136.921,105.471Z" transform="translate(-108.655 -85.488)" fill="#263238"/>
      <path id="Path_64599" data-name="Path 64599" d="M141.936,93.454c.109.245,1.03.064,2.123.129s1.995.3,2.123.058c.058-.109-.116-.335-.483-.56a3.6,3.6,0,0,0-1.6-.444,3.533,3.533,0,0,0-1.628.3C142.078,93.126,141.891,93.339,141.936,93.454Z" transform="translate(-111.276 -83.663)" fill="#263238"/>
      <path id="Path_64600" data-name="Path 64600" d="M128.887,92.829c.161.212.8,0,1.57,0s1.416.167,1.57-.051c.064-.109-.032-.322-.315-.521a2.265,2.265,0,0,0-2.529.039C128.906,92.508,128.816,92.727,128.887,92.829Z" transform="translate(-106.618 -83.399)" fill="#263238"/>
      <path id="Path_64601" data-name="Path 64601" d="M151.1,92.745a7.078,7.078,0,0,1-.129,1.982,2.181,2.181,0,0,1-1.081,1.493,2.232,2.232,0,0,1-2.78-1.377,6.951,6.951,0,0,1-.18-3.436,16.6,16.6,0,0,0,0-4.723,6.769,6.769,0,0,0-2.207-4.086,4.311,4.311,0,0,0-4.44-.7,24.218,24.218,0,0,0-2.374,1.7,3.623,3.623,0,0,1-2.5.592c-.869-.148-2.04-.759-1.892-1.622.341-2.014-1.055-.322-.965-.643.154-.566,1.319-1.551,1.8-1.93a6.435,6.435,0,0,1,2.767-1.1,14.433,14.433,0,0,1,7.882.894,10.225,10.225,0,0,1,5.611,5.367c1.158,2.844.978,4.569.586,7.632" transform="translate(-107.93 -78.694)" fill="#263238"/>
      <path id="Path_64602" data-name="Path 64602" d="M139.341,113.858c0,.187-.759.373-1.718.425s-1.75-.051-1.763-.238.766-.38,1.724-.431S139.335,113.684,139.341,113.858Z" transform="translate(-109.112 -91.14)" fill="#263238"/>
      <path id="Path_64603" data-name="Path 64603" d="M156.779,99.435a4.33,4.33,0,0,1-1.287-.277c-.766-.232-1.8-.643-2.921-1.068l-2.87-1.158a5.6,5.6,0,0,1-1.19-.5,4.6,4.6,0,0,1,1.287.277c.766.232,1.8.643,2.921,1.068l2.87,1.158A5.437,5.437,0,0,1,156.779,99.435Z" transform="translate(-113.622 -85.017)" fill="#263238"/>
      <path id="Path_64604" data-name="Path 64604" d="M131.126,95.488a1.235,1.235,0,0,1,1.081,1.023,5.148,5.148,0,0,1-3.758,5.759,2.992,2.992,0,0,1-2.355-.225,3.625,3.625,0,0,1-1.338-2.992,3.861,3.861,0,0,1,.412-2.407,3.468,3.468,0,0,1,2.78-1.287,31.527,31.527,0,0,1,3.179.129Z" transform="translate(-105.137 -84.635)" fill="#263238"/>
      <path id="Path_64605" data-name="Path 64605" d="M141.551,95.752a1.242,1.242,0,0,0-1.12,1.01,5.193,5.193,0,0,0,3.629,5.926,3.044,3.044,0,0,0,2.387-.154,3.775,3.775,0,0,0,1.441-2.992,3.86,3.86,0,0,0-.347-2.445,3.5,3.5,0,0,0-2.773-1.383c-1.068-.084-3.217.039-3.217.039Z" transform="translate(-110.711 -84.752)" fill="#263238"/>
      <path id="Path_64606" data-name="Path 64606" d="M139.818,95.894a18.184,18.184,0,0,1-3.539.1,19.806,19.806,0,0,1-3.539-.238,18.228,18.228,0,0,1,3.546-.1,19.767,19.767,0,0,1,3.533.238Z" transform="translate(-108 -84.726)" fill="#263238"/>
      <path id="Path_64607" data-name="Path 64607" d="M161,128.652v-.1a1.285,1.285,0,0,1,0-.3,3.282,3.282,0,0,1,.4-1.068,7.52,7.52,0,0,0,.727-1.6,8.18,8.18,0,0,0,.27-2.316c0-.869-.109-1.808-.174-2.857a1.474,1.474,0,0,1,.2-.837.785.785,0,0,1,.843-.386.643.643,0,0,1,.412.315.508.508,0,0,1,0,.553.811.811,0,0,1-.972.187,1.448,1.448,0,0,1-.766-1.679,1.48,1.48,0,0,1,.573-.837,1.023,1.023,0,0,1,.5-.2.643.643,0,0,1,.566.193.586.586,0,0,1,.142.611.6.6,0,0,1-.54.328,1.27,1.27,0,0,1-.695-2.381,1.287,1.287,0,0,1,.927-.167.92.92,0,0,1,.438.257.56.56,0,0,1,.148.534.573.573,0,0,1-.393.386,1.1,1.1,0,0,1-.476.039,1.66,1.66,0,0,1-.811-.36,1.435,1.435,0,0,1-.528-1.583,1.287,1.287,0,0,1,1.39-.817.766.766,0,0,1,.643.643.573.573,0,0,1-.174.457.74.74,0,0,1-.418.18,1.126,1.126,0,0,1-.753-.277,1.77,1.77,0,0,1-.483-.586,1.087,1.087,0,0,1,.3-1.377.779.779,0,0,1,1.2.476v.09l-.077.039a1.132,1.132,0,0,1-1.564-.56.959.959,0,0,1,.071-.83,1.184,1.184,0,0,1,.579-.515.965.965,0,0,1,.734,0,.547.547,0,0,1,.354.592.386.386,0,0,1-.232.283.489.489,0,0,1-.335,0,.644.644,0,0,1-.347-.457,5.013,5.013,0,0,1,0-1.525,2.148,2.148,0,0,1,.109-.521,7.768,7.768,0,0,0,.051,2.008.47.47,0,0,0,.264.341.219.219,0,0,0,.322-.148c.071-.328-.47-.534-.824-.347a.849.849,0,0,0-.508,1.055.888.888,0,0,0,1.2.425l-.064.129a.515.515,0,0,0-.785-.277.8.8,0,0,0-.187,1.017,1.2,1.2,0,0,0,.939.688c.174,0,.335-.161.309-.3a.47.47,0,0,0-.38-.347.939.939,0,0,0-1.017.643,1.1,1.1,0,0,0,.431,1.21,1.384,1.384,0,0,0,.643.29c.219,0,.476-.045.5-.187s-.135-.328-.347-.373a.9.9,0,0,0-.643.129.972.972,0,0,0-.47.643.927.927,0,0,0,.257.766.952.952,0,0,0,.727.322c.277,0,.335-.2.18-.386s-.438-.109-.643.045a1.2,1.2,0,0,0-.45.643,1.145,1.145,0,0,0,.579,1.287c.212.1.508.071.6-.071a.293.293,0,0,0-.225-.418.508.508,0,0,0-.528.264,1.165,1.165,0,0,0-.161.643c.051,1.01.148,1.988.135,2.87a8.166,8.166,0,0,1-.335,2.362,6.505,6.505,0,0,1-.791,1.615,3.476,3.476,0,0,0-.444,1.017A1.128,1.128,0,0,0,161,128.652Z" transform="translate(-118.07 -90.098)" fill="#e0e0e0"/>
      <path id="Path_64608" data-name="Path 64608" d="M163.645,107.145a2.265,2.265,0,0,0-.27-.888,1.055,1.055,0,0,0-.746-.508.811.811,0,0,0-.817.521.843.843,0,0,0,.3.914h0l.071.051c.109.064.264.077.367.142a.74.74,0,0,1,.283.689,7.78,7.78,0,0,0-.058.779c0,.187.122.405.309.412s.283-.161.347-.309a3.288,3.288,0,0,0,.212-1.8Z" transform="translate(-118.352 -88.339)" fill="#e0e0e0"/>
      <path id="Path_64609" data-name="Path 64609" d="M134.319,128.394a9.229,9.229,0,0,0-1.4,3.127,45.251,45.251,0,0,0,.849,6.042,8.628,8.628,0,0,0,1.351,3.288l.837,1.229a28.66,28.66,0,0,1,3.011,5.669c1.634,4.131,4.376,11.081,4.5,11.409a26.046,26.046,0,0,0,1.216,2.426l1.454-17.341,4.376-8.674a5.894,5.894,0,0,0,.643-2.426l.1-2.78a3.932,3.932,0,0,0-1.017-2.773h0l-.219,2.51-7.252,6.589-8.423-5.663Z" transform="translate(-108.06 -96.127)" fill="#fff"/>
      <path id="Path_64610" data-name="Path 64610" d="M142.956,141.82a4.369,4.369,0,0,0-1.519,1.428,16.221,16.221,0,0,0-1.757,4.8c-.051.193-.1.386-.142.566l-.064.257-.206-.174a32.341,32.341,0,0,1-3.4-3.4,12.224,12.224,0,0,1-1.255-1.506,11.2,11.2,0,0,1,1.422,1.351,47.551,47.551,0,0,0,3.449,3.295l-.27.09.142-.566a14.58,14.58,0,0,1,1.892-4.852,3.635,3.635,0,0,1,1.165-1.094,1.287,1.287,0,0,1,.547-.2Z" transform="translate(-108.666 -101.2)" fill="#263238"/>
      <path id="Path_64611" data-name="Path 64611" d="M153.045,146.5a19.765,19.765,0,0,1-1.634,2.658l-.264.4v-.489a9.908,9.908,0,0,0-.45-2.355,13.062,13.062,0,0,0-1.287-3.655,10.007,10.007,0,0,0-1.03-1.223,1.781,1.781,0,0,1,.386.219,3.862,3.862,0,0,1,.843.869,11.306,11.306,0,0,1,1.416,3.7,8.886,8.886,0,0,1,.425,2.452l-.27-.09a20.009,20.009,0,0,1,1.866-2.484Z" transform="translate(-113.576 -101.204)" fill="#263238"/>
      <path id="Path_64612" data-name="Path 64612" d="M149.622,165.556c-.09,0-.5-5.251-.92-11.743s-.682-11.756-.592-11.763.508,5.251.927,11.743S149.712,165.549,149.622,165.556Z" transform="translate(-113.473 -101.282)" fill="#263238"/>
      <path id="Path_64613" data-name="Path 64613" d="M125.146,99.622a1.654,1.654,0,0,1-.077-1.512c.277-.843.927-1.242.965-1.165a9.8,9.8,0,0,0-.643,1.287C125.159,98.985,125.242,99.6,125.146,99.622Z" transform="translate(-105.212 -85.197)" fill="#e0e0e0"/>
      <path id="Path_64614" data-name="Path 64614" d="M141.5,100.24c-.071.058-.5-.489-.489-1.287s.418-1.364.489-1.287-.161.592-.154,1.287S141.583,100.195,141.5,100.24Z" transform="translate(-110.948 -85.456)" fill="#e0e0e0"/>
    </g>
  </g>
</svg>
