<svg id="Group_19244" data-name="Group 19244" xmlns="http://www.w3.org/2000/svg" width="97.95" height="194.043" viewBox="0 0 97.95 194.043">
  <g id="freepik--background-complete--inject-228" transform="translate(0 0)">
    <path id="Path_59157" data-name="Path 59157" d="M96.966,95.434a11.307,11.307,0,0,0-8.72,1.59,19.851,19.851,0,0,0-6.183,6.586c-3.1,5-4.141,11.681-4.24,17.554,6.523-.325,12.014-5.505,14.685-8.3,4.184-4.438,8.989-14.989,4.459-17.427" transform="translate(-29.358 -95.156)" fill="#f5f5f5"/>
    <path id="Path_59158" data-name="Path 59158" d="M126.96,129.962a9.653,9.653,0,0,0,3.237-9.144,12.847,12.847,0,0,0-5.6-8.176,5.415,5.415,0,0,0-4.417-1.1,4.141,4.141,0,0,0-2.643,3.244,8.48,8.48,0,0,0,.544,4.318c1.7,4.735,4.2,9.01,8.876,10.862" transform="translate(-88.94 -99.918)" fill="#f5f5f5"/>
    <path id="Path_59159" data-name="Path 59159" d="M121.907,147.366a19.207,19.207,0,0,0,1.844-3.42,17.667,17.667,0,0,0,1.3-4.042,39.223,39.223,0,0,0,.841-5.1,19.448,19.448,0,0,0-1.47-9.279,14.3,14.3,0,0,0-1.413-2.473,4.221,4.221,0,0,0-.707-.77,19.721,19.721,0,0,1,2.975,12.473,45.86,45.86,0,0,1-.749,5.046,19.844,19.844,0,0,1-1.131,3.979A22.423,22.423,0,0,0,121.907,147.366Z" transform="translate(-87.675 -103.111)" fill="#e0e0e0"/>
    <path id="Path_59160" data-name="Path 59160" d="M117.667,106.45a10.981,10.981,0,0,0-1.371,1.413c-.841.94-2.049,2.318-3.533,4.028-2.947,3.427-6.968,8.2-11.307,13.582s-8.077,10.374-10.692,14.035c-1.321,1.837-2.374,3.328-3.081,4.374a11.561,11.561,0,0,0-1.053,1.668,11.71,11.71,0,0,0,1.258-1.512l3.251-4.24c2.742-3.59,6.558-8.523,10.869-13.9l11.123-13.71,3.364-4.155A12.393,12.393,0,0,0,117.667,106.45Z" transform="translate(-54.455 -98.469)" fill="#e0e0e0"/>
    <path id="Path_59161" data-name="Path 59161" d="M82.123,145.021a22.614,22.614,0,0,1,20.494-2.586c1.71.636,3.533,1.83,3.618,3.654s-1.738,3.124-3.427,3.83a19.3,19.3,0,0,1-20.932-4.5" transform="translate(-39.666 -112.898)" fill="#f5f5f5"/>
    <path id="Path_59162" data-name="Path 59162" d="M116.84,146.417a3.294,3.294,0,0,0-.982-.339c-.636-.177-1.576-.382-2.742-.6a25.638,25.638,0,0,0-9.293-.078A16.026,16.026,0,0,0,99,147.244a15.455,15.455,0,0,0-5.032,4.855,3.236,3.236,0,0,0-.5.9c.106.078.912-1.159,2.579-2.827a15.7,15.7,0,0,1,7.908-4.169,28.755,28.755,0,0,1,9.088-.106C115.377,146.205,116.819,146.488,116.84,146.417Z" transform="translate(-58.461 -114.361)" fill="#e0e0e0"/>
    <path id="Path_59163" data-name="Path 59163" d="M70.369,290.845C49.3,280.612,41.077,256.705,38.314,234.48c-.466-3.71-1.491-7.533-.247-11.052s4.982-6.36,8.537-5.35c2.94.848,4.643,3.851,6.593,6.24a21.907,21.907,0,0,0,9.971,6.89c2.544.841,5.569,1.124,7.689-.523,2.9-2.261,2.579-6.72,1.972-10.388L69.436,199.8c-.608-3.668-1.215-7.413-.629-11.081s2.594-7.3,5.929-8.833,7.971-.2,9.279,3.265c.551,1.449.488,3.046.834,4.558s1.321,3.074,2.827,3.272,2.827-1.074,3.76-2.325c3.194-4.311,5.01-9.491,6.657-14.621s3.2-10.36,6-14.946,7.067-8.551,12.247-9.689,11.307,1.223,13.469,6.169,0,10.692-2.643,15.406a82.929,82.929,0,0,1-14.473,18.967,7.033,7.033,0,0,0-2.36,3.533c-.41,2.572,2.3,4.636,4.841,5.053,2.876.473,5.8-.283,8.72-.4s6.212.65,7.724,3.18c2.12,3.533-.41,7.943-3.088,11.01a70.944,70.944,0,0,1-18.847,15.286c-2.537,1.413-5.244,2.735-7.116,4.982s-2.664,5.752-.94,8.127,5.236,2.664,7.978,1.689,5.032-2.919,7.569-4.332c4.735-2.707,11.307-3.4,15.229.445,2.579,2.53,3.4,6.487,2.869,10.077a27.085,27.085,0,0,1-4.12,9.95c-6.572,10.77-15.7,20.056-26.762,25.97s-21.716,8.749-34.02,6.36" transform="translate(-37.473 -133.486)" fill="#ebebeb"/>
    <path id="Path_59164" data-name="Path 59164" d="M54.561,292.956c-.594-8.883-.989-4.275.509-15.943a336.589,336.589,0,0,1,7.42-37.454l2.452-9.731c.813-3.187,1.611-6.36,2.594-9.4a165.659,165.659,0,0,1,6.622-17.179c2.367-5.364,4.813-10.367,7.137-15.024s4.572-8.982,6.805-12.812a132.249,132.249,0,0,1,11.823-17.285c1.548-1.922,2.827-3.371,3.661-4.346l.989-1.1a2.424,2.424,0,0,1,.353-.36,2.692,2.692,0,0,1-.3.41c-.233.283-.544.657-.933,1.145-.827,1-2.042,2.48-3.533,4.424a139.926,139.926,0,0,0-11.611,17.363c-2.191,3.837-4.41,8.141-6.721,12.8s-4.714,9.674-7.067,15.031A166.429,166.429,0,0,0,68.2,220.642c-.968,3.032-1.76,6.169-2.572,9.371s-1.618,6.438-2.445,9.717a341.88,341.88,0,0,0-7.463,37.4c-1.512,11.632-1.18,6.975-.65,15.83" transform="translate(-18.676 -134.424)" fill="#e0e0e0"/>
    <path id="Path_59165" data-name="Path 59165" d="M118.489,232.185a7.964,7.964,0,0,1-.608-1.512c-.353-.982-.82-2.417-1.364-4.2-1.1-3.576-2.452-8.558-3.922-14.056s-2.89-10.459-4.042-14c-.565-1.774-1.046-3.208-1.413-4.191a7.364,7.364,0,0,1-.459-1.562,7.772,7.772,0,0,1,.707,1.463c.417.961.968,2.367,1.6,4.134,1.272,3.533,2.77,8.48,4.24,13.971s2.735,10.346,3.731,14.134c.452,1.689.841,3.116,1.152,4.24a6.756,6.756,0,0,1,.382,1.583Z" transform="translate(-69.445 -134.712)" fill="#e0e0e0"/>
    <path id="Path_59166" data-name="Path 59166" d="M87.676,225.48a10.078,10.078,0,0,1-1.852.53c-1.187.3-2.919.707-5.039,1.314-4.24,1.159-10.056,2.954-16.381,5.222s-11.957,4.586-15.985,6.36c-2.021.883-3.639,1.639-4.756,2.12a9.838,9.838,0,0,1-1.774.749,10.3,10.3,0,0,1,1.654-.989c1.088-.587,2.678-1.413,4.678-2.353,3.986-1.9,9.611-4.29,15.95-6.572a168.449,168.449,0,0,1,16.494-5.046c2.12-.53,3.894-.89,5.109-1.109A10.734,10.734,0,0,1,87.676,225.48Z" transform="translate(7.153 -145.962)" fill="#e0e0e0"/>
    <path id="Path_59167" data-name="Path 59167" d="M157.348,303.968a4.382,4.382,0,0,1-.417-.523l-1.081-1.576c-.926-1.378-2.219-3.4-3.788-5.922-3.138-5.046-7.251-12.148-11.681-20.048s-8.48-15.031-11.5-20.133c-1.484-2.473-2.7-4.516-3.6-6.028-.389-.657-.707-1.2-.975-1.647a2.488,2.488,0,0,1-.3-.6,4.383,4.383,0,0,1,.417.523l1.131,1.576c.933,1.378,2.226,3.4,3.795,5.922,3.116,5.06,7.229,12.127,11.66,20.048s8.48,15.031,11.5,20.133c1.484,2.473,2.7,4.516,3.6,6.028l.968,1.647a2.394,2.394,0,0,1,.269.6Z" transform="translate(-120.544 -162.339)" fill="#e0e0e0"/>
    <path id="Path_59168" data-name="Path 59168" d="M99.226,284.7a2.51,2.51,0,0,1-.579.353l-1.7.9-6.36,3.244c-5.378,2.742-12.763,6.614-20.911,10.9s-15.547,8.091-21.017,10.727c-2.714,1.314-4.947,2.353-6.466,3.046l-1.781.784a2.577,2.577,0,0,1-.636.226,2.51,2.51,0,0,1,.579-.353l1.724-.9,6.36-3.244c5.378-2.742,12.763-6.614,20.911-10.9s15.547-8.1,21.01-10.727c2.721-1.314,4.947-2.353,6.473-3.046l1.753-.8a2.58,2.58,0,0,1,.636-.212Z" transform="translate(-2.906 -173.254)" fill="#e0e0e0"/>
  </g>
  <g id="freepik--Plant--inject-228" transform="translate(17.613 100.199)">
    <path id="Path_59170" data-name="Path 59170" d="M122.769,269.212s-4.876-3.293-10.968,8.388a152.776,152.776,0,0,0-8.424,18.43s-1.6,2.445-3.279.82-3.943-6.2-6.827-5.406-4,4.134-3.477,9.024,1.272,15.646,1.336,16.614-.495,2.353-1.809,1.413-8.869-9.491-12.72-5.653-.163,17.208.212,18.678.085,2.12-.615,2.452-2.968-2.763-5.215-5.109-5.265-4.685-7.3-2.29-2.777,12.4,6.6,28.755l4.841,7.293,8.784-.4c18.748-2.014,26.416-8.48,27.151-11.54s-2.912-4.127-6.134-4.565-7.067-.445-7.2-1.223.212-1.378,1.625-1.936,14.409-5.427,15.243-10.791-10.53-6.445-12.056-6.975-.707-1.795.1-2.3,9.971-6.226,14.233-8.678,6.36-5.208,5.265-8.113c-1.046-2.827-6.085-1.943-8.388-2.346s-1.258-3.138-1.258-3.138a150.3,150.3,0,0,0,9.971-17.667c5.872-11.823.2-13.83.2-13.83" transform="translate(-62.4 -268.784)" fill="#efa00b"/>
    <path id="Path_59171" data-name="Path 59171" d="M115.648,284.18a2.129,2.129,0,0,0-.12.2l-.332.629-1.237,2.41-4.523,8.89c-3.851,7.5-9.187,17.844-15.017,29.271S83.239,347.371,79.48,354.9c-1.866,3.76-3.371,6.812-4.424,8.939l-1.18,2.438-.3.643c-.064.141-.092.219-.092.219a1.713,1.713,0,0,0,.127-.2l.325-.622c.3-.572.707-1.413,1.237-2.417,1.081-2.12,2.622-5.145,4.523-8.89,3.788-7.5,9.137-17.851,15.024-29.264s11.173-21.794,14.911-29.327l4.452-8.939c.5-1.046.9-1.866,1.18-2.438.127-.269.226-.481.3-.643A.827.827,0,0,0,115.648,284.18Z" transform="translate(-60.755 -273.3)" fill="#263238"/>
    <path id="Path_59172" data-name="Path 59172" d="M97.99,310.1a17.433,17.433,0,0,0,.488,2.3c.339,1.505.777,3.413,1.265,5.533s.947,4.106,1.314,5.519c.191.707.353,1.265.481,1.654a2.119,2.119,0,0,0,.233.587,22.571,22.571,0,0,0-.481-2.3l-1.223-5.54c-.495-2.162-.975-4.113-1.364-5.519-.2-.707-.367-1.265-.495-1.647A2.156,2.156,0,0,0,97.99,310.1Z" transform="translate(-64.199 -280.903)" fill="#263238"/>
    <path id="Path_59173" data-name="Path 59173" d="M71.59,330.361c0,.085,4.042-.947,8.975-2.318s8.9-2.544,8.876-2.636-4.035.947-8.968,2.311S71.569,330.27,71.59,330.361Z" transform="translate(-33.213 -285.391)" fill="#263238"/>
    <path id="Path_59174" data-name="Path 59174" d="M89.72,360.045a2.425,2.425,0,0,0,.643.092c.41.042,1.011.085,1.753.12,1.484.071,3.533.12,5.809.057s4.311-.226,5.788-.382c.707-.078,1.336-.155,1.753-.219a2.323,2.323,0,0,0,.629-.134,19.175,19.175,0,0,0-2.4.113c-1.484.1-3.533.219-5.788.283s-4.3.057-5.788.042a18.666,18.666,0,0,0-2.4.028Z" transform="translate(-62.678 -295.416)" fill="#263238"/>
    <path id="Path_59175" data-name="Path 59175" d="M112.69,341.34a14.416,14.416,0,0,0,.982,1.993c.65,1.208,1.562,2.869,2.586,4.692s1.972,3.47,2.671,4.65a14.131,14.131,0,0,0,1.194,1.873,14.414,14.414,0,0,0-.982-1.993c-.65-1.208-1.562-2.869-2.586-4.692s-1.972-3.47-2.671-4.643A14.582,14.582,0,0,0,112.69,341.34Z" transform="translate(-92.941 -290.066)" fill="#263238"/>
    <path id="Path_59176" data-name="Path 59176" d="M126.79,364.1a3.075,3.075,0,0,0,.318.707l1,1.83c.848,1.534,2.042,3.646,3.378,5.971s2.565,4.424,3.47,5.929c.424.707.791,1.293,1.081,1.781a3.132,3.132,0,0,0,.438.622,3.3,3.3,0,0,0-.318-.707l-1-1.83c-.848-1.541-2.042-3.654-3.378-5.978s-2.565-4.417-3.47-5.922l-1.081-1.781a3.845,3.845,0,0,0-.438-.622Z" transform="translate(-119.252 -296.742)" fill="#263238"/>
    <path id="Path_59177" data-name="Path 59177" d="M97.63,386.774a3.288,3.288,0,0,0,.813.071c.53,0,1.293.035,2.233.042,1.88,0,4.487,0,7.357-.191s5.47-.4,7.335-.622c.94-.106,1.7-.212,2.212-.29a3.531,3.531,0,0,0,.806-.163,4.482,4.482,0,0,0-.82,0l-2.219.184c-1.873.163-4.466.367-7.328.523s-5.463.24-7.342.29l-2.233.064a4.192,4.192,0,0,0-.813.092Z" transform="translate(-80.559 -303.05)" fill="#263238"/>
  </g>
</svg>
