<svg xmlns="http://www.w3.org/2000/svg" xmlns:xlink="http://www.w3.org/1999/xlink" width="329.899" height="210.845" viewBox="0 0 329.899 210.845">
  <defs>
    <clipPath id="clip-path">
      <path id="Path_59424" data-name="Path 59424" d="M163.288,242.33a1.362,1.362,0,1,0,2.339,0H167.2a1.378,1.378,0,0,0-.192.689,1.362,1.362,0,1,0,2.531-.689h1.6a1.324,1.324,0,0,0-.192.689,1.362,1.362,0,1,0,2.531-.689h1.575a1.324,1.324,0,0,0-.192.689,1.362,1.362,0,1,0,2.718,0,1.324,1.324,0,0,0-.192-.689h1.575a1.362,1.362,0,1,0,2.531.689,1.324,1.324,0,0,0-.192-.689h1.548a1.362,1.362,0,1,0,2.339,0h.988v28.122H162.77V242.33Z" transform="translate(-162.77 -242.33)" fill="none"/>
    </clipPath>
  </defs>
  <g id="Telecommuting-pana_1_" data-name="Telecommuting-pana (1)" transform="translate(2.065)">
    <g id="freepik--background-simple--inject-4" transform="translate(28.401)">
      <path id="Path_59335" data-name="Path 59335" d="M158.482,109.474l1.452-2.766a66.04,66.04,0,0,1,58.823-35.64,64.072,64.072,0,0,1,8.452.63,69.1,69.1,0,0,1,52.2,38.977c5.537,12.115,7.817,26.344,17.39,35.613,12.451,12.056,32.148,11.127,49.4,9.419s36.959-2.59,49.362,9.525c7.753,7.571,16.83,27.9,16.979,38.747.4,28.747-19.435,56.506-46.185,67.03-28.106,11.052-60.868,12.852-89.4,9.168C237.018,275.009,201.249,255,176.464,223.26S142.9,146.587,158.482,109.474Z" transform="translate(-150.709 -71.065)" fill="#e0e0e0"/>
    </g>
    <g id="freepik--Chair--inject-4" transform="translate(44.538 130.602)">
      <path id="Path_59336" data-name="Path 59336" d="M519.391,323.235a8.757,8.757,0,0,0-8.543-7.352c-18.442-.246-65.4-.667-67.916,1.329-3.14,2.493-4.805,3.77-4.533,7.726.23,3.631,4.186,66.362,4.186,66.362h87.891Z" transform="translate(-438.37 -315.669)" fill="#372c51"/>
      <path id="Path_59337" data-name="Path 59337" d="M592.767,395.565a1.331,1.331,0,0,0,.027-.187,2.639,2.639,0,0,1,.043-.534c.037-.491.091-1.2.155-2.088s.139-2.024.182-3.316.128-2.766.128-4.394c0-.817,0-1.671.027-2.558s0-1.815-.032-2.771c0-1.917-.112-3.962-.2-6.114-.246-4.3-.651-9.023-1.308-13.952s-1.554-9.611-2.467-13.8c-.486-2.1-.934-4.1-1.436-5.948-.246-.924-.465-1.821-.71-2.67s-.486-1.671-.71-2.456c-.438-1.57-.913-2.963-1.3-4.2s-.753-2.285-1.068-3.145-.534-1.506-.7-1.976l-.192-.534c-.043-.112-.069-.171-.069-.171a.847.847,0,0,0,.043.182l.166.534c.155.475.374,1.143.657,2s.646,1.917,1.014,3.156.833,2.638,1.255,4.207c.224.785.454,1.6.694,2.461s.454,1.757.694,2.67c.491,1.847.929,3.85,1.41,5.943.9,4.207,1.757,8.863,2.44,13.786s1.068,9.611,1.329,13.925c.1,2.136.214,4.191.23,6.108,0,.956.048,1.879.048,2.766v2.552c0,1.629-.059,3.1-.091,4.394s-.08,2.4-.128,3.31-.08,1.6-.1,2.1v.534a1,1,0,0,0-.021.192Z" transform="translate(-578.525 -319.901)" fill="#fff"/>
      <path id="Path_59338" data-name="Path 59338" d="M489.307,375.149a.312.312,0,0,1-.133-.053,1.293,1.293,0,0,0-.406,0,1.832,1.832,0,0,0-1.287.758,2.1,2.1,0,0,0-.128,2.189,2.8,2.8,0,0,0,.854,1.031,2.669,2.669,0,0,0,1.362.475,2.21,2.21,0,0,0,1.4-.368,1.751,1.751,0,0,0,.726-1.143,2.387,2.387,0,0,0-.673-2.1c-.988-.844-1.858-.87-1.842-.79s.048,0,.133,0a2.222,2.222,0,0,1,.374.128,3.861,3.861,0,0,1,1.2.774,2.221,2.221,0,0,1,.561,1.917,1.49,1.49,0,0,1-.63.966,1.933,1.933,0,0,1-1.228.315,2.4,2.4,0,0,1-1.223-.422,2.429,2.429,0,0,1-.785-.918,1.911,1.911,0,0,1,.059-1.965,1.821,1.821,0,0,1,1.137-.764,4.273,4.273,0,0,1,.529-.027Z" transform="translate(-425.649 -343.359)" fill="#263238"/>
      <path id="Path_59339" data-name="Path 59339" d="M494.88,360.132c0,.059.908-.107,2.36.027a10.817,10.817,0,0,1,8.863,6.231c.625,1.319.774,2.221.833,2.211a2.519,2.519,0,0,0-.1-.635,9.078,9.078,0,0,0-.534-1.655,10.518,10.518,0,0,0-9.039-6.327,9.475,9.475,0,0,0-1.746.048A2.451,2.451,0,0,0,494.88,360.132Z" transform="translate(-445.003 -336.313)" fill="#263238"/>
      <path id="Path_59340" data-name="Path 59340" d="M480.543,386.9a1.848,1.848,0,0,0-.208-.454,6.824,6.824,0,0,0-.774-1.111,8.239,8.239,0,0,0-8.105-2.766,7.289,7.289,0,0,0-1.292.411,1.934,1.934,0,0,0-.443.23c0,.053.662-.251,1.773-.448a8.586,8.586,0,0,1,7.924,2.7C480.169,386.3,480.495,386.927,480.543,386.9Z" transform="translate(-405.176 -346.759)" fill="#263238"/>
      <path id="Path_59341" data-name="Path 59341" d="M494.07,389.492a3.405,3.405,0,0,0,.9-.651,10.072,10.072,0,0,0,1.746-2.056,9.845,9.845,0,0,0,1.137-2.44,3.2,3.2,0,0,0,.219-1.095,19.708,19.708,0,0,1-1.6,3.385,20.67,20.67,0,0,1-2.4,2.857Z" transform="translate(-435.709 -347.167)" fill="#263238"/>
      <path id="Path_59342" data-name="Path 59342" d="M544.871,376.537a.587.587,0,0,0-.133-.053,1.293,1.293,0,0,0-.406,0,1.853,1.853,0,0,0-1.287.758,2.136,2.136,0,0,0-.133,2.189,2.819,2.819,0,0,0,.86,1.03,2.67,2.67,0,0,0,1.362.475,2.211,2.211,0,0,0,1.4-.368,1.773,1.773,0,0,0,.726-1.143,2.387,2.387,0,0,0-.667-2.141c-.988-.838-1.858-.87-1.842-.79s.048,0,.133.027a2.223,2.223,0,0,1,.374.128,3.86,3.86,0,0,1,1.2.774,2.221,2.221,0,0,1,.534,1.917,1.511,1.511,0,0,1-.63.966,1.933,1.933,0,0,1-1.228.315,2.4,2.4,0,0,1-1.223-.422,2.43,2.43,0,0,1-.785-.918,1.911,1.911,0,0,1,.059-1.965,1.821,1.821,0,0,1,1.137-.764A4.269,4.269,0,0,1,544.871,376.537Z" transform="translate(-510.89 -344.004)" fill="#263238"/>
      <path id="Path_59343" data-name="Path 59343" d="M550.44,361.5c0,.059.908-.107,2.36.027a10.818,10.818,0,0,1,8.853,6.21c.625,1.319.774,2.221.833,2.21a2.525,2.525,0,0,0-.1-.635,9.082,9.082,0,0,0-.534-1.655,10.518,10.518,0,0,0-9.029-6.327,9.478,9.478,0,0,0-1.746.048A2.449,2.449,0,0,0,550.44,361.5Z" transform="translate(-530.218 -336.942)" fill="#263238"/>
      <path id="Path_59344" data-name="Path 59344" d="M536.123,388.293a1.847,1.847,0,0,0-.208-.454,7.185,7.185,0,0,0-.774-1.111,8.265,8.265,0,0,0-8.105-2.766,7.518,7.518,0,0,0-1.3.411,1.6,1.6,0,0,0-.438.235c0,.048.662-.256,1.773-.454a8.575,8.575,0,0,1,7.918,2.7C535.749,387.689,536.075,388.319,536.123,388.293Z" transform="translate(-490.432 -347.409)" fill="#263238"/>
      <path id="Path_59345" data-name="Path 59345" d="M549.65,390.9a3.406,3.406,0,0,0,.9-.651A10.249,10.249,0,0,0,552.3,388.2a9.848,9.848,0,0,0,1.137-2.44,3.2,3.2,0,0,0,.219-1.068,19.754,19.754,0,0,1-1.6,3.38A20.664,20.664,0,0,1,549.65,390.9Z" transform="translate(-520.965 -347.838)" fill="#263238"/>
    </g>
    <g id="freepik--Cushion--inject-4" transform="translate(41.476 89.778)">
      <path id="Path_59346" data-name="Path 59346" d="M445.37,268.16c23.653-23.37,53.1-28.95,53.1-28.95,17.513,10.444,29.329,27.973,38.326,49.01-15.089,13.962-34.492,27.348-51.1,28.576C459.444,310.159,445.37,268.16,445.37,268.16Z" transform="translate(-445.37 -239.21)" fill="#efa00b"/>
      <g id="Group_18658" data-name="Group 18658" opacity="0.4">
        <path id="Path_59347" data-name="Path 59347" d="M445.37,268.16c23.653-23.37,53.1-28.95,53.1-28.95,17.513,10.444,29.329,27.973,38.326,49.01-15.089,13.962-34.492,27.348-51.1,28.576C459.444,310.159,445.37,268.16,445.37,268.16Z" transform="translate(-445.37 -239.21)"/>
      </g>
      <path id="Path_59348" data-name="Path 59348" d="M501.705,292.256a.845.845,0,0,0,.059-.16l.15-.48c.134-.438.32-1.068.566-1.879l2.077-7.064-.1.059,11.6,3.738-.075-.069a.349.349,0,0,0,.032.059c.032.043.112.064.139.043a.149.149,0,0,0,.075-.075.476.476,0,0,0,0-.085v-7.806c0-1.4.059-2.819.139-4.271a38.274,38.274,0,0,1,.459-4.426l-.166.107L527.27,272.4l6.407,1.49.139.032v-.139c.95-4.987,1.858-9.723,2.67-14.09l-.16.1a95.125,95.125,0,0,0,16.851,2.942h.085v-.085c.443-3.631.8-6.514,1.036-8.506.117-.977.2-1.741.267-2.264.027-.251.043-.443.059-.587a1.871,1.871,0,0,0,0-.2.7.7,0,0,0-.037.192,5.326,5.326,0,0,1-.091.582c-.069.534-.176,1.287-.31,2.264-.262,1.986-.641,4.869-1.116,8.495l.1-.08a96.811,96.811,0,0,1-16.7-2.963l-.133-.037v.133c-.838,4.368-1.751,9.1-2.707,14.085l.166-.107-6.407-1.5-10.551-2.445-.139-.032v.139a36.983,36.983,0,0,0-.454,4.458c-.08,1.458-.112,2.889-.133,4.271s0,2.755,0,4.074v3.727h0c.027,0,.053,0,.069.027h0l.069-.043.059-.027-.133-.043L504.5,282.549l-.08-.027v.085l-2,7.085-.534,1.89-.128.486a.6.6,0,0,0-.053.187Z" transform="translate(-493.274 -244.752)" fill="#efa00b"/>
      <path id="Path_59349" data-name="Path 59349" d="M485.882,307.327a.619.619,0,0,0,.053-.123c.037-.1.085-.219.144-.379l.534-1.474c.459-1.3,1.121-3.2,1.965-5.612l-.091.048,13.829,3.695.128.032v-.128c.331-2.547.7-5.275,1.105-8.153s.838-5.911,1.394-9.023l-.166.107,10.145,2.355,6.856,1.6.139.032v-.144c.95-4.982,1.853-9.718,2.67-14.085l-.16.1a95.19,95.19,0,0,0,16.851,2.947h.085v-.08c.443-3.631.8-6.519,1.036-8.506.112-.982.2-1.741.262-2.269.027-.246.048-.443.064-.582a1.149,1.149,0,0,0,0-.2,1.293,1.293,0,0,0-.037.2,5.085,5.085,0,0,1-.085.582c-.069.534-.176,1.281-.31,2.259-.262,1.992-.641,4.869-1.116,8.495l.1-.075a96.812,96.812,0,0,1-16.76-3.017l-.133-.037v.133c-.838,4.368-1.751,9.077-2.712,14.085l.166-.112-6.85-1.6-10.145-2.344-.139-.032v.139c-.534,3.124-.977,6.156-1.383,9.034s-.758,5.612-1.068,8.159l.144-.1-13.85-3.615h-.064l-.027.064c-.812,2.419-1.452,4.325-1.9,5.633-.208.646-.374,1.143-.491,1.49-.048.16-.091.283-.117.379Z" transform="translate(-472.928 -252.386)" fill="#fafafa"/>
      <path id="Path_59350" data-name="Path 59350" d="M471.672,327.881v-.443c0-.288-.059-.731-.107-1.287-.1-1.143-.246-2.8-.433-4.928l-.091.075,14.341,4.763.123.043v-.128c1.132-5.873,2.467-12.814,3.919-20.337l-.165.107,8.772,2.024,8.207,1.9.139.032.027-.139c.95-4.987,1.853-9.723,2.67-14.085l-.155.1a95.355,95.355,0,0,0,16.851,2.947h.085v-.085c.443-3.631.8-6.519,1.036-8.506.112-.982.2-1.741.262-2.264.027-.251.048-.443.064-.582a1.161,1.161,0,0,0,0-.2.791.791,0,0,1-.037.2c-.037.128-.048.331-.085.582-.069.534-.176,1.281-.31,2.259-.262,1.986-.635,4.864-1.116,8.495l.1-.075a96.906,96.906,0,0,1-16.8-3.011l-.133-.037-.027.133c-.838,4.362-1.751,9.077-2.712,14.08l.166-.107-8.207-1.906-8.762-2.013-.139-.032v.144c-1.431,7.523-2.755,14.47-3.871,20.343l.144-.085-14.368-4.683-.1-.032v.107q.32,3.2.5,4.918c.059.534.107.982.139,1.287A2.46,2.46,0,0,0,471.672,327.881Z" transform="translate(-449.455 -261.427)" fill="#efa00b"/>
      <path id="Path_59351" data-name="Path 59351" d="M458.786,348.752l.032-.1.085-.3c.069-.283.171-.678.3-1.18.256-1.068.63-2.574,1.105-4.5s1.02-4.271,1.655-6.941,1.324-5.708,1.965-9.029l-.15.1,16.974,3.951.144.037.027-.144c.085-.465.182-.966.278-1.468.844-4.4,1.655-8.65,2.413-12.617l-.166.1A94.622,94.622,0,0,0,500.3,319.61h.1v-.1c.432-3.572.785-6.461,1.025-8.463.117-.988.2-1.757.267-2.291.027-.251.048-.448.059-.6a.968.968,0,0,0,0-.2.933.933,0,0,0-.043.2l-.085.587c-.075.534-.182,1.3-.315,2.285-.267,2-.646,4.885-1.116,8.457l.1-.085a96.745,96.745,0,0,1-16.8-3.011l-.133-.037-.032.139c-.758,3.972-1.575,8.212-2.424,12.617-.1.5-.192,1-.278,1.468l.165-.107-16.984-3.93-.123-.027-.027.128c-.625,3.31-1.324,6.332-1.922,9.023s-1.148,5.035-1.6,6.979-.8,3.449-1.036,4.506c-.117.534-.2.908-.267,1.2l-.064.3C458.786,348.715,458.781,348.752,458.786,348.752Z" transform="translate(-417.481 -271.252)" fill="#fafafa"/>
      <path id="Path_59352" data-name="Path 59352" d="M494.48,372.12a4.5,4.5,0,0,0,.2-.737l.459-2.061c.374-1.746.886-4.191,1.447-6.941l-.165.107,1.6.374c3.124.726,5.959,1.367,8.009,1.815l2.435.534a6.176,6.176,0,0,0,.9.155,5.269,5.269,0,0,0-.876-.262l-2.419-.6c-2.04-.5-4.869-1.175-8.009-1.9l-1.6-.368-.139-.032v.139c-.534,2.771-1.025,5.222-1.356,6.979-.15.849-.278,1.543-.374,2.077A4.855,4.855,0,0,0,494.48,372.12Z" transform="translate(-444.157 -296.532)" fill="#efa00b"/>
      <path id="Path_59353" data-name="Path 59353" d="M464.6,353.5a4.673,4.673,0,0,0,.2-.753c.117-.534.267-1.239.443-2.077.363-1.751.844-4.181,1.362-6.866.027-.165.059-.326.091-.481l-.176.107c2.542.689,4.848,1.18,6.519,1.479.833.155,1.511.262,1.981.326a3.683,3.683,0,0,0,.731.075,4.2,4.2,0,0,0-.715-.176l-1.96-.411c-1.661-.352-3.951-.87-6.482-1.559l-.144-.037-.027.144-.1.481c-.534,2.67-.961,5.12-1.276,6.882-.144.844-.262,1.548-.358,2.093A4.134,4.134,0,0,0,464.6,353.5Z" transform="translate(-394.586 -287.644)" fill="#efa00b"/>
      <path id="Path_59354" data-name="Path 59354" d="M447.594,330.8a10.487,10.487,0,0,0,.427-3.385,5.383,5.383,0,0,0-.352,1.677A5.217,5.217,0,0,0,447.594,330.8Z" transform="translate(-357.765 -280.317)" fill="#efa00b"/>
      <path id="Path_59355" data-name="Path 59355" d="M515.748,279.3a.441.441,0,0,0,.032-.133,2.978,2.978,0,0,1,.08-.39c.064-.358.155-.865.278-1.522.24-1.346.582-3.3,1.02-5.766l-.091.064,8.068,1.292h.107v-.1c.812-4.853,1.783-10.679,2.857-17.086l-.16.107,11.01,2.563,5.612,1.3.133.032.032-.133c1.191-4.848,2.3-9.44,3.134-13.674l-.139.1,16.386,2.515h.08v-.085c.315-2.627.566-4.7.742-6.14.075-.7.139-1.249.182-1.634a3.364,3.364,0,0,1,.043-.416.42.42,0,0,0,0-.144v.139l-.064.416-.224,1.629c-.192,1.436-.47,3.508-.817,6.13l.091-.069-16.37-2.606h-.117l-.027.117c-.844,4.223-1.96,8.815-3.156,13.658l.165-.1-5.612-1.3-11.01-2.552-.139-.032v.139c-1.068,6.407-2,12.28-2.8,17.086l.117-.085-8.073-1.239h-.08v.075c-.406,2.472-.726,4.432-.945,5.777-.107.662-.187,1.169-.24,1.532-.027.166-.043.294-.059.4A.5.5,0,0,0,515.748,279.3Z" transform="translate(-511.306 -239.602)" fill="#fafafa"/>
      <path id="Path_59356" data-name="Path 59356" d="M542.49,292.68a.655.655,0,0,0,.149.059l.443.133c.384.128.966.256,1.693.534a34.925,34.925,0,0,1,5.937,2.67,41.515,41.515,0,0,1,7.785,5.665,53.684,53.684,0,0,1,7.737,8.9,79.552,79.552,0,0,1,5.921,10.23c1.6,3.262,2.894,6.279,3.94,8.826s1.858,4.624,2.424,6.055c.283.7.5,1.255.662,1.65.069.171.128.315.176.422a.811.811,0,0,0,.069.144.706.706,0,0,0-.043-.155c-.037-.112-.091-.256-.155-.432q-.214-.6-.609-1.666c-.534-1.447-1.324-3.529-2.344-6.092s-2.3-5.585-3.892-8.869a78.463,78.463,0,0,0-5.927-10.283,52.77,52.77,0,0,0-7.79-8.933,40.68,40.68,0,0,0-7.859-5.644,32.471,32.471,0,0,0-6-2.574c-.731-.251-1.324-.363-1.714-.475l-.449-.107A.968.968,0,0,0,542.49,292.68Z" transform="translate(-539.852 -264.131)" fill="#263238"/>
    </g>
    <g id="freepik--Notes--inject-4" transform="translate(171.739 74.977)">
      <path id="Path_59388" data-name="Path 59388" d="M271.179,290.827l-31.459,4.01.422-11.517Z" transform="translate(-202.468 -237.968)" fill="#e0e0e0"/>
      <rect id="Rectangle_7370" data-name="Rectangle 7370" width="30.306" height="10.059" transform="translate(68.731 53.089) rotate(175.23)" fill="#372c51"/>
      <path id="Path_59389" data-name="Path 59389" d="M247.53,287.747c0,.075,5.072-.283,11.314-.806s11.293-1,11.287-1.068-5.072.283-11.314.8S247.525,287.673,247.53,287.747Z" transform="translate(-205.59 -239.154)" fill="#fff"/>
      <path id="Path_59390" data-name="Path 59390" d="M247.42,292.647c0,.075,5.072-.283,11.314-.806s11.293-1,11.287-1.068-5.067.283-11.314.8S247.415,292.573,247.42,292.647Z" transform="translate(-205.421 -241.438)" fill="#fff"/>
      <path id="Path_59391" data-name="Path 59391" d="M269.011,277.75l-11.7.972.614.523-.8.7.956.438-.854.758,12.264-1.025-.764-.646.379-.694-.657-.336Z" transform="translate(-210.065 -235.372)" fill="#ebebeb"/>
      <path id="Path_59392" data-name="Path 59392" d="M164.82,243.77a1.362,1.362,0,1,0,2.339,0h1.6a1.377,1.377,0,0,0-.192.689,1.362,1.362,0,1,0,2.531-.689h1.575a1.324,1.324,0,0,0-.192.689,1.362,1.362,0,1,0,2.531-.689h1.6a1.324,1.324,0,0,0-.192.689,1.362,1.362,0,1,0,2.718,0,1.324,1.324,0,0,0-.192-.689h1.6a1.325,1.325,0,0,0-.192.689,1.362,1.362,0,1,0,2.718,0,1.324,1.324,0,0,0-.192-.689h1.6a1.362,1.362,0,1,0,2.339,0h.988v28.1l-24.561,1.351,1.175-29.446Z" transform="translate(-78.269 -219.535)" fill="#e0e0e0"/>
      <g id="Group_18659" data-name="Group 18659" transform="translate(86.39 23.466)" clip-path="url(#clip-path)">
        <path id="Path_59393" data-name="Path 59393" d="M163.288,242.33a1.362,1.362,0,1,0,2.339,0H167.2a1.378,1.378,0,0,0-.192.689,1.362,1.362,0,1,0,2.531-.689h1.6a1.324,1.324,0,0,0-.192.689,1.362,1.362,0,1,0,2.531-.689h1.575a1.324,1.324,0,0,0-.192.689,1.362,1.362,0,1,0,2.718,0,1.324,1.324,0,0,0-.192-.689h1.575a1.362,1.362,0,1,0,2.531.689,1.324,1.324,0,0,0-.192-.689h1.548a1.362,1.362,0,1,0,2.339,0h.988v28.122H162.77V242.33Z" transform="translate(-162.77 -242.33)" fill="#f5f5f5"/>
        <path id="Path_59394" data-name="Path 59394" d="M159.483,270.828c.08,0,.208-6.808.294-15.206s.1-15.212,0-15.212-.208,6.808-.294,15.206S159.408,270.828,159.483,270.828Z" transform="translate(-134.649 -241.435)" fill="#e0e0e0"/>
        <path id="Path_59395" data-name="Path 59395" d="M166.514,270.758c.08,0,.214-6.808.3-15.206s.091-15.212,0-15.212-.208,6.808-.294,15.206S166.439,270.758,166.514,270.758Z" transform="translate(-145.439 -241.403)" fill="#e0e0e0"/>
        <path id="Path_59396" data-name="Path 59396" d="M170.013,270.758c.075,0,.208-6.808.294-15.206s.1-15.212,0-15.212-.208,6.808-.294,15.206S169.938,270.758,170.013,270.758Z" transform="translate(-150.802 -241.403)" fill="#e0e0e0"/>
        <path id="Path_59397" data-name="Path 59397" d="M177.128,270.758c.075,0,.208-6.808.294-15.206s.091-15.212,0-15.212-.208,6.808-.294,15.206S177.048,270.758,177.128,270.758Z" transform="translate(-161.714 -241.403)" fill="#e0e0e0"/>
        <path id="Path_59398" data-name="Path 59398" d="M184.238,270.758c.075,0,.208-6.808.294-15.206s.091-15.212,0-15.212-.208,6.808-.294,15.206S184.158,270.758,184.238,270.758Z" transform="translate(-172.62 -241.403)" fill="#e0e0e0"/>
        <path id="Path_59399" data-name="Path 59399" d="M191.381,270.758c.075,0,.208-6.808.294-15.206s.091-15.212,0-15.212-.208,6.808-.294,15.206S191.322,270.758,191.381,270.758Z" transform="translate(-183.58 -241.403)" fill="#e0e0e0"/>
        <path id="Path_59400" data-name="Path 59400" d="M198.1,270.758c.075,0,.208-6.808.294-15.206s.091-15.212,0-15.212-.208,6.808-.294,15.206S198.018,270.758,198.1,270.758Z" transform="translate(-193.88 -241.403)" fill="#e0e0e0"/>
        <path id="Path_59401" data-name="Path 59401" d="M204.843,270.758c.075,0,.208-6.808.294-15.206s.1-15.212,0-15.212-.208,6.808-.294,15.206S204.768,270.758,204.843,270.758Z" transform="translate(-204.229 -241.403)" fill="#e0e0e0"/>
        <path id="Path_59402" data-name="Path 59402" d="M173.558,270.688c.075,0,.208-6.813.294-15.212s.091-15.206,0-15.206-.208,6.8-.294,15.206S173.478,270.683,173.558,270.688Z" transform="translate(-156.238 -241.37)" fill="#e0e0e0"/>
        <path id="Path_59403" data-name="Path 59403" d="M180.593,270.608c.075,0,.208-6.808.294-15.206s.1-15.206,0-15.212-.208,6.808-.294,15.212S180.518,270.608,180.593,270.608Z" transform="translate(-167.031 -241.333)" fill="#e0e0e0"/>
        <path id="Path_59404" data-name="Path 59404" d="M187.624,270.538c.08,0,.214-6.808.3-15.206s.091-15.212,0-15.212-.208,6.808-.294,15.212S187.549,270.538,187.624,270.538Z" transform="translate(-177.821 -241.3)" fill="#e0e0e0"/>
        <path id="Path_59405" data-name="Path 59405" d="M194.668,270.448c.075,0,.208-6.808.294-15.206s.091-15.212,0-15.212-.208,6.808-.294,15.206S194.588,270.448,194.668,270.448Z" transform="translate(-188.619 -241.258)" fill="#e0e0e0"/>
        <path id="Path_59406" data-name="Path 59406" d="M201.388,270.828c.08,0,.208-6.808.294-15.206s.1-15.212,0-15.212-.208,6.808-.294,15.206S201.3,270.828,201.388,270.828Z" transform="translate(-198.927 -241.435)" fill="#e0e0e0"/>
        <path id="Path_59407" data-name="Path 59407" d="M208.735,270.328c.08,0,.208-6.813.3-15.212s.091-15.206,0-15.206-.208,6.8-.3,15.206S208.66,270.323,208.735,270.328Z" transform="translate(-210.203 -241.202)" fill="#e0e0e0"/>
        <path id="Path_59408" data-name="Path 59408" d="M159.94,290.145c0,.075,6.813.208,15.206.288s15.212.091,15.212,0-6.808-.208-15.206-.294S159.945,290.07,159.94,290.145Z" transform="translate(-165.44 -264.586)" fill="#e0e0e0"/>
        <path id="Path_59409" data-name="Path 59409" d="M160.23,293.743c0,.075,6.808.208,15.206.288s15.212.091,15.212,0-6.808-.208-15.212-.294S160.23,293.663,160.23,293.743Z" transform="translate(-165.884 -266.262)" fill="#e0e0e0"/>
        <path id="Path_59410" data-name="Path 59410" d="M159.87,283.108c0,.08,6.813.208,15.206.294s15.212.091,15.212,0-6.808-.208-15.206-.288S159.875,283.023,159.87,283.108Z" transform="translate(-165.332 -261.308)" fill="#e0e0e0"/>
        <path id="Path_59411" data-name="Path 59411" d="M159.8,276.079c0,.075,6.813.2,15.212.288s15.206.091,15.206,0-6.808-.2-15.206-.288S159.805,276.01,159.8,276.079Z" transform="translate(-165.225 -258.032)" fill="#e0e0e0"/>
        <path id="Path_59412" data-name="Path 59412" d="M159.73,269.033c0,.075,6.813.208,15.212.288s15.206.091,15.206,0-6.8-.208-15.206-.294S159.735,268.953,159.73,269.033Z" transform="translate(-165.117 -254.745)" fill="#e0e0e0"/>
        <path id="Path_59413" data-name="Path 59413" d="M159.66,262c0,.08,6.813.208,15.212.294s15.206.085,15.206,0-6.8-.208-15.206-.288S159.665,261.927,159.66,262Z" transform="translate(-165.01 -251.472)" fill="#e0e0e0"/>
        <path id="Path_59414" data-name="Path 59414" d="M159.59,254.952c0,.08,6.808.208,15.206.294s15.206.091,15.206,0-6.8-.2-15.206-.288S159.59,254.882,159.59,254.952Z" transform="translate(-164.897 -248.187)" fill="#e0e0e0"/>
        <path id="Path_59415" data-name="Path 59415" d="M159.51,247.94c0,.075,6.808.208,15.206.288s15.206.091,15.212,0-6.808-.208-15.212-.294S159.51,247.849,159.51,247.94Z" transform="translate(-164.78 -244.913)" fill="#e0e0e0"/>
        <path id="Path_59416" data-name="Path 59416" d="M159.51,245.1c0,.075,6.808.208,15.206.288s15.206.091,15.212,0-6.808-.208-15.212-.294S159.51,245.016,159.51,245.1Z" transform="translate(-164.78 -243.591)" fill="#e0e0e0"/>
        <path id="Path_59417" data-name="Path 59417" d="M159.51,251.522c0,.08,6.808.208,15.206.294s15.206.091,15.212,0-6.808-.208-15.212-.288S159.51,251.447,159.51,251.522Z" transform="translate(-164.78 -246.588)" fill="#e0e0e0"/>
        <path id="Path_59418" data-name="Path 59418" d="M159.51,258.5c0,.08,6.808.208,15.206.294s15.206.091,15.212,0-6.808-.2-15.212-.288S159.51,258.425,159.51,258.5Z" transform="translate(-164.78 -249.839)" fill="#e0e0e0"/>
        <path id="Path_59419" data-name="Path 59419" d="M159.51,265.48c0,.08,6.808.208,15.206.294s15.206.091,15.212,0-6.808-.2-15.212-.288S159.51,265.405,159.51,265.48Z" transform="translate(-164.78 -253.093)" fill="#e0e0e0"/>
        <path id="Path_59420" data-name="Path 59420" d="M159.51,272.466c0,.075,6.808.2,15.206.288s15.206.091,15.212,0-6.808-.2-15.212-.288S159.51,272.386,159.51,272.466Z" transform="translate(-164.78 -256.346)" fill="#e0e0e0"/>
        <path id="Path_59421" data-name="Path 59421" d="M159.51,279.443c0,.075,6.808.2,15.206.288s15.206.091,15.212,0-6.808-.208-15.212-.294S159.51,279.363,159.51,279.443Z" transform="translate(-164.78 -259.597)" fill="#e0e0e0"/>
        <path id="Path_59422" data-name="Path 59422" d="M159.51,286.423c0,.075,6.808.2,15.206.288s15.206.091,15.212,0-6.808-.208-15.212-.294S159.51,286.343,159.51,286.423Z" transform="translate(-164.78 -262.85)" fill="#e0e0e0"/>
        <path id="Path_59423" data-name="Path 59423" d="M163.288,242.33a1.362,1.362,0,1,0,2.339,0H167.2a1.378,1.378,0,0,0-.192.689,1.362,1.362,0,1,0,2.531-.689h1.6a1.324,1.324,0,0,0-.192.689,1.362,1.362,0,1,0,2.531-.689h1.575a1.324,1.324,0,0,0-.192.689,1.362,1.362,0,1,0,2.718,0,1.324,1.324,0,0,0-.192-.689h1.575a1.362,1.362,0,1,0,2.531.689,1.324,1.324,0,0,0-.192-.689h1.548a1.362,1.362,0,1,0,2.339,0h.988v28.122H162.77V242.33Z" transform="translate(-162.77 -242.33)" fill="none"/>
      </g>
      <path id="Path_59425" data-name="Path 59425" d="M186.361,248.362a3.364,3.364,0,0,1-1.233,2.136,2.2,2.2,0,1,1-.806-3.967" transform="translate(-86.659 -220.801)" fill="#e0e0e0"/>
      <path id="Path_59426" data-name="Path 59426" d="M185.1,248.33a1.751,1.751,0,1,1-1.655-1.842,1.751,1.751,0,0,1,1.655,1.842Z" transform="translate(-85.352 -220.8)" fill="#efa00b"/>
      <path id="Path_59427" data-name="Path 59427" d="M181.854,247.763a1.068,1.068,0,1,1-.993-1.105A1.068,1.068,0,0,1,181.854,247.763Z" transform="translate(-81.106 -220.88)" fill="#efa00b"/>
      <path id="Path_59428" data-name="Path 59428" d="M182.852,248.914c0-.043-.166-.027-.379-.107a1.025,1.025,0,0,1-.6-.582,1.068,1.068,0,0,1,.08-.838c.107-.2.23-.3.208-.336s-.192,0-.368.224a1.111,1.111,0,0,0-.182,1.068,1.068,1.068,0,0,0,.812.678C182.7,249.037,182.862,248.941,182.852,248.914Z" transform="translate(-83.081 -221.059)" fill="#263238"/>
      <path id="Path_59429" data-name="Path 59429" d="M184.358,247.182c-.037-.069-.3,0-.593-.059s-.5-.251-.561-.208.08.379.5.475S184.406,247.24,184.358,247.182Z" transform="translate(-85.469 -220.998)" fill="#263238"/>
      <path id="Path_59430" data-name="Path 59430" d="M181.83,251.495c.075,0,.149-.326.422-.582s.609-.315.609-.39-.422-.155-.8.187S181.75,251.511,181.83,251.495Z" transform="translate(-83.207 -222.652)" fill="#263238"/>
      <path id="Path_59431" data-name="Path 59431" d="M170.45,261.009c0,.075,3.738.139,8.34.139s8.345-.064,8.345-.139-3.738-.139-8.345-.139S170.45,260.939,170.45,261.009Z" transform="translate(-81.438 -227.505)" fill="#263238"/>
      <path id="Path_59432" data-name="Path 59432" d="M170.45,264.259c0,.075,3.738.139,8.34.139s8.345-.064,8.345-.139-3.738-.139-8.345-.139S170.45,264.179,170.45,264.259Z" transform="translate(-81.438 -229.019)" fill="#263238"/>
      <path id="Path_59433" data-name="Path 59433" d="M170.45,267.509c0,.075,3.738.139,8.34.139s8.345-.064,8.345-.139-3.738-.139-8.345-.139S170.45,267.429,170.45,267.509Z" transform="translate(-81.438 -230.534)" fill="#263238"/>
      <path id="Path_59434" data-name="Path 59434" d="M170.45,270.749c0,.08,3.738.139,8.34.139s8.345-.059,8.345-.139-3.738-.139-8.345-.139S170.45,270.674,170.45,270.749Z" transform="translate(-81.438 -232.044)" fill="#263238"/>
      <path id="Path_59435" data-name="Path 59435" d="M170.45,274c0,.08,3.738.139,8.34.139s8.345-.059,8.345-.139-3.738-.139-8.345-.139S170.45,273.935,170.45,274Z" transform="translate(-81.438 -233.559)" fill="#263238"/>
      <path id="Path_59436" data-name="Path 59436" d="M170.45,277.249c0,.075,3.738.139,8.34.139s8.345-.064,8.345-.139-3.738-.139-8.345-.139S170.45,277.174,170.45,277.249Z" transform="translate(-81.438 -235.074)" fill="#263238"/>
      <path id="Path_59437" data-name="Path 59437" d="M170.45,280.5c0,.075,3.738.139,8.34.139s8.345-.064,8.345-.139-3.738-.139-8.345-.139S170.45,280.419,170.45,280.5Z" transform="translate(-81.438 -236.588)" fill="#263238"/>
    </g>
    <g id="freepik--Lamp--inject-4" transform="translate(185.271 50.08)">
      <path id="Path_59438" data-name="Path 59438" d="M88.474,366a.566.566,0,0,0,.534-.427l19-72.348a.569.569,0,1,0-1.1-.288L87.924,365.287a.566.566,0,0,0,.406.694.449.449,0,0,0,.144.021Z" transform="translate(10.597 -224.356)" fill="#263238"/>
      <path id="Path_59439" data-name="Path 59439" d="M79.089,369.353a.566.566,0,0,0,.534-.422l19-72.353a.569.569,0,1,0-1.1-.288L78.534,368.643a.566.566,0,0,0,.406.694A.71.71,0,0,0,79.089,369.353Z" transform="translate(25.001 -225.917)" fill="#263238"/>
      <path id="Path_59440" data-name="Path 59440" d="M173.4,233.467l.913-.678-48.743-65.6L81.11,175.712l.214,1.116,43.761-8.388Z" transform="translate(-52.059 -165.946)" fill="#263238"/>
      <rect id="Rectangle_7371" data-name="Rectangle 7371" width="80.576" height="1.137" transform="translate(117.132 68.756) rotate(-126.52)" fill="#263238"/>
      <path id="Path_59441" data-name="Path 59441" d="M176.029,169.116a3.2,3.2,0,1,1-.152-2.465A3.2,3.2,0,0,1,176.029,169.116Z" transform="translate(-101.305 -164.86)" fill="#efa00b"/>
      <path id="Path_59442" data-name="Path 59442" d="M253.133,172.011l.8-4.635-3.428-.256-.251,4.474Z" transform="translate(-221.984 -165.913)" fill="#efa00b"/>
      <g id="Group_18660" data-name="Group 18660" transform="translate(28.266 1.207)" opacity="0.3">
        <path id="Path_59443" data-name="Path 59443" d="M253.133,172.011l.8-4.635-3.428-.256-.251,4.474Z" transform="translate(-250.25 -167.12)"/>
      </g>
      <path id="Path_59444" data-name="Path 59444" d="M259.5,174.655l3.172,17.193,8.009,22.719-45.139-6.509,18.218-19.836,7.609-14.742,8.132,1.175" transform="translate(-225.54 -168.878)" fill="#efa00b"/>
      <path id="Path_59445" data-name="Path 59445" d="M84.065,291.793a3.583,3.583,0,1,1-3.583-3.583A3.583,3.583,0,0,1,84.065,291.793Z" transform="translate(40.437 -222.35)" fill="#efa00b"/>
      <path id="Path_59446" data-name="Path 59446" d="M126.311,444.122c0-.24.037-.475.037-.721a14.329,14.329,0,1,0-28.659,0c0,.246.029.481.04.721Z" transform="translate(-12.947 -288)" fill="#efa00b"/>
    </g>
    <g id="freepik--Character--inject-4" transform="translate(63.751 36.168)">
      <path id="Path_59447" data-name="Path 59447" d="M252.5,447.21c.176.037.929.8-.144,2.013s-7.544,4.528-8.735,2.547,1.682-3.358,1.682-3.358Z" transform="translate(-75.891 -282.542)" fill="#ffbe9d"/>
      <path id="Path_59448" data-name="Path 59448" d="M258.9,425.862s-6.674-.737-9.4-.39a9.678,9.678,0,0,1-7.945-3.15,10.678,10.678,0,0,1-2.344-4.72l-4.271-2.969s-.459-10.1,6.274-8.468l7.865.278s15.484,2.563,17.876,4.49c0,0,2.915,2.835,3.764,3.93.32.416.593,4.576-2.365,6,0,0,1.746,2.227.208,3.487l-.721.534s1,2.226.059,2.862-8.367,2.889-10.476,1.42.336-3.161,1.452-3.31" transform="translate(-89.397 -263.329)" fill="#ffbe9d"/>
      <path id="Path_59449" data-name="Path 59449" d="M250.457,433.1a6.731,6.731,0,0,0-.87.1c-.561.069-1.372.171-2.381.246-.5.032-1.068.064-1.645.075s-1.223,0-1.9.048a3.908,3.908,0,0,0-2.045.646,2.264,2.264,0,0,0-1,2.056,1.746,1.746,0,0,0,.6,1.068,3,3,0,0,0,1.009.561,9.114,9.114,0,0,0,2.088.39,18.828,18.828,0,0,0,3.572-.069c1.009-.107,1.815-.24,2.371-.336a4.809,4.809,0,0,0,.865-.182,6.108,6.108,0,0,0-.876.075c-.566.064-1.378.165-2.381.246a20.259,20.259,0,0,1-3.524,0,9.147,9.147,0,0,1-2.024-.39,2.868,2.868,0,0,1-.918-.507,1.5,1.5,0,0,1-.5-.892,2,2,0,0,1,.881-1.8,3.781,3.781,0,0,1,1.906-.614c.651-.059,1.292-.037,1.885-.069s1.153-.059,1.661-.112c1.009-.1,1.815-.224,2.376-.331A4.269,4.269,0,0,0,250.457,433.1Z" transform="translate(-72.636 -275.966)" fill="#eb996e"/>
      <path id="Path_59450" data-name="Path 59450" d="M249.919,424.07a5.625,5.625,0,0,0-.87.1c-.534.075-1.367.182-2.365.267s-2.194.155-3.524.155a4.72,4.72,0,0,0-2.109.315,1.682,1.682,0,0,0-.8.86,2.173,2.173,0,0,0-.112,1.2,2.873,2.873,0,0,0,1.351,1.853,4.634,4.634,0,0,0,2.029.657,20.137,20.137,0,0,0,3.551-.165l2.371-.24a5.062,5.062,0,0,0,.87-.128,5.745,5.745,0,0,0-.876,0l-2.381.155a22.162,22.162,0,0,1-3.508.1,4.41,4.41,0,0,1-1.911-.635,2.59,2.59,0,0,1-1.217-1.666,1.6,1.6,0,0,1,.764-1.767,4.474,4.474,0,0,1,1.981-.3,31.59,31.59,0,0,0,3.54-.214c1-.112,1.81-.251,2.365-.358A4.958,4.958,0,0,0,249.919,424.07Z" transform="translate(-71.554 -271.757)" fill="#eb996e"/>
      <path id="Path_59451" data-name="Path 59451" d="M244.954,423.032a8.745,8.745,0,0,0,.6-1.233,7.609,7.609,0,0,0,.641-1.212c-.053-.053-.534.384-.886,1.068A2.3,2.3,0,0,0,244.954,423.032Z" transform="translate(-70.033 -270.131)" fill="#eb996e"/>
      <path id="Path_59452" data-name="Path 59452" d="M238.766,403.548l6.311-.838s17.833-3.636,18.01-3.166,1.068.635.4,2.547-10.951,3.6-11.41,4.213-.79,4.149-4.805,5.777-6.546,1.068-6.546,1.068" transform="translate(-84.262 -260.306)" fill="#ffbe9d"/>
      <path id="Path_59453" data-name="Path 59453" d="M240.437,413.053l.133.037.411.059a9.607,9.607,0,0,0,1.6,0,13.943,13.943,0,0,0,2.472-.438,13.618,13.618,0,0,0,3.1-1.207,7.208,7.208,0,0,0,2.782-2.9,16.28,16.28,0,0,0,.854-2.077,1.93,1.93,0,0,1,.117-.235.566.566,0,0,1,.187-.117,5.431,5.431,0,0,1,.534-.187c.374-.117.758-.219,1.153-.32,1.57-.411,3.23-.806,4.928-1.3.849-.251,1.709-.534,2.563-.87a8.544,8.544,0,0,0,1.255-.619,3.032,3.032,0,0,0,.577-.454,1.287,1.287,0,0,0,.219-.326c.059-.123.075-.235.117-.347a2.6,2.6,0,0,0,.085-1.458,1.713,1.713,0,0,0-.384-.63,1.194,1.194,0,0,1-.176-.246l-.043-.069a.187.187,0,0,0-.1-.064.6.6,0,0,0-.117,0h-.187c-.929.059-1.81.214-2.67.352-1.746.288-3.422.6-5.019.9-3.2.6-6.055,1.18-8.463,1.677-.6.117-1.175.256-1.714.347l-1.548.214-2.472.352-1.564.235-.406.069-.139.032a.422.422,0,0,0,.144,0l.406-.037,1.575-.187,2.483-.3,1.554-.2c.534-.085,1.116-.214,1.719-.326l8.474-1.6c1.6-.294,3.273-.6,5.014-.886.87-.133,1.767-.288,2.67-.347h.214a.091.091,0,0,1,.027-.064h0c-.208.075-.053,0-.1.048h0a1.1,1.1,0,0,0,.219.315,1.479,1.479,0,0,1,.331.534,2.349,2.349,0,0,1-.091,1.292,1.2,1.2,0,0,1-.278.566,2.806,2.806,0,0,1-.534.406,8.807,8.807,0,0,1-1.212.6c-.838.342-1.687.614-2.536.865-1.687.5-3.342.9-4.912,1.313-.4.107-.785.214-1.164.331a4.477,4.477,0,0,0-.566.2.667.667,0,0,0-.288.2,1.287,1.287,0,0,0-.144.283,16.111,16.111,0,0,1-.838,2.061,6.973,6.973,0,0,1-2.67,2.841,13.659,13.659,0,0,1-3.043,1.228,14.038,14.038,0,0,1-2.44.475,10.79,10.79,0,0,1-1.57.053h-.411Z" transform="translate(-84 -260.201)" fill="#eb996e"/>
      <path id="Path_59454" data-name="Path 59454" d="M246.056,442.609a2.055,2.055,0,0,0-.657.032,6.306,6.306,0,0,0-1.719.507,5.66,5.66,0,0,0-1.068.641,1.9,1.9,0,0,0-.79,1.239,1.532,1.532,0,0,0,.79,1.41,2.963,2.963,0,0,0,1.7.352,31.84,31.84,0,0,0,5.825-.86,15.028,15.028,0,0,0,1.709-.534,3.024,3.024,0,0,0,.6-.262,3.062,3.062,0,0,0-.635.155c-.406.117-.988.278-1.719.438a37.787,37.787,0,0,1-5.793.774,2.734,2.734,0,0,1-1.543-.3,1.276,1.276,0,0,1-.678-1.159,1.671,1.671,0,0,1,.678-1.068,5.34,5.34,0,0,1,1.02-.641A9.322,9.322,0,0,1,246.056,442.609Z" transform="translate(-74.61 -280.391)" fill="#eb996e"/>
      <path id="Path_59455" data-name="Path 59455" d="M410.55,321.61s-7.908-13.017-9.686-21.608-10.962-22.222-13.946-25.778-14.817-7.7-14.817-7.7l-4.368-2.36-33.846-2.974s-22.516,2.371-29.334,8.591-12.142,20.444-12.142,27.551-6.882,68.685-6.882,68.685l83.406-.107-1.869-30.359s10.075-6.813,12.74-12.74,1.185-2.963,1.185-2.963,9.456,20.1,12.713,22.473,41.139,13.994,41.139,13.994l5.184-19.878Z" transform="translate(-285.53 -195.844)" fill="#efa00b"/>
      <path id="Path_59456" data-name="Path 59456" d="M446.415,281.486c.913.283,12.211,29.462,13.007,32.116s0,19.376,0,19.376l-3.738,6.9s1.068,5.04.267,7.432l16.723,3.2s4.245-2.921,8.228,0l19.755,1.671s-5.793.064-4.069,8.949c1.687,8.7,2.974,10.615,2.974,10.615l-69.331-1.6s-7.7-.384-6.53-15.2,4.48-55.668,4.48-55.668S433.233,277.4,446.415,281.486Z" transform="translate(-419.868 -205.066)" fill="#efa00b"/>
      <path id="Path_59457" data-name="Path 59457" d="M492.681,340.821a1.541,1.541,0,0,0,.166-.358l.422-1.068c.182-.454.4-1.014.614-1.682s.5-1.41.721-2.259.534-1.773.742-2.782.459-2.088.673-3.2a59.012,59.012,0,0,0,.817-7.523,60.554,60.554,0,0,0-.23-7.566c-.139-1.153-.251-2.253-.438-3.273-.085-.534-.155-1-.251-1.479s-.192-.918-.283-1.351c-.171-.86-.39-1.6-.566-2.307s-.342-1.249-.5-1.719-.262-.8-.347-1.068a3.879,3.879,0,0,0-.139-.374,1.6,1.6,0,0,0,.085.39c.075.272.176.635.3,1.068s.3,1.068.448,1.73.368,1.442.534,2.307c.085.432.171.881.262,1.351s.155.961.235,1.468c.176,1.02.283,2.136.411,3.268a56.725,56.725,0,0,1-.582,15.014c-.208,1.143-.4,2.227-.646,3.2s-.475,1.933-.7,2.782-.481,1.6-.683,2.264-.4,1.233-.566,1.693l-.374,1.068a3.21,3.21,0,0,0-.123.406Z" transform="translate(-452.973 -215.242)" fill="#263238"/>
      <path id="Path_59458" data-name="Path 59458" d="M505.95,420.448a2.077,2.077,0,0,0,.182-.2l.459-.614c.2-.272.443-.6.742-.961s.625-.8,1.025-1.239.822-.94,1.314-1.436,1.025-1.025,1.6-1.564a39.611,39.611,0,0,1,3.994-3.2,40.046,40.046,0,0,1,4.4-2.606c.71-.342,1.378-.678,2.029-.94s1.249-.534,1.8-.721,1.068-.368,1.522-.534.838-.267,1.159-.352l.737-.219a.966.966,0,0,0,.256-.1,1.185,1.185,0,0,0-.267.043l-.753.166c-.326.075-.721.171-1.18.31s-.977.278-1.538.491-1.185.411-1.831.689-1.335.587-2.05.924a36.943,36.943,0,0,0-4.448,2.606,38.057,38.057,0,0,0-4,3.236c-.571.534-1.116,1.068-1.6,1.6s-.913,1.009-1.3,1.468-.7.9-1,1.271a11.015,11.015,0,0,0-.7.993c-.171.278-.31.47-.422.646A1.1,1.1,0,0,0,505.95,420.448Z" transform="translate(-490.364 -263.223)" fill="#263238"/>
      <path id="Path_59459" data-name="Path 59459" d="M528.7,420.891c.043.037.657-.662,1.81-1.6a18.337,18.337,0,0,1,2.136-1.495,20.336,20.336,0,0,1,2.878-1.394,20.1,20.1,0,0,1,3.075-.865,18.527,18.527,0,0,1,2.595-.3c1.49-.059,2.413.053,2.419,0a2.873,2.873,0,0,0-.646-.107,6.588,6.588,0,0,0-.764-.069,9.157,9.157,0,0,0-1.014,0,17,17,0,0,0-2.638.251,18.489,18.489,0,0,0-3.123.86,18.3,18.3,0,0,0-2.915,1.431,16.862,16.862,0,0,0-2.136,1.559,9.826,9.826,0,0,0-.742.694,6.014,6.014,0,0,0-.534.534,2.99,2.99,0,0,0-.4.507Z" transform="translate(-518.95 -267.548)" fill="#263238"/>
      <path id="Path_59460" data-name="Path 59460" d="M511.85,404.819c.032.048.849-.6,2.344-1.34a12.142,12.142,0,0,1,1.249-.534c.448-.192.95-.336,1.474-.5a16.9,16.9,0,0,1,7.085-.486c.534.091,1.068.166,1.527.294a12.655,12.655,0,0,1,1.313.374c1.6.534,2.477,1.068,2.5,1a3.488,3.488,0,0,0-.625-.379,6.287,6.287,0,0,0-.764-.384,10.937,10.937,0,0,0-1.068-.427,11.374,11.374,0,0,0-1.319-.406,14.84,14.84,0,0,0-1.548-.331,16.274,16.274,0,0,0-7.192.5,13.039,13.039,0,0,0-1.49.534,11.063,11.063,0,0,0-1.255.582,10.474,10.474,0,0,0-.982.571,5.672,5.672,0,0,0-.7.481,3.089,3.089,0,0,0-.55.454Z" transform="translate(-495.688 -261.241)" fill="#263238"/>
      <path id="Path_59461" data-name="Path 59461" d="M460,432.009a24.959,24.959,0,0,1-.491-2.969,19.177,19.177,0,0,1,.027-3.262,26.033,26.033,0,0,1,.694-3.935,27.589,27.589,0,0,1,1.329-3.738,20.638,20.638,0,0,1,1.6-2.851,27.223,27.223,0,0,1,1.885-2.355,5.114,5.114,0,0,0-.614.534,6.818,6.818,0,0,0-.651.7l-.384.454c-.133.171-.256.352-.4.534a18.5,18.5,0,0,0-1.655,2.857,23.088,23.088,0,0,0-2.05,7.785,18.06,18.06,0,0,0,.032,3.3c.027.235.053.454.075.667l.117.587a6.1,6.1,0,0,0,.224.929A5.089,5.089,0,0,0,460,432.009Z" transform="translate(-403.286 -266.551)" fill="#263238"/>
      <path id="Path_59462" data-name="Path 59462" d="M438.48,358.137a.533.533,0,0,0,.032-.155,3.422,3.422,0,0,1,.075-.454c.059-.422.144-1.009.251-1.757.219-1.527.5-3.738.833-6.482.657-5.473,1.442-13.055,2.056-21.448s.934-16.018,1.068-21.523c.075-2.755.112-4.987.123-6.53v-2.237a.08.08,0,1,0-.032,0v.465c0,.422-.032,1.014-.059,1.773-.048,1.559-.117,3.786-.2,6.525-.2,5.51-.534,13.119-1.159,21.512s-1.367,15.965-1.976,21.443c-.31,2.723-.566,4.934-.742,6.487-.085.753-.149,1.34-.2,1.767a4.068,4.068,0,0,1-.048.459.852.852,0,0,0-.021.155Z" transform="translate(-370.147 -212.717)" fill="#263238"/>
      <path id="Path_59463" data-name="Path 59463" d="M377.47,353.948a6.09,6.09,0,0,0,.363-.817c.214-.534.534-1.3.934-2.243.8-1.885,2-4.453,3.428-7.24s2.723-5.259,3.689-7.117c.465-.918.838-1.661,1.068-2.178a5.833,5.833,0,0,0,.358-.822,4.949,4.949,0,0,0-.454.769l-1.159,2.136c-.972,1.8-2.339,4.271-3.77,7.085s-2.6,5.377-3.358,7.288c-.379.956-.673,1.735-.854,2.28A5.67,5.67,0,0,0,377.47,353.948Z" transform="translate(-281.902 -229.559)" fill="#263238"/>
      <path id="Path_59464" data-name="Path 59464" d="M367.15,348.494a1.634,1.634,0,0,0,.486-.091c.3-.075.742-.2,1.281-.379a31.625,31.625,0,0,0,7.892-3.908c.465-.32.833-.593,1.068-.79a1.9,1.9,0,0,0,.363-.326,17.432,17.432,0,0,0-1.554.95,41.863,41.863,0,0,1-3.823,2.136c-1.538.753-2.969,1.345-4.021,1.741a18.056,18.056,0,0,0-1.693.667Z" transform="translate(-267.321 -233.973)" fill="#263238"/>
      <path id="Path_59465" data-name="Path 59465" d="M345.04,382.283a2.876,2.876,0,0,0,.577-.347c.352-.24.876-.582,1.532-.977a31.577,31.577,0,0,1,11.165-4.181c.758-.133,1.372-.219,1.8-.272a2.937,2.937,0,0,0,.662-.112,2.956,2.956,0,0,0-.673,0,14.811,14.811,0,0,0-1.821.182,28.062,28.062,0,0,0-5.873,1.495,28.39,28.39,0,0,0-5.393,2.712c-.646.427-1.153.79-1.49,1.068A3.662,3.662,0,0,0,345.04,382.283Z" transform="translate(-238.051 -249.527)" fill="#263238"/>
      <path id="Path_59466" data-name="Path 59466" d="M438.64,261.28a4.307,4.307,0,0,0,.032.432c.037.31.085.721.144,1.239.139,1.068.331,2.627.657,4.538a57.505,57.505,0,0,0,1.495,6.642,30.97,30.97,0,0,0,3.348,7.625,23.376,23.376,0,0,0,2.782,3.567l.107.117.1-.133a14.123,14.123,0,0,1,5.067-4.2,13.466,13.466,0,0,1,2.67-.982,11.812,11.812,0,0,1,2.429-.326,10.021,10.021,0,0,1,3.46.486c.774.272,1.185.475,1.2.448a1.922,1.922,0,0,0-.294-.155,7.23,7.23,0,0,0-.87-.384,9.7,9.7,0,0,0-3.5-.571,11.793,11.793,0,0,0-2.477.3,13.609,13.609,0,0,0-2.723.972,14.229,14.229,0,0,0-5.179,4.271h.208a23.75,23.75,0,0,1-2.744-3.524,31.456,31.456,0,0,1-3.348-7.55,62.665,62.665,0,0,1-1.548-6.6c-.352-1.9-.571-3.455-.742-4.522-.08-.534-.15-.924-.2-1.228a1.9,1.9,0,0,0-.075-.459Z" transform="translate(-389.379 -195.886)" fill="#263238"/>
      <path id="Path_59467" data-name="Path 59467" d="M429.36,255.958l5.142-6.818,5.59.176,18.164,9.595Z" transform="translate(-380.553 -190.228)" fill="#efa00b"/>
      <path id="Path_59468" data-name="Path 59468" d="M414.87,284.982a1.228,1.228,0,0,0,.294,0,6.5,6.5,0,0,0,.838-.139,10.407,10.407,0,0,0,2.867-1.228,6.289,6.289,0,0,1,1.949-.806,5.74,5.74,0,0,1,2.413,0,5.644,5.644,0,0,1,4.031,3.508l.288.78v-1.484c-.064-4.207-.069-8.009-.24-10.78-.08-1.378-.187-2.493-.3-3.257-.048-.384-.107-.678-.15-.876a1.837,1.837,0,0,0-.075-.3c-.027,0,.048.422.117,1.191s.16,1.874.214,3.252c.123,2.755.091,6.562.16,10.775v.657l.267-.053a5.873,5.873,0,0,0-4.239-3.657,5.991,5.991,0,0,0-4.506.892,11.281,11.281,0,0,1-2.8,1.292C415.276,284.928,414.865,284.955,414.87,284.982Z" transform="translate(-342.111 -200.136)" fill="#263238"/>
      <path id="Path_59469" data-name="Path 59469" d="M394.39,168.726v40.953a9.931,9.931,0,0,0,2.333,6.407h0a30.141,30.141,0,0,0,8.223,6.808l8.255,4.651,6.834-6.119a9.947,9.947,0,0,0,3.305-7.021c.117-2.979.117-5.985.117-5.985s11.57-.833,12.66-12.243c.534-5.371.673-16.376.7-26.52a22.2,22.2,0,0,0-20.37-22.174l-.326-.027a21.218,21.218,0,0,0-21.731,21.272Z" transform="translate(-340.442 -142.833)" fill="#ffbe9d"/>
      <path id="Path_59470" data-name="Path 59470" d="M433.894,256.547a26.559,26.559,0,0,1-14.544-5.467s2.841,8.511,14.325,8.425Z" transform="translate(-350.846 -191.132)" fill="#eb996e"/>
      <path id="Path_59471" data-name="Path 59471" d="M404.857,201.99a1.639,1.639,0,0,1-1.709,1.516,1.564,1.564,0,0,1-1.559-1.6,1.634,1.634,0,0,1,1.7-1.516,1.564,1.564,0,0,1,1.564,1.6Z" transform="translate(-312.327 -167.505)" fill="#263238"/>
      <path id="Path_59472" data-name="Path 59472" d="M406.229,195.908c-.219.192-1.378-.822-3.134-.961s-3.118.63-3.289.4c-.085-.107.15-.47.748-.833a4.469,4.469,0,0,1,2.67-.582,4.271,4.271,0,0,1,2.472,1.03C406.186,195.422,406.336,195.817,406.229,195.908Z" transform="translate(-312.77 -164.487)" fill="#263238"/>
      <path id="Path_59473" data-name="Path 59473" d="M436.143,200.66a1.639,1.639,0,0,1-1.709,1.516,1.57,1.57,0,0,1-1.564-1.6,1.639,1.639,0,0,1,1.709-1.516,1.57,1.57,0,0,1,1.564,1.6Z" transform="translate(-360.314 -166.886)" fill="#263238"/>
      <path id="Path_59474" data-name="Path 59474" d="M438.591,193.844c-.219.192-1.383-.822-3.134-.961s-3.118.63-3.289.4c-.085-.1.15-.47.747-.828a4.507,4.507,0,0,1,2.67-.587,4.3,4.3,0,0,1,2.472,1.03C438.549,193.353,438.709,193.754,438.591,193.844Z" transform="translate(-362.415 -163.524)" fill="#263238"/>
      <path id="Path_59475" data-name="Path 59475" d="M413.788,208.173a11.45,11.45,0,0,1,2.894-.283c.449,0,.881-.059.982-.358a2.307,2.307,0,0,0-.187-1.356c-.336-1.121-.683-2.291-1.068-3.524-1.436-5.014-2.44-9.12-2.237-9.173s1.532,3.962,2.969,8.97c.347,1.239.678,2.413.988,3.54a2.579,2.579,0,0,1,.085,1.778,1.121,1.121,0,0,1-.79.6,3.017,3.017,0,0,1-.769.043A15.055,15.055,0,0,1,413.788,208.173Z" transform="translate(-332.315 -164.286)" fill="#263238"/>
      <path id="Path_59476" data-name="Path 59476" d="M422.784,222.429c.288,0,.133,1.911,1.655,3.4S428,227.277,428,227.544c0,.117-.486.331-1.345.283a4.747,4.747,0,0,1-2.974-1.324,4.122,4.122,0,0,1-1.265-2.841C422.4,222.862,422.656,222.408,422.784,222.429Z" transform="translate(-346.581 -177.778)" fill="#263238"/>
      <path id="Path_59477" data-name="Path 59477" d="M438.35,181.337c-.214.465-1.949.091-4.026.171s-3.8.5-4.031.048c-.107-.214.219-.635.929-1.068a7.016,7.016,0,0,1,6.14-.166C438.094,180.712,438.441,181.118,438.35,181.337Z" transform="translate(-361.149 -157.862)" fill="#263238"/>
      <path id="Path_59478" data-name="Path 59478" d="M406.118,186.177c-.342.374-1.516-.139-2.969-.278s-2.707.043-2.958-.4c-.107-.214.117-.6.689-.929a4.143,4.143,0,0,1,2.472-.454,4.079,4.079,0,0,1,2.3,1C406.134,185.584,406.262,186.011,406.118,186.177Z" transform="translate(-312.883 -159.909)" fill="#263238"/>
      <path id="Path_59479" data-name="Path 59479" d="M463.92,159.153l-.064.043a9.039,9.039,0,0,0-3.844,5.537l-.048.23c-.715,3.2-.913,6.541-1.66,9.755s-.609,5.67-3.828,6.407A4.271,4.271,0,0,1,450,179.3a2.744,2.744,0,0,1-.283-1.527c.037-7.913-1.554-10.988-.854-19.222a6.941,6.941,0,0,1,3.342-5.4c1.826-1.095,4.037-2.2,5.873-1.137s4.021,4.853,5.382,6.5" transform="translate(-396.533 -144.76)" fill="#263238"/>
      <path id="Path_59480" data-name="Path 59480" d="M475.5,197.053c-.192-.1-7.657-2.969-8.057,4.864s7.55,6.61,7.571,6.407S475.5,197.053,475.5,197.053Z" transform="translate(-418.125 -165.676)" fill="#ffbe9d"/>
      <path id="Path_59481" data-name="Path 59481" d="M475.887,207.386c-.032-.027-.139.091-.374.182a1.356,1.356,0,0,1-1.02-.032c-.812-.342-1.442-1.693-1.41-3.107a4.49,4.49,0,0,1,.481-1.933,1.57,1.57,0,0,1,1.068-.993.689.689,0,0,1,.785.416c.1.224.037.374.08.39s.171-.123.128-.449a.9.9,0,0,0-.283-.507,1.068,1.068,0,0,0-.747-.235,1.922,1.922,0,0,0-1.484,1.143,4.609,4.609,0,0,0-.582,2.136c-.032,1.6.7,3.1,1.815,3.481a1.458,1.458,0,0,0,1.26-.144C475.866,207.573,475.914,207.4,475.887,207.386Z" transform="translate(-421.239 -167.845)" fill="#eb996e"/>
      <path id="Path_59482" data-name="Path 59482" d="M376.737,147.238c-1.666-3.284,3.972-7.336,7.929-8.233s8.879,1.4,12.606,3c2.355,1,4.672,2.323,7.229,2.424a17.133,17.133,0,0,0,5.056-.849,12.577,12.577,0,0,1,5.078-.571,4.72,4.72,0,0,1,3.892,2.947c.513,1.639-.587,3.738-2.3,3.823a3.847,3.847,0,1,1,.432,7.192c1.18-.753,2.771.78,2.515,2.136a4.119,4.119,0,0,1-2.91,2.739c-3.38,1.159-7.139.39-10.417-1.025s-6.252-3.439-9.493-4.934-8.66-4.143-12.11-3.241c-2.542.667-4.506,3.5-5.873,2.728a4.805,4.805,0,0,1-2.178-3.738,13.723,13.723,0,0,1,.534-4.432" transform="translate(-315.538 -138.803)" fill="#263238"/>
      <path id="Path_59483" data-name="Path 59483" d="M423.23,151.552c-.064-.043-.449.534-1.367,1.388a10.791,10.791,0,0,1-4.57,2.429,9.926,9.926,0,0,1-7.422-.913c-2.557-1.41-4.635-3.983-7.064-6.439a16.44,16.44,0,0,0-8.431-4.944,9.043,9.043,0,0,0-7.678,1.965,6.861,6.861,0,0,0-2.194,4.9,5.437,5.437,0,0,0,.219,1.468c.117.315.192.475.219.465a12.182,12.182,0,0,1-.133-1.922,6.744,6.744,0,0,1,2.253-4.506,8.564,8.564,0,0,1,7.187-1.671,15.909,15.909,0,0,1,8.009,4.805c2.365,2.435,4.522,5.046,7.261,6.519a10.679,10.679,0,0,0,12.553-1.927,7.643,7.643,0,0,0,.913-1.148C423.171,151.723,423.251,151.568,423.23,151.552Z" transform="translate(-321.58 -140.721)" fill="#455a64"/>
      <path id="Path_59484" data-name="Path 59484" d="M458.77,179.147c.027.027.358-.187.7-.785a5.254,5.254,0,0,0,.619-2.8c.037-2.531-1.965-5.414-1.96-8.911a7.881,7.881,0,0,1,1.249-4.592,6.023,6.023,0,0,1,3.113-2.269,5.094,5.094,0,0,1,2.638-.139c.619.155.94.326.977.267s-.256-.3-.892-.534a4.933,4.933,0,0,0-2.873-.1,6.348,6.348,0,0,0-3.545,2.387,8.313,8.313,0,0,0-1.442,5.008,14.267,14.267,0,0,0,1.1,5.046,14.9,14.9,0,0,1,1.068,3.892A5.849,5.849,0,0,1,458.77,179.147Z" transform="translate(-403.358 -148.272)" fill="#455a64"/>
      <rect id="Rectangle_7372" data-name="Rectangle 7372" width="4.021" height="9.306" rx="2.01" transform="matrix(-0.733, 0.68, -0.68, -0.733, 59.31, 40.439)" fill="#263238"/>
      <path id="Path_59485" data-name="Path 59485" d="M424.766,332.17a2.326,2.326,0,0,1-.032.315c-.032.208-.037.534-.069.918-.059.817-.139,2.018-.251,3.577-.214,3.139-.534,7.726-.913,13.541s-.838,12.857-1.372,20.9q-.192,3.017-.406,6.22c-.08,1.068-.123,2.136-.171,3.257a15.665,15.665,0,0,0,0,1.661,16.136,16.136,0,0,0,.091,1.682l.208,1.7c.123.561.246,1.127.363,1.693a16.39,16.39,0,0,0,.534,1.671,8.707,8.707,0,0,0,.737,1.6,9.637,9.637,0,0,0,5.291,4.805h69l-.048-.176c-.507-1.8-1.009-3.588-1.506-5.366q-.379-1.329-.742-2.67a18.441,18.441,0,0,1-.619-2.632,11.442,11.442,0,0,1,.459-5.243,6.406,6.406,0,0,1,1.249-2.253,3.673,3.673,0,0,1,2.136-1.255l1.095-.171-1.068-.091L479,374.2h.059a6.738,6.738,0,0,0-4.271-1.308,8.543,8.543,0,0,0-4.117,1.314h.091l-16.728-3.15.075.128a7.01,7.01,0,0,0,.288-1.97,16.075,16.075,0,0,0-.053-1.906,29.517,29.517,0,0,0-.507-3.609v.064c1.34-2.5,2.568-4.805,3.706-6.909v-.032c.262-6.156.358-11.01.31-14.32,0-1.655-.08-2.926-.166-3.78a6.458,6.458,0,0,0-.144-.961c-.048-.214-.075-.32-.075-.32a1.509,1.509,0,0,0,.053.326,7.1,7.1,0,0,1,.123.961c.075.854.123,2.136.128,3.775,0,3.31-.1,8.164-.379,14.315v-.032c-1.137,2.109-2.376,4.394-3.738,6.893h0v.032a30.171,30.171,0,0,1,.507,3.609,15.869,15.869,0,0,1,.048,1.89,6.877,6.877,0,0,1-.283,1.911l-.032.107H454l16.723,3.2h.043l.043-.027a8.249,8.249,0,0,1,3.994-1.26,6.45,6.45,0,0,1,4.1,1.265h.064l19.723,1.677v-.262a3.914,3.914,0,0,0-2.307,1.335,6.734,6.734,0,0,0-1.3,2.349,11.689,11.689,0,0,0-.475,5.366,18.277,18.277,0,0,0,.625,2.67l.742,2.67q.748,2.67,1.5,5.339l.134-.176H481.053l-52.235.037h0a8.008,8.008,0,0,1-3.027-1.869,11.277,11.277,0,0,1-2.109-2.825c-.283-.534-.486-1.068-.726-1.6a14.134,14.134,0,0,1-.534-1.65c-.171-.55-.24-1.116-.363-1.671s-.139-1.127-.208-1.682a15.932,15.932,0,0,1-.1-1.666,15.5,15.5,0,0,1,0-1.65c.048-1.095.085-2.173.165-3.241q.2-3.2.4-6.226c.534-8.046.956-15.094,1.324-20.914s.646-10.4.844-13.541c.091-1.559.166-2.766.214-3.583,0-.4.037-.7.048-.918S424.766,332.17,424.766,332.17Z" transform="translate(-417.916 -228.925)" fill="#263238"/>
      <path id="Path_59486" data-name="Path 59486" d="M504.44,277.68a10.217,10.217,0,0,0,.95.593,22.237,22.237,0,0,1,2.472,1.773,29,29,0,0,1,6.407,7.657,63.251,63.251,0,0,1,4.271,9.077l1.111,2.841.31.774a1.125,1.125,0,0,0,.123.262,1.067,1.067,0,0,0-.069-.283c-.069-.208-.16-.47-.262-.79-.235-.683-.577-1.666-1.03-2.878a57.233,57.233,0,0,0-4.213-9.157A27.808,27.808,0,0,0,508,279.88a18.938,18.938,0,0,0-2.542-1.709c-.31-.187-.571-.3-.737-.384a1.33,1.33,0,0,0-.278-.107Z" transform="translate(-482.469 -203.529)" fill="#263238"/>
      <g id="Group_18661" data-name="Group 18661" transform="translate(35.843 94.499)" opacity="0.3">
        <path id="Path_59487" data-name="Path 59487" d="M481.759,315.833a35.443,35.443,0,0,1,2.99,15.97c-.2,5.425-.854,10.865-.32,16.274s2.408,10.924,6.439,14.56a5.239,5.239,0,0,1,1.3,1.447,1.468,1.468,0,0,1-.251,1.789,2.136,2.136,0,0,1-1.677.176c-3.86-.673-7.769-1.153-11.634-1.821-.828-.144-3.609-.689-3.609-.689a15.1,15.1,0,0,0,.235-3.2c-.123-.966-.5-4.271-.5-4.271a5.682,5.682,0,0,1,.742-1.378,31.582,31.582,0,0,0,3.2-8.217,37.416,37.416,0,0,0,2.526-7.929c1.693-7,1.645-13.882.566-22.751" transform="translate(-474.732 -315.79)"/>
      </g>
      <g id="Group_18662" data-name="Group 18662" transform="translate(73.095 82.716)" opacity="0.3">
        <path id="Path_59488" data-name="Path 59488" d="M427.289,297.576c-.315.8-.635,1.6-.95,2.408a.972.972,0,0,1-.459.6c-.475.182-.854-.4-1.068-.86a6.167,6.167,0,0,0-4.736-3.326c-1.6-.187-3.289.283-4.885-.048a21.645,21.645,0,0,1,4.41-2.194,7.315,7.315,0,0,1,4.843-.048,4.469,4.469,0,0,1,2.921,3.647" transform="translate(-415.19 -293.722)"/>
      </g>
      <g id="Group_18663" data-name="Group 18663" transform="translate(49.949 72.613)" opacity="0.3">
        <path id="Path_59489" data-name="Path 59489" d="M461.526,286.733a26.013,26.013,0,0,0-5.654.534,8.821,8.821,0,0,0-4.843,2.787c-1.292,1.575-1.773,3.641-2.3,5.606-.1.379-.283.828-.667.87a.95.95,0,0,1-.641-.251,18.627,18.627,0,0,1-6.461-9.734A42.607,42.607,0,0,1,439.48,274.8c1.527,2.728,2.189,5.836,3.2,8.794s2.493,5.937,5.11,7.646a2.552,2.552,0,0,1,.6-1.874,5.6,5.6,0,0,1,1.554-1.271,14.843,14.843,0,0,1,11.885-1.458" transform="translate(-439.48 -274.8)"/>
      </g>
      <path id="Path_59490" data-name="Path 59490" d="M353.8,410.713h6.541s14.753-5.339,17.785-4.805c2.734.459,12.734,7.1,14.694,8.42a1.233,1.233,0,0,1,.475.6h0a2.136,2.136,0,0,1-1.2,2.723l-.2.085.085.3a3.54,3.54,0,0,1,.155,1.2,1.442,1.442,0,0,1-2.67.619l.374.673a1.6,1.6,0,0,1,.208.9l-.032.6a1.645,1.645,0,0,1-1.132,1.474h0a1.639,1.639,0,0,1-1.709-.475c-1.271-1.394-4.01-4.186-5.873-4.5a43.322,43.322,0,0,0-6.055-.3,2.056,2.056,0,0,0-1.906,1.308h0c1.1.08,8.767,4.079,11.48,5.51a2.889,2.889,0,0,1,1.575,2.184c.1.849-.326,1.735-2.008,1.346a74.486,74.486,0,0,1-10.091-3.823s-3.342-.956-5.51.571c-3.049,2.136-4.448,2.942-7.064,2.072a22.183,22.183,0,0,1-4.549-2.136l-5.158-.534S347.128,412.581,353.8,410.713Z" transform="translate(-273.504 -263.274)" fill="#ffbe9d"/>
      <path id="Path_59491" data-name="Path 59491" d="M357.41,419.046c0,.059,1.068-.272,2.771-.384A14.3,14.3,0,0,1,372.1,423.75a27.591,27.591,0,0,1,1.639,2.269,3.259,3.259,0,0,0-.326-.683,12.405,12.405,0,0,0-1.159-1.709,13.85,13.85,0,0,0-12.094-5.158,12.819,12.819,0,0,0-2.034.342A3.472,3.472,0,0,0,357.41,419.046Z" transform="translate(-257.624 -269.12)" fill="#eb996e"/>
      <path id="Path_59492" data-name="Path 59492" d="M353.16,412.242a11.213,11.213,0,0,1,9.611,1.4,26.889,26.889,0,0,1,5.393,4.576l1.484,1.559a3.811,3.811,0,0,0,.566.534,5.141,5.141,0,0,0-.486-.63c-.326-.4-.806-.956-1.42-1.634a24.848,24.848,0,0,0-5.409-4.683,12.281,12.281,0,0,0-6.861-1.858,8.245,8.245,0,0,0-2.136.4,4.807,4.807,0,0,0-.534.208Z" transform="translate(-251.825 -265.899)" fill="#eb996e"/>
    </g>
    <g id="freepik--speech-bubble--inject-4" transform="translate(57.7 34.035)">
      <path id="Path_59493" data-name="Path 59493" d="M525.544,135.11a21.827,21.827,0,0,1,17.908,34.316l2.622,8.142-8.009-2.728a21.832,21.832,0,1,1-12.5-39.73Z" transform="translate(-503.331 -134.949)" fill="#fff"/>
      <path id="Path_59494" data-name="Path 59494" d="M526.782,173.987a1.885,1.885,0,1,0,1.826-1.938,1.885,1.885,0,0,0-1.826,1.938Z" transform="translate(-498.813 -152.165)" fill="#263238"/>
      <path id="Path_59495" data-name="Path 59495" d="M540.942,174.417a1.885,1.885,0,1,0,1.826-1.938A1.885,1.885,0,0,0,540.942,174.417Z" transform="translate(-520.533 -152.365)" fill="#263238"/>
      <path id="Path_59496" data-name="Path 59496" d="M555.658,173.9a1.88,1.88,0,1,0,1.114-.913A1.885,1.885,0,0,0,555.658,173.9Z" transform="translate(-542.761 -152.567)" fill="#263238"/>
      <path id="Path_59497" data-name="Path 59497" d="M524.571,134.82a1.563,1.563,0,0,0-.379,0l-1.121.064a4.081,4.081,0,0,0-.822.059l-.982.171-1.148.2-1.276.358a20.944,20.944,0,0,0-6.151,2.91,22,22,0,0,0-9.611,16.846,22.8,22.8,0,0,0,0,3.017c.053.507.059,1.025.149,1.538s.187,1.025.278,1.548a22.216,22.216,0,0,0,2.312,6.076A23.744,23.744,0,0,0,509.995,173a23.189,23.189,0,0,0,5.9,3.978,21.069,21.069,0,0,0,7.1,1.949,13.883,13.883,0,0,0,1.885.1,17.375,17.375,0,0,0,1.9,0,22.96,22.96,0,0,0,3.786-.593,22.3,22.3,0,0,0,7.475-3.417l-.23.032,7.8,2.862.464.171-.144-.47-2.515-8.175-.032.2a22.064,22.064,0,0,0,3.828-9.536,19.953,19.953,0,0,0,.155-4.837,15.572,15.572,0,0,0-.288-2.307l-.208-1.127c-.08-.368-.2-.721-.3-1.068a22.051,22.051,0,0,0-8.975-12.28,21.137,21.137,0,0,0-5.2-2.547l-1.164-.379-1.105-.246-1.009-.214c-.32-.053-.63-.08-.924-.112-.587-.059-1.1-.144-1.548-.149h-1.826a.89.89,0,0,0-.235,0,1.011,1.011,0,0,0,.235,0l.689.037,1.137.037a15,15,0,0,1,1.532.187,21.918,21.918,0,0,1,18.02,15.73c.091.352.214.7.288,1.068s.133.737.2,1.105a15.782,15.782,0,0,1,.272,2.269,19.95,19.95,0,0,1-.171,4.736,21.747,21.747,0,0,1-3.78,9.338l-.069.091.037.112q1.207,3.967,2.493,8.18l.32-.3-7.8-2.867-.123-.048-.107.075a21.7,21.7,0,0,1-7.3,3.332,21.418,21.418,0,0,1-3.7.582,16.6,16.6,0,0,1-1.858.027,14.019,14.019,0,0,1-1.837-.1,20.546,20.546,0,0,1-6.941-1.9,22.773,22.773,0,0,1-5.782-3.882,23.157,23.157,0,0,1-4.1-5.27,21.63,21.63,0,0,1-2.253-5.943c-.1-.534-.187-1.014-.283-1.511s-.1-1.014-.149-1.511a22.962,22.962,0,0,1-.043-2.963,21.8,21.8,0,0,1,9.354-16.637,20.941,20.941,0,0,1,6.055-2.953l1.26-.374,1.132-.224.972-.187c.3-.043.577-.059.817-.085l1.111-.117A2.675,2.675,0,0,0,524.571,134.82Z" transform="translate(-503.03 -134.808)" fill="#263238"/>
    </g>
    <g id="freepik--Device--inject-4" transform="translate(152.331 154.015)">
      <path id="Path_59531" data-name="Path 59531" d="M301.715,412l17.716-44.471a5.815,5.815,0,0,0-5.382-8.009H258.862a5.814,5.814,0,0,0-5.5,3.945L238.14,408.316l-17.775.085c-1.442,0-2.611,2.136-2.611,3.561h0l19.563-.224Z" transform="translate(-217.755 -359.52)" fill="#263238"/>
      <path id="Path_59532" data-name="Path 59532" d="M246.865,378.745a6.172,6.172,0,0,1,3.567.956,4.645,4.645,0,0,1,.972.806,6.974,6.974,0,0,1,1.96,6.354c-.673,3.225-2.75,3.668-3.738,3.775s-7.753-1.821-7.753-1.821-2.456-2.088-1.6-4.832A7.363,7.363,0,0,1,246.865,378.745Z" transform="translate(-163.337 -368.478)" fill="#efa00b"/>
      <path id="Path_59533" data-name="Path 59533" d="M254.739,396.819s-.246,1.725-1.111,2.136a6.515,6.515,0,0,1-3.738.048c-1.26-.31-3.075-1.015-3.289-1.97a4.021,4.021,0,0,1,.107-2.248,5.633,5.633,0,0,1,4.549-.422A6.012,6.012,0,0,1,254.739,396.819Z" transform="translate(-167.975 -375.621)" fill="#f5f5f5"/>
      <g id="Group_18664" data-name="Group 18664" transform="translate(81.172 10.506)" opacity="0.4">
        <path id="Path_59534" data-name="Path 59534" d="M244.9,381.655a3.246,3.246,0,1,0,3.94-2.36A3.246,3.246,0,0,0,244.9,381.655Z" transform="translate(-244.801 -379.197)" fill="#fff"/>
      </g>
      <g id="Group_18665" data-name="Group 18665" transform="translate(88.54 14.672)" opacity="0.4">
        <path id="Path_59535" data-name="Path 59535" d="M241.089,392.339a4.164,4.164,0,0,1-.924-2.755A4.058,4.058,0,0,1,241.372,387a7.966,7.966,0,0,1,.352,3.284,5.932,5.932,0,0,1-.635,2.056Z" transform="translate(-240.163 -387)" fill="#fff"/>
      </g>
      <g id="Group_18666" data-name="Group 18666" transform="translate(76.757 12.126)" opacity="0.4">
        <path id="Path_59536" data-name="Path 59536" d="M260.561,386.939a4.128,4.128,0,0,0,2.109-1.992,3.668,3.668,0,0,0,.208-2.718,9.018,9.018,0,0,0-1.842,2.59A3.9,3.9,0,0,0,260.561,386.939Z" transform="translate(-260.545 -382.23)" fill="#fff"/>
      </g>
      <path id="Path_59537" data-name="Path 59537" d="M286.08,408.963a3.588,3.588,0,1,0,3.588-3.583,3.588,3.588,0,0,0-3.588,3.583Z" transform="translate(-227.63 -380.894)" fill="#f5f5f5"/>
    </g>
    <g id="freepik--Desk--inject-4" transform="translate(2.574 206.095)">
      <path id="Path_59538" data-name="Path 59538" d="M80.29,457.2c0,.075,72.818.139,162.63.139s162.63-.064,162.63-.139-72.8-.139-162.63-.139S80.29,457.119,80.29,457.2Z" transform="translate(-80.29 -457.06)" fill="#263238"/>
    </g>
    <g id="freepik--Plant--inject-4" transform="translate(-2.065 152.397)">
      <path id="Path_59539" data-name="Path 59539" d="M180.03,393.741c5.222-3.027,8.009-10.07,8.223-15.836s-2.189-11.773-6.941-15.078a15.835,15.835,0,0,0-17.182-.144,17.882,17.882,0,0,0-7.881,15.532,20.681,20.681,0,0,0,8.431,15.484" transform="translate(-154.916 -358.228)" fill="#efa00b"/>
      <path id="Path_59540" data-name="Path 59540" d="M184.638,394.74a6.712,6.712,0,0,0,.1-1.319c.027-.945.064-2.136.1-3.593.08-3.038.2-7.229.4-11.853s.454-8.815.646-11.843c.085-1.447.155-2.67.214-3.593a6.409,6.409,0,0,0,0-1.319,6.818,6.818,0,0,0-.208,1.3c-.1.844-.23,2.066-.368,3.583-.278,3.022-.582,7.213-.785,11.848s-.267,8.831-.256,11.869c0,1.516,0,2.75.053,3.6A7.065,7.065,0,0,0,184.638,394.74Z" transform="translate(-167.858 -358.694)" fill="#fff"/>
      <path id="Path_59541" data-name="Path 59541" d="M152.26,390.5c0,.133.844.176,1.858.091s1.831-.262,1.821-.4-.844-.176-1.858-.091S152.249,390.363,152.26,390.5Z" transform="translate(-120.466 -372.134)" fill="#263238"/>
      <path id="Path_59542" data-name="Path 59542" d="M154.057,379.993c.059.123.774-.075,1.6-.443s1.458-.769,1.4-.892-.774.075-1.6.443S154,379.892,154.057,379.993Z" transform="translate(-122.552 -366.804)" fill="#263238"/>
      <path id="Path_59543" data-name="Path 59543" d="M159.065,371.839c.069.112.876-.267,1.719-.961s1.362-1.42,1.265-1.506-.764.454-1.6,1.127S158.99,371.727,159.065,371.839Z" transform="translate(-130.218 -362.489)" fill="#263238"/>
      <path id="Path_59544" data-name="Path 59544" d="M167.253,364.686c.123.053.534-.534.865-1.351s.534-1.495.416-1.548-.534.534-.865,1.351S167.13,364.633,167.253,364.686Z" transform="translate(-141.081 -358.957)" fill="#263238"/>
      <path id="Path_59545" data-name="Path 59545" d="M175.593,359.65c.123.053.534-.587.817-1.479s.3-1.661.171-1.682-.368.678-.641,1.532S175.47,359.592,175.593,359.65Z" transform="translate(-153.624 -356.489)" fill="#263238"/>
      <path id="Path_59546" data-name="Path 59546" d="M189.119,357c-.128.048-.048.6.176,1.228s.534,1.111.635,1.068.048-.6-.176-1.228S189.247,356.943,189.119,357Z" transform="translate(-174.155 -356.724)" fill="#263238"/>
      <path id="Path_59547" data-name="Path 59547" d="M197,361.147c-.091.1.24.534.742,1.02s.988.764,1.068.667-.24-.561-.742-1.025S197.093,361.061,197,361.147Z" transform="translate(-187.233 -358.653)" fill="#263238"/>
      <path id="Path_59548" data-name="Path 59548" d="M205.072,366.666c-.075.112.331.534.908.913s1.111.614,1.185.5-.331-.534-.908-.908S205.163,366.554,205.072,366.666Z" transform="translate(-199.895 -361.22)" fill="#263238"/>
      <path id="Path_59549" data-name="Path 59549" d="M209.371,374.909c-.053.128.587.534,1.431.876s1.57.534,1.6.427-.587-.534-1.431-.876S209.4,374.786,209.371,374.909Z" transform="translate(-207.424 -365.057)" fill="#263238"/>
      <path id="Path_59550" data-name="Path 59550" d="M211.879,383.835c0,.133.635.326,1.458.427s1.5.075,1.516-.059-.635-.326-1.458-.427S211.9,383.7,211.879,383.835Z" transform="translate(-211.214 -369.178)" fill="#263238"/>
      <path id="Path_59551" data-name="Path 59551" d="M213.247,393.862c.053.123.748-.059,1.548-.411s1.41-.732,1.356-.854-.747.059-1.548.406S213.194,393.744,213.247,393.862Z" transform="translate(-213.244 -373.3)" fill="#263238"/>
      <path id="Path_59552" data-name="Path 59552" d="M211.572,402.679c.043.123.924-.085,1.842-.689s1.463-1.319,1.367-1.41-.769.438-1.634,1S211.524,402.546,211.572,402.679Z" transform="translate(-210.986 -377.034)" fill="#263238"/>
      <path id="Path_59553" data-name="Path 59553" d="M208.181,410.936c.08.107.78-.3,1.452-1.03s1.03-1.447.918-1.522-.635.5-1.276,1.191S208.1,410.846,208.181,410.936Z" transform="translate(-204.953 -380.673)" fill="#263238"/>
      <path id="Path_59554" data-name="Path 59554" d="M159.1,414.173c-.064.117.673.625,1.639,1.127s1.8.817,1.863.694-.667-.625-1.639-1.127A4.518,4.518,0,0,0,159.1,414.173Z" transform="translate(-130.78 -383.364)" fill="#263238"/>
      <path id="Path_59555" data-name="Path 59555" d="M156.067,406.329c-.053.123.534.534,1.313.865s1.463.534,1.516.422-.534-.534-1.313-.865S156.126,406.207,156.067,406.329Z" transform="translate(-125.459 -379.702)" fill="#263238"/>
      <path id="Path_59556" data-name="Path 59556" d="M152.049,399.344c0,.133.7.347,1.6.475s1.666.128,1.687,0-.71-.347-1.6-.475S152.065,399.211,152.049,399.344Z" transform="translate(-119.754 -376.417)" fill="#263238"/>
      <path id="Path_59557" data-name="Path 59557" d="M162.392,395.555c-.043.128.667.454,1.6.561s1.7-.059,1.693-.187-.742-.2-1.639-.3S162.429,395.422,162.392,395.555Z" transform="translate(-135.622 -374.668)" fill="#263238"/>
      <path id="Path_59558" data-name="Path 59558" d="M172.231,386.99c-.037.123.534.411,1.281.481s1.367-.091,1.351-.224-.6-.192-1.3-.262S172.274,386.857,172.231,386.99Z" transform="translate(-150.054 -370.667)" fill="#263238"/>
      <path id="Path_59559" data-name="Path 59559" d="M174.007,379.376c.043.128.651.037,1.362-.208s1.244-.534,1.2-.673-.651-.037-1.356.208S173.964,379.269,174.007,379.376Z" transform="translate(-152.705 -366.716)" fill="#263238"/>
      <path id="Path_59560" data-name="Path 59560" d="M180,371.724c.091.1.534-.182.806-.7s.331-1.02.2-1.068-.358.347-.625.806S179.93,371.633,180,371.724Z" transform="translate(-160.412 -362.764)" fill="#263238"/>
      <path id="Path_59561" data-name="Path 59561" d="M173.911,401.569c-.032.133.491.374,1.175.534a4.556,4.556,0,0,0,.988.144l.1-.288c-.182-.032-.294,0-.315.032s.048.139.192.246l.1-.283a4.321,4.321,0,0,0-.945-.326C174.525,401.468,173.943,401.441,173.911,401.569Z" transform="translate(-152.263 -377.462)" fill="#263238"/>
      <path id="Path_59562" data-name="Path 59562" d="M173.968,413.756c-.053.128.619.507,1.5.854s1.629.534,1.677.4-.619-.507-1.5-.849S174.016,413.634,173.968,413.756Z" transform="translate(-153.265 -383.162)" fill="#263238"/>
      <path id="Path_59563" data-name="Path 59563" d="M166.168,408.341c-.043.128.4.4,1,.6s1.116.262,1.159.133-.406-.4-1-.6S166.21,408.213,166.168,408.341Z" transform="translate(-140.279 -380.624)" fill="#263238"/>
      <path id="Path_59564" data-name="Path 59564" d="M164.973,382.649c.032.128.812.053,1.714-.272s1.559-.748,1.5-.865-.785.1-1.661.406S164.973,382.515,164.973,382.649Z" transform="translate(-139.507 -368.136)" fill="#263238"/>
      <path id="Path_59565" data-name="Path 59565" d="M190.275,380.973c-.075.112.368.534.982.94s1.18.646,1.249.534-.363-.534-.977-.94S190.349,380.85,190.275,380.973Z" transform="translate(-177.334 -367.886)" fill="#263238"/>
      <path id="Path_59566" data-name="Path 59566" d="M191.679,393.1c-.032.133.432.342,1.03.465s1.1.117,1.132,0-.438-.342-1.036-.465S191.705,392.963,191.679,393.1Z" transform="translate(-179.416 -373.506)" fill="#263238"/>
      <path id="Path_59567" data-name="Path 59567" d="M192.036,405.749c.059.123.721-.064,1.484-.422s1.34-.737,1.281-.86-.721.064-1.484.416S191.978,405.626,192.036,405.749Z" transform="translate(-180.57 -378.833)" fill="#263238"/>
      <path id="Path_59568" data-name="Path 59568" d="M191.151,418.594c.107.085.534-.267.966-.785s.689-1.014.587-1.1-.534.267-.966.785S191.049,418.508,191.151,418.594Z" transform="translate(-178.007 -384.55)" fill="#263238"/>
      <path id="Path_59569" data-name="Path 59569" d="M190.31,371.967c-.085.1.2.459.689.7s.945.262.982.133-.32-.347-.764-.571S190.39,371.855,190.31,371.967Z" transform="translate(-176.819 -363.686)" fill="#263238"/>
      <path id="Path_59570" data-name="Path 59570" d="M199.942,384.24c-.043.123.534.438,1.3.534s1.41-.037,1.4-.166-.609-.214-1.329-.32S200.011,384.111,199.942,384.24Z" transform="translate(-192.629 -369.39)" fill="#263238"/>
      <path id="Path_59571" data-name="Path 59571" d="M197.374,373.221c-.059.117.507.534,1.308.774s1.5.256,1.516.128-.6-.347-1.367-.593S197.438,373.082,197.374,373.221Z" transform="translate(-188.811 -364.266)" fill="#263238"/>
      <path id="Path_59572" data-name="Path 59572" d="M199.717,400.719a3.679,3.679,0,0,0,2.136,0,3.827,3.827,0,0,0,2-.753,6.9,6.9,0,0,0-2.082.267A6.217,6.217,0,0,0,199.717,400.719Z" transform="translate(-193.718 -376.734)" fill="#263238"/>
      <path id="Path_59573" data-name="Path 59573" d="M198.438,415.234c.08.107.79-.31,1.5-1.025s1.127-1.426,1.02-1.506-.678.47-1.367,1.159S198.352,415.127,198.438,415.234Z" transform="translate(-190.153 -382.685)" fill="#263238"/>
      <path id="Path_59574" data-name="Path 59574" d="M165.25,360.2a21.565,21.565,0,0,1,4.271,3.39A20.93,20.93,0,0,1,174.86,375.4a26.563,26.563,0,0,1-.32,7.235,56.381,56.381,0,0,1-1.356,5.8c-.47,1.634-.9,2.947-1.191,3.855a9.34,9.34,0,0,0-.411,1.426,8.213,8.213,0,0,0,.593-1.362c.342-.892.828-2.189,1.34-3.818a48.853,48.853,0,0,0,1.468-5.831,25.927,25.927,0,0,0,.363-7.368,20.52,20.52,0,0,0-5.58-11.992,15.4,15.4,0,0,0-3.2-2.5,9.947,9.947,0,0,0-.982-.534A1.057,1.057,0,0,0,165.25,360.2Z" transform="translate(-146.922 -358.216)" fill="#fff"/>
      <path id="Path_59575" data-name="Path 59575" d="M187.916,394.188a54.033,54.033,0,0,1-2.2-5.259A29.676,29.676,0,0,1,184.4,375.42a25.324,25.324,0,0,1,2.082-7.208,16.984,16.984,0,0,1,3.551-4.944,12.916,12.916,0,0,1,3.481-2.2c.908-.379,1.447-.47,1.442-.534a1.147,1.147,0,0,0-.4.027,7.618,7.618,0,0,0-1.111.3A12.163,12.163,0,0,0,189.806,363a16.718,16.718,0,0,0-3.738,5.014,24.925,24.925,0,0,0-2.136,7.331,28.667,28.667,0,0,0,1.474,13.7c.272.844.63,1.564.9,2.221a12.954,12.954,0,0,0,.812,1.6A8.754,8.754,0,0,0,187.916,394.188Z" transform="translate(-176.257 -358.371)" fill="#fff"/>
      <path id="Path_59576" data-name="Path 59576" d="M188.5,421.4H161.536l-.166,5.4H188.5Z" transform="translate(-157.896 -386.742)" fill="#263238"/>
      <path id="Path_59577" data-name="Path 59577" d="M188.512,426.45l-1.548,16.482H167.246l-1.586-16.3Z" transform="translate(-160.195 -389.096)" fill="#263238"/>
      <path id="Path_59578" data-name="Path 59578" d="M161.38,431.416c0,.133,6.071.246,13.562.246s13.567-.112,13.567-.246-6.071-.246-13.567-.246S161.38,431.282,161.38,431.416Z" transform="translate(-157.906 -391.296)" fill="#455a64"/>
      <path id="Path_59579" data-name="Path 59579" d="M168.1,439.611a4.036,4.036,0,0,0,.566,1.068,15.513,15.513,0,0,0,2.093,2.472l.123.117.123-.128a39.166,39.166,0,0,1,5.286-4.629h-.3l2.344,2.056,2.771,2.413.155.133.155-.133,4.5-3.786-.262-.027,2.328,2.841a6.407,6.407,0,0,0,.918,1,7.367,7.367,0,0,0-.753-1.127l-2.205-2.947-.112-.15-.15.123-4.57,3.706h.3l-2.755-2.424-2.355-2.05-.144-.123-.155.112a34.8,34.8,0,0,0-5.259,4.773h.246a27.911,27.911,0,0,1-2.894-3.294Z" transform="translate(-161.887 -394.488)" fill="#455a64"/>
    </g>
  </g>
</svg>
