<svg xmlns="http://www.w3.org/2000/svg" width="16.08" height="17.557" viewBox="0 0 16.08 17.557"><defs><style>.a{fill:#707070;}</style></defs><g transform="translate(-17.756)"><g transform="translate(17.756)"><path class="a" d="M32.142,7.258H32.1V6.193a6.193,6.193,0,1,0-12.386,0V7.258h-.261a1.77,1.77,0,0,0-1.695,1.825V11.8a1.717,1.717,0,0,0,1.672,1.76h1.63a.413.413,0,0,0,.393-.432c0-.008,0-.016,0-.025V7.779c0-.261-.152-.522-.391-.522h-.478V6.193a5.324,5.324,0,1,1,10.647,0V7.258h-.478c-.239,0-.391.261-.391.522V13.1a.413.413,0,0,0,.367.454l.025,0h.5l-.043.065a3.433,3.433,0,0,1-2.76,1.369,2.151,2.151,0,0,0-4.259.413,2.173,2.173,0,0,0,2.173,2.151,2.238,2.238,0,0,0,1.564-.674,1.912,1.912,0,0,0,.522-1.043A4.3,4.3,0,0,0,31.9,14.124l.413-.608a1.479,1.479,0,0,0,1.521-1.5V9.3A1.975,1.975,0,0,0,32.142,7.258ZM20.582,12.69h-1.13a.847.847,0,0,1-.827-.868c0-.008,0-.015,0-.023V9.083a.9.9,0,0,1,.826-.956h1.13ZM27.3,16.275a1.282,1.282,0,0,1-.934.413,1.325,1.325,0,0,1-1.3-1.282,1.282,1.282,0,1,1,2.564,0h0A1.152,1.152,0,0,1,27.3,16.275Zm5.671-4.259c0,.587-.565.674-.826.674h-.913V8.127h.913c.478,0,.826.674.826,1.173Z" transform="translate(-17.756)"/></g></g></svg>