<svg xmlns="http://www.w3.org/2000/svg" width="20.084" height="16.054" viewBox="0 0 20.084 16.054"><defs><style>.a{fill:#707070;}</style></defs><g transform="translate(0 -58.95)"><g transform="translate(0 58.95)"><path class="a" d="M0,61.627v10.7A2.682,2.682,0,0,0,2.677,75h8.648A2.682,2.682,0,0,0,14,72.327V70.594a.53.53,0,0,0-1.06,0v1.733a1.625,1.625,0,0,1-1.621,1.621H2.677a1.625,1.625,0,0,1-1.621-1.621v-10.7a1.625,1.625,0,0,1,1.621-1.621h8.648a1.625,1.625,0,0,1,1.621,1.621V63.36a.53.53,0,1,0,1.06,0V61.627a2.682,2.682,0,0,0-2.677-2.677H2.677A2.68,2.68,0,0,0,0,61.627Z" transform="translate(0 -58.95)"/><path class="a" d="M214.021,157.085a.531.531,0,0,0,.75,0l3.617-3.617a.526.526,0,0,0,0-.746l-3.617-3.617a.527.527,0,0,0-.746.746l2.716,2.716H206.83a.53.53,0,1,0,0,1.06h9.907l-2.716,2.716A.52.52,0,0,0,214.021,157.085Z" transform="translate(-198.459 -145.07)"/></g></g></svg>