<svg xmlns="http://www.w3.org/2000/svg" width="17.001" height="20.175" viewBox="0 0 17.001 20.175"><defs><style>.a{fill:#707070;}</style></defs><g transform="translate(0 0)"><path class="a" d="M91.9,9.731a4.708,4.708,0,0,0,3.44-1.425,4.708,4.708,0,0,0,1.425-3.44,4.708,4.708,0,0,0-1.425-3.44,4.864,4.864,0,0,0-6.88,0,4.708,4.708,0,0,0-1.425,3.44,4.708,4.708,0,0,0,1.425,3.44A4.709,4.709,0,0,0,91.9,9.731Zm-2.6-7.468a3.68,3.68,0,0,1,5.206,0,3.517,3.517,0,0,1,1.079,2.6,3.517,3.517,0,0,1-1.079,2.6,3.68,3.68,0,0,1-5.206,0,3.517,3.517,0,0,1-1.079-2.6,3.517,3.517,0,0,1,1.079-2.6Zm0,0" transform="translate(-83.527)"/><path class="a" d="M16.96,253.092a11.919,11.919,0,0,0-.165-1.276,9.985,9.985,0,0,0-.317-1.283,6.311,6.311,0,0,0-.532-1.2,4.517,4.517,0,0,0-.8-1.037,3.543,3.543,0,0,0-1.153-.718,4.015,4.015,0,0,0-1.472-.264,1.5,1.5,0,0,0-.8.335c-.239.155-.519.333-.831.531a4.783,4.783,0,0,1-1.075.47,4.21,4.21,0,0,1-2.63,0,4.769,4.769,0,0,1-1.074-.469c-.309-.2-.589-.375-.832-.531a1.5,1.5,0,0,0-.8-.335,4.01,4.01,0,0,0-1.471.264,3.54,3.54,0,0,0-1.153.718,4.518,4.518,0,0,0-.8,1.037,6.323,6.323,0,0,0-.532,1.2,10.008,10.008,0,0,0-.317,1.283,11.837,11.837,0,0,0-.165,1.277c-.027.386-.041.787-.041,1.193a3.339,3.339,0,0,0,1,2.538,3.636,3.636,0,0,0,2.59.936h9.812A3.636,3.636,0,0,0,16,256.823,3.338,3.338,0,0,0,17,254.285c0-.407-.014-.809-.041-1.193Zm-1.787,2.873a2.448,2.448,0,0,1-1.766.61H3.594a2.449,2.449,0,0,1-1.766-.61,2.18,2.18,0,0,1-.634-1.68c0-.379.013-.752.038-1.111a10.676,10.676,0,0,1,.149-1.15,8.827,8.827,0,0,1,.278-1.131,5.148,5.148,0,0,1,.433-.973,3.349,3.349,0,0,1,.59-.766,2.35,2.35,0,0,1,.767-.473,2.769,2.769,0,0,1,.94-.18c.042.022.116.064.237.142.245.159.528.34.841.538a5.941,5.941,0,0,0,1.35.6,5.413,5.413,0,0,0,3.365,0,5.948,5.948,0,0,0,1.35-.6c.32-.2.6-.379.841-.537.121-.078.2-.12.237-.142a2.77,2.77,0,0,1,.941.18,2.354,2.354,0,0,1,.767.473,3.339,3.339,0,0,1,.59.766,5.131,5.131,0,0,1,.433.973,8.807,8.807,0,0,1,.279,1.131,10.766,10.766,0,0,1,.149,1.15h0c.025.357.038.731.038,1.111a2.18,2.18,0,0,1-.634,1.68Zm0,0" transform="translate(0 -237.584)"/></g></svg>