<svg xmlns="http://www.w3.org/2000/svg" width="17.076" height="17.332" viewBox="0 0 17.076 17.332"><defs><style>.a{fill:#707070;}</style></defs><g transform="translate(-2.403 -0.332)"><g transform="translate(2.003 0)"><g transform="translate(0 0)"><path class="a" d="M146.4,218.936h-3.247a.492.492,0,0,0-.492.492V225.8a.492.492,0,0,0,.492.492H146.4a.492.492,0,0,0,.492-.492v-6.371A.492.492,0,0,0,146.4,218.936Zm-.492,6.371h-2.263V219.92h2.263Z" transform="translate(-136.041 -208.627)"/><path class="a" d="M282.787,136.911h-3.272a.492.492,0,0,0-.492.492v10.233a.492.492,0,0,0,.492.492h3.272a.492.492,0,0,0,.492-.492V137.4A.492.492,0,0,0,282.787,136.911Zm-.492,10.233h-2.288v-9.249h2.288Z" transform="translate(-265.98 -130.465)"/><path class="a" d="M9.546,269.613H6.274a.492.492,0,0,0-.492.492v3.985a.492.492,0,0,0,.492.492H9.546a.492.492,0,0,0,.492-.492v-3.985A.492.492,0,0,0,9.546,269.613ZM9.054,273.6H6.766v-3H9.054Z" transform="translate(-5.382 -256.918)"/><path class="a" d="M18.955.494a.406.406,0,0,0-.312-.172L14.268,0a.486.486,0,0,0-.517.455A.49.49,0,0,0,14.2.986l3.1.215L11.6,5.758,7.249,2.265a.473.473,0,0,0-.625.025L2.153,6.668a.5.5,0,0,0-.024.689.429.429,0,0,0,.361.172.475.475,0,0,0,.337-.148L6.984,3.3l4.3,3.469a.472.472,0,0,0,.6,0l6.154-4.9L17.8,4.921a.512.512,0,0,0,.457.517h.024A.485.485,0,0,0,18.763,5L19.075.838A.4.4,0,0,0,18.955.494Z" transform="translate(-1.603 0.332)"/></g></g></g></svg>