<svg xmlns="http://www.w3.org/2000/svg" width="18.09" height="18.09" viewBox="0 0 18.09 18.09"><defs><style>.a{fill:#707070;}</style></defs><path class="a" d="M9.045,0A9.045,9.045,0,1,0,18.09,9.045,9.055,9.055,0,0,0,9.045,0Zm0,16.9A7.855,7.855,0,1,1,16.9,9.045,7.863,7.863,0,0,1,9.045,16.9Z"/><path class="a" d="M76.226,33.992V30.541a1.943,1.943,0,0,1,.958.679.736.736,0,0,0,.946.173.568.568,0,0,0,.195-.842,3.36,3.36,0,0,0-2.1-1.272v-.966a.688.688,0,0,0-1.366,0v.964a2.914,2.914,0,0,0,0,5.805v3.451a1.943,1.943,0,0,1-.958-.679.736.736,0,0,0-.946-.173.568.568,0,0,0-.195.842,3.36,3.36,0,0,0,2.1,1.272v.965a.688.688,0,0,0,1.366,0V39.8a2.914,2.914,0,0,0,0-5.805ZM73.575,32.18a1.774,1.774,0,0,1,1.285-1.639v3.278A1.774,1.774,0,0,1,73.575,32.18Zm2.651,6.353V35.255a1.688,1.688,0,0,1,0,3.278Z" transform="translate(-66.498 -25.492)"/></svg>