<svg xmlns="http://www.w3.org/2000/svg" width="17.967" height="17.967" viewBox="0 0 17.967 17.967"><defs><style>.a{fill:#707070;}</style></defs><g transform="translate(-0.001 0)"><g transform="translate(0.001 0.001)"><g transform="translate(0 0)"><path class="a" d="M17.814.155a.526.526,0,0,0-.744,0L15.536,1.688a1.583,1.583,0,0,0-.3-.107L10.474.4a1.587,1.587,0,0,0-1.5.415L.463,9.317a1.581,1.581,0,0,0,0,2.233l5.955,5.955a1.581,1.581,0,0,0,2.233,0l8.5-8.512a1.587,1.587,0,0,0,.415-1.5L16.388,2.73a1.586,1.586,0,0,0-.107-.3L17.814.9A.526.526,0,0,0,17.814.155Zm-1.27,7.595a.529.529,0,0,1-.138.5l-8.5,8.512a.527.527,0,0,1-.744,0L1.207,10.805a.527.527,0,0,1,0-.744l8.512-8.5a.529.529,0,0,1,.373-.154.522.522,0,0,1,.126.016l4.475,1.1L13.426,3.8a1.579,1.579,0,1,0,.744.744l1.268-1.268ZM13.118,5.595a.526.526,0,1,1,0-.744h0A.527.527,0,0,1,13.118,5.595Z" transform="translate(-0.001 -0.001)"/></g></g><path class="a" d="M3.267,4.284,3.134,2.006a1.7,1.7,0,0,1,.753.48.645.645,0,0,0,.724.146.334.334,0,0,0,.115-.549,2.978,2.978,0,0,0-1.641-.91L3.048.535A.533.533,0,0,0,2.506.111C2.22.1,2,.268,2.012.49l.037.636C.913,1.261.095,2.011.15,2.954a2.463,2.463,0,0,0,2.123,2l.133,2.278a1.7,1.7,0,0,1-.753-.48A.645.645,0,0,0,.928,6.61a.334.334,0,0,0-.115.549,2.978,2.978,0,0,0,1.641.91l.037.637a.533.533,0,0,0,.542.424c.286.013.508-.157.495-.378L3.49,8.116c1.136-.135,1.954-.885,1.9-1.828A2.463,2.463,0,0,0,3.267,4.284ZM1.186,3A1.064,1.064,0,0,1,2.1,1.96l.126,2.164A1.385,1.385,0,0,1,1.186,3ZM3.442,7.282,3.315,5.118A1.385,1.385,0,0,1,4.353,6.243,1.064,1.064,0,0,1,3.442,7.282Z" transform="translate(9.306 4.386) rotate(44)"/></g></svg>