<svg xmlns="http://www.w3.org/2000/svg" width="17.967" height="17.967" viewBox="0 0 17.967 17.967"><defs><style>.a{fill:#707070;}</style></defs><g transform="translate(-0.001 0)"><g transform="translate(0.001 0.001)"><g transform="translate(0 0)"><path class="a" d="M17.814.155a.526.526,0,0,0-.744,0L15.536,1.688a1.583,1.583,0,0,0-.3-.107L10.474.4a1.587,1.587,0,0,0-1.5.415L.463,9.317a1.581,1.581,0,0,0,0,2.233l5.955,5.955a1.581,1.581,0,0,0,2.233,0l8.5-8.512a1.587,1.587,0,0,0,.415-1.5L16.388,2.73a1.586,1.586,0,0,0-.107-.3L17.814.9A.526.526,0,0,0,17.814.155Zm-1.27,7.595a.529.529,0,0,1-.138.5l-8.5,8.512a.527.527,0,0,1-.744,0L1.207,10.805a.527.527,0,0,1,0-.744l8.512-8.5a.529.529,0,0,1,.373-.154.522.522,0,0,1,.126.016l4.475,1.1L13.426,3.8a1.579,1.579,0,1,0,.744.744l1.268-1.268ZM13.118,5.595a.526.526,0,1,1,0-.744h0A.527.527,0,0,1,13.118,5.595Z" transform="translate(-0.001 -0.001)"/></g></g><g transform="translate(6.025 5.945)"><path class="a" d="M172.262,167.907a1.494,1.494,0,1,0,0,2.113A1.5,1.5,0,0,0,172.262,167.907Zm-.7,1.409a.5.5,0,1,1,0-.7A.5.5,0,0,1,171.558,169.316Z" transform="translate(-169.712 -167.471)"/></g><g transform="translate(6.778 11.214)"><path class="a" d="M193.476,316.375a1.494,1.494,0,1,0,0,2.113A1.493,1.493,0,0,0,193.476,316.375Zm-.7,1.409a.5.5,0,1,1,0-.7A.5.5,0,0,1,192.771,317.784Z" transform="translate(-190.926 -315.937)"/></g><g transform="translate(4.195 9.217)"><path class="a" d="M122.167,261.534a.5.5,0,0,0-.55-.44l-6.339.7a.5.5,0,0,0,.054.993.5.5,0,0,0,.056,0l6.339-.7A.5.5,0,0,0,122.167,261.534Z" transform="translate(-114.835 -261.091)"/></g></g></svg>