<svg xmlns="http://www.w3.org/2000/svg" width="26.29" height="16.693" viewBox="0 0 26.29 16.693"><defs><style>.a{fill:#707070;}</style></defs><g transform="translate(0 -92.25)"><g transform="translate(0 92.25)"><path class="a" d="M22.737,99.595a3,3,0,1,0-3.444,0,5.2,5.2,0,0,0-1.774,1.04,6.729,6.729,0,0,0-2.434-1.326,3.8,3.8,0,1,0-3.933,0,6.785,6.785,0,0,0-2.408,1.311A5.243,5.243,0,0,0,6.991,99.6a3,3,0,1,0-3.444,0A5.268,5.268,0,0,0,0,104.578v.343a.022.022,0,0,0,.021.021H6.383a7,7,0,0,0-.057.879v.354a2.766,2.766,0,0,0,2.767,2.767h8.063a2.766,2.766,0,0,0,2.767-2.767v-.354a7,7,0,0,0-.057-.879h6.4a.022.022,0,0,0,.021-.021v-.343A5.289,5.289,0,0,0,22.737,99.595Zm-3.891-2.46A2.169,2.169,0,1,1,21.057,99.3h-.083A2.166,2.166,0,0,1,18.846,97.135Zm-8.708-1.082a2.97,2.97,0,1,1,3.142,2.965h-.343A2.975,2.975,0,0,1,10.138,96.053ZM3.085,97.135A2.169,2.169,0,1,1,5.3,99.3H5.212A2.169,2.169,0,0,1,3.085,97.135Zm3.444,6.97H.843a4.445,4.445,0,0,1,4.38-3.969h.062a4.4,4.4,0,0,1,2.835,1.056A6.83,6.83,0,0,0,6.528,104.1Zm12.552,2.07a1.938,1.938,0,0,1-1.935,1.935H9.082a1.938,1.938,0,0,1-1.935-1.935v-.354a5.975,5.975,0,0,1,5.79-5.966c.057.005.12.005.177.005s.12,0,.177-.005a5.975,5.975,0,0,1,5.79,5.966Zm.619-2.07a6.812,6.812,0,0,0-1.576-2.892,4.42,4.42,0,0,1,2.861-1.077h.062a4.445,4.445,0,0,1,4.38,3.969Z" transform="translate(0 -92.25)"/></g></g></svg>