<svg xmlns="http://www.w3.org/2000/svg" width="350.551" height="281.079" viewBox="0 0 350.551 281.079">
  <g id="Reading_list-pana" data-name="Reading list-pana" transform="translate(-33.456 -42.15)">
    <g id="freepik--background-complete--inject-233" transform="translate(33.456 42.15)">
      <path id="Path_66634" data-name="Path 66634" d="M109.232,357.844h30.661a3.908,3.908,0,0,0,3.908-3.908V344.5a6.584,6.584,0,0,0-6.584-6.584H109Z" transform="translate(-58.962 -142.01)" fill="#ebebeb"/>
      <path id="Path_66635" data-name="Path 66635" d="M122.633,373.961H62.357a2.968,2.968,0,0,1-2.967-2.968h0A2.968,2.968,0,0,1,62.331,368h60.276a2.974,2.974,0,0,1,2.967,2.974h0A2.974,2.974,0,0,1,122.633,373.961Z" transform="translate(-42.212 -152.165)" fill="#ebebeb"/>
      <path id="Path_66636" data-name="Path 66636" d="M41.288,248.2l33.172-.59,21.057,79.584-44.909.45-16.93-69.768a7.829,7.829,0,0,1,7.611-9.677Z" transform="translate(-33.456 -111.519)" fill="#e0e0e0"/>
      <path id="Path_66637" data-name="Path 66637" d="M65.169,376.99l-9.929,57.68h2.722l13.049-57.68Z" transform="translate(-40.811 -155.201)" fill="#ebebeb"/>
      <path id="Path_66638" data-name="Path 66638" d="M100.175,376.99,89.63,434.669h2.716l13.678-57.68Z" transform="translate(-52.422 -155.201)" fill="#e0e0e0"/>
      <path id="Path_66639" data-name="Path 66639" d="M141.649,376.99l11.764,57.68H150.69L135.8,376.99Z" transform="translate(-68.01 -155.201)" fill="#ebebeb"/>
      <path id="Path_66640" data-name="Path 66640" d="M89.63,247.61l16.414,79.67h12.585l-13.155-70.4a11.346,11.346,0,0,0-11.148-9.273Z" transform="translate(-52.422 -111.519)" fill="#ebebeb"/>
      <rect id="Rectangle_147845" data-name="Rectangle 147845" width="45.406" height="2.206" transform="translate(133.537 165.064) rotate(180)" fill="#ebebeb"/>
      <path id="Path_66641" data-name="Path 66641" d="M228.029,275.083l8.518-31.913H201.09l-7.71,31.913Z" transform="translate(-87.45 -110.02)" fill="#ebebeb"/>
      <path id="Path_66642" data-name="Path 66642" d="M196.59,273.418h31.668L235.63,245.4H203.8Z" transform="translate(-88.534 -110.772)" fill="#e0e0e0"/>
      <rect id="Rectangle_147846" data-name="Rectangle 147846" width="2.292" height="109.477" transform="translate(79.143 171.601)" fill="#f5f5f5"/>
      <rect id="Rectangle_147847" data-name="Rectangle 147847" width="2.292" height="109.159" transform="translate(81.435 171.919)" fill="#ebebeb"/>
      <rect id="Rectangle_147848" data-name="Rectangle 147848" width="2.292" height="109.477" transform="translate(220.408 171.601)" fill="#ebebeb"/>
      <rect id="Rectangle_147849" data-name="Rectangle 147849" width="2.292" height="109.159" transform="translate(222.7 171.919)" fill="#e0e0e0"/>
      <rect id="Rectangle_147850" data-name="Rectangle 147850" width="174.171" height="8.982" transform="translate(69.241 165.243)" fill="#e0e0e0"/>
      <rect id="Rectangle_147851" data-name="Rectangle 147851" width="76.676" height="14.864" transform="translate(144.877 174.224)" fill="#ebebeb"/>
      <path id="Path_66643" data-name="Path 66643" d="M313.478,313.979a1.709,1.709,0,1,1-1.709-1.709A1.709,1.709,0,0,1,313.478,313.979Z" transform="translate(-126.845 -133.349)" fill="#e0e0e0"/>
      <rect id="Rectangle_147852" data-name="Rectangle 147852" width="95.448" height="4.252" transform="translate(2.546 62.634)" fill="#e0e0e0"/>
      <rect id="Rectangle_147853" data-name="Rectangle 147853" width="3.875" height="14.513" transform="translate(18.172 64.681)" fill="#e0e0e0"/>
      <rect id="Rectangle_147854" data-name="Rectangle 147854" width="3.875" height="14.513" transform="translate(76.017 64.681)" fill="#e0e0e0"/>
      <path id="Path_66644" data-name="Path 66644" d="M126.766,81.36c.159-.152,1.219.623,2.616,2.212a25.336,25.336,0,0,1,2.212,2.974,28.35,28.35,0,0,1,3.577,8.372,25.411,25.411,0,0,1,.662,3.676c.192,2.12,0,3.431-.2,3.438-.5.04-.954-5.087-3.424-10.77S126.4,81.7,126.766,81.36Z" transform="translate(-64.95 -55.382)" fill="#ebebeb"/>
      <path id="Path_66645" data-name="Path 66645" d="M141.263,93.053c-.219,0-.821-2.775-1.378-7.372s-1.033-10.969-1.212-18.017-.113-13.433,0-18.05.351-7.465.583-7.465.437,2.855.6,7.465.278,10.976.464,18,.464,13.367.722,17.964S141.5,93.053,141.263,93.053Z" transform="translate(-68.943 -42.15)" fill="#ebebeb"/>
      <path id="Path_66646" data-name="Path 66646" d="M152.7,58.507c.212.119-.662,2.08-1.808,5.352s-2.65,7.843-4.034,12.949-2.484,9.79-3.14,13.2-.927,5.537-1.172,5.531-.391-2.206,0-5.716a97.4,97.4,0,0,1,7.24-26.415C151.231,60.2,152.5,58.395,152.7,58.507Z" transform="translate(-70.206 -47.671)" fill="#ebebeb"/>
      <path id="Path_66647" data-name="Path 66647" d="M122.9,110.16v5.61a11.923,11.923,0,0,0,11.823,11.976h0a11.923,11.923,0,0,0,11.83-11.976v-5.61Z" transform="translate(-63.654 -65.112)" fill="#e0e0e0"/>
      <path id="Path_66648" data-name="Path 66648" d="M146.775,117.236c0,.1-5.345.172-11.923.172s-11.923-.073-11.923-.172,5.345-.166,11.923-.166S146.775,117.143,146.775,117.236Z" transform="translate(-63.665 -67.445)" fill="#fafafa"/>
      <path id="Path_66649" data-name="Path 66649" d="M146.775,119.592c0,.093-5.345.166-11.923.166s-11.923-.073-11.923-.166,5.345-.172,11.923-.172S146.775,119.493,146.775,119.592Z" transform="translate(-63.665 -68.238)" fill="#fafafa"/>
      <rect id="Rectangle_147855" data-name="Rectangle 147855" width="5.306" height="26.058" transform="matrix(0.005, 1, -1, 0.005, 40.629, 43.547)" fill="#e0e0e0"/>
      <rect id="Rectangle_147856" data-name="Rectangle 147856" width="8.24" height="29.038" transform="matrix(0.005, 1, -1, 0.005, 43.749, 54.38)" fill="#f5f5f5"/>
      <path id="Path_66650" data-name="Path 66650" d="M91.047,132.4a29.39,29.39,0,0,1-.146-4.12,29.39,29.39,0,0,1,.146-4.12,31.4,31.4,0,0,1,.139,4.12,31.4,31.4,0,0,1-.139,4.12Z" transform="translate(-52.845 -69.839)" fill="#e0e0e0"/>
      <path id="Path_66651" data-name="Path 66651" d="M92.917,132.4a29.39,29.39,0,0,1-.146-4.12,29.39,29.39,0,0,1,.146-4.12,31.4,31.4,0,0,1,.139,4.12,31.4,31.4,0,0,1-.139,4.12Z" transform="translate(-53.476 -69.839)" fill="#e0e0e0"/>
      <path id="Path_66652" data-name="Path 66652" d="M62.241,132.4a31.394,31.394,0,0,1-.139-4.12,31.394,31.394,0,0,1,.139-4.12,29.392,29.392,0,0,1,.146,4.12A29.391,29.391,0,0,1,62.241,132.4Z" transform="translate(-43.122 -69.839)" fill="#e0e0e0"/>
      <path id="Path_66653" data-name="Path 66653" d="M64.087,132.4a29.387,29.387,0,0,1-.146-4.12,29.387,29.387,0,0,1,.146-4.12,31.4,31.4,0,0,1,.139,4.12,31.4,31.4,0,0,1-.139,4.12Z" transform="translate(-43.742 -69.839)" fill="#e0e0e0"/>
      <path id="Path_66654" data-name="Path 66654" d="M68.19,130.509c0-.079,2.928-.139,6.538-.139s6.544.06,6.544.139-2.928.146-6.544.146S68.19,130.589,68.19,130.509Z" transform="translate(-45.183 -71.935)" fill="#e0e0e0"/>
      <rect id="Rectangle_147857" data-name="Rectangle 147857" width="5.306" height="35.834" transform="matrix(0.005, 1, -1, 0.005, 54.666, 48.728)" fill="#ebebeb"/>
      <ellipse id="Ellipse_2110" data-name="Ellipse 2110" cx="1.696" cy="1.716" rx="1.696" ry="1.716" transform="translate(47.873 49.943)" fill="#e0e0e0"/>
      <rect id="Rectangle_147858" data-name="Rectangle 147858" width="1.06" height="23.991" transform="translate(44.912 51.129) rotate(90)" fill="#e0e0e0"/>
      <rect id="Rectangle_147859" data-name="Rectangle 147859" width="47.466" height="68.801" transform="translate(270.851 7.035)" fill="#e0e0e0"/>
      <rect id="Rectangle_147860" data-name="Rectangle 147860" width="47.466" height="68.801" transform="translate(268.473 7.035)" fill="#f5f5f5"/>
      <rect id="Rectangle_147861" data-name="Rectangle 147861" width="35.675" height="53.897" transform="translate(274.368 14.487)" fill="#fff"/>
      <path id="Path_66655" data-name="Path 66655" d="M435.222,124.152v-3.988c0-2.583,0-6.346-.033-11.1,0-9.505-.033-22.965-.06-38.815l.119.119H399.58l.132-.132v53.9l-.106-.106,25.965.053h.079l-26.031.053h-.1V70.01h35.921v.113c0,15.9-.046,29.37-.06,38.895,0,4.743,0,8.5-.033,11.075v3.683A.851.851,0,0,1,435.222,124.152Z" transform="translate(-125.178 -55.761)" fill="#e0e0e0"/>
      <path id="Path_66656" data-name="Path 66656" d="M459.225,59.12a7.709,7.709,0,0,1-.841,1.245c-.556.735-1.325,1.742-2.232,2.822s-1.729,2.047-2.345,2.729a7.761,7.761,0,0,1-1.047,1.073,9.543,9.543,0,0,1,.908-1.186l2.285-2.789,2.265-2.775A9.83,9.83,0,0,1,459.225,59.12Z" transform="translate(-143.153 -52.085)" fill="#e0e0e0"/>
      <path id="Path_66657" data-name="Path 66657" d="M453.69,151.48a43.816,43.816,0,0,0,6.226,7.783" transform="translate(-143.467 -83.268)" fill="#fff"/>
      <path id="Path_66658" data-name="Path 66658" d="M459.916,159.263a6.621,6.621,0,0,1-1.086-.987,34.345,34.345,0,0,1-4.411-5.518,7.016,7.016,0,0,1-.729-1.278,10.354,10.354,0,0,1,.874,1.172c.523.735,1.259,1.742,2.12,2.815s1.676,1.987,2.279,2.683a10.2,10.2,0,0,1,.954,1.113Z" transform="translate(-143.467 -83.268)" fill="#e0e0e0"/>
      <path id="Path_66659" data-name="Path 66659" d="M390.65,159l6.193-7.67" transform="translate(-122.183 -83.217)" fill="#fff"/>
      <path id="Path_66660" data-name="Path 66660" d="M396.829,151.33a46.969,46.969,0,0,1-3.014,3.921A48.125,48.125,0,0,1,390.609,159c-.053-.04,1.325-1.8,3.007-3.915a45.2,45.2,0,0,1,3.213-3.756Z" transform="translate(-122.169 -83.217)" fill="#e0e0e0"/>
      <path id="Path_66661" data-name="Path 66661" d="M390.66,59.12a46.612,46.612,0,0,1,3.02,3.61A44.06,44.06,0,0,1,396.5,66.5a40.809,40.809,0,0,1-3.02-3.61,41.324,41.324,0,0,1-2.815-3.769Z" transform="translate(-122.187 -52.085)" fill="#e0e0e0"/>
      <rect id="Rectangle_147862" data-name="Rectangle 147862" width="11.943" height="33.914" transform="translate(286.987 25.436)" fill="#e0e0e0"/>
    </g>
    <g id="freepik--Floor--inject-233" transform="translate(33.697 322.01)">
      <path id="Path_66662" data-name="Path 66662" d="M352.747,464.832c0,.093-71.406.172-159.442.172s-159.485-.079-159.485-.172,71.391-.172,159.485-.172S352.747,464.733,352.747,464.832Z" transform="translate(-33.82 -464.66)" fill="#263238"/>
    </g>
    <g id="freepik--Plant--inject-233" transform="translate(287.328 208.63)">
      <path id="Path_66663" data-name="Path 66663" d="M406.615,356.972c5.9,2.06,13.588.221,18.634-3.464s8.676-8.965,11.9-14.318a21.4,21.4,0,0,0,3.146-7.3c.435-2.631-.208-5.592-2.244-7.309-3.17-2.667-8.026-1.312-11.65.736a40.1,40.1,0,0,0-19.805,31.652" transform="translate(-353.913 -296.489)" fill="#efa00b"/>
      <path id="Path_66664" data-name="Path 66664" d="M417,395.458c3.544,4.672,9.627,6.745,15.489,7.021s11.65-1.343,17.114-3.446c1.987-.76,4.163-1.809,4.844-3.82a4.905,4.905,0,0,0-1.036-4.513,10.172,10.172,0,0,0-3.955-2.692,27,27,0,0,0-17.23-.932c-5.672,1.472-10.62,4.758-15.225,8.382" transform="translate(-357.94 -320.859)" fill="#efa00b"/>
      <path id="Path_66665" data-name="Path 66665" d="M404.962,314.914c4.905.1,8.584-4.176,10.786-8.529a31.64,31.64,0,0,0,2.906-19.72c-.448-2.5-1.392-5.187-3.624-6.389s-5.218-.411-7.119,1.324a14.384,14.384,0,0,0-3.679,6.671c-2.624,8.48-2.06,18.23.754,26.642" transform="translate(-352.346 -279.7)" fill="#efa00b"/>
      <path id="Path_66666" data-name="Path 66666" d="M375.336,347.856c8.327-14.164,9.713-31.5,4.8-47.178-.8-2.545-2.3-5.451-4.961-5.623-2.943-.184-4.8,3.1-5.6,5.935-2.857,9.958-2.25,20.529-1.619,30.867.392,6.371,2.575,11.816,7.389,16" transform="translate(-338.76 -285.637)" fill="#efa00b"/>
      <path id="Path_66667" data-name="Path 66667" d="M348.6,376.684a34.068,34.068,0,0,0-20.2-21.418c-2.214-.828-5.022-1.306-6.671.386s-1.116,4.433-.08,6.506c1.674,3.342,4.4,6.034,7.107,8.584,2.453,2.348,5.028,4.7,8.143,6.07s8.848,1.7,11.7-.153" transform="translate(-320.681 -308.64)" fill="#efa00b"/>
      <path id="Path_66668" data-name="Path 66668" d="M426.281,331.319a1.1,1.1,0,0,1-.147.129l-.448.349-1.741,1.3-1.269.938c-.454.349-.926.76-1.447,1.183-1.03.858-2.25,1.784-3.477,2.949l-1.962,1.784c-.681.613-1.331,1.331-2.036,2.023-1.435,1.38-2.821,2.986-4.292,4.648a91.494,91.494,0,0,0-15.213,24.613c-.816,2.079-1.637,4.041-2.226,5.935-.307.944-.65,1.84-.9,2.729l-.717,2.551c-.5,1.619-.779,3.121-1.091,4.427-.141.656-.294,1.263-.4,1.839s-.19,1.079-.27,1.551c-.166.907-.294,1.625-.386,2.146-.049.221-.08.4-.11.552s-.043.19-.055.19a.946.946,0,0,1,0-.2,5.231,5.231,0,0,1,.074-.558c.074-.527.184-1.226.313-2.158.074-.472.153-.993.239-1.557s.239-1.183.374-1.84c.294-1.312.558-2.827,1.036-4.452.221-.822.454-1.68.7-2.569s.576-1.8.877-2.747c.613-1.907,1.392-3.881,2.207-5.972A89.722,89.722,0,0,1,409.18,346.4c1.5-1.656,2.906-3.262,4.353-4.636.711-.7,1.374-1.4,2.06-2.017l1.987-1.772c1.226-1.153,2.453-2.066,3.52-2.913.533-.417,1.012-.815,1.478-1.159l1.288-.914,1.79-1.226.472-.313C426.22,331.344,426.275,331.313,426.281,331.319Z" transform="translate(-346.753 -299.667)" fill="#263238"/>
      <path id="Path_66669" data-name="Path 66669" d="M437.514,394.375a3.253,3.253,0,0,1-.576-.092c-.368-.067-.907-.215-1.619-.331a44.148,44.148,0,0,0-41.733,14.1,45.751,45.751,0,0,0-3.722,4.795c-.417.613-.693,1.067-.908,1.38a2.93,2.93,0,0,1-.337.472,3.022,3.022,0,0,1,.27-.515c.19-.325.448-.822.846-1.423a40.794,40.794,0,0,1,3.642-4.905,43.284,43.284,0,0,1,35.944-14.931,39.856,39.856,0,0,1,6.04.865c.705.141,1.226.307,1.613.4A4.342,4.342,0,0,1,437.514,394.375Z" transform="translate(-346.962 -323.455)" fill="#263238"/>
      <path id="Path_66670" data-name="Path 66670" d="M406.565,289.87a.765.765,0,0,1-.031.221c-.037.166-.08.374-.135.613-.129.613-.313,1.4-.546,2.453-.478,2.115-1.226,5.169-2.128,8.94-1.839,7.542-4.5,17.929-7.278,29.432-1.38,5.758-2.624,11.258-3.679,16.274s-1.956,9.547-2.624,13.367c-.362,1.907-.613,3.642-.889,5.163s-.46,2.827-.613,3.9-.288,1.876-.38,2.453c-.049.264-.086.472-.11.613s-.043.221-.055.221a1.2,1.2,0,0,1,0-.221c0-.172.043-.38.074-.65.074-.613.178-1.423.313-2.453s.313-2.391.552-3.918.484-3.262.828-5.169c.613-3.832,1.508-8.37,2.551-13.4s2.293-10.528,3.679-16.292c2.778-11.509,5.488-21.884,7.358-29.432l2.25-8.909c.264-1.03.472-1.839.613-2.422.067-.258.123-.46.172-.613A.857.857,0,0,1,406.565,289.87Z" transform="translate(-346.757 -283.634)" fill="#263238"/>
      <path id="Path_66671" data-name="Path 66671" d="M383.42,381.158a.668.668,0,0,1-.055-.172l-.11-.509c-.1-.484-.239-1.147-.411-1.974-.356-1.711-.822-4.2-1.355-7.284-1.067-6.162-2.336-14.716-3.109-24.239-.38-4.764-.613-9.308-.681-13.447s-.031-7.867.1-10.994c.037-1.564.141-2.974.208-4.219s.147-2.306.233-3.176.135-1.515.184-2.005a4.707,4.707,0,0,1,.055-.521c.012-.141,0-.178.037-.178a.831.831,0,0,1,0,.184v.521c0,.491-.067,1.165-.117,2.011s-.123,1.938-.166,3.176-.129,2.655-.147,4.219c-.092,3.121-.1,6.843,0,10.976s.331,8.664.705,13.416c.779,9.5,2,18.058,3,24.233.5,3.066.92,5.58,1.226,7.3.141.84.258,1.5.337,1.987.031.208.055.38.08.521A.777.777,0,0,1,383.42,381.158Z" transform="translate(-342.724 -292.365)" fill="#263238"/>
      <path id="Path_66672" data-name="Path 66672" d="M366.867,402.9a2.846,2.846,0,0,1-.215-.484l-.546-1.429c-.123-.313-.251-.656-.392-1.03l-.533-1.2c-.19-.429-.4-.889-.613-1.38s-.49-.975-.754-1.508-.558-1.073-.852-1.649l-1.03-1.741c-.668-1.226-1.533-2.453-2.367-3.759a89.18,89.18,0,0,0-6.218-8.008,98.445,98.445,0,0,0-7.2-7.2c-1.2-1.006-2.293-2.017-3.4-2.864l-1.576-1.226-1.5-1.1c-.944-.711-1.84-1.312-2.612-1.839s-1.453-.987-2.017-1.325l-1.324-.846a2.606,2.606,0,0,1-.435-.307,2.953,2.953,0,0,1,.478.239l1.324.754c.583.325,1.275.754,2.06,1.275s1.7,1.091,2.655,1.8l1.521,1.085,1.594,1.226c1.122.834,2.226,1.839,3.434,2.845a93.077,93.077,0,0,1,7.248,7.211,84.01,84.01,0,0,1,6.279,8.094c.828,1.337,1.686,2.563,2.348,3.8.343.613.674,1.2,1,1.766l.828,1.668c.258.54.527,1.036.736,1.527l.613,1.4.5,1.226c.135.38.251.73.362,1.049.2.613.356,1.079.478,1.447a2.032,2.032,0,0,1,.117.5Z" transform="translate(-325.558 -312.309)" fill="#263238"/>
      <path id="Path_66673" data-name="Path 66673" d="M434.279,358.039c0,.061-1.012.061-2.631.147a50.527,50.527,0,0,0-6.285.76,48.633,48.633,0,0,0-6.132,1.6,25.857,25.857,0,0,1-2.5.822,2.378,2.378,0,0,1,.613-.337c.411-.2,1.018-.46,1.784-.748a37.691,37.691,0,0,1,12.484-2.373c.815,0,1.478,0,1.931.037A2.265,2.265,0,0,1,434.279,358.039Z" transform="translate(-357.835 -309.954)" fill="#263238"/>
      <path id="Path_66674" data-name="Path 66674" d="M450.332,402.475a24.043,24.043,0,0,0-3.428-5.163,26.882,26.882,0,0,0-4.905-3.8,5.768,5.768,0,0,1,1.692.748,14.93,14.93,0,0,1,6.009,6.475A6.082,6.082,0,0,1,450.332,402.475Z" transform="translate(-367.61 -323.725)" fill="#263238"/>
      <path id="Path_66675" data-name="Path 66675" d="M416.819,308.62c.08.086-1.453,1.606-3.121,3.679s-2.864,3.857-2.962,3.8a16.462,16.462,0,0,1,2.655-4.047,17.2,17.2,0,0,1,3.428-3.428Z" transform="translate(-355.514 -290.887)" fill="#263238"/>
      <path id="Path_66676" data-name="Path 66676" d="M412.44,294.46a29.048,29.048,0,0,1,1.134,6.635,29.061,29.061,0,0,1-1.134-6.635Z" transform="translate(-356.164 -285.409)" fill="#263238"/>
      <path id="Path_66677" data-name="Path 66677" d="M383.763,338.909a40.768,40.768,0,0,1-2.453,5.126,43.966,43.966,0,0,1-2.784,4.948,39.616,39.616,0,0,1,2.453-5.132A43.532,43.532,0,0,1,383.763,338.909Z" transform="translate(-343.055 -302.603)" fill="#263238"/>
      <path id="Path_66678" data-name="Path 66678" d="M371.991,323.819a22.791,22.791,0,0,1,2.066,3.71,23.914,23.914,0,0,1,1.717,3.881,23.342,23.342,0,0,1-2.066-3.71A20.562,20.562,0,0,1,371.991,323.819Z" transform="translate(-340.524 -296.766)" fill="#263238"/>
      <path id="Path_66679" data-name="Path 66679" d="M345.013,374.922c0,.117-1.68-.208-3.74-.35s-3.74-.061-3.753-.178a10.286,10.286,0,0,1,3.783-.215A10.964,10.964,0,0,1,345.013,374.922Z" transform="translate(-327.195 -316.229)" fill="#263238"/>
      <path id="Path_66680" data-name="Path 66680" d="M364.91,421.05l4.636,24.367A3.409,3.409,0,0,0,372.9,448.2h13.692a3.409,3.409,0,0,0,3.366-2.857l4.029-24.288Z" transform="translate(-337.79 -334.378)" fill="#263238"/>
      <path id="Path_66681" data-name="Path 66681" d="M366.418,428.972h26.176l1.392-7.922H364.91Z" transform="translate(-337.79 -334.378)" fill="#455a64"/>
      <path id="Path_66682" data-name="Path 66682" d="M367.37,433.97l.546,2.888h25.232l.4-2.888Z" transform="translate(-338.741 -339.376)" fill="#fafafa"/>
    </g>
    <g id="freepik--Character--inject-233" transform="translate(71.164 74.967)">
      <path id="Path_66683" data-name="Path 66683" d="M188.584,456l1.709-7.286,14.195.351L203.3,459.427l-.9.073c-4.021.272-20.454,1.1-23.183.318C176.27,458.937,188.584,456,188.584,456Z" transform="translate(-120.223 -212.232)" fill="#efa00b"/>
      <g id="Group_161407" data-name="Group 161407" transform="translate(77.793 242.901)" opacity="0.4">
        <path id="Path_66684" data-name="Path 66684" d="M207.83,462.648a5.054,5.054,0,0,1,1.822-3.133,4.9,4.9,0,0,1,3.391-1.1l.053,4.074Z" transform="translate(-207.83 -458.407)"/>
      </g>
      <g id="Group_161408" data-name="Group 161408" transform="translate(58.509 245.42)" opacity="0.4">
        <path id="Path_66685" data-name="Path 66685" d="M182.541,462.21s-4.325,1.325-3.776,1.987,17.222.5,24.508-.238v-.325l-19.408.411S183.389,462.23,182.541,462.21Z" transform="translate(-178.717 -462.21)"/>
      </g>
      <path id="Path_66686" data-name="Path 66686" d="M203.506,464.37a1.094,1.094,0,0,1-.252.033l-.715.053-2.65.146c-2.232.113-5.3.219-8.743.265s-6.511,0-8.75,0l-2.65-.08h-.967a1.052,1.052,0,0,1,.252,0H191.14c3.444,0,6.5-.139,8.737-.219l2.65-.086h.722Z" transform="translate(-120.229 -217.52)" fill="#263238"/>
      <path id="Path_66687" data-name="Path 66687" d="M185.751,464.205a6,6,0,0,0-.51-1.259,5.851,5.851,0,0,0-.921-1.007,2.36,2.36,0,0,1,1.431,2.265Z" transform="translate(-122.1 -216.699)" fill="#263238"/>
      <path id="Path_66688" data-name="Path 66688" d="M192.525,461.377a1.871,1.871,0,0,1-.47-.556c-.219-.338-.358-.623-.318-.662s.252.225.47.556S192.571,461.337,192.525,461.377Z" transform="translate(-124.602 -216.096)" fill="#263238"/>
      <path id="Path_66689" data-name="Path 66689" d="M194.229,460.586a1.449,1.449,0,0,1-.517-.338c-.252-.219-.437-.437-.4-.47s.265.113.517.338A1.525,1.525,0,0,1,194.229,460.586Z" transform="translate(-125.133 -215.967)" fill="#263238"/>
      <path id="Path_66690" data-name="Path 66690" d="M195.023,458.878a1.662,1.662,0,0,1-.762.113,1.794,1.794,0,0,1-.762-.073,3.416,3.416,0,0,1,1.523-.04Z" transform="translate(-125.199 -215.638)" fill="#263238"/>
      <path id="Path_66691" data-name="Path 66691" d="M195.289,457.45a2.153,2.153,0,0,1-1.729.152,5.177,5.177,0,0,1,.868-.066A5.112,5.112,0,0,1,195.289,457.45Z" transform="translate(-125.22 -215.183)" fill="#263238"/>
      <path id="Path_66692" data-name="Path 66692" d="M190.751,459.422a2.787,2.787,0,0,1-.941,0,5.721,5.721,0,0,1-1-.205,3.035,3.035,0,0,1-.57-.232.517.517,0,0,1-.245-.272.371.371,0,0,1,.139-.378,1.722,1.722,0,0,1,2.133.477,1.636,1.636,0,0,1,.311.623c.04.159.04.245,0,.252a2.581,2.581,0,0,0-.437-.795,1.656,1.656,0,0,0-.808-.51,1.451,1.451,0,0,0-1.113.093c-.146.106-.086.285.079.378a2.48,2.48,0,0,0,.53.219,6.371,6.371,0,0,0,.967.238A4.833,4.833,0,0,1,190.751,459.422Z" transform="translate(-123.338 -215.42)" fill="#263238"/>
      <path id="Path_66693" data-name="Path 66693" d="M191.724,459.225a.947.947,0,0,1-.113-.662,1.524,1.524,0,0,1,.245-.662.941.941,0,0,1,.775-.49.371.371,0,0,1,.291.431.981.981,0,0,1-.152.417,2.843,2.843,0,0,1-.437.576c-.291.291-.517.4-.53.384s.185-.172.437-.47a3.146,3.146,0,0,0,.384-.57c.126-.2.212-.55,0-.59s-.477.212-.616.4a1.53,1.53,0,0,0-.258.609,3.737,3.737,0,0,0-.027.623Z" transform="translate(-124.555 -215.17)" fill="#263238"/>
      <path id="Path_66694" data-name="Path 66694" d="M212.973,458.312c0,.033-.417-.033-1.08.053a4.537,4.537,0,0,0-3.775,3.087c-.219.629-.232,1.053-.265,1.047a.722.722,0,0,1,0-.291,3.972,3.972,0,0,1,.152-.788,4.438,4.438,0,0,1,3.882-3.179,3.793,3.793,0,0,1,.8,0A.721.721,0,0,1,212.973,458.312Z" transform="translate(-130.04 -215.442)" fill="#263238"/>
      <path id="Path_66695" data-name="Path 66695" d="M213.168,449.23a27.188,27.188,0,0,1,.166,2.994,26.482,26.482,0,0,1,0,2.994,25.326,25.326,0,0,1-.166-2.987A26.65,26.65,0,0,1,213.168,449.23Z" transform="translate(-131.826 -212.408)" fill="#263238"/>
      <path id="Path_66696" data-name="Path 66696" d="M202.829,462.694a11.923,11.923,0,0,1-4.259.093c0-.053.96,0,2.133,0S202.829,462.641,202.829,462.694Z" transform="translate(-126.911 -216.95)" fill="#263238"/>
      <path id="Path_66697" data-name="Path 66697" d="M209.132,462.637c.04.033-.073.2-.166.417s-.146.417-.2.411-.073-.225.033-.477S209.106,462.6,209.132,462.637Z" transform="translate(-130.34 -216.932)" fill="#263238"/>
      <path id="Path_66698" data-name="Path 66698" d="M210.663,460.587c.04.033-.053.185-.205.344s-.3.252-.331.219.06-.185.205-.344S210.63,460.553,210.663,460.587Z" transform="translate(-130.811 -216.24)" fill="#263238"/>
      <path id="Path_66699" data-name="Path 66699" d="M212.838,459.6c0,.046-.205.053-.417.126s-.364.2-.4.166.079-.238.344-.331S212.851,459.552,212.838,459.6Z" transform="translate(-131.448 -215.881)" fill="#263238"/>
      <path id="Path_66700" data-name="Path 66700" d="M214.686,459.162c0,.046-.066.126-.185.172s-.232.046-.252,0,.066-.126.185-.172S214.666,459.116,214.686,459.162Z" transform="translate(-132.204 -215.75)" fill="#263238"/>
      <path id="Path_66701" data-name="Path 66701" d="M273.781,455.705l.046-7.776-14.572-.179-.185,11.386.907.066c4.014.271,20.454,1.1,23.15.318C286.128,458.646,273.781,455.705,273.781,455.705Z" transform="translate(-147.337 -211.908)" fill="#efa00b"/>
      <g id="Group_161409" data-name="Group 161409" transform="translate(111.719 242.935)" opacity="0.4">
        <path id="Path_66702" data-name="Path 66702" d="M264.316,462.7a5.068,5.068,0,0,0-1.822-3.133,4.935,4.935,0,0,0-3.391-1.1l-.053,4.074Z" transform="translate(-259.05 -458.458)"/>
      </g>
      <g id="Group_161410" data-name="Group 161410" transform="translate(111.739 245.453)" opacity="0.4">
        <path id="Path_66703" data-name="Path 66703" d="M279.812,462.26s4.325,1.325,3.776,1.987-17.189.5-24.508-.238v-.331l19.408.417S278.964,462.286,279.812,462.26Z" transform="translate(-259.08 -462.26)"/>
      </g>
      <path id="Path_66704" data-name="Path 66704" d="M258.76,464.43h.252l.715.053,2.65.152c2.232.106,5.3.212,8.743.265s6.511,0,8.75-.033l2.649-.073h.974a1.106,1.106,0,0,0-.252,0H271.12c-3.418,0-6.5-.139-8.737-.212l-2.649-.093h-.722Z" transform="translate(-147.233 -217.54)" fill="#263238"/>
      <path id="Path_66705" data-name="Path 66705" d="M288.385,464.259A6.151,6.151,0,0,1,288.9,463a5.379,5.379,0,0,1,.921-1,1.908,1.908,0,0,0-1.066.908A1.987,1.987,0,0,0,288.385,464.259Z" transform="translate(-157.232 -216.719)" fill="#263238"/>
      <path id="Path_66706" data-name="Path 66706" d="M281.937,461.38a1.9,1.9,0,0,0,.47-.55c.219-.331.358-.623.318-.662s-.252.219-.47.55A1.68,1.68,0,0,0,281.937,461.38Z" transform="translate(-155.055 -216.099)" fill="#263238"/>
      <path id="Path_66707" data-name="Path 66707" d="M280.168,460.655c.033.033.265-.113.523-.338s.431-.431.4-.47-.265.113-.517.338S280.135,460.609,280.168,460.655Z" transform="translate(-154.459 -215.99)" fill="#263238"/>
      <path id="Path_66708" data-name="Path 66708" d="M279.07,458.955a1.827,1.827,0,0,0,.762.106,1.676,1.676,0,0,0,.762-.073,1.815,1.815,0,0,0-.755-.106A1.715,1.715,0,0,0,279.07,458.955Z" transform="translate(-154.09 -215.662)" fill="#263238"/>
      <path id="Path_66709" data-name="Path 66709" d="M278.71,457.51a2.133,2.133,0,0,0,1.722.152,4.63,4.63,0,0,0-.861-.073A4.174,4.174,0,0,0,278.71,457.51Z" transform="translate(-153.968 -215.203)" fill="#263238"/>
      <path id="Path_66710" data-name="Path 66710" d="M282.71,459.467a2.59,2.59,0,0,0,.941,0,5.161,5.161,0,0,0,1-.205,3.486,3.486,0,0,0,.57-.225.557.557,0,0,0,.238-.291.371.371,0,0,0-.139-.378,1.722,1.722,0,0,0-2.126.477,1.576,1.576,0,0,0-.318.623.561.561,0,0,0,0,.252,2.583,2.583,0,0,1,.437-.795,1.7,1.7,0,0,1,.808-.51,1.451,1.451,0,0,1,1.113.093c.146.113.086.285-.08.384a2.644,2.644,0,0,1-.53.212,6.081,6.081,0,0,1-.967.245C283.068,459.44,282.71,459.44,282.71,459.467Z" transform="translate(-155.319 -215.431)" fill="#263238"/>
      <path id="Path_66711" data-name="Path 66711" d="M282.466,459.275a.947.947,0,0,0,.113-.662,1.549,1.549,0,0,0-.245-.662.941.941,0,0,0-.775-.49.378.378,0,0,0-.291.431,1.04,1.04,0,0,0,.152.424,2.975,2.975,0,0,0,.437.57c.291.292.517.4.53.384s-.185-.166-.437-.47a3.075,3.075,0,0,1-.384-.563c-.126-.2-.212-.556,0-.6s.47.212.609.4a1.532,1.532,0,0,1,.258.609A3.717,3.717,0,0,1,282.466,459.275Z" transform="translate(-154.83 -215.187)" fill="#263238"/>
      <path id="Path_66712" data-name="Path 66712" d="M259.28,458.362a5.732,5.732,0,0,1,1.08.053,4.557,4.557,0,0,1,3.776,3.093c.219.623.232,1.047.265,1.04a.721.721,0,0,0,0-.292,3.562,3.562,0,0,0-.152-.788,4.517,4.517,0,0,0-1.444-2.193,4.571,4.571,0,0,0-2.437-.987,3.8,3.8,0,0,0-.8,0A1.2,1.2,0,0,0,259.28,458.362Z" transform="translate(-147.408 -215.459)" fill="#263238"/>
      <path id="Path_66713" data-name="Path 66713" d="M261.574,449.28a27.342,27.342,0,0,0-.166,2.994,26.7,26.7,0,0,0,0,3,25.368,25.368,0,0,0,.166-2.994A26.685,26.685,0,0,0,261.574,449.28Z" transform="translate(-148.113 -212.425)" fill="#263238"/>
      <path id="Path_66714" data-name="Path 66714" d="M269.84,462.741a11.922,11.922,0,0,0,4.259.093c0-.046-.961,0-2.133-.033S269.847,462.688,269.84,462.741Z" transform="translate(-150.974 -216.964)" fill="#263238"/>
      <path id="Path_66715" data-name="Path 66715" d="M265.526,462.687c-.04.033.073.2.166.424s.146.411.2.411.079-.232-.033-.484S265.552,462.654,265.526,462.687Z" transform="translate(-149.514 -216.95)" fill="#263238"/>
      <path id="Path_66716" data-name="Path 66716" d="M263.925,460.646c-.04.033.053.185.205.338s.3.252.331.219-.06-.185-.205-.338S263.972,460.606,263.925,460.646Z" transform="translate(-148.974 -216.259)" fill="#263238"/>
      <path id="Path_66717" data-name="Path 66717" d="M261.61,459.649c0,.053.205.053.417.133s.364.192.4.159-.08-.238-.344-.331S261.6,459.6,261.61,459.649Z" transform="translate(-148.195 -215.898)" fill="#263238"/>
      <path id="Path_66718" data-name="Path 66718" d="M260,459.212c0,.046.066.126.185.172s.232.053.252,0-.066-.119-.185-.172S260,459.172,260,459.212Z" transform="translate(-147.651 -215.766)" fill="#263238"/>
      <path id="Path_66719" data-name="Path 66719" d="M260.088,245.32l-6.63,140.2-18.2.431,1.431-121.566-27.23,121.8-15.493-.7,24.3-139.88Z" transform="translate(-125.358 -143.563)" fill="#263238"/>
      <path id="Path_66720" data-name="Path 66720" d="M262.749,248.18a15.513,15.513,0,0,1-.166,2.305c-.152,1.417-.384,3.371-.662,5.531a22.655,22.655,0,0,1-.5,3.047,4.292,4.292,0,0,1-1.325,2.179,3.312,3.312,0,0,1-1.543.762,1.325,1.325,0,0,1-.629,0,3.921,3.921,0,0,0,3.173-3.047,26.952,26.952,0,0,0,.464-3.007c.285-2.153.556-4.107.775-5.511a13.387,13.387,0,0,1,.417-2.259Z" transform="translate(-146.949 -144.528)" fill="#455a64"/>
      <path id="Path_66721" data-name="Path 66721" d="M258.292,249.225c.053.033-.119.265,0,.629a.722.722,0,0,0,.378.45.616.616,0,0,0,.662-.152.6.6,0,0,0,.185-.662.755.755,0,0,0-.431-.4,1.284,1.284,0,0,0-.629-.033c-.033-.033.192-.325.7-.232a.947.947,0,1,1-.662,1.769.947.947,0,0,1-.49-.715C257.961,249.4,258.279,249.178,258.292,249.225Z" transform="translate(-146.977 -144.738)" fill="#455a64"/>
      <path id="Path_66722" data-name="Path 66722" d="M240.813,251.111a4.074,4.074,0,0,1,.272-3.881c.106.04-.179.874-.245,1.928A18.181,18.181,0,0,1,240.813,251.111Z" transform="translate(-141.049 -144.208)" fill="#455a64"/>
      <path id="Path_66723" data-name="Path 66723" d="M244.723,250.63a4.756,4.756,0,0,1,.132-4.04,16.749,16.749,0,0,1-.132,1.987A17.3,17.3,0,0,1,244.723,250.63Z" transform="translate(-142.363 -143.991)" fill="#455a64"/>
      <path id="Path_66724" data-name="Path 66724" d="M278.719,250.163a13,13,0,0,1,.046-2.093,13.244,13.244,0,0,1,0-2.1,5.683,5.683,0,0,1-.06,4.193Z" transform="translate(-153.964 -143.782)" fill="#455a64"/>
      <path id="Path_66725" data-name="Path 66725" d="M282.989,249.729c-.106-.04.2-.96.232-2.133s-.2-2.113-.093-2.146a3.312,3.312,0,0,1,.47,2.153A3.378,3.378,0,0,1,282.989,249.729Z" transform="translate(-155.405 -143.607)" fill="#455a64"/>
      <path id="Path_66726" data-name="Path 66726" d="M246.65,149.72Z" transform="translate(-143.144 -111.286)" fill="#efa00b"/>
      <path id="Path_66727" data-name="Path 66727" d="M264.2,105.542a3.836,3.836,0,0,0,.868-3.511c.888-.457.967-1.245.967-2.239a6.1,6.1,0,0,0-.861-2.828,8.2,8.2,0,0,0-3.2-3.5,4.259,4.259,0,0,0-4.551.2,5.518,5.518,0,0,0-7.9-.556,5.856,5.856,0,0,1-1.2,1.093,6.646,6.646,0,0,1-2.65.358,4.637,4.637,0,0,0-3.855,6.465,5.047,5.047,0,0,0-2.139,3.862,14.785,14.785,0,0,0,.517,4.524c.411,1.835.874,3.762,2.173,5.12a5.332,5.332,0,0,0,3.4,1.61,5.431,5.431,0,0,0,4.769-2.245" transform="translate(-140.788 -91.695)" fill="#263238"/>
      <path id="Path_66728" data-name="Path 66728" d="M246.67,140.291l14.718-.662c.086-1.563-.715-11.26-.715-11.26s5.564-.861,5.637-6.425-.9-18.335-.9-18.335h0a19.341,19.341,0,0,0-19.427,2.438l-.821.662Z" transform="translate(-142.641 -95.187)" fill="#b78876"/>
      <path id="Path_66729" data-name="Path 66729" d="M264.886,140.65a12.95,12.95,0,0,1-7.286-2.06s1.716,3.974,7.286,3.5Z" transform="translate(-146.841 -107.528)" fill="#aa6550"/>
      <path id="Path_66730" data-name="Path 66730" d="M244.3,117.69c-.093-.04-3.822-1.133-3.7,2.649s3.915,2.9,3.915,2.789S244.3,117.69,244.3,117.69Z" transform="translate(-141.103 -100.412)" fill="#b78876"/>
      <path id="Path_66731" data-name="Path 66731" d="M243.813,122.364a.98.98,0,0,1-.179.106.662.662,0,0,1-.49,0,1.629,1.629,0,0,1-.808-1.451,2.134,2.134,0,0,1,.159-.954.775.775,0,0,1,.477-.523.338.338,0,0,1,.4.172c.053.106.033.179.053.185s.079-.066.046-.225a.444.444,0,0,0-.159-.232.49.49,0,0,0-.371-.086.941.941,0,0,0-.662.616,2.225,2.225,0,0,0-.2,1.066,1.722,1.722,0,0,0,1.02,1.61.715.715,0,0,0,.6-.119C243.807,122.43,243.826,122.37,243.813,122.364Z" transform="translate(-141.599 -101.032)" fill="#aa6550"/>
      <path id="Path_66732" data-name="Path 66732" d="M273.073,117.234a.788.788,0,0,1-.762.8.762.762,0,0,1-.821-.715.8.8,0,0,1,.762-.8.755.755,0,0,1,.821.715Z" transform="translate(-151.531 -100.075)" fill="#263238"/>
      <path id="Path_66733" data-name="Path 66733" d="M272.532,115.825c-.093.106-.7-.344-1.55-.338s-1.484.431-1.576.325.053-.232.324-.431A2.206,2.206,0,0,1,271,114.99a2.1,2.1,0,0,1,1.239.4C272.492,115.593,272.585,115.778,272.532,115.825Z" transform="translate(-150.818 -99.56)" fill="#263238"/>
      <path id="Path_66734" data-name="Path 66734" d="M260.433,117.534a.788.788,0,0,1-.762.8.762.762,0,0,1-.821-.715.8.8,0,0,1,.768-.8.755.755,0,0,1,.815.715Z" transform="translate(-147.263 -100.177)" fill="#263238"/>
      <path id="Path_66735" data-name="Path 66735" d="M259.849,116.065c-.1.106-.7-.344-1.557-.338s-1.484.431-1.576.325.053-.232.331-.431a2.18,2.18,0,0,1,1.259-.391,2.1,2.1,0,0,1,1.239.4C259.809,115.833,259.9,116.018,259.849,116.065Z" transform="translate(-146.533 -99.641)" fill="#263238"/>
      <path id="Path_66736" data-name="Path 66736" d="M265.934,122.424a6.014,6.014,0,0,1,1.391-.252c.219,0,.424-.066.464-.212a1.225,1.225,0,0,0-.146-.662l-.662-1.663a29.365,29.365,0,0,1-1.451-4.345,28.127,28.127,0,0,1,1.8,4.219l.623,1.676a1.265,1.265,0,0,1,.113.854.55.55,0,0,1-.358.318,1.325,1.325,0,0,1-.371.053A5.3,5.3,0,0,1,265.934,122.424Z" transform="translate(-149.518 -99.661)" fill="#263238"/>
      <path id="Path_66737" data-name="Path 66737" d="M262.262,127c.139,0,.146.921.941,1.583a4.292,4.292,0,0,0,1.788.662c.007.106-.225.185-.662.192a2.3,2.3,0,0,1-1.49-.517,2.04,2.04,0,0,1-.729-1.325C262.1,127.192,262.2,127,262.262,127Z" transform="translate(-148.363 -103.615)" fill="#263238"/>
      <path id="Path_66738" data-name="Path 66738" d="M259.8,111.1c-.086.232-.934.126-1.941.245s-1.815.4-1.947.185c-.06-.1.079-.318.411-.543a3.239,3.239,0,0,1,1.444-.5,3.186,3.186,0,0,1,1.517.179C259.656,110.819,259.841,111,259.8,111.1Z" transform="translate(-146.267 -98.031)" fill="#263238"/>
      <path id="Path_66739" data-name="Path 66739" d="M272.186,112.067c-.152.2-.742,0-1.451,0s-1.325.132-1.444-.073c-.06-.1.033-.291.3-.477a2.093,2.093,0,0,1,2.332.073C272.172,111.775,272.252,111.974,272.186,112.067Z" transform="translate(-150.782 -98.28)" fill="#263238"/>
      <path id="Path_66740" data-name="Path 66740" d="M244.653,105.387c.073,1.616-.285,3.424,0,5.014.046.245.662.888.729,1.126.325,1.4.907,1.987,1.749.556a12.63,12.63,0,0,0,.662-2.742l1.013-5.14a8.9,8.9,0,0,0,4.233,1.007,4.332,4.332,0,0,0,3.61-2.133,4.491,4.491,0,0,0,6.962.914,1.875,1.875,0,0,0,2.477.523,2.226,2.226,0,0,0,.907-2.451c-.384-1.358-1.841-2.093-3.193-2.491-5.3-1.557-11.141-.338-15.9,2.451a8.1,8.1,0,0,0-1.921,1.451c-.543.59-1.292,1.325-1.325,2.093" transform="translate(-142.432 -94.123)" fill="#263238"/>
      <path id="Path_66741" data-name="Path 66741" d="M260.631,119.4a5.179,5.179,0,0,0,.464-.709,3.47,3.47,0,0,0,.4-2.186,3.312,3.312,0,1,0-3.749,3.749,3.477,3.477,0,0,0,2.186-.391c.47-.265.662-.49.7-.464s-.04.066-.139.172a2.808,2.808,0,0,1-.5.4,3.431,3.431,0,0,1-2.285.523,3.6,3.6,0,1,1,4.021-4.021,3.418,3.418,0,0,1-.517,2.279,2.648,2.648,0,0,1-.4.5Q260.651,119.408,260.631,119.4Z" transform="translate(-145.812 -98.997)" fill="#455a64"/>
      <path id="Path_66742" data-name="Path 66742" d="M273.9,119.4a5.181,5.181,0,0,0,.464-.709,3.477,3.477,0,0,0,.391-2.186A3.312,3.312,0,1,0,271,120.255a3.478,3.478,0,0,0,2.186-.391c.47-.265.662-.49.709-.464s-.04.066-.139.172a2.649,2.649,0,0,1-.5.4,3.425,3.425,0,0,1-2.279.523,3.6,3.6,0,1,1,4.014-4.021,3.418,3.418,0,0,1-.517,2.279,2.65,2.65,0,0,1-.4.5A.534.534,0,0,1,273.9,119.4Z" transform="translate(-150.289 -98.996)" fill="#455a64"/>
      <path id="Path_66743" data-name="Path 66743" d="M267.207,118.312c0,.1-.437.172-.98.172s-.987-.073-.987-.172.444-.172.987-.172S267.207,118.219,267.207,118.312Z" transform="translate(-149.421 -100.623)" fill="#455a64"/>
      <path id="Path_66744" data-name="Path 66744" d="M245.8,117.832a13.247,13.247,0,0,1,3.027-.278,13.817,13.817,0,0,1,3.04.073,13.055,13.055,0,0,1-3.027.272A13.6,13.6,0,0,1,245.8,117.832Z" transform="translate(-142.857 -100.408)" fill="#455a64"/>
      <path id="Path_66745" data-name="Path 66745" d="M240.657,115.516,235.9,113.8l-4.5,1.563-6.233,6.518-4.054,3.868,6.624,2.941,3.5-1.4,5.584-3.8,3.16-5.961s-.9-.424-1.914,1l-.947,1.265-.9-3.444v-1.02l2.8.854a1.47,1.47,0,0,0,1.59-.464Z" transform="translate(-134.521 -99.158)" fill="#b78876"/>
      <path id="Path_66746" data-name="Path 66746" d="M236.971,124a1.7,1.7,0,0,1,.411.755,5.3,5.3,0,0,1-.258,4.06c-.245.477-.47.722-.5.7a11.408,11.408,0,0,0,.662-2.722A11.14,11.14,0,0,0,236.971,124Z" transform="translate(-139.758 -102.602)" fill="#aa6550"/>
      <path id="Path_66747" data-name="Path 66747" d="M236.879,123.005a9.043,9.043,0,0,1,1.729-.411h.04a.616.616,0,0,1,.285.662,1.927,1.927,0,0,1-.3.662.709.709,0,0,0-.119.6,1.391,1.391,0,0,0,.47.556h-.205a3.822,3.822,0,0,0,1.206-1.166c.464-.735-.066-1.51-.351-2.219a2.65,2.65,0,0,0-.232-.457.424.424,0,0,0-.371-.079l-.941.146a10.6,10.6,0,0,1-1.881.212,10.1,10.1,0,0,1,1.841-.45l.941-.185a.7.7,0,0,1,.629.146,2.1,2.1,0,0,1,.3.537c.159.358.351.7.5,1.126a1.689,1.689,0,0,1-.126,1.391,4.059,4.059,0,0,1-1.325,1.272l-.106.073-.1-.086a1.7,1.7,0,0,1-.55-.709.987.987,0,0,1,.166-.848,1.775,1.775,0,0,0,.285-.576.4.4,0,0,0-.126-.424h.073a9.365,9.365,0,0,1-1.729.225Z" transform="translate(-139.619 -101.541)" fill="#aa6550"/>
      <path id="Path_66748" data-name="Path 66748" d="M240.126,122.665a.547.547,0,0,0,.3.212.583.583,0,0,0,.742-.411,1.987,1.987,0,0,0-.278-1.47c-.238-.556-.484-1.219-.768-1.822s-1.02-.5-1.616-.437-1.153.139-1.61.212a9.09,9.09,0,0,1-1.49.219,5.225,5.225,0,0,1,1.444-.457c.457-.106,1.007-.212,1.623-.291a4.39,4.39,0,0,1,1-.053,1.166,1.166,0,0,1,.947.662c.325.662.53,1.325.768,1.868a5.146,5.146,0,0,1,.278.854,1.325,1.325,0,0,1-.073.821.821.821,0,0,1-.5.49.662.662,0,0,1-.523-.04C240.113,122.863,240.113,122.658,240.126,122.665Z" transform="translate(-139.349 -100.697)" fill="#aa6550"/>
      <path id="Path_66749" data-name="Path 66749" d="M242.271,120.581a5.224,5.224,0,0,1-.457-1.272c-.126-.437-.265-.907-.4-1.4-.079-.258-.152-.556-.232-.815a.914.914,0,0,0-.523-.55,2.775,2.775,0,0,0-1.629.159l-1.411.378a5.444,5.444,0,0,1-1.325.258,5.3,5.3,0,0,1,1.259-.5l1.384-.444a2.9,2.9,0,0,1,1.855-.172,1.245,1.245,0,0,1,.709.755c.093.311.146.576.219.848l.338,1.417A5.168,5.168,0,0,1,242.271,120.581Z" transform="translate(-139.646 -99.952)" fill="#aa6550"/>
      <path id="Path_66750" data-name="Path 66750" d="M227.23,121.84a.806.806,0,0,1,.1-.126c.093-.093.192-.212.318-.351l1.239-1.325,4.517-4.776h0l4.5-1.583h.033l4.762,1.709h.066v.311h0a1.517,1.517,0,0,1-.755.5,2.113,2.113,0,0,1-.934,0h0l-1.954-.6-.835-.258.132-.093v.987c.3,1.179.609,2.332.9,3.444h-.179c.411-.543.788-1.073,1.206-1.59a1.716,1.716,0,0,1,1.775-.7h.093l-.053.1-3.173,5.961h0l-4.107,2.755L233.7,127c-.258.172-.4.252-.4.252s.126-.106.371-.285l1.106-.768,4.067-2.808h0l3.14-5.961.046.132a1.093,1.093,0,0,0-.835.079,2.45,2.45,0,0,0-.715.576c-.391.49-.782,1.047-1.186,1.583l-.126.166-.053-.2c-.3-1.119-.6-2.265-.907-3.444h0v-1.159l.132.04.835.258,1.954.6h0a1.9,1.9,0,0,0,.841,0,1.325,1.325,0,0,0,.662-.437v-.132l.066.093-4.756-1.722h.066l-4.511,1.557h0l-4.57,4.723-1.265,1.325-.338.338A.576.576,0,0,1,227.23,121.84Z" transform="translate(-136.587 -99.118)" fill="#aa6550"/>
      <path id="Path_66751" data-name="Path 66751" d="M229.991,176.045l-.311-22.885,5.961-1.987a37.328,37.328,0,0,1,5.9-1.133h0a11.618,11.618,0,0,0,14.181.179l.2-.152c.57.066,1.325.139,2.272.252h.185a13.909,13.909,0,0,1,6.511,2.6h0L294.513,170.6l17.394-13.247,8.81,6.909s-22.786,22.786-25,23.329c-1.53.378-16.732-7.948-25.945-13.062.378,5.518,2.438,36.186,2.338,40.4H229.786l-.033-19.341v-5.266Z" transform="translate(-137.415 -111.394)" fill="#efa00b"/>
      <path id="Path_66752" data-name="Path 66752" d="M289.325,167.26a4.434,4.434,0,0,0-.033,1.02c0,.735.053,1.663.079,2.755.086,2.332.238,5.544.431,9.094s.384,6.763.55,9.088c.086,1.093.159,1.987.212,2.749a5.4,5.4,0,0,0,.139,1.013,4.391,4.391,0,0,0,.033-1.013c0-.742-.053-1.663-.086-2.762-.086-2.332-.232-5.544-.424-9.094s-.384-6.769-.55-9.094c-.086-1.093-.159-1.987-.219-2.749A5.124,5.124,0,0,0,289.325,167.26Z" transform="translate(-157.536 -117.208)" fill="#263238"/>
      <path id="Path_66753" data-name="Path 66753" d="M346.788,166.8a33.812,33.812,0,0,0,4.259,4.047,39.554,39.554,0,0,0,4.564,3.7,40.825,40.825,0,0,0-4.286-4.021c-1.219-1.066-2.338-1.987-3.159-2.689A9.215,9.215,0,0,0,346.788,166.8Z" transform="translate(-176.952 -117.052)" fill="#263238"/>
      <path id="Path_66754" data-name="Path 66754" d="M343.739,169.08a42.747,42.747,0,0,0,4.312,4.08c1.225,1.086,2.351,2.047,3.179,2.729a7.162,7.162,0,0,0,1.4,1.04,7.112,7.112,0,0,0-1.2-1.265c-.782-.742-1.874-1.742-3.107-2.828s-2.351-2.047-3.186-2.722A6.921,6.921,0,0,0,343.739,169.08Z" transform="translate(-175.923 -117.822)" fill="#263238"/>
      <path id="Path_66755" data-name="Path 66755" d="M210.655,126.11s-16.93,15.824-22.276,22.309a9.348,9.348,0,0,0-1.02,10.532h0a8.041,8.041,0,0,0,7.458,3.908l20.388-1.365,1.543-16.963-12.327,3.848,14.36-15.016Z" transform="translate(-122.728 -103.314)" fill="#efa00b"/>
      <path id="Path_66756" data-name="Path 66756" d="M229.77,191.521c-.1,0-.126-3.643-.066-8.127s.185-8.114.285-8.114.119,3.636.06,8.121S229.889,191.521,229.77,191.521Z" transform="translate(-137.412 -119.915)" fill="#263238"/>
      <path id="Path_66757" data-name="Path 66757" d="M213.635,150.92a4.014,4.014,0,0,1-.51.662l-1.5,1.676c-1.278,1.411-3.087,3.371-5.153,5.59l.04-.073c-.2.715-.444,1.451-.722,2.186a21.362,21.362,0,0,1-2.245,4.544,10.392,10.392,0,0,1-3,2.855,7.287,7.287,0,0,1-2.6,1.04,4.282,4.282,0,0,1-.755.079h-.265s.364-.053.994-.205a7.948,7.948,0,0,0,2.491-1.113,10.6,10.6,0,0,0,2.868-2.828,22.6,22.6,0,0,0,2.192-4.484c.272-.729.51-1.457.715-2.159v-.04h0c2.073-2.212,3.915-4.14,5.239-5.511l1.563-1.6A4.89,4.89,0,0,1,213.635,150.92Z" transform="translate(-126.357 -111.691)" fill="#263238"/>
      <path id="Path_66758" data-name="Path 66758" d="M209.456,166.71a7.988,7.988,0,0,1-.762,6.24c-.1-.04.477-1.325.662-3.087S209.35,166.723,209.456,166.71Z" transform="translate(-130.325 -117.022)" fill="#263238"/>
      <path id="Path_66759" data-name="Path 66759" d="M237.361,215.924a.771.771,0,0,1-.093-.132l-.258-.411-.954-1.59a27.485,27.485,0,0,1-1.411-2.583,6.306,6.306,0,0,1-.6-3.848,24.4,24.4,0,0,1,1.775-4.378,7.114,7.114,0,0,0,.55-2.5,11.359,11.359,0,0,0-.285-2.722,48.171,48.171,0,0,1-1.292-5.849,20.852,20.852,0,0,1,.57-6.418c.484-2.153,1.08-4.219,1.5-6.24a30.1,30.1,0,0,0,.464-2.994c0-.49.066-.98.086-1.464s0-.967,0-1.437a53.853,53.853,0,0,0-1.663-9.936,66.627,66.627,0,0,1-1.325-6.7c-.113-.8-.172-1.424-.2-1.848V154.4a.662.662,0,0,1,0-.166.621.621,0,0,0,.033.166,4.143,4.143,0,0,1,.066.477c.04.424.126,1.04.258,1.835.252,1.59.755,3.862,1.451,6.657a52.117,52.117,0,0,1,1.742,9.982V174.8c0,.49-.046.987-.073,1.49-.1,1-.258,1.987-.464,3.034-.424,2.04-1.02,4.1-1.5,6.24a20.673,20.673,0,0,0-.57,6.312,48.759,48.759,0,0,0,1.265,5.816,11.261,11.261,0,0,1,.272,2.8,7.287,7.287,0,0,1-.583,2.59,24.431,24.431,0,0,0-1.8,4.319,6.081,6.081,0,0,0,.53,3.723,28.377,28.377,0,0,0,1.325,2.6l.894,1.623.225.424A.7.7,0,0,1,237.361,215.924Z" transform="translate(-138.862 -112.808)" fill="#fafafa"/>
      <path id="Path_66760" data-name="Path 66760" d="M251.767,153.91a.664.664,0,0,1,.046.159l.106.47c.086.411.2,1.02.331,1.815a46.986,46.986,0,0,1,.576,6.763,50.163,50.163,0,0,1-.868,10.022c-.662,3.729-1.762,7.763-2.12,12.1a54.985,54.985,0,0,0,.821,12.227,78.644,78.644,0,0,1,1,10.015,23.708,23.708,0,0,1-.795,6.73l-.146.55-.166.47-.278.735-.172.444c-.04.1-.066.152-.066.152a.583.583,0,0,1,0-.166l.146-.457.238-.742c.046-.146.1-.3.152-.47s.079-.358.126-.55a24.687,24.687,0,0,0,.662-6.7,82.308,82.308,0,0,0-1.08-9.936,56.552,56.552,0,0,1-.848-12.3c.325-4.4,1.47-8.419,2.153-12.128a51.111,51.111,0,0,0,.934-9.969,53.594,53.594,0,0,0-.464-6.743c-.106-.795-.2-1.411-.272-1.822a3.448,3.448,0,0,0-.066-.477A.4.4,0,0,1,251.767,153.91Z" transform="translate(-144.055 -112.7)" fill="#fafafa"/>
      <path id="Path_66761" data-name="Path 66761" d="M274.124,215.042l-.093-.139-.245-.424a3.97,3.97,0,0,1-.338-.729c-.053-.146-.126-.3-.179-.484s-.093-.364-.146-.563a10.524,10.524,0,0,1-.212-2.987,35.387,35.387,0,0,1,.523-3.934,33.884,33.884,0,0,0,.59-4.729,14.233,14.233,0,0,0-.934-5.3,43.592,43.592,0,0,1-1.841-5.809,19.135,19.135,0,0,1,.126-6.551c.344-2.219.795-4.352.921-6.445a24.711,24.711,0,0,0-.47-6c-.742-3.789-1.769-7.147-2.12-10.081a18.818,18.818,0,0,1,.212-6.928,9.535,9.535,0,0,1,.874-2.4.569.569,0,0,1-.053.166l-.172.457a13.922,13.922,0,0,0-.517,1.8,19.109,19.109,0,0,0-.1,6.869c.371,2.9,1.424,6.24,2.186,10.055a24.56,24.56,0,0,1,.5,6.081c-.119,2.126-.576,4.279-.921,6.478a18.977,18.977,0,0,0-.132,6.432,43.824,43.824,0,0,0,1.808,5.769,19.794,19.794,0,0,1,.742,2.755,12.035,12.035,0,0,1,.179,2.689,32.634,32.634,0,0,1-.662,4.769,36.215,36.215,0,0,0-.57,3.895,10.765,10.765,0,0,0,.152,2.954A10.293,10.293,0,0,0,274.124,215.042Z" transform="translate(-150.852 -111.9)" fill="#fafafa"/>
      <path id="Path_66762" data-name="Path 66762" d="M284.213,157.56a.879.879,0,0,1,.053.152l.126.444c.119.391.245.974.391,1.735a28.478,28.478,0,0,1,.258,6.531c-.159,2.755-.7,6.008-1.192,9.611a86.308,86.308,0,0,0-.735,11.8,159.8,159.8,0,0,0,1.908,21.408c.4,2.7.735,4.9.967,6.458.113.735.192,1.325.258,1.755a2.574,2.574,0,0,0,.06.457.713.713,0,0,1,0,.159.663.663,0,0,1-.046-.152,3.318,3.318,0,0,0-.086-.457c-.079-.424-.185-1.007-.324-1.742-.265-1.517-.662-3.716-1.073-6.438a148.7,148.7,0,0,1-1.987-21.448,83.716,83.716,0,0,1,.768-11.843c.517-3.61,1.066-6.842,1.259-9.585a29.738,29.738,0,0,0-.146-6.491c-.119-.755-.225-1.325-.325-1.742l-.093-.45a.473.473,0,0,1-.04-.159Z" transform="translate(-155.345 -113.933)" fill="#fafafa"/>
      <path id="Path_66763" data-name="Path 66763" d="M300.14,184.471a2.489,2.489,0,0,1-.1-.662c-.04-.437-.086-1.073-.126-1.861-.086-1.57-.159-3.742-.166-6.147s.04-4.577.113-6.147c.04-.788.073-1.424.113-1.861a2.948,2.948,0,0,1,.086-.662,2.523,2.523,0,0,1,.046.662v8c0,2.351.046,4.484.066,6.14V183.8A3.018,3.018,0,0,1,300.14,184.471Z" transform="translate(-161.072 -117.164)" fill="#fafafa"/>
      <path id="Path_66764" data-name="Path 66764" d="M309,170.79a4.8,4.8,0,0,1-.3.6,3.843,3.843,0,0,0-.384,1.749c0,.762.159,1.689.265,2.709s.351,2.133.5,3.312a15.4,15.4,0,0,1,.066,3.385,8.471,8.471,0,0,1-.662,2.7,7.072,7.072,0,0,1-.974,1.59c-.278.344-.457.51-.477.5a15.11,15.11,0,0,0,1.225-2.179,12.739,12.739,0,0,0,.464-5.961c-.146-1.172-.364-2.292-.477-3.312a24.658,24.658,0,0,1-.192-2.755,3.676,3.676,0,0,1,.51-1.808A1.822,1.822,0,0,1,309,170.79Z" transform="translate(-163.53 -118.399)" fill="#fafafa"/>
      <path id="Path_66765" data-name="Path 66765" d="M202.28,172.668a5.218,5.218,0,0,1,.888,0,9.571,9.571,0,0,0,2.365-.219,5.749,5.749,0,0,0,2.861-1.908c.881-1,1.762-2.2,2.736-3.4,1.934-2.438,3.7-4.637,4.988-6.2l1.537-1.855a4.517,4.517,0,0,1,.6-.662,4.379,4.379,0,0,1-.5.729l-1.451,1.928c-1.245,1.61-2.974,3.829-4.908,6.259-.98,1.212-1.855,2.391-2.769,3.4a5.888,5.888,0,0,1-3.04,1.934,8.2,8.2,0,0,1-2.431.113A3.876,3.876,0,0,1,202.28,172.668Z" transform="translate(-128.164 -114.223)" fill="#fafafa"/>
      <path id="Path_66766" data-name="Path 66766" d="M214.634,132.09a2.514,2.514,0,0,1-.159.391,7.764,7.764,0,0,1-.57,1.06,13.247,13.247,0,0,1-2.941,3.312c-1.424,1.212-3.312,2.431-5.266,3.875a16.844,16.844,0,0,0-5.345,5.73,35.146,35.146,0,0,1-1.947,3.676,10.5,10.5,0,0,1-2.808,2.7c-1.02.709-2.027,1.325-2.908,1.928a10.637,10.637,0,0,0-2.226,1.987,5.193,5.193,0,0,0-1.232,4.014,4.451,4.451,0,0,0,.55,1.49l-.073-.079a1.252,1.252,0,0,1-.185-.258,3.45,3.45,0,0,1-.424-1.126,5.3,5.3,0,0,1,1.172-4.193,10.712,10.712,0,0,1,2.252-2.08c.888-.662,1.894-1.252,2.888-1.954a10.326,10.326,0,0,0,2.716-2.649,33.552,33.552,0,0,0,1.914-3.643,16.851,16.851,0,0,1,5.471-5.829c1.987-1.424,3.868-2.649,5.3-3.8a13.908,13.908,0,0,0,2.981-3.173,8.422,8.422,0,0,0,.616-1.02A1.783,1.783,0,0,1,214.634,132.09Z" transform="translate(-123.693 -105.333)" fill="#fafafa"/>
      <g id="Group_161411" data-name="Group 161411" transform="translate(70.917 46.316)" opacity="0.3">
        <path id="Path_66767" data-name="Path 66767" d="M197.45,172.973a10.439,10.439,0,0,0,10.6-10.386c0-.351-.06-.768-.371-.927a.7.7,0,0,0-.828.285,2.2,2.2,0,0,0-.3.894,14.572,14.572,0,0,1-8.24,10.393" transform="translate(-197.45 -161.618)"/>
      </g>
      <g id="Group_161412" data-name="Group 161412" transform="translate(142.513 57.01)" opacity="0.3">
        <path id="Path_66768" data-name="Path 66768" d="M315.37,177.92a3.616,3.616,0,0,0-1.033,1.325c-1.437,2.265-4.279,3.179-6.18,5.067a7.571,7.571,0,0,0-2.616,5.219l3.107,1.411,8.081-12.585C316.655,177.781,315.853,177.6,315.37,177.92Z" transform="translate(-305.54 -177.764)"/>
      </g>
      <path id="Path_66769" data-name="Path 66769" d="M97.5,414.4s-10.889,2.345-5.239,15.592,2.272,16.857-1.629,17.791l29.873-.192,2.649-33.311Z" transform="translate(-90.468 -200.608)" fill="#e0e0e0"/>
      <path id="Path_66770" data-name="Path 66770" d="M122.726,447.776a8.611,8.611,0,0,1-5.756-2.159c-2.457-2.159-5.491-6.2-6.094-13.208-1.265-14.831-9.876-18-9.876-18l25.64-.113s8.326,0,9,13.161c.709,13.8,19.838,21.719,31.648,20.176Z" transform="translate(-93.969 -200.615)" fill="#f5f5f5"/>
      <path id="Path_66771" data-name="Path 66771" d="M171.584,379.852S158.152,378.243,156.661,408s-23.991,28.138-23.991,28.138h44.856s9.333-2.073,7.16-23.07c-.907-8.81,14.9-33.192,14.9-33.192Z" transform="translate(-104.662 -188.979)" fill="#ebebeb"/>
      <path id="Path_66772" data-name="Path 66772" d="M179.693,383.218c-1.431,1.716-.848,4.464.4,6.319a13.564,13.564,0,0,0,5.193,4.14,39.076,39.076,0,0,1,5.849,3.266,17.711,17.711,0,0,1,5.7,8.518,52.568,52.568,0,0,1,2.027,10.187s-1.47-24.687-5.809-31.536S182.436,379.946,179.693,383.218Z" transform="translate(-120.255 -188.98)" fill="#e0e0e0"/>
      <path id="Path_66773" data-name="Path 66773" d="M218.511,436.142s-13.247.662-15.089-14.711-3.385-40.65-12-41.571h27.157a9.273,9.273,0,0,1,8.651,5.882,56.752,56.752,0,0,1,3.12,14.049c1.57,13.8,9.386,36.523,28.966,36.325Z" transform="translate(-124.497 -188.987)" fill="#f5f5f5"/>
      <path id="Path_66774" data-name="Path 66774" d="M236.765,445.622c0,.093-3.974.172-8.843.172s-8.843-.079-8.843-.172,3.974-.172,8.843-.172S236.765,445.523,236.765,445.622Z" transform="translate(-133.836 -211.132)" fill="#263238"/>
      <path id="Path_66775" data-name="Path 66775" d="M251.2,445.892a23.421,23.421,0,0,1-.146-2.6l.146.146h-2.6l.172-.172h0v2.55l-.152-.146a23.4,23.4,0,0,1,2.6.145,17.6,17.6,0,0,1-2.6.153h-.146v-2.7h0l.172-.172H251.4v.146a17.6,17.6,0,0,1-.2,2.656Z" transform="translate(-143.759 -210.335)" fill="#263238"/>
      <path id="Path_66776" data-name="Path 66776" d="M242.9,454.232c0,.1-3.974.172-8.836.172s-8.843-.073-8.843-.172,3.974-.172,8.843-.172S242.9,454.139,242.9,454.232Z" transform="translate(-135.909 -214.039)" fill="#263238"/>
      <path id="Path_66777" data-name="Path 66777" d="M257.318,454.52a22.554,22.554,0,0,1-.152-2.6l.152.146h-2.6l.172-.172h0v2.6l-.146-.152a22.555,22.555,0,0,1,2.6.152,18.5,18.5,0,0,1-2.6.146h-.152v-2.722h0c-.159.152.205-.212.172-.172H257.5v.172a18.509,18.509,0,0,1-.179,2.61Z" transform="translate(-145.811 -213.254)" fill="#263238"/>
      <path id="Path_66778" data-name="Path 66778" d="M231.619,423.912c0,.093-3.974.172-8.836.172s-8.843-.08-8.843-.172,3.974-.172,8.843-.172S231.619,423.819,231.619,423.912Z" transform="translate(-132.1 -203.802)" fill="#263238"/>
      <path id="Path_66779" data-name="Path 66779" d="M246.04,424.194a22.417,22.417,0,0,1-.152-2.6l.152.152h-2.6l.172-.172h0v2.55l-.146-.146a23.581,23.581,0,0,1,2.6.146,17.7,17.7,0,0,1-2.6.152h-.152v-2.7h0c-.152.152.212-.212.179-.172h2.755v.146A18.373,18.373,0,0,1,246.04,424.194Z" transform="translate(-142.004 -203.01)" fill="#263238"/>
      <path id="Path_66780" data-name="Path 66780" d="M230.155,412.592c0,.093-3.974.172-8.843.172s-8.843-.079-8.843-.172,3.974-.172,8.843-.172S230.155,412.5,230.155,412.592Z" transform="translate(-131.604 -199.98)" fill="#263238"/>
      <path id="Path_66781" data-name="Path 66781" d="M244.59,412.867a23.622,23.622,0,0,1-.146-2.61l.146.152h-2.6l.172-.172h0v2.557l-.152-.152a22.411,22.411,0,0,1,2.6.152,19.759,19.759,0,0,1-2.6.146h-.146v-2.709h0c-.152.159.212-.205.172-.172h2.755v.146a17.754,17.754,0,0,1-.2,2.663Z" transform="translate(-141.515 -199.182)" fill="#263238"/>
      <path id="Path_66782" data-name="Path 66782" d="M228.215,402.222c0,.093-3.974.172-8.843.172s-8.843-.08-8.843-.172,3.974-.172,8.843-.172S228.215,402.123,228.215,402.222Z" transform="translate(-130.949 -196.479)" fill="#263238"/>
      <path id="Path_66783" data-name="Path 66783" d="M242.593,402.494a24.161,24.161,0,0,1-.152-2.6l.152.152h-2.6l.172-.172h0v2.55l-.146-.146a23.387,23.387,0,0,1,2.6.145,17.7,17.7,0,0,1-2.6.153h-.146v-2.7h0c-.152.152.205-.212.172-.172H242.8v.2A18.852,18.852,0,0,1,242.593,402.494Z" transform="translate(-140.842 -195.684)" fill="#263238"/>
      <path id="Path_66784" data-name="Path 66784" d="M225.465,392.709c0,.093-3.974.172-8.843.172s-8.843-.08-8.843-.172,3.974-.179,8.843-.179S225.465,392.609,225.465,392.709Z" transform="translate(-130.021 -193.264)" fill="#263238"/>
      <path id="Path_66785" data-name="Path 66785" d="M239.9,392.982a23.412,23.412,0,0,1-.146-2.6l.146.146h-2.6l.172-.172h0v2.583l-.152-.152a24.144,24.144,0,0,1,2.6.152,18.849,18.849,0,0,1-2.6.152h-.146v-2.736h0l.172-.172H240.1v.152a17.717,17.717,0,0,1-.2,2.654Z" transform="translate(-139.943 -192.471)" fill="#263238"/>
      <path id="Path_66786" data-name="Path 66786" d="M220.835,384.732c0,.093-3.974.172-8.843.172s-8.843-.079-8.843-.172,3.974-.172,8.843-.172S220.835,384.639,220.835,384.732Z" transform="translate(-128.457 -190.574)" fill="#263238"/>
      <path id="Path_66787" data-name="Path 66787" d="M235.269,385a23.275,23.275,0,0,1-.146-2.6l.146.152h-2.6l.172-.172h0v2.55l-.152-.146a25.491,25.491,0,0,1,2.6.146,17.589,17.589,0,0,1-2.6.152h-.146v-2.709h0l.172-.172h2.755v.146a17.486,17.486,0,0,1-.2,2.656Z" transform="translate(-138.38 -189.777)" fill="#263238"/>
      <path id="Path_66788" data-name="Path 66788" d="M239.16,403.985a6.445,6.445,0,0,1,1.192-1.729c.152-.172.291-.344.444-.523l.113-.132.119.113c.609.556,1.007.987.96,1.047s-.537-.278-1.172-.8h.232l-.431.536A6.479,6.479,0,0,1,239.16,403.985Z" transform="translate(-140.615 -196.327)" fill="#efa00b"/>
      <path id="Path_66789" data-name="Path 66789" d="M241.22,413.888a6.444,6.444,0,0,1,1.192-1.729l.444-.523.113-.126.119.106c.609.556,1.007.987.96,1.047s-.537-.278-1.172-.795h.232l-.431.537A6.524,6.524,0,0,1,241.22,413.888Z" transform="translate(-141.311 -199.673)" fill="#efa00b"/>
      <path id="Path_66790" data-name="Path 66790" d="M247.08,447.785a6.445,6.445,0,0,1,1.192-1.729c.152-.172.291-.345.444-.523l.113-.132.119.113c.609.556,1.007.987.96,1.047s-.537-.278-1.172-.8h.232l-.431.536a6.478,6.478,0,0,1-1.457,1.49Z" transform="translate(-143.289 -211.115)" fill="#efa00b"/>
      <path id="Path_66791" data-name="Path 66791" d="M242.7,425.284a6.259,6.259,0,0,1,1.192-1.729l.444-.523.113-.133.119.113c.6.556,1.007.987.96,1.047s-.536-.278-1.172-.8h.232l-.431.537A6.622,6.622,0,0,1,242.7,425.284Z" transform="translate(-141.81 -203.518)" fill="#efa00b"/>
      <path id="Path_66792" data-name="Path 66792" d="M234.2,434.772c0,.093-3.974.172-8.843.172s-8.843-.079-8.843-.172,3.974-.172,8.843-.172S234.2,434.673,234.2,434.772Z" transform="translate(-132.968 -207.468)" fill="#263238"/>
      <path id="Path_66793" data-name="Path 66793" d="M248.592,435.044a24.325,24.325,0,0,1-.152-2.6l.152.152h-2.6l.172-.172h0v2.55l-.146-.146a23.387,23.387,0,0,1,2.6.145,17.708,17.708,0,0,1-2.6.153h-.146v-2.7h0c-.159.152.205-.212.172-.172H248.8v.146a18.369,18.369,0,0,1-.205,2.65Z" transform="translate(-142.867 -206.673)" fill="#263238"/>
      <path id="Path_66794" data-name="Path 66794" d="M244.71,436.595a6.624,6.624,0,0,1,1.192-1.729c.152-.172.3-.344.444-.523l.113-.133.119.113c.609.556,1.013.987.96,1.04s-.536-.272-1.172-.795h.232l-.424.537A6.578,6.578,0,0,1,244.71,436.595Z" transform="translate(-142.489 -207.337)" fill="#efa00b"/>
      <path id="Path_66795" data-name="Path 66795" d="M132.24,451.672c0-.1,3.59-.172,8.021-.172s8.028.073,8.028.172-3.59.172-8.028.172S132.24,451.765,132.24,451.672Z" transform="translate(-104.516 -213.174)" fill="#263238"/>
      <path id="Path_66796" data-name="Path 66796" d="M125.955,450.221a19.791,19.791,0,0,1,.146,2.365l-.146-.146h2.365c.033-.04-.331.325-.179.172h0v-2.378l.152.152a18.678,18.678,0,0,1-2.365-.152,14.952,14.952,0,0,1,2.365-.146h.146v2.51h0l-.172.172H125.75v-.146a14.516,14.516,0,0,1,.205-2.4Z" transform="translate(-102.325 -212.697)" fill="#263238"/>
      <path id="Path_66797" data-name="Path 66797" d="M129.567,449.078a5.472,5.472,0,0,1-1.073,1.576l-.4.477-.113.132-.119-.113c-.55-.5-.914-.9-.861-.96s.49.245,1.073.715h-.232l.384-.49C128.892,449.628,129.488,449.025,129.567,449.078Z" transform="translate(-102.745 -212.356)" fill="#efa00b"/>
      <path id="Path_66798" data-name="Path 66798" d="M127.42,444.562c0-.1,3.6-.172,8.028-.172s8.021.073,8.021.172-3.59.172-8.021.172S127.42,444.655,127.42,444.562Z" transform="translate(-102.889 -210.774)" fill="#263238"/>
      <path id="Path_66799" data-name="Path 66799" d="M121.158,443.121a19.794,19.794,0,0,1,.146,2.365l-.146-.146h2.365l-.172.172h0v-2.358l.152.152a18.672,18.672,0,0,1-2.365-.152,15.047,15.047,0,0,1,2.365-.146h.146v2.51h0l-.172.172H121v-.146A14.509,14.509,0,0,1,121.158,443.121Z" transform="translate(-100.72 -210.307)" fill="#263238"/>
      <path id="Path_66800" data-name="Path 66800" d="M124.748,442a5.47,5.47,0,0,1-1.073,1.576l-.4.477-.113.133-.119-.113c-.55-.5-.907-.9-.861-.961s.5.245,1.073.715h-.232l.364-.5A5.2,5.2,0,0,1,124.748,442Z" transform="translate(-101.118 -209.963)" fill="#efa00b"/>
      <path id="Path_66801" data-name="Path 66801" d="M125.78,436.532c0-.1,3.59-.172,8.021-.172s8.028.073,8.028.172-3.59.172-8.028.172S125.78,436.625,125.78,436.532Z" transform="translate(-102.335 -208.063)" fill="#263238"/>
      <path id="Path_66802" data-name="Path 66802" d="M119.5,435.091a19.647,19.647,0,0,1,.146,2.365l-.146-.146h2.358l-.172.172h0v-2.358l.146.152a18.642,18.642,0,0,1-2.358-.152,14.9,14.9,0,0,1,2.358-.146h.152v2.51h0c.152-.152-.212.212-.179.172h-2.51v-.146a14.513,14.513,0,0,1,.205-2.424Z" transform="translate(-100.144 -207.596)" fill="#263238"/>
      <path id="Path_66803" data-name="Path 66803" d="M123.1,433.938a5.213,5.213,0,0,1-1.066,1.576l-.4.477-.113.132-.119-.113c-.55-.5-.914-.9-.861-.96s.49.245,1.073.715h-.232l.384-.49C122.432,434.488,123.028,433.878,123.1,433.938Z" transform="translate(-100.564 -207.244)" fill="#efa00b"/>
      <path id="Path_66804" data-name="Path 66804" d="M124,428.319c0-.1,3.59-.179,8.021-.179s8.021.079,8.021.179-3.59.172-8.021.172S124,428.412,124,428.319Z" transform="translate(-101.734 -205.287)" fill="#263238"/>
      <path id="Path_66805" data-name="Path 66805" d="M117.719,426.882a18.671,18.671,0,0,1,.152,2.365l-.152-.152h2.365l-.172.172h0v-2.345l.152.152a20.412,20.412,0,0,1-2.365-.152,15.557,15.557,0,0,1,2.365-.152h.146v2.5h0l-.172.172H117.52v-.146A15.05,15.05,0,0,1,117.719,426.882Z" transform="translate(-99.546 -204.824)" fill="#263238"/>
      <path id="Path_66806" data-name="Path 66806" d="M121.328,425.727a5.4,5.4,0,0,1-1.073,1.576l-.4.477-.113.126-.119-.106c-.55-.51-.907-.9-.861-.96s.5.245,1.073.709H119.6l.391-.484C120.652,426.271,121.255,425.661,121.328,425.727Z" transform="translate(-99.963 -204.471)" fill="#efa00b"/>
      <path id="Path_66807" data-name="Path 66807" d="M119.42,420.212c0-.093,3.59-.172,8.021-.172s8.021.079,8.021.172-3.59.172-8.021.172S119.42,420.311,119.42,420.212Z" transform="translate(-100.188 -202.553)" fill="#263238"/>
      <path id="Path_66808" data-name="Path 66808" d="M113.151,418.778a18.634,18.634,0,0,1,.152,2.358l-.152-.146h2.365l-.172.172h0v-2.351l.146.146a19.643,19.643,0,0,1-2.365-.146,14.513,14.513,0,0,1,2.365-.152h.159v2.5h0c.152-.152-.212.212-.172.179H113v-.152a14.9,14.9,0,0,1,.152-2.411Z" transform="translate(-98.019 -202.086)" fill="#263238"/>
      <path id="Path_66809" data-name="Path 66809" d="M116.741,417.618a5.3,5.3,0,0,1-1.073,1.576l-.4.477-.106.133-.126-.113c-.543-.5-.907-.9-.854-.954s.49.238,1.073.709h-.238l.391-.49C116.045,418.168,116.668,417.558,116.741,417.618Z" transform="translate(-98.416 -201.734)" fill="#efa00b"/>
      <path id="Path_66810" data-name="Path 66810" d="M190.74,379.773h2.139l5.922-.04h20.255a6.922,6.922,0,0,1,4.173.795,9.273,9.273,0,0,1,3.312,2.974,18.322,18.322,0,0,1,2.6,6.988c.47,2.365.808,4.637,1.093,6.856.589,4.378.947,8.353,1.649,11.6a34.249,34.249,0,0,0,2.537,7.372c.4.841.762,1.471,1.007,1.9.113.192.205.351.285.477a.8.8,0,0,1,.086.172.735.735,0,0,1-.119-.152l-.311-.464a20.9,20.9,0,0,1-1.073-1.874,33.519,33.519,0,0,1-2.689-7.445c-.742-3.312-1.119-7.24-1.722-11.618-.3-2.186-.662-4.478-1.113-6.829a18.156,18.156,0,0,0-2.55-6.862,8.975,8.975,0,0,0-3.166-2.868,6.623,6.623,0,0,0-3.974-.762h0l-20.275-.106-5.922-.06-1.59-.033h-.411Z" transform="translate(-124.267 -188.926)" fill="#263238"/>
      <path id="Path_66811" data-name="Path 66811" d="M90.547,436.054a4.326,4.326,0,0,0,.563-.152,5.214,5.214,0,0,0,1.53-.755,5.353,5.353,0,0,0,1.742-2.113,8.207,8.207,0,0,0,.662-3.683,19.21,19.21,0,0,0-.662-4.7,44.445,44.445,0,0,0-1.987-5.3c-.384-.947-.755-1.934-1.086-2.981a19.512,19.512,0,0,1-.788-3.312,10.81,10.81,0,0,1,1.325-7.134,7.2,7.2,0,0,1,2.921-2.689,6.055,6.055,0,0,1,.967-.364c.166-.04.331-.1.5-.133l.523-.066a3.411,3.411,0,0,1,2.073.43,10.552,10.552,0,0,1,3.173,2.914,26.5,26.5,0,0,1,2.385,3.782,30.73,30.73,0,0,1,1.828,4.239,17.438,17.438,0,0,1,.662,2.292c.146.795.212,1.583.331,2.378a45.349,45.349,0,0,0,.894,4.789,48.959,48.959,0,0,0,1.484,4.782,10.687,10.687,0,0,0,1.033,2.292,8.988,8.988,0,0,0,1.663,1.921,13.753,13.753,0,0,0,2.1,1.51,14.793,14.793,0,0,0,2.338,1.166,7.84,7.84,0,0,0,2.563.51c.868,0,1.782-.1,2.649-.172a19.815,19.815,0,0,0,5.3-1.1,20.594,20.594,0,0,0,4.849-2.649,16.375,16.375,0,0,0,3.921-3.974,32.866,32.866,0,0,0,4.815-10.413,40.014,40.014,0,0,0,1.013-5.107c.219-1.709.318-3.431.464-5.14a87.222,87.222,0,0,1,1.285-10.061c.331-1.636.748-3.239,1.219-4.8a35.9,35.9,0,0,1,1.629-4.59,17.782,17.782,0,0,1,2.544-4.054,11.731,11.731,0,0,1,3.63-2.974h0a7.789,7.789,0,0,1,3.888-1.106,5.7,5.7,0,0,1,3.7,1.384,9.445,9.445,0,0,1,2.272,3.153,32.463,32.463,0,0,1,1.358,3.53,74.735,74.735,0,0,1,3.14,13.817c.623,4.431.941,8.611,1.219,12.512a45.358,45.358,0,0,0,1.676,10.6,18.976,18.976,0,0,0,4.2,7.525,12.9,12.9,0,0,0,5.392,3.444,10.956,10.956,0,0,0,3.974.53c.457-.04.8-.08,1.033-.126l.351-.046-.344.073a7.691,7.691,0,0,1-1.04.152,10.638,10.638,0,0,1-4.014-.484,13.009,13.009,0,0,1-5.471-3.438,19.1,19.1,0,0,1-4.279-7.571,46.581,46.581,0,0,1-1.722-10.6c-.291-3.868-.616-8.074-1.245-12.492a75.092,75.092,0,0,0-3.186-13.751,31.209,31.209,0,0,0-1.325-3.5,9.094,9.094,0,0,0-2.192-3.047,5.4,5.4,0,0,0-3.511-1.325,7.511,7.511,0,0,0-3.723,1.066h0a11.259,11.259,0,0,0-3.5,2.881,17.221,17.221,0,0,0-2.491,3.974,35.114,35.114,0,0,0-1.61,4.544c-.47,1.563-.881,3.153-1.212,4.776a87.619,87.619,0,0,0-1.285,10.015c-.139,1.7-.245,3.424-.457,5.16a42.173,42.173,0,0,1-1.02,5.153,33.338,33.338,0,0,1-4.875,10.519,16.559,16.559,0,0,1-3.974,4.067,20.864,20.864,0,0,1-4.928,2.689,20.416,20.416,0,0,1-5.4,1.119c-.914.066-1.8.159-2.716.166a8.074,8.074,0,0,1-2.649-.53,14.722,14.722,0,0,1-2.4-1.2,14.082,14.082,0,0,1-2.139-1.55,8.959,8.959,0,0,1-1.722-1.987,11.015,11.015,0,0,1-1.06-2.358,47.974,47.974,0,0,1-1.49-4.815,46.219,46.219,0,0,1-.888-4.822,22.58,22.58,0,0,0-2.749-8.816,25.473,25.473,0,0,0-2.345-3.742,10.3,10.3,0,0,0-3.08-2.848,4.1,4.1,0,0,0-3.829.126,6.889,6.889,0,0,0-2.8,2.6,10.6,10.6,0,0,0-1.325,6.975,18.939,18.939,0,0,0,.722,3.226c.325,1.033.662,1.987,1.066,2.967a43.647,43.647,0,0,1,1.987,5.339,19.494,19.494,0,0,1,.662,4.743,8.4,8.4,0,0,1-.742,3.729,5.445,5.445,0,0,1-1.8,2.126,5.233,5.233,0,0,1-1.557.729A3.182,3.182,0,0,1,90.547,436.054Z" transform="translate(-90.385 -188.879)" fill="#263238"/>
      <path id="Path_66812" data-name="Path 66812" d="M140.434,438.081s-.046,0-.119-.079-.192-.146-.331-.265A15.305,15.305,0,0,1,138.8,436.6a18.99,18.99,0,0,1-1.649-1.987,13.247,13.247,0,0,1-1.629-3.034,27.284,27.284,0,0,1-.907-4.06c-.232-1.477-.417-3.06-.7-4.7a16.8,16.8,0,0,0-1.59-4.941,9.2,9.2,0,0,0-1.59-2.206,3.519,3.519,0,0,0-1.066-.828,5.911,5.911,0,0,0-1.325-.4,30.209,30.209,0,0,0-5.6-.285c-1.822,0-3.577.119-5.253.132l-8.909.079H100.95a2.956,2.956,0,0,1-.57-.033,4.327,4.327,0,0,1,.57-.04l1.629-.053,6-.132,8.9-.152c1.676,0,3.431-.126,5.259-.152a30.048,30.048,0,0,1,5.67.285,5.8,5.8,0,0,1,1.417.424,2.833,2.833,0,0,1,.662.4c.179.159.358.318.523.5a9.426,9.426,0,0,1,1.643,2.285,16.958,16.958,0,0,1,1.6,5.041c.278,1.663.45,3.246.662,4.716a26.653,26.653,0,0,0,.854,4.027,12.97,12.97,0,0,0,1.557,3,20.776,20.776,0,0,0,1.59,2.027c.47.523.854.914,1.126,1.172A3.021,3.021,0,0,1,140.434,438.081Z" transform="translate(-93.76 -200.437)" fill="#263238"/>
      <path id="Path_66813" data-name="Path 66813" d="M371,146.077a4.444,4.444,0,0,1,2.378-3.842,1.517,1.517,0,0,1,.735-.205.662.662,0,0,1,.609.391.749.749,0,0,1-.212.748,6.035,6.035,0,0,1-.662.51,2.378,2.378,0,0,0-.815,2.285" transform="translate(-185.128 -108.689)" fill="#b78876"/>
      <path id="Path_66814" data-name="Path 66814" d="M312.31,104.764a11.492,11.492,0,0,0-10.6,12.267c.6,8.942.417,21.09-3.855,28.482-7.392,12.8-18.48,15.069-17.632,40.657s1.987,28.3-3.126,34.907-16.2,3.193-21.037,18.262-1.424,90.407-9.1,98.369c0,0-6.253,5.961-12.79,5.4h36.735a11.922,11.922,0,0,0,8.4-3.312,9.452,9.452,0,0,0,2.914-6.909c0-5.186,1.7-78.465,4.551-84.724s17.626-12.638,19.871-27.071,1.47-37.788,1.451-41.988c0-3.974.775-11.777,8.419-20.871,11.6-13.744,10.022-28.767,10.28-33.887S324.8,103.81,324.8,103.81Z" transform="translate(-138.931 -95.785)" fill="#ebebeb"/>
      <path id="Path_66815" data-name="Path 66815" d="M337.69,116.311a3.537,3.537,0,0,1,6.332-1.06c1.093,1.59.841,3.974,2.312,5.233a5.179,5.179,0,0,0,3.517.835,56.214,56.214,0,0,0,11.519-1.431l-.848-12.108s-18.381-1.616-20.62,1.4A13.337,13.337,0,0,0,337.69,116.311Z" transform="translate(-173.882 -96.98)" fill="#e0e0e0"/>
      <path id="Path_66816" data-name="Path 66816" d="M336.328,120.782A32.149,32.149,0,0,1,337.586,113c.775-3.206,3.007-5.544,5.716-5.961,3.424-.49,6.8,4.451,6.8,4.451s13.314-1.934,19.646-2.4c-.464-1.649-3.789-5.9-6.18-6.418a30.331,30.331,0,0,0-7.286-.391c-4.372.119-8.9.272-12.843,2.153s-8.015,4.637-7.054,14.8" transform="translate(-173.394 -95.244)" fill="#f5f5f5"/>
      <path id="Path_66817" data-name="Path 66817" d="M366.925,103.383a2.882,2.882,0,0,1-.662.079l-1.808.139c-1.523.113-3.63.272-5.961.517s-4.411.543-5.915.808l-1.775.325a3.973,3.973,0,0,1-.662.1,3.717,3.717,0,0,1,.662-.179c.417-.106,1.02-.238,1.769-.391a56.21,56.21,0,0,1,5.915-.868c2.318-.205,4.431-.378,5.961-.457l1.808-.073A4.221,4.221,0,0,1,366.925,103.383Z" transform="translate(-178.085 -95.637)" fill="#263238"/>
      <path id="Path_66818" data-name="Path 66818" d="M300.34,322.936c0,.1-5.637,1.013-12.585,2.047s-12.651,1.795-12.665,1.7,5.63-1.007,12.585-2.047S300.326,322.843,300.34,322.936Z" transform="translate(-152.746 -169.765)" fill="#263238"/>
      <path id="Path_66819" data-name="Path 66819" d="M303.406,318.719c0,.093-5.186.205-11.585.245s-11.592,0-11.592-.106,5.186-.205,11.585-.245S303.406,318.619,303.406,318.719Z" transform="translate(-154.482 -168.303)" fill="#263238"/>
      <path id="Path_66820" data-name="Path 66820" d="M236.66,351.481l.662-.086a13.117,13.117,0,0,0,1.841-.378,20.592,20.592,0,0,0,6.432-3.206,23.05,23.05,0,0,0,1.947-1.543,6,6,0,0,0,1.47-2.245,30.315,30.315,0,0,0,1.59-5.961,146.562,146.562,0,0,0,1.669-15.076c.775-11.221,1.093-24.614,1.557-39.478.245-7.438.49-15.235,1.113-23.322.159-1.987.351-4.047.616-6.094a40.336,40.336,0,0,1,1.166-6.134c.331-1,.715-1.987,1.093-2.974l.709-1.424.358-.715c.133-.225.285-.45.431-.662a16.221,16.221,0,0,1,4.325-4.743,24.919,24.919,0,0,1,5.67-3.007,38.258,38.258,0,0,0,5.723-2.583l.662-.411c.205-.152.4-.325.6-.484l.6-.484.517-.57c.166-.185.344-.371.51-.563l.457-.623c.318-.4.6-.835.874-1.265a15.026,15.026,0,0,0,1.384-2.7,15.811,15.811,0,0,0,.742-2.914,37.715,37.715,0,0,0,.338-5.961c0-1.987-.073-3.974-.139-5.9q-.232-5.836-.444-11.413c-.053-1.861-.166-3.689-.146-5.511v-2.7c0-.894.093-1.782.133-2.65.046-1.769.358-3.491.563-5.193a40.31,40.31,0,0,1,1.192-4.915,31.2,31.2,0,0,1,4.193-8.611,81.4,81.4,0,0,1,5.551-6.875,63.015,63.015,0,0,0,4.895-6.332l.994-1.583c.331-.517.583-1.066.868-1.59a27.368,27.368,0,0,0,1.278-3.206,47.693,47.693,0,0,0,1.987-11.26c.212-3.14.205-5.584.192-7.233,0-.821,0-1.451-.033-1.888a3.348,3.348,0,0,1,0-.662s.073.868.113,2.524.06,4.107-.133,7.246a47.28,47.28,0,0,1-1.947,11.26,27.5,27.5,0,0,1-1.272,3.239c-.285.523-.537,1.086-.874,1.6s-.662,1.053-.987,1.6A63.589,63.589,0,0,1,292.8,162.2a81.638,81.638,0,0,0-5.571,6.882,31.131,31.131,0,0,0-4.14,8.538,40.7,40.7,0,0,0-1.159,4.882c-.205,1.689-.5,3.4-.55,5.16-.04.874-.119,1.755-.132,2.65s0,1.788,0,2.7c0,1.8.1,3.643.152,5.5q.219,5.577.457,11.419c.066,1.941.139,3.908.139,5.9a37.008,37.008,0,0,1-.338,6.028,15.739,15.739,0,0,1-.755,2.981,15.109,15.109,0,0,1-1.417,2.762c-.278.437-.563.874-.881,1.285l-.464.623c-.172.205-.358.391-.53.59l-.537.59-.609.5c-.205.159-.4.338-.623.49l-.662.424a38.273,38.273,0,0,1-5.769,2.61,24.506,24.506,0,0,0-5.6,2.967,15.9,15.9,0,0,0-4.239,4.637c-.139.219-.291.437-.424.662l-.351.7-.662,1.4c-.371.98-.755,1.954-1.08,2.934a40.581,40.581,0,0,0-1.159,6.074c-.265,2.04-.457,4.067-.623,6.087-.623,8.061-.874,15.864-1.126,23.3-.484,14.864-.821,28.264-1.629,39.491a144.265,144.265,0,0,1-1.722,15.129,30.086,30.086,0,0,1-1.636,6.014,5.961,5.961,0,0,1-1.517,2.3,22.813,22.813,0,0,1-1.987,1.537,20.261,20.261,0,0,1-6.491,3.166,11.673,11.673,0,0,1-1.855.345Z" transform="translate(-139.771 -104.074)" fill="#263238"/>
      <path id="Path_66821" data-name="Path 66821" d="M320.666,119.352l-.06-.835c0-.563-.086-1.378-.152-2.457a12.508,12.508,0,0,1,.066-1.815c.073-.662.252-1.378.4-2.153a10.42,10.42,0,0,1,2.471-4.835,15.9,15.9,0,0,1,5.816-3.583,29.872,29.872,0,0,1,7.982-1.682c1.464-.126,2.981-.192,4.55-.219a16.844,16.844,0,0,1,4.829.5,14.262,14.262,0,0,1,2.4.868,10.518,10.518,0,0,1,2.179,1.457,12.647,12.647,0,0,1,1.881,1.928,7.227,7.227,0,0,1,.748,1.159,3.159,3.159,0,0,1,.411,1.364v.113h-.119c-2.974.258-6.16.914-9.5,1.325l.119-.146c.391,3.232.788,6.624,1,10.088.046.868.079,1.755.066,2.649s-.066,1.775-.066,2.649c0,1.8,0,3.63-.139,5.484a50.026,50.026,0,0,1-1.908,11.26,42.392,42.392,0,0,1-5.021,10.883c-2.2,3.477-5.233,6.412-7.286,10.121a30.117,30.117,0,0,0-4.113,12.088,54.679,54.679,0,0,0-.079,6.624q.04,3.312.079,6.716c.033,4.5,0,9.068-.152,13.678-.185,5.3-.464,10.6-1.139,15.725a28.481,28.481,0,0,1-1.828,7.511,29.248,29.248,0,0,1-3.888,6.544c-3.107,3.974-6.968,7.134-10.505,10.386l-1.252,1.278c-.4.437-.815.868-1.206,1.325l-.537.7a3.971,3.971,0,0,0-.49.722l-.431.762a8.354,8.354,0,0,0-.291.808,55.579,55.579,0,0,0-1.027,6.889c-.881,9.167-1.292,17.924-1.689,26.111s-.662,15.818-.9,22.786-.417,13.247-.563,18.8l-.172,7.71a21.141,21.141,0,0,1-.186,3.411,9.043,9.043,0,0,1-1.047,2.908,10.736,10.736,0,0,1-3.577,3.716,11.855,11.855,0,0,1-3.5,1.477,12.107,12.107,0,0,1-2.312.344h-.6a4.494,4.494,0,0,0,.6-.033,12.254,12.254,0,0,0,5.749-1.868,10.651,10.651,0,0,0,3.517-3.7,9,9,0,0,0,1.02-2.868,20.745,20.745,0,0,0,.166-3.385c.046-2.371.093-4.948.146-7.717.126-5.537.291-11.843.51-18.811s.49-14.572.854-22.786.788-16.943,1.663-26.131a55.249,55.249,0,0,1,.987-6.962c.1-.285.179-.589.3-.861l.45-.788a4.35,4.35,0,0,1,.5-.749l.55-.715c.4-.457.808-.894,1.219-1.325l1.325-1.258c3.55-3.272,7.392-6.4,10.465-10.353a28.984,28.984,0,0,0,3.842-6.465,28.65,28.65,0,0,0,1.8-7.425c.662-5.133.947-10.386,1.133-15.7.152-4.6.185-9.161.152-13.665q-.04-3.378-.079-6.71a55.424,55.424,0,0,1,.086-6.624,30.343,30.343,0,0,1,4.166-12.221c2.073-3.749,5.127-6.7,7.286-10.134a41.821,41.821,0,0,0,5-10.8,50.03,50.03,0,0,0,1.908-11.194c.106-1.848.133-3.676.146-5.478,0-.894.04-1.808.066-2.65s0-1.762-.06-2.649c-.205-3.477-.6-6.842-.98-10.075v-.132h.132c3.312-.411,6.511-1.06,9.518-1.325l-.119.126a4.636,4.636,0,0,0-1.1-2.378,12.787,12.787,0,0,0-1.841-1.894,10.684,10.684,0,0,0-2.126-1.431,14.812,14.812,0,0,0-2.358-.861,16.811,16.811,0,0,0-4.769-.5c-1.563,0-3.073.079-4.531.205a29.482,29.482,0,0,0-7.949,1.643,15.771,15.771,0,0,0-5.776,3.517,10.38,10.38,0,0,0-2.471,4.769c-.152.768-.344,1.477-.411,2.139a10.844,10.844,0,0,0-.086,1.8c.053,1.073.093,1.894.119,2.451A6.037,6.037,0,0,1,320.666,119.352Z" transform="translate(-157.692 -95.093)" fill="#263238"/>
      <path id="Path_66822" data-name="Path 66822" d="M370.417,111.553a1.45,1.45,0,0,1-.371.079l-1.086.159-3.974.523-13.148,1.6-1.053.126h-.106l-.053-.086a16.951,16.951,0,0,0-2.212-2.782,5.783,5.783,0,0,0-2.775-1.59,5.663,5.663,0,0,0-2.881.172,5.358,5.358,0,0,0-2.146,1.325,9.545,9.545,0,0,0-1.987,3.14c-.152.411-.265.735-.331.96a3.127,3.127,0,0,1-.113.331,1.084,1.084,0,0,1,.046-.351,9.228,9.228,0,0,1,.278-.987,9.115,9.115,0,0,1,1.908-3.259,5.65,5.65,0,0,1,2.226-1.431,5.9,5.9,0,0,1,3.04-.212,5.961,5.961,0,0,1,2.941,1.656,16.771,16.771,0,0,1,2.265,2.828l-.166-.073,1.053-.126,13.161-1.5,3.974-.417,1.086-.1a1.688,1.688,0,0,1,.424.013Z" transform="translate(-174.047 -97.594)" fill="#263238"/>
      <path id="Path_66823" data-name="Path 66823" d="M370.71,149.054a.841.841,0,0,1-.543.755l-3.974,1.5c-.609.232-1.424.4-1.8-.126a1.02,1.02,0,0,1,.159-1.225,2.961,2.961,0,0,1,1.126-.662c1.53-.662,3.206-1.285,4.756-1.928a.225.225,0,0,1,.311.225Z" transform="translate(-182.851 -110.487)" fill="#b78876"/>
      <path id="Path_66824" data-name="Path 66824" d="M370.832,151.664a1.689,1.689,0,0,1-1.04,1.941l-3.689,1.417c-.609.232-1.424.4-1.8-.119a1.02,1.02,0,0,1,.159-1.225,2.894,2.894,0,0,1,1.126-.662c1.464-.609,3.06-1.225,4.544-1.835a.484.484,0,0,1,.662.344Z" transform="translate(-182.82 -111.766)" fill="#b78876"/>
      <path id="Path_66825" data-name="Path 66825" d="M369.908,154.9a2.444,2.444,0,0,1-1.51,2.855l-3.073,1.172c-.609.232-1.424.4-1.8-.126a1.033,1.033,0,0,1,.159-1.225,3.034,3.034,0,0,1,1.133-.662c1.636-.662,3.444-1.378,5.074-2.06Z" transform="translate(-182.559 -113.018)" fill="#b78876"/>
      <path id="Path_66826" data-name="Path 66826" d="M337.565,202.348c0,.093-4.842,1.888-10.883,4.014s-10.969,3.782-11,3.689,4.842-1.888,10.883-4.014S337.532,202.255,337.565,202.348Z" transform="translate(-166.45 -129.053)" fill="#263238"/>
      <path id="Path_66827" data-name="Path 66827" d="M338.3,206.35a12.287,12.287,0,0,1-1.762,1.259c-1.113.735-2.65,1.716-4.431,2.755s-3.365,1.941-4.544,2.563a11.765,11.765,0,0,1-1.947.941,14.993,14.993,0,0,1,1.828-1.152l4.491-2.65,4.478-2.65a14.441,14.441,0,0,1,1.888-1.066Z" transform="translate(-169.806 -130.405)" fill="#263238"/>
    </g>
    <g id="freepik--speech-bubble--inject-233" transform="translate(137.915 48.753)">
      <path id="Path_66828" data-name="Path 66828" d="M190.552,83.6a1.074,1.074,0,0,1,0,.219v.6c0,.55,0,1.325.033,2.226,0,1.928.046,4.637.079,7.823l-.152-.146h10.863c.04,0-.325.325-.166.172h0V83.6l.152.152-7.829-.079-2.226-.04h-.815a6.354,6.354,0,0,1,.755,0l2.186-.04,7.949-.073h.146V94.436h0c.152-.152-.212.212-.179.172H190.34v-.172c.033-3.246.06-5.961.073-7.949,0-.914,0-1.643.04-2.192A2.266,2.266,0,0,1,190.552,83.6Z" transform="translate(-181.376 -73.233)" fill="#263238"/>
      <path id="Path_66829" data-name="Path 66829" d="M204.469,80c.219.179-2.086,3.352-5.147,7.074-.662.782-1.258,1.523-1.835,2.2l-.338.384-.364-.325c-2.544-2.292-4.266-4.034-4.12-4.206s2.126,1.278,4.762,3.464l-.7.06c.543-.7,1.153-1.451,1.795-2.232C201.588,82.678,204.244,79.8,204.469,80Z" transform="translate(-182.158 -72.04)" fill="#efa00b"/>
      <path id="Path_66830" data-name="Path 66830" d="M192.547,68h-1.623l-.7.1-.821.119-.914.225a14.758,14.758,0,0,0-4.431,1.934,15.652,15.652,0,0,0-7.187,11.757,16.48,16.48,0,0,0-.046,2.146,5.515,5.515,0,0,0,.073,1.093c.073.364.113.735.166,1.106a15.7,15.7,0,0,0,1.49,4.365,16.832,16.832,0,0,0,2.848,3.921,16.56,16.56,0,0,0,4.107,2.948,14.844,14.844,0,0,0,5.008,1.537,9.938,9.938,0,0,0,1.325.113,11.5,11.5,0,0,0,1.325,0,16.307,16.307,0,0,0,2.7-.344,15.818,15.818,0,0,0,5.378-2.259h-.159l5.478,2.2.325.132-.093-.338c-.55-1.987-1.093-3.974-1.61-5.862v.146a15.692,15.692,0,0,0,2.881-6.637,13.977,13.977,0,0,0,.212-3.424,10.39,10.39,0,0,0-.152-1.649c-.04-.272-.086-.537-.126-.8a7.359,7.359,0,0,0-.192-.775,15.665,15.665,0,0,0-6.114-8.916,15.061,15.061,0,0,0-3.636-1.921l-.821-.291-.782-.2-.709-.179-.662-.1c-.417-.053-.782-.119-1.1-.139H192.52a.714.714,0,0,0,.166,0l.49.04.8.053a9.322,9.322,0,0,1,1.086.166A15.572,15.572,0,0,1,207.53,79.82c.06.252.139.5.185.762s.073.523.113.788a10.043,10.043,0,0,1,.146,1.616,13.809,13.809,0,0,1-.219,3.365,15.519,15.519,0,0,1-2.888,6.551l-.046.066v.079l1.6,5.862.232-.205-5.431-2.226-.086-.04-.079.053a15.367,15.367,0,0,1-7.9,2.544,12.476,12.476,0,0,1-1.325,0,9.454,9.454,0,0,1-1.325-.113,14.473,14.473,0,0,1-4.895-1.5,16.023,16.023,0,0,1-4.021-2.875,16.559,16.559,0,0,1-2.8-3.835,15.459,15.459,0,0,1-1.47-4.266c-.06-.364-.113-.729-.172-1.086s-.046-.715-.073-1.073a17.118,17.118,0,0,1,.033-2.106,15.48,15.48,0,0,1,7-11.618,15.016,15.016,0,0,1,4.365-1.987l.9-.238.808-.132.7-.119.583-.04.795-.06a1.239,1.239,0,0,0,.291.007Z" transform="translate(-176.806 -67.99)" fill="#455a64"/>
    </g>
  </g>
</svg>
