<svg xmlns="http://www.w3.org/2000/svg" width="16" height="16" viewBox="0 0 16 16"><defs><style>.a{fill:#f44336;}.b{fill:#ffc107;}.c{fill:#4caf50;}.d{fill:#2196f3;}.e{fill:#fafafa;}</style></defs><g transform="translate(-0.001 0)"><path class="a" d="M67.279,5.062h-7.4a3.016,3.016,0,0,0-3,3.034,3.071,3.071,0,0,0,.382,1.488l-3.7-6.439A7.9,7.9,0,0,1,64.76,1.689,8.083,8.083,0,0,1,67.279,5.062Z" transform="translate(-51.873 0)"/><path class="b" d="M233.132,163.058a8.106,8.106,0,0,1-8.1,8.1,7.224,7.224,0,0,1-1.012-.067l3.644-6.513a3.044,3.044,0,0,0-1.114-4.151,3.009,3.009,0,0,0-1.512-.4h7.5A7.985,7.985,0,0,1,233.132,163.058Z" transform="translate(-217.132 -155.157)"/><path class="c" d="M10.732,105.906l-3.644,6.513H7.081A8.094,8.094,0,0,1,1.7,99.434l3.752,6.439.02.034a3.037,3.037,0,0,0,5.264,0Z" transform="translate(0 -96.487)"/><path class="a" d="M165.582,164.576a3.037,3.037,0,0,1-5.264,0l-.02-.034a3.037,3.037,0,0,1,2.652-4.522h.007a3.009,3.009,0,0,1,1.512.4A3.044,3.044,0,0,1,165.582,164.576Z" transform="translate(-154.949 -155.057)"/><path class="d" d="M165.582,164.576a3.037,3.037,0,0,1-5.264,0l-.02-.034a3.037,3.037,0,0,1,2.652-4.522h.007a3.009,3.009,0,0,1,1.512.4A3.044,3.044,0,0,1,165.582,164.576Z" transform="translate(-154.949 -155.057)"/><path class="e" d="M152.641,156.1a3.35,3.35,0,0,1-1.676-.449,3.377,3.377,0,1,1,4.612-1.238h0A3.393,3.393,0,0,1,152.641,156.1Zm.018-6.074a2.7,2.7,0,1,0,2.333,4.049h0a2.7,2.7,0,0,0-2.332-4.049h0Z" transform="translate(-144.652 -144.729)"/></g></svg>