<svg xmlns="http://www.w3.org/2000/svg" width="12.961" height="17.202" viewBox="0 0 12.961 17.202"><defs><style>.a{fill:#ef0b30;}</style></defs><g transform="translate(0)"><path class="a" d="M74.905,15.553V13.836c0-2.022-1.562-3.231-3.063-4.41a1.187,1.187,0,0,1-.471-.943,1.594,1.594,0,0,1,.471-1.127c1.461-1.229,3.063-2.389,3.063-4.41V1.65h1.178V0H63.123V1.65H64.3v1.3c0,2.022,1.6,3.181,3.063,4.41a1.594,1.594,0,0,1,.471,1.127,1.187,1.187,0,0,1-.471.943c-1.5,1.18-3.063,2.389-3.063,4.41v1.716H63.123V17.2H76.084v-1.65ZM66.628,4.477a2.261,2.261,0,0,1-.677-1.532V1.65h7.305v1.3a2.261,2.261,0,0,1-.677,1.532H66.628Zm6.628,10.616L70.482,14.01a2.8,2.8,0,0,0-1.756,0l-2.775,1.083V13.836c0-1.144.909-1.916,2.393-3.082l.039-.031a2.848,2.848,0,0,0,1.052-1.734.77.77,0,0,0,.336,0,2.846,2.846,0,0,0,1.052,1.734l.04.032c1.484,1.165,2.393,1.938,2.393,3.082v1.257Z" transform="translate(-63.123)"/></g></svg>