<svg xmlns="http://www.w3.org/2000/svg" width="14.776" height="12.005" viewBox="0 0 14.776 12.005"><defs><style>.a{fill:#372c51;}</style></defs><g transform="translate(0 -1)"><rect class="a" width="2.77" height="8.311" transform="translate(0.462 3.77)"/><path class="a" d="M3.442-.149,5.434.069l-1.191,2.5.243,1.289,3.549.413,1.175.754L7.744,10.378H.086L-.3,4.275Z" transform="translate(5.102 1.935)"/><path class="a" d="M8.687,4.647h-2.8a.468.468,0,0,1-.409-.228.444.444,0,0,1-.006-.458l.988-1.732a1.341,1.341,0,0,0,.062-1.223A1.4,1.4,0,0,0,5.557.213l-.7-.17a.482.482,0,0,0-.468.139L.608,4.273A2.273,2.273,0,0,0,0,5.818V9.726a2.344,2.344,0,0,0,2.373,2.309H7.094a2.369,2.369,0,0,0,2.288-1.7l1.013-3.6a1.674,1.674,0,0,0,.045-.384A1.732,1.732,0,0,0,8.687,4.647ZM9.475,6.51,8.466,10.092a1.421,1.421,0,0,1-1.373,1.019H2.373A1.406,1.406,0,0,1,.949,9.726V5.818a1.363,1.363,0,0,1,.365-.927L4.907,1.007l.42.1a.469.469,0,0,1,.321.265.446.446,0,0,1-.02.408L4.639,3.513a1.34,1.34,0,0,0,.018,1.375,1.419,1.419,0,0,0,1.227.683h2.8a.794.794,0,0,1,.8.782.744.744,0,0,1-.016.157Z" transform="translate(4.336 0.97)"/><path class="a" d="M3.045,0H.435A.453.453,0,0,0,0,.469V8.913a.453.453,0,0,0,.435.469h2.61a.453.453,0,0,0,.435-.469V.469A.453.453,0,0,0,3.045,0ZM2.61,8.444H.87V.938H2.61Z" transform="translate(0 3.622)"/></g></svg>