<svg xmlns="http://www.w3.org/2000/svg" width="13.665" height="16" viewBox="0 0 13.665 16"><defs><style>.a{fill:#fff;}.b{fill:#e69629;}</style></defs><g transform="translate(-37.364)"><g transform="translate(40.756 2.312)"><path class="a" d="M256.383,75.126q0-.037,0-.074a.6.6,0,0,1,.528-.656.6.6,0,0,1,.531.656.793.793,0,0,1-.036.238.94.94,0,0,0,.138-.5.645.645,0,1,0-1.254,0,1,1,0,0,0,.05.316Z" transform="translate(-252.838 -73.995)"/><path class="a" d="M199.941,79.014a.349.349,0,0,1,.053,0,.582.582,0,0,1,.494.541.916.916,0,0,1,.01.1l.046-.021a1.108,1.108,0,0,0,.011-.156c0-.406-.215-.749-.469-.749-.217,0-.4.239-.451.561A.413.413,0,0,1,199.941,79.014Z" transform="translate(-197.958 -78.579)"/><path class="a" d="M152.28,165.552a4.561,4.561,0,0,0,.064-1.641,22.111,22.111,0,0,0-1.73-4.3,3.982,3.982,0,0,0-.792.4,5.251,5.251,0,0,1-.932.469.572.572,0,0,1-.156.021,1.649,1.649,0,0,1-.973-.529,2.647,2.647,0,0,1-.544,1.321,3.772,3.772,0,0,0-.454,1.038,5.409,5.409,0,0,1-.435,1.05,2.738,2.738,0,0,0-.286,2.13,3.227,3.227,0,0,0,.931.908c.466.359.868.669.912.982a.606.606,0,0,1-.341.672l.5.571a3.8,3.8,0,0,0,.553.034,7.873,7.873,0,0,0,1.122-.089,3.128,3.128,0,0,0,1.821-1.139,13.326,13.326,0,0,1,.075-1.574c.026-.123.126-.33.5-.33A1.186,1.186,0,0,1,152.28,165.552Z" transform="translate(-145.932 -156.932)"/></g><g transform="translate(38.136 3.91)"><path class="b" d="M210.488,125.8a1.26,1.26,0,0,0,.46.445l.107.071c.149.1.215.142.322.128a5.7,5.7,0,0,0,.984-.522l.062-.037c.092-.056.166-.094.225-.125.117-.061.128-.071.133-.093a.65.65,0,0,0-.333-.2c-.067-.024-.161-.062-.271-.105a5.609,5.609,0,0,0-.694-.248h-.017a1.2,1.2,0,0,0-.563.35C210.792,125.565,210.575,125.734,210.488,125.8Z" transform="translate(-205.85 -125.115)"/><path class="b" d="M64.73,365.606c-.1-.163-.182-.3-.227-.374-.179-.279-.49-.591-.639-.591a.045.045,0,0,0-.024.006.784.784,0,0,0-.21.315,1.12,1.12,0,0,1-.376.5,1.952,1.952,0,0,1-.552.174c-.145.031-.484.105-.5.174a.712.712,0,0,0,.024.31,1.435,1.435,0,0,1,.036.54,2.843,2.843,0,0,1-.1.395c-.056.176-.12.376-.065.437a3.256,3.256,0,0,0,.773.174,5.121,5.121,0,0,1,1,.222l.063.026a5.9,5.9,0,0,0,1.613.51.429.429,0,0,0,.092-.009,1.008,1.008,0,0,0,.415-.513c.075-.332-.229-.719-.417-.92A11.969,11.969,0,0,1,64.73,365.606Z" transform="translate(-62.071 -357.156)"/><path class="b" d="M346.076,375.209l-.049-.026a1.129,1.129,0,0,1-.486-1.017.4.4,0,0,0-.017-.158,1.824,1.824,0,0,1-.254.334,1.614,1.614,0,0,1-1,.37.984.984,0,0,1-.4-.077.951.951,0,0,1-.445-.9l-.016.006a2.81,2.81,0,0,0,.015.56c.008.1.017.208.022.306a7.766,7.766,0,0,1-.233,1.689c-.112.523.1.889.351.969a.253.253,0,0,0,.077.011,1.726,1.726,0,0,0,.964-.6,5.482,5.482,0,0,1,1.263-.777,4.558,4.558,0,0,0,.627-.352.071.071,0,0,0,.02-.026C346.51,375.438,346.194,375.272,346.076,375.209Z" transform="translate(-334.398 -365.964)"/></g><path d="M50.6,12.847c-.469-.192-.67-.447-.651-.828a1.269,1.269,0,0,0-.352-.9,3.893,3.893,0,0,0,0-2.061,17.8,17.8,0,0,0-2.193-3.578,3.072,3.072,0,0,1-.433-1.832,5.57,5.57,0,0,0-.41-2.231A2.307,2.307,0,0,0,44.372,0,3,3,0,0,0,42.7.508c-.958.661-.832,2.1-.748,3.058.012.131.022.254.029.359A4.73,4.73,0,0,1,41.922,5.5a6.476,6.476,0,0,1-.478.671c-.231.3-.494.65-.709.973A7.617,7.617,0,0,0,40.071,8.7a7.456,7.456,0,0,1-.42,1.052,1.432,1.432,0,0,0-.139,1.076,1.105,1.105,0,0,0-.354.449c-.143.3-.432.468-1.033.583a.8.8,0,0,0-.567.345.98.98,0,0,0,.006.783,1.218,1.218,0,0,1-.081.883c-.028.084-.059.179-.091.284a.513.513,0,0,0,.054.448c.227.347.89.47,1.573.55a6.064,6.064,0,0,1,1.285.369,6.032,6.032,0,0,0,1.257.363,1.431,1.431,0,0,0,.178.011,1.046,1.046,0,0,0,.957-.561,10.637,10.637,0,0,1,1.724-.2,7.5,7.5,0,0,1,1.714.176,1.379,1.379,0,0,0,.516.563A1.253,1.253,0,0,0,47.23,16h0a1.4,1.4,0,0,0,1.021-.422A9.152,9.152,0,0,1,50.1,14.4c.142-.077.274-.148.39-.213a.873.873,0,0,0,.534-.775A.655.655,0,0,0,50.6,12.847ZM44.832,2.312a.729.729,0,0,1,.627.8.94.94,0,0,1-.138.5.8.8,0,0,0,.036-.238.6.6,0,0,0-.531-.656.6.6,0,0,0-.528.656c0,.025,0,.049,0,.074l-.045-.017a1,1,0,0,1-.05-.316A.729.729,0,0,1,44.832,2.312Zm-1.063,1.6a5.6,5.6,0,0,1,.694.248c.11.044.2.082.271.105a.65.65,0,0,1,.333.2c0,.022-.016.032-.133.093-.059.031-.133.069-.225.125l-.062.037a5.7,5.7,0,0,1-.984.522c-.107.014-.173-.027-.322-.128l-.107-.071a1.261,1.261,0,0,1-.46-.445c.087-.068.3-.236.415-.337a1.2,1.2,0,0,1,.563-.35ZM42.886,2.46c.254,0,.469.343.469.749a1.1,1.1,0,0,1-.011.156l-.046.022a.93.93,0,0,0-.01-.1.582.582,0,0,0-.494-.541.35.35,0,0,0-.053,0,.413.413,0,0,0-.305.273C42.487,2.7,42.669,2.46,42.886,2.46Zm-.775,12.2a1.008,1.008,0,0,1-.415.513.428.428,0,0,1-.092.009,5.9,5.9,0,0,1-1.613-.51l-.063-.026a5.119,5.119,0,0,0-1-.222,3.256,3.256,0,0,1-.773-.174c-.055-.061.009-.261.065-.437a2.835,2.835,0,0,0,.1-.395,1.436,1.436,0,0,0-.036-.54.712.712,0,0,1-.024-.31c.016-.069.355-.142.5-.174a1.951,1.951,0,0,0,.552-.174,1.12,1.12,0,0,0,.376-.5.784.784,0,0,1,.21-.315.044.044,0,0,1,.024-.006c.148,0,.459.312.639.591.045.07.13.211.227.374a11.97,11.97,0,0,0,.9,1.38C41.881,13.941,42.186,14.328,42.111,14.66Zm4.329-3.409a13.35,13.35,0,0,0-.075,1.574,3.128,3.128,0,0,1-1.821,1.139,7.883,7.883,0,0,1-1.122.089,3.805,3.805,0,0,1-.554-.034l-.5-.571a.606.606,0,0,0,.341-.672c-.044-.313-.447-.623-.912-.982a3.226,3.226,0,0,1-.931-.908,2.738,2.738,0,0,1,.286-2.13,5.409,5.409,0,0,0,.435-1.05,3.772,3.772,0,0,1,.454-1.038,2.648,2.648,0,0,0,.544-1.321,1.649,1.649,0,0,0,.973.529.573.573,0,0,0,.156-.021,5.257,5.257,0,0,0,.932-.469,3.981,3.981,0,0,1,.792-.4,22.112,22.112,0,0,1,1.73,4.3,4.561,4.561,0,0,1-.064,1.641,1.2,1.2,0,0,0-.162-.012C46.565,10.921,46.465,11.128,46.439,11.251Zm3.794,2.237a4.557,4.557,0,0,1-.627.352,5.479,5.479,0,0,0-1.263.777,1.726,1.726,0,0,1-.964.6.253.253,0,0,1-.077-.011c-.254-.079-.463-.446-.351-.969a7.77,7.77,0,0,0,.233-1.689c-.005-.1-.014-.2-.022-.306a2.808,2.808,0,0,1-.015-.56l.016-.006a.951.951,0,0,0,.445.9.984.984,0,0,0,.4.076,1.614,1.614,0,0,0,1-.37,1.822,1.822,0,0,0,.254-.334.4.4,0,0,1,.017.158,1.129,1.129,0,0,0,.486,1.017l.049.026c.119.062.435.228.44.307A.074.074,0,0,1,50.233,13.488Z"/></g></svg>