<svg xmlns="http://www.w3.org/2000/svg" width="16.024" height="16" viewBox="0 0 16.024 16"><defs><style>.a{fill:#2179a6;}.b{fill:#195d80;}.c{fill:#e78244;}.d{fill:#144f66;}</style></defs><g transform="translate(0 -0.381)"><path class="a" d="M17.375,16.148a7.785,7.785,0,0,0,7.682-7.884A7.785,7.785,0,0,0,17.375.381,7.785,7.785,0,0,0,9.692,8.264,7.785,7.785,0,0,0,17.375,16.148Z" transform="translate(-9.389)"/><path class="b" d="M27.225,52.093c-.04.031-.081.061-.125.089a4.4,4.4,0,0,0,.181-.694c.007-.142.012-.284.012-.427a7.992,7.992,0,0,0-1.333-4.439,6.381,6.381,0,0,0-3.171-2.061,6.09,6.09,0,0,1,2.379,2.6,2.955,2.955,0,0,0-1.528-.883,5.332,5.332,0,0,1,1.709,4.42,4.746,4.746,0,0,0-.726-1.178,7.518,7.518,0,0,1-.119,3.414,2.04,2.04,0,0,0-.189-.622,5.235,5.235,0,0,1-.483,1.748c-.346.778-.7,1.018-.861.991a.1.1,0,0,1-.066-.024.66.66,0,0,0,0-.273.547.547,0,0,0-.24.187.72.72,0,0,1-.152.158c-.011.009.1-.151.1-.144a2.047,2.047,0,0,0-.179.168c-.224.238-.426.5-.531.428a.36.36,0,0,0,.2-.284,1.686,1.686,0,0,1-.812.311,3.487,3.487,0,0,1-2.236-.4.96.96,0,0,1,.615.036c-.193-.216-.659-.171-.993-.279a3.233,3.233,0,0,1-.889-.725,3.086,3.086,0,0,0,2.387-.322c.553-.388.881-.672,1.176-.6s.489-.235.261-.5a1.512,1.512,0,0,0-1.534-.437c-.576.148-1.067.622-1.877.293q-.073-.03-.151-.069c-.052-.026.169.031.115,0a3.591,3.591,0,0,1-.509-.242c-.011-.009.117.024.1.015-.768-.466-.718-.839-.718-1.07a.672.672,0,0,1,.315-.551,1.5,1.5,0,0,1,.179.078s-.051-.081-.084-.12l.023-.007a2.433,2.433,0,0,1,.584.307A1.74,1.74,0,0,0,18.08,49.9s0,0,0,0c.043-.2,1.2-.82,1.285-.885a1.1,1.1,0,0,0,.318-.392.861.861,0,0,0,.084-.461c-.008-.152-.1-.246-1.328-.235a.82.82,0,0,1-.688-.39c-.027-.042-.051-.081-.072-.117a1.167,1.167,0,0,1-.064-.139A2.944,2.944,0,0,1,18.7,45.717a2.262,2.262,0,0,0-2.106.891l0,0a3.236,3.236,0,0,0-1.842.029,1.691,1.691,0,0,1-.757-.951,7.893,7.893,0,0,0-.928,1.25,4.686,4.686,0,0,0-.024.9c0,.045.007.088.005.128a3.792,3.792,0,0,0-.369.625A8.553,8.553,0,0,0,12,50.921a5.532,5.532,0,0,1,.394-.907,8.032,8.032,0,0,0-.262,2.847l.013.058c.015-.13.058-.436.141-.824a7.427,7.427,0,0,0,.983,3.354c.067.117.147.253.243.4a7.6,7.6,0,0,0,6.1,3.093A7.753,7.753,0,0,0,27.225,52.093Z" transform="translate(-11.624 -42.797)"/><path class="c" d="M13.809,45.23c.441-.852,1.04-1.35,1.364-1.939a6.719,6.719,0,0,0,.63-4.763c.281,1.112.193,2.243-.7,2.81a8.8,8.8,0,0,0,.173-4.052,3.93,3.93,0,0,0-1.209-2.19,2.914,2.914,0,0,1,.657,1.765,6.6,6.6,0,0,0-3.933-3.144,6.09,6.09,0,0,1,2.379,2.6,2.954,2.954,0,0,0-1.528-.883,5.332,5.332,0,0,1,1.709,4.42,4.745,4.745,0,0,0-.726-1.178,7.518,7.518,0,0,1-.119,3.414,2.04,2.04,0,0,0-.189-.622,5.234,5.234,0,0,1-.483,1.748c-.346.778-.7,1.018-.861.991a.1.1,0,0,1-.066-.024.66.66,0,0,0,0-.273.547.547,0,0,0-.24.187.718.718,0,0,1-.152.158c-.011.009.1-.151.1-.144a2.028,2.028,0,0,0-.179.168c-.224.238-.426.5-.531.428a.36.36,0,0,0,.2-.284,1.687,1.687,0,0,1-.812.311,3.487,3.487,0,0,1-2.236-.4.96.96,0,0,1,.615.036c-.193-.216-.659-.171-.993-.279a3.233,3.233,0,0,1-.889-.725,3.086,3.086,0,0,0,2.387-.322c.553-.388.882-.672,1.176-.6s.489-.235.261-.5A1.512,1.512,0,0,0,8.068,41.5c-.576.148-1.067.622-1.877.293q-.073-.03-.151-.069c-.052-.026.169.031.115,0a3.578,3.578,0,0,1-.509-.242c-.011-.009.117.024.1.015-.768-.466-.718-.839-.718-1.07a.672.672,0,0,1,.315-.551,1.5,1.5,0,0,1,.179.078s-.051-.081-.084-.12l.023-.007a2.433,2.433,0,0,1,.584.307,1.74,1.74,0,0,0,.031-1.079v0c.043-.2,1.2-.82,1.285-.885a1.1,1.1,0,0,0,.318-.392.861.861,0,0,0,.084-.461c-.008-.152-.1-.246-1.328-.235a.82.82,0,0,1-.688-.39c-.027-.042-.051-.081-.072-.117a1.167,1.167,0,0,1-.064-.139A2.944,2.944,0,0,1,6.7,34.873a2.262,2.262,0,0,0-2.106.891l0,0a3.236,3.236,0,0,0-1.842.029,2.04,2.04,0,0,1-.9-1.563,3.47,3.47,0,0,0-.72,1.459,4.82,4.82,0,0,0-.089,1.3c0,.045.007.088.005.128a3.792,3.792,0,0,0-.369.625A8.553,8.553,0,0,0,0,40.077a5.532,5.532,0,0,1,.394-.907,8.172,8.172,0,0,0-.256,2.967,8.58,8.58,0,0,1,.147-.887A7.427,7.427,0,0,0,1.268,44.6a8.182,8.182,0,0,0,5.584,4.013,1.714,1.714,0,0,1-.641-.351,8.245,8.245,0,0,0,2.328.406c-.307-.054-.369-.207-.369-.207s3.492.2,4.7-1.487a2.87,2.87,0,0,1-1.853.639c.6-.567,1.932-.554,3.373-2.008a3.031,3.031,0,0,0,.962-1.973C15.219,44.378,14.529,44.824,13.809,45.23Z" transform="translate(0 -32.292)"/><path class="d" d="M230.589,142.178c.056-.14.119-.468-.064-.537a1.753,1.753,0,0,0-.53-.059c.082.021.317.068.378.181.116.215-.159.73-.2.84C230.3,142.6,230.534,142.315,230.589,142.178Z" transform="translate(-222.794 -136.779)"/></g></svg>