<svg xmlns="http://www.w3.org/2000/svg" width="16" height="16" viewBox="0 0 16 16"><defs><style>.a{fill:#d32f2f;}.b{fill:#f44336;}</style></defs><path class="a" d="M171.744,36.259a3.582,3.582,0,0,1,2.718-1.389c2.329,0,4.217,2.64,4.217,5.9s-1.888,5.9-4.217,5.9a3.586,3.586,0,0,1-2.718-1.389,6.013,6.013,0,0,0,4.759,2.435,5.772,5.772,0,0,0,3.206-.98,8,8,0,0,0,0-11.927,5.772,5.772,0,0,0-3.206-.98,6.009,6.009,0,0,0-4.759,2.435" transform="translate(-166.377 -32.767)"/><path class="b" d="M8,0a8,8,0,0,0-.381,15.991Q7.808,16,8,16a7.968,7.968,0,0,0,5.331-2.036,5.772,5.772,0,0,1-3.206.98,6.013,6.013,0,0,1-4.759-2.435,6.96,6.96,0,0,1-1.5-4.32V7.812a6.974,6.974,0,0,1,1.5-4.32,6.013,6.013,0,0,1,4.759-2.435,5.772,5.772,0,0,1,3.206.98A7.967,7.967,0,0,0,8.03,0Z"/></svg>