<svg xmlns="http://www.w3.org/2000/svg" width="12.177" height="10.757" viewBox="0 0 12.177 10.757"><defs><style>.a{fill:#707070;}</style></defs><g transform="translate(15.999 -1.566)"><path class="a" d="M11.646,20.649c-.549-.3-1.162.275-1.522.613-.824.8-1.522,1.733-2.3,2.578-.866.93-1.67,1.86-2.557,2.769A7.625,7.625,0,0,0,3.868,28.3a27.741,27.741,0,0,0-2.261-2.2C.994,25.636-.02,25.3,0,26.418c.042,1.458,1.331,3.022,2.282,4.015a2.414,2.414,0,0,0,1.543.888c.74.042,1.5-.845,1.944-1.331.782-.845,1.416-1.8,2.135-2.663.93-1.141,1.881-2.261,2.79-3.424C11.265,23.185,13.062,21.409,11.646,20.649Z" transform="translate(-16 -19)"/></g></svg>