<svg xmlns="http://www.w3.org/2000/svg" width="13.327" height="16" viewBox="0 0 13.327 16"><defs><style>.a{fill:#36c12f;}</style></defs><g transform="translate(-8)"><path class="a" d="M19.508,4.761l.958-.958-.942-.943L18.5,3.885A6.622,6.622,0,0,0,15.33,2.7V1.333h1.333V0h-4V1.333H14V2.7a6.622,6.622,0,0,0-3.169,1.186L9.8,2.861,8.862,3.8l.958.958a6.664,6.664,0,1,0,9.689,0Zm-4.845,9.9a5.331,5.331,0,1,1,5.331-5.331,5.331,5.331,0,0,1-5.331,5.331Z" transform="translate(0 0)"/><path class="a" d="M28,32v4H24a4,4,0,1,0,4-4Z" transform="translate(-13.334 -26.671)"/></g></svg>