<svg xmlns="http://www.w3.org/2000/svg" width="18.634" height="11.995" viewBox="0 0 18.634 11.995"><defs><style>.a{fill:#372c51;}</style></defs><g transform="translate(0 -82.176)"><g transform="translate(6.567 85.424)"><g transform="translate(0 0)"><path class="a" d="M159.166,156.416a2.75,2.75,0,1,0,2.75,2.75A2.752,2.752,0,0,0,159.166,156.416Z" transform="translate(-156.416 -156.416)"/></g></g><g transform="translate(0 82.176)"><g transform="translate(0 0)"><path class="a" d="M18.417,87.553c-1.013-1.262-4.633-5.377-9.1-5.377s-8.086,4.116-9.1,5.377a1,1,0,0,0,0,1.241c1.013,1.262,4.633,5.377,9.1,5.377s8.086-4.116,9.1-5.377A1,1,0,0,0,18.417,87.553Zm-9.1,4.963a4.343,4.343,0,1,1,4.343-4.343A4.343,4.343,0,0,1,9.317,92.517Z" transform="translate(0 -82.176)"/></g></g></g></svg>