<svg xmlns="http://www.w3.org/2000/svg" width="16.692" height="16" viewBox="0 0 16.692 16"><defs><style>.a{fill:#f44336;}.b{fill:#4caf50;}.c{fill:#2196f3;}.d{fill:#ffc107;}</style></defs><g transform="translate(0 -10.618)"><path class="a" d="M6.562,49.679.3,50.492a.348.348,0,0,0-.3.348v4.868a.348.348,0,0,0,.348.348H6.607a.348.348,0,0,0,.348-.348V50.024a.348.348,0,0,0-.118-.261A.356.356,0,0,0,6.562,49.679Z" transform="translate(0 -37.786)"/><path class="b" d="M243.591,10.707a.348.348,0,0,0-.274-.087l-8.346,1.088a.348.348,0,0,0-.3.348v5.866a.348.348,0,0,0,.348.348h8.346a.348.348,0,0,0,.348-.348V10.968A.348.348,0,0,0,243.591,10.707Z" transform="translate(-227.018)"/><path class="c" d="M6.607,266.693H.347a.348.348,0,0,0-.348.348v4.868a.348.348,0,0,0,.3.348l6.259.816a.328.328,0,0,0,.045,0,.348.348,0,0,0,.348-.348v-5.685A.348.348,0,0,0,6.607,266.693Z" transform="translate(0 -247.727)"/><path class="d" d="M243.36,266.693h-8.346a.348.348,0,0,0-.348.348v5.866a.348.348,0,0,0,.3.348l8.346,1.088a.328.328,0,0,0,.044,0,.348.348,0,0,0,.348-.348h0v-6.955A.348.348,0,0,0,243.36,266.693Z" transform="translate(-227.017 -247.727)"/></g></svg>