<svg xmlns="http://www.w3.org/2000/svg" width="321.37" height="277.523" viewBox="0 0 321.37 277.523">
  <g id="Investment_data-pana" data-name="Investment data-pana" transform="translate(-76.048 14.968)">
    <g id="freepik--background-complete--inject-8" transform="translate(76.048 -14.968)">
      <g id="Group_161045" data-name="Group 161045" transform="translate(230.821 7.577)">
        <path id="Path_65596" data-name="Path 65596" d="M543.273,108.217a27.751,27.751,0,1,1,30.847-42.9h0a27.746,27.746,0,0,1-30.847,42.9Zm16.494-51.034a25.881,25.881,0,1,0,12.856,9.233A25.881,25.881,0,0,0,559.767,57.183Z" transform="translate(-524.053 -52.565)" fill="#e0e0e0"/>
        <path id="Path_65597" data-name="Path 65597" d="M642.661,185.792h0a3.441,3.441,0,0,1-4.85-.466l-21.917-26.734a.592.592,0,0,1,.079-.835l3.521-2.882a.592.592,0,0,1,.821.065l22.738,25.927a3.446,3.446,0,0,1-.392,4.924Z" transform="translate(-572.994 -106.298)" fill="#e0e0e0"/>
        <path id="Path_65598" data-name="Path 65598" d="M544.293,105.017a27.751,27.751,0,1,1,30.847-42.9h0a27.751,27.751,0,0,1-30.847,42.9ZM560.787,54a25.871,25.871,0,1,0,12.857,9.228A25.871,25.871,0,0,0,560.787,54Z" transform="translate(-524.597 -50.857)" fill="#ebebeb"/>
        <path id="Path_65599" data-name="Path 65599" d="M0,0H5.731V37.226a2.22,2.22,0,0,1-2.22,2.22H2.238a2.22,2.22,0,0,1-2.22-2.22V0Z" transform="matrix(0.774, -0.634, 0.634, 0.774, 43.018, 50.334)" fill="#ebebeb"/>
        <path id="Path_65600" data-name="Path 65600" d="M538.667,83.081a5.807,5.807,0,0,1,.042-.872,7.478,7.478,0,0,1,.121-1.017,13.142,13.142,0,0,1,.257-1.329c.065-.242.126-.5.191-.765s.173-.532.261-.816c.168-.569.424-1.147.676-1.763a21.534,21.534,0,0,1,2.182-3.731,21.072,21.072,0,0,1,2.952-3.166,18.068,18.068,0,0,1,1.478-1.147,7.97,7.97,0,0,1,.7-.466l.681-.406a12.18,12.18,0,0,1,1.2-.63,7.72,7.72,0,0,1,.933-.415,6.114,6.114,0,0,1,.821-.289,5.658,5.658,0,0,1-.783.387,8.427,8.427,0,0,0-.909.466c-.345.191-.755.382-1.17.662l-.662.415c-.229.145-.466.322-.686.466-.466.331-.956.746-1.46,1.166a20.475,20.475,0,0,0-5.06,6.818c-.257.606-.518,1.175-.69,1.73-.093.28-.2.541-.271.8s-.14.513-.205.755c-.149.466-.214.933-.3,1.31a8.978,8.978,0,0,0-.163,1A5.383,5.383,0,0,1,538.667,83.081Z" transform="translate(-531.851 -59.083)" fill="#e0e0e0"/>
      </g>
      <path id="Path_65601" data-name="Path 65601" d="M230.951,195.063H183.507l-20.747-25.3.421-.35,20.588,25.106h47.181Z" transform="translate(-121.619 -56.125)" fill="#e0e0e0"/>
      <path id="Path_65602" data-name="Path 65602" d="M287.356,214.263a1.783,1.783,0,1,1-1.783-1.783A1.783,1.783,0,0,1,287.356,214.263Z" transform="translate(-176.449 -75.637)" fill="#e0e0e0"/>
      <path id="Path_65603" data-name="Path 65603" d="M87.548,111.979a27.059,27.059,0,1,1,27.491,26.741A27.059,27.059,0,0,1,87.548,111.979Zm39.994-.645a12.936,12.936,0,1,0-12.728,13.2,12.936,12.936,0,0,0,12.728-13.2Z" transform="translate(-87.544 -17.706)" fill="#f5f5f5"/>
      <path id="Path_65604" data-name="Path 65604" d="M87.547,111.776A27.162,27.162,0,0,1,114.168,84.16l.23,14.183a13,13,0,1,0,.416,25.992l.224,14.183A27.146,27.146,0,0,1,87.547,111.776Z" transform="translate(-87.543 -17.504)" fill="#e0e0e0"/>
      <path id="Path_65605" data-name="Path 65605" d="M131.78,80.166a30.919,30.919,0,0,1,31.659,30.8l-16.518.263c-.137-8.38-6.514-13.674-14.856-13.527Z" transform="translate(-107.584 -15.693)" fill="#ebebeb"/>
      <g id="Group_163195" data-name="Group 163195" transform="translate(-64.181 -53.348)">
        <path id="Path_65614" data-name="Path 65614" d="M436.668,83.255a11.59,11.59,0,1,1-12.547-10.513,11.59,11.59,0,0,1,12.547,10.513Z" transform="translate(-235.227 -12.311)" fill="#f5f5f5"/>
        <path id="Path_65615" data-name="Path 65615" d="M436.206,85.774a8.834,8.834,0,1,1-9.566-8.013A8.833,8.833,0,0,1,436.206,85.774Z" transform="translate(-237.51 -14.589)" fill="#ebebeb"/>
        <path id="Path_65616" data-name="Path 65616" d="M436.066,85.225a5.16,5.16,0,0,1-.328-1.039,9.387,9.387,0,0,0-1.247-2.609A8.664,8.664,0,0,0,430.2,78.29a8.156,8.156,0,0,0-1.231-.339,8.608,8.608,0,0,0-1.313-.153,8.785,8.785,0,0,0-1.362.055,8.945,8.945,0,0,0-1.34.268,8.611,8.611,0,0,0-1.242.454,8.785,8.785,0,0,0-3.6,3.058,9.2,9.2,0,0,0-.913,1.761,9.331,9.331,0,0,0-.607,2.828,5.018,5.018,0,0,1-.071,1.094,2.632,2.632,0,0,1-.191-1.094,8.275,8.275,0,0,1,.416-2.986,9.039,9.039,0,0,1,.9-1.909,9.173,9.173,0,0,1,1.559-1.86,9,9,0,0,1,1.034-.81,8.822,8.822,0,0,1,2.538-1.187,9.571,9.571,0,0,1,1.438-.29,10.243,10.243,0,0,1,1.471-.055,10.023,10.023,0,0,1,1.417.175,8.6,8.6,0,0,1,1.324.383,9.2,9.2,0,0,1,1.2.547,8.872,8.872,0,0,1,3.282,3.085A8.168,8.168,0,0,1,436,84.126,2.659,2.659,0,0,1,436.066,85.225Z" transform="translate(-237.398 -14.314)" fill="#e0e0e0"/>
        <path id="Path_65617" data-name="Path 65617" d="M432.981,93.893l.159,1.526-1.367.142-.153-1.493a6.492,6.492,0,0,1-3.512-.744l.585-1.745a5.513,5.513,0,0,0,2.735.7L431.2,90c-1.553-.213-3.282-.547-3.5-2.5-.148-1.449.782-2.8,2.915-3.282L430.46,82.7l1.362-.142.153,1.488a6.269,6.269,0,0,1,2.861.547l-.514,1.75a5.743,5.743,0,0,0-2.161-.5l.235,2.325c1.553.2,3.282.547,3.468,2.461C436.017,92.1,435.1,93.412,432.981,93.893Zm-1.975-5.9-.2-1.942c-.706.235-.952.662-.908,1.094S430.383,87.86,431.007,87.991Zm2.68,3.052c-.049-.476-.47-.695-1.094-.842l.186,1.9C433.468,91.869,433.736,91.481,433.687,91.043Z" transform="translate(-241.637 -16.779)" fill="#e0e0e0"/>
      </g>
      <path id="Path_65618" data-name="Path 65618" d="M675.926,264.149a15.107,15.107,0,1,1-7.45-19.992A15.107,15.107,0,0,1,675.926,264.149Z" transform="translate(-644.689 -242.778)" fill="#f5f5f5"/>
      <path id="Path_65619" data-name="Path 65619" d="M675.695,265.631a11.486,11.486,0,1,1,.32-8.8A11.486,11.486,0,0,1,675.695,265.631Z" transform="translate(-647.723 -245.758)" fill="#ebebeb"/>
      <path id="Path_65620" data-name="Path 65620" d="M676.53,264.949a6.847,6.847,0,0,1,.3-1.384,12.25,12.25,0,0,0,.262-3.763,11.807,11.807,0,0,0-.514-2.538,11.487,11.487,0,0,0-1.269-2.669,10.393,10.393,0,0,0-.957-1.28,11.237,11.237,0,0,0-2.571-2.193,12.689,12.689,0,0,0-1.581-.82,12.148,12.148,0,0,0-1.685-.547,10.938,10.938,0,0,0-1.7-.279,11.4,11.4,0,0,0-8.248,2.554,12.147,12.147,0,0,0-2.505,2.817c-.487.755-.716,1.209-.782,1.181a3.549,3.549,0,0,1,.487-1.351,10.568,10.568,0,0,1,2.39-3.118,11.448,11.448,0,0,1,5.207-2.691,11.92,11.92,0,0,1,1.7-.257,11.634,11.634,0,0,1,1.8,0,11.352,11.352,0,0,1,1.838.29,12.645,12.645,0,0,1,1.821.6,12.841,12.841,0,0,1,1.7.886,11.617,11.617,0,0,1,1.493,1.094,11.488,11.488,0,0,1,1.253,1.28,11.369,11.369,0,0,1,1.006,1.395,11.747,11.747,0,0,1,1.28,2.893,12.034,12.034,0,0,1,.438,2.708,10.677,10.677,0,0,1-.547,3.894A3.316,3.316,0,0,1,676.53,264.949Z" transform="translate(-648.411 -245.405)" fill="#e0e0e0"/>
      <path id="Path_65621" data-name="Path 65621" d="M667.383,270.917l-.809,1.832-1.641-.722.788-1.783a8.467,8.467,0,0,1-3.5-3.112l1.783-1.6a7.166,7.166,0,0,0,2.664,2.565l1.2-2.735c-1.641-1.242-3.386-2.735-2.352-5.087.766-1.739,2.685-2.669,5.4-1.827l.8-1.816,1.641.722-.788,1.783a8.126,8.126,0,0,1,2.883,2.467l-1.706,1.641a7.356,7.356,0,0,0-2.133-1.953l-1.225,2.784c1.641,1.225,3.364,2.735,2.341,5.021C671.989,270.813,670.1,271.737,667.383,270.917Zm1.553-7.964,1.028-2.325c-.957-.186-1.51.137-1.745.678S668.319,262.406,668.937,262.953Zm1.094,5.191c.257-.574-.082-1.094-.678-1.641l-1,2.259c.881.17,1.428-.093,1.657-.618Z" transform="translate(-651.555 -249.053)" fill="#e0e0e0"/>
      <rect id="Rectangle_147724" data-name="Rectangle 147724" width="14.861" height="72.665" transform="translate(118.286 204.853)" fill="#ebebeb"/>
      <rect id="Rectangle_147727" data-name="Rectangle 147727" width="14.861" height="120.152" transform="translate(0.002 157.365)" fill="#ebebeb"/>
      <rect id="Rectangle_147728" data-name="Rectangle 147728" width="14.861" height="95.019" transform="translate(30.061 182.499)" fill="#ebebeb"/>
      <rect id="Rectangle_147729" data-name="Rectangle 147729" width="14.861" height="127.17" transform="translate(65.245 150.353)" fill="#ebebeb"/>
      <rect id="Rectangle_148265" data-name="Rectangle 148265" width="14.861" height="113.17" transform="translate(99.91 164.353)" fill="#ebebeb"/>
      <rect id="Rectangle_147730" data-name="Rectangle 147730" width="14.861" height="126.547" transform="translate(149.321 150.971)" fill="#ebebeb"/>
      <rect id="Rectangle_147731" data-name="Rectangle 147731" width="14.861" height="84.982" transform="translate(189.356 192.535)" fill="#ebebeb"/>
      <rect id="Rectangle_147732" data-name="Rectangle 147732" width="14.861" height="120.973" transform="translate(226.449 156.545)" fill="#ebebeb"/>
      <rect id="Rectangle_147733" data-name="Rectangle 147733" width="14.861" height="148.223" transform="translate(257.426 129.295)" fill="#ebebeb"/>
      <rect id="Rectangle_147734" data-name="Rectangle 147734" width="14.861" height="121.591" transform="translate(288.402 155.927)" fill="#ebebeb"/>
    </g>
    <g id="freepik--Floor--inject-8" transform="translate(76.857 261.987)">
      <path id="Path_65622" data-name="Path 65622" d="M369.94,468.782c0,.077-71.762.142-160.27.142s-160.29-.088-160.29-.142,71.748-.142,160.29-.142S369.94,468.7,369.94,468.782Z" transform="translate(-49.38 -468.64)" fill="#263238"/>
    </g>
    <g id="freepik--Chart--inject-8" transform="translate(100.7 152.38)">
      <rect id="Rectangle_147735" data-name="Rectangle 147735" width="65.839" height="109.7" transform="translate(87.524)" fill="#455a64"/>
      <g id="Group_160888" data-name="Group 160888" transform="translate(87.524)" opacity="0.3">
        <rect id="Rectangle_147736" data-name="Rectangle 147736" width="65.839" height="109.7"/>
      </g>
      <rect id="Rectangle_147737" data-name="Rectangle 147737" width="65.839" height="109.7" transform="translate(101.187)" fill="#455a64"/>
      <path id="Path_65623" data-name="Path 65623" d="M306.217,366.589c.049.066-2.893,2.434-6.564,5.289s-6.695,5.125-6.744,5.065,2.893-2.428,6.564-5.289S306.168,366.529,306.217,366.589Z" transform="translate(-205.233 -312.8)" fill="#455a64"/>
      <path id="Path_65624" data-name="Path 65624" d="M306.217,355.289c.049.06-2.893,2.429-6.564,5.284s-6.695,5.131-6.744,5.065,2.893-2.429,6.564-5.289S306.168,355.223,306.217,355.289Z" transform="translate(-205.233 -307.681)" fill="#455a64"/>
      <path id="Path_65625" data-name="Path 65625" d="M306.213,344c.049.06-2.893,2.429-6.564,5.289s-6.695,5.1-6.75,5.054,2.893-2.429,6.564-5.289S306.163,343.928,306.213,344Z" transform="translate(-205.228 -302.566)" fill="#455a64"/>
      <path id="Path_65626" data-name="Path 65626" d="M306.213,332.669c.049.066-2.893,2.434-6.564,5.289s-6.695,5.125-6.75,5.065,2.893-2.429,6.564-5.289S306.163,332.609,306.213,332.669Z" transform="translate(-205.228 -297.433)" fill="#455a64"/>
      <path id="Path_65627" data-name="Path 65627" d="M306.217,321.369c.049.06-2.893,2.428-6.564,5.289s-6.695,5.125-6.744,5.059,2.893-2.429,6.564-5.289S306.168,321.3,306.217,321.369Z" transform="translate(-205.233 -292.314)" fill="#455a64"/>
      <path id="Path_65628" data-name="Path 65628" d="M306.213,310.06c.049.06-2.893,2.429-6.564,5.289s-6.695,5.125-6.75,5.07,2.893-2.429,6.564-5.289S306.163,310.027,306.213,310.06Z" transform="translate(-205.228 -287.191)" fill="#455a64"/>
      <path id="Path_65629" data-name="Path 65629" d="M306.217,298.749c.049.066-2.893,2.434-6.564,5.289s-6.695,5.125-6.744,5.065,2.893-2.429,6.564-5.289S306.168,298.689,306.217,298.749Z" transform="translate(-205.233 -282.067)" fill="#455a64"/>
      <path id="Path_65630" data-name="Path 65630" d="M306.217,287.449c.049.06-2.893,2.429-6.564,5.289s-6.695,5.125-6.744,5.059,2.893-2.429,6.564-5.289S306.168,287.383,306.217,287.449Z" transform="translate(-205.233 -276.947)" fill="#455a64"/>
      <path id="Path_65631" data-name="Path 65631" d="M306.217,276.138c.049.06-2.893,2.429-6.564,5.289s-6.695,5.125-6.744,5.065,2.893-2.429,6.564-5.289S306.168,276.062,306.217,276.138Z" transform="translate(-205.233 -271.823)" fill="#455a64"/>
      <path id="Path_65632" data-name="Path 65632" d="M303.511,268.669c.049.066-2.286,1.964-5.218,4.239s-5.344,4.08-5.393,4.015,2.286-1.958,5.218-4.239S303.461,268.609,303.511,268.669Z" transform="translate(-205.228 -268.439)" fill="#455a64"/>
      <path id="Path_65633" data-name="Path 65633" d="M295.676,268.455a5.579,5.579,0,0,1-1.313,1.2,5.468,5.468,0,0,1-1.493.979,11.306,11.306,0,0,1,2.806-2.188Z" transform="translate(-205.215 -268.341)" fill="#455a64"/>
      <path id="Path_65634" data-name="Path 65634" d="M292.839,391.293c-.049-.066,2.893-2.434,6.564-5.289s6.695-5.131,6.739-5.065-2.888,2.429-6.564,5.289S292.889,391.364,292.839,391.293Z" transform="translate(-205.201 -319.301)" fill="#455a64"/>
      <path id="Path_65635" data-name="Path 65635" d="M293.58,405.593c-.044-.06,2.893-2.429,6.564-5.289s6.695-5.125,6.744-5.065-2.894,2.428-6.564,5.289S293.629,405.653,293.58,405.593Z" transform="translate(-205.536 -325.78)" fill="#455a64"/>
      <path id="Path_65636" data-name="Path 65636" d="M292.9,418.723c-.049-.06,2.893-2.429,6.564-5.289s6.695-5.125,6.744-5.065-2.893,2.434-6.564,5.289S292.954,418.789,292.9,418.723Z" transform="translate(-205.228 -331.728)" fill="#455a64"/>
      <path id="Path_65637" data-name="Path 65637" d="M292.9,430.033c-.049-.06,2.893-2.429,6.564-5.289s6.695-5.125,6.744-5.065-2.893,2.429-6.564,5.289S292.954,430.093,292.9,430.033Z" transform="translate(-205.228 -336.852)" fill="#455a64"/>
      <path id="Path_65638" data-name="Path 65638" d="M292.9,441.343c-.049-.066,2.893-2.434,6.564-5.289s6.695-5.131,6.744-5.065-2.893,2.429-6.564,5.289S292.954,441.387,292.9,441.343Z" transform="translate(-205.228 -341.975)" fill="#455a64"/>
      <path id="Path_65639" data-name="Path 65639" d="M292.9,452.643c-.049-.06,2.893-2.428,6.564-5.289s6.695-5.125,6.744-5.065-2.893,2.434-6.564,5.289S292.954,452.709,292.9,452.643Z" transform="translate(-205.228 -347.095)" fill="#455a64"/>
      <path id="Path_65640" data-name="Path 65640" d="M297.839,461.853c-.049-.066,2.286-1.964,5.218-4.239s5.344-4.075,5.393-4.015-2.286,1.958-5.218,4.239S297.889,461.913,297.839,461.853Z" transform="translate(-207.466 -352.218)" fill="#455a64"/>
      <path id="Path_65641" data-name="Path 65641" d="M312.11,467.088a11.048,11.048,0,0,1,2.806-2.188,5.67,5.67,0,0,1-1.318,1.2A5.9,5.9,0,0,1,312.11,467.088Z" transform="translate(-213.931 -357.339)" fill="#455a64"/>
      <rect id="Rectangle_147738" data-name="Rectangle 147738" width="58" height="77.571" transform="translate(186.421 32.107)" fill="#455a64"/>
      <g id="Group_160889" data-name="Group 160889" transform="translate(186.421 32.107)" opacity="0.3">
        <rect id="Rectangle_147739" data-name="Rectangle 147739" width="58" height="77.571"/>
      </g>
      <rect id="Rectangle_147740" data-name="Rectangle 147740" width="58" height="77.571" transform="translate(198.05 32.107)" fill="#455a64"/>
      <path id="Path_65642" data-name="Path 65642" d="M485.05,413.439c.049.06-2.521,2.139-5.738,4.644s-5.864,4.48-5.913,4.419,2.521-2.144,5.738-4.644S485,413.373,485.05,413.439Z" transform="translate(-287 -334.024)" fill="#455a64"/>
      <path id="Path_65643" data-name="Path 65643" d="M485.05,403.539c.049.06-2.521,2.144-5.738,4.644s-5.864,4.48-5.913,4.419,2.521-2.144,5.738-4.644S485,403.479,485.05,403.539Z" transform="translate(-287 -329.54)" fill="#455a64"/>
      <path id="Path_65644" data-name="Path 65644" d="M485.05,393.639c.049.066-2.521,2.144-5.738,4.644s-5.864,4.485-5.913,4.419,2.521-2.139,5.738-4.644S485,393.579,485.05,393.639Z" transform="translate(-287 -325.055)" fill="#455a64"/>
      <path id="Path_65645" data-name="Path 65645" d="M485.05,383.749c.049.06-2.521,2.139-5.738,4.644s-5.864,4.48-5.913,4.419,2.521-2.144,5.738-4.644S485,383.683,485.05,383.749Z" transform="translate(-287 -320.574)" fill="#455a64"/>
      <path id="Path_65646" data-name="Path 65646" d="M485.05,373.849c.049.06-2.521,2.144-5.738,4.644s-5.864,4.48-5.913,4.419,2.521-2.139,5.738-4.644S485,373.789,485.05,373.849Z" transform="translate(-287 -316.089)" fill="#455a64"/>
      <path id="Path_65647" data-name="Path 65647" d="M485.05,364c.049.066-2.521,2.144-5.738,4.644s-5.864,4.485-5.913,4.42,2.521-2.139,5.738-4.644S485,363.91,485.05,364Z" transform="translate(-287 -311.626)" fill="#455a64"/>
      <path id="Path_65648" data-name="Path 65648" d="M485.05,354.059c.049.06-2.521,2.139-5.738,4.644s-5.864,4.48-5.913,4.42,2.521-2.144,5.738-4.644S485,353.993,485.05,354.059Z" transform="translate(-287 -307.123)" fill="#455a64"/>
      <path id="Path_65649" data-name="Path 65649" d="M485.05,344.159c.049.066-2.521,2.144-5.738,4.644s-5.864,4.48-5.913,4.419,2.521-2.139,5.738-4.644S485,344.1,485.05,344.159Z" transform="translate(-287 -302.639)" fill="#455a64"/>
      <path id="Path_65650" data-name="Path 65650" d="M485.05,334.269c.049.06-2.521,2.139-5.738,4.638s-5.864,4.485-5.913,4.419,2.521-2.139,5.738-4.644S485,334.2,485.05,334.269Z" transform="translate(-287 -298.158)" fill="#455a64"/>
      <path id="Path_65651" data-name="Path 65651" d="M482.687,327.729c.049.06-1.991,1.728-4.556,3.725s-4.682,3.561-4.731,3.5,1.991-1.728,4.556-3.725S482.638,327.668,482.687,327.729Z" transform="translate(-287 -295.195)" fill="#455a64"/>
      <path id="Path_65652" data-name="Path 65652" d="M475.853,327.55c.049.06-.459.547-1.138,1.067a4.529,4.529,0,0,1-1.318.82c-.049-.06.465-.547,1.143-1.094A4.206,4.206,0,0,1,475.853,327.55Z" transform="translate(-286.998 -295.115)" fill="#455a64"/>
      <path id="Path_65653" data-name="Path 65653" d="M485.05,452.329c.049.06-2.521,2.139-5.738,4.644s-5.864,4.474-5.913,4.419,2.521-2.144,5.738-4.644S485,452.269,485.05,452.329Z" transform="translate(-287 -351.643)" fill="#455a64"/>
      <path id="Path_65654" data-name="Path 65654" d="M485.05,442.429c.049.066-2.521,2.144-5.738,4.644s-5.864,4.48-5.913,4.419,2.521-2.139,5.738-4.644S485,442.369,485.05,442.429Z" transform="translate(-287 -347.158)" fill="#455a64"/>
      <path id="Path_65655" data-name="Path 65655" d="M485.05,432.539c.049.06-2.521,2.139-5.738,4.644s-5.864,4.48-5.913,4.414,2.521-2.139,5.738-4.644S485,432.473,485.05,432.539Z" transform="translate(-287 -342.677)" fill="#455a64"/>
      <path id="Path_65656" data-name="Path 65656" d="M485.05,422.639c.049.06-2.521,2.139-5.738,4.644s-5.864,4.48-5.913,4.419,2.521-2.144,5.738-4.644S485,422.579,485.05,422.639Z" transform="translate(-287 -338.192)" fill="#455a64"/>
      <rect id="Rectangle_147741" data-name="Rectangle 147741" width="62.185" height="52.821" transform="translate(0.003 56.928)" fill="#455a64"/>
      <g id="Group_160890" data-name="Group 160890" transform="translate(0.003 56.928)" opacity="0.3">
        <rect id="Rectangle_147742" data-name="Rectangle 147742" width="62.185" height="52.821"/>
      </g>
      <rect id="Rectangle_147743" data-name="Rectangle 147743" width="62.185" height="52.821" transform="translate(11.194 56.928)" fill="#455a64"/>
      <path id="Path_65657" data-name="Path 65657" d="M143.6,453.279c.044.066-2.374,2.024-5.4,4.376s-5.53,4.217-5.579,4.157,2.368-2.024,5.4-4.376S143.553,453.219,143.6,453.279Z" transform="translate(-132.616 -352.073)" fill="#455a64"/>
      <path id="Path_65658" data-name="Path 65658" d="M143.6,444c.044.066-2.374,2.029-5.4,4.376s-5.53,4.217-5.579,4.157,2.368-2.024,5.4-4.376S143.553,443.91,143.6,444Z" transform="translate(-132.616 -347.868)" fill="#455a64"/>
      <path id="Path_65659" data-name="Path 65659" d="M143.6,434.629c.044.06-2.374,2.024-5.4,4.376s-5.53,4.223-5.579,4.157,2.368-2.024,5.4-4.376S143.553,434.563,143.6,434.629Z" transform="translate(-132.616 -343.624)" fill="#455a64"/>
      <path id="Path_65660" data-name="Path 65660" d="M143.6,425.3c.044.06-2.374,2.024-5.4,4.376s-5.53,4.223-5.579,4.162,2.368-2.029,5.4-4.376S143.553,425.239,143.6,425.3Z" transform="translate(-132.616 -339.398)" fill="#455a64"/>
      <path id="Path_65661" data-name="Path 65661" d="M143.6,416c.044.066-2.374,2.024-5.4,4.376s-5.53,4.217-5.579,4.157,2.368-2.024,5.4-4.376S143.553,415.922,143.6,416Z" transform="translate(-132.616 -335.184)" fill="#455a64"/>
      <path id="Path_65662" data-name="Path 65662" d="M143.6,406.649c.044.06-2.374,2.024-5.4,4.376s-5.53,4.217-5.579,4.157,2.368-2.024,5.4-4.376S143.553,406.583,143.6,406.649Z" transform="translate(-132.616 -330.948)" fill="#455a64"/>
      <path id="Path_65663" data-name="Path 65663" d="M143.6,397.319c.044.06-2.374,2.024-5.4,4.376s-5.53,4.223-5.579,4.157,2.368-2.024,5.4-4.376S143.553,397.253,143.6,397.319Z" transform="translate(-132.616 -326.721)" fill="#455a64"/>
      <path id="Path_65664" data-name="Path 65664" d="M143.6,388c.044.06-2.374,2.024-5.4,4.376s-5.53,4.223-5.579,4.162,2.368-2.024,5.4-4.376S143.553,387.933,143.6,388Z" transform="translate(-132.616 -322.499)" fill="#455a64"/>
      <path id="Path_65665" data-name="Path 65665" d="M143.6,378.659c.044.066-2.374,2.024-5.4,4.376s-5.53,4.217-5.579,4.157,2.368-2.024,5.4-4.376S143.553,378.6,143.6,378.659Z" transform="translate(-132.616 -318.268)" fill="#455a64"/>
      <path id="Path_65666" data-name="Path 65666" d="M141.371,372.5a51.728,51.728,0,0,1-4.288,3.517,54.361,54.361,0,0,1-4.463,3.282,54.514,54.514,0,0,1,4.288-3.517C139.326,373.915,141.322,372.438,141.371,372.5Z" transform="translate(-132.617 -315.477)" fill="#455a64"/>
      <path id="Path_65667" data-name="Path 65667" d="M134.931,372.33c.049.06-.427.514-1.067,1.012a3.829,3.829,0,0,1-1.247.788c-.049-.06.432-.514,1.094-1.012A3.928,3.928,0,0,1,134.931,372.33Z" transform="translate(-132.614 -315.402)" fill="#455a64"/>
    </g>
    <g id="freepik--Character--inject-8" transform="translate(180.368 26.322)">
      <g id="Group_160891" data-name="Group 160891" transform="translate(23.133 121.261)" opacity="0.3">
        <path id="Path_65668" data-name="Path 65668" d="M374.125,259.627a3.282,3.282,0,0,0-1.6-.087c-16.715,1.854-35.23,3.112-51.962,4.966v.18a101.526,101.526,0,0,0,33.059,3.829c1.045-.049,2.237-.06,2.948.711s.547,2.155.312,3.282q-3.528,15.342-7.05,30.679c-.366,1.608-.624,3.583.635,4.644,1.739,1.471,4.3-.273,5.765-2.013,9.955-11.809,14.473-27.135,18.734-41.98C375.41,262.335,375.59,260.229,374.125,259.627Z" transform="translate(-320.56 -259.479)"/>
      </g>
      <path id="Path_65669" data-name="Path 65669" d="M449.1,248.891a8.751,8.751,0,0,0-6.3-2.078l-3.829,12.247c2.822.12,5.639,1.581,8.363.831a5.962,5.962,0,0,0,4.157-4.923A7.111,7.111,0,0,0,449.1,248.891Z" transform="translate(-351.071 -132.47)" fill="#efa00b"/>
      <path id="Path_65670" data-name="Path 65670" d="M443.421,246.169c0-.1.416-.175,1.165-.17a9.468,9.468,0,0,1,3.156.6,8.544,8.544,0,0,1,3.829,2.981,7.926,7.926,0,0,1,1.28,2.653,7.049,7.049,0,0,1,.093,3.211,6.508,6.508,0,0,1-1.4,2.926,6.071,6.071,0,0,1-2.483,1.723,8.872,8.872,0,0,1-4.846.312,15.187,15.187,0,0,1-3.019-.935c-.684-.3-1.039-.509-1.006-.607s.443-.071,1.165.049,1.75.339,3.008.454a8.566,8.566,0,0,0,4.184-.547,4.923,4.923,0,0,0,1.882-1.389,5.19,5.19,0,0,0,1.061-2.286,6.3,6.3,0,0,0-1.012-4.764,8.286,8.286,0,0,0-3.14-2.806,14.028,14.028,0,0,0-2.811-.979C443.809,246.394,443.41,246.273,443.421,246.169Z" transform="translate(-351.622 -132.112)" fill="#e0e0e0"/>
      <path id="Path_65671" data-name="Path 65671" d="M375.882,328.62l-7.762,21.747,27.015,9.8c.777-2.642-11.322-12.887-11.322-12.887l5.574-13.734Z" transform="translate(-318.974 -169.542)" fill="#efa00b"/>
      <g id="Group_160892" data-name="Group 160892" transform="translate(55.689 173.528)" opacity="0.6">
        <path id="Path_65672" data-name="Path 65672" d="M381.306,355.05a1.171,1.171,0,0,0-1.22.979,1.132,1.132,0,0,0,.963,1.22,1.236,1.236,0,0,0,1.285-1.05c0-.574-.547-1.236-1.143-1.154" transform="translate(-380.082 -355.037)" fill="#fff"/>
      </g>
      <path id="Path_65673" data-name="Path 65673" d="M368.12,366.568l.782-2.188,25.658,10.234s1.017.963.574,1.761Z" transform="translate(-318.974 -185.742)" fill="#f5f5f5"/>
      <path id="Path_65674" data-name="Path 65674" d="M395.215,362.472c-.049.126-.733-.049-1.531.137s-1.351.618-1.455.547.372-.782,1.346-1S395.291,362.357,395.215,362.472Z" transform="translate(-329.889 -184.709)" fill="#263238"/>
      <path id="Path_65675" data-name="Path 65675" d="M400.054,366.661c0,.137-.673.153-1.318.547s-1,.941-1.127.886.06-.826.875-1.307S400.1,366.529,400.054,366.661Z" transform="translate(-332.316 -186.699)" fill="#263238"/>
      <path id="Path_65676" data-name="Path 65676" d="M402.752,372.458c-.131,0-.077-.738.547-1.34s1.324-.662,1.34-.547-.509.377-.99.875S402.889,372.5,402.752,372.458Z" transform="translate(-334.637 -188.525)" fill="#263238"/>
      <path id="Path_65677" data-name="Path 65677" d="M397.01,355.863c-.1.1-.64-.3-1.4-.547s-1.433-.191-1.46-.334.7-.4,1.6-.131S397.114,355.781,397.01,355.863Z" transform="translate(-330.765 -181.371)" fill="#263238"/>
      <path id="Path_65678" data-name="Path 65678" d="M397.367,347.64a2.735,2.735,0,0,1-1.351-.5,6.745,6.745,0,0,1-1.258-.946,7.106,7.106,0,0,1-.629-.695,1.84,1.84,0,0,1-.29-.465.613.613,0,0,1,.191-.727.788.788,0,0,1,.689-.093,2.067,2.067,0,0,1,.481.257,5.38,5.38,0,0,1,.738.591,5.169,5.169,0,0,1,.952,1.274,2.379,2.379,0,0,1,.394,1.384c-.077,0-.23-.5-.695-1.209a5.548,5.548,0,0,0-.957-1.094,5.366,5.366,0,0,0-.695-.547c-.257-.175-.5-.268-.618-.164s-.055.055-.027.159a1.75,1.75,0,0,0,.219.345,7.7,7.7,0,0,0,.547.667,8.058,8.058,0,0,0,1.127.974A10.393,10.393,0,0,1,397.367,347.64Z" transform="translate(-330.603 -176.589)" fill="#263238"/>
      <path id="Path_65679" data-name="Path 65679" d="M399.836,347.481a2.3,2.3,0,0,1,.115-1.433,4.821,4.821,0,0,1,.722-1.417,5.087,5.087,0,0,1,.645-.695,1.2,1.2,0,0,1,1.094-.372.678.678,0,0,1,.427.585,2.147,2.147,0,0,1-.038.547,3.2,3.2,0,0,1-.334.908,3.249,3.249,0,0,1-1.094,1.187c-.782.509-1.389.47-1.384.421a11.822,11.822,0,0,0,1.181-.7,3.227,3.227,0,0,0,.886-1.094,2.837,2.837,0,0,0,.263-.788c.06-.3.038-.574-.082-.585a.831.831,0,0,0-.635.273,4.881,4.881,0,0,0-.6.613,5.082,5.082,0,0,0-.749,1.253C399.957,346.945,399.9,347.487,399.836,347.481Z" transform="translate(-333.313 -176.304)" fill="#263238"/>
      <path id="Path_65680" data-name="Path 65680" d="M311.774,215.134c-4.425.1-8.62.727-11.667,3.933-4.042,4.255-9.036,10.321-9.3,14.522-.459,6.285,3.369,8.15,6.1,9.687a7.723,7.723,0,0,0,4.02.924l51.125-.388,1.608-8.659L320.6,227l1.373-12.444Z" transform="translate(-283.932 -117.869)" fill="#263238"/>
      <path id="Path_65681" data-name="Path 65681" d="M346.665,213.944l16.086-.744s27.77,1.532,33.71,7,5.185,11.607,3.211,17.5-19.385,43.834-19.385,43.834a6.554,6.554,0,0,1,.618,4.813,6.361,6.361,0,0,1-4.54,4.327L360.9,284.995s-2.1-.738-.618-2.735a6.528,6.528,0,0,1,2.467-2.341v-3.927s5.437-9.878,5.929-11.235,5.7-21.463,5.7-21.463l3.462-5.946s-8.369-3.933-15.616-6.782l-16.956-4.173Z" transform="translate(-308.622 -117.253)" fill="#263238"/>
      <path id="Path_65682" data-name="Path 65682" d="M387.085,339.928c-.033.038-.52-.35-1.356-.886a18.242,18.242,0,0,0-7.22-2.735,15.92,15.92,0,0,1-1.608-.241,6.045,6.045,0,0,1,1.641.033,15.28,15.28,0,0,1,3.829.919,15.114,15.114,0,0,1,3.473,1.86A6.108,6.108,0,0,1,387.085,339.928Z" transform="translate(-322.951 -172.896)" fill="#455a64"/>
      <path id="Path_65683" data-name="Path 65683" d="M405.291,332.283a5.647,5.647,0,0,1-.9-.946c-.52-.613-1.214-1.482-1.942-2.467s-1.351-1.914-1.778-2.593a4.923,4.923,0,0,1-.634-1.138,6.39,6.39,0,0,1,.81,1.023l1.843,2.532,1.865,2.511A5.775,5.775,0,0,1,405.291,332.283Z" transform="translate(-333.434 -167.965)" fill="#455a64"/>
      <path id="Path_65684" data-name="Path 65684" d="M412.779,247.42a15.21,15.21,0,0,1-1.46.47,15.753,15.753,0,0,0-3.331,1.559,15.919,15.919,0,0,0-2.866,2.308,11.811,11.811,0,0,1-1.061,1.094,5.244,5.244,0,0,1,.908-1.253,13.024,13.024,0,0,1,2.861-2.418,13.255,13.255,0,0,1,3.424-1.51,5.278,5.278,0,0,1,1.526-.252Z" transform="translate(-335.256 -132.755)" fill="#455a64"/>
      <path id="Path_65685" data-name="Path 65685" d="M391.09,271.9a1.418,1.418,0,0,1,.06-.334c.066-.246.142-.547.241-.941l.924-3.451,3.167-11.35c.64-2.215,1.192-4.327,1.81-6.241a13,13,0,0,1,2.91-4.441,16.447,16.447,0,0,1,2.762-2.275c.361-.23.64-.4.837-.5a1.746,1.746,0,0,1,.306-.153s-.388.263-1.094.749a18.779,18.779,0,0,0-2.675,2.33,12.99,12.99,0,0,0-2.806,4.376c-.6,1.882-1.143,4.02-1.783,6.225l-3.233,11.366L391.5,270.68c-.12.377-.213.684-.29.924A1.355,1.355,0,0,1,391.09,271.9Z" transform="translate(-329.38 -130.395)" fill="#455a64"/>
      <path id="Path_65686" data-name="Path 65686" d="M364.058,232.411c-.082,0-.421-3-.755-6.717s-.547-6.739-.459-6.744.421,3,.755,6.717S364.14,232.4,364.058,232.411Z" transform="translate(-316.574 -119.858)" fill="#455a64"/>
      <path id="Path_65687" data-name="Path 65687" d="M310,253.432c-.049,0-.3-.465-.8-1.176a12.033,12.033,0,0,0-2.336-2.456,11.814,11.814,0,0,0-2.948-1.668c-.815-.317-1.346-.443-1.335-.492a4.568,4.568,0,0,1,1.406.29,10.2,10.2,0,0,1,5.388,4.212A4.376,4.376,0,0,1,310,253.432Z" transform="translate(-289.282 -132.855)" fill="#455a64"/>
      <path id="Path_65688" data-name="Path 65688" d="M322.679,235.95c0,.049-.711-.388-1.892-.924A17.842,17.842,0,0,0,310.9,233.6c-1.285.186-2.062.416-2.073.361a1.853,1.853,0,0,1,.547-.2,12.274,12.274,0,0,1,1.51-.367,16.2,16.2,0,0,1,10.01,1.439,11.107,11.107,0,0,1,1.346.777A2.02,2.02,0,0,1,322.679,235.95Z" transform="translate(-292.113 -126.29)" fill="#455a64"/>
      <path id="Path_65689" data-name="Path 65689" d="M372.182,245.789a3.614,3.614,0,0,1-.4-.066l-1.138-.252-4.168-.935c-3.517-.788-8.385-1.843-13.784-2.915s-10.3-1.958-13.855-2.554l-4.212-.722-1.143-.208a3.194,3.194,0,0,1-.394-.088,1.871,1.871,0,0,1,.4.033l1.149.148c1,.137,2.445.35,4.228.629,3.566.547,8.478,1.406,13.882,2.472s10.267,2.161,13.773,3c1.756.421,3.172.771,4.146,1.028l1.127.3a1.791,1.791,0,0,1,.383.126Z" transform="translate(-303.104 -128.51)" fill="#455a64"/>
      <path id="Path_65690" data-name="Path 65690" d="M337.944,233.485a16.36,16.36,0,0,0-.706-1.641,7.108,7.108,0,0,0-1.171-1.515,20.153,20.153,0,0,0-1.789-1.548,27,27,0,0,0-3.665-2.275,11.384,11.384,0,0,1-1.564-.886,9.612,9.612,0,0,1,1.641.7,21.294,21.294,0,0,1,3.752,2.226,17,17,0,0,1,1.805,1.592,6.926,6.926,0,0,1,1.16,1.608,5.648,5.648,0,0,1,.454,1.247A1.531,1.531,0,0,1,337.944,233.485Z" transform="translate(-301.274 -122.879)" fill="#455a64"/>
      <path id="Path_65691" data-name="Path 65691" d="M447.409,254.13c.066.066-.788.93-1.455,2.243s-.881,2.505-.974,2.489a6.525,6.525,0,0,1,2.429-4.731Z" transform="translate(-353.794 -135.795)" fill="#263238"/>
      <path id="Path_65692" data-name="Path 65692" d="M484.07,118.918a.546.546,0,0,1-.049.077l-.148.219-.6.842-2.319,3.123c-2.013,2.7-4.879,6.514-8.3,11.076l-.071.1-.1-.071-7.236-5.114.191-.033c-1.717,2.325-3.55,4.8-5.442,7.351-2.051,2.762-4.037,5.47-5.918,7.969l-.071.1-.1-.066-8.888-5.2.153-.033-7.658,9.572-2.155,2.642-.574.695a2.27,2.27,0,0,1-.2.23,1.863,1.863,0,0,1,.175-.252l.547-.717,2.1-2.7,7.586-9.638.066-.082.088.055,8.9,5.174-.18.038,5.907-7.98,5.47-7.346.082-.109.109.082,7.214,5.136h-.169l8.38-11.016,2.368-3.079.634-.8c.066-.088.12-.153.17-.208S484.064,118.918,484.07,118.918Z" transform="translate(-349.082 -74.539)" fill="#263238"/>
      <path id="Path_65693" data-name="Path 65693" d="M517.977,126.869a3.039,3.039,0,0,1,0-.64c.033-.47.077-1.05.12-1.734.115-1.466.29-3.49.5-5.716v-.038l.191.148c-2.106.749-4.015,1.417-5.4,1.887l-1.641.547a2.473,2.473,0,0,1-.613.159,2.917,2.917,0,0,1,.58-.263l1.614-.629c1.367-.514,3.282-1.214,5.366-1.964l.213-.077v.246c-.213,2.226-.421,4.244-.585,5.7-.082.684-.153,1.263-.213,1.728A2.462,2.462,0,0,1,517.977,126.869Z" transform="translate(-383.766 -74.373)" fill="#263238"/>
      <path id="Path_65694" data-name="Path 65694" d="M359.518,139.3c-.252-1.674-5.251-7.209-5.251-7.209s-4.348-10.644-5.1-13.6a45.1,45.1,0,0,0-2.046-5.47c-1.75-2.959-2.615-3.014-5.612-4.7l-5.809-2.565-.711-1.581a6.563,6.563,0,0,0-3-3.156L317.44,93.5l-4.507,7.958s-8.653,4.086-9.156,4.731c-1.778,2.264-.547,38.632-.547,38.632s-.87,14.172-1.838,18.148-1.531,6.914-1.531,6.914l4.321-4.966c2.538-3.178,8.1-4.644,12.1-4.584l34.153.148L348.354,150.3l28.338,5.989s4.753-9.266,5.131-9.452S359.518,139.3,359.518,139.3Z" transform="translate(-288.05 -63.025)" fill="#efa00b"/>
      <path id="Path_65695" data-name="Path 65695" d="M330.639,113.244c-.241-.241,2.735,6.848,4.655,14.549,1.214,4.8,1.471,12.58,1.471,16.9l.733,12.11V167.4l16.376-1.094-2.45-17.8s-2-11.486-2.554-15.862c-.509-4-2.943-20.025-2.943-20.025S337.5,120.228,330.639,113.244Z" transform="translate(-301.987 -71.687)" fill="#fff"/>
      <path id="Path_65696" data-name="Path 65696" d="M397.075,183.892a1.175,1.175,0,0,1,0-.416,6.362,6.362,0,0,1,.213-1.094,7.515,7.515,0,0,1,1.876-3.178,7.411,7.411,0,0,1,3.172-1.876,5.97,5.97,0,0,1,1.094-.219h.416a11.537,11.537,0,0,0-1.449.416,7.849,7.849,0,0,0-4.923,4.923C397.19,183.318,397.129,183.9,397.075,183.892Z" transform="translate(-332.082 -100.903)" fill="#263238"/>
      <path id="Path_65697" data-name="Path 65697" d="M398.64,177.011a5.213,5.213,0,0,1,2.5-.722,5.12,5.12,0,0,1,2.582.306c0,.088-1.154-.131-2.56,0S398.667,177.1,398.64,177.011Z" transform="translate(-332.8 -100.509)" fill="#263238"/>
      <path id="Path_65698" data-name="Path 65698" d="M294.41,116.1a15.977,15.977,0,0,0-9.211,11.114c-1.531,6.246-8.1,31.784-6.75,35.6s27.605,7.57,27.605,7.57l3.112-13.127-13.335-3.648s.17-12.154.339-17.191S294.41,116.1,294.41,116.1Z" transform="translate(-278.268 -73.263)" fill="#efa00b"/>
      <path id="Path_65699" data-name="Path 65699" d="M331.9,194.72l4.671,1.225-2.773,10.119-4.595-.2Z" transform="translate(-301.342 -108.881)" fill="#fff"/>
      <path id="Path_65700" data-name="Path 65700" d="M367.853,205.247l-4.206-4.469-8.664-2.188s-7.936,2.379-8.128,2.374-6.908-1.838-6.908-1.838l-2.346,8.6,12.1.831,13.816-.547s.717-.673.29-1.132,2.314.777,2.636.793.946.263,1.373-.257A1.832,1.832,0,0,0,367.853,205.247Z" transform="translate(-305.147 -110.634)" fill="#ffbe9d"/>
      <path id="Path_65701" data-name="Path 65701" d="M377.722,211.715a7.521,7.521,0,0,1-1.373-.4c-.842-.268-2-.624-3.282-.957s-2.489-.58-3.353-.755a7.362,7.362,0,0,1-1.395-.323,5.943,5.943,0,0,1,1.433.109,30.084,30.084,0,0,1,3.391.667,28.817,28.817,0,0,1,3.282,1.05A5.562,5.562,0,0,1,377.722,211.715Z" transform="translate(-319.064 -115.472)" fill="#8b5d54"/>
      <path id="Path_65702" data-name="Path 65702" d="M381.919,207.945a17.942,17.942,0,0,1-1.92-.618c-1.176-.4-2.828-.886-4.66-1.395a26.877,26.877,0,0,0-4.693-1.16,11.658,11.658,0,0,0-2,.077,1.564,1.564,0,0,1,.547-.175,5.76,5.76,0,0,1,1.488-.12,19.151,19.151,0,0,1,4.77,1.094c1.81.547,3.479,1.034,4.649,1.488.58.224,1.05.421,1.367.547A1.85,1.85,0,0,1,381.919,207.945Z" transform="translate(-319.214 -113.333)" fill="#8b5d54"/>
      <path id="Path_65703" data-name="Path 65703" d="M278.4,192.543a4.259,4.259,0,0,0,.066.618,2.9,2.9,0,0,0,.913,1.493,12.657,12.657,0,0,0,6.082,2.445h0c1.264.416,2.7.744,4.239,1.094s3.194.7,4.923,1.056c3.5.711,7.362,1.466,11.453,2.232l-.175.115.924-3.829c.738-3.008,1.455-5.929,2.128-8.691l.1.18-11.847-3.386h0a11.7,11.7,0,0,0-5.169-.9,11.486,11.486,0,0,0-3.9.913,13.083,13.083,0,0,0-2.243,1.242l-.547.4-.191.126a1.306,1.306,0,0,1,.17-.159,5.914,5.914,0,0,1,.547-.421,12.269,12.269,0,0,1,2.232-1.313,11.383,11.383,0,0,1,3.944-.985,11.9,11.9,0,0,1,5.273.875h0l11.864,3.331.142.038-.033.142c-.678,2.768-1.384,5.683-2.117,8.7-.323,1.307-.635,2.593-.93,3.829l-.038.142h-.142c-4.1-.777-7.958-1.537-11.454-2.27-1.745-.361-3.4-.722-4.923-1.094s-2.97-.7-4.255-1.138h0c-2.79-.547-4.977-1.455-6.126-2.571a2.888,2.888,0,0,1-.9-1.564A1.788,1.788,0,0,1,278.4,192.543Z" transform="translate(-278.319 -104.363)" fill="#263238"/>
      <path id="Path_65704" data-name="Path 65704" d="M303.446,183.611c-.038.038-.481-.372-1.285-.908a12.285,12.285,0,0,0-7.111-2.068c-.963,0-1.559.126-1.57.077a4.747,4.747,0,0,1,1.559-.3,10.857,10.857,0,0,1,7.236,2.106,4.923,4.923,0,0,1,1.171,1.088Z" transform="translate(-285.159 -102.388)" fill="#263238"/>
      <path id="Path_65705" data-name="Path 65705" d="M311.669,147.18a3.613,3.613,0,0,1,0,.8c0,.514-.055,1.258-.126,2.188-.148,1.832-.421,4.376-.9,7.111A50.37,50.37,0,0,1,309,164.284c-.148.432-.3.826-.427,1.171l-.383.859a3.672,3.672,0,0,1-.41.689,4.52,4.52,0,0,1,.3-.738c.1-.257.208-.547.328-.875s.246-.738.377-1.176a60.855,60.855,0,0,0,1.559-6.985c.481-2.735.788-5.278.99-7.111.088-.864.164-1.592.224-2.188A3.73,3.73,0,0,1,311.669,147.18Z" transform="translate(-291.638 -87.343)" fill="#263238"/>
      <path id="Path_65706" data-name="Path 65706" d="M330.485,123.278s-.06-.153-.2-.421a2.527,2.527,0,0,0-.859-.935,2.133,2.133,0,0,0-1.854-.273,2.4,2.4,0,0,0-1.564,1.772l-.077.4-.175-.372a39.939,39.939,0,0,1-1.745-4.4,23.116,23.116,0,0,1-1.285-7.778c0-.509.071-.963.1-1.367a6.319,6.319,0,0,1,.18-1.012,4.659,4.659,0,0,1,.257-.842,19.377,19.377,0,0,0-.328,3.227,24.733,24.733,0,0,0,1.362,7.658,43.5,43.5,0,0,0,1.707,4.376l-.257.033a2.62,2.62,0,0,1,1.761-1.936,2.3,2.3,0,0,1,2.013.356,2.472,2.472,0,0,1,.842,1.028,2.076,2.076,0,0,1,.109.339C330.491,123.234,330.491,123.278,330.485,123.278Z" transform="translate(-298.41 -69.616)" fill="#263238"/>
      <path id="Path_65707" data-name="Path 65707" d="M362.589,125.048a5.4,5.4,0,0,1-.12-.678,7.27,7.27,0,0,1-.115-1.914,4.064,4.064,0,0,1,1.3-2.522,2.363,2.363,0,0,1,1.564-.6,2.079,2.079,0,0,1,1.641.782l-.235.142-.514-1.362c-1.006-2.686-1.9-5.125-2.538-6.892-.3-.848-.547-1.553-.738-2.1a4.505,4.505,0,0,1-.235-.788,5.263,5.263,0,0,1,.339.744q.32.82.82,2.068c.684,1.75,1.608,4.179,2.615,6.864l.509,1.362.328.881-.547-.733a1.849,1.849,0,0,0-1.439-.689,2.188,2.188,0,0,0-1.417.52,3.977,3.977,0,0,0-1.269,2.346,8.705,8.705,0,0,0,.033,1.871A2.686,2.686,0,0,1,362.589,125.048Z" transform="translate(-316.353 -70.101)" fill="#263238"/>
      <path id="Path_65708" data-name="Path 65708" d="M380.517,140.82c.077,0,1.3,7.975,2.735,17.831s2.522,17.859,2.445,17.869-1.3-7.969-2.735-17.831S380.44,140.831,380.517,140.82Z" transform="translate(-324.588 -84.462)" fill="#263238"/>
      <g id="Group_160893" data-name="Group 160893" transform="translate(25.78 49.526)" opacity="0.3">
        <path id="Path_65709" data-name="Path 65709" d="M325.4,128.33a17.968,17.968,0,0,0,1.422,6.438,4.572,4.572,0,0,1,2.254-1.8,3.594,3.594,0,0,1,3.216,1.329,5.8,5.8,0,0,0-1.028-2.456A2.866,2.866,0,0,0,329,130.655a2,2,0,0,0-1.9,1.548l-1.641-3.829" transform="translate(-325.4 -128.33)"/>
      </g>
      <path id="Path_65710" data-name="Path 65710" d="M310.211,127.817c-.055,0-.038-.6-.208-1.526a9.222,9.222,0,0,0-1.389-3.391,9.535,9.535,0,0,0-1.3-1.548,8.388,8.388,0,0,0-1.307-1.017c-.8-.509-1.362-.7-1.346-.755a1.252,1.252,0,0,1,.41.1,3.284,3.284,0,0,1,.459.181,4.931,4.931,0,0,1,.585.3,7.833,7.833,0,0,1,1.384,1,9.2,9.2,0,0,1,1.367,1.586,8.488,8.488,0,0,1,1.346,3.522,5.973,5.973,0,0,1,.055,1.143C310.25,127.67,310.233,127.817,310.211,127.817Z" transform="translate(-290.224 -74.84)" fill="#263238"/>
      <g id="Group_160894" data-name="Group 160894" transform="translate(56.421 59.908)" opacity="0.3">
        <path id="Path_65711" data-name="Path 65711" d="M381.42,147.31l3.659,25.784.18.41A55.243,55.243,0,0,0,381.42,147.31Z" transform="translate(-381.42 -147.31)"/>
      </g>
      <path id="Path_65712" data-name="Path 65712" d="M384.351,173.825l-11.9,20.785-29.323.64-.071,1.324,28.388-.208.9-.033,29.979.06,6.06-10.447,7.74-11.093a1.094,1.094,0,0,0-.9-1.723l-29.93.115A1.094,1.094,0,0,0,384.351,173.825Z" transform="translate(-307.621 -99.1)" fill="#e0e0e0"/>
      <path id="Path_65713" data-name="Path 65713" d="M454.448,196.61s1.537,1.411,1.3,2.609-.164,2.095-1.3,2.188a1.728,1.728,0,0,1-1.542,1.783,1.881,1.881,0,0,1-1.843,2.188s-.667,2.013-2.051,1.526a12.138,12.138,0,0,1-2.27-1.056l-.4-.733s-2.029-.76-1.531-1.909c.306-.695,1.357-.875,1.357-.875a1.969,1.969,0,0,1,.131-1.783c.487-.656,2.073-.115,2.073-.115a2.254,2.254,0,0,1,.5-1.553c.547-.64,3.069,1.094,3.069,1.094l1.373-1.641Z" transform="translate(-353.679 -109.737)" fill="#ffbe9d"/>
      <path id="Path_65714" data-name="Path 65714" d="M452.251,210.131a14.01,14.01,0,0,1-2.527-1.4,13.73,13.73,0,0,1-2.374-1.641,27.35,27.35,0,0,1,4.923,3.047Z" transform="translate(-354.867 -114.485)" fill="#8b5d54"/>
      <path id="Path_65715" data-name="Path 65715" d="M455.924,206.35a12.266,12.266,0,0,1-2.347-1.242,12.081,12.081,0,0,1-2.188-1.5,12.072,12.072,0,0,1,2.346,1.242,11.762,11.762,0,0,1,2.188,1.5Z" transform="translate(-356.698 -112.908)" fill="#8b5d54"/>
      <path id="Path_65716" data-name="Path 65716" d="M455.09,201.063a8.049,8.049,0,0,1,2.084,1.094,18.108,18.108,0,0,1,1.958,1.3,6.414,6.414,0,0,1-2.117-1.05A11.545,11.545,0,0,1,455.09,201.063Z" transform="translate(-358.374 -111.75)" fill="#8b5d54"/>
      <path id="Path_65717" data-name="Path 65717" d="M441.445,174.445a.449.449,0,0,1-.142,0h-2.062l-5.951.049-19.642.044h-1.433a1.165,1.165,0,0,0-1.094.514c-.454.81-.9,1.614-1.335,2.4l-2.527,4.562-4.294,7.718c-1.225,2.188-2.215,3.944-2.915,5.191l-.81,1.4-.213.361a.673.673,0,0,1-.088.12.829.829,0,0,1,.06-.137c.049-.1.109-.219.191-.372.18-.35.438-.826.755-1.433l2.839-5.234c1.209-2.188,2.642-4.835,4.239-7.745.8-1.46,1.641-2.986,2.511-4.573l1.34-2.423a1.477,1.477,0,0,1,1.335-.651h1.433l19.642.044,5.951.049H441.3Z" transform="translate(-332.936 -99.599)" fill="#263238"/>
      <path id="Path_65718" data-name="Path 65718" d="M437.9,193.329a1.264,1.264,0,1,0,1.893-.219,1.351,1.351,0,0,0-1.892.219Z" transform="translate(-350.484 -108.02)" fill="#fff"/>
      <path id="Path_65719" data-name="Path 65719" d="M344.4,79.514l-.164-4.72s6.268-1.373,5.957-7.707c-.148-3.063-.974-9.337-1.783-15a11.82,11.82,0,0,0-12.427-10.1l-.607.038c-6.564.788-9.556,6.8-8.587,13.341l1.537,24.909a8.051,8.051,0,0,0,8.27,7.548h0A8.057,8.057,0,0,0,344.4,79.514Z" transform="translate(-300.17 -39.675)" fill="#ffbe9d"/>
      <path id="Path_65720" data-name="Path 65720" d="M351.89,100.405a15.315,15.315,0,0,1-8.39-1.925s2.139,4.485,8.423,3.528Z" transform="translate(-307.82 -65.281)" fill="#8b5d54"/>
      <path id="Path_65721" data-name="Path 65721" d="M363.513,70.728a.908.908,0,0,1-.815.968.864.864,0,0,1-.979-.76.908.908,0,0,1,.831-.941A.87.87,0,0,1,363.513,70.728Z" transform="translate(-316.074 -52.373)" fill="#263238"/>
      <path id="Path_65722" data-name="Path 65722" d="M361.346,65.579c-.1.126-.82-.339-1.794-.279s-1.641.6-1.767.481.044-.268.345-.514a2.483,2.483,0,0,1,2.844-.164C361.286,65.316,361.4,65.524,361.346,65.579Z" transform="translate(-314.273 -49.992)" fill="#263238"/>
      <path id="Path_65723" data-name="Path 65723" d="M346.2,71.414a.908.908,0,0,1-.82.963.859.859,0,0,1-.979-.755.908.908,0,0,1,.815-.968.875.875,0,0,1,.985.76Z" transform="translate(-308.226 -52.671)" fill="#263238"/>
      <path id="Path_65724" data-name="Path 65724" d="M343.886,66.975c-.1.126-.82-.339-1.794-.279s-1.641.6-1.767.481.044-.268.345-.514a2.445,2.445,0,0,1,1.406-.547,2.4,2.4,0,0,1,1.433.366C343.826,66.712,343.957,66.92,343.886,66.975Z" transform="translate(-306.363 -50.617)" fill="#263238"/>
      <path id="Path_65725" data-name="Path 65725" d="M353.354,73.788a6.421,6.421,0,0,1,1.559-.383c.252-.038.481-.1.514-.273a1.307,1.307,0,0,0-.213-.727l-.842-1.849a32.96,32.96,0,0,1-1.958-4.846,33.113,33.113,0,0,1,2.341,4.677c.284.651.547,1.269.82,1.86a1.461,1.461,0,0,1,.191.968.624.624,0,0,1-.388.388,1.717,1.717,0,0,1-.416.088A6.564,6.564,0,0,1,353.354,73.788Z" transform="translate(-311.854 -50.434)" fill="#263238"/>
      <path id="Path_65726" data-name="Path 65726" d="M348.887,82c.159,0,.224,1.039,1.176,1.734s2.068.509,2.084.656c0,.066-.241.219-.711.263a2.664,2.664,0,0,1-1.739-.487,2.319,2.319,0,0,1-.919-1.46C348.7,82.284,348.805,82,348.887,82Z" transform="translate(-310.199 -57.815)" fill="#263238"/>
      <path id="Path_65727" data-name="Path 65727" d="M343.259,60.174c-.077.273-1.056.208-2.188.416s-2.04.547-2.188.345c-.077-.109.071-.366.427-.645a3.692,3.692,0,0,1,1.608-.678,3.746,3.746,0,0,1,1.739.1C343.068,59.852,343.314,60.048,343.259,60.174Z" transform="translate(-305.72 -47.645)" fill="#263238"/>
      <path id="Path_65728" data-name="Path 65728" d="M360.619,60.416c-.159.235-.842.044-1.641.082s-1.482.241-1.641,0c-.077-.109,0-.339.306-.547a2.243,2.243,0,0,1,1.313-.443,2.27,2.27,0,0,1,1.34.361C360.581,60.082,360.69,60.323,360.619,60.416Z" transform="translate(-314.076 -47.624)" fill="#263238"/>
      <path id="Path_65729" data-name="Path 65729" d="M346.281,48.52s-1.914-3.862-3.884-4.671c-2.379-.979-3.222,1.641-5.47,1.143s-4.518-1.417-6.668.427c-2.352,2.018-1.094,3.254-1.094,6.071.082,11.426-1.8,14.768-2.735,9.446-.1-.585-1.761-.952-2.155-3.419-.514-3.2-.881-7.111-.3-9.43a8.9,8.9,0,0,1,3.38-4.923c2.965-2.505,7.231-2.817,10.152-2.735S346.281,43.537,346.281,48.52Z" transform="translate(-298.841 -38.977)" fill="#263238"/>
      <path id="Path_65730" data-name="Path 65730" d="M326.011,76.278a1.717,1.717,0,0,0-1.953-1.542c-1.176.186-2.45.935-2.221,3.375.4,4.316,4.66,3.019,4.655,2.893S326.2,78.083,326.011,76.278Z" transform="translate(-297.994 -54.516)" fill="#ffbe9d"/>
      <path id="Path_65731" data-name="Path 65731" d="M326.65,80.63a1.53,1.53,0,0,1-.191.131.749.749,0,0,1-.547.066,1.879,1.879,0,0,1-1.023-1.592A2.477,2.477,0,0,1,325,78.141a.881.881,0,0,1,.509-.634.394.394,0,0,1,.465.164c.066.12.049.208.071.213s.088-.082.038-.257a.547.547,0,0,0-.2-.257.585.585,0,0,0-.427-.071,1.056,1.056,0,0,0-.722.744,2.532,2.532,0,0,0-.148,1.231,1.962,1.962,0,0,0,1.269,1.761.815.815,0,0,0,.678-.181C326.655,80.739,326.666,80.636,326.65,80.63Z" transform="translate(-299.245 -55.679)" fill="#8b5d54"/>
      <path id="Path_65732" data-name="Path 65732" d="M325.086,51.155a4.064,4.064,0,0,0,1.882.733,1.406,1.406,0,0,0,1.5-1.094c.033-.3-.06-.651.12-.892s.662-.235,1.028-.219a2.768,2.768,0,0,0,2.735-2.155,1.16,1.16,0,0,0,1.564.049,6.191,6.191,0,0,0,1.094-1.335,1.778,1.778,0,0,1,1.439-.831,4.462,4.462,0,0,0,.957.148c.547-.088.8-.766.853-1.335s.077-1.236.547-1.57a2.154,2.154,0,0,1,1.548-.137c.531.049,1.2-.12,1.3-.64a1.034,1.034,0,0,0-.241-.777,2.806,2.806,0,0,0-3.375-.853,3.829,3.829,0,0,0-7.023-.306,3.856,3.856,0,0,0-6.071,1.789,2.8,2.8,0,0,0-2.9,4.261,2.658,2.658,0,0,0-1.335,2.188,1.528,1.528,0,0,0,1.821,1.449,1.551,1.551,0,1,0,2.768,1.4" transform="translate(-297.495 -37.783)" fill="#263238"/>
      <path id="Path_65733" data-name="Path 65733" d="M338.782,44.59v.077a2.071,2.071,0,0,1,0,.235,2.824,2.824,0,0,1-.263.853,3.107,3.107,0,0,1-.9,1.094,2.926,2.926,0,0,1-1.745.613l.066-.1a1.542,1.542,0,0,1,0,1.2,4.376,4.376,0,0,1-.673,1.094,3.311,3.311,0,0,1-.454.547,1.5,1.5,0,0,1-.673.3,1.581,1.581,0,0,1-1.422-.416l.159-.055a3.282,3.282,0,0,1-1.236,2.33,2.368,2.368,0,0,1-1.395.547,4.376,4.376,0,0,1-1.422-.219l.115-.06a3.43,3.43,0,0,1-.941,1.4,1.838,1.838,0,0,1-1.482.5,2.4,2.4,0,0,1-1.953-1.756l.1.044a2.232,2.232,0,0,1-1.477.306,2.379,2.379,0,0,1-1.094-.4,2.128,2.128,0,0,1-.514-.5c-.088-.137-.126-.213-.126-.213a2.693,2.693,0,0,0,.684.651,2.374,2.374,0,0,0,1.034.356,2.1,2.1,0,0,0,1.389-.317l.082-.049v.093a2.248,2.248,0,0,0,1.843,1.641,1.641,1.641,0,0,0,1.346-.47,3.243,3.243,0,0,0,.881-1.329l.033-.082h.082a4.069,4.069,0,0,0,1.356.213,2.188,2.188,0,0,0,1.285-.514,3.063,3.063,0,0,0,1.171-2.188v-.2l.142.148a1.46,1.46,0,0,0,1.854.109,3.181,3.181,0,0,0,.427-.5,4.163,4.163,0,0,0,.662-1.061,1.422,1.422,0,0,0,.027-1.094l-.038-.1h.1a2.817,2.817,0,0,0,1.674-.547,3.09,3.09,0,0,0,.892-1.028,3.358,3.358,0,0,0,.394-1.16Z" transform="translate(-297.835 -40.867)" fill="#455a64"/>
      <path id="Path_65734" data-name="Path 65734" d="M356.721,67.681a7,7,0,0,1-.284-1.012,4.261,4.261,0,0,1,.448-2.735,4.173,4.173,0,0,1,1.291-1.449,4.255,4.255,0,0,1,2.084-.755,4.118,4.118,0,0,1,1.209.077,3.944,3.944,0,0,1,1.176.443,4.2,4.2,0,0,1,2.078,4.512,3.984,3.984,0,0,1-.438,1.181,3.828,3.828,0,0,1-.722.963A4.267,4.267,0,0,1,361.633,70a4.332,4.332,0,0,1-1.942.033,4.277,4.277,0,0,1-2.385-1.455,7.417,7.417,0,0,1-.585-.875,1.912,1.912,0,0,0,.109.252,1.841,1.841,0,0,0,.164.29,2.883,2.883,0,0,0,.257.372,4.3,4.3,0,0,0,4.414,1.515,4.376,4.376,0,0,0,2.007-1.094,4.048,4.048,0,0,0,.755-1,3.925,3.925,0,0,0,.454-1.225,4.376,4.376,0,0,0-2.155-4.693,4.256,4.256,0,0,0-1.225-.454,4.053,4.053,0,0,0-1.253-.071,4.321,4.321,0,0,0-3.468,2.3,4.261,4.261,0,0,0-.41,2.828,3.233,3.233,0,0,0,.115.443,1.808,1.808,0,0,0,.115.312A1.482,1.482,0,0,0,356.721,67.681Z" transform="translate(-313.613 -48.561)" fill="#263238"/>
      <path id="Path_65735" data-name="Path 65735" d="M336.291,68.841a9.912,9.912,0,0,1-.284-1.012,4.3,4.3,0,0,1,.454-2.735,4.163,4.163,0,0,1,1.285-1.449,4.217,4.217,0,0,1,2.089-.788,3.905,3.905,0,0,1,1.2.077,4.032,4.032,0,0,1,1.181.443,4.208,4.208,0,0,1-2.954,7.783,4.234,4.234,0,0,1-2.39-1.455,7.732,7.732,0,0,1-.585-.87,1.642,1.642,0,0,0,.115.252,1.763,1.763,0,0,0,.159.29,2.988,2.988,0,0,0,.263.372,4.267,4.267,0,0,0,2.412,1.532,4.321,4.321,0,0,0,4-1.138,4.039,4.039,0,0,0,.76-1,4.256,4.256,0,0,0,.454-1.231,4.343,4.343,0,0,0-2.188-4.688,4.1,4.1,0,0,0-1.225-.454,4.048,4.048,0,0,0-1.253-.071,4.376,4.376,0,0,0-2.155.793,4.3,4.3,0,0,0-1.313,1.51,4.25,4.25,0,0,0-.4,2.828,2.525,2.525,0,0,0,.115.438,1.712,1.712,0,0,0,.115.317A1.886,1.886,0,0,0,336.291,68.841Z" transform="translate(-304.347 -49.064)" fill="#263238"/>
      <path id="Path_65736" data-name="Path 65736" d="M351.579,68.537a2.948,2.948,0,0,1,2.647-.137,1.083,1.083,0,0,0-.35-.235,2.188,2.188,0,0,0-1.975.1C351.672,68.379,351.562,68.5,351.579,68.537Z" transform="translate(-311.479 -51.463)" fill="#263238"/>
      <path id="Path_65737" data-name="Path 65737" d="M328.77,73.79a13.614,13.614,0,0,0,2.013-.946,14.186,14.186,0,0,0,1.936-1.094,14.323,14.323,0,0,0-2.013.946,15.382,15.382,0,0,0-1.936,1.094Z" transform="translate(-301.147 -53.171)" fill="#263238"/>
    </g>
    <g id="freepik--Coins--inject-8" transform="translate(109.587 196.573)">
      <path id="Path_65738" data-name="Path 65738" d="M187.272,373.58a17.82,17.82,0,1,1-9.763-23.2A17.82,17.82,0,0,1,187.272,373.58Z" transform="translate(-150.707 -349.047)" fill="#efa00b"/>
      <path id="Path_65739" data-name="Path 65739" d="M186.857,375.513a13.581,13.581,0,1,1-7.439-17.683,13.581,13.581,0,0,1,7.439,17.683Z" transform="translate(-154.22 -352.566)" fill="#efa00b"/>
      <path id="Path_65740" data-name="Path 65740" d="M186.758,375.435a1.385,1.385,0,0,1,.06-.213l.2-.613.148-.448c.049-.17.088-.356.131-.547a9.122,9.122,0,0,0,.268-1.4,12.946,12.946,0,0,0-.044-3.889,13.483,13.483,0,0,0-12.8-11.415,13.961,13.961,0,0,0-1.909.044c-.323.038-.64.1-.963.148a6.422,6.422,0,0,0-.963.208,16.081,16.081,0,0,0-1.9.618,14.911,14.911,0,0,0-1.805.941A12.954,12.954,0,0,0,164,361.558a13.324,13.324,0,0,0-3.205,7.838,13.127,13.127,0,0,0,.377,4.151,12.58,12.58,0,0,0,1.553,3.714,12.384,12.384,0,0,0,2.456,2.975,13.51,13.51,0,0,0,17.131.826,12.8,12.8,0,0,0,2.735-2.735,9.914,9.914,0,0,0,.793-1.181c.109-.181.213-.339.3-.492s.148-.3.208-.427l.29-.574a1.573,1.573,0,0,1,.1-.2,1.125,1.125,0,0,1-.077.208l-.263.591-.2.432c-.082.159-.186.323-.284.5a10.258,10.258,0,0,1-.782,1.2A12.757,12.757,0,0,1,182.4,381.2a13.385,13.385,0,0,1-4.666,2.292,13.587,13.587,0,0,1-6.3.208A13.8,13.8,0,0,1,165,380.445a15,15,0,0,1-1.362-1.4,13.833,13.833,0,0,1-1.149-1.641,16.227,16.227,0,0,1-.946-1.811,14.958,14.958,0,0,1-.645-1.98,13.181,13.181,0,0,1-.394-4.234,13.506,13.506,0,0,1,3.276-8.008,13.263,13.263,0,0,1,3.249-2.735,15.537,15.537,0,0,1,1.849-.952,14.855,14.855,0,0,1,1.942-.629,6.644,6.644,0,0,1,.979-.213c.328-.044.656-.109.985-.142a13.986,13.986,0,0,1,8.823,2.144,13.7,13.7,0,0,1,6.071,9.463,13.045,13.045,0,0,1,0,3.933,9.841,9.841,0,0,1-.3,1.406c-.049.2-.093.388-.142.547l-.164.449c-.1.252-.175.454-.23.6A1.092,1.092,0,0,1,186.758,375.435Z" transform="translate(-154.121 -352.487)" fill="#263238"/>
      <g id="Group_160895" data-name="Group 160895" transform="translate(7.244 4.259)" opacity="0.3">
        <path id="Path_65741" data-name="Path 65741" d="M187.349,375.592a7.482,7.482,0,0,1,.284-1.641,14.351,14.351,0,0,0,.12-4.447,14.115,14.115,0,0,0-.711-2.959,13.566,13.566,0,0,0-1.6-3.074,13.159,13.159,0,0,0-2.609-2.779,13.079,13.079,0,0,0-5.552-2.571,12.585,12.585,0,0,0-2-.241,12.1,12.1,0,0,0-1.947.06,12.467,12.467,0,0,0-1.843.328,13.515,13.515,0,0,0-3.227,1.28,14.218,14.218,0,0,0-2.478,1.772,14.588,14.588,0,0,0-2.8,3.446,9.058,9.058,0,0,1-.859,1.433c-.077-.027.06-.618.5-1.641a12.613,12.613,0,0,1,2.658-3.8,13.708,13.708,0,0,1,2.554-1.98,13.9,13.9,0,0,1,3.413-1.46,13.281,13.281,0,0,1,1.975-.388,12.632,12.632,0,0,1,2.095-.093,13.411,13.411,0,0,1,2.188.246,14.091,14.091,0,0,1,2.155.607,14.265,14.265,0,0,1,2.024.952,13.512,13.512,0,0,1,1.8,1.225,13.676,13.676,0,0,1,1.521,1.444,13.447,13.447,0,0,1,1.242,1.592,13.674,13.674,0,0,1,2.254,6.5,12.691,12.691,0,0,1-.476,4.611A4.074,4.074,0,0,1,187.349,375.592Z" transform="translate(-162.103 -356.833)"/>
      </g>
      <g id="Group_160896" data-name="Group 160896" transform="translate(12.159 8.792)" opacity="0.3">
        <path id="Path_65742" data-name="Path 65742" d="M177.358,382.191l-.864,2.188-1.969-.771.842-2.144a10.018,10.018,0,0,1-4.277-3.5l2.018-1.975a8.56,8.56,0,0,0,3.282,2.893l1.285-3.282c-1.975-1.389-4.124-3.074-3.025-5.885.82-2.084,3.036-3.282,6.279-2.412l.859-2.188,1.964.771-.837,2.144a9.527,9.527,0,0,1,3.517,2.762l-1.931,2.035a8.586,8.586,0,0,0-2.609-2.188l-1.307,3.342c1.98,1.367,4.091,3.036,3.008,5.809C182.779,381.846,180.591,383.028,177.358,382.191Zm1.444-9.463,1.094-2.79c-1.138-.175-1.772.235-2.029.881s.175,1.3.935,1.893Zm1.537,6.066c.268-.689-.153-1.285-.886-1.914l-1.061,2.735C179.442,379.768,180.077,379.423,180.339,378.794Z" transform="translate(-171.09 -365.12)"/>
      </g>
      <rect id="Rectangle_147744" data-name="Rectangle 147744" width="34.218" height="6.214" transform="translate(52.782 46.839)" fill="#efa00b"/>
      <path id="Path_65743" data-name="Path 65743" d="M251.372,441.014a33.471,33.471,0,0,1,0-6.164,33.469,33.469,0,0,1,0,6.164Z" transform="translate(-195.237 -387.918)" fill="#263238"/>
      <path id="Path_65744" data-name="Path 65744" d="M247.952,441.014a33.471,33.471,0,0,1,0-6.164A33.467,33.467,0,0,1,247.952,441.014Z" transform="translate(-193.688 -387.918)" fill="#263238"/>
      <path id="Path_65745" data-name="Path 65745" d="M258.882,441.014a33.473,33.473,0,0,1,0-6.164A33.473,33.473,0,0,1,258.882,441.014Z" transform="translate(-198.639 -387.918)" fill="#263238"/>
      <path id="Path_65746" data-name="Path 65746" d="M255.462,441.014a33.471,33.471,0,0,1,0-6.164,33.467,33.467,0,0,1,0,6.164Z" transform="translate(-197.09 -387.918)" fill="#263238"/>
      <path id="Path_65747" data-name="Path 65747" d="M266.4,441.014a33.457,33.457,0,0,1,0-6.164,33.473,33.473,0,0,1,0,6.164Z" transform="translate(-202.046 -387.918)" fill="#263238"/>
      <path id="Path_65748" data-name="Path 65748" d="M262.982,441.014a33.468,33.468,0,0,1,0-6.164,33.475,33.475,0,0,1,0,6.164Z" transform="translate(-200.497 -387.918)" fill="#263238"/>
      <path id="Path_65749" data-name="Path 65749" d="M273.882,441.014a33.473,33.473,0,0,1,0-6.164,33.465,33.465,0,0,1,0,6.164Z" transform="translate(-205.435 -387.918)" fill="#263238"/>
      <path id="Path_65750" data-name="Path 65750" d="M270.492,441.014a33.463,33.463,0,0,1,0-6.164A32.244,32.244,0,0,1,270.492,441.014Z" transform="translate(-203.899 -387.918)" fill="#263238"/>
      <path id="Path_65751" data-name="Path 65751" d="M281.432,441.014a33.463,33.463,0,0,1,0-6.164,33.471,33.471,0,0,1,0,6.164Z" transform="translate(-208.855 -387.918)" fill="#263238"/>
      <path id="Path_65752" data-name="Path 65752" d="M278.012,441.014a33.473,33.473,0,0,1,0-6.164,33.47,33.47,0,0,1,0,6.164Z" transform="translate(-207.306 -387.918)" fill="#263238"/>
      <path id="Path_65753" data-name="Path 65753" d="M288.952,441.014a33.463,33.463,0,0,1,0-6.164,33.473,33.473,0,0,1,0,6.164Z" transform="translate(-212.262 -387.918)" fill="#263238"/>
      <path id="Path_65754" data-name="Path 65754" d="M285.532,441.014a33.468,33.468,0,0,1,0-6.164,33.473,33.473,0,0,1,0,6.164Z" transform="translate(-210.712 -387.918)" fill="#263238"/>
      <path id="Path_65755" data-name="Path 65755" d="M296.472,441.014a33.463,33.463,0,0,1,0-6.164A33.473,33.473,0,0,1,296.472,441.014Z" transform="translate(-215.669 -387.918)" fill="#263238"/>
      <path id="Path_65756" data-name="Path 65756" d="M293.042,441.014a33.473,33.473,0,0,1,0-6.164,33.47,33.47,0,0,1,0,6.164Z" transform="translate(-214.115 -387.918)" fill="#263238"/>
      <path id="Path_65757" data-name="Path 65757" d="M303.982,441.014a33.468,33.468,0,0,1,0-6.164,33.473,33.473,0,0,1,0,6.164Z" transform="translate(-219.071 -387.918)" fill="#263238"/>
      <path id="Path_65758" data-name="Path 65758" d="M300.562,441.014a33.457,33.457,0,0,1,0-6.164,33.473,33.473,0,0,1,0,6.164Z" transform="translate(-217.522 -387.918)" fill="#263238"/>
      <path id="Path_65759" data-name="Path 65759" d="M279.374,434.562c0,.082-7.712.142-17.224.142s-17.23-.06-17.23-.142,7.712-.142,17.23-.142S279.374,434.486,279.374,434.562Z" transform="translate(-192.378 -387.724)" fill="#263238"/>
      <rect id="Rectangle_147745" data-name="Rectangle 147745" width="34.218" height="6.214" transform="translate(50.097 53.003)" fill="#efa00b"/>
      <path id="Path_65760" data-name="Path 65760" d="M246.462,452.284a33.465,33.465,0,0,1,0-6.164,33.469,33.469,0,0,1,0,6.164Z" transform="translate(-193.012 -393.024)" fill="#263238"/>
      <path id="Path_65761" data-name="Path 65761" d="M243.042,452.284a33.468,33.468,0,0,1,0-6.164A33.468,33.468,0,0,1,243.042,452.284Z" transform="translate(-191.463 -393.024)" fill="#263238"/>
      <path id="Path_65762" data-name="Path 65762" d="M253.982,452.284a33.468,33.468,0,0,1,0-6.164,33.47,33.47,0,0,1,0,6.164Z" transform="translate(-196.419 -393.024)" fill="#263238"/>
      <path id="Path_65763" data-name="Path 65763" d="M250.562,452.284a33.468,33.468,0,0,1,0-6.164A33.468,33.468,0,0,1,250.562,452.284Z" transform="translate(-194.87 -393.024)" fill="#263238"/>
      <path id="Path_65764" data-name="Path 65764" d="M261.5,452.284a33.473,33.473,0,0,1,0-6.164A33.468,33.468,0,0,1,261.5,452.284Z" transform="translate(-199.826 -393.024)" fill="#263238"/>
      <path id="Path_65765" data-name="Path 65765" d="M258.072,452.284a33.473,33.473,0,0,1,0-6.164A33.468,33.468,0,0,1,258.072,452.284Z" transform="translate(-198.272 -393.024)" fill="#263238"/>
      <path id="Path_65766" data-name="Path 65766" d="M269.012,452.284a33.473,33.473,0,0,1,0-6.164A33.473,33.473,0,0,1,269.012,452.284Z" transform="translate(-203.228 -393.024)" fill="#263238"/>
      <path id="Path_65767" data-name="Path 65767" d="M265.592,452.284a33.468,33.468,0,0,1,0-6.164A33.47,33.47,0,0,1,265.592,452.284Z" transform="translate(-201.679 -393.024)" fill="#263238"/>
      <path id="Path_65768" data-name="Path 65768" d="M276.532,452.284a33.468,33.468,0,0,1,0-6.164,33.462,33.462,0,0,1,0,6.164Z" transform="translate(-206.635 -393.024)" fill="#263238"/>
      <path id="Path_65769" data-name="Path 65769" d="M273.112,452.284a33.468,33.468,0,0,1,0-6.164A33.468,33.468,0,0,1,273.112,452.284Z" transform="translate(-205.086 -393.024)" fill="#263238"/>
      <path id="Path_65770" data-name="Path 65770" d="M284.052,452.284a33.468,33.468,0,0,1,0-6.164,33.465,33.465,0,0,1,0,6.164Z" transform="translate(-210.042 -393.024)" fill="#263238"/>
      <path id="Path_65771" data-name="Path 65771" d="M280.622,452.284a33.473,33.473,0,0,1,0-6.164A33.468,33.468,0,0,1,280.622,452.284Z" transform="translate(-208.488 -393.024)" fill="#263238"/>
      <path id="Path_65772" data-name="Path 65772" d="M291.562,452.284a33.462,33.462,0,0,1,0-6.164A33.478,33.478,0,0,1,291.562,452.284Z" transform="translate(-213.444 -393.024)" fill="#263238"/>
      <path id="Path_65773" data-name="Path 65773" d="M288.142,452.284a33.478,33.478,0,0,1,0-6.164A33.473,33.473,0,0,1,288.142,452.284Z" transform="translate(-211.895 -393.024)" fill="#263238"/>
      <path id="Path_65774" data-name="Path 65774" d="M299.082,452.284a33.462,33.462,0,0,1,0-6.164A33.478,33.478,0,0,1,299.082,452.284Z" transform="translate(-216.851 -393.024)" fill="#263238"/>
      <path id="Path_65775" data-name="Path 65775" d="M295.662,452.284a33.468,33.468,0,0,1,0-6.164A33.468,33.468,0,0,1,295.662,452.284Z" transform="translate(-215.302 -393.024)" fill="#263238"/>
      <path id="Path_65776" data-name="Path 65776" d="M274.527,445.882c0,.082-7.7.142-17.186.142s-17.191-.06-17.191-.142,7.7-.142,17.191-.142S274.527,445.778,274.527,445.882Z" transform="translate(-190.217 -392.852)" fill="#263238"/>
      <rect id="Rectangle_147746" data-name="Rectangle 147746" width="34.218" height="6.214" transform="translate(47.898 59.26)" fill="#efa00b"/>
      <path id="Path_65777" data-name="Path 65777" d="M242.442,463.724a33.47,33.47,0,0,1,0-6.164,33.465,33.465,0,0,1,0,6.164Z" transform="translate(-191.191 -398.207)" fill="#263238"/>
      <path id="Path_65778" data-name="Path 65778" d="M239.022,463.724a33.468,33.468,0,0,1,0-6.164A33.468,33.468,0,0,1,239.022,463.724Z" transform="translate(-189.642 -398.207)" fill="#263238"/>
      <path id="Path_65779" data-name="Path 65779" d="M249.962,463.724a33.473,33.473,0,0,1,0-6.164A33.468,33.468,0,0,1,249.962,463.724Z" transform="translate(-194.598 -398.207)" fill="#263238"/>
      <path id="Path_65780" data-name="Path 65780" d="M246.542,463.724a33.473,33.473,0,0,1,0-6.164A33.468,33.468,0,0,1,246.542,463.724Z" transform="translate(-193.049 -398.207)" fill="#263238"/>
      <path id="Path_65781" data-name="Path 65781" d="M257.482,463.724a33.468,33.468,0,0,1,0-6.164A33.468,33.468,0,0,1,257.482,463.724Z" transform="translate(-198.005 -398.207)" fill="#263238"/>
      <path id="Path_65782" data-name="Path 65782" d="M254.062,463.724a33.465,33.465,0,0,1,0-6.164,33.468,33.468,0,0,1,0,6.164Z" transform="translate(-196.456 -398.207)" fill="#263238"/>
      <path id="Path_65783" data-name="Path 65783" d="M264.992,463.724a33.468,33.468,0,0,1,0-6.164A33.468,33.468,0,0,1,264.992,463.724Z" transform="translate(-201.407 -398.207)" fill="#263238"/>
      <path id="Path_65784" data-name="Path 65784" d="M261.572,463.724a33.468,33.468,0,0,1,0-6.164A33.473,33.473,0,0,1,261.572,463.724Z" transform="translate(-199.858 -398.207)" fill="#263238"/>
      <path id="Path_65785" data-name="Path 65785" d="M272.512,463.724a33.462,33.462,0,0,1,0-6.164A33.473,33.473,0,0,1,272.512,463.724Z" transform="translate(-204.814 -398.207)" fill="#263238"/>
      <path id="Path_65786" data-name="Path 65786" d="M269.092,463.724a33.468,33.468,0,0,1,0-6.164,33.465,33.465,0,0,1,0,6.164Z" transform="translate(-203.265 -398.207)" fill="#263238"/>
      <path id="Path_65787" data-name="Path 65787" d="M280.032,463.724a33.468,33.468,0,0,1,0-6.164A33.473,33.473,0,0,1,280.032,463.724Z" transform="translate(-208.221 -398.207)" fill="#263238"/>
      <path id="Path_65788" data-name="Path 65788" d="M276.6,463.724a33.473,33.473,0,0,1,0-6.164,32.241,32.241,0,0,1,0,6.164Z" transform="translate(-206.667 -398.207)" fill="#263238"/>
      <path id="Path_65789" data-name="Path 65789" d="M287.542,463.724a33.462,33.462,0,0,1,0-6.164A33.468,33.468,0,0,1,287.542,463.724Z" transform="translate(-211.623 -398.207)" fill="#263238"/>
      <path id="Path_65790" data-name="Path 65790" d="M284.122,463.724a33.468,33.468,0,0,1,0-6.164A33.468,33.468,0,0,1,284.122,463.724Z" transform="translate(-210.074 -398.207)" fill="#263238"/>
      <path id="Path_65791" data-name="Path 65791" d="M295.062,463.724a33.473,33.473,0,0,1,0-6.164A33.468,33.468,0,0,1,295.062,463.724Z" transform="translate(-215.03 -398.207)" fill="#263238"/>
      <path id="Path_65792" data-name="Path 65792" d="M291.642,463.724a33.473,33.473,0,0,1,0-6.164A33.473,33.473,0,0,1,291.642,463.724Z" transform="translate(-213.48 -398.207)" fill="#263238"/>
      <path id="Path_65793" data-name="Path 65793" d="M270.527,457.272c0,.082-7.7.142-17.186.142s-17.191-.06-17.191-.142,7.7-.142,17.191-.142S270.527,457.2,270.527,457.272Z" transform="translate(-188.405 -398.012)" fill="#263238"/>
      <g id="Group_160897" data-name="Group 160897" transform="translate(54.773 53.069)" opacity="0.3">
        <path id="Path_65794" data-name="Path 65794" d="M249,446.07a52.349,52.349,0,0,0,15.807,1.149c5.251-.35,10.551-1.121,15.813-1.056Z" transform="translate(-249 -446.07)"/>
      </g>
      <g id="Group_160898" data-name="Group 160898" transform="translate(48.319 59.342)" opacity="0.3">
        <path id="Path_65795" data-name="Path 65795" d="M237.2,457.54a52.354,52.354,0,0,0,15.807,1.149c5.251-.35,10.551-1.121,15.813-1.056Z" transform="translate(-237.2 -457.54)"/>
      </g>
      <ellipse id="Ellipse_2069" data-name="Ellipse 2069" cx="0.432" cy="0.142" rx="0.432" ry="0.142" transform="translate(53.105 47.068)" fill="#fff"/>
      <path id="Path_65796" data-name="Path 65796" d="M252.957,435.272a13.624,13.624,0,0,1-3.927,0A13.628,13.628,0,0,1,252.957,435.272Z" transform="translate(-194.24 -388.045)" fill="#fff"/>
      <path id="Path_65797" data-name="Path 65797" d="M262.887,435.272a13.624,13.624,0,0,1-3.927,0,13.628,13.628,0,0,1,3.927,0Z" transform="translate(-198.739 -388.045)" fill="#fff"/>
      <path id="Path_65798" data-name="Path 65798" d="M470.677,415.365a17.82,17.82,0,1,1-22.929-10.392,17.82,17.82,0,0,1,22.929,10.392Z" transform="translate(-279.025 -373.865)" fill="#efa00b"/>
      <path id="Path_65799" data-name="Path 65799" d="M470.226,420.369a13.581,13.581,0,1,1-17.476-7.915A13.581,13.581,0,0,1,470.226,420.369Z" transform="translate(-282.539 -377.376)" fill="#efa00b"/>
      <path id="Path_65800" data-name="Path 65800" d="M470.106,420.31a1.566,1.566,0,0,1-.1-.2l-.268-.585-.2-.432c-.077-.159-.181-.317-.279-.5a10.128,10.128,0,0,0-.76-1.209,12.9,12.9,0,0,0-2.68-2.822,13.483,13.483,0,0,0-17.142.323,13.684,13.684,0,0,0-1.367,1.335c-.213.246-.4.509-.613.76a7.631,7.631,0,0,0-.547.81,15.866,15.866,0,0,0-.974,1.745,15.373,15.373,0,0,0-.684,1.92,12.886,12.886,0,0,0-.5,4.135,13.269,13.269,0,0,0,2.976,7.931,12.9,12.9,0,0,0,3.1,2.784,15.8,15.8,0,0,0,1.778,1,15.471,15.471,0,0,0,1.854.7,14.762,14.762,0,0,0,1.914.41,15.076,15.076,0,0,0,1.914.1,13.486,13.486,0,0,0,13.127-11.065,13.034,13.034,0,0,0,.159-3.889,10.532,10.532,0,0,0-.224-1.406c-.044-.2-.071-.394-.115-.547s-.1-.317-.137-.454c-.077-.263-.137-.465-.186-.618a1.1,1.1,0,0,1-.049-.213,1.234,1.234,0,0,1,.077.2c.055.153.126.356.213.613l.148.454c.049.17.087.356.131.547a9.5,9.5,0,0,1,.252,1.417,12.745,12.745,0,0,1-.109,3.927,13.674,13.674,0,0,1-6.345,9.3,13.893,13.893,0,0,1-8.883,1.887,14.422,14.422,0,0,1-1.953-.41,15.859,15.859,0,0,1-1.925-.689,15.545,15.545,0,0,1-1.816-1.006,13.21,13.21,0,0,1-3.167-2.839,14.556,14.556,0,0,1-2.188-3.8,14.715,14.715,0,0,1-.853-4.3,13.266,13.266,0,0,1,.52-4.223,12.172,12.172,0,0,1,1.7-3.736,6.13,6.13,0,0,1,.574-.82c.208-.263.4-.547.624-.777a13.622,13.622,0,0,1,1.4-1.357,13.64,13.64,0,0,1,17.415-.252,12.8,12.8,0,0,1,2.664,2.888,8.752,8.752,0,0,1,.744,1.225c.1.186.2.35.273.509l.181.443.246.6A1.128,1.128,0,0,1,470.106,420.31Z" transform="translate(-282.419 -377.316)" fill="#263238"/>
      <g id="Group_160899" data-name="Group 160899" transform="translate(161.41 34.227)" opacity="0.3">
        <path id="Path_65801" data-name="Path 65801" d="M470.187,420.581c-.077.033-.339-.509-.908-1.406a14.608,14.608,0,0,0-2.915-3.353,14.219,14.219,0,0,0-2.533-1.685,13.473,13.473,0,0,0-3.282-1.165,12.1,12.1,0,0,0-1.854-.268,12.255,12.255,0,0,0-1.953,0,13.407,13.407,0,0,0-1.991.306,14.779,14.779,0,0,0-1.975.635,14.336,14.336,0,0,0-1.849.946,12.716,12.716,0,0,0-1.641,1.182,12.119,12.119,0,0,0-1.384,1.367,12.535,12.535,0,0,0-1.132,1.5,13.585,13.585,0,0,0-1.493,3.129,13.849,13.849,0,0,0-.618,2.986,14.687,14.687,0,0,0,.29,4.43,7.827,7.827,0,0,1,.345,1.641c-.077.038-.372-.492-.733-1.532a12.678,12.678,0,0,1-.58-4.611,14.03,14.03,0,0,1,.547-3.189,13.792,13.792,0,0,1,1.515-3.391,13.031,13.031,0,0,1,1.181-1.641,12.716,12.716,0,0,1,1.477-1.5,13.9,13.9,0,0,1,1.75-1.291,13.719,13.719,0,0,1,4.13-1.7,13.418,13.418,0,0,1,4.25-.3,13.673,13.673,0,0,1,5.47,1.668,14.112,14.112,0,0,1,2.615,1.893,12.673,12.673,0,0,1,2.784,3.7A4.808,4.808,0,0,1,470.187,420.581Z" transform="translate(-443.959 -411.623)"/>
      </g>
      <g id="Group_160900" data-name="Group 160900" transform="translate(168.496 38.547)" opacity="0.3">
        <path id="Path_65802" data-name="Path 65802" d="M467.677,435.781l.864,2.188-1.969.771-.859-2.128a9.993,9.993,0,0,1-5.508.345l.137-2.822a8.539,8.539,0,0,0,4.376-.1l-1.291-3.282c-2.39.328-5.114.547-6.214-2.259-.815-2.084,0-4.463,2.965-6.017l-.859-2.188,1.969-.771.837,2.144a9.6,9.6,0,0,1,4.463-.366l-.033,2.806a8.692,8.692,0,0,0-3.413.159l1.313,3.342c2.385-.345,5.065-.547,6.153,2.215C471.418,431.843,470.636,434.2,467.677,435.781Zm-5.377-7.92-1.094-2.79c-.946.64-1.138,1.373-.886,2.024S461.337,427.927,462.3,427.861Zm5.24,3.413c-.268-.689-.985-.837-1.947-.8l1.094,2.735c.87-.618,1.1-1.3.853-1.936Z" transform="translate(-456.915 -419.52)"/>
      </g>
      <rect id="Rectangle_147747" data-name="Rectangle 147747" width="34.218" height="6.214" transform="translate(209.122 46.806)" fill="#efa00b"/>
      <path id="Path_65803" data-name="Path 65803" d="M537.2,440.954a33.468,33.468,0,0,1,0-6.164A33.468,33.468,0,0,1,537.2,440.954Z" transform="translate(-324.727 -387.891)" fill="#263238"/>
      <path id="Path_65804" data-name="Path 65804" d="M533.782,440.954a33.478,33.478,0,0,1,0-6.164A33.468,33.468,0,0,1,533.782,440.954Z" transform="translate(-323.178 -387.891)" fill="#263238"/>
      <path id="Path_65805" data-name="Path 65805" d="M544.722,440.954a33.489,33.489,0,0,1,0-6.164A33.468,33.468,0,0,1,544.722,440.954Z" transform="translate(-328.134 -387.891)" fill="#263238"/>
      <path id="Path_65806" data-name="Path 65806" d="M541.3,440.954a33.468,33.468,0,0,1,0-6.164A33.468,33.468,0,0,1,541.3,440.954Z" transform="translate(-326.584 -387.891)" fill="#263238"/>
      <path id="Path_65807" data-name="Path 65807" d="M552.242,440.954a33.478,33.478,0,0,1,0-6.164A33.457,33.457,0,0,1,552.242,440.954Z" transform="translate(-331.541 -387.891)" fill="#263238"/>
      <path id="Path_65808" data-name="Path 65808" d="M548.812,440.954a33.468,33.468,0,0,1,0-6.164A33.478,33.478,0,0,1,548.812,440.954Z" transform="translate(-329.987 -387.891)" fill="#263238"/>
      <path id="Path_65809" data-name="Path 65809" d="M559.752,440.954a33.462,33.462,0,0,1,0-6.164,33.478,33.478,0,0,1,0,6.164Z" transform="translate(-334.943 -387.891)" fill="#263238"/>
      <path id="Path_65810" data-name="Path 65810" d="M556.332,440.954a33.457,33.457,0,0,1,0-6.164A33.478,33.478,0,0,1,556.332,440.954Z" transform="translate(-333.393 -387.891)" fill="#263238"/>
      <path id="Path_65811" data-name="Path 65811" d="M567.272,440.954a33.473,33.473,0,0,1,0-6.164,33.468,33.468,0,0,1,0,6.164Z" transform="translate(-338.35 -387.891)" fill="#263238"/>
      <path id="Path_65812" data-name="Path 65812" d="M563.882,440.954a33.457,33.457,0,0,1,0-6.164A33.489,33.489,0,0,1,563.882,440.954Z" transform="translate(-336.814 -387.891)" fill="#263238"/>
      <path id="Path_65813" data-name="Path 65813" d="M574.788,440.954a32.238,32.238,0,0,1,0-6.164A33.457,33.457,0,0,1,574.788,440.954Z" transform="translate(-341.752 -387.891)" fill="#263238"/>
      <path id="Path_65814" data-name="Path 65814" d="M571.362,440.954a33.457,33.457,0,0,1,0-6.164A33.468,33.468,0,0,1,571.362,440.954Z" transform="translate(-340.202 -387.891)" fill="#263238"/>
      <path id="Path_65815" data-name="Path 65815" d="M582.3,440.954a33.489,33.489,0,0,1,0-6.164A33.457,33.457,0,0,1,582.3,440.954Z" transform="translate(-345.159 -387.891)" fill="#263238"/>
      <path id="Path_65816" data-name="Path 65816" d="M578.882,440.954a33.473,33.473,0,0,1,0-6.164A33.462,33.462,0,0,1,578.882,440.954Z" transform="translate(-343.609 -387.891)" fill="#263238"/>
      <path id="Path_65817" data-name="Path 65817" d="M589.822,440.954a33.489,33.489,0,0,1,0-6.164A33.468,33.468,0,0,1,589.822,440.954Z" transform="translate(-348.566 -387.891)" fill="#263238"/>
      <path id="Path_65818" data-name="Path 65818" d="M586.4,440.954a33.468,33.468,0,0,1,0-6.164A33.457,33.457,0,0,1,586.4,440.954Z" transform="translate(-347.016 -387.891)" fill="#263238"/>
      <path id="Path_65819" data-name="Path 65819" d="M565.209,434.5c0,.082-7.712.142-17.229.142s-17.229-.06-17.229-.142,7.712-.142,17.229-.142S565.209,434.426,565.209,434.5Z" transform="translate(-321.868 -387.696)" fill="#263238"/>
      <rect id="Rectangle_147748" data-name="Rectangle 147748" width="34.218" height="6.214" transform="translate(206.442 52.97)" fill="#efa00b"/>
      <path id="Path_65820" data-name="Path 65820" d="M532.3,452.224a33.472,33.472,0,0,1,0-6.164,33.456,33.456,0,0,1,0,6.164Z" transform="translate(-322.507 -392.997)" fill="#263238"/>
      <path id="Path_65821" data-name="Path 65821" d="M528.882,452.224a33.467,33.467,0,0,1,0-6.164A33.478,33.478,0,0,1,528.882,452.224Z" transform="translate(-320.958 -392.997)" fill="#263238"/>
      <path id="Path_65822" data-name="Path 65822" d="M539.822,452.224a33.467,33.467,0,0,1,0-6.164,33.456,33.456,0,0,1,0,6.164Z" transform="translate(-325.914 -392.997)" fill="#263238"/>
      <path id="Path_65823" data-name="Path 65823" d="M536.392,452.224a33.467,33.467,0,0,1,0-6.164A33.467,33.467,0,0,1,536.392,452.224Z" transform="translate(-324.36 -392.997)" fill="#263238"/>
      <path id="Path_65824" data-name="Path 65824" d="M547.332,452.224a33.456,33.456,0,0,1,0-6.164A33.478,33.478,0,0,1,547.332,452.224Z" transform="translate(-329.316 -392.997)" fill="#263238"/>
      <path id="Path_65825" data-name="Path 65825" d="M543.882,452.224a33.478,33.478,0,0,1,0-6.164A33.456,33.456,0,0,1,543.882,452.224Z" transform="translate(-327.753 -392.997)" fill="#263238"/>
      <path id="Path_65826" data-name="Path 65826" d="M554.882,452.224a33.483,33.483,0,0,1,0-6.164,33.456,33.456,0,0,1,0,6.164Z" transform="translate(-332.737 -392.997)" fill="#263238"/>
      <path id="Path_65827" data-name="Path 65827" d="M551.432,452.224a33.472,33.472,0,0,1,0-6.164A33.472,33.472,0,0,1,551.432,452.224Z" transform="translate(-331.174 -392.997)" fill="#263238"/>
      <path id="Path_65828" data-name="Path 65828" d="M562.362,452.224a33.467,33.467,0,0,1,0-6.164,32.233,32.233,0,0,1,0,6.164Z" transform="translate(-336.125 -392.997)" fill="#263238"/>
      <path id="Path_65829" data-name="Path 65829" d="M558.942,452.224a33.478,33.478,0,0,1,0-6.164A33.456,33.456,0,0,1,558.942,452.224Z" transform="translate(-334.576 -392.997)" fill="#263238"/>
      <path id="Path_65830" data-name="Path 65830" d="M569.882,452.224a33.472,33.472,0,0,1,0-6.164,33.467,33.467,0,0,1,0,6.164Z" transform="translate(-339.532 -392.997)" fill="#263238"/>
      <path id="Path_65831" data-name="Path 65831" d="M566.462,452.224a33.467,33.467,0,0,1,0-6.164A33.467,33.467,0,0,1,566.462,452.224Z" transform="translate(-337.983 -392.997)" fill="#263238"/>
      <path id="Path_65832" data-name="Path 65832" d="M577.4,452.224a33.478,33.478,0,0,1,0-6.164A33.478,33.478,0,0,1,577.4,452.224Z" transform="translate(-342.939 -392.997)" fill="#263238"/>
      <path id="Path_65833" data-name="Path 65833" d="M573.982,452.224a33.478,33.478,0,0,1,0-6.164A33.456,33.456,0,0,1,573.982,452.224Z" transform="translate(-341.389 -392.997)" fill="#263238"/>
      <path id="Path_65834" data-name="Path 65834" d="M584.882,452.224a33.472,33.472,0,0,1,0-6.164,33.467,33.467,0,0,1,0,6.164Z" transform="translate(-346.328 -392.997)" fill="#263238"/>
      <path id="Path_65835" data-name="Path 65835" d="M581.492,452.224a33.472,33.472,0,0,1,0-6.164A33.472,33.472,0,0,1,581.492,452.224Z" transform="translate(-344.792 -392.997)" fill="#263238"/>
      <path id="Path_65836" data-name="Path 65836" d="M560.371,445.772c0,.082-7.69.142-17.186.142S526,445.832,526,445.772s7.7-.142,17.186-.142S560.371,445.7,560.371,445.772Z" transform="translate(-319.716 -392.802)" fill="#263238"/>
      <rect id="Rectangle_147749" data-name="Rectangle 147749" width="34.218" height="6.214" transform="translate(204.243 59.228)" fill="#efa00b"/>
      <path id="Path_65837" data-name="Path 65837" d="M528.282,463.664a33.463,33.463,0,0,1,0-6.164,33.468,33.468,0,0,1,0,6.164Z" transform="translate(-320.686 -398.179)" fill="#263238"/>
      <path id="Path_65838" data-name="Path 65838" d="M524.882,463.664a33.463,33.463,0,0,1,0-6.164,33.479,33.479,0,0,1,0,6.164Z" transform="translate(-319.146 -398.179)" fill="#263238"/>
      <path id="Path_65839" data-name="Path 65839" d="M535.8,463.664a33.458,33.458,0,0,1,0-6.164,33.468,33.468,0,0,1,0,6.164Z" transform="translate(-324.093 -398.179)" fill="#263238"/>
      <path id="Path_65840" data-name="Path 65840" d="M532.378,463.664a32.234,32.234,0,0,1,0-6.164,33.473,33.473,0,0,1,0,6.164Z" transform="translate(-322.539 -398.179)" fill="#263238"/>
      <path id="Path_65841" data-name="Path 65841" d="M543.312,463.664a33.458,33.458,0,0,1,0-6.164,33.479,33.479,0,0,1,0,6.164Z" transform="translate(-327.495 -398.179)" fill="#263238"/>
      <path id="Path_65842" data-name="Path 65842" d="M539.882,463.664a33.458,33.458,0,0,1,0-6.164,33.489,33.489,0,0,1,0,6.164Z" transform="translate(-325.941 -398.179)" fill="#263238"/>
      <path id="Path_65843" data-name="Path 65843" d="M550.882,463.664a33.458,33.458,0,0,1,0-6.164,33.484,33.484,0,0,1,0,6.164Z" transform="translate(-330.924 -398.179)" fill="#263238"/>
      <path id="Path_65844" data-name="Path 65844" d="M547.412,463.664a33.49,33.49,0,0,1,0-6.164A33.458,33.458,0,0,1,547.412,463.664Z" transform="translate(-329.352 -398.179)" fill="#263238"/>
      <path id="Path_65845" data-name="Path 65845" d="M558.352,463.664a33.463,33.463,0,0,1,0-6.164,33.463,33.463,0,0,1,0,6.164Z" transform="translate(-334.309 -398.179)" fill="#263238"/>
      <path id="Path_65846" data-name="Path 65846" d="M554.882,463.664a33.485,33.485,0,0,1,0-6.164,33.457,33.457,0,0,1,0,6.164Z" transform="translate(-332.737 -398.179)" fill="#263238"/>
      <path id="Path_65847" data-name="Path 65847" d="M565.882,463.664a33.469,33.469,0,0,1,0-6.164,33.479,33.479,0,0,1,0,6.164Z" transform="translate(-337.72 -398.179)" fill="#263238"/>
      <path id="Path_65848" data-name="Path 65848" d="M562.442,463.664a33.458,33.458,0,0,1,0-6.164,33.468,33.468,0,0,1,0,6.164Z" transform="translate(-336.161 -398.179)" fill="#263238"/>
      <path id="Path_65849" data-name="Path 65849" d="M573.382,463.664a33.469,33.469,0,0,1,0-6.164,33.479,33.479,0,0,1,0,6.164Z" transform="translate(-341.118 -398.179)" fill="#263238"/>
      <path id="Path_65850" data-name="Path 65850" d="M569.962,463.664a33.458,33.458,0,0,1,0-6.164,33.468,33.468,0,0,1,0,6.164Z" transform="translate(-339.568 -398.179)" fill="#263238"/>
      <path id="Path_65851" data-name="Path 65851" d="M580.878,463.664a32.239,32.239,0,0,1,0-6.164A33.469,33.469,0,0,1,580.878,463.664Z" transform="translate(-344.511 -398.179)" fill="#263238"/>
      <path id="Path_65852" data-name="Path 65852" d="M577.472,463.664a33.49,33.49,0,0,1,0-6.164A33.469,33.469,0,0,1,577.472,463.664Z" transform="translate(-342.971 -398.179)" fill="#263238"/>
      <path id="Path_65853" data-name="Path 65853" d="M556.357,457.212c0,.082-7.7.142-17.191.142s-17.186-.06-17.186-.142,7.7-.142,17.186-.142S556.357,457.136,556.357,457.212Z" transform="translate(-317.895 -397.985)" fill="#263238"/>
      <g id="Group_160901" data-name="Group 160901" transform="translate(211.091 53.03)" opacity="0.3">
        <path id="Path_65854" data-name="Path 65854" d="M534.79,446a52.31,52.31,0,0,0,15.8,1.149c5.251-.35,10.556-1.121,15.818-1.056Z" transform="translate(-534.79 -446)"/>
      </g>
      <g id="Group_160902" data-name="Group 160902" transform="translate(204.643 59.31)" opacity="0.3">
        <path id="Path_65855" data-name="Path 65855" d="M523,457.48a52.313,52.313,0,0,0,15.8,1.149c5.251-.35,10.556-1.121,15.818-1.056Z" transform="translate(-523 -457.48)"/>
      </g>
      <ellipse id="Ellipse_2070" data-name="Ellipse 2070" cx="0.432" cy="0.142" rx="0.432" ry="0.142" transform="translate(209.45 47.036)" fill="#fff"/>
      <path id="Path_65856" data-name="Path 65856" d="M538.8,435.212a13.627,13.627,0,0,1-3.927,0A13.623,13.623,0,0,1,538.8,435.212Z" transform="translate(-323.735 -388.018)" fill="#fff"/>
      <path id="Path_65857" data-name="Path 65857" d="M548.747,435.212a13.627,13.627,0,0,1-3.927,0A13.623,13.623,0,0,1,548.747,435.212Z" transform="translate(-328.243 -388.018)" fill="#fff"/>
      <rect id="Rectangle_147750" data-name="Rectangle 147750" width="34.218" height="6.214" transform="translate(2.396 34.368)" fill="#efa00b"/>
      <path id="Path_65858" data-name="Path 65858" d="M159.252,418.214a33.47,33.47,0,0,1,0-6.164A33.465,33.465,0,0,1,159.252,418.214Z" transform="translate(-153.504 -377.589)" fill="#263238"/>
      <path id="Path_65859" data-name="Path 65859" d="M155.882,418.214a33.47,33.47,0,0,1,0-6.164A33.467,33.467,0,0,1,155.882,418.214Z" transform="translate(-151.977 -377.589)" fill="#263238"/>
      <path id="Path_65860" data-name="Path 65860" d="M166.772,418.214a33.47,33.47,0,0,1,0-6.164,33.467,33.467,0,0,1,0,6.164Z" transform="translate(-156.91 -377.589)" fill="#263238"/>
      <path id="Path_65861" data-name="Path 65861" d="M163.352,418.214a33.467,33.467,0,0,1,0-6.164A33.467,33.467,0,0,1,163.352,418.214Z" transform="translate(-155.361 -377.589)" fill="#263238"/>
      <path id="Path_65862" data-name="Path 65862" d="M174.292,418.214a33.467,33.467,0,0,1,0-6.164A33.47,33.47,0,0,1,174.292,418.214Z" transform="translate(-160.317 -377.589)" fill="#263238"/>
      <path id="Path_65863" data-name="Path 65863" d="M170.882,418.214a33.47,33.47,0,0,1,0-6.164A33.467,33.467,0,0,1,170.882,418.214Z" transform="translate(-158.772 -377.589)" fill="#263238"/>
      <path id="Path_65864" data-name="Path 65864" d="M181.8,418.214a33.47,33.47,0,0,1,0-6.164A33.47,33.47,0,0,1,181.8,418.214Z" transform="translate(-163.719 -377.589)" fill="#263238"/>
      <path id="Path_65865" data-name="Path 65865" d="M178.382,418.214a33.47,33.47,0,0,1,0-6.164A33.467,33.467,0,0,1,178.382,418.214Z" transform="translate(-162.17 -377.589)" fill="#263238"/>
      <path id="Path_65866" data-name="Path 65866" d="M189.322,418.214a33.473,33.473,0,0,1,0-6.164A33.47,33.47,0,0,1,189.322,418.214Z" transform="translate(-167.126 -377.589)" fill="#263238"/>
      <path id="Path_65867" data-name="Path 65867" d="M185.882,418.214a33.47,33.47,0,0,1,0-6.164A33.47,33.47,0,0,1,185.882,418.214Z" transform="translate(-165.568 -377.589)" fill="#263238"/>
      <path id="Path_65868" data-name="Path 65868" d="M196.882,418.214a33.467,33.467,0,0,1,0-6.164A33.473,33.473,0,0,1,196.882,418.214Z" transform="translate(-170.551 -377.589)" fill="#263238"/>
      <path id="Path_65869" data-name="Path 65869" d="M193.412,418.214a33.47,33.47,0,0,1,0-6.164A32.236,32.236,0,0,1,193.412,418.214Z" transform="translate(-168.979 -377.589)" fill="#263238"/>
      <path id="Path_65870" data-name="Path 65870" d="M204.352,418.214a33.47,33.47,0,0,1,0-6.164,33.469,33.469,0,0,1,0,6.164Z" transform="translate(-173.935 -377.589)" fill="#263238"/>
      <path id="Path_65871" data-name="Path 65871" d="M200.932,418.214a33.467,33.467,0,0,1,0-6.164A33.473,33.473,0,0,1,200.932,418.214Z" transform="translate(-172.386 -377.589)" fill="#263238"/>
      <path id="Path_65872" data-name="Path 65872" d="M211.882,418.214a33.47,33.47,0,0,1,0-6.164,33.473,33.473,0,0,1,0,6.164Z" transform="translate(-177.347 -377.589)" fill="#263238"/>
      <path id="Path_65873" data-name="Path 65873" d="M208.452,418.214a33.47,33.47,0,0,1,0-6.164,33.474,33.474,0,0,1,0,6.164Z" transform="translate(-175.793 -377.589)" fill="#263238"/>
      <path id="Path_65874" data-name="Path 65874" d="M187.35,411.762c0,.082-7.7.142-17.186.142S153,411.828,153,411.762s7.7-.142,17.191-.142S187.35,411.686,187.35,411.762Z" transform="translate(-150.736 -377.394)" fill="#263238"/>
      <rect id="Rectangle_147751" data-name="Rectangle 147751" width="34.218" height="6.214" transform="translate(0.159 40.68)" fill="#efa00b"/>
      <path id="Path_65875" data-name="Path 65875" d="M155.162,429.754a33.47,33.47,0,0,1,0-6.164A33.47,33.47,0,0,1,155.162,429.754Z" transform="translate(-151.651 -382.817)" fill="#263238"/>
      <path id="Path_65876" data-name="Path 65876" d="M151.742,429.754a33.467,33.467,0,0,1,0-6.164A33.467,33.467,0,0,1,151.742,429.754Z" transform="translate(-150.101 -382.817)" fill="#263238"/>
      <path id="Path_65877" data-name="Path 65877" d="M162.682,429.754a33.47,33.47,0,0,1,0-6.164A33.467,33.467,0,0,1,162.682,429.754Z" transform="translate(-155.057 -382.817)" fill="#263238"/>
      <path id="Path_65878" data-name="Path 65878" d="M159.252,429.754a33.47,33.47,0,0,1,0-6.164A33.465,33.465,0,0,1,159.252,429.754Z" transform="translate(-153.504 -382.817)" fill="#263238"/>
      <path id="Path_65879" data-name="Path 65879" d="M170.192,429.754a33.47,33.47,0,0,1,0-6.164A33.467,33.467,0,0,1,170.192,429.754Z" transform="translate(-158.46 -382.817)" fill="#263238"/>
      <path id="Path_65880" data-name="Path 65880" d="M166.772,429.754a33.47,33.47,0,0,1,0-6.164,33.467,33.467,0,0,1,0,6.164Z" transform="translate(-156.91 -382.817)" fill="#263238"/>
      <path id="Path_65881" data-name="Path 65881" d="M177.712,429.754a33.473,33.473,0,0,1,0-6.164A33.47,33.47,0,0,1,177.712,429.754Z" transform="translate(-161.867 -382.817)" fill="#263238"/>
      <path id="Path_65882" data-name="Path 65882" d="M174.292,429.754a33.467,33.467,0,0,1,0-6.164A33.47,33.47,0,0,1,174.292,429.754Z" transform="translate(-160.317 -382.817)" fill="#263238"/>
      <path id="Path_65883" data-name="Path 65883" d="M185.228,429.754a32.237,32.237,0,0,1,0-6.164,33.47,33.47,0,0,1,0,6.164Z" transform="translate(-165.269 -382.817)" fill="#263238"/>
      <path id="Path_65884" data-name="Path 65884" d="M181.8,429.754a33.47,33.47,0,0,1,0-6.164A33.47,33.47,0,0,1,181.8,429.754Z" transform="translate(-163.719 -382.817)" fill="#263238"/>
      <path id="Path_65885" data-name="Path 65885" d="M192.742,429.754a33.467,33.467,0,0,1,0-6.164A33.467,33.467,0,0,1,192.742,429.754Z" transform="translate(-168.676 -382.817)" fill="#263238"/>
      <path id="Path_65886" data-name="Path 65886" d="M189.322,429.754a33.473,33.473,0,0,1,0-6.164A33.47,33.47,0,0,1,189.322,429.754Z" transform="translate(-167.126 -382.817)" fill="#263238"/>
      <path id="Path_65887" data-name="Path 65887" d="M200.262,429.754a33.467,33.467,0,0,1,0-6.164A33.47,33.47,0,0,1,200.262,429.754Z" transform="translate(-172.082 -382.817)" fill="#263238"/>
      <path id="Path_65888" data-name="Path 65888" d="M196.882,429.754a33.467,33.467,0,0,1,0-6.164A33.473,33.473,0,0,1,196.882,429.754Z" transform="translate(-170.551 -382.817)" fill="#263238"/>
      <path id="Path_65889" data-name="Path 65889" d="M207.772,429.754a33.467,33.467,0,0,1,0-6.164A33.467,33.467,0,0,1,207.772,429.754Z" transform="translate(-175.485 -382.817)" fill="#263238"/>
      <path id="Path_65890" data-name="Path 65890" d="M204.352,429.754a33.47,33.47,0,0,1,0-6.164,33.469,33.469,0,0,1,0,6.164Z" transform="translate(-173.935 -382.817)" fill="#263238"/>
      <path id="Path_65891" data-name="Path 65891" d="M183.237,423.3c0,.082-7.7.142-17.191.142s-17.186-.06-17.186-.142,7.7-.142,17.186-.142S183.237,423.226,183.237,423.3Z" transform="translate(-148.86 -382.622)" fill="#263238"/>
      <rect id="Rectangle_147752" data-name="Rectangle 147752" width="34.218" height="6.214" transform="translate(2.954 46.937)" fill="#efa00b"/>
      <path id="Path_65892" data-name="Path 65892" d="M160.272,441.194a33.47,33.47,0,0,1,0-6.164A33.468,33.468,0,0,1,160.272,441.194Z" transform="translate(-153.966 -388)" fill="#263238"/>
      <path id="Path_65893" data-name="Path 65893" d="M156.882,441.181a33.474,33.474,0,0,1,0-6.181,33.468,33.468,0,0,1,0,6.164Z" transform="translate(-152.429 -387.986)" fill="#263238"/>
      <path id="Path_65894" data-name="Path 65894" d="M167.792,441.194a33.47,33.47,0,0,1,0-6.164A33.468,33.468,0,0,1,167.792,441.194Z" transform="translate(-157.372 -388)" fill="#263238"/>
      <path id="Path_65895" data-name="Path 65895" d="M164.372,441.194a33.468,33.468,0,0,1,0-6.164A33.47,33.47,0,0,1,164.372,441.194Z" transform="translate(-155.823 -388)" fill="#263238"/>
      <path id="Path_65896" data-name="Path 65896" d="M175.3,441.194a33.468,33.468,0,0,1,0-6.164,33.469,33.469,0,0,1,0,6.164Z" transform="translate(-160.775 -388)" fill="#263238"/>
      <path id="Path_65897" data-name="Path 65897" d="M171.882,441.181a33.466,33.466,0,0,1,0-6.181,33.469,33.469,0,0,1,0,6.164Z" transform="translate(-159.225 -387.986)" fill="#263238"/>
      <path id="Path_65898" data-name="Path 65898" d="M182.822,441.194a33.468,33.468,0,0,1,0-6.164A33.47,33.47,0,0,1,182.822,441.194Z" transform="translate(-164.182 -388)" fill="#263238"/>
      <path id="Path_65899" data-name="Path 65899" d="M179.4,441.194a33.468,33.468,0,0,1,0-6.164,33.47,33.47,0,0,1,0,6.164Z" transform="translate(-162.632 -388)" fill="#263238"/>
      <path id="Path_65900" data-name="Path 65900" d="M190.342,441.194a33.47,33.47,0,0,1,0-6.164A33.473,33.473,0,0,1,190.342,441.194Z" transform="translate(-167.588 -388)" fill="#263238"/>
      <path id="Path_65901" data-name="Path 65901" d="M186.882,441.181a33.47,33.47,0,0,1,0-6.181,33.471,33.471,0,0,1,0,6.164Z" transform="translate(-166.02 -387.986)" fill="#263238"/>
      <path id="Path_65902" data-name="Path 65902" d="M197.882,441.181a33.466,33.466,0,0,1,0-6.181,33.468,33.468,0,0,1,0,6.164Z" transform="translate(-171.004 -387.986)" fill="#263238"/>
      <path id="Path_65903" data-name="Path 65903" d="M194.432,441.194a33.468,33.468,0,0,1,0-6.164A33.468,33.468,0,0,1,194.432,441.194Z" transform="translate(-169.441 -388)" fill="#263238"/>
      <path id="Path_65904" data-name="Path 65904" d="M205.372,441.194a33.468,33.468,0,0,1,0-6.164A33.468,33.468,0,0,1,205.372,441.194Z" transform="translate(-174.397 -388)" fill="#263238"/>
      <path id="Path_65905" data-name="Path 65905" d="M201.952,441.194a33.468,33.468,0,0,1,0-6.164,33.467,33.467,0,0,1,0,6.164Z" transform="translate(-172.848 -388)" fill="#263238"/>
      <path id="Path_65906" data-name="Path 65906" d="M212.882,441.181a33.464,33.464,0,0,1,0-6.181,33.468,33.468,0,0,1,0,6.164Z" transform="translate(-177.799 -387.986)" fill="#263238"/>
      <path id="Path_65907" data-name="Path 65907" d="M209.462,441.194a33.468,33.468,0,0,1,0-6.164,32.241,32.241,0,0,1,0,6.164Z" transform="translate(-176.25 -388)" fill="#263238"/>
      <path id="Path_65908" data-name="Path 65908" d="M188.279,434.742c0,.082-7.718.142-17.229.142s-17.23-.06-17.23-.142,7.712-.142,17.23-.142S188.279,434.666,188.279,434.742Z" transform="translate(-151.107 -387.805)" fill="#263238"/>
      <rect id="Rectangle_147753" data-name="Rectangle 147753" width="34.218" height="6.214" transform="translate(0.273 53.101)" fill="#efa00b"/>
      <path id="Path_65909" data-name="Path 65909" d="M155.372,452.464a33.468,33.468,0,0,1,0-6.164,33.468,33.468,0,0,1,0,6.164Z" transform="translate(-151.746 -393.106)" fill="#263238"/>
      <path id="Path_65910" data-name="Path 65910" d="M151.952,452.464a33.471,33.471,0,0,1,0-6.164A33.473,33.473,0,0,1,151.952,452.464Z" transform="translate(-150.196 -393.106)" fill="#263238"/>
      <path id="Path_65911" data-name="Path 65911" d="M162.882,452.464a33.468,33.468,0,0,1,0-6.164,33.469,33.469,0,0,1,0,6.164Z" transform="translate(-155.148 -393.106)" fill="#263238"/>
      <path id="Path_65912" data-name="Path 65912" d="M159.462,452.464a33.465,33.465,0,0,1,0-6.164A33.473,33.473,0,0,1,159.462,452.464Z" transform="translate(-153.599 -393.106)" fill="#263238"/>
      <path id="Path_65913" data-name="Path 65913" d="M170.4,452.464a33.468,33.468,0,0,1,0-6.164,33.471,33.471,0,0,1,0,6.164Z" transform="translate(-158.555 -393.106)" fill="#263238"/>
      <path id="Path_65914" data-name="Path 65914" d="M166.982,452.464a33.465,33.465,0,0,1,0-6.164A33.471,33.471,0,0,1,166.982,452.464Z" transform="translate(-157.006 -393.106)" fill="#263238"/>
      <path id="Path_65915" data-name="Path 65915" d="M177.882,452.464a33.471,33.471,0,0,1,0-6.164A33.471,33.471,0,0,1,177.882,452.464Z" transform="translate(-161.944 -393.106)" fill="#263238"/>
      <path id="Path_65916" data-name="Path 65916" d="M174.5,452.464a33.471,33.471,0,0,1,0-6.164A33.468,33.468,0,0,1,174.5,452.464Z" transform="translate(-160.412 -393.106)" fill="#263238"/>
      <path id="Path_65917" data-name="Path 65917" d="M185.432,452.464a33.471,33.471,0,0,1,0-6.164,33.471,33.471,0,0,1,0,6.164Z" transform="translate(-165.364 -393.106)" fill="#263238"/>
      <path id="Path_65918" data-name="Path 65918" d="M182.012,452.464a33.469,33.469,0,0,1,0-6.164A33.469,33.469,0,0,1,182.012,452.464Z" transform="translate(-163.815 -393.106)" fill="#263238"/>
      <path id="Path_65919" data-name="Path 65919" d="M192.952,452.464a33.468,33.468,0,0,1,0-6.164A33.468,33.468,0,0,1,192.952,452.464Z" transform="translate(-168.771 -393.106)" fill="#263238"/>
      <path id="Path_65920" data-name="Path 65920" d="M189.532,452.464a33.471,33.471,0,0,1,0-6.164A33.471,33.471,0,0,1,189.532,452.464Z" transform="translate(-167.221 -393.106)" fill="#263238"/>
      <path id="Path_65921" data-name="Path 65921" d="M200.472,452.464a33.468,33.468,0,0,1,0-6.164,33.469,33.469,0,0,1,0,6.164Z" transform="translate(-172.178 -393.106)" fill="#263238"/>
      <path id="Path_65922" data-name="Path 65922" d="M197.042,452.464a33.463,33.463,0,0,1,0-6.164A32.244,32.244,0,0,1,197.042,452.464Z" transform="translate(-170.624 -393.106)" fill="#263238"/>
      <path id="Path_65923" data-name="Path 65923" d="M207.982,452.464a33.468,33.468,0,0,1,0-6.164,33.467,33.467,0,0,1,0,6.164Z" transform="translate(-175.58 -393.106)" fill="#263238"/>
      <path id="Path_65924" data-name="Path 65924" d="M204.562,452.464a33.468,33.468,0,0,1,0-6.164A33.473,33.473,0,0,1,204.562,452.464Z" transform="translate(-174.03 -393.106)" fill="#263238"/>
      <path id="Path_65925" data-name="Path 65925" d="M183.441,446.012c0,.077-7.7.142-17.186.142s-17.186-.066-17.186-.142,7.69-.142,17.186-.142S183.441,445.941,183.441,446.012Z" transform="translate(-148.955 -392.911)" fill="#263238"/>
      <rect id="Rectangle_147754" data-name="Rectangle 147754" width="34.218" height="6.214" transform="translate(3.703 59.403)" fill="#efa00b"/>
      <path id="Path_65926" data-name="Path 65926" d="M161.642,463.984a33.469,33.469,0,0,1,0-6.164A33.467,33.467,0,0,1,161.642,463.984Z" transform="translate(-154.586 -398.325)" fill="#263238"/>
      <path id="Path_65927" data-name="Path 65927" d="M158.222,463.984a33.469,33.469,0,0,1,0-6.164A33.467,33.467,0,0,1,158.222,463.984Z" transform="translate(-153.037 -398.325)" fill="#263238"/>
      <path id="Path_65928" data-name="Path 65928" d="M169.152,463.984a33.468,33.468,0,0,1,0-6.164,33.471,33.471,0,0,1,0,6.164Z" transform="translate(-157.989 -398.325)" fill="#263238"/>
      <path id="Path_65929" data-name="Path 65929" d="M165.732,463.984a33.467,33.467,0,0,1,0-6.164,33.468,33.468,0,0,1,0,6.164Z" transform="translate(-156.439 -398.325)" fill="#263238"/>
      <path id="Path_65930" data-name="Path 65930" d="M176.672,463.984a33.464,33.464,0,0,1,0-6.164A33.472,33.472,0,0,1,176.672,463.984Z" transform="translate(-161.395 -398.325)" fill="#263238"/>
      <path id="Path_65931" data-name="Path 65931" d="M173.252,463.984a33.469,33.469,0,0,1,0-6.164A33.467,33.467,0,0,1,173.252,463.984Z" transform="translate(-159.846 -398.325)" fill="#263238"/>
      <path id="Path_65932" data-name="Path 65932" d="M184.192,463.984a33.467,33.467,0,0,1,0-6.164,33.469,33.469,0,0,1,0,6.164Z" transform="translate(-164.802 -398.325)" fill="#263238"/>
      <path id="Path_65933" data-name="Path 65933" d="M180.762,463.984a33.467,33.467,0,0,1,0-6.164A32.237,32.237,0,0,1,180.762,463.984Z" transform="translate(-163.248 -398.325)" fill="#263238"/>
      <path id="Path_65934" data-name="Path 65934" d="M191.7,463.984a33.469,33.469,0,0,1,0-6.164A33.467,33.467,0,0,1,191.7,463.984Z" transform="translate(-168.204 -398.325)" fill="#263238"/>
      <path id="Path_65935" data-name="Path 65935" d="M188.282,463.984a33.467,33.467,0,0,1,0-6.164A33.469,33.469,0,0,1,188.282,463.984Z" transform="translate(-166.655 -398.325)" fill="#263238"/>
      <path id="Path_65936" data-name="Path 65936" d="M199.222,463.984a33.469,33.469,0,0,1,0-6.164,33.468,33.468,0,0,1,0,6.164Z" transform="translate(-171.611 -398.325)" fill="#263238"/>
      <path id="Path_65937" data-name="Path 65937" d="M195.8,463.984a33.464,33.464,0,0,1,0-6.164A33.469,33.469,0,0,1,195.8,463.984Z" transform="translate(-170.062 -398.325)" fill="#263238"/>
      <path id="Path_65938" data-name="Path 65938" d="M206.742,463.984a33.469,33.469,0,0,1,0-6.164,33.467,33.467,0,0,1,0,6.164Z" transform="translate(-175.018 -398.325)" fill="#263238"/>
      <path id="Path_65939" data-name="Path 65939" d="M203.312,463.984a33.469,33.469,0,0,1,0-6.164A33.464,33.464,0,0,1,203.312,463.984Z" transform="translate(-173.464 -398.325)" fill="#263238"/>
      <path id="Path_65940" data-name="Path 65940" d="M214.252,463.984a33.467,33.467,0,0,1,0-6.164,33.469,33.469,0,0,1,0,6.164Z" transform="translate(-178.42 -398.325)" fill="#263238"/>
      <path id="Path_65941" data-name="Path 65941" d="M210.882,463.984a33.472,33.472,0,0,1,0-6.164A33.467,33.467,0,0,1,210.882,463.984Z" transform="translate(-176.894 -398.325)" fill="#263238"/>
      <path id="Path_65942" data-name="Path 65942" d="M189.711,457.532c0,.082-7.7.142-17.186.142s-17.186-.06-17.186-.142,7.69-.142,17.186-.142S189.711,457.456,189.711,457.532Z" transform="translate(-151.796 -398.13)" fill="#263238"/>
      <g id="Group_160903" data-name="Group 160903" transform="translate(2.954 46.937)" opacity="0.3">
        <path id="Path_65943" data-name="Path 65943" d="M154.26,434.86a52.175,52.175,0,0,0,15.807,1.149c5.251-.345,10.551-1.094,15.813-1.056Z" transform="translate(-154.26 -434.86)"/>
      </g>
      <g id="Group_160904" data-name="Group 160904" transform="translate(3.265 40.751)" opacity="0.3">
        <path id="Path_65944" data-name="Path 65944" d="M154.83,423.55a52.316,52.316,0,0,0,15.8,1.154c5.251-.35,10.556-1.121,15.818-1.061Z" transform="translate(-154.83 -423.55)"/>
      </g>
      <g id="Group_160905" data-name="Group 160905" transform="translate(4.917 53.162)" opacity="0.3">
        <path id="Path_65945" data-name="Path 65945" d="M157.85,446.24a52.369,52.369,0,0,0,15.807,1.154c5.251-.35,10.551-1.121,15.813-1.061Z" transform="translate(-157.85 -446.24)"/>
      </g>
      <g id="Group_160906" data-name="Group 160906" transform="translate(3.577 59.37)" opacity="0.3">
        <path id="Path_65946" data-name="Path 65946" d="M155.4,457.59a52.511,52.511,0,0,0,15.807,1.149c5.251-.35,10.551-1.121,15.813-1.061Z" transform="translate(-155.4 -457.59)"/>
      </g>
      <path id="Path_65947" data-name="Path 65947" d="M154.272,416.832a10.244,10.244,0,0,1,0-3.4A10.245,10.245,0,0,1,154.272,416.832Z" transform="translate(-151.247 -378.214)" fill="#fff"/>
      <path id="Path_65948" data-name="Path 65948" d="M150.332,428.768a11.771,11.771,0,0,1,0-3.648A11.771,11.771,0,0,1,150.332,428.768Z" transform="translate(-149.463 -383.51)" fill="#fff"/>
      <path id="Path_65949" data-name="Path 65949" d="M155.942,440.793a9.254,9.254,0,0,1,0-3.233A9.254,9.254,0,0,1,155.942,440.793Z" transform="translate(-152.004 -389.146)" fill="#fff"/>
      <path id="Path_65950" data-name="Path 65950" d="M150.178,451.844a7.213,7.213,0,0,1,0-2.9A7.489,7.489,0,0,1,150.178,451.844Z" transform="translate(-149.39 -394.302)" fill="#fff"/>
      <path id="Path_65951" data-name="Path 65951" d="M163.859,424.227c0,.077-2.527.142-5.645.142s-5.645-.066-5.645-.142a54.913,54.913,0,0,1,5.645-.142A54.913,54.913,0,0,1,163.859,424.227Z" transform="translate(-150.541 -383.033)" fill="#fff"/>
      <path id="Path_65952" data-name="Path 65952" d="M170.466,413.312a55.624,55.624,0,0,1-5.683.142,55.633,55.633,0,0,1-5.683-.142c0-.077,2.543-.142,5.683-.142S170.466,413.236,170.466,413.312Z" transform="translate(-153.499 -378.097)" fill="#fff"/>
      <path id="Path_65953" data-name="Path 65953" d="M186.8,413.472a12.3,12.3,0,0,1-3.73,0,12.3,12.3,0,0,1,3.73,0Z" transform="translate(-164.358 -378.169)" fill="#fff"/>
    </g>
  </g>
</svg>
