<svg xmlns="http://www.w3.org/2000/svg" width="390.464" height="260.74" viewBox="0 0 390.464 260.74">
  <g id="Discount-pana" transform="translate(-9.638 5.752)">
    <g id="freepik--background-complete--inject-4" transform="translate(9.638 37.326)">
      <g id="Group_163217" data-name="Group 163217" transform="translate(45.438 -41.867)">
        <path id="Path_65247" data-name="Path 65247" d="M569.323,118.66l.511,1.8-1.623,11.476-3.027.842,1.6-10.965-4,1.1.546,1.96-2.461.694-1.179-4.232Z" transform="translate(-272.869 -72.943)" fill="#e0e0e0"/>
        <path id="Path_65248" data-name="Path 65248" d="M592.788,121.645c.592,2.134-.454,4.426-3.89,5.381a8.632,8.632,0,0,1-4.952,0l.51-2.44a6.039,6.039,0,0,0,3.727.133c1.389-.388,2.088-1.21,1.817-2.19s-1.057-1.394-3.242-.786l-3.063.858-1.266-6.948,7.341-2.042.607,2.241-5.023,1.394.449,2.343.98-.276C590.343,118.307,592.2,119.516,592.788,121.645Z" transform="translate(-284 -70.47)" fill="#e0e0e0"/>
        <path id="Path_65249" data-name="Path 65249" d="M602.111,112.783c-.541-1.96.194-3.573,1.812-4.023s3.063.51,3.625,2.512-.209,3.573-1.812,4.023S602.657,114.744,602.111,112.783Zm4.594-1.271c-.434-1.562-1.429-2.287-2.552-1.976s-1.6,1.46-1.164,3.012,1.414,2.292,2.552,1.976,1.578-1.445,1.144-3.012Zm4.549-4.691,1.021-.281-4.87,14.319-1.021.281Zm-.168,9.587c-.541-1.96.209-3.573,1.807-4.023s3.063.551,3.63,2.512-.194,3.573-1.812,4.023-3.1-.551-3.645-2.512Zm4.594-1.271c-.429-1.531-1.414-2.292-2.552-1.976s-1.6,1.445-1.164,3.007,1.429,2.287,2.552,1.976,1.552-1.46,1.123-3.007Z" transform="translate(-293.548 -67.01)" fill="#e0e0e0"/>
      </g>
      <rect id="Rectangle_147698" data-name="Rectangle 147698" width="35.944" height="45.373" transform="translate(380.501 213.574) rotate(-179.55)" fill="#ebebeb"/>
      <path id="Path_65250" data-name="Path 65250" d="M667.425,361.191l-.638,43.928-5.677-.041,1.215-43.928Z" transform="translate(-300.632 -191.643)" fill="#fafafa"/>
      <path id="Path_65251" data-name="Path 65251" d="M589.867,360.58l20.619.163,35.944.281-35.979,4.732-.306,38.915-20.614-.158Z" transform="translate(-265.593 -191.364)" fill="#e0e0e0"/>
      <path id="Path_65252" data-name="Path 65252" d="M605.528,360.706l-.822,43.928-6.116-.046,1-43.928Z" transform="translate(-270.028 -191.404)" fill="#fafafa"/>
      <path id="Path_65253" data-name="Path 65253" d="M629,322.162c0,.092-.607.2-1.715.311a44.818,44.818,0,0,1-4.712.209,26.388,26.388,0,0,1-7.034-.924,5.043,5.043,0,0,1-1.021-.459,2.761,2.761,0,0,1-.939-.888,2.481,2.481,0,0,1-.378-1.312,4.918,4.918,0,0,1,.153-1.2,26.717,26.717,0,0,1,1.332-4.319,11.005,11.005,0,0,1,1.164-2.073,6.494,6.494,0,0,1,1.71-1.69,3.481,3.481,0,0,1,1.184-.51,3.063,3.063,0,0,1,1.307,0,5.176,5.176,0,0,1,1.986,1.082,20.626,20.626,0,0,1,4.676,5.365,17.2,17.2,0,0,1,1.894,4.375,3.824,3.824,0,0,1,.235,1.736c-.225.066-.73-2.389-2.92-5.615a21.671,21.671,0,0,0-4.651-4.885,4.161,4.161,0,0,0-1.532-.812,1.94,1.94,0,0,0-1.506.327,5.345,5.345,0,0,0-1.337,1.368,10.214,10.214,0,0,0-1.021,1.828,28.089,28.089,0,0,0-1.281,4.084,2.042,2.042,0,0,0,.036,1.531,2.445,2.445,0,0,0,1.292.868,16.71,16.71,0,0,0,1.771.47c.587.133,1.169.235,1.736.322,1.128.179,2.19.281,3.17.347,1.955.133,3.573.158,4.661.214A4.313,4.313,0,0,1,629,322.162Z" transform="translate(-277.179 -166.229)" fill="#e0e0e0"/>
      <path id="Path_65254" data-name="Path 65254" d="M642.69,320.777a5.752,5.752,0,0,1,1.863-.562c1.21-.276,2.976-.638,5.1-1.154A48.691,48.691,0,0,0,657,316.744a8.212,8.212,0,0,0,1.843-.98,2.042,2.042,0,0,0,.592-.653,1.139,1.139,0,0,0,.1-.745,4.122,4.122,0,0,0-.352-.97c-.169-.362-.342-.73-.511-1.1a17.718,17.718,0,0,0-1.174-2.113,9.147,9.147,0,0,0-1.532-1.782,5.845,5.845,0,0,0-1.828-1.179,2.92,2.92,0,0,0-1.894-.082,4.942,4.942,0,0,0-1.7,1.021,25.768,25.768,0,0,0-4.916,5.794,22.346,22.346,0,0,0-2.185,4.666,7.7,7.7,0,0,1-.638,1.822c-.1-.015-.1-.71.138-1.95a17.9,17.9,0,0,1,1.868-5.013,24.57,24.57,0,0,1,4.926-6.238,5.967,5.967,0,0,1,2.119-1.322,4.176,4.176,0,0,1,2.721.066,5.757,5.757,0,0,1,1.215.607,9.519,9.519,0,0,1,1.057.812,10.136,10.136,0,0,1,1.73,2.042,19.322,19.322,0,0,1,1.261,2.272l.51,1.128a5.035,5.035,0,0,1,.439,1.307,2.4,2.4,0,0,1-.25,1.562,3.279,3.279,0,0,1-.96,1.057,9.194,9.194,0,0,1-2.144,1.1,42.14,42.14,0,0,1-7.611,2.1c-2.2.408-3.992.618-5.227.745A5.2,5.2,0,0,1,642.69,320.777Z" transform="translate(-291.615 -164.513)" fill="#fafafa"/>
      <rect id="Rectangle_147699" data-name="Rectangle 147699" width="52.836" height="15.019" transform="translate(370.565 169.566) rotate(-179.55)" fill="#e0e0e0"/>
      <rect id="Rectangle_147700" data-name="Rectangle 147700" width="47.757" height="15.019" transform="translate(384.922 169.674) rotate(-179.55)" fill="#ebebeb"/>
      <path id="Path_65255" data-name="Path 65255" d="M674.841,331.826l-.332,15.085-5.569-.117.388-15.014Z" transform="translate(-304.465 -177.267)" fill="#fafafa"/>
      <path id="Path_65256" data-name="Path 65256" d="M596.6,331.293l-.541,14.952-6.121-.051.327-15.024Z" transform="translate(-265.793 -176.968)" fill="#fafafa"/>
      <rect id="Rectangle_147701" data-name="Rectangle 147701" width="16.417" height="20.726" transform="translate(388.392 213.952) rotate(-179.55)" fill="#ebebeb"/>
      <path id="Path_65257" data-name="Path 65257" d="M700.749,408.82l-.291,20.062-2.6-.015.556-20.067Z" transform="translate(-318.621 -214.968)" fill="#fafafa"/>
      <path id="Path_65258" data-name="Path 65258" d="M665.323,408.54l9.419.071,16.417.133L674.726,410.9l-.143,17.775-9.413-.071Z" transform="translate(-302.619 -214.841)" fill="#e0e0e0"/>
      <path id="Path_65259" data-name="Path 65259" d="M672.47,408.6l-.373,20.067-2.8-.026.459-20.062Z" transform="translate(-304.641 -214.861)" fill="#fafafa"/>
      <path id="Path_65260" data-name="Path 65260" d="M682.861,390.667c0,.168-1.1.424-2.946.511a11.456,11.456,0,0,1-3.313-.362,1.934,1.934,0,0,1-1.082-.745,1.471,1.471,0,0,1-.23-.781,2.9,2.9,0,0,1,.071-.638,12.187,12.187,0,0,1,.623-2.042,5.357,5.357,0,0,1,.572-1.021,3.236,3.236,0,0,1,.883-.873,1.807,1.807,0,0,1,1.4-.25,2.674,2.674,0,0,1,1.021.572,9.225,9.225,0,0,1,2.149,2.552c.924,1.69.914,2.91.756,2.93s-.51-1.021-1.531-2.42a10.169,10.169,0,0,0-2.113-2.1,1.5,1.5,0,0,0-.567-.3.542.542,0,0,0-.419.112,2.159,2.159,0,0,0-.51.536,4.282,4.282,0,0,0-.424.771,12.337,12.337,0,0,0-.572,1.8c-.077.286-.061.414-.036.444a.781.781,0,0,0,.4.26,10.667,10.667,0,0,0,1.531.383c.511.092.98.153,1.419.2C681.717,390.386,682.856,390.468,682.861,390.667Z" transform="translate(-307.573 -203.033)" fill="#e0e0e0"/>
      <path id="Path_65261" data-name="Path 65261" d="M689.4,390.088c-.031-.194,1.2-.51,3.135-1.021a25.306,25.306,0,0,0,3.282-1.118,3.61,3.61,0,0,0,.761-.413.61.61,0,0,0,.168-.189v-.117a5.655,5.655,0,0,0-.368-.847,8.808,8.808,0,0,0-.51-.924,4.088,4.088,0,0,0-.628-.745,2.424,2.424,0,0,0-.715-.47.975.975,0,0,0-.643-.041,1.879,1.879,0,0,0-.659.388,12.283,12.283,0,0,0-2.246,2.527c-1.077,1.623-1.3,2.869-1.532,2.838-.082,0-.138-.342-.071-.929a7.3,7.3,0,0,1,.771-2.379,10.864,10.864,0,0,1,2.251-2.976,2.981,2.981,0,0,1,1.082-.679,2.215,2.215,0,0,1,1.465.025,2.707,2.707,0,0,1,.633.311,4.427,4.427,0,0,1,.51.4,5.1,5.1,0,0,1,.853,1.021,9.1,9.1,0,0,1,.6,1.077c.082.179.158.352.24.51a2.724,2.724,0,0,1,.225.689,1.481,1.481,0,0,1-.153.934,1.868,1.868,0,0,1-.541.592,4.233,4.233,0,0,1-1.062.51,17.922,17.922,0,0,1-3.548.9C690.7,390.247,689.428,390.231,689.4,390.088Z" transform="translate(-314.452 -202.28)" fill="#fafafa"/>
      <rect id="Rectangle_147702" data-name="Rectangle 147702" width="24.131" height="6.861" transform="translate(383.855 193.849) rotate(-179.55)" fill="#e0e0e0"/>
      <rect id="Rectangle_147703" data-name="Rectangle 147703" width="21.813" height="6.861" transform="translate(390.41 193.902) rotate(-179.55)" fill="#ebebeb"/>
      <path id="Path_65262" data-name="Path 65262" d="M704.135,395.41l-.153,6.887-2.542-.051.179-6.856Z" transform="translate(-320.374 -208.404)" fill="#fafafa"/>
      <path id="Path_65263" data-name="Path 65263" d="M668.392,395.156l-.245,6.83-2.8-.02.153-6.866Z" transform="translate(-302.707 -208.262)" fill="#fafafa"/>
      <rect id="Rectangle_147704" data-name="Rectangle 147704" width="29.445" height="37.169" transform="translate(51.418 213.984) rotate(-179.55)" fill="#ebebeb"/>
      <path id="Path_65264" data-name="Path 65264" d="M102.426,377.571l-.521,35.99-4.656-.036,1-35.985Z" transform="translate(-62.244 -199.666)" fill="#fafafa"/>
      <path id="Path_65265" data-name="Path 65265" d="M38.9,377.07l16.892.133,29.445.23-29.476,3.88-.25,31.88L38.62,413.06Z" transform="translate(-33.544 -199.436)" fill="#e0e0e0"/>
      <path id="Path_65266" data-name="Path 65266" d="M51.722,377.176l-.669,35.985-5.013-.036.817-35.985Z" transform="translate(-37.176 -199.471)" fill="#fafafa"/>
      <path id="Path_65267" data-name="Path 65267" d="M70.226,344.887c0,.184-.51.373-1.394.556a25.15,25.15,0,0,1-6.636.357c-.51-.046-1.021-.1-1.531-.194a13.152,13.152,0,0,1-1.685-.368,4.8,4.8,0,0,1-1-.434,3.022,3.022,0,0,1-1.021-.955,2.823,2.823,0,0,1-.434-1.465,4.78,4.78,0,0,1,.138-1.174,21.767,21.767,0,0,1,1.118-3.676,9.933,9.933,0,0,1,1.021-1.838,8.834,8.834,0,0,1,.7-.827,4.675,4.675,0,0,1,.924-.75,3.681,3.681,0,0,1,1.23-.51,3.2,3.2,0,0,1,1.394.031,4.876,4.876,0,0,1,1.9,1.052,16.5,16.5,0,0,1,3.859,4.64,12.17,12.17,0,0,1,1.373,3.788c.148.939.071,1.48-.1,1.532-.393.1-1.021-1.833-2.859-4.288a18.643,18.643,0,0,0-3.788-3.727,2.578,2.578,0,0,0-.965-.51.847.847,0,0,0-.653.184,2.786,2.786,0,0,0-.434.378c-.143.158-.3.357-.444.551a7.774,7.774,0,0,0-.745,1.353,23.57,23.57,0,0,0-1.021,3.211,2.282,2.282,0,0,0-.1.541v.153a1.286,1.286,0,0,0,.659.419,13.344,13.344,0,0,0,1.353.4c.465.117.924.209,1.368.3.893.163,1.746.281,2.552.373,1.572.179,2.879.286,3.783.424S70.221,344.7,70.226,344.887Z" transform="translate(-42.311 -178.132)" fill="#e0e0e0"/>
      <path id="Path_65268" data-name="Path 65268" d="M82.084,343.718c-.066-.378,2.139-.99,5.615-1.945a44.812,44.812,0,0,0,5.855-2.042,5.877,5.877,0,0,0,1.327-.73.873.873,0,0,0,.271-.3v-.128a3.031,3.031,0,0,0-.235-.592l-.424-.883a15.163,15.163,0,0,0-.914-1.639,6.874,6.874,0,0,0-1.1-1.312,5.227,5.227,0,0,0-.633-.51,2.777,2.777,0,0,0-.6-.322,1.629,1.629,0,0,0-1.067-.077,3.246,3.246,0,0,0-1.138.674,22.222,22.222,0,0,0-4.028,4.477c-1.945,2.879-2.384,5.1-2.787,5.044-.174,0-.3-.618-.184-1.68a13.013,13.013,0,0,1,1.348-4.3,19.4,19.4,0,0,1,4.033-5.381,5.575,5.575,0,0,1,1.986-1.251,4.171,4.171,0,0,1,2.721.046,5.323,5.323,0,0,1,1.159.572,7.794,7.794,0,0,1,.96.73,9.009,9.009,0,0,1,1.531,1.812,16.7,16.7,0,0,1,1.082,1.955l.429.939a4.942,4.942,0,0,1,.413,1.271,2.731,2.731,0,0,1-.3,1.761,3.4,3.4,0,0,1-1.021,1.108,8.017,8.017,0,0,1-1.94.975,31.319,31.319,0,0,1-6.386,1.593,32.761,32.761,0,0,1-4.355.373C82.7,343.988,82.11,343.9,82.084,343.718Z" transform="translate(-54.776 -176.697)" fill="#fafafa"/>
      <rect id="Rectangle_147705" data-name="Rectangle 147705" width="43.279" height="12.303" transform="translate(43.278 177.932) rotate(-179.55)" fill="#e0e0e0"/>
      <rect id="Rectangle_147706" data-name="Rectangle 147706" width="39.124" height="12.303" transform="translate(55.031 178.022) rotate(-179.55)" fill="#ebebeb"/>
      <path id="Path_65269" data-name="Path 65269" d="M108.5,353.516l-.271,12.359-4.564-.1.317-12.3Z" transform="translate(-65.386 -187.889)" fill="#fafafa"/>
      <path id="Path_65270" data-name="Path 65270" d="M44.407,353.077l-.439,12.252-5.018-.041.271-12.308Z" transform="translate(-33.705 -187.644)" fill="#fafafa"/>
      <g id="Group_163214" data-name="Group 163214" transform="translate(6.418 -30.434)">
        <path id="Path_65271" data-name="Path 65271" d="M128.25,69.35l.51,1.945-7.785,2-.4-1.531,3.012-4.773a2.626,2.626,0,0,0,.587-2.175c-.209-.812-.888-1.138-1.976-.858a2.588,2.588,0,0,0-1.868,1.577l-2.042-.674a4.979,4.979,0,0,1,3.573-2.966c2.3-.587,4.13.2,4.594,2.042.26,1.021.214,1.986-.888,3.7l-1.792,2.843Z" transform="translate(-56.8 -55.73)" fill="#e0e0e0"/>
        <path id="Path_65272" data-name="Path 65272" d="M137.809,63.578c-.873-3.4.51-5.815,3.063-6.463s4.911.791,5.784,4.191-.51,5.809-3.063,6.463S138.682,66.977,137.809,63.578Zm6.432-1.654c-.6-2.343-1.674-3.1-2.869-2.792s-1.751,1.486-1.149,3.824,1.674,3.1,2.854,2.8S144.844,64.262,144.241,61.924Z" transform="translate(-66.227 -53.409)" fill="#e0e0e0"/>
        <path id="Path_65273" data-name="Path 65273" d="M156.383,55.161c-.434-1.68.225-3.063,1.608-3.395s2.609.51,3.063,2.2-.24,3.063-1.608,3.395S156.812,56.835,156.383,55.161ZM160.3,54.14c-.347-1.343-1.184-1.976-2.139-1.725s-1.383,1.215-1.021,2.552,1.164,1.976,2.139,1.725,1.363-1.2,1.021-2.537Zm3.951-3.921.868-.22-4.4,12.124-.868.225Zm-.306,8.168c-.429-1.68.24-3.063,1.608-3.395s2.614.51,3.063,2.2-.225,3.063-1.608,3.39-2.629-.51-3.063-2.185Zm3.915-1.021c-.342-1.327-1.164-1.976-2.139-1.725s-1.383,1.2-1.021,2.552,1.184,1.97,2.139,1.725,1.363-1.2,1.026-2.527Z" transform="translate(-75.382 -50)" fill="#e0e0e0"/>
      </g>
      <g id="Group_163215" data-name="Group 163215" transform="translate(7 -29)">
        <path id="Path_65274" data-name="Path 65274" d="M317.748,131.588c.041,2.108-1.531,4.084-5.1,4.125a8.556,8.556,0,0,1-4.783-1.256l1.082-2.231a6.126,6.126,0,0,0,3.573,1.062c1.445-.026,2.328-.628,2.313-1.649,0-.944-.725-1.531-2.364-1.491h-1.322l-.031-1.909,2.517-2.951-5.319.092-.036-2.323,8.74-.148.036,1.874-2.752,3.277C316.554,128.382,317.718,129.751,317.748,131.588Z" transform="translate(-149.596 -85.69)" fill="#e0e0e0"/>
        <path id="Path_65275" data-name="Path 65275" d="M329.768,128.834c-.071-4.145,2.159-6.5,5.222-6.555s5.391,2.246,5.462,6.366-2.154,6.5-5.238,6.555S329.84,132.953,329.768,128.834Zm7.8-.138c-.051-2.833-1.072-4-2.517-3.972s-2.4,1.22-2.353,4.084,1.067,4,2.491,3.972S337.615,131.534,337.569,128.7Z" transform="translate(-160.319 -85.381)" fill="#e0e0e0"/>
        <path id="Path_65276" data-name="Path 65276" d="M353.509,125.6c-.036-2.042,1.082-3.41,2.762-3.441s2.843,1.292,2.879,3.344-1.1,3.41-2.762,3.436S353.545,127.633,353.509,125.6Zm4.748-.082c-.031-1.623-.812-2.552-1.97-2.552s-1.914,1.021-1.884,2.624.791,2.552,1.97,2.552S358.282,127.164,358.257,125.52Zm5.58-3.4h1.052l-8.311,12.635h-1.052Zm-2.552,9.235c-.031-2.042,1.1-3.41,2.762-3.436s2.843,1.307,2.879,3.339-1.082,3.41-2.762,3.441-2.864-1.307-2.9-3.344Zm4.748-.082c-.025-1.6-.791-2.552-1.97-2.552s-1.909,1-1.884,2.619.812,2.552,1.97,2.552,1.894-1.011,1.863-2.619Z" transform="translate(-171.941 -85.303)" fill="#e0e0e0"/>
      </g>
      <g id="Group_163216" data-name="Group 163216" transform="translate(-3 -48)">
        <path id="Path_65277" data-name="Path 65277" d="M438.4,57.521c-.245,1.593-1.628,2.8-4.2,2.41a6.294,6.294,0,0,1-3.288-1.486l1.067-1.47a4.38,4.38,0,0,0,2.435,1.2c1.046.158,1.756-.179,1.868-.914s-.286-1.24-1.919-1.491l-2.3-.352,1.235-5,5.493.837-.255,1.674-3.757-.572-.4,1.685.735.112C437.771,54.565,438.644,55.923,438.4,57.521Z" transform="translate(-196.363 -45.498)" fill="#ececec"/>
        <path id="Path_65278" data-name="Path 65278" d="M447.658,57.35c.454-2.976,2.358-4.411,4.594-4.084s3.6,2.272,3.15,5.248-2.348,4.406-4.594,4.084S447.208,60.321,447.658,57.35Zm5.615.858c.311-2.042-.281-3.007-1.322-3.165s-1.879.582-2.19,2.629.276,3,1.307,3.16,1.9-.577,2.216-2.619Z" transform="translate(-204.52 -46.869)" fill="#ececec"/>
        <path id="Path_65279" data-name="Path 65279" d="M465.529,57.7c.225-1.465,1.2-2.318,2.41-2.134s1.884,1.276,1.659,2.757-1.21,2.318-2.409,2.134S465.3,59.17,465.529,57.7Zm7.877-1.235.761.117-7.55,8.066-.761-.117Zm-4.426,1.761c.179-1.174-.271-1.95-1.108-2.078s-1.5.51-1.674,1.654.255,1.945,1.108,2.078,1.47-.485,1.649-1.654Zm1.445,4.564c.225-1.465,1.21-2.318,2.409-2.134s1.884,1.292,1.659,2.757-1.2,2.318-2.41,2.134A2.183,2.183,0,0,1,470.4,62.79Zm3.425.51c.174-1.159-.255-1.95-1.108-2.078s-1.5.48-1.674,1.649.271,1.955,1.108,2.083,1.47-.5,1.649-1.639Z" transform="translate(-213.289 -48.005)" fill="#ececec"/>
      </g>
      <g id="Group_163218" data-name="Group 163218" transform="translate(-213.458 13.048)" opacity="0.73">
        <path id="Path_65277-2" data-name="Path 65277" d="M438.4,57.521c-.245,1.593-1.628,2.8-4.2,2.41a6.294,6.294,0,0,1-3.288-1.486l1.067-1.47a4.38,4.38,0,0,0,2.435,1.2c1.046.158,1.756-.179,1.868-.914s-.286-1.24-1.919-1.491l-2.3-.352,1.235-5,5.493.837-.255,1.674-3.757-.572-.4,1.685.735.112C437.771,54.565,438.644,55.923,438.4,57.521Z" transform="translate(-196.363 -45.498)" fill="#ececec"/>
        <path id="Path_65278-2" data-name="Path 65278" d="M447.658,57.35c.454-2.976,2.358-4.411,4.594-4.084s3.6,2.272,3.15,5.248-2.348,4.406-4.594,4.084S447.208,60.321,447.658,57.35Zm5.615.858c.311-2.042-.281-3.007-1.322-3.165s-1.879.582-2.19,2.629.276,3,1.307,3.16,1.9-.577,2.216-2.619Z" transform="translate(-204.52 -46.869)" fill="#ececec"/>
        <path id="Path_65279-2" data-name="Path 65279" d="M465.529,57.7c.225-1.465,1.2-2.318,2.41-2.134s1.884,1.276,1.659,2.757-1.21,2.318-2.409,2.134S465.3,59.17,465.529,57.7Zm7.877-1.235.761.117-7.55,8.066-.761-.117Zm-4.426,1.761c.179-1.174-.271-1.95-1.108-2.078s-1.5.51-1.674,1.654.255,1.945,1.108,2.078,1.47-.485,1.649-1.654Zm1.445,4.564c.225-1.465,1.21-2.318,2.409-2.134s1.884,1.292,1.659,2.757-1.2,2.318-2.41,2.134A2.183,2.183,0,0,1,470.4,62.79Zm3.425.51c.174-1.159-.255-1.95-1.108-2.078s-1.5.48-1.674,1.649.271,1.955,1.108,2.083,1.47-.5,1.649-1.639Z" transform="translate(-213.289 -48.005)" fill="#ececec"/>
      </g>
      <path id="Path_65280" data-name="Path 65280" d="M40.632,148.426l-1.868,7.979-1.828-.419,1.531-6.5-1.6-.373.347-1.486Z" transform="translate(-16.944 -87.124)" fill="#f5f5f5"/>
      <path id="Path_65281" data-name="Path 65281" d="M44.975,154.364c.613-2.634,2.425-3.788,4.385-3.328s3.063,2.3,2.45,4.926-2.41,3.788-4.385,3.328S44.357,157,44.975,154.364Zm4.982,1.164c.424-1.812-.041-2.716-.965-2.93s-1.725.388-2.149,2.2.036,2.716.95,2.93S49.528,157.34,49.957,155.528Z" transform="translate(-20.827 -88.742)" fill="#f5f5f5"/>
      <path id="Path_65282" data-name="Path 65282" d="M68.175,155.251l.674.158-7.32,6.7-.669-.158Zm-7.147.556c.306-1.3,1.24-2,2.313-1.746a1.945,1.945,0,0,1,1.292,2.588c-.306,1.312-1.246,1.991-2.307,1.746a1.955,1.955,0,0,1-1.281-2.588Zm3.032.71c.245-1.021-.1-1.766-.842-1.94s-1.378.337-1.618,1.363.092,1.766.847,1.94,1.389-.3,1.628-1.363Zm.98,4.2a1.613,1.613,0,1,0,.015,0Zm3.037.71c.24-1.021-.092-1.766-.842-1.94s-1.378.327-1.618,1.363.1,1.766.842,1.94S67.849,162.449,68.078,161.423Z" transform="translate(-28.687 -90.247)" fill="#f5f5f5"/>
    </g>
    <g id="freepik--Plant--inject-4" transform="translate(22.108 109.528)">
      <path id="Path_65283" data-name="Path 65283" d="M105.251,300.522a36.79,36.79,0,0,0-35.091-9.628,63.94,63.94,0,0,0,35.5,11.093" transform="translate(-58.235 -228.885)" fill="#efa00b"/>
      <path id="Path_65284" data-name="Path 65284" d="M105.7,200.031c1.465-10.343-2.552-21.951-10.3-29.491-.255,10.251,4.084,21.783,10.3,29.491" transform="translate(-70.585 -170.54)" fill="#efa00b"/>
      <path id="Path_65285" data-name="Path 65285" d="M103.377,243.333A55.215,55.215,0,0,0,78,219.1a34.851,34.851,0,0,0,25.453,24.345" transform="translate(-62.073 -194.311)" fill="#efa00b"/>
      <path id="Path_65286" data-name="Path 65286" d="M97.2,263.358A65.587,65.587,0,0,1,78.6,261.714c-6.039-1.6-11.823-4.671-15.825-9.454a62.2,62.2,0,0,1,34.32,10.47" transform="translate(-54.617 -210.543)" fill="#efa00b"/>
      <path id="Path_65287" data-name="Path 65287" d="M124,223.98c3.17-11.884,8.4-20.1,17.74-26.76A24.708,24.708,0,0,1,124,223.98" transform="translate(-84.59 -183.6)" fill="#efa00b"/>
      <path id="Path_65288" data-name="Path 65288" d="M159.945,274.16a17.581,17.581,0,0,0-10.685-16.29c.511,6.126,5.34,13.232,10.685,16.29" transform="translate(-96.955 -213.289)" fill="#efa00b"/>
      <path id="Path_65289" data-name="Path 65289" d="M176,248.714a26.205,26.205,0,0,1,17.168-22.354c-2.139,9.929-7.877,18.194-17.168,22.354" transform="translate(-110.044 -197.864)" fill="#efa00b"/>
      <path id="Path_65290" data-name="Path 65290" d="M167.23,298.073a16.559,16.559,0,0,1,9.516-6.085,48.874,48.874,0,0,1,11.45-1.138,26.765,26.765,0,0,1-20.675,8.612" transform="translate(-105.751 -229.433)" fill="#efa00b"/>
      <path id="Path_65291" data-name="Path 65291" d="M158.48,353.335A29.333,29.333,0,0,1,194.291,370.3c-13.007-2.461-25.846-8.244-35.811-16.964" transform="translate(-101.468 -259.379)" fill="#efa00b"/>
      <path id="Path_65292" data-name="Path 65292" d="M126.691,337.35c2.159,6.386,1.746,14.11-3.063,19.613a23.421,23.421,0,0,1,3.063-19.613" transform="translate(-83.953 -252.195)" fill="#efa00b"/>
      <path id="Path_65293" data-name="Path 65293" d="M99.58,330.4a24.044,24.044,0,0,1-13.273,19.5,1.49,1.49,0,0,1-1.174.189c-.587-.235-.638-1.021-.567-1.664.939-8.168,7-16.1,15.014-18.026" transform="translate(-65.275 -248.793)" fill="#efa00b"/>
      <path id="Path_65294" data-name="Path 65294" d="M75.587,327.905a19.71,19.71,0,0,1-28.787.148c9.148-1.021,19.71-1.669,28.787-.148" transform="translate(-46.8 -247.13)" fill="#efa00b"/>
      <path id="Path_65295" data-name="Path 65295" d="M100.51,185.47a1.669,1.669,0,0,0,.082.271c.071.189.163.444.281.771.26.694.628,1.69,1.1,2.966s1.062,2.859,1.72,4.7l1.057,2.935c.362,1.021.745,2.154,1.144,3.313,1.623,4.635,3.42,10.21,5.365,16.387s3.915,13.053,5.886,20.277,3.67,14.161,5.136,20.486,2.655,12.048,3.538,16.877q.342,1.807.648,3.441c.189,1.087.362,2.119.51,3.063.332,1.919.613,3.573.807,4.936s.368,2.394.48,3.124c.056.342.1.613.133.812a1.716,1.716,0,0,0,.056.276,1.654,1.654,0,0,0,0-.281c-.026-.2-.056-.47-.1-.817-.1-.735-.235-1.787-.413-3.134s-.434-3.022-.745-4.947c-.158-.965-.322-2-.51-3.089s-.4-2.236-.623-3.446c-.858-4.839-2.042-10.562-3.466-16.9s-3.17-13.273-5.1-20.506S113.5,222.9,111.572,216.7s-3.783-11.741-5.437-16.371q-.613-1.736-1.169-3.3l-1.082-2.93c-.679-1.833-1.266-3.4-1.777-4.681s-.893-2.251-1.164-2.94l-.311-.761a2,2,0,0,0-.123-.24Z" transform="translate(-73.091 -177.848)" fill="#263238"/>
      <path id="Path_65296" data-name="Path 65296" d="M174.97,236.75a.979.979,0,0,0-.158.148l-.439.459c-.383.408-.934,1.021-1.623,1.817a63.887,63.887,0,0,0-5.391,7.188,48.043,48.043,0,0,0-5.615,12.053,114.078,114.078,0,0,0-3.379,15.948c-1.863,11.409-4.145,21.63-5.8,29.021-.832,3.681-1.531,6.662-1.981,8.755-.225,1.021-.4,1.812-.51,2.379-.056.26-.1.465-.133.623a1.1,1.1,0,0,0-.031.214,1.022,1.022,0,0,0,.066-.209c.041-.153.1-.357.163-.613.143-.561.337-1.353.592-2.364.51-2.083,1.21-5.059,2.088-8.729,1.715-7.377,4.038-17.6,5.9-29.021a120.939,120.939,0,0,1,3.344-15.912A48.8,48.8,0,0,1,167.6,246.5a68.342,68.342,0,0,1,5.284-7.229c.674-.817,1.21-1.44,1.577-1.863.168-.2.306-.357.408-.485A1.164,1.164,0,0,0,174.97,236.75Z" transform="translate(-97.273 -202.95)" fill="#263238"/>
      <path id="Path_65297" data-name="Path 65297" d="M97.84,327.99a1.1,1.1,0,0,0,.327.061l.95.1.684.071.807.117c.582.087,1.246.174,1.965.332l1.138.23,1.215.306c.847.189,1.72.51,2.655.781a38.955,38.955,0,0,1,5.794,2.552,32.5,32.5,0,0,1,5.2,3.614,25.7,25.7,0,0,1,1.991,1.914,20.1,20.1,0,0,1,1.577,1.822,18.321,18.321,0,0,1,1.169,1.608,12.831,12.831,0,0,1,.8,1.292l.485.822a1.282,1.282,0,0,0,.189.276,1.127,1.127,0,0,0-.128-.311l-.429-.853a10.235,10.235,0,0,0-.756-1.312,17.6,17.6,0,0,0-1.133-1.654,20.746,20.746,0,0,0-1.562-1.868,25.141,25.141,0,0,0-2-1.955,31.2,31.2,0,0,0-5.238-3.67,37.318,37.318,0,0,0-5.86-2.552c-.944-.276-1.828-.577-2.685-.756l-1.23-.291-1.149-.2c-.73-.148-1.4-.214-1.986-.286l-.817-.092-.689-.036-.955-.061A1.266,1.266,0,0,0,97.84,327.99Z" transform="translate(-71.785 -247.608)" fill="#263238"/>
      <path id="Path_65298" data-name="Path 65298" d="M92.73,237.17a4.465,4.465,0,0,0,.648.638l1.884,1.634c1.6,1.368,3.829,3.237,6.3,5.289s4.727,3.9,6.366,5.212l1.955,1.531a4.2,4.2,0,0,0,.745.511,4.46,4.46,0,0,0-.659-.638l-1.884-1.634c-1.6-1.368-3.829-3.237-6.3-5.289s-4.722-3.89-6.361-5.207l-1.955-1.531a5.054,5.054,0,0,0-.74-.516Z" transform="translate(-69.283 -203.156)" fill="#263238"/>
      <path id="Path_65299" data-name="Path 65299" d="M88.32,260.886c0,.092,4.778,1.593,10.72,3.354s10.807,3.109,10.833,3.017-4.778-1.6-10.72-3.354S88.351,260.794,88.32,260.886Z" transform="translate(-67.124 -214.763)" fill="#263238"/>
      <path id="Path_65300" data-name="Path 65300" d="M123.08,235.047a4.315,4.315,0,0,0,.511-.689l1.266-1.93c1.072-1.628,2.6-3.844,4.406-6.208s3.543-4.416,4.824-5.881c.6-.694,1.113-1.276,1.531-1.736a4.4,4.4,0,0,0,.51-.664,3.364,3.364,0,0,0-.633.567c-.388.383-.939.95-1.608,1.664-1.327,1.429-3.1,3.471-4.916,5.84s-3.308,4.62-4.334,6.279c-.51.832-.914,1.531-1.174,2A3.613,3.613,0,0,0,123.08,235.047Z" transform="translate(-84.14 -193.743)" fill="#263238"/>
      <path id="Path_65301" data-name="Path 65301" d="M155.76,264.61a16.6,16.6,0,0,0,1.128,1.853c.72,1.128,1.695,2.7,2.7,4.467s1.858,3.415,2.466,4.594a16.331,16.331,0,0,0,1.021,1.914,11.346,11.346,0,0,0-.8-2.042c-.546-1.225-1.368-2.889-2.379-4.676s-2.042-3.333-2.8-4.431A11.233,11.233,0,0,0,155.76,264.61Z" transform="translate(-100.137 -216.588)" fill="#263238"/>
      <path id="Path_65302" data-name="Path 65302" d="M167,299.878c.026.046.939-.4,2.44-1.077s3.573-1.531,5.963-2.389,4.559-1.445,6.151-1.848a22.267,22.267,0,0,0,2.552-.684,2.749,2.749,0,0,0-.715.077c-.459.066-1.113.189-1.919.362a52.567,52.567,0,0,0-6.213,1.766,53.427,53.427,0,0,0-5.952,2.491c-.74.368-1.327.679-1.731.914a2.934,2.934,0,0,0-.577.388Z" transform="translate(-105.639 -230.915)" fill="#263238"/>
      <path id="Path_65303" data-name="Path 65303" d="M158.14,354.67a1.17,1.17,0,0,0,.3.1l.868.219,3.2.74a105.09,105.09,0,0,1,10.434,2.757,46.2,46.2,0,0,1,9.74,4.594c1.164.74,2.073,1.394,2.685,1.868a9.973,9.973,0,0,0,.965.715,2.344,2.344,0,0,0-.214-.23c-.148-.143-.368-.347-.669-.592a28.117,28.117,0,0,0-2.634-1.971,42.686,42.686,0,0,0-9.755-4.7,86.28,86.28,0,0,0-10.5-2.665l-3.221-.669A8.069,8.069,0,0,0,158.14,354.67Z" transform="translate(-101.302 -260.673)" fill="#263238"/>
      <path id="Path_65304" data-name="Path 65304" d="M126.3,352.265c.092,0,.664-3.354,1.276-7.525s1.021-7.566.929-7.581-.664,3.359-1.276,7.53S126.2,352.255,126.3,352.265Z" transform="translate(-85.707 -252.102)" fill="#263238"/>
      <path id="Path_65305" data-name="Path 65305" d="M93.16,342.869a18.083,18.083,0,0,0,1.531-1.812c.914-1.138,2.18-2.706,3.614-4.411s2.757-3.226,3.721-4.324a16.943,16.943,0,0,0,1.531-1.812,2.436,2.436,0,0,0-.511.413c-.3.286-.71.7-1.22,1.235-1.021,1.057-2.369,2.552-3.808,4.263s-2.675,3.3-3.543,4.482c-.434.592-.776,1.077-1.021,1.414a2.186,2.186,0,0,0-.3.551Z" transform="translate(-69.494 -248.847)" fill="#263238"/>
      <path id="Path_65306" data-name="Path 65306" d="M146.37,385.46v8.362h-2.093l-7.428,23.457H120.365l-7.2-23.227-2.787-.23V385.46Z" transform="translate(-77.923 -275.745)" fill="#455a64"/>
      <path id="Path_65307" data-name="Path 65307" d="M113.11,402.124c0,.1,7.275.179,16.249.179s16.254-.082,16.254-.179-7.275-.174-16.254-.174S113.11,402.027,113.11,402.124Z" transform="translate(-79.259 -283.817)" fill="#263238"/>
      <path id="Path_65308" data-name="Path 65308" d="M89.89,296.94a6.562,6.562,0,0,0,1.057.286l2.889.7c2.44.6,5.789,1.531,9.419,2.736s6.856,2.517,9.189,3.512l2.726,1.189a6.975,6.975,0,0,0,1.021.414,6.175,6.175,0,0,0-.955-.536c-.623-.327-1.531-.771-2.685-1.3a95,95,0,0,0-18.623-6.264c-1.225-.271-2.226-.47-2.92-.587A6.816,6.816,0,0,0,89.89,296.94Z" transform="translate(-67.893 -232.414)" fill="#263238"/>
      <path id="Path_65309" data-name="Path 65309" d="M123.83,427.644c0,.1,5.1.174,11.4.174s11.4-.077,11.4-.174-5.1-.174-11.4-.174S123.83,427.547,123.83,427.644Z" transform="translate(-84.507 -296.309)" fill="#fafafa"/>
      <path id="Path_65310" data-name="Path 65310" d="M122.57,423.834c0,.1,5.411.174,12.083.174s12.088-.077,12.088-.174-5.411-.174-12.088-.174S122.57,423.742,122.57,423.834Z" transform="translate(-83.89 -294.444)" fill="#fafafa"/>
    </g>
    <g id="freepik--Label--inject-4" transform="translate(174.337 76.458)">
      <path id="Path_65311" data-name="Path 65311" d="M471.935,279.7,437.9,241.461a14.416,14.416,0,0,0-10.659-4.829l-112.048-.812a14.406,14.406,0,0,0-14.513,14.442l.189,79.341a14.406,14.406,0,0,0,14.467,14.375l111.66-.47a14.4,14.4,0,0,0,10.863-4.987L472.1,298.7A14.416,14.416,0,0,0,471.935,279.7ZM453,293.48a21.741,21.741,0,1,1,0-.02Z" transform="translate(-300.68 -169.425)" fill="#efa00b"/>
      <g id="Group_160830" data-name="Group 160830" transform="translate(0 66.394)" opacity="0.4">
        <path id="Path_65312" data-name="Path 65312" d="M471.935,279.7,437.9,241.461a14.416,14.416,0,0,0-10.659-4.829l-112.048-.812a14.406,14.406,0,0,0-14.513,14.442l.189,79.341a14.406,14.406,0,0,0,14.467,14.375l111.66-.47a14.4,14.4,0,0,0,10.863-4.987L472.1,298.7A14.416,14.416,0,0,0,471.935,279.7ZM453,293.48a21.741,21.741,0,1,1,0-.02Z" transform="translate(-300.68 -235.819)"/>
      </g>
      <path id="Path_65313" data-name="Path 65313" d="M483.47,279.7l-34.05-38.236a14.426,14.426,0,0,0-10.659-4.829l-112.048-.812A14.4,14.4,0,0,0,312.2,250.261l.184,79.341A14.411,14.411,0,0,0,326.9,343.977l111.655-.47a14.411,14.411,0,0,0,10.863-4.988L483.654,298.7A14.411,14.411,0,0,0,483.47,279.7ZM464.536,293.48a21.741,21.741,0,1,1,0-.02Z" transform="translate(-306.319 -169.425)" fill="#efa00b"/>
      <path id="Path_65314" data-name="Path 65314" d="M385.239,301.6c.087-9.618,6.014-15.677,14.324-15.6s14.044,6.162,13.957,15.856-5.942,15.677-14.248,15.6S385.147,311.222,385.239,301.6Zm20.129.189c.056-6.126-2.277-9.071-5.866-9.1-3.5-.036-5.978,2.956-6.034,8.99s2.364,9.066,5.866,9.1C402.922,310.814,405.312,307.9,405.368,301.794Zm28.174-14.8,9.7.092-39.487,56.665-9.7-.092Zm-9.761,41.9c.092-9.618,6.014-15.677,14.248-15.6,8.311.082,14.12,6.248,14.033,15.861s-6.014,15.652-14.33,15.565C429.529,344.644,423.694,338.478,423.781,328.885Zm20.047.184c.056-6.029-2.277-9.066-5.866-9.1-3.5-.036-5.973,2.874-6.029,8.99s2.358,9.066,5.86,9.1c3.589.01,5.978-2.986,6.029-9.02Z" transform="translate(-342.072 -193.993)" fill="#fff"/>
      <path id="Path_65315" data-name="Path 65315" d="M613.2,357.181a5.2,5.2,0,0,1,1.118.8c.7.556,1.72,1.394,3.012,2.5s2.864,2.476,4.63,4.125,3.747,3.573,5.794,5.855a59.342,59.342,0,0,1,6.09,7.948l.725,1.159.684,1.21a26.523,26.523,0,0,1,1.3,2.552,15.975,15.975,0,0,1,1.46,5.891,9.3,9.3,0,0,1-.47,3.211,8.276,8.276,0,0,1-1.685,2.894,10.863,10.863,0,0,1-5.84,3.339,15.887,15.887,0,0,1-6.9-.163,30.172,30.172,0,0,1-6.55-2.415,40.929,40.929,0,0,1-10.981-8.168,52.774,52.774,0,0,1-4.242-4.931q-1.919-2.517-3.655-5.008a95.461,95.461,0,0,1-10.414-18.725c-.562-1.424-1.047-2.792-1.465-4.109-.2-.659-.4-1.3-.557-1.94a12.051,12.051,0,0,1-.373-1.884,4.671,4.671,0,0,1,.842-3.425,4.982,4.982,0,0,1,2.42-1.685,6.78,6.78,0,0,1,1.215-.281,6.636,6.636,0,0,1,1.092-.026,5.135,5.135,0,0,1,1.664.362,3.381,3.381,0,0,1,.888.546c.174.158.25.245.235.265s-.122-.036-.317-.153a3.929,3.929,0,0,0-.9-.4,5.259,5.259,0,0,0-1.583-.225,7.341,7.341,0,0,0-1.021.082,6.638,6.638,0,0,0-1.108.317,4.5,4.5,0,0,0-2.083,1.572,4,4,0,0,0-.613,2.961,11.179,11.179,0,0,0,.4,1.771c.168.613.378,1.235.592,1.879q.669,1.93,1.531,4.023a98.429,98.429,0,0,0,10.542,18.378q1.735,2.45,3.66,4.936a52.165,52.165,0,0,0,4.171,4.8,40.17,40.17,0,0,0,10.639,7.9,29.226,29.226,0,0,0,6.279,2.318,14.685,14.685,0,0,0,6.33.179,9.664,9.664,0,0,0,5.166-2.91,7.5,7.5,0,0,0,1.879-5.238,14.87,14.87,0,0,0-1.348-5.467,25.83,25.83,0,0,0-1.22-2.471l-.638-1.179L632.9,379a60.135,60.135,0,0,0-5.866-7.908c-1.97-2.287-3.885-4.247-5.615-5.942s-3.226-3.114-4.467-4.273l-2.818-2.675a5.617,5.617,0,0,1-.939-1.021Z" transform="translate(-439.775 -223.309)" fill="#263238"/>
      <path id="Path_65316" data-name="Path 65316" d="M530.353,169.963c-.072,0-1.5-9.98-3.2-22.314s-3.007-22.339-2.93-22.349,1.5,9.98,3.2,22.314S530.429,169.953,530.353,169.963Z" transform="translate(-410.107 -115.325)" fill="#263238"/>
      <path id="Path_65317" data-name="Path 65317" d="M598.086,105.76a.639.639,0,0,1-.046.153l-.163.444-.648,1.7L594.8,114.3c-2.042,5.268-4.84,12.558-7.811,20.66s-5.549,15.468-7.387,20.813c-.914,2.66-1.654,4.819-2.17,6.335-.255.73-.454,1.307-.6,1.72-.066.184-.123.327-.163.444a.759.759,0,0,1-.061.148.535.535,0,0,1,.036-.158l.138-.454c.128-.413.311-1.021.546-1.736.48-1.506,1.195-3.681,2.093-6.361,1.8-5.36,4.349-12.762,7.32-20.843s5.784-15.386,7.877-20.639c1.021-2.624,1.909-4.748,2.517-6.208l.7-1.68c.077-.179.143-.322.189-.434Z" transform="translate(-435.75 -105.76)" fill="#263238"/>
      <path id="Path_65318" data-name="Path 65318" d="M646.289,182.72c.046.056-7.259,5.779-16.336,12.762s-16.438,12.63-16.484,12.568,7.264-5.779,16.336-12.762S646.248,182.658,646.289,182.72Z" transform="translate(-453.793 -143.432)" fill="#263238"/>
      <path id="Path_65319" data-name="Path 65319" d="M489.6,200.859c-.061.046-2.884-3.573-6.31-8.045s-6.162-8.168-6.126-8.2,2.884,3.573,6.31,8.045S489.651,200.813,489.6,200.859Z" transform="translate(-387.068 -144.357)" fill="#263238"/>
      <path id="Path_65320" data-name="Path 65320" d="M651.894,265.987c0,.072-4.5-1.174-10-2.777s-9.944-2.961-9.924-3.032,4.5,1.174,10,2.777S651.92,265.915,651.894,265.987Z" transform="translate(-462.849 -181.347)" fill="#263238"/>
      <path id="Path_65321" data-name="Path 65321" d="M544.99,266.149l3.318-1.909,1.761-3.4,1.914,3.318,3.4,1.766-3.318,1.909-1.766,3.4-1.909-3.318Z" transform="translate(-420.272 -181.673)" fill="#fff"/>
      <path id="Path_65322" data-name="Path 65322" d="M509.85,259.138l1.164-.669.618-1.189.669,1.159,1.189.618-1.164.669-.618,1.189-.669-1.159Z" transform="translate(-403.07 -179.93)" fill="#fff"/>
      <path id="Path_65323" data-name="Path 65323" d="M532.29,303.4l2.246-1.292,1.195-2.3,1.292,2.246,2.3,1.195-2.246,1.292-1.195,2.3-1.292-2.246Z" transform="translate(-414.055 -200.749)" fill="#fff"/>
    </g>
    <g id="freepik--Floor--inject-4" transform="translate(24.949 250.929)">
      <path id="Path_65324" data-name="Path 65324" d="M379.549,447.663c0,.072-78.743.133-175.854.133s-175.864-.061-175.864-.133,78.723-.133,175.864-.133S379.549,447.586,379.549,447.663Z" transform="translate(-27.83 -447.53)" fill="#263238"/>
    </g>
    <g id="freepik--Character--inject-4" transform="translate(92.104 112.76)">
      <path id="Path_65325" data-name="Path 65325" d="M206.677,430.06s-21.293,5.9-22.176,6.2c-1.281.449-1.067,5.156.934,5.1.944-.036,16.371.572,18.322.449s7.2-2.19,7.2-2.19Z" transform="translate(-161.184 -300.81)" fill="#455a64"/>
      <path id="Path_65326" data-name="Path 65326" d="M208.962,441.92a18.64,18.64,0,0,0-.939-2.287c-.689-1.174-1.572-1.879-1.506-1.96a3.642,3.642,0,0,1,1.817,1.782A3.876,3.876,0,0,1,208.962,441.92Z" transform="translate(-172.352 -304.533)" fill="#263238"/>
      <path id="Path_65327" data-name="Path 65327" d="M213.7,440.094c-.107,0-.322-.99-.888-2.1s-1.24-1.894-1.164-1.965a3.893,3.893,0,0,1,1.48,1.807A4.14,4.14,0,0,1,213.7,440.094Z" transform="translate(-174.86 -303.727)" fill="#263238"/>
      <path id="Path_65328" data-name="Path 65328" d="M218.139,438.852a14,14,0,0,0-.51-2.256,19.989,19.989,0,0,0-1.164-1.991,3.053,3.053,0,0,1,1.5,1.863A3.5,3.5,0,0,1,218.139,438.852Z" transform="translate(-177.22 -303.031)" fill="#263238"/>
      <path id="Path_65329" data-name="Path 65329" d="M218.772,432.783a3.849,3.849,0,0,1-.23-1.582,7.659,7.659,0,0,1,.23-1.751,6.722,6.722,0,0,1,.316-.99,1.169,1.169,0,0,1,.342-.51.567.567,0,0,1,.73.036.959.959,0,0,1,.286.6,4.2,4.2,0,0,1,0,.562,4.593,4.593,0,0,1-.133,1.021,6.4,6.4,0,0,1-.653,1.628,4.324,4.324,0,0,1-.96,1.281c-.046-.031.311-.51.735-1.4a6.883,6.883,0,0,0,.556-1.583,4.675,4.675,0,0,0,.107-.975c0-.327,0-.735-.2-.893a.2.2,0,0,0-.281-.026.883.883,0,0,0-.235.373,7.315,7.315,0,0,0-.322.939,8.328,8.328,0,0,0-.281,1.664C218.736,432.17,218.833,432.778,218.772,432.783Z" transform="translate(-178.236 -299.719)" fill="#263238"/>
      <path id="Path_65330" data-name="Path 65330" d="M219.06,436.887a3.007,3.007,0,0,1,1.378-.225,6.158,6.158,0,0,1,1.531.189,3.155,3.155,0,0,1,.873.322.893.893,0,0,1,.48.97,1.067,1.067,0,0,1-.771.761,1.947,1.947,0,0,1-.955,0,4.548,4.548,0,0,1-2.374-1.659,9.613,9.613,0,0,1,1.133.771,3.793,3.793,0,0,0,1.307.567,1.659,1.659,0,0,0,.791,0,.73.73,0,0,0,.51-.511.546.546,0,0,0-.317-.592,3.1,3.1,0,0,0-.776-.3,6.956,6.956,0,0,0-1.434-.25C219.591,436.856,219.07,436.943,219.06,436.887Z" transform="translate(-178.493 -304.038)" fill="#263238"/>
      <path id="Path_65331" data-name="Path 65331" d="M203.507,442.991a11.511,11.511,0,0,0-.424-1.919c-.424-1-1.108-1.588-1.021-1.669s.924.419,1.373,1.532A2.463,2.463,0,0,1,203.507,442.991Z" transform="translate(-170.169 -305.378)" fill="#263238"/>
      <path id="Path_65332" data-name="Path 65332" d="M212.06,448.365a5.056,5.056,0,0,1-.827.388,18.72,18.72,0,0,1-2.374.735,33.614,33.614,0,0,1-8.137.771c-3.2-.036-6.075-.179-8.168-.265l-2.471-.128a4.534,4.534,0,0,1-.9-.1,4.139,4.139,0,0,1,.929-.061h2.476l8.168.158a38.01,38.01,0,0,0,8.081-.659C210.866,448.824,212.06,448.3,212.06,448.365Z" transform="translate(-163.867 -309.767)" fill="#263238"/>
      <path id="Path_65333" data-name="Path 65333" d="M225.348,447.6a17.187,17.187,0,0,1-1.6-.725,7.474,7.474,0,0,0-4.033-.669,6.394,6.394,0,0,0-3.487,2.073,11.936,11.936,0,0,1-1.23,1.256,6.68,6.68,0,0,1,1.047-1.424,8.369,8.369,0,0,1,1.414-1.322,5.065,5.065,0,0,1,2.2-.934,7.055,7.055,0,0,1,4.2.8A5.646,5.646,0,0,1,225.348,447.6Z" transform="translate(-176.506 -308.515)" fill="#263238"/>
      <path id="Path_65334" data-name="Path 65334" d="M192.443,446.072a7.649,7.649,0,0,1,.311-.807,3.926,3.926,0,0,0-.7-3.819c-.337-.408-.607-.6-.582-.643s.337.112.73.51a3.635,3.635,0,0,1,.745,4.033C192.714,445.848,192.469,446.093,192.443,446.072Z" transform="translate(-164.986 -306.066)" fill="#263238"/>
      <path id="Path_65335" data-name="Path 65335" d="M268.663,431.3s21.87,3.323,22.753,3.522c1.332.3,1.674,4.993-.316,5.156-.944.077-16.193,2.517-18.143,2.629s-8.066-1.491-8.066-1.491Z" transform="translate(-200.928 -301.417)" fill="#455a64"/>
      <path id="Path_65336" data-name="Path 65336" d="M291.368,440.716a20.1,20.1,0,0,1,.659-2.384c.541-1.251,1.343-2.042,1.266-2.129a3.662,3.662,0,0,0-1.593,1.991A3.851,3.851,0,0,0,291.368,440.716Z" transform="translate(-213.847 -303.814)" fill="#263238"/>
      <path id="Path_65337" data-name="Path 65337" d="M286.829,439.5c.107,0,.2-1.021.633-2.2s1.021-2.042.919-2.088a3.844,3.844,0,0,0-1.256,1.965A4.115,4.115,0,0,0,286.829,439.5Z" transform="translate(-211.636 -303.334)" fill="#263238"/>
      <path id="Path_65338" data-name="Path 65338" d="M282.464,438.761a14.328,14.328,0,0,1,.225-2.3,22.781,22.781,0,0,1,.919-2.119,3.035,3.035,0,0,0-1.261,2.042A3.275,3.275,0,0,0,282.464,438.761Z" transform="translate(-209.405 -302.905)" fill="#263238"/>
      <path id="Path_65339" data-name="Path 65339" d="M280.739,432.957a3.685,3.685,0,0,0,.041-1.6,7.364,7.364,0,0,0-.424-1.7,7.067,7.067,0,0,0-.434-.949,1.174,1.174,0,0,0-.4-.475.572.572,0,0,0-.725.122.955.955,0,0,0-.209.633,4.039,4.039,0,0,0,.041.562,4.594,4.594,0,0,0,.255,1.021,6.41,6.41,0,0,0,.842,1.532,4.414,4.414,0,0,0,1.1,1.164,14.217,14.217,0,0,0-.893-1.3,7.058,7.058,0,0,1-.745-1.531,4.653,4.653,0,0,1-.214-.955c-.031-.327-.082-.73.087-.909a.2.2,0,0,1,.276-.056.888.888,0,0,1,.281.342,7.143,7.143,0,0,1,.429.893,8.614,8.614,0,0,1,.48,1.618C280.7,432.349,280.682,432.957,280.739,432.957Z" transform="translate(-207.633 -299.878)" fill="#263238"/>
      <path id="Path_65340" data-name="Path 65340" d="M278.778,437.031a2.985,2.985,0,0,0-1.378-.077,6.332,6.332,0,0,0-1.48.362,3.349,3.349,0,0,0-.827.424.9.9,0,0,0-.362,1.021,1.082,1.082,0,0,0,.858.669,2,2,0,0,0,.95-.117,4.594,4.594,0,0,0,2.159-1.93,9.639,9.639,0,0,0-1.021.9,3.767,3.767,0,0,1-1.23.72,1.715,1.715,0,0,1-.786.082.74.74,0,0,1-.577-.439.562.562,0,0,1,.245-.633,3.328,3.328,0,0,1,.73-.388,6.806,6.806,0,0,1,1.4-.419C278.247,437.067,278.778,437.088,278.778,437.031Z" transform="translate(-205.724 -304.162)" fill="#263238"/>
      <path id="Path_65341" data-name="Path 65341" d="M297.609,441.141a12.139,12.139,0,0,1,.189-1.96,13.42,13.42,0,0,1,.842-1.777c-.077-.071-.873.51-1.184,1.685A2.524,2.524,0,0,0,297.609,441.141Z" transform="translate(-216.81 -304.402)" fill="#263238"/>
      <path id="Path_65342" data-name="Path 65342" d="M269.17,448.835a4.472,4.472,0,0,0,.868.286,18.128,18.128,0,0,0,2.44.449,33.662,33.662,0,0,0,8.168-.2c3.17-.419,6.009-.9,8.071-1.235l2.44-.424a4.2,4.2,0,0,0,.883-.2,4.268,4.268,0,0,0-.9.066l-2.455.311-8.081,1.128a38.049,38.049,0,0,1-8.1.306C270.431,449.146,269.185,448.779,269.17,448.835Z" transform="translate(-203.023 -309.349)" fill="#263238"/>
      <path id="Path_65343" data-name="Path 65343" d="M268.06,448.89c.036.046.572-.362,1.5-.909a7.392,7.392,0,0,1,3.926-1.143,6.388,6.388,0,0,1,3.706,1.644,13.209,13.209,0,0,0,1.368,1.1,6.412,6.412,0,0,0-1.2-1.292,8.383,8.383,0,0,0-1.562-1.149,5.1,5.1,0,0,0-2.3-.664,7.06,7.06,0,0,0-4.084,1.286A5.647,5.647,0,0,0,268.06,448.89Z" transform="translate(-202.479 -308.847)" fill="#263238"/>
      <path id="Path_65344" data-name="Path 65344" d="M357.734,244.822a1.342,1.342,0,0,0-.638-.628l.511-1.021a2.988,2.988,0,0,0-.3-1.052c-.255-.439-1.149-.4-1.149-.4l.138-.291a1.317,1.317,0,0,0-.112-1.286c-.041-.056-.082-.112-.133-.174a2.129,2.129,0,0,0-1.128-.572s.51-.98.281-1.394a2.124,2.124,0,0,0-2.175-.858,30.846,30.846,0,0,0-3.956,1.889.934.934,0,0,1-1.327-.51,13.426,13.426,0,0,0-1.935-3.635,2.006,2.006,0,0,0-2.384-.858.434.434,0,0,0-.214.628,23.282,23.282,0,0,1,1.389,2.552,57.2,57.2,0,0,1,.511,5.7l-1.378,2.624-13.9,21.956s-21.007-14.156-20.93-14.508l-.99,16.234,15.825,10.516a11.149,11.149,0,0,0,16.382-4.819l10.654-23.125,1.292-1.889,5.018-3.216S357.913,245.246,357.734,244.822Z" transform="translate(-221.986 -204.79)" fill="#ffbe9d"/>
      <path id="Path_65345" data-name="Path 65345" d="M395.07,243.2a.936.936,0,0,1-.1.092l-.3.245c-.281.214-.664.51-1.123.873l-1.68,1.276a10.535,10.535,0,0,1-1.021.735,1.475,1.475,0,0,1-1.332.179,1.021,1.021,0,0,1-.51-.511,1.466,1.466,0,0,1-.117-.669,1.93,1.93,0,0,1,.51-1.143,7.152,7.152,0,0,1,.837-.766l.756-.628,1.1-.9.3-.24c.071-.051.107-.082.112-.077l-.1.1-.286.26-1.072.929-.745.638a7.1,7.1,0,0,0-.817.766,1.792,1.792,0,0,0-.51,1.072,1.057,1.057,0,0,0,.536,1.057,1.1,1.1,0,0,0,.628.061,1.786,1.786,0,0,0,.592-.23c.357-.22.684-.51,1.021-.72l1.69-1.261,1.149-.837.317-.225Z" transform="translate(-261.624 -208.586)" fill="#eb996e"/>
      <path id="Path_65346" data-name="Path 65346" d="M397.815,249.3a1.339,1.339,0,0,1-.235.194c-.153.117-.383.286-.669.485-.567.393-1.368.924-2.282,1.46-.23.133-.449.271-.684.378a1.48,1.48,0,0,1-.73.138,1.143,1.143,0,0,1-.944-.761,1.123,1.123,0,0,1,.061-.827,1.063,1.063,0,0,1,.128-.189c.036-.041.056-.056.061-.056a2.268,2.268,0,0,0-.143.265,1.118,1.118,0,0,0,0,.776,1.021,1.021,0,0,0,.868.674,1.383,1.383,0,0,0,.669-.138,7.346,7.346,0,0,0,.669-.368c.914-.536,1.72-1.052,2.3-1.429l.684-.449a1.778,1.778,0,0,1,.245-.153Z" transform="translate(-263.256 -212.326)" fill="#eb996e"/>
      <path id="Path_65347" data-name="Path 65347" d="M399.523,253.82a1.3,1.3,0,0,1-.24.138l-.679.342c-.577.286-1.378.669-2.261,1.087a6.2,6.2,0,0,1-.664.286,1.282,1.282,0,0,1-.689.056.74.74,0,0,1-.511-.368.862.862,0,0,1-.082-.541,1.169,1.169,0,0,1,.4-.659c.138-.117.23-.163.235-.153a2.629,2.629,0,0,1-.2.189,1.2,1.2,0,0,0-.342.638.755.755,0,0,0,.082.475.648.648,0,0,0,.444.306,1.154,1.154,0,0,0,.623-.061,5.862,5.862,0,0,0,.648-.286c.888-.414,1.69-.786,2.277-1.052l.7-.3A.941.941,0,0,1,399.523,253.82Z" transform="translate(-264.316 -214.539)" fill="#eb996e"/>
      <path id="Path_65348" data-name="Path 65348" d="M400.852,257.613a5.318,5.318,0,0,1-.8.209c-.51.112-1.184.26-1.945.414l-.556.112a2.131,2.131,0,0,1-.536.061.755.755,0,0,1-.475-.168.51.51,0,0,1-.184-.4.73.73,0,0,1,.306-.536.382.382,0,0,1,.2-.092,1.129,1.129,0,0,0-.174.133.694.694,0,0,0-.245.51.409.409,0,0,0,.158.322.653.653,0,0,0,.408.133,2.3,2.3,0,0,0,.51-.066l.556-.117c.761-.153,1.45-.286,1.95-.378A5.857,5.857,0,0,1,400.852,257.613Z" transform="translate(-265.283 -216.198)" fill="#eb996e"/>
      <path id="Path_65349" data-name="Path 65349" d="M391.773,255.73a7.344,7.344,0,0,0-1.429-.143,6.871,6.871,0,0,0-1.4.281,2.619,2.619,0,0,1,1.4-.408A2.685,2.685,0,0,1,391.773,255.73Z" transform="translate(-261.651 -215.336)" fill="#eb996e"/>
      <path id="Path_65350" data-name="Path 65350" d="M242.117,212.457s-7.065-5.957-5.432-10.062,6.172-6.126,8.4-13.6c1.782-5.963,12.395-17.469,24.973-8.791,0,0,4.258-.669,6.677,1.271s3.007,5.809,4.033,10.276c1.583,6.887,2.45,12.18-.613,15.55s-4.186,4.273-4.023,8.1c.214,5,2.42,4.329.51,7.974L266.1,219.732l-.112-2.9-1.067,2.731-6.126-2.205Z" transform="translate(-187.001 -176.872)" fill="#263238"/>
      <path id="Path_65351" data-name="Path 65351" d="M299.379,197.36c-.684,1.572-.123,3.39.51,4.982s1.4,3.272,1.077,4.957c-.582,2.986-4.293,4.651-4.7,7.657-.22,1.613.587,3.257.276,4.86a5.462,5.462,0,0,1-2.971,3.492c-1.373.776-2.889,1.3-4.181,2.205,0,0-2.838,2.328-7.729-1.506" transform="translate(-209.137 -186.901)" fill="#263238"/>
      <path id="Path_65352" data-name="Path 65352" d="M264.26,189.645a2.6,2.6,0,0,0-3.063,1.731h0l-10.133,33.641c-1.312,3.936,3.64,8.137,7.862,9.505h0c4.268,1.383,5.13-.643,6.483-4.349,2.267-6.187,3.063-8.525,3.063-8.489s5.656.97,9.189-5.615c1.756-3.282,3.573-9.036,4.885-13.783,1.195-4.278.2-10.383-4.12-11.389Z" transform="translate(-194.054 -183.092)" fill="#ffbe9d"/>
      <path id="Path_65353" data-name="Path 65353" d="M304.159,220.227a.944.944,0,0,1-1.179.6.909.909,0,0,1-.643-1.128.95.95,0,0,1,1.179-.6.909.909,0,0,1,.643,1.128Z" transform="translate(-219.241 -197.522)" fill="#263238"/>
      <path id="Path_65354" data-name="Path 65354" d="M305.3,217.372c-.148.077-.653-.659-1.618-.99s-1.838-.1-1.9-.25c-.036-.071.153-.245.51-.362a2.619,2.619,0,0,1,1.572.056,2.522,2.522,0,0,1,1.24.939C305.349,217.071,305.38,217.321,305.3,217.372Z" transform="translate(-218.986 -195.866)" fill="#263238"/>
      <path id="Path_65355" data-name="Path 65355" d="M285.444,214.249a.949.949,0,0,1-1.174.607.909.909,0,0,1-.643-1.128.949.949,0,0,1,1.174-.607.909.909,0,0,1,.643,1.128Z" transform="translate(-210.082 -194.597)" fill="#263238"/>
      <path id="Path_65356" data-name="Path 65356" d="M286.478,211.685c-.153.082-.659-.659-1.623-.99s-1.838-.1-1.9-.25c-.036-.071.153-.24.536-.357a2.578,2.578,0,0,1,1.572.056,2.486,2.486,0,0,1,1.241.934C286.519,211.4,286.55,211.655,286.478,211.685Z" transform="translate(-209.769 -193.084)" fill="#263238"/>
      <path id="Path_65357" data-name="Path 65357" d="M291.84,221.843a6.638,6.638,0,0,1,1.664.26c.255.061.51.092.6-.061a1.343,1.343,0,0,0,.087-.786c0-.674-.046-1.383-.071-2.124a33.751,33.751,0,0,1,.066-5.472,33.7,33.7,0,0,1,.373,5.462c0,.74.026,1.45.041,2.129a1.491,1.491,0,0,1-.209,1.021.638.638,0,0,1-.51.219,1.628,1.628,0,0,1-.434-.087,6.669,6.669,0,0,1-1.608-.562Z" transform="translate(-214.12 -194.88)" fill="#263238"/>
      <path id="Path_65358" data-name="Path 65358" d="M277.249,246.963a18.751,18.751,0,0,1-8.479-5.743s.689,5.615,7.9,7.4Z" transform="translate(-202.827 -208.371)" fill="#eb996e"/>
      <path id="Path_65359" data-name="Path 65359" d="M286.46,232.816a1.823,1.823,0,0,0-1.332-1.184,1.675,1.675,0,0,0-1.3.2,1.052,1.052,0,0,0-.475,1.123,1.225,1.225,0,0,0,1.149.756,3.778,3.778,0,0,0,1.486-.306,1.144,1.144,0,0,0,.378-.189.347.347,0,0,0,.122-.357" transform="translate(-209.954 -203.653)" fill="#eb996e"/>
      <path id="Path_65360" data-name="Path 65360" d="M286.795,206.764c-.148.255-1.123-.066-2.328-.148s-2.21.056-2.323-.214c-.046-.133.168-.357.6-.546a3.823,3.823,0,0,1,1.8-.271,3.869,3.869,0,0,1,1.741.546C286.688,206.386,286.866,206.641,286.795,206.764Z" transform="translate(-209.371 -190.919)" fill="#263238"/>
      <path id="Path_65361" data-name="Path 65361" d="M307.6,211.045c-.265.163-1.021-.3-1.986-.582s-1.843-.357-1.97-.643c-.051-.138.143-.327.562-.434a3.517,3.517,0,0,1,3.191.985C307.675,210.688,307.721,210.958,307.6,211.045Z" transform="translate(-219.893 -192.755)" fill="#263238"/>
      <path id="Path_65362" data-name="Path 65362" d="M254,210.444q2.849-9.541,5.7-19.092a6.5,6.5,0,0,1,1.925-3.522,6.01,6.01,0,0,1,3.691-.893,69.86,69.86,0,0,1,16.54,1.634,2.854,2.854,0,0,1-2.119,2.946,12.65,12.65,0,0,1-3.931.286,4.936,4.936,0,0,0-3.655,1.225c-.893.975-1.046,2.634-1.945,3.716-1.531,1.858-4.783,1.465-6.32,3.334-1.159,1.414-.847,3.482-1.23,5.268-.434,2.042-.434,2.042-2.042,5.013-.975,1.828,1.475,5.319-.965,9.847l-4.737-1.348,2.078-6.994-2.818,6.56Z" transform="translate(-195.597 -181.791)" fill="#263238"/>
      <path id="Path_65363" data-name="Path 65363" d="M285.607,229.45c.1.056.046.311.041.679a2.466,2.466,0,0,0,1.2,2.287c.3.2.541.306.51.419s-.291.209-.745.1a2.241,2.241,0,0,1-1.531-2.93C285.27,229.568,285.52,229.394,285.607,229.45Z" transform="translate(-210.746 -202.605)" fill="#263238"/>
      <path id="Path_65364" data-name="Path 65364" d="M275.868,199.4a1.021,1.021,0,0,1-.265.148,7.768,7.768,0,0,0-.75.419,9.077,9.077,0,0,0-4.181,6.3,10.291,10.291,0,0,0,0,2.741,16.452,16.452,0,0,1,.179,3,5.427,5.427,0,0,1-.322,1.531,9.591,9.591,0,0,1-.679,1.332,6.636,6.636,0,0,0-1.072,2.5,8.454,8.454,0,0,0,.066,2.471c.107.781.245,1.531.3,2.18a5.764,5.764,0,0,1-.465,3.145,3.3,3.3,0,0,1-.51.71c-.148.138-.23.2-.235.194a4.593,4.593,0,0,0,.648-.95,5.911,5.911,0,0,0,.373-3.063c-.066-.664-.214-1.383-.332-2.164a8.556,8.556,0,0,1-.087-2.552c.2-1.879,2.011-3.257,2.042-5.319a16.646,16.646,0,0,0-.168-2.956,10.348,10.348,0,0,1,0-2.808,9,9,0,0,1,1.935-4.3,8.521,8.521,0,0,1,2.435-2.042,5.481,5.481,0,0,1,.781-.373A1.086,1.086,0,0,1,275.868,199.4Z" transform="translate(-202.416 -187.9)" fill="#263238"/>
      <path id="Path_65365" data-name="Path 65365" d="M321.3,223.5l-.087.071c-.061.041-.148.112-.271.184a4.277,4.277,0,0,1-1.159.47,4.819,4.819,0,0,1-1.986.071,4.375,4.375,0,0,1-2.348-1.169,4.778,4.778,0,0,1-1.4-2.843,4.38,4.38,0,0,1,.117-1.792,5.524,5.524,0,0,1,.837-1.705,22.709,22.709,0,0,1,2.823-2.879,10.724,10.724,0,0,0,1.389-1.567,7.748,7.748,0,0,0,.955-1.919,12.466,12.466,0,0,0,.536-4.212,30.442,30.442,0,0,0-.414-3.977,37.167,37.167,0,0,0-1.695-6.55,39.538,39.538,0,0,0-1.787-4.212c-.24-.485-.434-.858-.567-1.108a2.348,2.348,0,0,1-.2-.368,2.614,2.614,0,0,1,.235.368c.148.24.357.607.613,1.087a34.4,34.4,0,0,1,1.874,4.191,36.089,36.089,0,0,1,1.766,6.575,29.9,29.9,0,0,1,.434,4.012,12.543,12.543,0,0,1-.546,4.3,7.76,7.76,0,0,1-.985,1.986A11.117,11.117,0,0,1,318,214.126a22.856,22.856,0,0,0-2.8,2.833,5.269,5.269,0,0,0-.812,1.623,4.319,4.319,0,0,0-.128,1.705,4.645,4.645,0,0,0,1.322,2.736,4.309,4.309,0,0,0,2.241,1.159,4.747,4.747,0,0,0,1.935-.031,5.483,5.483,0,0,0,1.542-.648Z" transform="translate(-224.97 -183.298)" fill="#263238"/>
      <path id="Path_65366" data-name="Path 65366" d="M243.23,215.02a4.411,4.411,0,0,0,1.639-.817,6.529,6.529,0,0,0,2.175-4.385,25.567,25.567,0,0,0,.092-3.487,15.4,15.4,0,0,1,.311-4.033,7.515,7.515,0,0,1,.822-2.042,4.85,4.85,0,0,1,1.613-1.654c1.383-.847,3.063-.807,4.594-1.332a4.855,4.855,0,0,0,1.955-1.281,12.2,12.2,0,0,0,1.378-1.863,10.517,10.517,0,0,1,2.849-3.441,4.875,4.875,0,0,1,1.976-.72,10.722,10.722,0,0,1,1.965-.082,20.157,20.157,0,0,0,3.487-.031A10.367,10.367,0,0,0,272.721,188a12.854,12.854,0,0,0,1.062-.868l.26-.245.1-.082a7.148,7.148,0,0,1-1.358,1.276,10.3,10.3,0,0,1-4.671,1.955,20.419,20.419,0,0,1-3.517.061,6.519,6.519,0,0,0-3.8.791,10.846,10.846,0,0,0-2.762,3.369,12.337,12.337,0,0,1-1.409,1.909,5.105,5.105,0,0,1-2.042,1.348c-1.572.541-3.247.51-4.538,1.307a5.559,5.559,0,0,0-2.333,3.533,15.249,15.249,0,0,0-.332,3.967,24.306,24.306,0,0,1-.123,3.517,6.57,6.57,0,0,1-2.3,4.441,3.676,3.676,0,0,1-1.23.638,3.378,3.378,0,0,1-.352.082A.378.378,0,0,1,243.23,215.02Z" transform="translate(-190.325 -181.737)" fill="#455a64"/>
      <path id="Path_65367" data-name="Path 65367" d="M253.25,192.725a6.711,6.711,0,0,0,1.021.271,4.972,4.972,0,0,0,2.757-.454,11.531,11.531,0,0,0,3.3-2.6c.562-.572,1.149-1.184,1.812-1.761a8.26,8.26,0,0,1,2.3-1.47,7.458,7.458,0,0,1,2.69-.51,22.188,22.188,0,0,1,2.527.138c.8.077,1.531.158,2.256.163a10.113,10.113,0,0,0,1.955-.158,5.386,5.386,0,0,0,2.552-1.133,9.847,9.847,0,0,0,.72-.75,1.227,1.227,0,0,1-.138.235,2.09,2.09,0,0,1-.2.265,2.661,2.661,0,0,1-.316.327,5.309,5.309,0,0,1-2.6,1.24,9.975,9.975,0,0,1-1.991.194c-.72,0-1.48-.071-2.282-.138a21.916,21.916,0,0,0-2.5-.123,7.224,7.224,0,0,0-2.6.48,13.147,13.147,0,0,0-4.038,3.16,11.257,11.257,0,0,1-3.395,2.593,4.9,4.9,0,0,1-2.849.388,3.3,3.3,0,0,1-.756-.24A1.331,1.331,0,0,1,253.25,192.725Z" transform="translate(-195.23 -180.587)" fill="#455a64"/>
      <path id="Path_65368" data-name="Path 65368" d="M316.368,208.13a3.853,3.853,0,0,0,.25-.975,4.186,4.186,0,0,0-.725-2.578,16.646,16.646,0,0,0-2.8-2.966,7.52,7.52,0,0,1-1.486-1.96,6.887,6.887,0,0,1-.633-2.552c-.117-1.812.194-3.507.153-5.044A6.126,6.126,0,0,0,310,188.247a3.793,3.793,0,0,0-2.241-1.434,4.342,4.342,0,0,0-1.021-.026.879.879,0,0,1,.26-.071,2.8,2.8,0,0,1,.761,0,3.8,3.8,0,0,1,2.374,1.419,6.207,6.207,0,0,1,1.22,3.921c.02,1.557-.25,3.262-.133,5.028a6.687,6.687,0,0,0,.6,2.471,7.234,7.234,0,0,0,1.424,1.9,15.918,15.918,0,0,1,2.787,3.063,4.171,4.171,0,0,1,.669,2.69,2.42,2.42,0,0,1-.214.73A.919.919,0,0,1,316.368,208.13Z" transform="translate(-221.413 -181.678)" fill="#455a64"/>
      <path id="Path_65369" data-name="Path 65369" d="M235.022,208.741a3.038,3.038,0,0,1-.327-.179,3.8,3.8,0,0,1-.791-.715,4.625,4.625,0,0,1-.98-3.727,4.508,4.508,0,0,1,.434-1.251,4.972,4.972,0,0,1,.9-1.113,11.452,11.452,0,0,1,2.655-1.634,10.368,10.368,0,0,0,2.838-1.807,6.693,6.693,0,0,0,1.608-3.175c.306-1.21.51-2.435.914-3.573a15.483,15.483,0,0,1,1.486-3.109,16.207,16.207,0,0,1,3.88-4.314,15.109,15.109,0,0,1,3.379-1.981,9.451,9.451,0,0,1,1-.373,1.629,1.629,0,0,1,.357-.1c0,.031-.48.184-1.312.572a15.661,15.661,0,0,0-3.3,2.042,16.294,16.294,0,0,0-3.788,4.293,15.247,15.247,0,0,0-1.445,3.063c-.388,1.113-.592,2.323-.909,3.573a6.881,6.881,0,0,1-1.68,3.293,10.521,10.521,0,0,1-2.91,1.843,11.471,11.471,0,0,0-2.619,1.577,4.9,4.9,0,0,0-.868,1.052,4.246,4.246,0,0,0-.429,1.184,4.763,4.763,0,0,0,.117,2.159,4.365,4.365,0,0,0,.756,1.465A5.457,5.457,0,0,0,235.022,208.741Z" transform="translate(-185.246 -179.231)" fill="#263238"/>
      <path id="Path_65370" data-name="Path 65370" d="M323,209.57c-.026,0,.214-.245.541-.73a6.176,6.176,0,0,0,.909-2.261,8.571,8.571,0,0,0-.128-3.6,14.512,14.512,0,0,0-1.828-4.058c-.842-1.353-1.751-2.578-2.517-3.737a21.075,21.075,0,0,1-1.8-3.226,10.637,10.637,0,0,1-.74-2.384,6.127,6.127,0,0,1-.082-.674.824.824,0,0,1,0-.235s.061.322.189.888a12,12,0,0,0,.8,2.348,22.974,22.974,0,0,0,1.838,3.165c.771,1.149,1.69,2.369,2.552,3.737a14.4,14.4,0,0,1,1.843,4.14,8.6,8.6,0,0,1,.071,3.7,5.916,5.916,0,0,1-1.021,2.282,3.977,3.977,0,0,1-.449.51A.858.858,0,0,1,323,209.57Z" transform="translate(-226.604 -182.642)" fill="#263238"/>
      <path id="Path_65371" data-name="Path 65371" d="M182.963,368.692l-4.191,7.295s-20.833-7.622-33.029-5.4c-4.64.842-9.6,11.364-2.843,18.122,6.59,6.59,18.378,15.912,40.5,18.929.551.071,9.613,2.016,9.051,1.95s12.7,2.042,12.7,2.042l3.114-11.772,24.7,3.875c14.559-.99,21.686-16.56,12.915-21.573-8.168-4.671-23.554-5.049-23.554-5.049l-5.575-8.74Z" transform="translate(-139.594 -270.612)" fill="#263238"/>
      <path id="Path_65372" data-name="Path 65372" d="M225.311,418.985c.061-.4.24-1.47.6-3.67.2-1.174.439-2.6.75-4.247.158-.827.332-1.7.541-2.624.107-.465.22-.934.357-1.419.066-.24.138-.48.225-.725a2.15,2.15,0,0,1,.378-.725l.036.179c-5.258-1.868-11.833-4.334-18.837-7.29-4.309-1.833-8.372-3.681-11.951-5.615a38.8,38.8,0,0,1-4.9-3.037c-1.45-1.072-2.746-2.144-3.961-3.063a21.5,21.5,0,0,0-6.213-3.645,10.55,10.55,0,0,0-1.087-.322,6.577,6.577,0,0,0-.812-.174l-.511-.092-.174-.041a.792.792,0,0,1,.179,0l.51.066a5.974,5.974,0,0,1,.827.148,9.428,9.428,0,0,1,1.1.3,14.919,14.919,0,0,1,2.859,1.271,29.605,29.605,0,0,1,3.436,2.323c1.225.924,2.522,1.986,3.977,3.063a38.68,38.68,0,0,0,4.885,3c3.573,1.909,7.632,3.752,11.935,5.58,7,2.951,13.564,5.437,18.807,7.331l.148.056-.112.123a2.109,2.109,0,0,0-.322.643c-.087.235-.158.475-.23.71-.138.475-.255.95-.362,1.4-.214.919-.4,1.792-.562,2.614-.327,1.644-.582,3.063-.8,4.237s-.388,2.067-.51,2.706c-.061.311-.107.551-.148.71a1.73,1.73,0,0,1-.061.225Z" transform="translate(-159.251 -277.514)" fill="#455a64"/>
      <path id="Path_65373" data-name="Path 65373" d="M290.355,397.523h-.138l-.383-.061c-.337-.046-.827-.168-1.475-.235a28.721,28.721,0,0,0-5.478-.194,40.9,40.9,0,0,0-8.025,1.327c-1.48.393-3.022.863-4.594,1.409s-3.185,1.174-4.834,1.833a44.427,44.427,0,0,1-4.926,1.628c-1.618.444-3.2.791-4.707,1.082-3.022.592-5.774.955-8.081,1.235s-4.181.47-5.472.6l-1.491.148-.388.031a.441.441,0,0,1-.133,0h.128l.388-.056,1.48-.2,5.462-.684c2.307-.306,5.049-.689,8.056-1.292,1.506-.3,3.063-.648,4.686-1.1a45.79,45.79,0,0,0,4.9-1.618c1.644-.659,3.262-1.292,4.85-1.833s3.129-1.021,4.62-1.4a39.771,39.771,0,0,1,8.076-1.271,27.015,27.015,0,0,1,5.5.276c.648.082,1.133.225,1.47.286l.383.087A.46.46,0,0,1,290.355,397.523Z" transform="translate(-188.856 -284.547)" fill="#455a64"/>
      <path id="Path_65374" data-name="Path 65374" d="M244.616,387.752c0,.174-1.1.454-2.956.628a38.644,38.644,0,0,1-14.355-1.531c-1.771-.562-2.808-1.077-2.757-1.246.117-.368,4.492.8,10.006,1.368S244.58,387.364,244.616,387.752Z" transform="translate(-181.179 -279.013)" fill="#263238"/>
      <path id="Path_65375" data-name="Path 65375" d="M284.41,385.83a5.607,5.607,0,0,1-.817.22,9.458,9.458,0,0,0-.955.245c-.368.107-.791.22-1.246.383a31.028,31.028,0,0,0-3.155,1.251c-1.154.551-2.4,1.2-3.671,1.96a57.936,57.936,0,0,0-6.182,4.349c-.756.6-1.363,1.1-1.777,1.45a4.834,4.834,0,0,1-.669.51,5.668,5.668,0,0,1,.6-.6c.4-.373.985-.893,1.731-1.531a49.139,49.139,0,0,1,6.167-4.436,39.182,39.182,0,0,1,3.7-1.95,26.939,26.939,0,0,1,3.2-1.21c.459-.153.888-.255,1.266-.347a8.36,8.36,0,0,1,.97-.2,4.9,4.9,0,0,1,.837-.092Z" transform="translate(-201.442 -279.159)" fill="#455a64"/>
      <path id="Path_65376" data-name="Path 65376" d="M247.763,401.989a5.9,5.9,0,0,1-1.465-.419,31.478,31.478,0,0,1-3.344-1.506l-3.231-1.7a11.483,11.483,0,0,1-1.332-.725,7.444,7.444,0,0,1,1.419.556c.853.388,2.006.98,3.277,1.629s2.43,1.21,3.293,1.572A12.381,12.381,0,0,1,247.763,401.989Z" transform="translate(-187.956 -284.94)" fill="#455a64"/>
      <path id="Path_65377" data-name="Path 65377" d="M260.688,370.72c.041,0-.031.766-.107,2s-.148,2.93-.112,4.809.174,3.573.3,4.809a19.87,19.87,0,0,1,.189,1.991,1.95,1.95,0,0,1-.133-.51c-.071-.337-.153-.832-.24-1.445a40.78,40.78,0,0,1-.378-4.824,41.949,41.949,0,0,1,.189-4.829c.066-.618.128-1.113.184-1.455A2.273,2.273,0,0,1,260.688,370.72Z" transform="translate(-198.63 -271.762)" fill="#455a64"/>
      <path id="Path_65378" data-name="Path 65378" d="M264.958,371.99a2.387,2.387,0,0,0-.22.235,1.45,1.45,0,0,0-.327.75,1.414,1.414,0,0,0,.322,1.118,1.317,1.317,0,0,0,2.18-.807,1.424,1.424,0,0,0-.51-1.057,1.445,1.445,0,0,0-.735-.357c-.2-.031-.311,0-.316-.036s.107-.066.327-.066a1.4,1.4,0,0,1,.847.317,1.477,1.477,0,1,1-2,2.17,1.562,1.562,0,0,1-.322-1.312,1.409,1.409,0,0,1,.439-.8C264.831,372.01,264.953,371.979,264.958,371.99Z" transform="translate(-200.577 -272.276)" fill="#455a64"/>
      <path id="Path_65379" data-name="Path 65379" d="M264.257,355.729a2.917,2.917,0,0,1-.4.51,15.509,15.509,0,0,1-1.225,1.3,19.1,19.1,0,0,1-2.042,1.69,22.147,22.147,0,0,1-2.782,1.68,21.69,21.69,0,0,1-3.012,1.21,19.4,19.4,0,0,1-2.583.613,14.6,14.6,0,0,1-1.771.2,3.373,3.373,0,0,1-.653,0c0-.051.924-.1,2.394-.388a22.514,22.514,0,0,0,2.552-.664,21.817,21.817,0,0,0,7.77-4.477C263.619,356.408,264.217,355.7,264.257,355.729Z" transform="translate(-193.536 -264.424)" fill="#263238"/>
      <path id="Path_65380" data-name="Path 65380" d="M292.6,366.772c0,.077-.919.077-2,.352s-1.9.684-1.94.618A5.3,5.3,0,0,1,292.6,366.772Z" transform="translate(-212.563 -269.8)" fill="#263238"/>
      <g id="Group_160831" data-name="Group 160831" transform="translate(57.842 91.673)" opacity="0.3">
        <path id="Path_65381" data-name="Path 65381" d="M253.671,363.025a19.552,19.552,0,0,0,11.379-6.575,4.6,4.6,0,0,1-1.118,4.686c1.3.613,2.818.2,4.237,0s3.155,0,3.834,1.261a150.072,150.072,0,0,1-19.1.546" transform="translate(-252.9 -356.45)"/>
      </g>
      <path id="Path_65382" data-name="Path 65382" d="M215.913,347.673a7.172,7.172,0,0,0-2.2-1.424,7.075,7.075,0,0,0-2.792-.475,7.658,7.658,0,0,0-3.333.9,14.2,14.2,0,0,0-4.554,4.385,13.637,13.637,0,0,0-1.021,1.664,4.124,4.124,0,0,1-.352.623,3.574,3.574,0,0,1,.26-.669,11.232,11.232,0,0,1,.939-1.726c.475-.684,1.087-1.45,1.792-2.287a9.945,9.945,0,0,1,2.8-2.231,7.739,7.739,0,0,1,3.456-.9,7.065,7.065,0,0,1,2.869.546,5.468,5.468,0,0,1,1.654,1.057,2.906,2.906,0,0,1,.368.388C215.882,347.617,215.923,347.668,215.913,347.673Z" transform="translate(-169.976 -259.43)" fill="#263238"/>
      <path id="Path_65383" data-name="Path 65383" d="M248.926,253.81l-7.126,1.516,3.563,13.339,12.619,2.711,8.658-6.141,1.189-7.356-7.423-2.808Z" transform="translate(-189.625 -214.534)" fill="#ffbe9d"/>
      <path id="Path_65384" data-name="Path 65384" d="M226.213,255.71s4.824,14.008,13.737,12.711,8.168-10.373,8.168-10.373,9.3,2.838,12.175,5.855,1.179,9.577,1.179,9.577l-2.409,11.854-5.248,22.707s2.006,6.2-3.124,7.729l-1.618-2.552-30.767.868s-6.58,7.586-8.632,4.972a38.135,38.135,0,0,1-4.023-7.719l14.136-53.949Z" transform="translate(-171.929 -215.464)" fill="#372c51"/>
      <path id="Path_65385" data-name="Path 65385" d="M303.069,268.25c.25.143,21.844,15.825,21.844,15.825s-1.695,12.905,8.678,10.853c0,0-4.186,10.792-9.853,8.525-1.613-.643-21.517-13.237-21.517-13.237L298,281.227Z" transform="translate(-217.135 -221.602)" fill="#372c51"/>
      <path id="Path_65386" data-name="Path 65386" d="M222.561,257.06a12.761,12.761,0,0,0-1.312.092c-4.227.408-19.827,3.64-21.272,14.651-.756,5.758-.97,22.6-1.787,29.66,0,0,1.3,9.812,1.787,11.629.863,3.237,16.494-1.95,16.494-1.95L216.5,280l5.585-22.926" transform="translate(-168.277 -216.125)" fill="#372c51"/>
      <path id="Path_65387" data-name="Path 65387" d="M226.511,312.48a.75.75,0,0,1,0,.25,6.722,6.722,0,0,0,.051.725,10.454,10.454,0,0,0,.659,2.552c.4,1.052,1.021,2.246,1.613,3.614a16.339,16.339,0,0,1,.817,2.216,13.563,13.563,0,0,1,.424,2.5,29.663,29.663,0,0,1-.128,4.87c-.128,1.491-.25,2.833-.434,3.951a17.59,17.59,0,0,1-.618,2.609c-.1.3-.189.51-.255.684a.878.878,0,0,1-.112.23s.1-.337.271-.944a19.815,19.815,0,0,0,.51-2.609c.163-1.113.265-2.45.383-3.936a31.884,31.884,0,0,0,.1-4.834,13.42,13.42,0,0,0-.408-2.45,16.668,16.668,0,0,0-.791-2.185c-.592-1.363-1.184-2.578-1.567-3.645a9.495,9.495,0,0,1-.582-2.624,4.262,4.262,0,0,1,0-.73A1.405,1.405,0,0,1,226.511,312.48Z" transform="translate(-182.101 -243.253)" fill="#263238"/>
      <path id="Path_65388" data-name="Path 65388" d="M227.979,304.78c.046,0,.082.791.26,2.042a27.367,27.367,0,0,0,1.138,4.845c.158.465.322.909.51,1.337a2.848,2.848,0,0,0,.128.291l.184.281a6.615,6.615,0,0,1,.327.577,4.835,4.835,0,0,1,.577,2.205,3.936,3.936,0,0,1-.3,1.531,2.2,2.2,0,0,1-.281.51,5.3,5.3,0,0,0,.393-1.991,4.8,4.8,0,0,0-.6-2.1c-.1-.184-.209-.368-.327-.551l-.184-.281a1.855,1.855,0,0,1-.153-.332c-.179-.429-.342-.883-.511-1.348a22.973,22.973,0,0,1-1.072-4.911c-.071-.638-.092-1.164-.1-1.531A2.481,2.481,0,0,1,227.979,304.78Z" transform="translate(-182.848 -239.484)" fill="#263238"/>
      <path id="Path_65389" data-name="Path 65389" d="M222.469,286.138c-.041,0-.276-.638-.735-1.644a23.112,23.112,0,0,0-2.159-3.747,23.488,23.488,0,0,0-2.833-3.262c-.8-.766-1.343-1.2-1.312-1.235a1.825,1.825,0,0,1,.408.266,12.691,12.691,0,0,1,1.021.832,19.333,19.333,0,0,1,5.039,7.07,12.978,12.978,0,0,1,.449,1.246A1.969,1.969,0,0,1,222.469,286.138Z" transform="translate(-176.715 -225.518)" fill="#263238"/>
      <path id="Path_65390" data-name="Path 65390" d="M315,277.7a5.759,5.759,0,0,1-.1,1.235c-.092.761-.225,1.807-.342,2.966s-.214,2.21-.281,2.976a5.92,5.92,0,0,1-.153,1.23,5.547,5.547,0,0,1-.036-1.241c0-.771.082-1.828.2-2.991s.281-2.216.419-2.966A5.544,5.544,0,0,1,315,277.7Z" transform="translate(-224.998 -226.228)" fill="#263238"/>
      <path id="Path_65391" data-name="Path 65391" d="M316.86,303.375c0,.046-.674.112-1.72.408a8.132,8.132,0,0,0-3.6,2.108,9.937,9.937,0,0,0-1.373,1.868,14.285,14.285,0,0,0-.786,1.736l-.25.694c-.061.189-.112.368-.163.511a1.852,1.852,0,0,1-.168.449,1.433,1.433,0,0,1,.072-.475l.117-.546.214-.715a12.37,12.37,0,0,1,.75-1.792,9.421,9.421,0,0,1,1.4-1.889,7.729,7.729,0,0,1,3.737-2.1,5.369,5.369,0,0,1,.735-.148,4.609,4.609,0,0,1,.556-.071,1.532,1.532,0,0,1,.48-.036Z" transform="translate(-222.422 -238.794)" fill="#263238"/>
      <path id="Path_65392" data-name="Path 65392" d="M350.216,315.453a3.06,3.06,0,0,1-.342-.572c-.107-.184-.23-.419-.357-.7s-.281-.587-.413-.949a18.587,18.587,0,0,1-.822-2.578,21.117,21.117,0,0,1-.51-3.282,20.78,20.78,0,0,1,.056-3.313,19.1,19.1,0,0,1,.47-2.665c.082-.378.2-.71.286-1.021a6.415,6.415,0,0,1,.255-.74,3.184,3.184,0,0,1,.266-.613c.051,0-.291.9-.623,2.394a21.7,21.7,0,0,0-.408,2.644,23.1,23.1,0,0,0-.041,3.277,22.843,22.843,0,0,0,.48,3.242,21.41,21.41,0,0,0,.756,2.552C349.807,314.6,350.262,315.432,350.216,315.453Z" transform="translate(-241.478 -236.665)" fill="#263238"/>
      <path id="Path_65393" data-name="Path 65393" d="M341.02,311.682a2.156,2.156,0,0,1-.2-.546,10.77,10.77,0,0,1-.316-1.531,12.077,12.077,0,0,1,.48-5.187,11.741,11.741,0,0,1,2.609-4.513,2.236,2.236,0,0,1,1.4-.756.99.99,0,0,1,.434.087c.087.046.133.077.128.087a1.531,1.531,0,0,0-.556-.071,2.272,2.272,0,0,0-1.271.781,12.421,12.421,0,0,0-2.491,4.462,13.029,13.029,0,0,0-.551,5.1C340.816,310.876,341.066,311.667,341.02,311.682Z" transform="translate(-237.893 -236.728)" fill="#263238"/>
      <path id="Path_65394" data-name="Path 65394" d="M262.786,318.72a2.407,2.407,0,0,1-.128.607,6.035,6.035,0,0,1-.2.694,9.449,9.449,0,0,1-.342.9,14.245,14.245,0,0,1-1.164,2.216,15.109,15.109,0,0,1-4.273,4.37,14.4,14.4,0,0,1-2.19,1.22,8.533,8.533,0,0,1-.893.357,4.618,4.618,0,0,1-.689.225,3.063,3.063,0,0,1-.6.143c0-.051.837-.281,2.1-.893a16.038,16.038,0,0,0,2.134-1.251,18.15,18.15,0,0,0,2.307-1.95A17.709,17.709,0,0,0,260.738,323a15.667,15.667,0,0,0,1.2-2.159C262.525,319.562,262.734,318.7,262.786,318.72Z" transform="translate(-194.765 -246.308)" fill="#263238"/>
      <g id="Group_160832" data-name="Group 160832" transform="translate(45.383 65.51)" opacity="0.2">
        <path id="Path_65395" data-name="Path 65395" d="M233.454,317.155l-2.94-10.72c-.143-.511-.383-1.138-.919-1.235a1.021,1.021,0,0,0-1.047.878,5.753,5.753,0,0,0,0,1.567c.23,2.333.414,3.915,1.5,5.723,2.119,3.522.725,5.232.725,5.232a48.263,48.263,0,0,1-1.531,14.544l1.261,5.314c1.195-3.951,3.926-7.244,4.385-11.348C235.241,323.746,234.368,320.412,233.454,317.155Z" transform="translate(-228.495 -305.199)" fill="#bfbedc"/>
      </g>
      <g id="Group_160833" data-name="Group 160833" transform="translate(87.144 68.572)" opacity="0.3">
        <path id="Path_65396" data-name="Path 65396" d="M310.3,312.567c3.5,1.817,6.606,4.329,10.011,6.274a15.972,15.972,0,0,0-6.269-7.009,3.967,3.967,0,0,0-2.369-.628c-.827.117-1.419.582-1.292,1.4" transform="translate(-310.3 -311.198)"/>
      </g>
      <g id="Group_160834" data-name="Group 160834" transform="translate(102.46 62.044)" opacity="0.2">
        <path id="Path_65397" data-name="Path 65397" d="M345.024,298.614c-1.195-.031-2.093,1.057-2.68,2.1a16.137,16.137,0,0,0-1.93,9.74c.071.6.3,1.327.893,1.445a1.021,1.021,0,0,0,1.057-.628,2.9,2.9,0,0,0,.2-1.292,42.248,42.248,0,0,1,.153-6.126,9.142,9.142,0,0,1,2.552-5.442" transform="translate(-340.303 -298.41)" fill="#bfbedc"/>
      </g>
      <path id="Path_65398" data-name="Path 65398" d="M243.78,305.243h.123l.352-.025,1.383-.072,5.227-.24,18.516-.786h.123v.117c.153,6.228.332,13.4.51,20.981v.893h-.087a181.233,181.233,0,0,0-22.8,1.7h-.1l-.026-.1a81.516,81.516,0,0,1-2.721-16.417c-.123-2.011-.143-3.573-.143-4.666v-1.649a.436.436,0,0,1,0,.107v1.542c0,1.077.066,2.655.2,4.656a83.794,83.794,0,0,0,2.808,16.371l-.128-.087a177.4,177.4,0,0,1,22.9-1.751l-.133.138V325.2c-.179-7.586-.342-14.753-.51-20.981l.122.117-18.521.689-5.233.174-1.383.041H243.8Z" transform="translate(-190.594 -239.161)" fill="#fff"/>
      <path id="Path_65399" data-name="Path 65399" d="M254.512,321.813c-.071,0-.71-3.436-1.424-7.7s-1.235-7.734-1.164-7.749.71,3.436,1.424,7.708S254.563,321.8,254.512,321.813Z" transform="translate(-194.577 -240.257)" fill="#fff"/>
      <path id="Path_65400" data-name="Path 65400" d="M257.623,344.15a15.359,15.359,0,0,1-.567-2.782,15.578,15.578,0,0,1-.306-2.828,15.361,15.361,0,0,1,.567,2.787A14.5,14.5,0,0,1,257.623,344.15Z" transform="translate(-196.943 -256.01)" fill="#fff"/>
      <path id="Path_65401" data-name="Path 65401" d="M265.826,317.976a1.567,1.567,0,0,1-.143-.475c-.077-.306-.174-.761-.281-1.317-.214-1.118-.454-2.67-.628-4.4s-.24-3.3-.255-4.431v-1.348a2.19,2.19,0,0,1,.046-.51,14.072,14.072,0,0,1,.128,1.833c.061,1.133.158,2.7.332,4.416s.383,3.267.546,4.39a15.533,15.533,0,0,1,.255,1.838Z" transform="translate(-200.746 -239.837)" fill="#fff"/>
      <path id="Path_65402" data-name="Path 65402" d="M265.083,341.239a25.324,25.324,0,0,1-.577-3.609,24.159,24.159,0,0,1-.316-3.64,25.49,25.49,0,0,1,.577,3.609,24.164,24.164,0,0,1,.317,3.64Z" transform="translate(-200.585 -253.783)" fill="#fff"/>
      <path id="Path_65403" data-name="Path 65403" d="M274.885,326.894a6.092,6.092,0,0,1-.1-.842l-.2-2.3c-.168-1.935-.419-4.594-.756-7.56s-.7-5.615-.98-7.54c-.133-.929-.245-1.7-.327-2.282a5.542,5.542,0,0,1-.092-.842,4.731,4.731,0,0,1,.194.827c.107.51.245,1.307.408,2.267.327,1.925.72,4.594,1.062,7.54s.556,5.615.679,7.581c.056.97.1,1.756.112,2.3A4.5,4.5,0,0,1,274.885,326.894Z" transform="translate(-204.618 -239.851)" fill="#fff"/>
      <path id="Path_65404" data-name="Path 65404" d="M285.895,327.052a5.269,5.269,0,0,1-.041-.858v-2.338c0-1.971-.071-4.7-.209-7.7s-.352-5.723-.51-7.688c-.082-.944-.148-1.731-.2-2.323a5.958,5.958,0,0,1-.046-.858,4.662,4.662,0,0,1,.148.842c.082.546.179,1.343.286,2.323.214,1.96.449,4.681.6,7.688s.163,5.738.133,7.714c0,.985-.036,1.787-.061,2.338A5.866,5.866,0,0,1,285.895,327.052Z" transform="translate(-210.717 -239.734)" fill="#fff"/>
      <g id="Group_160835" data-name="Group 160835" transform="translate(57.765 73.255)" opacity="0.2">
        <path id="Path_65405" data-name="Path 65405" d="M252.924,330.295a4.283,4.283,0,0,0,2.69.653,8.547,8.547,0,0,0,2.716-.71,8.2,8.2,0,0,0,3.089-2.042,7.183,7.183,0,0,0,1.531-3.614,21.219,21.219,0,0,0,.133-3.987.261.261,0,0,0-.041-.163.2.2,0,0,0-.286,0,.637.637,0,0,0-.158.281,14.8,14.8,0,0,1-9.847,9.311" transform="translate(-252.75 -320.371)" fill="#bfbedc"/>
      </g>
      <path id="Path_65406" data-name="Path 65406" d="M225.92,385.671l-3.119-5.85-7.014-32.83s-6.453-3.706-11.741,4.416c-.209.327,7.269,23.84,9.357,30.379l.291,6.259s-.368,7.407,0,8.056a3.012,3.012,0,0,0,1.3,1.021,1.8,1.8,0,0,0,1.853,2.042s.184,2.042,1.756,1.761a3.027,3.027,0,0,0,2.134-1.3s0,2.588,1.389,2.313,1.613-1.389,1.868-1.756a28.694,28.694,0,0,0,.551-4.171l-.026-6.269,3.614,2.93c1.021.51,2.578,1.164,3.446.383Z" transform="translate(-171.142 -259.734)" fill="#ffbe9d"/>
      <path id="Path_65407" data-name="Path 65407" d="M244.04,430.92a11.282,11.282,0,0,1,.2,3.379c-.041.868-.077,1.659-.112,2.384a3.894,3.894,0,0,1-.092.985,15.65,15.65,0,0,1-.061-3.379C244.071,432.431,243.959,430.93,244.04,430.92Z" transform="translate(-190.66 -301.231)" fill="#eb996e"/>
      <path id="Path_65408" data-name="Path 65408" d="M236.269,439.48a36.3,36.3,0,0,1,.082,6.2,36.3,36.3,0,0,1-.082-6.2Z" transform="translate(-186.871 -305.421)" fill="#eb996e"/>
      <path id="Path_65409" data-name="Path 65409" d="M229.408,441.71a8.443,8.443,0,0,1-.413,4.288c-.071,0,.112-.965.22-2.144A19.6,19.6,0,0,1,229.408,441.71Z" transform="translate(-183.349 -306.513)" fill="#eb996e"/>
      <path id="Path_65410" data-name="Path 65410" d="M225.281,440.29a7.448,7.448,0,0,1-.276,2.792,3.716,3.716,0,0,1,0-1.409A3.885,3.885,0,0,1,225.281,440.29Z" transform="translate(-181.371 -305.817)" fill="#eb996e"/>
    </g>
    <g id="freepik--speech-bubble--inject-4" transform="translate(87.114 77.207)">
      <path id="Path_65411" data-name="Path 65411" d="M195.467,149.374l-4.7-8.28a22.176,22.176,0,1,0-5.314,5.911h0Z" transform="translate(-149.657 -107.257)" fill="#fff"/>
      <path id="Path_65412" data-name="Path 65412" d="M195.413,149.344l-10.031-2.3a.061.061,0,0,1-.051-.077s0,0,0-.026h0l.092.092a22.507,22.507,0,0,1-4.554,2.746,22.2,22.2,0,0,1-6.049,1.741,19.733,19.733,0,0,1-3.5.174c-.608-.031-1.22-.046-1.838-.1l-1.874-.286a22.339,22.339,0,0,1-13.839-8.883,22.1,22.1,0,0,1-3.742-8.556,22.579,22.579,0,0,1,.26-9.853,21.87,21.87,0,0,1,4.748-9.107l.9-1.021c.3-.337.653-.613.975-.919a8,8,0,0,1,1.021-.873l1.062-.8a9.37,9.37,0,0,1,1.1-.73l1.123-.679,1.174-.572a10.31,10.31,0,0,1,1.189-.51,22.564,22.564,0,0,1,9.924-1.531,21.8,21.8,0,0,1,9.112,2.69,22.462,22.462,0,0,1,10.491,12.961,23.845,23.845,0,0,1,.965,7.2,22.115,22.115,0,0,1-1.082,6.218,22.513,22.513,0,0,1-2.226,4.768v-.066l4.64,8.311-4.763-8.275a.066.066,0,0,1,0-.061,22.553,22.553,0,0,0,2.18-4.748,21.874,21.874,0,0,0,1.052-6.177,23.89,23.89,0,0,0-.975-7.147,22.293,22.293,0,0,0-10.424-12.788,21.6,21.6,0,0,0-9.01-2.649,22.344,22.344,0,0,0-9.812,1.531,10.452,10.452,0,0,0-1.174.51l-1.159.562-1.113.674a9.541,9.541,0,0,0-1.087.72l-1.052.786c-.357.255-.659.582-.99.868a9.435,9.435,0,0,0-.96.9l-.893.985a21.609,21.609,0,0,0-4.7,9,22.36,22.36,0,0,0-.265,9.735,21.911,21.911,0,0,0,3.691,8.464,22.16,22.16,0,0,0,13.681,8.821l1.853.286c.613.051,1.22.066,1.817.1a19.519,19.519,0,0,0,3.482-.163,22.012,22.012,0,0,0,6.029-1.695,22.461,22.461,0,0,0,4.538-2.7.066.066,0,0,1,.1,0,.077.077,0,0,1,0,.082h0l-.036-.107Z" transform="translate(-149.604 -107.228)" fill="#263238"/>
      <path id="Path_65413" data-name="Path 65413" d="M176.48,142.226a3.063,3.063,0,0,0-1.1-.286,3.3,3.3,0,0,0-3.037,1.123c2.394,1.389,5.656,3.231,7.989,4.564l2.946-1.685C181.151,144.773,178.486,143.3,176.48,142.226Z" transform="translate(-160.733 -124.199)" fill="#efa00b"/>
      <g id="Group_160836" data-name="Group 160836" transform="translate(11.607 17.699)" opacity="0.3">
        <path id="Path_65414" data-name="Path 65414" d="M176.48,142.226a3.063,3.063,0,0,0-1.1-.286,3.3,3.3,0,0,0-3.037,1.123c2.394,1.389,5.656,3.231,7.989,4.564l2.946-1.685C181.151,144.773,178.486,143.3,176.48,142.226Z" transform="translate(-172.34 -141.898)"/>
      </g>
      <path id="Path_65415" data-name="Path 65415" d="M185.349,147.875l-.107-.092c-.735-.424-1.531-1.23-2.256-1.215-.281,0-.587.25-1.317.659-1.215.689-3.262,1.889-4.487,2.552a4.506,4.506,0,0,1-3.507.633,5.023,5.023,0,0,1-1.644-1l13.314-7.719c-.066-.2-.138-.388-.2-.582a3.813,3.813,0,1,1,3.191,2.552,1.741,1.741,0,0,0-.888.179c-.51.245-.98.556-1.588.9,1.021.459,1.72,1.195,2.92,1.082a3.6,3.6,0,0,1,3.624,2.644,3.813,3.813,0,1,1-7.259-.087C185.2,148.243,185.287,148.069,185.349,147.875Zm3.4-6.126a1.823,1.823,0,0,0,1.843-1.858,1.848,1.848,0,0,0-1.828-1.817,1.879,1.879,0,0,0-1.858,1.868,1.853,1.853,0,0,0,1.843,1.8Zm0,9.74a1.848,1.848,0,0,0,1.863-1.782,1.817,1.817,0,0,0-1.807-1.894,1.858,1.858,0,0,0-1.879,1.771,1.879,1.879,0,0,0,1.8,1.894Z" transform="translate(-160.582 -121.344)" fill="#efa00b"/>
      <path id="Path_65416" data-name="Path 65416" d="M193.268,152.06a1.187,1.187,0,0,0-.4-.613.776.776,0,0,0-.72-.087.756.756,0,0,0,0,1.4.776.776,0,0,0,.72-.087c.378-.271.357-.628.4-.618s.041.082,0,.225a.853.853,0,0,1-.306.541.955.955,0,0,1-.919.168.985.985,0,0,1,0-1.863.955.955,0,0,1,.919.168.842.842,0,0,1,.306.536C193.309,151.978,193.283,152.06,193.268,152.06Z" transform="translate(-170.053 -128.693)" fill="#263238"/>
      <path id="Path_65417" data-name="Path 65417" d="M194.587,151.73a2.625,2.625,0,0,1-.271.179l-.761.459-2.517,1.48-2.552,1.45-.776.429a1.9,1.9,0,0,1-.291.148,2.157,2.157,0,0,1,.271-.184l.761-.459,2.517-1.475,2.552-1.45.776-.434A2.113,2.113,0,0,1,194.587,151.73Z" transform="translate(-168.115 -129.012)" fill="#263238"/>
      <path id="Path_65418" data-name="Path 65418" d="M184.824,147.73a1.017,1.017,0,0,1-.123.087l-.368.23-1.358.842c-1.143.694-2.731,1.644-4.513,2.649l-4.548,2.583-1.4.745-.378.2-.133.066s.041-.031.123-.082l.368-.225,1.368-.8,4.538-2.609c1.777-1.021,3.369-1.945,4.528-2.619l1.373-.791.378-.214Z" transform="translate(-160.567 -127.054)" fill="#263238"/>
    </g>
    <g id="freepik--Stars--inject-4" transform="translate(192.121 77.207)">
      <path id="Path_65419" data-name="Path 65419" d="M359.691,202.18l.97,1.771,1.771.97-1.771.97-.97,1.771-.97-1.771-1.771-.97,1.771-.97Z" transform="translate(-356.95 -164.276)" fill="#efa00b"/>
      <path id="Path_65420" data-name="Path 65420" d="M375,154.019l1.006-.066.812-.6.066,1.011.6.812-1.011.066-.812.6-.066-1.006Z" transform="translate(-365.786 -140.373)" fill="#efa00b"/>
      <path id="Path_65421" data-name="Path 65421" d="M694.86,311.819l1.006-.066.812-.6.066,1.011.6.812-1.011.066-.812.6-.066-1.006Z" transform="translate(-510.577 -234.451)" fill="#efa00b"/>
      <path id="Path_65422" data-name="Path 65422" d="M469.55,213.094l1.006-.066.817-.6.066,1.006.6.812-1.006.066-.817.6-.061-1.006Z" transform="translate(-412.069 -169.293)" fill="#efa00b"/>
      <path id="Path_65423" data-name="Path 65423" d="M481.57,128.594l1.006-.066.812-.6.066,1.006.6.812-1.006.066-.812.6-.066-1.011Z" transform="translate(-417.953 -127.93)" fill="#efa00b"/>
      <path id="Path_65424" data-name="Path 65424" d="M421.02,179.32l1.531-.883.812-1.567.883,1.531,1.572.817-1.531.878-.817,1.572-.883-1.531Z" transform="translate(-388.313 -151.887)" fill="#efa00b"/>
      <path id="Path_65425" data-name="Path 65425" d="M673.07,349.83l1.532-.883.812-1.567.883,1.531,1.567.812-1.532.883-.812,1.567-.883-1.531Z" transform="translate(-499.91 -252.186)" fill="#efa00b"/>
      <path id="Path_65426" data-name="Path 65426" d="M658,294.98l1.531-.883.817-1.567.883,1.531,1.567.812-1.531.883-.817,1.572-.878-1.537Z" transform="translate(-492.533 -225.336)" fill="#efa00b"/>
    </g>
  </g>
</svg>
