<svg id="Uplod" xmlns="http://www.w3.org/2000/svg" width="60.81" height="44.247" viewBox="0 0 60.81 44.247">
  <g id="Group_18878" data-name="Group 18878">
    <path id="Path_55162" data-name="Path 55162" d="M47.514,110.9H34.468V97.713h4.312a1.349,1.349,0,0,0,1.093-2.137L31.486,83.971a1.337,1.337,0,0,0-2.174,0L20.924,95.576a1.345,1.345,0,0,0,1.093,2.137h4.312V110.9H11.717C5.194,110.536,0,104.435,0,97.825A12.378,12.378,0,0,1,6.138,87.139a8.3,8.3,0,0,1-.509-2.9,8.416,8.416,0,0,1,8.424-8.424,8.28,8.28,0,0,1,2.883.509A16.865,16.865,0,0,1,48.981,81.9a14.672,14.672,0,0,1-1.466,29Z" transform="translate(0 -66.65)" fill="#efa00b"/>
  </g>
</svg>
