<svg xmlns="http://www.w3.org/2000/svg" width="224.59" height="238.118" viewBox="0 0 224.59 238.118">
  <g id="Files_sent-pana" data-name="Files sent-pana" transform="translate(-31.288 -32.702)">
    <path id="Path_67443" data-name="Path 67443" d="M74.471,71.634l1.2-1.941c9.909-16.362,27.861-26.229,46.794-25.029a49.6,49.6,0,0,1,7.242.992,53.889,53.889,0,0,1,38.4,33.37c3.653,9.8,4.672,21.088,11.6,28.869,9.018,10.133,24.325,10.448,37.78,10.026s28.8-.059,37.748,10.106c5.616,6.368,7.4,15.434,6.949,23.967-1.2,22.581-16.933,42.762-36.938,52.8s-43.562,10.933-65.46,6.517c-30.671-6.181-59.839-23.162-77.374-49.391S60.439,99.943,74.471,71.634Z" transform="translate(-28.682 29.355)" fill="#ebebeb"/>
    <g id="freepik--Floor--inject-2" transform="translate(31.288 260.677)">
      <path id="Path_67313" data-name="Path 67313" d="M262.92,463.288c0,.074-50.283.138-112.29.138s-112.3-.064-112.3-.138,50.272-.138,112.3-.138S262.92,463.208,262.92,463.288Z" transform="translate(-38.33 -463.15)" fill="#263238"/>
    </g>
    <g id="freepik--Character--inject-2" transform="translate(68.556 75.726)">
      <path id="Path_67314" data-name="Path 67314" d="M110.208,385.08c.8-3.31,1.926-6.754,4.515-8.961,2.966-2.53,7.151-2.9,11.045-3.1,21.587-1.119,43.221-.87,64.835-.626a97.549,97.549,0,0,1,10.785.531c3.6.44,7.358,1.4,9.9,3.984a15.162,15.162,0,0,1,3.183,5.512c3.91,10.557,4.117,29.014-7.746,37.911l-87.536.027c-6.021-3.379-8.234-8.016-9.762-14.748S108.6,391.8,110.208,385.08Z" transform="translate(-108.579 -235.494)" fill="#455a64"/>
      <g id="Group_161447" data-name="Group 161447" transform="translate(24.144 132.771)" opacity="0.3">
        <path id="Path_67315" data-name="Path 67315" d="M215.773,365.046a1.883,1.883,0,0,1,2.536.626q6.08,6.536,12.165,13.072a2.011,2.011,0,0,1,.531.79,1.953,1.953,0,0,1-.223,1.22l-9.3,22.409a5.8,5.8,0,0,0-.653,2.812,5.9,5.9,0,0,0,1.5,2.891l5.2,6.61c-3.549.4-7.12.637-10.69.706l.5.149a21.794,21.794,0,0,1-6.366-2.271,4.775,4.775,0,0,1-1.889-1.592c-.891-1.47-.191-3.348.493-4.923a143.038,143.038,0,0,0,7.5-22.054,12.987,12.987,0,0,1-4.854-4.907,1.523,1.523,0,0,0-.621-.727,1.464,1.464,0,0,0-.96.048q-7.857,2.228-15.884,3.745c-6.992,1.326-14.138,2.244-21.221,1.533s-14.144-3.157-19.454-7.894A252.794,252.794,0,0,0,215.773,365.046Z" transform="translate(-154.09 -364.793)"/>
      </g>
      <path id="Path_67316" data-name="Path 67316" d="M116.38,389.14a1.018,1.018,0,0,1,.212.085l.6.286c.531.26,1.321.621,2.345,1.061a80.1,80.1,0,0,0,8.881,3.316,77.33,77.33,0,0,0,13.751,2.881,113.656,113.656,0,0,0,17.2.409c6.106-.223,11.937-.467,17.226-.8s10.037-.79,14.006-1.342,7.157-1.157,9.342-1.639c1.1-.228,1.942-.446,2.515-.578l.658-.149.223-.042a1.062,1.062,0,0,1-.218.069l-.647.18c-.573.143-1.411.382-2.5.621-2.186.531-5.369,1.172-9.342,1.735s-8.727,1.061-14.016,1.4-11.141.578-17.237.817a110.685,110.685,0,0,1-17.237-.43,76.55,76.55,0,0,1-13.793-2.928,74.751,74.751,0,0,1-8.87-3.406c-1.013-.472-1.8-.854-2.318-1.13l-.6-.308A1.543,1.543,0,0,1,116.38,389.14Z" transform="translate(-112.241 -243.453)" fill="#263238"/>
      <path id="Path_67317" data-name="Path 67317" d="M147.171,411.55a5.258,5.258,0,0,1-.1-1.5,13.631,13.631,0,0,1,.568-3.581,13.38,13.38,0,0,1,1.48-3.31,1.592,1.592,0,0,1,.865-.716c.281-.053.419.048.408.058a1.115,1.115,0,0,0-1.109.764,16.111,16.111,0,0,0-1.379,3.284,16.974,16.974,0,0,0-.642,3.512A13.671,13.671,0,0,1,147.171,411.55Z" transform="translate(-126.645 -249.693)" fill="#263238"/>
      <path id="Path_67318" data-name="Path 67318" d="M138.744,404.841a2.276,2.276,0,0,1-.2-.928,6.366,6.366,0,0,1,1.257-4.329,2.329,2.329,0,0,1,.668-.674,11.05,11.05,0,0,0-1.427,2.8A10.909,10.909,0,0,0,138.744,404.841Z" transform="translate(-122.637 -248.04)" fill="#263238"/>
      <path id="Path_67319" data-name="Path 67319" d="M248.332,411.137a24.688,24.688,0,0,0,.371-4.3,24.336,24.336,0,0,0-.674-4.244,4.245,4.245,0,0,1,.467,1.194,12.854,12.854,0,0,1,.217,6.154A4.183,4.183,0,0,1,248.332,411.137Z" transform="translate(-174.049 -249.767)" fill="#263238"/>
      <path id="Path_67320" data-name="Path 67320" d="M253.5,408.127a28.8,28.8,0,0,0-.074-3.183,30.763,30.763,0,0,0-.706-3.1,8.769,8.769,0,0,1,.78,6.281Z" transform="translate(-176.251 -249.415)" fill="#263238"/>
      <path id="Path_67321" data-name="Path 67321" d="M271.9,282.64,275.08,295.9l6.3,6.138-10.271,2.122s-7.263-.859-8.573-2.653-3.183-16.059-3.183-16.059Z" transform="translate(-179.363 -193.453)" fill="#ffbe9d"/>
      <path id="Path_67322" data-name="Path 67322" d="M197.4,211.327l9.581,3.539-.361,49.938s-15.194,13.263-16.112,13.141-37.741,11.555-38.728,13.719c0,0-4.552-.7-4.552-3.4,0-4.44,4.244-6.955,4.244-6.955-1.623-4.3.668-12.022.668-12.313,0-2.069.064-13.38.064-13.38s2.016-33,8.525-39.869C168.859,207.227,197.4,211.327,197.4,211.327Z" transform="translate(-126.725 -159.51)" fill="#efa00b"/>
      <g id="Group_161448" data-name="Group 161448" transform="translate(26.551 95.207)" opacity="0.3">
        <path id="Path_67323" data-name="Path 67323" d="M173.085,322.467c-2.122.138-4.462.233-6.234-.966-1.592-1.061-2.409-2.992-3.045-4.817a62.909,62.909,0,0,1-3.358-16.626,1.878,1.878,0,0,0-.26-1,3.8,3.8,0,0,0-.79-.615c-.854-.684-.838-1.968-.7-3.056a.812.812,0,0,1,.18-.493.827.827,0,0,1,.5-.191l4.711-.695a.679.679,0,0,1,.493.058.62.62,0,0,1,.191.308c3.454,9.019,3.592,19.332,8.52,27.672" transform="translate(-158.626 -293.988)"/>
      </g>
      <path id="Path_67324" data-name="Path 67324" d="M273.878,251.253s-9.236-33.242-17.088-33.523l.859,39.725S271.719,255.041,273.878,251.253Z" transform="translate(-178.161 -162.979)" fill="#efa00b"/>
      <g id="Group_161449" data-name="Group 161449" transform="translate(54.021 93.092)" opacity="0.3">
        <path id="Path_67325" data-name="Path 67325" d="M224.579,290a4.567,4.567,0,0,1-.653,3.841,8.239,8.239,0,0,1-2.96,2.833,10.769,10.769,0,0,1-9.984.748.96.96,0,0,1-.568-.531.7.7,0,0,1,.531-.78,2.33,2.33,0,0,1,1.013,0,14.506,14.506,0,0,0,12.648-6.1" transform="translate(-210.407 -290)" opacity="0.8"/>
      </g>
      <path id="Path_67326" data-name="Path 67326" d="M211.11,294.982c0-.064.955.1,2.483,0a11.288,11.288,0,0,0,1.247-.127c.446-.053.912-.164,1.406-.271a15.179,15.179,0,0,0,5.862-2.865,13.947,13.947,0,0,0,1.061-.944,12.154,12.154,0,0,0,.865-.9c1.008-1.157,1.464-2,1.517-1.974a3.14,3.14,0,0,1-.313.6,4.776,4.776,0,0,1-.424.663,8.872,8.872,0,0,1-.631.833,9.021,9.021,0,0,1-.854.939,12.292,12.292,0,0,1-1.061.981,14.525,14.525,0,0,1-5.963,2.934,14.287,14.287,0,0,1-1.432.249,11.283,11.283,0,0,1-1.268.1,9.474,9.474,0,0,1-1.061,0,5.062,5.062,0,0,1-.785-.074,3.45,3.45,0,0,1-.647-.138Z" transform="translate(-156.715 -195.922)" fill="#c5c5c5"/>
      <path id="Path_67327" data-name="Path 67327" d="M202.49,266.745a1.91,1.91,0,0,1,.3-.18c.2-.111.5-.26.9-.435a12.314,12.314,0,0,1,3.544-.981,8.741,8.741,0,0,1,2.557.08,7.883,7.883,0,0,1,2.727,1.061c.886.53,1.735,1.21,2.653,1.841a8.1,8.1,0,0,0,3.05,1.422,7.231,7.231,0,0,0,3.342-.255,20.018,20.018,0,0,0,2.95-1.178c.928-.43,1.814-.844,2.679-1.151a9.259,9.259,0,0,1,2.493-.562,5.629,5.629,0,0,1,3.549.849,3.826,3.826,0,0,1,.748.668,1.391,1.391,0,0,1,.2.286,5.306,5.306,0,0,0-1.008-.865,5.666,5.666,0,0,0-3.475-.748,9.374,9.374,0,0,0-2.43.584c-.849.313-1.724.732-2.653,1.172a20.533,20.533,0,0,1-3,1.21,7.427,7.427,0,0,1-3.47.265,8.329,8.329,0,0,1-3.151-1.47c-.918-.642-1.756-1.316-2.621-1.846a7.926,7.926,0,0,0-5.13-1.167,12.883,12.883,0,0,0-3.523.886c-.4.154-.711.292-.918.387A1.545,1.545,0,0,1,202.49,266.745Z" transform="translate(-152.669 -185.214)" fill="#fff"/>
      <path id="Path_67328" data-name="Path 67328" d="M202.49,273.143a1.91,1.91,0,0,1,.3-.18c.2-.111.5-.265.9-.44a12.335,12.335,0,0,1,3.544-.976,8.733,8.733,0,0,1,2.557.074,7.9,7.9,0,0,1,2.727,1.061c.886.531,1.735,1.21,2.653,1.836a8.106,8.106,0,0,0,3.05,1.427,7.305,7.305,0,0,0,3.342-.255,20.616,20.616,0,0,0,2.95-1.172c.928-.43,1.814-.849,2.679-1.157a9.458,9.458,0,0,1,2.493-.562,5.624,5.624,0,0,1,3.549.854,3.827,3.827,0,0,1,.748.669,1.236,1.236,0,0,1,.2.286,5.305,5.305,0,0,0-1.008-.865,5.666,5.666,0,0,0-3.475-.748,9.373,9.373,0,0,0-2.43.584c-.849.313-1.724.732-2.653,1.167a19.965,19.965,0,0,1-3,1.215,7.518,7.518,0,0,1-3.47.265A8.261,8.261,0,0,1,215,274.751c-.918-.637-1.756-1.31-2.621-1.841a7.894,7.894,0,0,0-5.13-1.167,13.1,13.1,0,0,0-3.523.881c-.4.159-.711.292-.918.387A1.868,1.868,0,0,1,202.49,273.143Z" transform="translate(-152.669 -188.216)" fill="#fff"/>
      <path id="Path_67329" data-name="Path 67329" d="M202.49,279.536a2.263,2.263,0,0,1,.3-.175c.2-.111.5-.265.9-.44a12.336,12.336,0,0,1,3.544-.976,8.557,8.557,0,0,1,2.557.074,7.8,7.8,0,0,1,2.727,1.061c.886.531,1.735,1.21,2.653,1.836a8.1,8.1,0,0,0,3.05,1.422,7.162,7.162,0,0,0,3.342-.255,20.013,20.013,0,0,0,2.95-1.167c.928-.435,1.814-.849,2.679-1.157a9.457,9.457,0,0,1,2.493-.562,5.661,5.661,0,0,1,3.549.849,3.818,3.818,0,0,1,.748.674,1.236,1.236,0,0,1,.2.287,5.432,5.432,0,0,0-1.008-.87,5.7,5.7,0,0,0-3.475-.743,9.376,9.376,0,0,0-2.43.584c-.849.308-1.724.727-2.653,1.167a19.409,19.409,0,0,1-3,1.21,7.426,7.426,0,0,1-3.47.271A8.339,8.339,0,0,1,215,281.149c-.918-.642-1.756-1.31-2.621-1.841a7.9,7.9,0,0,0-5.13-1.172,13.079,13.079,0,0,0-3.523.886c-.4.159-.711.292-.918.387A1.241,1.241,0,0,1,202.49,279.536Z" transform="translate(-152.669 -191.219)" fill="#fff"/>
      <path id="Path_67330" data-name="Path 67330" d="M178.318,220.885a8.319,8.319,0,0,0-12.1-4.345,14.1,14.1,0,0,0-4.557,4.165c-3.714,5.7-5.135,37.375-5.135,37.375l24.033-.95s.743-19.449,0-28.24C180.212,224.721,179.178,223.23,178.318,220.885Z" transform="translate(-131.091 -161.869)" fill="#efa00b"/>
      <path id="Path_67331" data-name="Path 67331" d="M178.2,220.805a.709.709,0,0,1,.074.159l.2.477.78,1.852a16.77,16.77,0,0,1,.923,3.082,31.368,31.368,0,0,1,.477,4.308c.35,6.462.271,15.624-.08,26.372v.117h-.117l-23.1.923-.928.037h-.149v-.149c.4-8.138,1.008-15.868,1.857-22.865a96.906,96.906,0,0,1,1.65-9.862c.18-.764.382-1.507.61-2.228.106-.366.249-.716.371-1.061a9.692,9.692,0,0,1,.472-1.008,11.459,11.459,0,0,1,2.764-3.146,13.794,13.794,0,0,1,3.226-2.005,8.234,8.234,0,0,1,3.337-.61,8.541,8.541,0,0,1,5.019,1.867,8.366,8.366,0,0,1,2.154,2.653,6.9,6.9,0,0,1,.361.812c.074.186.106.281.106.281s-.048-.09-.133-.271a8.018,8.018,0,0,0-.382-.8,8.345,8.345,0,0,0-7.13-4.387,8.16,8.16,0,0,0-3.263.621,13.523,13.523,0,0,0-3.183,2,11.141,11.141,0,0,0-2.7,3.093,9.33,9.33,0,0,0-.456.987c-.117.345-.26.69-.366,1.061-.223.716-.419,1.459-.594,2.218a95.976,95.976,0,0,0-1.618,9.841c-.838,6.987-1.432,14.717-1.836,22.844l-.143-.143.928-.037,23.1-.9-.122.122c.371-10.743.483-19.9.18-26.351a31.359,31.359,0,0,0-.44-4.292,17.143,17.143,0,0,0-.886-3.082c-.318-.806-.568-1.427-.737-1.862A5.318,5.318,0,0,1,178.2,220.805Z" transform="translate(-130.969 -161.789)" fill="#ffdb98"/>
      <path id="Path_67332" data-name="Path 67332" d="M259.323,274.522a1.209,1.209,0,0,1,0-.276c.027-.212.058-.472.1-.785l.361-2.891c.287-2.44.637-5.836.865-9.549s.239-7.141.138-9.592q-.042-.913-.08-1.655c-.037-.477-.069-.891-.1-1.247s-.042-.578-.058-.79a.912.912,0,0,1,0-.276.944.944,0,0,1,.053.271c.032.207.069.467.111.785s.1.759.143,1.247.08,1.061.122,1.655a84.039,84.039,0,0,1-.058,9.618c-.228,3.751-.61,7.13-.95,9.549-.17,1.215-.324,2.2-.446,2.881-.058.34-.106.6-.143.775A.912.912,0,0,1,259.323,274.522Z" transform="translate(-179.347 -176.937)" fill="#ffdb98"/>
      <path id="Path_67333" data-name="Path 67333" d="M322.94,283.443c.589-.859,1.443-2.1,2.032-2.96a.975.975,0,0,1,.233-.255.769.769,0,0,1,.424-.09,5.836,5.836,0,0,1,2.6.886l2.165,1.162a.53.53,0,0,1,.17.117.419.419,0,0,1-.1.584,1.157,1.157,0,0,1-.626.2c-2.165.271-4.345.446-6.525.531-.143,0-.329,0-.371-.154" transform="translate(-209.218 -192.277)" fill="#ffbe9d"/>
      <path id="Path_67334" data-name="Path 67334" d="M343.435,410.61l14.255,13.014s18.138-10.128,20.9-7.958l-24.234,27.412L332.22,423.708Z" transform="translate(-213.574 -253.533)" fill="#efa00b"/>
      <path id="Path_67335" data-name="Path 67335" d="M364.391,447.319a1.5,1.5,0,0,0,.594,1.9,1.432,1.432,0,0,0,1.889-.573,1.592,1.592,0,0,0-.637-2.011,1.5,1.5,0,0,0-1.9.812" transform="translate(-228.615 -270.405)" fill="#e0e0e0"/>
      <path id="Path_67336" data-name="Path 67336" d="M372.034,447.13l-2.154-2.042,24.043-25.518s1.592-.753,2.345.149Z" transform="translate(-231.255 -257.6)" fill="#263238"/>
      <path id="Path_67337" data-name="Path 67337" d="M380.309,433.834c.133.127-.4.849-.53,1.889s.1,1.883-.064,1.963-.759-.806-.531-2.064S380.214,433.7,380.309,433.834Z" transform="translate(-235.599 -264.428)" fill="#263238"/>
      <path id="Path_67338" data-name="Path 67338" d="M387.854,429.5c.154.085-.133.865.032,1.82s.647,1.592.53,1.745-.955-.456-1.135-1.65S387.721,429.39,387.854,429.5Z" transform="translate(-239.409 -262.397)" fill="#263238"/>
      <path id="Path_67339" data-name="Path 67339" d="M396.2,429.431c-.08.149-.913-.255-1.342-1.247s-.164-1.878,0-1.836.212.775.578,1.592S396.3,429.288,396.2,429.431Z" transform="translate(-242.87 -260.921)" fill="#263238"/>
      <path id="Path_67340" data-name="Path 67340" d="M250.19,349.84c.048,0-.223.53-.371,1.459a8.446,8.446,0,0,0,.265,3.57,18.715,18.715,0,0,0,1.4,3.353,8.927,8.927,0,0,1,.658,1.374,7.631,7.631,0,0,1-.828-1.279,15.072,15.072,0,0,1-1.491-3.374,7.709,7.709,0,0,1-.191-3.682,5.078,5.078,0,0,1,.35-1.061C250.095,349.951,250.174,349.835,250.19,349.84Z" transform="translate(-174.734 -225.002)" fill="#efa00b"/>
      <path id="Path_67341" data-name="Path 67341" d="M291.057,410.734l-6.854,17S299.159,442.294,298,445.594L264.33,431.27,275.7,404.15Z" transform="translate(-181.701 -250.5)" fill="#efa00b"/>
      <path id="Path_67342" data-name="Path 67342" d="M282.428,438.77a1.5,1.5,0,0,0-1.618,1.167,1.438,1.438,0,0,0,1.141,1.591,1.591,1.591,0,0,0,1.708-1.241,1.508,1.508,0,0,0-1.374-1.549" transform="translate(-189.433 -266.738)" fill="#e0e0e0"/>
      <path id="Path_67343" data-name="Path 67343" d="M264.31,452.88l1.252-2.69,31.831,14.743s1.22,1.289.6,2.276Z" transform="translate(-181.692 -272.115)" fill="#263238"/>
      <path id="Path_67344" data-name="Path 67344" d="M300.073,449.486c-.074.164-.928-.111-1.963.069s-1.761.695-1.883.562.53-.971,1.783-1.172S300.174,449.358,300.073,449.486Z" transform="translate(-196.67 -271.511)" fill="#263238"/>
      <path id="Path_67345" data-name="Path 67345" d="M306.122,455.408c-.032.175-.865.149-1.719.6s-1.326,1.125-1.491,1.061.133-1.061,1.2-1.592S306.17,455.249,306.122,455.408Z" transform="translate(-199.795 -274.458)" fill="#263238"/>
      <path id="Path_67346" data-name="Path 67346" d="M309.313,463.113c-.164-.027-.048-.95.759-1.666s1.729-.753,1.74-.589-.668.446-1.321,1.061S309.483,463.166,309.313,463.113Z" transform="translate(-202.79 -277.085)" fill="#263238"/>
      <path id="Path_67347" data-name="Path 67347" d="M307.066,284.777l-14.441,14.542-31.205,7.1L270,289.642a4.244,4.244,0,0,1,3.231-2.3c6.334-.854,24.59-3.337,32.706-4.69a1.268,1.268,0,0,1,1.13,2.122Z" transform="translate(-180.335 -193.452)" fill="#e0e0e0"/>
      <path id="Path_67348" data-name="Path 67348" d="M306.859,284.718a2.391,2.391,0,0,0,.159-.239,1.188,1.188,0,0,0,.143-.8,1.252,1.252,0,0,0-.806-.987,1.512,1.512,0,0,0-.843,0l-.987.17c-2.791.467-6.833,1.061-11.831,1.809s-10.955,1.565-17.571,2.472c-.822.122-1.682.207-2.5.361a4.091,4.091,0,0,0-2.122,1.279,4.447,4.447,0,0,0-.7,1.061l-.6,1.188-1.225,2.4-5.114,10.027-1.523,2.976-.154-.2,31.21-7.072-.048.032c4.44-4.446,8.059-8.069,10.579-10.584l2.907-2.891.764-.743c.17-.17.265-.249.265-.249s-.08.1-.244.271l-.743.769-2.865,2.923-10.515,10.653h-.032l-31.195,7.135-.286.069.133-.265c.5-.976,1.008-1.968,1.517-2.971l5.125-10.016,1.231-2.4.61-1.188a4.711,4.711,0,0,1,.732-1.125,4.393,4.393,0,0,1,2.26-1.353c.865-.17,1.687-.244,2.52-.366l17.581-2.409c5-.706,9.045-1.294,11.836-1.724l.992-.154a1.591,1.591,0,0,1,.886,0,1.321,1.321,0,0,1,.833,1.061,1.189,1.189,0,0,1-.175.828.962.962,0,0,1-.2.255Z" transform="translate(-180.128 -193.393)" fill="#263238"/>
      <path id="Path_67349" data-name="Path 67349" d="M303.215,304.233c.09.663,1.061,1.061,2.122.934s1.91-.79,1.825-1.454-1.061-1.061-2.122-.934S303.13,303.575,303.215,304.233Z" transform="translate(-199.954 -202.897)" fill="#fff"/>
      <path id="Path_67350" data-name="Path 67350" d="M304.928,305.2c-.918,0-1.655-.393-1.73-.971h0a1.061,1.061,0,0,1,.472-.934,3.034,3.034,0,0,1,2.817-.371.928.928,0,0,1,.228,1.714,2.791,2.791,0,0,1-1.363.531,2.9,2.9,0,0,1-.424.032Zm.53-2.446a2.922,2.922,0,0,0-.43.032,2.726,2.726,0,0,0-1.347.531,1.013,1.013,0,0,0-.467.907h0c.085.653,1.061,1.061,2.122.923a2.8,2.8,0,0,0,1.353-.531,1.019,1.019,0,0,0,.462-.907,1.008,1.008,0,0,0-.684-.759,2.51,2.51,0,0,0-1-.2Z" transform="translate(-199.949 -202.885)" fill="#fff"/>
      <path id="Path_67351" data-name="Path 67351" d="M279,293.225a1.448,1.448,0,0,1,.122-.382,10.807,10.807,0,0,1,.451-1.061,5.666,5.666,0,0,1,1.008-1.5,4.117,4.117,0,0,1,2.233-.833c3.47-.594,8.26-1.427,13.576-2.228l3.873-.594c1.257-.164,2.472-.286,3.629-.419l6.149-.674c1.74-.191,3.13-.53,4.106-.668.488-.08.865-.133,1.125-.154a1.689,1.689,0,0,1,.393,0,2.213,2.213,0,0,1-.387.074c-.255.042-.631.111-1.114.207-.966.175-2.345.531-4.1.759l-6.127.732c-1.157.138-2.366.265-3.623.43l-3.873.6c-5.305.8-10.08,1.592-13.581,2.122a4.011,4.011,0,0,0-2.159.753,5.74,5.74,0,0,0-1.019,1.438c-.233.435-.387.78-.5,1.013a2.651,2.651,0,0,1-.18.382Z" transform="translate(-188.589 -194.419)" fill="#263238"/>
      <path id="Path_67352" data-name="Path 67352" d="M249,297.6s5.751-3.555,7.608-4.3,5.279-.371,6.1-1.114,2.653-2.451,2.653-2.451,1.485,1.56.53,2.971-4.61,3.268-4.61,3.268l12.791-.844s.966.7.446,1.517a1.527,1.527,0,0,1,.154,1.931c-.748.966-9.841,8.679-12.7,8.913s-11.141-1.289-11.141-1.289Z" transform="translate(-174.504 -196.782)" fill="#ffbe9d"/>
      <path id="Path_67353" data-name="Path 67353" d="M179.519,294.39l1.194,12.8s23.523-5.836,27.513-7.427l1.873,8.6s-29.253,14.595-36.351,14.154S162.16,295.18,162.16,295.18Z" transform="translate(-133.734 -198.969)" fill="#ffbe9d"/>
      <path id="Path_67354" data-name="Path 67354" d="M180.407,323.52a1.061,1.061,0,0,1,0-.467,3.659,3.659,0,0,1,.355-1.22,4.88,4.88,0,0,1,1.151-1.507,6.365,6.365,0,0,1,1.979-1.162,17.35,17.35,0,0,1,4.08-.8,10.618,10.618,0,0,1,1.714-.149,10.643,10.643,0,0,1-1.682.34,21.222,21.222,0,0,0-4.011.865,6.526,6.526,0,0,0-1.926,1.109,5.056,5.056,0,0,0-1.141,1.406,5.5,5.5,0,0,0-.52,1.581Z" transform="translate(-142.289 -210.157)" fill="#eb996e"/>
      <path id="Path_67355" data-name="Path 67355" d="M271.6,304.677a20.612,20.612,0,0,1,2.058.2,14.771,14.771,0,0,0,4.918-.175,21.936,21.936,0,0,0,2.568-.907l2.122-.812c.594-.228,1.061-.408,1.416-.531a2.52,2.52,0,0,1,.531-.159,2.248,2.248,0,0,1-.493.26c-.324.149-.8.355-1.39.6l-2.069.865a19.13,19.13,0,0,1-2.6.944,13.476,13.476,0,0,1-5,.1c-.637-.09-1.146-.18-1.5-.249A1.942,1.942,0,0,1,271.6,304.677Z" transform="translate(-185.114 -202.678)" fill="#eb996e"/>
      <path id="Path_67356" data-name="Path 67356" d="M274.29,310.028c0-.053.8.048,2.08.027a6.9,6.9,0,0,0,2.191-.393,13.321,13.321,0,0,0,2.462-1.21c.844-.5,1.645-1,2.414-1.385s1.459-.706,2.011-1.035a7.4,7.4,0,0,0,1.618-1.273,1.459,1.459,0,0,1-.324.462,5.684,5.684,0,0,1-1.194.981,19.253,19.253,0,0,1-1.995,1.061c-.748.366-1.538.9-2.393,1.4a12.856,12.856,0,0,1-2.52,1.215,6.973,6.973,0,0,1-2.265.345,11.99,11.99,0,0,1-1.533-.117,1.878,1.878,0,0,1-.552-.08Z" transform="translate(-186.377 -203.838)" fill="#eb996e"/>
      <path id="Path_67357" data-name="Path 67357" d="M263.483,303.69c-.032,0-.149-.149-.2-.462a2.25,2.25,0,0,1,.186-1.188,3.421,3.421,0,0,1,.679-.976c.207-.212.361-.324.387-.3s-.446.6-.812,1.385a2.711,2.711,0,0,0-.244,1.061C263.478,303.5,263.52,303.674,263.483,303.69Z" transform="translate(-181.204 -201.961)" fill="#eb996e"/>
      <path id="Path_67358" data-name="Path 67358" d="M264.735,311.519c0,.027-.138,0-.281-.111a1.166,1.166,0,0,1-.382-.61,1.135,1.135,0,0,1,.032-.716c.069-.175.159-.249.186-.233a2.908,2.908,0,0,0,.048.881C264.464,311.19,264.777,311.45,264.735,311.519Z" transform="translate(-181.56 -206.226)" fill="#eb996e"/>
      <path id="Path_67359" data-name="Path 67359" d="M250.863,306.038h.143l.419.058,1.592.255c1.411.207,3.454.531,6.027.769.642.053,1.321.111,2.027.111h.531a2.538,2.538,0,0,0,.531-.053,5.043,5.043,0,0,0,1.061-.34,26.954,26.954,0,0,0,4.17-2.568c1.411-1.013,2.865-2.122,4.34-3.374.732-.615,1.485-1.247,2.212-1.926.345-.35.769-.663.875-1.109a1.517,1.517,0,0,0-.382-1.3l-.069-.08.053-.085a.759.759,0,0,0,.08-.7,1.48,1.48,0,0,0-.488-.631l.085.027-4.828.318-7.958.531-.626.042.557-.3a21.543,21.543,0,0,0,3.867-2.483,4.07,4.07,0,0,0,.727-.79,1.634,1.634,0,0,0,.276-.96,3.045,3.045,0,0,0-.806-1.8h.164l-1.512,1.374c-.244.228-.488.446-.732.668a2.9,2.9,0,0,1-.785.6,6.9,6.9,0,0,1-1.857.334c-.6.053-1.183.085-1.745.143a10.714,10.714,0,0,0-1.592.255,6.693,6.693,0,0,0-1.406.557c-.875.435-1.666.875-2.377,1.273-1.417.806-2.525,1.459-3.279,1.9l-.865.5-.223.127-.08.037.069-.053.212-.143.844-.53c.748-.462,1.841-1.135,3.252-1.958.706-.409,1.491-.859,2.371-1.305a6.8,6.8,0,0,1,1.432-.584,12.21,12.21,0,0,1,1.634-.276c.568-.058,1.151-.1,1.751-.154a6.775,6.775,0,0,0,1.783-.324,2.833,2.833,0,0,0,.722-.573l.727-.668,1.507-1.385.09-.085.08.09a3.268,3.268,0,0,1,.881,1.968,1.868,1.868,0,0,1-.313,1.1,4.194,4.194,0,0,1-.769.849,21.347,21.347,0,0,1-3.915,2.525l-.069-.255,7.958-.531,4.828-.318h.053l.037.032a1.815,1.815,0,0,1,.589.764,1.061,1.061,0,0,1-.111.939v-.164a1.751,1.751,0,0,1,.44,1.544,1.544,1.544,0,0,1-.408.7c-.18.2-.366.361-.531.53-.737.679-1.491,1.316-2.228,1.931-1.485,1.225-2.944,2.355-4.366,3.369a26.765,26.765,0,0,1-4.244,2.562,4.716,4.716,0,0,1-1.1.345,2.483,2.483,0,0,1-.557.058h-.53c-.716,0-1.39-.074-2.037-.127-2.578-.265-4.621-.621-6.027-.859l-1.592-.292-.414-.09Z" transform="translate(-174.499 -196.622)" fill="#eb996e"/>
      <path id="Path_67360" data-name="Path 67360" d="M237.257,319.694s34.526-8.807,38.282-8.568,15.857,2.462,11.141,16.557-25.836,49.906-25.836,49.906l-17.772-7.47,10.61-25.767s-22.229,6.69-31.375,7.22-16.637-12.4-16.637-12.4Z" transform="translate(-154.161 -206.824)" fill="#263238"/>
      <path id="Path_67361" data-name="Path 67361" d="M320.77,331.657a6.316,6.316,0,0,1,1.146-1.093,16.349,16.349,0,0,1,3.247-2.027,17.466,17.466,0,0,1,3.623-1.22c.95-.217,1.5-.462,1.512-.43a4.2,4.2,0,0,1-1.459.621,21.341,21.341,0,0,0-3.56,1.279,20.355,20.355,0,0,0-3.247,1.931C321.253,331.291,320.8,331.689,320.77,331.657Z" transform="translate(-208.199 -214.225)" fill="#455a64"/>
      <path id="Path_67362" data-name="Path 67362" d="M308.25,346.836a2.031,2.031,0,0,1,.186-.531c.138-.324.345-.785.61-1.348a42.924,42.924,0,0,1,5.088-8.313c.387-.493.7-.891.923-1.157a1.891,1.891,0,0,1,.371-.4,1.929,1.929,0,0,1-.286.462l-.849,1.21c-.716,1.013-1.714,2.419-2.706,4.037s-1.788,3.141-2.366,4.244c-.265.531-.493.944-.69,1.31A2.121,2.121,0,0,1,308.25,346.836Z" transform="translate(-202.321 -218.077)" fill="#455a64"/>
      <path id="Path_67363" data-name="Path 67363" d="M202.486,319.225a13.439,13.439,0,0,1,4.393-.976c2.35-.122,5.745,0,7.958,1.485,3.65,2.43,50.33,51.7,50.33,51.7l-13.093,16.1s-24.048-17.422-30.478-24.346S207.871,345.3,207.871,345.3s-8.711,9.2-16.817,13.231c-5.045,2.5-17.4,5.305-28.022,4.366a16.229,16.229,0,0,1-14.738-17.942v-.18a43.912,43.912,0,0,1,.992-4.7h0Z" transform="translate(-127.179 -210.154)" fill="#263238"/>
      <path id="Path_67364" data-name="Path 67364" d="M202.382,319.139s-.318.138-.944.387l-2.78,1.1-10.642,4.2-38.77,15.231.064-.069c-.35,1.348-.684,2.732-.912,4.149a20.786,20.786,0,0,0-.186,2.159,10.771,10.771,0,0,0,0,1.093,9.551,9.551,0,0,0,.08,1.1c.053.361.106.727.164,1.093s.17.727.255,1.088a17.968,17.968,0,0,0,.7,2.122,17.767,17.767,0,0,0,2.366,3.931,17.581,17.581,0,0,0,3.454,3.183,17.305,17.305,0,0,0,4.324,2.08,19.946,19.946,0,0,0,4.849.764c.833.069,1.671.058,2.509.085s1.687,0,2.536-.042a69.685,69.685,0,0,0,10.3-1.178c1.735-.318,3.464-.727,5.188-1.2a37.8,37.8,0,0,0,5.1-1.745,32.536,32.536,0,0,0,4.775-2.684c1.533-1.013,3.029-2.122,4.478-3.279a91.848,91.848,0,0,0,8.388-7.64l.117-.122.1.138c2.6,3.846,5.486,7.862,8.573,11.788a67.691,67.691,0,0,0,8.175,9.019c3.024,2.653,6.1,5.188,9.173,7.629,6.165,4.87,12.281,9.454,18.223,13.794h-.18l13.1-16.1v.164c-17.364-18.308-32.033-33.651-42.505-44.266q-1.968-1.989-3.745-3.74-.875-.881-1.73-1.682c-.568-.531-1.1-1.061-1.661-1.523l-.408-.35a2.166,2.166,0,0,0-.424-.308,4.251,4.251,0,0,0-.451-.255c-.149-.08-.3-.149-.456-.212a10.079,10.079,0,0,0-1.83-.573,16.861,16.861,0,0,0-3.326-.355,18.442,18.442,0,0,0-2.653.106,13.359,13.359,0,0,0-1.889.371c-.531.133-.875.265-1.125.35l-.377.138a10.018,10.018,0,0,1,1.491-.531,12.959,12.959,0,0,1,1.894-.393,19.04,19.04,0,0,1,2.653-.127,16.978,16.978,0,0,1,3.348.34,10.28,10.28,0,0,1,1.851.573c.154.064.313.133.462.212a3.908,3.908,0,0,1,.462.255,2.227,2.227,0,0,1,.43.313l.414.35c.573.456,1.1.992,1.676,1.523s1.151,1.088,1.74,1.676q1.783,1.745,3.751,3.714c10.51,10.61,25.2,25.905,42.585,44.2l.074.074-.069.085L252.038,387.46l-.08.1-.1-.074c-5.947-4.34-12.059-8.929-18.234-13.794-3.082-2.44-6.181-4.95-9.189-7.645a72.209,72.209,0,0,1-8.207-9.056c-3.093-3.936-5.979-7.958-8.584-11.8h.212a93.048,93.048,0,0,1-8.409,7.746c-1.459,1.172-2.96,2.276-4.5,3.295a33.774,33.774,0,0,1-4.806,2.706A38.828,38.828,0,0,1,185,360.684c-1.735.472-3.47.875-5.2,1.194a68.834,68.834,0,0,1-10.34,1.178c-.854.042-1.7.032-2.546.042a22.147,22.147,0,0,1-2.52-.085,20.6,20.6,0,0,1-4.913-.78,17.741,17.741,0,0,1-4.387-2.122A16.5,16.5,0,0,1,149.2,352.9a17.576,17.576,0,0,1-.711-2.17c-.085-.366-.2-.727-.26-1.1l-.159-1.109a7.925,7.925,0,0,1-.08-1.114,11.081,11.081,0,0,1,0-1.109c.058-.738.064-1.47.191-2.186.233-1.432.568-2.817.923-4.175v-.053h.053l38.8-15.141,10.669-4.149,2.791-1.061Z" transform="translate(-127.074 -210.069)" fill="#455a64"/>
      <path id="Path_67365" data-name="Path 67365" d="M327.932,293.76c-3.21,1.236-7.151,2.467-10.361,3.464a2.509,2.509,0,0,0-1.162.594.886.886,0,0,0-.074,1.194,1.284,1.284,0,0,0,1,.207l2.361-.164a17.209,17.209,0,0,0-5.045,2.414c-.409.286-.844.668-.833,1.172a1.061,1.061,0,0,0,.9.939,3.151,3.151,0,0,0,1.385-.09q4.377-.971,8.711-2.165a3.243,3.243,0,0,0,.966-.377,3.379,3.379,0,0,0,.939-1.1q.669-1.061,1.348-2.149a3.538,3.538,0,0,0,.637-1.48,3.029,3.029,0,0,0-.769-2.456" transform="translate(-204.936 -198.674)" fill="#ffbe9d"/>
      <path id="Path_67366" data-name="Path 67366" d="M227.264,154.15l3.5-36.712c6.584-2.69,11.22,3.889,12.106,6.318a21.09,21.09,0,0,1,.78,7.682,20.439,20.439,0,0,0,.822,7.666c.854,2.271,2.472,4.149,3.714,6.234s2.122,4.642,1.252,6.9c-.6,1.618-2.058,3.183-1.528,4.817a12,12,0,0,0,.944,1.687,4.292,4.292,0,0,1-.122,3.8,7.459,7.459,0,0,1-2.679,2.817,12.154,12.154,0,0,1-18.78-11.21Z" transform="translate(-164.281 -115.596)" fill="#263238"/>
      <path id="Path_67367" data-name="Path 67367" d="M166.164,152.96a6.447,6.447,0,0,1,2.329-3.475,24.451,24.451,0,0,0,3.151-2.854,12.308,12.308,0,0,0,2.212-6.117,34.2,34.2,0,0,1,2.255-6.685c.78-2.053,2.711-4.09,3.963-5.47l1.061,42.919a14.069,14.069,0,0,1-10.541-4.382A11.141,11.141,0,0,1,168,156.345,2.907,2.907,0,0,1,166.164,152.96Z" transform="translate(-135.589 -121.021)" fill="#263238"/>
      <path id="Path_67368" data-name="Path 67368" d="M197.787,127.619l17.894-4.562c5.73-.615,9.549,6.43,9.931,12.2.419,6.366.674,14.207-.074,18.977-1.5,9.6-8.849,10.833-8.849,10.833s.042,3.019.053,7.305a10.08,10.08,0,0,1-9.719,10.08h0a10.08,10.08,0,0,1-10.4-9.613l-1.846-41.773a3.379,3.379,0,0,1,3.008-3.448Z" transform="translate(-149.048 -118.514)" fill="#ffbe9d"/>
      <path id="Path_67369" data-name="Path 67369" d="M246.066,161.275a1.225,1.225,0,0,1-1.188,1.241,1.167,1.167,0,0,1-1.268-1.1,1.236,1.236,0,0,1,1.178-1.247,1.183,1.183,0,0,1,1.279,1.109Z" transform="translate(-171.973 -135.952)" fill="#263238"/>
      <path id="Path_67370" data-name="Path 67370" d="M244.38,151.873c-.149.159-1.061-.531-2.409-.531s-2.292.674-2.435.531c-.069-.069.085-.361.531-.668a3.38,3.38,0,0,1,1.947-.6,3.183,3.183,0,0,1,1.915.615C244.316,151.518,244.454,151.809,244.38,151.873Z" transform="translate(-170.054 -131.463)" fill="#263238"/>
      <path id="Path_67371" data-name="Path 67371" d="M221.04,161.277a1.225,1.225,0,0,1-1.162,1.241,1.167,1.167,0,0,1-1.268-1.1,1.236,1.236,0,0,1,1.178-1.247A1.183,1.183,0,0,1,221.04,161.277Z" transform="translate(-160.236 -135.954)" fill="#263238"/>
      <path id="Path_67372" data-name="Path 67372" d="M219.4,152.463c-.154.159-1.061-.531-2.409-.531s-2.292.674-2.435.531c-.069-.069.08-.361.531-.668a3.4,3.4,0,0,1,1.952-.6,3.183,3.183,0,0,1,1.915.615C219.336,152.1,219.474,152.389,219.4,152.463Z" transform="translate(-158.326 -131.74)" fill="#263238"/>
      <path id="Path_67373" data-name="Path 67373" d="M232.689,162.974a9.025,9.025,0,0,1,2.149-.393c.334-.037.658-.1.711-.334a1.724,1.724,0,0,0-.228-1l-1-2.568a44.327,44.327,0,0,1-2.26-6.727,44.353,44.353,0,0,1,2.8,6.531c.334.9.658,1.761.96,2.584a1.942,1.942,0,0,1,.18,1.326.844.844,0,0,1-.531.493,2.239,2.239,0,0,1-.578.085A8.745,8.745,0,0,1,232.689,162.974Z" transform="translate(-166.543 -132.096)" fill="#263238"/>
      <path id="Path_67374" data-name="Path 67374" d="M224.221,199.241a25.863,25.863,0,0,1-13.4-3.4s3.8,6.738,13.4,5.836Z" transform="translate(-156.579 -152.702)" fill="#eb996e"/>
      <path id="Path_67375" data-name="Path 67375" d="M228.744,177.957a2.371,2.371,0,0,0-2.122-.881,2.17,2.17,0,0,0-1.5.806,1.39,1.39,0,0,0-.1,1.592,1.592,1.592,0,0,0,1.735.435,5.119,5.119,0,0,0,1.692-1.013,1.554,1.554,0,0,0,.377-.393.44.44,0,0,0,0-.493" transform="translate(-163.15 -143.886)" fill="#eb996e"/>
      <path id="Path_67376" data-name="Path 67376" d="M220.1,147.5c-.127.355-1.448.191-3,.382s-2.806.615-3.013.292c-.09-.154.127-.493.631-.844a5.071,5.071,0,0,1,2.233-.785,5.019,5.019,0,0,1,2.35.271C219.865,147.045,220.157,147.326,220.1,147.5Z" transform="translate(-158.102 -129.542)" fill="#263238"/>
      <path id="Path_67377" data-name="Path 67377" d="M243.624,142.369c-.286.3-1.416,0-2.78,0s-2.509.207-2.775-.106c-.117-.154.064-.451.568-.737a4.509,4.509,0,0,1,2.255-.5,4.441,4.441,0,0,1,2.218.6C243.592,141.913,243.752,142.22,243.624,142.369Z" transform="translate(-169.356 -126.966)" fill="#263238"/>
      <path id="Path_67378" data-name="Path 67378" d="M179.652,149.161c-.053-5.581,1.432-11.141,2.186-16.648a22.925,22.925,0,0,1,1.56-6.541,17.962,17.962,0,0,1,6.419-6.929,24.244,24.244,0,0,1,9.99-4.334,13.667,13.667,0,0,1,10.409,2.377,2.271,2.271,0,0,1,.981,1.342c.361,1.369-.313,1.936-1.088,3.119a15.189,15.189,0,0,1-2.944,3.035l-5.141,4.4a39.431,39.431,0,0,1-3.788,2.976,38.82,38.82,0,0,1-3.714,2.085l-3.963,2.027a2.042,2.042,0,0,0-.875.668,2.068,2.068,0,0,0-.218.838c-.424,3.714-.393,7.836-.626,11.581-.265,4.271,3.183,16.128,3.183,16.128l-6.366-.631c-2.817-.642-5.592-4.127-5.99-6.992C179.281,154.986,179.673,151.331,179.652,149.161Z" transform="translate(-141.874 -114.527)" fill="#313c41"/>
      <path id="Path_67379" data-name="Path 67379" d="M194.027,160.5a2.794,2.794,0,0,0-4.09-2.377c-.971.531-1.714,1.687-1.623,3.852.239,5.777,5.99,4.35,5.99,4.181S194.149,162.886,194.027,160.5Z" transform="translate(-146.009 -134.83)" fill="#ffbe9d"/>
      <path id="Path_67380" data-name="Path 67380" d="M193.755,165.575c-.027,0-.1.08-.265.164a1.029,1.029,0,0,1-.753.042,2.493,2.493,0,0,1-1.247-2.186,3.4,3.4,0,0,1,.223-1.454,1.172,1.172,0,0,1,.727-.8.531.531,0,0,1,.6.249c.085.159.053.276.085.286s.117-.1.064-.34a.637.637,0,0,0-.244-.35.743.743,0,0,0-.562-.127,1.411,1.411,0,0,0-1.013.939,3.374,3.374,0,0,0-.281,1.623,2.594,2.594,0,0,0,1.592,2.435,1.061,1.061,0,0,0,.912-.191C193.749,165.718,193.771,165.585,193.755,165.575Z" transform="translate(-147.313 -136.368)" fill="#eb996e"/>
      <path id="Path_67381" data-name="Path 67381" d="M192.43,173.3a1.135,1.135,0,1,0,1.135-1.13,1.135,1.135,0,0,0-1.135,1.13Z" transform="translate(-147.945 -141.589)" fill="#263238"/>
      <path id="Path_67382" data-name="Path 67382" d="M223.619,162.787a6.821,6.821,0,0,0,2.891-.737c.61-.578,1.241-2.716,1.783-4.732.069-.26.111-.435.133-.483L228,156.67q-.09.261-.154.531c-.286,1.061-1.061,3.958-1.655,4.525-.711.668-6.631,1.013-7.183.631a20.065,20.065,0,0,1-1.592-4.589l-.037-.159-2.361-.064-.058.149c-.462,1.178-1.894,4.361-2.928,4.95-1.3.737-6.366.382-6.732-.122a35.235,35.235,0,0,1-1.719-5.348l-.042-.164-7.189.286v.435l6.817-.276a35.555,35.555,0,0,0,1.745,5.305c.61.812,6.027.987,7.337.239s2.748-4.244,3.066-5.024l1.687.048c.26.981,1.162,4.218,1.708,4.653s3.475.2,3.814.175S223.221,162.835,223.619,162.787Z" transform="translate(-149.786 -134.312)" fill="#455a64"/>
      <path id="Path_67383" data-name="Path 67383" d="M220.9,157.643l.462-.753c-3.109-1.708-8.647-2.414-12.165-.584l.43.764C212.77,155.436,217.991,156.046,220.9,157.643Z" transform="translate(-155.819 -133.635)" fill="#455a64"/>
      <path id="Path_67384" data-name="Path 67384" d="M246.34,156.38l.345-.812c-3.772-1.432-8.637-.966-11.565,1.114l.531.695C238.308,155.5,242.9,155.07,246.34,156.38Z" transform="translate(-167.988 -133.408)" fill="#455a64"/>
      <path id="Path_67385" data-name="Path 67385" d="M229.825,178.119a1.735,1.735,0,0,1-.9.271,3.634,3.634,0,0,1-2.228-.483,3.591,3.591,0,0,1-1.491-1.724,1.814,1.814,0,0,1-.2-.923c.048,0,.117.345.371.844a3.8,3.8,0,0,0,3.528,2.122C229.469,178.183,229.814,178.077,229.825,178.119Z" transform="translate(-163.239 -143.04)" fill="#263238"/>
      <path id="Path_67386" data-name="Path 67386" d="M177.149,157.38a6.9,6.9,0,0,1-1.56-1.252,9.066,9.066,0,0,1-2.4-4.86,8.87,8.87,0,0,1,.26-3.777,9.119,9.119,0,0,1,2.159-3.767,12.165,12.165,0,0,1,4.027-2.61c1.533-.658,3.183-1.146,4.828-1.761a39.635,39.635,0,0,0,8.743-4.584,41.524,41.524,0,0,0,3.406-2.653c1.008-.9,1.931-1.756,2.716-2.594a41.038,41.038,0,0,0,3.5-4.17c.387-.531.653-.939.854-1.21l.228-.313c.053-.069.08-.106.085-.1a.4.4,0,0,1-.064.117c-.053.085-.117.2-.2.329-.186.281-.435.716-.817,1.241a36.788,36.788,0,0,1-3.438,4.244c-.785.849-1.7,1.724-2.711,2.653a40.848,40.848,0,0,1-3.411,2.653,38.766,38.766,0,0,1-8.769,4.631c-1.65.626-3.3,1.109-4.817,1.756a11.9,11.9,0,0,0-3.947,2.541,8.918,8.918,0,0,0-2.414,7.332,9.136,9.136,0,0,0,2.292,4.817,10.148,10.148,0,0,0,1.061,1.008l.3.233C177.117,157.349,177.154,157.375,177.149,157.38Z" transform="translate(-138.866 -118.847)" fill="#efa00b"/>
    </g>
    <g id="freepik--speech-bubble--inject-2" transform="translate(38.567 75.922)">
      <path id="Path_67387" data-name="Path 67387" d="M99.012,158.017,94.2,149.529a22.7,22.7,0,1,0-5.438,6.053h0Z" transform="translate(-52.11 -114.916)" fill="#fafafa"/>
      <path id="Path_67388" data-name="Path 67388" d="M98.954,158l-10.244-2.467.032.085h0a.049.049,0,0,0-.064-.074,23.343,23.343,0,0,1-4.647,2.769,22.684,22.684,0,0,1-6.186,1.735,20.211,20.211,0,0,1-3.565.17c-.61-.037-1.236-.053-1.862-.106l-1.9-.292a22.623,22.623,0,0,1-17.81-17.693,22.934,22.934,0,0,1,.271-9.979c.111-.419.207-.838.329-1.252s.3-.812.451-1.215a19.912,19.912,0,0,1,1.061-2.387,10.138,10.138,0,0,1,.653-1.146c.228-.377.451-.759.69-1.13l.8-1.061.4-.531c.133-.175.3-.329.44-.5l.918-1.008c.3-.34.658-.621.987-.928l.5-.456a5.066,5.066,0,0,1,.531-.435l1.061-.8a6.449,6.449,0,0,1,.531-.393l.568-.345,1.141-.695,1.188-.578a10.55,10.55,0,0,1,1.2-.531,22.908,22.908,0,0,1,10.08-1.549,22.123,22.123,0,0,1,9.236,2.716,22.844,22.844,0,0,1,10.685,13.1,24.334,24.334,0,0,1,.992,7.268,22.541,22.541,0,0,1-1.061,6.329,23.125,23.125,0,0,1-2.239,4.86.048.048,0,0,0,0,.053l4.854,8.451L94.195,149.5v.053a23.03,23.03,0,0,0,2.271-4.875,22.494,22.494,0,0,0,1.1-6.366,24.3,24.3,0,0,0-.981-7.369A22.971,22.971,0,0,0,85.834,117.71a22.388,22.388,0,0,0-9.332-2.759,23.1,23.1,0,0,0-10.154,1.592,10.3,10.3,0,0,0-1.215.531c-.4.2-.806.387-1.2.589l-1.146.695-.578.35a4.579,4.579,0,0,0-.531.393l-1.061.817a4.573,4.573,0,0,0-.531.435l-.5.456c-.329.318-.69.6-1,.939l-.923,1.019a4.441,4.441,0,0,0-.446.531l-.4.531c-.265.361-.531.716-.8,1.061a12.371,12.371,0,0,0-.7,1.141,10.77,10.77,0,0,0-.684,1.125,20.693,20.693,0,0,0-1.061,2.409l-.477,1.241c-.127.419-.223.844-.334,1.263a23.125,23.125,0,0,0-.271,10.08A22.857,22.857,0,0,0,70.46,159.982l1.915.292c.637.053,1.263.069,1.878.106a21,21,0,0,0,3.592-.18,22.871,22.871,0,0,0,6.212-1.772,23.285,23.285,0,0,0,4.658-2.806l-.074-.08h0a.058.058,0,0,0,0,.08h0Z" transform="translate(-52.051 -114.897)" fill="#263238"/>
      <path id="Path_67389" data-name="Path 67389" d="M78.51,154.092l2.419-2.637,5.061,4.133,9.183-9.618,2.456,2.43L85.836,160.48Z" transform="translate(-64.473 -129.485)" fill="#efa00b"/>
    </g>
    <g id="freepik--hot-air-balloon--inject-2" transform="translate(170.23 32.702)">
      <path id="Path_67390" data-name="Path 67390" d="M300.383,287.23c.074,0,.133.3.122.668s-.074.658-.154.658-.127-.3-.122-.663S300.3,287.225,300.383,287.23Z" transform="translate(-300.229 -152.584)" fill="#263238"/>
      <path id="Path_67391" data-name="Path 67391" d="M301.452,277.43a3.226,3.226,0,0,1-.111,1.316,3.262,3.262,0,0,1-.382,1.268,3.226,3.226,0,0,1,.111-1.316A3.283,3.283,0,0,1,301.452,277.43Z" transform="translate(-300.561 -147.983)" fill="#263238"/>
      <path id="Path_67392" data-name="Path 67392" d="M304.25,268.06a3.225,3.225,0,0,1-.35,1.273,3.3,3.3,0,0,1-.61,1.172,3.183,3.183,0,0,1,.35-1.273A3.279,3.279,0,0,1,304.25,268.06Z" transform="translate(-301.666 -143.584)" fill="#263238"/>
      <path id="Path_67393" data-name="Path 67393" d="M308.756,259.457a6.4,6.4,0,0,1-1.406,2.218,3.183,3.183,0,0,1,.584-1.183C308.321,259.876,308.687,259.409,308.756,259.457Z" transform="translate(-303.572 -139.544)" fill="#263238"/>
      <path id="Path_67394" data-name="Path 67394" d="M314.839,251.992c.053.058-.308.531-.806,1.061s-.95.907-1.008.859.3-.531.806-1.061S314.786,251.918,314.839,251.992Z" transform="translate(-306.233 -136.037)" fill="#263238"/>
      <path id="Path_67395" data-name="Path 67395" d="M322.39,246c.042.069-.435.414-1.061.812a3.814,3.814,0,0,1-1.151.653c-.042-.064.387-.472,1-.881A2.854,2.854,0,0,1,322.39,246Z" transform="translate(-309.593 -133.228)" fill="#263238"/>
      <path id="Path_67396" data-name="Path 67396" d="M331.279,242.32a4.6,4.6,0,0,1-1.236.44,4.053,4.053,0,0,1-1.273.318,2.679,2.679,0,0,1,1.194-.584A2.52,2.52,0,0,1,331.279,242.32Z" transform="translate(-313.629 -131.489)" fill="#263238"/>
      <path id="Path_67397" data-name="Path 67397" d="M340.873,243.3a6.367,6.367,0,0,1-1.2-.53,7.074,7.074,0,0,1-1.2-.5,2.191,2.191,0,0,1,1.316.249A2.233,2.233,0,0,1,340.873,243.3Z" transform="translate(-318.183 -131.466)" fill="#263238"/>
      <path id="Path_67398" data-name="Path 67398" d="M346.8,250.426a9.737,9.737,0,0,1-.233-1.279,8.2,8.2,0,0,1-.329-1.257,2.074,2.074,0,0,1,.6,1.2A2.005,2.005,0,0,1,346.8,250.426Z" transform="translate(-321.83 -134.115)" fill="#263238"/>
      <path id="Path_67399" data-name="Path 67399" d="M341.11,258.449a10.245,10.245,0,0,1,1.13-.642c.6-.366,1.029-.764,1.088-.711s-.3.531-.944.944a2.058,2.058,0,0,1-1.273.409Z" transform="translate(-319.422 -138.435)" fill="#263238"/>
      <path id="Path_67400" data-name="Path 67400" d="M332.155,256.906c.064-.053.478.355,1.061.759s1.114.615,1.093.7a1.9,1.9,0,0,1-1.252-.472C332.442,257.484,332.1,256.954,332.155,256.906Z" transform="translate(-315.215 -138.346)" fill="#263238"/>
      <path id="Path_67401" data-name="Path 67401" d="M328.746,247.8a5.466,5.466,0,0,1,.271,1.279,5.085,5.085,0,0,1,.2,1.294,3.682,3.682,0,0,1-.472-2.573Z" transform="translate(-313.589 -134.073)" fill="#263238"/>
      <path id="Path_67402" data-name="Path 67402" d="M330.658,238.507a4.982,4.982,0,0,1-.562,1.183,5.076,5.076,0,0,1-.626,1.151,2.409,2.409,0,0,1,.382-1.273C330.186,238.9,330.6,238.459,330.658,238.507Z" transform="translate(-313.957 -129.708)" fill="#263238"/>
      <path id="Path_67403" data-name="Path 67403" d="M337.328,232.27c.037.069-.467.377-1.061.759s-1.088.711-1.141.647.371-.488.992-.881A2.616,2.616,0,0,1,337.328,232.27Z" transform="translate(-316.611 -126.782)" fill="#263238"/>
      <path id="Path_67404" data-name="Path 67404" d="M346.5,229.561a3.713,3.713,0,0,1-1.273.345,3.975,3.975,0,0,1-1.305.159,2.775,2.775,0,0,1,1.257-.43A2.875,2.875,0,0,1,346.5,229.561Z" transform="translate(-320.741 -125.489)" fill="#263238"/>
      <path id="Path_67405" data-name="Path 67405" d="M356.346,228.886a3.31,3.31,0,0,1-1.31.175,3.216,3.216,0,0,1-1.316-.1,3.305,3.305,0,0,1,1.305-.18A3.183,3.183,0,0,1,356.346,228.886Z" transform="translate(-325.342 -125.132)" fill="#263238"/>
      <path id="Path_67406" data-name="Path 67406" d="M366.241,228.451a6.313,6.313,0,0,1-2.621.2A6.313,6.313,0,0,1,366.241,228.451Z" transform="translate(-329.99 -124.962)" fill="#263238"/>
      <path id="Path_67407" data-name="Path 67407" d="M375.923,226c0,.032-.106.122-.318.239l-.377.191-.488.164a3.242,3.242,0,0,1-1.3.26,3.236,3.236,0,0,1,1.21-.531l.483-.138c.149-.053.281-.1.4-.133A1.77,1.77,0,0,1,375.923,226Z" transform="translate(-334.6 -123.838)" fill="#263238"/>
      <path id="Path_67408" data-name="Path 67408" d="M384.384,220.316c.053.053-.308.531-.865,1s-1.061.769-1.125.706.4-.446.944-.913S384.331,220.263,384.384,220.316Z" transform="translate(-338.802 -121.167)" fill="#263238"/>
      <path id="Path_67409" data-name="Path 67409" d="M390.6,212.21a2.748,2.748,0,0,1-.488,1.231,3.071,3.071,0,0,1-.822,1.061,4.244,4.244,0,0,1,.584-1.183A4.1,4.1,0,0,1,390.6,212.21Z" transform="translate(-342.042 -117.364)" fill="#263238"/>
      <path id="Path_67410" data-name="Path 67410" d="M393.759,205.139c.074,0,.069.318,0,.679s-.212.631-.286.61-.069-.324,0-.674S393.685,205.124,393.759,205.139Z" transform="translate(-343.98 -114.044)" fill="#263238"/>
      <path id="Path_67411" data-name="Path 67411" d="M368.255,141.663c-.069,0-2.234-6.43-4.833-14.414s-4.642-14.473-4.573-14.5,2.239,6.43,4.838,14.414S368.329,141.637,368.255,141.663Z" transform="translate(-327.749 -70.669)" fill="#263238"/>
      <path id="Path_67412" data-name="Path 67412" d="M427.79,100.37c.074,0-1.7,7.958-3.968,17.772s-4.17,17.725-4.244,17.709,1.708-7.958,3.974-17.772S427.716,100.354,427.79,100.37Z" transform="translate(-356.26 -64.857)" fill="#263238"/>
      <path id="Path_67413" data-name="Path 67413" d="M369.529,33.695s-18.78,3.618-21.221,21.348a27.651,27.651,0,0,0,3.183,16.733c3.47,6.515,10.43,15.534,22.982,17.693,0,0,14.605-2.913,20.918-24.494S381.121,32.443,369.529,33.695Z" transform="translate(-322.7 -33.509)" fill="#efa00b"/>
      <g id="Group_161450" data-name="Group 161450" transform="translate(31.136 0.186)" opacity="0.6">
        <path id="Path_67414" data-name="Path 67414" d="M374.612,33.78s-21.024,9.088-14.4,31.762S379.53,89.553,379.53,89.553a49.924,49.924,0,0,1-9.937-20.69C366.681,56.178,368.166,42.507,374.612,33.78Z" transform="translate(-358.919 -33.78)" fill="#fff"/>
      </g>
      <g id="Group_161451" data-name="Group 161451" transform="translate(48.734 0)" opacity="0.6">
        <path id="Path_67415" data-name="Path 67415" d="M392.09,33.43s10.9,7.581,9.5,29.311-6.5,26.648-6.5,26.648,7.878-2.122,12.138-14.52,4.52-20.388,1.438-27.056S398.122,34.056,392.09,33.43Z" transform="translate(-392.09 -33.43)" fill="#fff"/>
      </g>
      <path id="Path_67416" data-name="Path 67416" d="M350.816,69.467a1.48,1.48,0,0,1-.117-.493,9.863,9.863,0,0,1-.143-1.379,14.737,14.737,0,0,1,2.35-8.7,10.525,10.525,0,0,1,.822-1.114c.212-.249.334-.382.35-.366s-.414.589-1.008,1.592a16.977,16.977,0,0,0-1.756,4.122,16.626,16.626,0,0,0-.578,4.456C350.784,68.745,350.863,69.462,350.816,69.467Z" transform="translate(-323.849 -44.692)" fill="#fff"/>
      <path id="Path_67417" data-name="Path 67417" d="M351.083,84.4c-.08,0-.138-.218-.223-.472s-.164-.467-.1-.531.265.122.361.43S351.157,84.407,351.083,84.4Z" transform="translate(-323.941 -56.884)" fill="#fff"/>
      <path id="Path_67418" data-name="Path 67418" d="M361.742,71.075a3.99,3.99,0,0,1-.26-1.162,12.2,12.2,0,0,1-.048-2.87,12.51,12.51,0,0,1,.6-2.812,3.677,3.677,0,0,1,.483-1.061,28.443,28.443,0,0,0-.817,3.9,28.651,28.651,0,0,0,.037,4.005Z" transform="translate(-328.935 -47.392)" fill="#fff"/>
      <path id="Path_67419" data-name="Path 67419" d="M380.819,75.915A3.3,3.3,0,0,1,380.5,74.9a11.672,11.672,0,0,1-.276-2.552,11.981,11.981,0,0,1,.271-2.546,3.238,3.238,0,0,1,.324-1.013,35.5,35.5,0,0,0-.318,3.56C380.491,74.329,380.9,75.894,380.819,75.915Z" transform="translate(-337.783 -50.031)" fill="#fff"/>
      <path id="Path_67420" data-name="Path 67420" d="M411.559,71.54a9.021,9.021,0,0,1-.037-1.363,25.819,25.819,0,0,0-.249-3.263,25.4,25.4,0,0,0-.663-3.183,10.083,10.083,0,0,1-.34-1.321,5.253,5.253,0,0,1,.531,1.263,18.765,18.765,0,0,1,.918,6.5A5.336,5.336,0,0,1,411.559,71.54Z" transform="translate(-351.891 -47.036)" fill="#fff"/>
      <path id="Path_67421" data-name="Path 67421" d="M427.12,63.029a21.467,21.467,0,0,0-.891-3.411,20.58,20.58,0,0,0-1.708-3.088,2.907,2.907,0,0,1,.716.78,9.687,9.687,0,0,1,1.873,4.679,3.093,3.093,0,0,1,.011,1.04Z" transform="translate(-358.581 -44.275)" fill="#fff"/>
      <path id="Path_67422" data-name="Path 67422" d="M377.434,89.1a13.687,13.687,0,0,1-2.456-1.061,23.1,23.1,0,0,1-5.735-4.52,35.4,35.4,0,0,1-5.968-9.019c-.446-.923-.822-1.9-1.252-2.881s-.748-2.032-1.1-3.088-.674-2.122-.96-3.252c-.133-.531-.3-1.119-.408-1.692s-.228-1.146-.318-1.729a27.672,27.672,0,0,1-.233-6.9,24.219,24.219,0,0,1,1.443-6.255,25.8,25.8,0,0,1,5.937-9.019,32.022,32.022,0,0,1,5.73-4.541c.737-.456,1.321-.785,1.724-1l.462-.233a.759.759,0,0,1,.159-.074.811.811,0,0,1-.149.1l-.446.26c-.393.228-.966.573-1.692,1.061a33.817,33.817,0,0,0-5.65,4.5,25.837,25.837,0,0,0-5.836,8.976,23.984,23.984,0,0,0-1.411,6.191,27.138,27.138,0,0,0,.239,6.817c.085.578.212,1.146.313,1.719s.271,1.119.4,1.676c.286,1.1.642,2.175.955,3.236s.732,2.069,1.088,3.072a29.227,29.227,0,0,0,1.241,2.87,35.542,35.542,0,0,0,5.878,9.019,23.5,23.5,0,0,0,5.645,4.557c.748.424,1.358.706,1.772.891l.472.2Z" transform="translate(-327.766 -33.622)" fill="#263238"/>
      <path id="Path_67423" data-name="Path 67423" d="M382.725,33.89a.61.61,0,0,1-.074.133l-.239.382c-.207.34-.557.812-.934,1.464a33.636,33.636,0,0,0-2.684,5.767,47.847,47.847,0,0,0-2.043,20.754,56.077,56.077,0,0,0,2.409,11.3,55.516,55.516,0,0,0,3.714,8.679,49.777,49.777,0,0,0,3.353,5.422c.435.615.8,1.061,1.061,1.39l.281.355.09.122a1.252,1.252,0,0,1-.117-.106c-.074-.074-.17-.186-.3-.34-.26-.3-.631-.753-1.061-1.358a45.439,45.439,0,0,1-3.443-5.39,54.112,54.112,0,0,1-3.788-8.7,55.274,55.274,0,0,1-2.446-11.353,47.372,47.372,0,0,1,2.122-20.844,31.834,31.834,0,0,1,2.764-5.761c.393-.642.759-1.109.981-1.438l.265-.366Z" transform="translate(-335.89 -33.646)" fill="#263238"/>
      <path id="Path_67424" data-name="Path 67424" d="M392.09,33.43a10.773,10.773,0,0,1,1.74,1.47,25.31,25.31,0,0,1,5.586,8.833,31.645,31.645,0,0,1,1.241,4.775,66.105,66.105,0,0,1,1.157,11.22,67.98,67.98,0,0,1-.722,11.258A65.376,65.376,0,0,1,399.109,80c-.09.313-.18.621-.265.923s-.2.584-.286.865c-.186.531-.361,1.061-.531,1.592-.366.976-.674,1.82-.95,2.5l-.663,1.554-.18.4c-.037.09-.064.138-.069.133a.529.529,0,0,1,.048-.143l.154-.408c.143-.382.35-.907.615-1.592s.531-1.533.9-2.509c.159-.5.329-1.024.5-1.592l.276-.865c.085-.3.17-.61.26-.923a68.649,68.649,0,0,0,1.921-8.976,69.978,69.978,0,0,0,.695-11.231,67.378,67.378,0,0,0-1.13-11.178,32.22,32.22,0,0,0-1.21-4.738,24.267,24.267,0,0,0-1.788-3.867,24.936,24.936,0,0,0-3.655-4.966c-.53-.531-.928-.907-1.22-1.162l-.334-.281A.7.7,0,0,1,392.09,33.43Z" transform="translate(-343.356 -33.43)" fill="#263238"/>
      <path id="Path_67425" data-name="Path 67425" d="M393.61,33.46h.164l.483.111c.212.053.477.111.785.2l1.061.387a21.221,21.221,0,0,1,5.862,3.862,37.323,37.323,0,0,1,3.4,3.475,26.849,26.849,0,0,1,3.273,4.531,29.121,29.121,0,0,1,2.212,5.756,28.117,28.117,0,0,1,1.061,6.541,30.689,30.689,0,0,1-.865,6.573c-.488,2.085-1.061,4.074-1.661,5.942a64.869,64.869,0,0,1-4.011,9.629,20.229,20.229,0,0,1-2.2,3.358,17.452,17.452,0,0,1-2.122,2.154c-.631.531-1.157.923-1.507,1.178l-.409.286a1.026,1.026,0,0,1-.149.09.839.839,0,0,1,.133-.111l.387-.308c.345-.271.854-.663,1.475-1.215a18.119,18.119,0,0,0,2.08-2.17,20.956,20.956,0,0,0,2.149-3.353,67.092,67.092,0,0,0,3.942-9.618c.61-1.862,1.151-3.846,1.634-5.926a30.273,30.273,0,0,0,.854-6.5,27.743,27.743,0,0,0-1.061-6.472,28.338,28.338,0,0,0-2.2-5.708,26.764,26.764,0,0,0-3.22-4.5,36.5,36.5,0,0,0-3.358-3.475,21.454,21.454,0,0,0-5.772-3.9l-1.019-.414-.775-.218-.477-.143Z" transform="translate(-344.07 -33.444)" fill="#263238"/>
      <path id="Path_67426" data-name="Path 67426" d="M355.48,92.735a2.122,2.122,0,0,1-.8.642,4.854,4.854,0,0,1-2.382.584,4.929,4.929,0,0,1-2.371-.637,2.154,2.154,0,0,1-.785-.647c.032-.037.329.207.875.472a5.469,5.469,0,0,0,2.281.531,5.549,5.549,0,0,0,2.3-.477A8.3,8.3,0,0,1,355.48,92.735Z" transform="translate(-323.192 -61.243)" fill="#263238"/>
      <path id="Path_67427" data-name="Path 67427" d="M369.424,93.371a1.2,1.2,0,0,1-.2.355,4.459,4.459,0,0,1-.769.8,5.066,5.066,0,0,1-6.764-.212,4.478,4.478,0,0,1-.711-.849c-.138-.223-.2-.355-.18-.366a14.736,14.736,0,0,0,1.024,1.061,5.141,5.141,0,0,0,6.515.207A12.107,12.107,0,0,0,369.424,93.371Z" transform="translate(-328.664 -61.444)" fill="#263238"/>
      <path id="Path_67428" data-name="Path 67428" d="M394.592,91a3.129,3.129,0,0,1-.53.531,12.531,12.531,0,0,1-1.592,1.236,13.549,13.549,0,0,1-12.732,1.22,12.064,12.064,0,0,1-1.788-.907,3.45,3.45,0,0,1-.6-.43c.032-.048.891.557,2.456,1.157A14.006,14.006,0,0,0,392.4,92.588C393.823,91.686,394.555,90.927,394.592,91Z" transform="translate(-336.436 -60.454)" fill="#263238"/>
      <path id="Path_67429" data-name="Path 67429" d="M418.6,89.928a1.425,1.425,0,0,1-.218.308,5,5,0,0,1-.764.7,5.714,5.714,0,0,1-6.472.239,5.126,5.126,0,0,1-.812-.642c-.17-.17-.249-.281-.239-.292A10.458,10.458,0,0,0,411.25,91a6.08,6.08,0,0,0,3.183.78,6.143,6.143,0,0,0,3.1-1.008C418.216,90.3,418.566,89.891,418.6,89.928Z" transform="translate(-351.811 -59.954)" fill="#263238"/>
      <path id="Path_67430" data-name="Path 67430" d="M432.45,87.178a1.8,1.8,0,0,1-.531.737,4.027,4.027,0,0,1-4.074.939,1.809,1.809,0,0,1-.785-.44,8.022,8.022,0,0,1,.838.255,4.472,4.472,0,0,0,2.053,0,4.52,4.52,0,0,0,1.852-.9C432.211,87.427,432.408,87.146,432.45,87.178Z" transform="translate(-359.774 -58.662)" fill="#263238"/>
      <path id="Path_67431" data-name="Path 67431" d="M398.861,135.383c-.255-.456-.886-.488-1.411-.467l-11.5.531-1.289.042a1.284,1.284,0,0,0-1.507,1.353,1.836,1.836,0,0,0,1.241,1.5,5.411,5.411,0,0,0,2.027.228l9.868-.149a2.734,2.734,0,0,0,2.4-.859,2.706,2.706,0,0,0,.271-1.5A1.379,1.379,0,0,0,398.861,135.383Z" transform="translate(-339.161 -81.073)" fill="#efa00b"/>
      <path id="Path_67432" data-name="Path 67432" d="M398.9,134.967a2.042,2.042,0,0,1-.531.069l-1.5.085-4.944.218-4.934.239-1.5.064a2.074,2.074,0,0,1-.531,0,1.973,1.973,0,0,1,.531-.1c.35-.042.859-.1,1.491-.154,1.263-.111,3.008-.233,4.939-.318s3.682-.127,4.944-.138h1.5A1.984,1.984,0,0,1,398.9,134.967Z" transform="translate(-340.009 -81.082)" fill="#263238"/>
      <path id="Path_67433" data-name="Path 67433" d="M371,158.568l1.2,14.091a.96.96,0,0,0,.976.875l25.412-.594a.95.95,0,0,0,.928-.976l-.255-10.987a.96.96,0,0,0-.981-.934l-15.624.467a.95.95,0,0,1-.679-.26l-2.78-2.61a.96.96,0,0,0-.674-.26l-6.589.154a.96.96,0,0,0-.934,1.035Z" transform="translate(-333.452 -91.622)" fill="#efa00b"/>
      <g id="Group_161452" data-name="Group 161452" transform="translate(37.542 65.758)" opacity="0.3">
        <path id="Path_67434" data-name="Path 67434" d="M371,158.568l1.2,14.091a.96.96,0,0,0,.976.875l25.412-.594a.95.95,0,0,0,.928-.976l-.255-10.987a.96.96,0,0,0-.981-.934l-15.624.467a.95.95,0,0,1-.679-.26l-2.78-2.61a.96.96,0,0,0-.674-.26l-6.589.154a.96.96,0,0,0-.934,1.035Z" transform="translate(-370.995 -157.38)"/>
      </g>
      <path id="Path_67435" data-name="Path 67435" d="M377.034,175.8c-.366-2.292-1.56-10.95-1.91-13.5a.647.647,0,0,1,.621-.737l24.892-.934a.653.653,0,0,1,.674.716L399.99,175.68a.653.653,0,0,1-.653.594l-21.624.1a.653.653,0,0,1-.679-.573Z" transform="translate(-335.388 -93.148)" fill="#e0e0e0"/>
      <path id="Path_67436" data-name="Path 67436" d="M374.222,178.038c-.361-2.233-1.592-11.072-1.926-13.587a.61.61,0,0,1,.589-.684l24.966-.647a.6.6,0,0,1,.621.663l-1.332,14.128a.61.61,0,0,1-.6.531l-21.709.1a.61.61,0,0,1-.6-.5Z" transform="translate(-334.061 -94.317)" fill="#f5f5f5"/>
      <path id="Path_67437" data-name="Path 67437" d="M368,166.448l2.509,16.717a.6.6,0,0,0,.621.531l27.056-.631a.6.6,0,0,0,.6-.562l.971-16.8a.6.6,0,0,0-.626-.626l-30.531.711a.6.6,0,0,0-.6.658Z" transform="translate(-332.044 -95.237)" fill="#efa00b"/>
      <path id="Path_67438" data-name="Path 67438" d="M398.963,181.687l-11.162.207-.371-4.021,11.613-.212Z" transform="translate(-341.168 -101.143)" fill="#fafafa"/>
      <path id="Path_67439" data-name="Path 67439" d="M398.9,181.677v-1.082c0-.727,0-1.719.037-2.95l.037.037-11.39.228h-.223l.053-.058c.133,1.4.255,2.759.371,4.021l-.053-.048,7.99-.122,2.329-.032h.021l-2.318.058-8.021.175h-.064v-.048c-.117-1.263-.244-2.621-.377-4.021v-.005h.287l11.39-.191H399v.042c-.032,1.236-.058,2.239-.08,2.966v.79C398.924,181.645,398.9,181.677,398.9,181.677Z" transform="translate(-341.103 -101.134)" fill="#263238"/>
      <path id="Path_67440" data-name="Path 67440" d="M399.153,180.9c0,.032-1.857.106-4.149.175s-4.154.09-4.154.058,1.857-.106,4.149-.17S399.147,180.867,399.153,180.9Z" transform="translate(-342.774 -102.658)" fill="#263238"/>
      <path id="Path_67441" data-name="Path 67441" d="M399.413,182.509c0,.032-1.862.106-4.154.175s-4.149.09-4.149.058,1.857-.106,4.149-.17S399.407,182.477,399.413,182.509Z" transform="translate(-342.896 -103.414)" fill="#263238"/>
      <path id="Path_67442" data-name="Path 67442" d="M367.822,165.657l-.085-.8a.631.631,0,0,1,.621-.695l7.141-.1a.626.626,0,0,1,.615.446l.329,1.061Z" transform="translate(-331.921 -94.758)" fill="#efa00b"/>
    </g>
  </g>
</svg>
