<svg xmlns="http://www.w3.org/2000/svg" width="339.189" height="295" viewBox="0 0 339.189 295">
  <g id="Following-pana" transform="translate(18.339 8.217)">
    <g id="freepik--background-complete--inject-7" transform="translate(-18.339 -5.697)">
      <g id="Group_161931" data-name="Group 161931" transform="translate(0 62.219)">
        <rect id="Rectangle_147924" data-name="Rectangle 147924" width="42.655" height="53.359" transform="translate(12.24 56.307) rotate(-106.67)" fill="#f5f5f5"/>
        <path id="Path_69134" data-name="Path 69134" d="M382.36,148.947l.256-.067.72-.209,2.779-.814,10.475-3.1,36.93-10.98-.175-.094c3.64,12.164,7.8,26.111,12.218,40.865h0l.108-.2-51.132,15.326.161.087c-3.707-12.3-6.782-22.491-8.935-29.6-1.083-3.566-1.931-6.358-2.51-8.275-.3-.949-.518-1.682-.673-2.18s-.242-.754-.242-.754l.209.733c.148.5.357,1.224.632,2.166.565,1.911,1.393,4.71,2.442,8.269,2.126,7.152,5.16,17.385,8.827,29.731l.04.121h.121l51.132-15.279.148-.04-.047-.148h0c-4.42-14.754-8.605-28.695-12.245-40.859l-.04-.128-.135.04-37,11.141L386,147.857l-2.745.841-.673.215Z" transform="translate(-382.34 -133.52)" fill="#e0e0e0"/>
        <rect id="Rectangle_147925" data-name="Rectangle 147925" width="37.286" height="49.605" transform="translate(13.304 53.184) rotate(-106.67)" fill="#ebebeb"/>
        <path id="Path_69135" data-name="Path 69135" d="M433.9,183.02l-23.245-17.23-6.122,16.968-9.2-5.342L386.37,197.25Z" transform="translate(-373.055 -144.079)" fill="#e0e0e0"/>
        <path id="Path_69136" data-name="Path 69136" d="M432.724,165.806a3.9,3.9,0,1,0,.294-2.989A3.9,3.9,0,0,0,432.724,165.806Z" transform="translate(-410.589 -142.433)" fill="#e0e0e0"/>
      </g>
      <path id="Path_69137" data-name="Path 69137" d="M41.779,153.08a8.962,8.962,0,0,1-5.524-8.174c-.114-4.945,3.546-9.049,8.181-9.157a8.691,8.691,0,0,1,8.612,8.746,8.948,8.948,0,0,1-5.187,8.464C60.819,154.648,60.51,168.7,60.51,168.7l-30.545.747S29.016,155.267,41.779,153.08Z" transform="translate(263.595 -70.686)" fill="#ebebeb"/>
      <g id="Group_161932" data-name="Group 161932" transform="translate(8.99 0)">
        <path id="Path_69138" data-name="Path 69138" d="M455.265,64.789l-2.725-.579-4.185-9.533,1.15-5.429s-4.144-1.15-5.16,6.055-1.164,5.288-1.164,5.288-8.935-1.857-9.843-1.238c-.673.451-2.779,9.271-3.9,14.061a5.335,5.335,0,0,0,2.577,6.055,4.077,4.077,0,0,0,.935.33c2.227.471,13.994,1.076,13.994,1.076l4.71,1Z" transform="translate(-429.26 -49.18)" fill="#f5f5f5"/>
        <path id="Path_69139" data-name="Path 69139" d="M427.494,72.149,421.883,90.4l-4.662-.989,3.862-18.233Z" transform="translate(-393.389 -56.378)" fill="#f5f5f5"/>
      </g>
      <path id="Path_69140" data-name="Path 69140" d="M150.5,188.086a5.725,5.725,0,0,1,11.3.336,5.725,5.725,0,0,1,11.3-.242,7.737,7.737,0,0,1-1.386,5.577,22.874,22.874,0,0,1-4.037,4.272c-2.059,1.83-3.956,3.552-6.015,5.382-2.018-1.85-3.774-3.586-5.813-5.436a22.673,22.673,0,0,1-4.037-4.306,7.71,7.71,0,0,1-1.305-5.584Z" transform="translate(69.893 -86.296)" fill="#f5f5f5"/>
      <path id="Path_69141" data-name="Path 69141" d="M183.733,175.8a2.859,2.859,0,0,1,5.645.175,2.866,2.866,0,0,1,5.651-.121,3.848,3.848,0,0,1-.673,2.785,11.44,11.44,0,0,1-2.018,2.139l-3.007,2.691c-1.023-.928-1.891-1.8-2.906-2.691a11.439,11.439,0,0,1-2.018-2.153A3.9,3.9,0,0,1,183.733,175.8Z" transform="translate(25.6 -83.033)" fill="#f5f5f5"/>
    </g>
    <g id="freepik--Floor--inject-7" transform="translate(-17.033 269.539)">
      <path id="Path_69142" data-name="Path 69142" d="M7.53,448.315c0,.094,75.644.175,168.934.175s168.949-.081,168.949-.175-75.63-.175-168.949-.175S7.53,448.214,7.53,448.315Z" transform="translate(-7.53 -448.14)" fill="#263238"/>
    </g>
    <g id="freepik--Photos--inject-7" transform="translate(168.573 -8.217)">
      <rect id="Rectangle_147926" data-name="Rectangle 147926" width="48.308" height="38.623" transform="translate(90.707 82.132) rotate(-165.548)" fill="#ebebeb"/>
      <path id="Path_69143" data-name="Path 69143" d="M106.173,103.52l.229.067.673.182,2.53.673,9.547,2.516,33.66,8.834-.087-.155c-2.893,11.081-6.21,23.864-9.722,37.32h0l.175-.1L96.5,140.746l.087.141,6.984-27.073c.834-3.263,1.487-5.82,1.938-7.569l.5-2.018.168-.673s-.067.222-.182.673-.3,1.11-.532,1.971c-.457,1.743-1.13,4.286-2.018,7.529-1.709,6.526-4.165,15.858-7.118,27.12v.108l.108.034,46.665,12.13h.135l.04-.135h0c3.5-13.456,6.809-26.239,9.695-37.306v-.128h-.121L119.057,106.8l-9.534-2.449-2.516-.673-.673-.155Z" transform="translate(-52.484 -71.239)" fill="#263238"/>
      <rect id="Rectangle_147927" data-name="Rectangle 147927" width="44.911" height="33.757" transform="translate(89.708 79.361) rotate(-165.548)" fill="#efa00b"/>
      <path id="Path_69144" data-name="Path 69144" d="M155.828,161.144l-9.877-24.214-12.689,10.24-4.6-8.437L112.44,149.854Z" transform="translate(-66.179 -82.171)" fill="#efa00b"/>
      <path id="Path_69145" data-name="Path 69145" d="M135.787,126.777a3.525,3.525,0,1,0,1.63-2.154A3.532,3.532,0,0,0,135.787,126.777Z" transform="translate(-68.716 -77.986)" fill="#efa00b"/>
      <g id="Group_161919" data-name="Group 161919" transform="translate(46.261 54.759)" opacity="0.2">
        <path id="Path_69146" data-name="Path 69146" d="M155.828,161.144l-9.877-24.214-12.689,10.24-4.6-8.437L112.44,149.854Z" transform="translate(-112.44 -136.93)"/>
      </g>
      <g id="Group_161920" data-name="Group 161920" transform="translate(66.954 46.153)" opacity="0.2">
        <path id="Path_69147" data-name="Path 69147" d="M135.787,126.777a3.525,3.525,0,1,0,1.63-2.154A3.532,3.532,0,0,0,135.787,126.777Z" transform="translate(-135.67 -124.139)"/>
      </g>
      <rect id="Rectangle_147928" data-name="Rectangle 147928" width="73.049" height="58.4" transform="matrix(-0.998, -0.07, 0.07, -0.998, 72.87, 63.522)" fill="#ebebeb"/>
      <path id="Path_69148" data-name="Path 69148" d="M134.935,55.553h.35l1.023.087,3.943.3,14.9,1.137,52.478,3.795-.175-.2c-1.224,17.291-2.631,37.125-4.118,58.1h0l.222-.2L130.9,113.488l.161.188c1.2-17.493,2.187-32.011,2.88-42.157.336-5.073.605-9.056.787-11.781.087-1.346.155-2.4.2-3.115s.061-1.076.061-1.076-.04.35-.094,1.043-.135,1.729-.235,3.068c-.2,2.691-.5,6.681-.875,11.74-.74,10.166-1.8,24.712-3.068,42.251v.175h.175l72.662,5.16h.209v-.215h0c1.467-20.984,2.859-40.812,4.07-58.109v-.188h-.188l-52.612-3.62-14.849-1-3.909-.249-1-.061Z" transform="translate(-130.468 -55.54)" fill="#263238"/>
      <rect id="Rectangle_147929" data-name="Rectangle 147929" width="67.75" height="50.924" transform="matrix(-0.998, -0.07, 0.07, -0.998, 70.819, 59.42)" fill="#efa00b"/>
      <path id="Path_69149" data-name="Path 69149" d="M208.022,127.686,186.641,94.45l-16.012,18.724-9.17-11.263L140.44,122.923Z" transform="translate(-137.211 -68.272)" fill="#efa00b"/>
      <path id="Path_69150" data-name="Path 69150" d="M186.943,84.108a5.322,5.322,0,1,0,1.822-3.657,5.335,5.335,0,0,0-1.822,3.657Z" transform="translate(-158.067 -63.265)" fill="#efa00b"/>
      <g id="Group_161921" data-name="Group 161921" transform="translate(3.229 26.178)" opacity="0.2">
        <path id="Path_69151" data-name="Path 69151" d="M208.022,127.686,186.641,94.45l-16.012,18.724-9.17-11.263L140.44,122.923Z" transform="translate(-140.44 -94.45)"/>
      </g>
      <g id="Group_161922" data-name="Group 161922" transform="translate(28.862 15.884)" opacity="0.2">
        <path id="Path_69152" data-name="Path 69152" d="M186.943,84.108a5.322,5.322,0,1,0,1.822-3.657,5.335,5.335,0,0,0-1.822,3.657Z" transform="translate(-186.929 -79.149)"/>
      </g>
    </g>
    <g id="freepik--Plant--inject-7" transform="translate(-18.339 114.01)">
      <path id="Path_69210" data-name="Path 69210" d="M413.068,352.686a2.493,2.493,0,0,0-.141-.336c-.114-.242-.262-.565-.457-.969a24.6,24.6,0,0,1-1.346-3.889,34.184,34.184,0,0,1,.114-15,79.8,79.8,0,0,1,2.779-10.092c1.177-3.579,2.55-7.4,3.667-11.478a44.455,44.455,0,0,0,1.823-13.194c-.175-4.662-1.554-9.325-3.075-13.96s-3.081-9.184-3.552-13.752a20.938,20.938,0,0,1,2.523-12.655c2.018-3.707,4.541-6.876,6.432-10.159a35.185,35.185,0,0,0,3.869-9.762,36.216,36.216,0,0,0,.242-15.124,27.713,27.713,0,0,0-1.574-5.342,1.773,1.773,0,0,0,.094.35c.074.256.182.592.316,1.029a37.575,37.575,0,0,1,.982,4,36.742,36.742,0,0,1-.39,15.01A35.241,35.241,0,0,1,421.492,247c-1.891,3.243-4.434,6.4-6.479,10.152a21.334,21.334,0,0,0-2.6,12.951c.471,4.649,2.052,9.217,3.566,13.853s2.886,9.244,3.061,13.833a44.207,44.207,0,0,1-1.749,13.032c-1.1,4.084-2.449,7.878-3.613,11.437a78.6,78.6,0,0,0-2.738,10.139,33.948,33.948,0,0,0,.04,15.118,22.357,22.357,0,0,0,1.426,3.882c.215.4.377.713.5.949A1.915,1.915,0,0,0,413.068,352.686Z" transform="translate(-379.138 -216.97)" fill="#263238"/>
      <path id="Path_69211" data-name="Path 69211" d="M423.475,257.125s3.842-12.3-3.054-19.511a.424.424,0,0,0-.727.209C419.324,239.848,418.86,246.051,423.475,257.125Z" transform="translate(-383.348 -223.681)" fill="#efa00b"/>
      <path id="Path_69212" data-name="Path 69212" d="M420.855,243.79a11.881,11.881,0,0,0,.262,2.267c.256,1.561.552,3.4.875,5.423s.612,3.862.861,5.423a12.224,12.224,0,0,0,.41,2.247,9.838,9.838,0,0,0-.067-2.287c-.128-1.406-.377-3.364-.727-5.456s-.72-4.037-1.016-5.382A10.021,10.021,0,0,0,420.855,243.79Z" transform="translate(-383.036 -225.746)" fill="#263238"/>
      <path id="Path_69213" data-name="Path 69213" d="M440.155,302.082s-2.355-12.669-11.821-15.8a.424.424,0,0,0-.545.525C428.414,288.775,430.9,294.453,440.155,302.082Z" transform="translate(-404.542 -239.641)" fill="#efa00b"/>
      <path id="Path_69214" data-name="Path 69214" d="M427.67,291.15a10.939,10.939,0,0,0,1.285,1.884c.955,1.265,2.079,2.745,3.31,4.387l3.3,4.387a12.468,12.468,0,0,0,1.413,1.8,9.48,9.48,0,0,0-1.13-2.018c-.767-1.177-1.891-2.772-3.189-4.488s-2.523-3.223-3.431-4.3A10.723,10.723,0,0,0,427.67,291.15Z" transform="translate(-401.295 -241.242)" fill="#263238"/>
      <path id="Path_69215" data-name="Path 69215" d="M431.258,347.936s1.426-12.783-6.728-18.556a.424.424,0,0,0-.673.35C423.912,331.789,424.638,337.959,431.258,347.936Z" transform="translate(-393.11 -253.725)" fill="#efa00b"/>
      <path id="Path_69216" data-name="Path 69216" d="M423.86,335.2a11.04,11.04,0,0,0,.673,2.173c.545,1.487,1.184,3.229,1.9,5.16s1.346,3.673,1.877,5.16a12.876,12.876,0,0,0,.828,2.126,9.565,9.565,0,0,0-.5-2.234c-.39-1.346-1-3.2-1.749-5.221s-1.473-3.821-2.018-5.113a10.45,10.45,0,0,0-1-2.052Z" transform="translate(-390.892 -255.656)" fill="#263238"/>
      <path id="Path_69217" data-name="Path 69217" d="M442.593,395.58s.969-12.85-7.4-18.307a.431.431,0,0,0-.673.377C434.654,379.709,435.576,385.811,442.593,395.58Z" transform="translate(-411.556 -269.398)" fill="#efa00b"/>
      <path id="Path_69218" data-name="Path 69218" d="M434.44,383a11.517,11.517,0,0,0,.76,2.146l2.079,5.086c.774,1.9,1.473,3.626,2.065,5.093a12.386,12.386,0,0,0,.9,2.092,9.424,9.424,0,0,0-.579-2.214c-.444-1.346-1.124-3.162-1.938-5.154s-1.615-3.768-2.213-5.039A10.1,10.1,0,0,0,434.44,383Z" transform="translate(-409.122 -271.296)" fill="#263238"/>
      <path id="Path_69219" data-name="Path 69219" d="M395.54,242.655s11.437-5.968,11.646-15.932a.431.431,0,0,0-.673-.37C404.824,227.531,400.148,231.575,395.54,242.655Z" transform="translate(-349.889 -220.016)" fill="#efa00b"/>
      <path id="Path_69220" data-name="Path 69220" d="M408.26,232a11.52,11.52,0,0,0-1.42,1.783l-3.243,4.474c-1.2,1.662-2.294,3.162-3.229,4.44a12.627,12.627,0,0,0-1.3,1.87,9.5,9.5,0,0,0,1.568-1.662c.908-1.083,2.1-2.624,3.364-4.366s2.341-3.364,3.108-4.541A9.9,9.9,0,0,0,408.26,232Z" transform="translate(-353.339 -221.888)" fill="#263238"/>
      <path id="Path_69221" data-name="Path 69221" d="M412.353,282.241s11.76-5.261,12.588-15.2a.424.424,0,0,0-.673-.4C422.532,267.7,417.594,271.456,412.353,282.241Z" transform="translate(-378.961 -233.194)" fill="#efa00b"/>
      <path id="Path_69222" data-name="Path 69222" d="M426.107,272.15a11.23,11.23,0,0,0-1.527,1.7l-3.485,4.245-3.492,4.239a12.217,12.217,0,0,0-1.413,1.79,9.631,9.631,0,0,0,1.669-1.561c.969-1.029,2.254-2.5,3.613-4.158s2.543-3.209,3.364-4.346A10.091,10.091,0,0,0,426.107,272.15Z" transform="translate(-382.704 -235.025)" fill="#263238"/>
      <path id="Path_69223" data-name="Path 69223" d="M413.139,324.151s8.073-10.038,4.292-19.262a.431.431,0,0,0-.76-.074C415.574,306.571,412.883,312.162,413.139,324.151Z" transform="translate(-372.972 -245.65)" fill="#efa00b"/>
      <path id="Path_69224" data-name="Path 69224" d="M419.214,311.09a11.171,11.171,0,0,0-.592,2.207c-.336,1.547-.727,3.364-1.164,5.382s-.841,3.822-1.184,5.382a12.89,12.89,0,0,0-.444,2.24,9.353,9.353,0,0,0,.774-2.153c.4-1.346.875-3.243,1.346-5.349s.807-4.037,1.029-5.382a10.91,10.91,0,0,0,.235-2.328Z" transform="translate(-375.569 -247.767)" fill="#263238"/>
      <path id="Path_69225" data-name="Path 69225" d="M414.567,377.447s11.666-5.456,12.332-15.407a.431.431,0,0,0-.673-.4C424.5,362.74,419.626,366.568,414.567,377.447Z" transform="translate(-382.406 -264.283)" fill="#efa00b"/>
      <path id="Path_69226" data-name="Path 69226" d="M428.035,367.2a11.2,11.2,0,0,0-1.5,1.722l-3.411,4.306-3.424,4.292a12.435,12.435,0,0,0-1.379,1.817,9.575,9.575,0,0,0,1.642-1.595c.949-1.043,2.207-2.53,3.539-4.218s2.5-3.243,3.31-4.393a10.4,10.4,0,0,0,1.225-1.931Z" transform="translate(-386.065 -266.126)" fill="#263238"/>
      <path id="Path_69227" data-name="Path 69227" d="M434.357,309.88a1.346,1.346,0,0,0,0,.283v.828c.034.774.081,1.817.141,3.122.148,2.745.357,6.573.612,11.155h0c.834,4.662,3.209,9.829,6.4,14.848,2.341,3.694,4.79,7.051,6.9,10.179a71.5,71.5,0,0,1,5.181,8.558,36.741,36.741,0,0,1,2.422,6.284c.209.767.357,1.346.451,1.776a3.3,3.3,0,0,0,.168.619,4.094,4.094,0,0,0-.074-.639c-.061-.417-.182-1.023-.363-1.8A33.247,33.247,0,0,0,453.9,358.7a68.533,68.533,0,0,0-5.107-8.632c-2.1-3.149-4.541-6.513-6.869-10.186-3.169-4.992-5.53-10.092-6.4-14.674h0c-.323-4.575-.592-8.4-.787-11.141-.1-1.305-.188-2.348-.249-3.115-.034-.33-.061-.6-.081-.821S434.371,309.88,434.357,309.88Z" transform="translate(-425.448 -247.371)" fill="#263238"/>
      <path id="Path_69228" data-name="Path 69228" d="M455.139,343.775s-4.938-11.895,1.278-19.693a.431.431,0,0,1,.747.148C457.716,326.215,458.732,332.338,455.139,343.775Z" transform="translate(-439.28 -251.966)" fill="#efa00b"/>
      <path id="Path_69229" data-name="Path 69229" d="M456.906,330.33a10.293,10.293,0,0,0-.39,2.247c-.175,1.4-.37,3.364-.525,5.483s-.229,4.091-.229,5.5a9.8,9.8,0,0,0,.141,2.281,13.277,13.277,0,0,0,.188-2.281c.108-1.574.229-3.431.363-5.477s.276-3.9.383-5.483A11.261,11.261,0,0,0,456.906,330.33Z" transform="translate(-440.145 -254.062)" fill="#263238"/>
      <g id="Group_161923" data-name="Group 161923" transform="translate(13.999 71.957)" opacity="0.3">
        <path id="Path_69230" data-name="Path 69230" d="M455.139,343.775s-4.938-11.895,1.278-19.693a.431.431,0,0,1,.747.148C457.716,326.215,458.732,332.338,455.139,343.775Z" transform="translate(-453.279 -323.924)"/>
      </g>
      <path id="Path_69231" data-name="Path 69231" d="M429.8,386.492s-3.963-12.265,2.866-19.511a.424.424,0,0,1,.733.2C433.786,369.194,434.3,375.377,429.8,386.492Z" transform="translate(-398.632 -266.008)" fill="#efa00b"/>
      <path id="Path_69232" data-name="Path 69232" d="M433.475,373.13a10.686,10.686,0,0,0-.572,2.207c-.289,1.346-.673,3.3-.962,5.423s-.559,4.037-.673,5.463a9.053,9.053,0,0,0-.047,2.287,12.67,12.67,0,0,0,.384-2.247c.235-1.568.5-3.4.807-5.436s.592-3.862.828-5.429a10.934,10.934,0,0,0,.236-2.267Z" transform="translate(-400.15 -268.067)" fill="#263238"/>
      <g id="Group_161924" data-name="Group 161924" transform="translate(30.028 100.83)" opacity="0.3">
        <path id="Path_69233" data-name="Path 69233" d="M429.8,386.492s-3.963-12.265,2.866-19.511a.424.424,0,0,1,.733.2C433.786,369.194,434.3,375.377,429.8,386.492Z" transform="translate(-428.66 -366.838)"/>
      </g>
      <path id="Path_69234" data-name="Path 69234" d="M476.048,323.229s-10.556-7.4-9.493-17.3a.424.424,0,0,1,.673-.283C468.8,307.035,472.94,311.651,476.048,323.229Z" transform="translate(-466.48 -245.959)" fill="#efa00b"/>
      <g id="Group_161925" data-name="Group 161925" transform="translate(0 59.606)" opacity="0.3">
        <path id="Path_69235" data-name="Path 69235" d="M476.048,323.229s-10.556-7.4-9.493-17.3a.424.424,0,0,1,.673-.283C468.8,307.035,472.94,311.651,476.048,323.229Z" transform="translate(-466.48 -305.566)"/>
      </g>
      <path id="Path_69236" data-name="Path 69236" d="M466.63,311.61a10.414,10.414,0,0,0,.875,2.106c.605,1.278,1.48,3.014,2.5,4.9s2.018,3.573,2.758,4.763a10.013,10.013,0,0,0,1.346,1.857,11.62,11.62,0,0,0-1.05-2.018c-.754-1.393-1.642-3.021-2.624-4.824s-1.864-3.438-2.624-4.831A11.057,11.057,0,0,0,466.63,311.61Z" transform="translate(-464.644 -247.937)" fill="#263238"/>
      <path id="Path_69237" data-name="Path 69237" d="M456.873,372.2s-12.729-2.018-16.147-11.35a.431.431,0,0,1,.511-.565C443.216,360.835,448.982,363.156,456.873,372.2Z" transform="translate(-429.96 -263.859)" fill="#efa00b"/>
      <g id="Group_161926" data-name="Group 161926" transform="translate(10.74 96.411)" opacity="0.3">
        <path id="Path_69238" data-name="Path 69238" d="M456.873,372.2s-12.729-2.018-16.147-11.35a.431.431,0,0,1,.511-.565C443.216,360.835,448.982,363.156,456.873,372.2Z" transform="translate(-440.7 -360.27)"/>
      </g>
      <path id="Path_69239" data-name="Path 69239" d="M440.82,364.8a11,11,0,0,0,1.722,1.507c1.1.875,2.651,2.018,4.4,3.3s3.364,2.321,4.575,3.061a9.528,9.528,0,0,0,2.018,1.07,12.377,12.377,0,0,0-1.83-1.346l-4.487-3.169-4.474-3.182A10.838,10.838,0,0,0,440.82,364.8Z" transform="translate(-426.704 -265.341)" fill="#263238"/>
      <path id="Path_69240" data-name="Path 69240" d="M441.454,412.8,437.8,436.752l-14.579-.027L418.31,412.8Z" transform="translate(-399.477 -281.047)" fill="#455a64"/>
      <path id="Path_69241" data-name="Path 69241" d="M420.9,423.674a.412.412,0,0,0,.121.087,3.122,3.122,0,0,0,.383.222,5.431,5.431,0,0,0,1.635.484,6.008,6.008,0,0,0,2.691-.249,5.672,5.672,0,0,0,2.886-2.092,4.037,4.037,0,0,0,.673-2.018,2.18,2.18,0,0,0-.989-2.059,2.362,2.362,0,0,0-2.442.2,3.606,3.606,0,0,0-1.4,2.2,9.531,9.531,0,0,0-.182,2.691,9.133,9.133,0,0,0,.592,2.765,6.055,6.055,0,0,0,1.7,2.409,4.709,4.709,0,0,0,2.806,1.177,5.147,5.147,0,0,0,2.913-.848,8.745,8.745,0,0,0,2.166-1.964,4.763,4.763,0,0,0,1.1-2.631,3.048,3.048,0,0,0-1.036-2.536,2.382,2.382,0,0,0-2.584-.161,2.772,2.772,0,0,0-1.487,1.958,3.734,3.734,0,0,0,1.843,3.788,5.181,5.181,0,0,0,3.519.511,8.3,8.3,0,0,0,2.51-.982,13.511,13.511,0,0,0,1.4-.955,2.727,2.727,0,0,0,.451-.377,3.72,3.72,0,0,0-.5.316c-.316.209-.787.532-1.433.881a8.266,8.266,0,0,1-2.469.895,4.931,4.931,0,0,1-3.364-.531,3.458,3.458,0,0,1-1.662-3.485,2.429,2.429,0,0,1,1.345-1.7,2.018,2.018,0,0,1,2.193.135,2.691,2.691,0,0,1,.881,2.227,4.346,4.346,0,0,1-1.029,2.409,8.14,8.14,0,0,1-2.079,1.87,4.709,4.709,0,0,1-2.691.787,4.279,4.279,0,0,1-2.563-1.077,5.812,5.812,0,0,1-1.588-2.254,8.618,8.618,0,0,1-.572-2.644,8.914,8.914,0,0,1,.161-2.59,3.2,3.2,0,0,1,1.231-2.018,2.018,2.018,0,0,1,2.086-.2,1.857,1.857,0,0,1,.841,1.756,3.822,3.822,0,0,1-.6,1.864,5.429,5.429,0,0,1-2.691,2.018,5.954,5.954,0,0,1-2.6.309,6.566,6.566,0,0,1-2.173-.585Z" transform="translate(-399.934 -282.683)" fill="#263238"/>
    </g>
    <g id="freepik--speech-bubble--inject-7" transform="translate(224.422 104.558)">
      <path id="Path_69368" data-name="Path 69368" d="M73.77,255.7l3.128-9.655A24.317,24.317,0,0,1,71.6,233.258a26.629,26.629,0,1,1,30.054,22.693c-6.055.848-13.241-1.346-18.165-4.191l-.336.5Z" transform="translate(-71.116 -202.929)" fill="#fafafa"/>
      <path id="Path_69369" data-name="Path 69369" d="M97.134,233.255h1.709l3.727-5.194V224.65s2.637-.161,2.328,4.306,0,3.324,0,3.324,5.6,0,6.055.511c.343.35.491,5.921.552,8.941a3.263,3.263,0,0,1-2.314,3.29,2.343,2.343,0,0,1-.606.081c-1.4,0-8.538-1.137-8.538-1.137H97.094Z" transform="translate(-75.339 -210.031)" fill="#efa00b"/>
      <path id="Path_69370" data-name="Path 69370" d="M119.82,236.05l1.05,11.68H123.8V236.286Z" transform="translate(-102.916 -213.762)" fill="#efa00b"/>
      <path id="Path_69371" data-name="Path 69371" d="M97.868,202.974a2.951,2.951,0,0,1,.458,0l1.346.04a8.9,8.9,0,0,1,1,.04l1.2.168,1.393.2,1.554.39a25.035,25.035,0,0,1,7.555,3.29,27.033,27.033,0,0,1,7.818,7.576,27.43,27.43,0,0,1,4.434,12.426,28.508,28.508,0,0,1,.074,3.646,15.964,15.964,0,0,1-.121,1.87c-.121.626-.188,1.251-.289,1.884a26.69,26.69,0,0,1-2.536,7.4,28.5,28.5,0,0,1-4.851,6.681,28.171,28.171,0,0,1-6.977,5.053,25.565,25.565,0,0,1-8.524,2.617,15.941,15.941,0,0,1-2.274.188,20.06,20.06,0,0,1-2.294.047,27.511,27.511,0,0,1-4.609-.585,26.957,26.957,0,0,1-9.211-3.821h.276l-9.332,3.747-.552.222.188-.605q1.413-5.147,2.745-9.984l.047.249a26.75,26.75,0,0,1-4.979-11.4,23.951,23.951,0,0,1-.363-5.847,18.43,18.43,0,0,1,.262-2.806c.074-.458.141-.915.209-1.346s.222-.881.33-1.346a26.69,26.69,0,0,1,10.415-15.185,25.337,25.337,0,0,1,6.2-3.27l1.4-.5,1.346-.336,1.211-.3c.39-.074.767-.114,1.117-.168.673-.094,1.346-.215,1.87-.242l1.346-.04h.834a1.915,1.915,0,0,1,.289,0l-.289.04-.834.067-1.346.087c-.538.047-1.157.182-1.85.283A26.562,26.562,0,0,0,72.315,223.1c-.1.431-.229.861-.309,1.3l-.2,1.346a17.655,17.655,0,0,0-.249,2.752,24.034,24.034,0,0,0,.377,5.732,26.306,26.306,0,0,0,4.918,11.155l.081.114-.034.135q-1.346,4.837-2.691,9.984l-.4-.35L83.14,251.5l.148-.061.128.087a26.36,26.36,0,0,0,13.456,4.339,20.855,20.855,0,0,0,2.247-.04,17.537,17.537,0,0,0,2.227-.188,24.839,24.839,0,0,0,8.336-2.55,27.476,27.476,0,0,0,6.849-4.9,28.1,28.1,0,0,0,4.77-6.526,26.455,26.455,0,0,0,2.51-7.273l.242-1.81c.087-.605.081-1.224.128-1.83a27.639,27.639,0,0,0-.061-3.586A26.387,26.387,0,0,0,112.2,207.368,25.567,25.567,0,0,0,104.8,204c-.538-.141-1.056-.276-1.534-.41l-1.346-.222-1.184-.2c-.363-.04-.673-.054-1-.074l-1.346-.1a1.877,1.877,0,0,1-.525-.027Z" transform="translate(-71 -202.922)" fill="#263238"/>
    </g>
    <g id="freepik--Screen--inject-7" transform="translate(50.543 2.093)">
      <path id="Path_69153" data-name="Path 69153" d="M332.731,50.964H313.893a4.71,4.71,0,0,0-4.575,4.777v3.411a4.669,4.669,0,0,1-4.568,4.777H268.062a4.71,4.71,0,0,1-4.568-4.784V55.674a4.71,4.71,0,0,0-4.568-4.784h-23.1a14.8,14.8,0,0,0-14.8,14.8L221,303.261a14.8,14.8,0,0,0,14.8,14.8l96.882.054a14.8,14.8,0,0,0,14.8-14.8l.047-237.55A14.8,14.8,0,0,0,332.731,50.964Z" transform="translate(-220.769 -50.711)" fill="#fff"/>
      <path id="Path_69154" data-name="Path 69154" d="M332.618,50.877h.511a11.814,11.814,0,0,1,1.5.114,14.041,14.041,0,0,1,5.557,1.9,14.423,14.423,0,0,1,3.364,2.738,14.747,14.747,0,0,1,2.819,4.427,15.3,15.3,0,0,1,1.11,6.008v6.984c0,19.733,0,48.286.054,83.561s0,77.284,0,123.928v22.2a15.851,15.851,0,0,1-.572,4.521,14.8,14.8,0,0,1-1.89,4.171,16.033,16.033,0,0,1-3.081,3.424,14.963,14.963,0,0,1-8.558,3.317c-3.1.094-6.183,0-9.3.047H236.8a15.615,15.615,0,0,1-9.648-2.691,15.118,15.118,0,0,1-5.867-8.107,16.269,16.269,0,0,1-.619-5.012V165.7c0-23.326,0-45.488.034-66.236V65.853c0-.6.054-1.2.081-1.8a8.857,8.857,0,0,1,.3-1.769,15.193,15.193,0,0,1,15.279-11.653H258.53a4.757,4.757,0,0,1,2.913.814,4.918,4.918,0,0,1,1.81,2.382,7.9,7.9,0,0,1,.3,2.927v1.521a9.787,9.787,0,0,0,.047,1.413,4.649,4.649,0,0,0,1.1,2.476,4.319,4.319,0,0,0,2.261,1.406,5.2,5.2,0,0,0,1.346.135h34.844c.673,0,1.346.034,2.018,0a4.421,4.421,0,0,0,1.817-.639,4.709,4.709,0,0,0,2.032-2.987,8.439,8.439,0,0,0,.121-1.8V56.515a9.9,9.9,0,0,1,.081-1.729,4.8,4.8,0,0,1,.558-1.588,4.642,4.642,0,0,1,2.361-2.086,7.4,7.4,0,0,1,2.94-.316h0a7.347,7.347,0,0,0-2.893.309,4.568,4.568,0,0,0-2.288,2.018,4.993,4.993,0,0,0-.538,1.541,10.092,10.092,0,0,0-.067,1.7v1.911a8.128,8.128,0,0,1-.114,1.837,4.851,4.851,0,0,1-2.146,3.095,4.582,4.582,0,0,1-1.884.673c-.673.061-1.346,0-2.018,0H268.279a5.154,5.154,0,0,1-1.393-.135,4.642,4.642,0,0,1-2.4-1.48,4.978,4.978,0,0,1-1.171-2.61,10.453,10.453,0,0,1-.047-1.379V56.811a7.845,7.845,0,0,0-.289-2.839,4.649,4.649,0,0,0-1.729-2.247,4.481,4.481,0,0,0-2.765-.767H236.362a15.218,15.218,0,0,0-6.459,1.231,14.633,14.633,0,0,0-8.423,10.173c-.148.565-.188,1.15-.3,1.729a10.25,10.25,0,0,0-.074,1.763V302.407a15.946,15.946,0,0,0,.6,4.891,14.8,14.8,0,0,0,5.712,7.885,15.225,15.225,0,0,0,9.419,2.59h87.342c3.108,0,6.223.054,9.285,0a14.613,14.613,0,0,0,8.322-3.229,15.722,15.722,0,0,0,3.007-3.33,14.672,14.672,0,0,0,1.843-4.037,15.73,15.73,0,0,0,.552-4.413v-22.2c0-46.645.054-88.647.074-123.928s.061-63.828.081-83.561V66.1a15.326,15.326,0,0,0-1.083-5.961,14.933,14.933,0,0,0-11.646-9.11,11.53,11.53,0,0,0-1.494-.141Z" transform="translate(-220.657 -50.623)" fill="#263238"/>
      <path id="Path_69155" data-name="Path 69155" d="M386.013,86.6c0,.061-2.449.135-5.47.161s-5.463,0-5.463-.074,2.442-.135,5.463-.155S386.013,86.544,386.013,86.6Z" transform="translate(-271.185 -62.372)" fill="#263238"/>
      <path id="Path_69156" data-name="Path 69156" d="M386.043,90.76c0,.061-2.442.135-5.463.161s-5.47,0-5.47-.074,2.449-.135,5.47-.161S386.043,90.692,386.043,90.76Z" transform="translate(-271.195 -63.729)" fill="#263238"/>
      <path id="Path_69157" data-name="Path 69157" d="M386.083,94.957c0,.061-2.449.135-5.47.161s-5.463,0-5.463-.074,2.442-.135,5.463-.161A51.075,51.075,0,0,1,386.083,94.957Z" transform="translate(-271.208 -65.101)" fill="#263238"/>
      <path id="Path_69158" data-name="Path 69158" d="M326.678,194.435c0,.094-10.193.175-22.774.175s-22.774-.081-22.774-.175,10.2-.175,22.774-.175S326.678,194.334,326.678,194.435Z" transform="translate(-240.444 -97.622)" fill="#263238"/>
      <path id="Path_69159" data-name="Path 69159" d="M263.335,208.07v5.6h-1.292v-4.568H260.92V208.07Z" transform="translate(-233.831 -102.141)" fill="#efa00b"/>
      <path id="Path_69160" data-name="Path 69160" d="M266,210.82c0-1.85,1.029-2.9,2.4-2.9s2.4,1.05,2.4,2.9-1.016,2.9-2.4,2.9S266,212.683,266,210.82Zm3.5,0c0-1.272-.444-1.8-1.1-1.8s-1.09.531-1.09,1.8.451,1.8,1.09,1.8,1.07-.532,1.07-1.8Z" transform="translate(-235.493 -102.092)" fill="#efa00b"/>
      <path id="Path_69161" data-name="Path 69161" d="M276.605,211.468l-.754.787v1.42H274.56v-5.6h1.292v2.644l2.483-2.617h1.44l-2.321,2.5,2.456,3.108h-1.514Z" transform="translate(-238.294 -102.141)" fill="#efa00b"/>
      <path id="Path_69162" data-name="Path 69162" d="M254.856,223.283v1.736h2.126v.262h-2.126v1.756h-.3V223h2.691v.262Z" transform="translate(-231.75 -107.026)" fill="#263238"/>
      <path id="Path_69163" data-name="Path 69163" d="M259.11,226.037a1.487,1.487,0,1,1,1.487,1.507,1.453,1.453,0,0,1-1.487-1.507Zm2.691,0a1.2,1.2,0,1,0-1.2,1.251,1.177,1.177,0,0,0,1.191-1.251Z" transform="translate(-233.239 -107.54)" fill="#263238"/>
      <path id="Path_69164" data-name="Path 69164" d="M264.84,222.68h.289v4.252h-.289Z" transform="translate(-235.114 -106.922)" fill="#263238"/>
      <path id="Path_69165" data-name="Path 69165" d="M267.05,222.68h.289v4.252h-.289Z" transform="translate(-235.837 -106.922)" fill="#263238"/>
      <path id="Path_69166" data-name="Path 69166" d="M268.779,226.04a1.487,1.487,0,1,1,1.494,1.514,1.453,1.453,0,0,1-1.494-1.514Zm2.691,0a1.2,1.2,0,1,0-1.2,1.251,1.177,1.177,0,0,0,1.191-1.251Z" transform="translate(-236.402 -107.543)" fill="#263238"/>
      <path id="Path_69167" data-name="Path 69167" d="M278.357,224.54l-1.144,3h-.269l-1-2.583-1.009,2.583h-.262l-1.13-2.974h.309l.989,2.691,1.016-2.691h.242l1.009,2.651,1-2.651Z" transform="translate(-237.961 -107.53)" fill="#263238"/>
      <path id="Path_69168" data-name="Path 69168" d="M283.912,226.127h-2.557a1.272,1.272,0,0,0,2.214.767l.161.188a1.413,1.413,0,0,1-1.124.484,1.46,1.46,0,0,1-1.527-1.507,1.42,1.42,0,0,1,2.839,0A.5.5,0,0,0,283.912,226.127Zm-2.55-.222h2.281a1.144,1.144,0,0,0-2.281,0Z" transform="translate(-240.427 -107.563)" fill="#263238"/>
      <path id="Path_69169" data-name="Path 69169" d="M288.023,224.5v.283h-.074c-.673,0-1.05.437-1.05,1.177v1.568h-.289v-2.974h.262v.673A1.137,1.137,0,0,1,288.023,224.5Z" transform="translate(-242.237 -107.515)" fill="#263238"/>
      <path id="Path_69170" data-name="Path 69170" d="M289.26,227.144l.135-.229a1.763,1.763,0,0,0,1.07.357c.626,0,.881-.222.881-.558,0-.868-1.971-.229-1.971-1.393,0-.451.37-.821,1.124-.821a1.8,1.8,0,0,1,1.023.3l-.135.229a1.48,1.48,0,0,0-.895-.269c-.579,0-.834.235-.834.558,0,.895,1.971.262,1.971,1.393,0,.484-.417.814-1.177.814A1.891,1.891,0,0,1,289.26,227.144Z" transform="translate(-243.104 -107.517)" fill="#263238"/>
      <path id="Path_69171" data-name="Path 69171" d="M307.728,212.593v1.056H303.5v-.841l2.16-2.018c.5-.471.585-.76.585-1.029,0-.444-.3-.673-.895-.673a1.393,1.393,0,0,0-1.164.558l-.942-.605A2.6,2.6,0,0,1,305.46,208c1.251,0,2.086.673,2.086,1.662a2.254,2.254,0,0,1-.935,1.769l-1.292,1.218Z" transform="translate(-247.679 -102.116)" fill="#efa00b"/>
      <path id="Path_69172" data-name="Path 69172" d="M310.68,210.82c0-1.85,1.029-2.9,2.4-2.9s2.4,1.05,2.4,2.9-1.016,2.9-2.4,2.9S310.68,212.683,310.68,210.82Zm3.5,0c0-1.272-.444-1.8-1.1-1.8s-1.09.531-1.09,1.8.451,1.8,1.09,1.8S314.179,212.091,314.179,210.82Z" transform="translate(-250.113 -102.092)" fill="#efa00b"/>
      <path id="Path_69173" data-name="Path 69173" d="M321.325,211.468l-.754.787v1.42H319.28v-5.6h1.292v2.644l2.483-2.617h1.42l-2.321,2.5,2.456,3.108h-1.48Z" transform="translate(-252.927 -102.141)" fill="#efa00b"/>
      <path id="Path_69174" data-name="Path 69174" d="M307.34,223h.289v3.727h2.3v.309h-2.59Z" transform="translate(-249.02 -107.026)" fill="#263238"/>
      <path id="Path_69175" data-name="Path 69175" d="M312,223.009a.229.229,0,1,1,.229.229A.229.229,0,0,1,312,223.009Zm.087.955h.283v3h-.283Z" transform="translate(-250.545 -106.954)" fill="#263238"/>
      <path id="Path_69176" data-name="Path 69176" d="M315.483,225.33l-.78.706v.908h-.283V222.72h.283v2.987l1.9-1.736h.363l-1.278,1.2,1.406,1.769h-.35Z" transform="translate(-251.337 -106.935)" fill="#263238"/>
      <path id="Path_69177" data-name="Path 69177" d="M321.538,226.084h-2.557a1.272,1.272,0,0,0,2.207.767l.168.188a1.413,1.413,0,0,1-1.1.491,1.46,1.46,0,0,1-1.534-1.507,1.426,1.426,0,1,1,2.846-.013A.214.214,0,0,0,321.538,226.084Zm-2.557-.222h2.281a1.144,1.144,0,0,0-2.281,0Z" transform="translate(-252.743 -107.52)" fill="#263238"/>
      <path id="Path_69178" data-name="Path 69178" d="M323.58,227.144l.128-.229a1.763,1.763,0,0,0,1.07.357c.626,0,.881-.222.881-.558,0-.868-1.971-.229-1.971-1.393,0-.451.377-.821,1.124-.821a1.8,1.8,0,0,1,1.023.3l-.135.229a1.473,1.473,0,0,0-.888-.269c-.585,0-.841.235-.841.558,0,.895,1.971.262,1.971,1.393,0,.484-.417.814-1.171.814A1.864,1.864,0,0,1,323.58,227.144Z" transform="translate(-254.334 -107.517)" fill="#263238"/>
      <path id="Path_69179" data-name="Path 69179" d="M350.451,211.965c0,.942-.733,1.81-2.321,1.81a3.862,3.862,0,0,1-2.139-.6l.5-1a2.691,2.691,0,0,0,1.6.5c.673,0,1.05-.262,1.05-.72s-.316-.673-1.05-.673H347.5v-.861l1.15-1.305h-2.388V208.09H350.2v.841l-1.265,1.44a1.588,1.588,0,0,1,1.521,1.594Z" transform="translate(-261.667 -102.148)" fill="#efa00b"/>
      <path id="Path_69180" data-name="Path 69180" d="M353.448,214.986a.78.78,0,1,1,.366.736A.78.78,0,0,1,353.448,214.986Z" transform="translate(-264.106 -104.172)" fill="#efa00b"/>
      <path id="Path_69181" data-name="Path 69181" d="M361.721,212.5h-.908v1.177h-1.278V212.5H356.52v-.875l2.644-3.552h1.346l-2.449,3.364h1.5v-1.05h1.231v1.05h.908Z" transform="translate(-265.112 -102.141)" fill="#efa00b"/>
      <path id="Path_69182" data-name="Path 69182" d="M368.917,211.912c0,.989-.727,1.857-2.328,1.857a3.876,3.876,0,0,1-2.139-.6l.511-1a2.691,2.691,0,0,0,1.595.5c.673,0,1.05-.269,1.05-.727s-.289-.733-1.305-.733h-1.433l.289-3.149h3.418v1.036h-2.341l-.067,1.07h.457C368.258,210.176,368.917,210.916,368.917,211.912Z" transform="translate(-267.707 -102.141)" fill="#efa00b"/>
      <path id="Path_69183" data-name="Path 69183" d="M376.5,211.855a1.924,1.924,0,0,1-2.119,1.864c-1.547,0-2.51-.969-2.51-2.779a2.731,2.731,0,0,1,2.859-3.021,3.014,3.014,0,0,1,1.561.384l-.478.955a1.857,1.857,0,0,0-1.05-.283,1.494,1.494,0,0,0-1.581,1.628,1.89,1.89,0,0,1,1.386-.5,1.783,1.783,0,0,1,1.931,1.749Zm-1.258.061a.848.848,0,0,0-.949-.841.875.875,0,0,0-.969.841c0,.484.357.834.982.834a.841.841,0,0,0,.935-.834Z" transform="translate(-270.135 -102.091)" fill="#efa00b"/>
      <path id="Path_69184" data-name="Path 69184" d="M348.82,226.5l.135-.215a1.89,1.89,0,0,0,1.346.5c.8,0,1.15-.35,1.15-.78,0-1.2-2.489-.478-2.489-1.951,0-.558.437-1.056,1.413-1.056a2.153,2.153,0,0,1,1.2.357l-.108.235a1.958,1.958,0,0,0-1.1-.336c-.774,0-1.124.357-1.124.8,0,1.191,2.5.484,2.5,1.931,0,.565-.451,1.056-1.44,1.056A2.052,2.052,0,0,1,348.82,226.5Z" transform="translate(-262.593 -107.023)" fill="#263238"/>
      <path id="Path_69185" data-name="Path 69185" d="M355.685,227a.915.915,0,0,1-.612.209.733.733,0,0,1-.807-.807v-1.944h-.545v-.242h.545v-.673h.316v.673h.949v.242h-.949v1.917c0,.383.188.592.558.592a.673.673,0,0,0,.457-.168Z" transform="translate(-264.196 -107.203)" fill="#263238"/>
      <path id="Path_69186" data-name="Path 69186" d="M357.17,226.037a1.487,1.487,0,1,1,1.487,1.507,1.453,1.453,0,0,1-1.487-1.507Zm2.691,0a1.2,1.2,0,1,0-1.2,1.251,1.177,1.177,0,0,0,1.191-1.251Z" transform="translate(-265.325 -107.54)" fill="#263238"/>
      <path id="Path_69187" data-name="Path 69187" d="M364.313,224.5v.283h-.067c-.673,0-1.056.437-1.056,1.177v1.568H362.9v-2.974h.276v.673A1.137,1.137,0,0,1,364.313,224.5Z" transform="translate(-267.2 -107.516)" fill="#263238"/>
      <path id="Path_69188" data-name="Path 69188" d="M366,223a.235.235,0,1,1,.235.229A.229.229,0,0,1,366,223Zm.094.955h.283v3h-.283Z" transform="translate(-268.214 -106.948)" fill="#263238"/>
      <path id="Path_69189" data-name="Path 69189" d="M370.728,226.081h-2.557a1.2,1.2,0,0,0,1.258,1.184,1.177,1.177,0,0,0,.949-.417l.168.188a1.413,1.413,0,0,1-1.124.484,1.46,1.46,0,0,1-1.534-1.507,1.423,1.423,0,1,1,2.839-.013Zm-2.55-.222h2.274a1.137,1.137,0,0,0-2.274,0Z" transform="translate(-268.831 -107.517)" fill="#263238"/>
      <path id="Path_69190" data-name="Path 69190" d="M372.78,227.144l.128-.229a1.769,1.769,0,0,0,1.077.357c.626,0,.875-.222.875-.558,0-.868-1.971-.229-1.971-1.393,0-.451.377-.821,1.13-.821a1.763,1.763,0,0,1,1.016.3l-.128.229a1.494,1.494,0,0,0-.895-.269c-.585,0-.841.235-.841.558,0,.895,1.971.262,1.971,1.393,0,.484-.41.814-1.171.814A1.877,1.877,0,0,1,372.78,227.144Z" transform="translate(-270.433 -107.517)" fill="#263238"/>
      <rect id="Rectangle_147930" data-name="Rectangle 147930" width="83.574" height="23.272" rx="11.636" transform="translate(23.449 229.205)" fill="#efa00b"/>
      <path id="Path_69191" data-name="Path 69191" d="M301.5,405.109v1.346h2.382v.955H301.5v1.877H300.31V404.14H304.2v.955Z" transform="translate(-246.72 -166.297)" fill="#fff"/>
      <path id="Path_69192" data-name="Path 69192" d="M306.587,407.731a2.18,2.18,0,1,1,2.18,2.018,2.018,2.018,0,0,1-2.18-2.018Zm3.182,0a1.016,1.016,0,1,0-1,1.1,1,1,0,0,0,1-1.1Z" transform="translate(-248.772 -166.706)" fill="#fff"/>
      <path id="Path_69193" data-name="Path 69193" d="M314.19,403.7h1.15v5.456h-1.15Z" transform="translate(-251.262 -166.153)" fill="#fff"/>
      <path id="Path_69194" data-name="Path 69194" d="M317.49,403.7h1.144v5.456H317.49Z" transform="translate(-252.341 -166.153)" fill="#fff"/>
      <path id="Path_69195" data-name="Path 69195" d="M320.337,407.731a2.18,2.18,0,1,1,2.18,2.018,2.018,2.018,0,0,1-2.18-2.018Zm3.189,0a1.016,1.016,0,1,0-1.009,1.1,1,1,0,0,0,1.009-1.1Z" transform="translate(-253.271 -166.706)" fill="#fff"/>
      <path id="Path_69196" data-name="Path 69196" d="M333.889,405.93l-1.433,3.956h-1.11l-.888-2.456-.922,2.456h-1.1L327,405.93h1.083l.935,2.691.969-2.691h.976l.942,2.691.962-2.691Z" transform="translate(-255.453 -166.882)" fill="#fff"/>
      <path id="Path_69197" data-name="Path 69197" d="M347.432,248.445c0,.094-26.838.175-59.932.175s-59.939-.081-59.939-.175,26.831-.175,59.939-.175S347.432,248.344,347.432,248.445Z" transform="translate(-222.916 -115.295)" fill="#e0e0e0"/>
      <rect id="Rectangle_147931" data-name="Rectangle 147931" width="47.714" height="46.167" transform="translate(4.967 137.611)" fill="#f5f5f5"/>
      <path id="Path_69198" data-name="Path 69198" d="M233.54,306.346l13.2-23.756,10.8,15.185,6.56-8.06,9.755,16.631Z" transform="translate(-224.872 -126.525)" fill="#e0e0e0"/>
      <path id="Path_69199" data-name="Path 69199" d="M272.656,274.051a3.438,3.438,0,1,1-3.431-3.431,3.438,3.438,0,0,1,3.431,3.431Z" transform="translate(-235.421 -122.608)" fill="#e0e0e0"/>
      <rect id="Rectangle_147932" data-name="Rectangle 147932" width="31.352" height="30.336" transform="translate(52.682 187.29)" fill="#ebebeb"/>
      <path id="Path_69200" data-name="Path 69200" d="M302.58,362.639l8.672-15.609,7.091,9.978,4.313-5.3,6.412,10.933Z" transform="translate(-247.463 -147.61)" fill="#e0e0e0"/>
      <path id="Path_69201" data-name="Path 69201" d="M328.311,341.414a2.261,2.261,0,1,1-2.261-2.254,2.261,2.261,0,0,1,2.261,2.254Z" transform="translate(-254.403 -145.035)" fill="#e0e0e0"/>
      <rect id="Rectangle_147933" data-name="Rectangle 147933" width="45.218" height="30.336" transform="translate(4.967 187.29)" fill="#ebebeb"/>
      <path id="Path_69202" data-name="Path 69202" d="M233.25,362.639l12.514-15.609,10.226,9.978,6.223-5.3,9.244,10.933Z" transform="translate(-224.777 -147.61)" fill="#e0e0e0"/>
      <path id="Path_69203" data-name="Path 69203" d="M267.585,344.19a2.382,2.382,0,1,1-2.382-2.261,2.321,2.321,0,0,1,2.382,2.261Z" transform="translate(-234.454 -145.941)" fill="#e0e0e0"/>
      <rect id="Rectangle_147934" data-name="Rectangle 147934" width="31.352" height="30.336" transform="translate(87.29 187.29)" fill="#ebebeb"/>
      <path id="Path_69204" data-name="Path 69204" d="M354.01,362.639l8.672-15.609,7.1,9.978,4.313-5.3,6.412,10.933Z" transform="translate(-264.291 -147.61)" fill="#e0e0e0"/>
      <path id="Path_69205" data-name="Path 69205" d="M379.741,341.414a2.261,2.261,0,1,1-2.254-2.254,2.261,2.261,0,0,1,2.254,2.254Z" transform="translate(-271.231 -145.035)" fill="#e0e0e0"/>
      <rect id="Rectangle_147935" data-name="Rectangle 147935" width="66.095" height="46.167" transform="translate(55.615 137.611)" fill="#f5f5f5"/>
      <path id="Path_69206" data-name="Path 69206" d="M308.82,306.346l18.959-23.756,15.508,15.185,9.426-8.06,14.021,16.631Z" transform="translate(-249.505 -126.525)" fill="#e0e0e0"/>
      <path id="Path_69207" data-name="Path 69207" d="M363.956,275.6c2.8,3.673-1.346,7.831-5.033,5.032C356.125,276.956,360.276,272.8,363.956,275.6Z" transform="translate(-265.598 -123.938)" fill="#e0e0e0"/>
      <path id="Path_69208" data-name="Path 69208" d="M251.484,89.2a13.228,13.228,0,0,1-2.18.121c-1.346,0-3.2.054-5.241.054h-2.691a.161.161,0,0,1-.161-.161.155.155,0,0,1,.04-.108c.942-1.009,1.756-1.864,2.335-2.456a6.467,6.467,0,0,1,.962-.9,6.441,6.441,0,0,1-.814,1.036c-.538.632-1.346,1.514-2.24,2.536l-.121-.269h2.691c2.018,0,3.9,0,5.241.054A13.226,13.226,0,0,1,251.484,89.2Z" transform="translate(-227.382 -62.117)" fill="#263238"/>
      <path id="Path_69209" data-name="Path 69209" d="M241.4,90.88a8.02,8.02,0,0,1,1.877,1.467,8.277,8.277,0,0,1,1.642,1.729,8.174,8.174,0,0,1-1.877-1.467A8.345,8.345,0,0,1,241.4,90.88Z" transform="translate(-227.444 -63.796)" fill="#263238"/>
    </g>
    <g id="freepik--character-2--inject-7" transform="translate(81.615 32.848)">
      <ellipse id="Ellipse_2207" data-name="Ellipse 2207" cx="28.264" cy="28.264" rx="28.264" ry="28.264" transform="translate(8.94 64.757) rotate(-99.1)" fill="#e0e0e0"/>
      <path id="Path_69242" data-name="Path 69242" d="M325.175,149.465c-.3-2.072-2.691-5.039-4.844-5.039a5.51,5.51,0,0,0,.047-6.055c-.828-1.231-2.153-2.133-2.691-3.5-.639-1.547-.148-3.29-.209-4.952-.094-2.435-1.346-4.662-2.59-6.782-1.13-1.938-2.51-4.037-4.71-4.535a7.091,7.091,0,0,0-4.192.673A22.68,22.68,0,0,0,293.063,134.2c-.4,1.568-.673,3.263-1.77,4.474s-3.182,1.985-3.532,3.66c-.249,1.2.525,2.415.41,3.64-.1,1.029-2.018,4.037-2.462,4.945A5.638,5.638,0,0,0,286,155.87a7.569,7.569,0,0,0,4.508,3.6l19.6-6.533c1.843,1.05,3.68,5.113,5.8,5.382s4.71,1.171,6.728-1.063A10.442,10.442,0,0,0,325.175,149.465Z" transform="translate(-272.842 -103.598)" fill="#263238"/>
      <path id="Path_69243" data-name="Path 69243" d="M335.439,135.53a10.334,10.334,0,0,1-1.13,5.759,6.728,6.728,0,0,1-2.6,2.086,10.179,10.179,0,0,0-2.779,1.884,2.866,2.866,0,0,0-.673,3.075,3.681,3.681,0,0,0-1.9,4.649,5.591,5.591,0,0,0,4.279,3.256l8.074-2.436,1.776-10.314-4.622-7.959" transform="translate(-315.603 -109.161)" fill="#263238"/>
      <path id="Path_69244" data-name="Path 69244" d="M341.58,151.17l-.155.067a4.821,4.821,0,0,0-.444.229,5.774,5.774,0,0,0-1.42,1.184,6.955,6.955,0,0,0-.754,1.043,6.592,6.592,0,0,0-.585,1.379,5.907,5.907,0,0,0,0,3.438v-.074a6.169,6.169,0,0,0-3.081,4.6,5.954,5.954,0,0,0,.579,3.236,6.116,6.116,0,0,0,1.346,1.783,4.4,4.4,0,0,0,.471.383l.175.121a1.185,1.185,0,0,0-.161-.141,5.243,5.243,0,0,1-.451-.4,6.236,6.236,0,0,1-1.278-1.79,5.847,5.847,0,0,1-.545-3.182,6.055,6.055,0,0,1,1.736-3.525,5.9,5.9,0,0,1,1.285-.976h.047V158.5a5.933,5.933,0,0,1,0-3.364,6.332,6.332,0,0,1,.565-1.346,6.46,6.46,0,0,1,.733-1.043,5.739,5.739,0,0,1,1.379-1.2c.175-.121.33-.188.424-.249Z" transform="translate(-322.739 -114.278)" fill="#455a64"/>
      <path id="Path_69245" data-name="Path 69245" d="M285.61,169.063l5.544-3.889a14.556,14.556,0,0,1,1.891-.525s9.756-2.758,10.132-2.88l9.069,1.42,3.633.518a14.553,14.553,0,0,1,8.82,4.757l1.648,1.864s-6.688,8.4-20.52,8.074a28.315,28.315,0,0,1-3.667-.336C290.817,176.262,285.61,169.063,285.61,169.063Z" transform="translate(-274.204 -117.747)" fill="#efa00b"/>
      <path id="Path_69246" data-name="Path 69246" d="M320.75,164.311l-3.034-.431-12.655.175-3,1.736s8.9,8.168,11.525,8.551C320.192,175.3,320.75,164.311,320.75,164.311Z" transform="translate(-279.674 -118.437)" fill="#ffbe9d"/>
      <path id="Path_69247" data-name="Path 69247" d="M327.591,116.31a9.951,9.951,0,0,0-8.652,14.741,4.662,4.662,0,0,0,2.483,2.355,20.527,20.527,0,0,1,6.223-15.959" transform="translate(-297.097 -102.872)" fill="#efa00b"/>
      <path id="Path_69248" data-name="Path 69248" d="M330.9,114.836a2.727,2.727,0,0,0-.942-3.129,7.824,7.824,0,0,0-3.229-1.346,8.269,8.269,0,0,1-3.256-1.272,8.894,8.894,0,0,0,1.783,5.14A4.486,4.486,0,0,0,330.2,115.7" transform="translate(-304.418 -100.509)" fill="#efa00b"/>
      <path id="Path_69249" data-name="Path 69249" d="M317.909,115.418a2.6,2.6,0,0,0,2.415-.357,5.49,5.49,0,0,0,1.608-1.938,8.33,8.33,0,0,0,1.036-2.927,4.905,4.905,0,0,0-.518-3.028c-1.346,1.433-2.826,2.637-3.593,4.44a5.382,5.382,0,0,0,.087,3.815" transform="translate(-292.61 -99.881)" fill="#efa00b"/>
      <path id="Path_69250" data-name="Path 69250" d="M328.409,128.28a1.925,1.925,0,0,0-.067.343c0,.114-.034.249-.047.4s-.04.343-.04.545a10.057,10.057,0,0,0,0,1.406,11.719,11.719,0,0,0,.8,3.35,10.17,10.17,0,0,0,.612,1.265c.094.182.2.33.276.464s.161.249.229.343a1.682,1.682,0,0,0,.215.269,2.338,2.338,0,0,0-.175-.3l-.209-.343c-.074-.141-.168-.3-.256-.471a12.29,12.29,0,0,1-.585-1.272,13.278,13.278,0,0,1-.511-1.628,14.185,14.185,0,0,1-.276-1.689,13.129,13.129,0,0,1-.054-1.393v-.538a1.436,1.436,0,0,1,.034-.4A2.692,2.692,0,0,0,328.409,128.28Z" transform="translate(-306.918 -106.789)" fill="#263238"/>
      <path id="Path_69251" data-name="Path 69251" d="M323.3,116.569a1.745,1.745,0,0,0,.276.222,3.189,3.189,0,0,0,.881.343,6.99,6.99,0,0,0,3.142-.182h.034v-.04l.054-.229a5.679,5.679,0,0,0,.081-1.83,3.169,3.169,0,0,0-.518-1.4,2.731,2.731,0,0,0-.727-.673l-.33-.161a1.845,1.845,0,0,0,.3.209,2.691,2.691,0,0,1,.673.673,3.156,3.156,0,0,1,.471,1.346,5.439,5.439,0,0,1-.087,1.79l-.047.229.04-.047a7.205,7.205,0,0,1-3.081.215,3.3,3.3,0,0,1-.881-.3,2.021,2.021,0,0,0-.283-.161Z" transform="translate(-301.023 -101.665)" fill="#263238"/>
      <path id="Path_69252" data-name="Path 69252" d="M323.664,113.759s.357.074.922.242a8,8,0,0,1,.962.357,9.129,9.129,0,0,1,1.1.606,8.243,8.243,0,0,1,1,.774,7.9,7.9,0,0,1,.713.74c.377.451.565.76.585.747s-.034-.081-.114-.229a5.638,5.638,0,0,0-.4-.579,6.305,6.305,0,0,0-.673-.767,7.781,7.781,0,0,0-1-.794,8.114,8.114,0,0,0-1.13-.606,7.84,7.84,0,0,0-.989-.336,5.655,5.655,0,0,0-.673-.135A1.216,1.216,0,0,0,323.664,113.759Z" transform="translate(-302.407 -102.037)" fill="#263238"/>
      <path id="Path_69253" data-name="Path 69253" d="M320.72,118.419v.074a.546.546,0,0,0,.067.2,1.648,1.648,0,0,0,.484.612,1.669,1.669,0,0,0,1.1.357,1.6,1.6,0,0,0,1.218-.713,1.615,1.615,0,0,0,.229-1.393,1.675,1.675,0,0,0-.733-.9,1.547,1.547,0,0,0-.747-.229.948.948,0,0,0-.209,0h.209a1.722,1.722,0,0,1,.673.256,1.635,1.635,0,0,1,.673.861,1.474,1.474,0,0,1-.222,1.285,1.494,1.494,0,0,1-1.117.673,1.608,1.608,0,0,1-1.043-.316,1.676,1.676,0,0,1-.491-.558C320.754,118.513,320.734,118.412,320.72,118.419Z" transform="translate(-295.367 -102.908)" fill="#263238"/>
      <path id="Path_69254" data-name="Path 69254" d="M322.718,119.186a.345.345,0,0,0,0-.323.531.531,0,0,0-.289-.229,1.077,1.077,0,0,0-.444-.047,2.019,2.019,0,0,0-1.043.31,5.386,5.386,0,0,1,1.056-.182.673.673,0,0,1,.673.2.605.605,0,0,1,.047.276Z" transform="translate(-294.384 -103.615)" fill="#263238"/>
      <path id="Path_69255" data-name="Path 69255" d="M319.384,107.17a3.122,3.122,0,0,1,.377,1.05,7.494,7.494,0,0,1,.054,1.218,8.326,8.326,0,0,1-.128,1.487,7.582,7.582,0,0,1-1.05,2.489c-.2.283-.377.5-.5.673l-.2.235a3.364,3.364,0,0,0,.774-.834,6.855,6.855,0,0,0,1.1-2.516,7.585,7.585,0,0,0,.128-1.514,6.689,6.689,0,0,0-.088-1.231,2.591,2.591,0,0,0-.283-.794A.794.794,0,0,0,319.384,107.17Z" transform="translate(-289.543 -99.881)" fill="#263238"/>
      <path id="Path_69256" data-name="Path 69256" d="M322.182,111.5a1.666,1.666,0,0,0-.35.417,8.08,8.08,0,0,0-.673,1.137,7.685,7.685,0,0,0-.431,1.245,1.7,1.7,0,0,0-.081.532c.04,0,.2-.8.633-1.722S322.215,111.52,322.182,111.5Z" transform="translate(-293.612 -101.298)" fill="#263238"/>
      <path id="Path_69257" data-name="Path 69257" d="M321.924,113.77s-.437.4-.976.881a7.4,7.4,0,0,0-.949.922,6.11,6.11,0,0,0,1.029-.828A4.173,4.173,0,0,0,321.924,113.77Z" transform="translate(-292.917 -102.041)" fill="#263238"/>
      <path id="Path_69258" data-name="Path 69258" d="M323,122.34h0l.108.094.424.309a6.135,6.135,0,0,0,1.547.754,6.283,6.283,0,0,0,1.689.309h0a6.875,6.875,0,0,1-1.675-.323,6.464,6.464,0,0,1-1.541-.74c-.188-.114-.33-.222-.431-.3l-.114-.081Z" transform="translate(-300.445 -104.845)" fill="#fafafa"/>
      <path id="Path_69259" data-name="Path 69259" d="M325.13,126.75l.034.04.114.087a4.485,4.485,0,0,0,.417.309,6.922,6.922,0,0,0,1.541.78,7.3,7.3,0,0,0,1.682.384h.518a2.342,2.342,0,0,1-.518-.047,7.719,7.719,0,0,1-1.669-.39,8.116,8.116,0,0,1-1.534-.76l-.431-.3-.114-.087Z" transform="translate(-304.022 -106.288)" fill="#fafafa"/>
      <path id="Path_69260" data-name="Path 69260" d="M326.51,133.2l.1.074a2.952,2.952,0,0,0,.3.182,5.234,5.234,0,0,0,1.083.431,4.71,4.71,0,0,0,1.15.155,2.5,2.5,0,0,0,.35,0h-.35a5.59,5.59,0,0,1-1.137-.175,5.38,5.38,0,0,1-1.076-.41,3.008,3.008,0,0,1-.309-.161Z" transform="translate(-304.998 -108.398)" fill="#fafafa"/>
      <path id="Path_69261" data-name="Path 69261" d="M331.38,132.21a1.264,1.264,0,0,0,.33.094,1.348,1.348,0,0,0,.343.04,1.09,1.09,0,0,0-.33-.094A1.346,1.346,0,0,0,331.38,132.21Z" transform="translate(-310.702 -108.074)" fill="#fafafa"/>
      <path id="Path_69262" data-name="Path 69262" d="M327.11,139.751a2.335,2.335,0,0,0,1.11-.081s-.249.034-.552.061S327.11,139.737,327.11,139.751Z" transform="translate(-303.997 -110.515)" fill="#fafafa"/>
      <path id="Path_69263" data-name="Path 69263" d="M320.82,120.7a1.4,1.4,0,0,0,.33.209,1.266,1.266,0,0,0,.35.168,1.4,1.4,0,0,0-.33-.209A1.346,1.346,0,0,0,320.82,120.7Z" transform="translate(-293.044 -104.308)" fill="#fafafa"/>
      <path id="Path_69264" data-name="Path 69264" d="M318.02,116.87a4.036,4.036,0,0,1,.727.39,5.132,5.132,0,0,1,.605.552,1.03,1.03,0,0,0-.141-.2,2.153,2.153,0,0,0-.437-.4,2.387,2.387,0,0,0-.518-.283.814.814,0,0,0-.235-.067Z" transform="translate(-289.013 -103.055)" fill="#fafafa"/>
      <path id="Path_69265" data-name="Path 69265" d="M323.072,120.4a3.684,3.684,0,0,1,0-.74,4.12,4.12,0,0,1,.2-.72.9.9,0,0,0-.108.2,1.926,1.926,0,0,0-.135,1.05.606.606,0,0,0,.04.215Z" transform="translate(-296.293 -103.732)" fill="#fafafa"/>
      <path id="Path_69266" data-name="Path 69266" d="M323.912,109.21a3.562,3.562,0,0,0,.269.283,5.384,5.384,0,0,0,.848.673,10.486,10.486,0,0,0,1.413.733c.545.242,1.157.484,1.783.78a6.957,6.957,0,0,1,1.628,1.036,4.091,4.091,0,0,1,.955,1.245,2.986,2.986,0,0,1,.289,1.023,3.369,3.369,0,0,1,0,.39.574.574,0,0,0,0-.1,2.016,2.016,0,0,0,0-.289,2.934,2.934,0,0,0-.276-1.036,4.151,4.151,0,0,0-.955-1.265,7.233,7.233,0,0,0-1.642-1.05c-.626-.3-1.238-.538-1.783-.774a11.86,11.86,0,0,1-1.413-.72,5.569,5.569,0,0,1-.855-.673l-.209-.2Z" transform="translate(-304.728 -100.549)" fill="#fafafa"/>
      <path id="Path_69267" data-name="Path 69267" d="M326.33,113.54v.054l.108.155a6.365,6.365,0,0,0,.4.545,9.891,9.891,0,0,0,1.6,1.574,9.642,9.642,0,0,0,1.917,1.157c.262.121.478.209.626.262l.175.061h.007l-.168-.067c-.155-.061-.363-.155-.626-.276a10.338,10.338,0,0,1-1.9-1.164,10.566,10.566,0,0,1-1.608-1.554c-.182-.222-.323-.4-.417-.538l-.108-.148Z" transform="translate(-306.48 -101.966)" fill="#fafafa"/>
      <path id="Path_69268" data-name="Path 69268" d="M321.825,108.41a4.376,4.376,0,0,0-.74.4,6.142,6.142,0,0,0-2.489,3.135,5.037,5.037,0,0,0-.215.814V112.7l.047-.161a5.714,5.714,0,0,1,.182-.585,6.431,6.431,0,0,1,2.476-3.122c.215-.141.4-.249.525-.316l.148-.074Z" transform="translate(-291.728 -100.287)" fill="#fafafa"/>
      <path id="Path_69269" data-name="Path 69269" d="M304.383,122.14a5,5,0,0,0,1.628,3.438,6.953,6.953,0,0,1,2.018,3.29c.33,2.288-1.911,4.414-1.447,6.681.249,1.211,1.245,2.187,1.42,3.418a4.252,4.252,0,0,1-1.251,3.25c-.787.9-1.7.774-2.4,1.749a9.87,9.87,0,0,1-3.021,2.691c-2.516,1.379-5.53-.612-6.728-.969" transform="translate(-261.967 -104.78)" fill="#263238"/>
      <path id="Path_69270" data-name="Path 69270" d="M301.032,124.464c-1.164-.5-1.251-4.656,1.655-5.133a7.939,7.939,0,0,0,3.115-1.42c.868-.585,1.124-2.065,1.857-2.812a7.266,7.266,0,0,1,12.225,3.364,4.759,4.759,0,0,1-1.191,4.784c-1.534,1.3-3.815,1.009-5.786.606s-4.2-.8-5.847.357a8.261,8.261,0,0,0-2.173,2.886,5.1,5.1,0,0,1-2.51,2.516,4.883,4.883,0,0,0-.161,3.485c.713,1.467-.841-1.009-.841-1.009s-2.826-5.032-.343-7.6" transform="translate(-277.609 -101.769)" fill="#263238"/>
      <path id="Path_69271" data-name="Path 69271" d="M311.153,156.367v-10.3c0,.013,4.3-.727,5.181-6.344a59.617,59.617,0,0,0,.04-11.115c-.215-3.364-2.456-7.5-5.813-7.138l-10.482,2.691a1.978,1.978,0,0,0-1.763,2.018h0l.639,26.024Z" transform="translate(-273.016 -104.553)" fill="#ffbe9d"/>
      <path id="Path_69272" data-name="Path 69272" d="M302.733,136.531a.713.713,0,0,1-.673.727.673.673,0,0,1-.74-.673.713.713,0,0,1,.673-.727.673.673,0,0,1,.74.673Z" transform="translate(-261.158 -109.267)" fill="#263238"/>
      <path id="Path_69273" data-name="Path 69273" d="M302.978,135.264c-.087.094-.632-.3-1.406-.3s-1.346.39-1.426.3.047-.209.3-.39a1.971,1.971,0,0,1,1.144-.357,1.911,1.911,0,0,1,1.117.363C302.944,135.055,303.025,135.223,302.978,135.264Z" transform="translate(-260.609 -108.827)" fill="#263238"/>
      <path id="Path_69274" data-name="Path 69274" d="M314.305,137.1c-.087.094-.673-.309-1.413-.3s-1.346.39-1.426.3.047-.209.3-.39a2.018,2.018,0,0,1,1.144-.357,1.884,1.884,0,0,1,1.124.357C314.265,136.888,314.352,137.063,314.305,137.1Z" transform="translate(-279.553 -109.429)" fill="#263238"/>
      <path id="Path_69275" data-name="Path 69275" d="M304.759,141.269a5.007,5.007,0,0,1,1.258-.229c.2,0,.384-.061.417-.2a.989.989,0,0,0-.135-.592c-.182-.478-.377-.976-.585-1.5a25.529,25.529,0,0,1-1.346-3.943,26.071,26.071,0,0,1,1.642,3.821c.2.532.383,1.036.558,1.521a1.1,1.1,0,0,1,.108.774.491.491,0,0,1-.323.289,1.346,1.346,0,0,1-.336.047A5.188,5.188,0,0,1,304.759,141.269Z" transform="translate(-267.181 -108.925)" fill="#263238"/>
      <path id="Path_69276" data-name="Path 69276" d="M313.959,157.018A14.317,14.317,0,0,1,306.43,155a7.436,7.436,0,0,0,7.455,3.317Z" transform="translate(-275.822 -115.532)" fill="#eb996e"/>
      <path id="Path_69277" data-name="Path 69277" d="M310.062,147.1c.094-.471-.471-.626-.881-.888s-.673-.592-1.036-.3a1.507,1.507,0,0,0-.478.673.908.908,0,0,0,.269,1.124,1.668,1.668,0,0,0,.841.437,1.15,1.15,0,0,0,.908-.215.908.908,0,0,0,.35-.848" transform="translate(-272.706 -112.519)" fill="#eb996e"/>
      <path id="Path_69278" data-name="Path 69278" d="M307.1,145.21c.128,0,.128.834.854,1.433s1.615.5,1.621.619-.2.161-.579.175a2.092,2.092,0,0,1-1.346-.471,1.8,1.8,0,0,1-.673-1.2C306.948,145.419,307.042,145.21,307.1,145.21Z" transform="translate(-271.798 -112.328)" fill="#263238"/>
      <path id="Path_69279" data-name="Path 69279" d="M314.846,134.618c-.074.209-.848.108-1.756.222s-1.648.363-1.769.175.074-.289.37-.5a2.967,2.967,0,0,1,1.346-.458,2.927,2.927,0,0,1,1.346.155C314.711,134.349,314.879,134.517,314.846,134.618Z" transform="translate(-279.979 -108.673)" fill="#263238"/>
      <path id="Path_69280" data-name="Path 69280" d="M302.939,131.267c-.135.175-.673,0-1.312,0s-1.184.121-1.312-.061.034-.269.269-.437a1.9,1.9,0,0,1,2.113.061C302.925,131,303,131.179,302.939,131.267Z" transform="translate(-260.678 -107.508)" fill="#263238"/>
      <path id="Path_69281" data-name="Path 69281" d="M306.687,142.35c1.541.316,1.682-.471,2.832-1.547a5.046,5.046,0,0,0,1.554-4.279c-.175-1.379-.915-2.779-.437-4.084.632-1.729,3.048-2.261,3.694-3.983.37-1,.04-2.173.458-3.155a3.747,3.747,0,0,1,2.314-1.79,9.6,9.6,0,0,0,2.752-1.2,2.164,2.164,0,0,0,.78-2.644,53.563,53.563,0,0,0-12.279,2.98,4.763,4.763,0,0,0-2.422,1.568,4.985,4.985,0,0,0-.5,3.014l.673,15.131" transform="translate(-282 -103.971)" fill="#263238"/>
      <path id="Path_69282" data-name="Path 69282" d="M306.119,139.523l-.06-.067a2.309,2.309,0,0,1-.155-.222,2.941,2.941,0,0,1-.37-.982,3.411,3.411,0,0,1,.087-1.662,3.156,3.156,0,0,1,1.305-1.756,7.708,7.708,0,0,0,2.086-1.547,1.682,1.682,0,0,0,.309-1.346,7.311,7.311,0,0,0-.491-1.46,4.184,4.184,0,0,1,.074-3.364,3.62,3.62,0,0,1,1.137-1.413,4.475,4.475,0,0,1,1.722-.72c.612-.135,1.218-.215,1.783-.383a3.525,3.525,0,0,0,1.487-.814,2.5,2.5,0,0,0,.673-1.48,12.073,12.073,0,0,1,.262-1.628,5.6,5.6,0,0,1,1.52-2.658,4.42,4.42,0,0,1,2.382-1.184,3.512,3.512,0,0,1,2.173.33,3.465,3.465,0,0,1,1.258,1.083,2.967,2.967,0,0,1,.437.955,1.348,1.348,0,0,1,.054.363,3.324,3.324,0,0,0-1.81-2.281A3.451,3.451,0,0,0,319.9,117a4.259,4.259,0,0,0-2.267,1.164,5.443,5.443,0,0,0-1.44,2.563,11.926,11.926,0,0,0-.249,1.615,2.745,2.745,0,0,1-.706,1.608,3.8,3.8,0,0,1-1.595.881c-.592.175-1.2.256-1.8.39a4.219,4.219,0,0,0-1.628.673,3.492,3.492,0,0,0-1.07,1.346,3.943,3.943,0,0,0-.074,3.169,8.072,8.072,0,0,1,.491,1.507,1.884,1.884,0,0,1-.357,1.473,7.712,7.712,0,0,1-2.153,1.568,3.035,3.035,0,0,0-1.272,1.655,3.364,3.364,0,0,0-.128,1.6,3.674,3.674,0,0,0,.464,1.305Z" transform="translate(-285.011 -103.028)" fill="#455a64"/>
      <path id="Path_69283" data-name="Path 69283" d="M323.475,142.29a14.23,14.23,0,0,1,.673,9.365,5.778,5.778,0,0,0-.39,2.8,7.651,7.651,0,0,0,1.689,2.563,6.324,6.324,0,0,1-1.938,9.244,3.005,3.005,0,0,0-1.87-1.958,7.724,7.724,0,0,1-2.429-1.346,1.716,1.716,0,0,1-.081-2.483c-2.16-.565-3.364-3.135-2.933-5.322a7.291,7.291,0,0,1,4.259-4.864" transform="translate(-295.061 -111.373)" fill="#263238"/>
      <path id="Path_69284" data-name="Path 69284" d="M316.152,172.194c.39.209.767.4.814.834a5.746,5.746,0,0,1-.619,1.9,2.644,2.644,0,0,0,3.458,3.364,1.379,1.379,0,0,1-1.346-1.312,2.933,2.933,0,0,1,.673-1.917,19.755,19.755,0,0,0,1.258-1.648c.713-1.225,1.769-4.541.955-6.4" transform="translate(-290.045 -119.465)" fill="#263238"/>
      <path id="Path_69285" data-name="Path 69285" d="M328.806,162.358l-.128-.108-.39-.316a8.809,8.809,0,0,1-1.258-1.305,6.519,6.519,0,0,1-1.2-2.388,5.382,5.382,0,0,1,.155-3.223,4.709,4.709,0,0,1,.888-1.433c.363-.417.76-.78,1.13-1.13a12.025,12.025,0,0,0,1-1.05,4.615,4.615,0,0,0,.673-1.09,2.913,2.913,0,0,0,.215-1.8,2.016,2.016,0,0,0-.188-.464.557.557,0,0,0-.094-.148,3.08,3.08,0,0,1,.235.626,2.939,2.939,0,0,1-.256,1.756,4.408,4.408,0,0,1-.673,1.056,12,12,0,0,1-1.009,1.029c-.37.35-.767.713-1.137,1.13a4.894,4.894,0,0,0-.908,1.473,5.437,5.437,0,0,0-.155,3.3,6.438,6.438,0,0,0,1.231,2.409,7.655,7.655,0,0,0,1.305,1.292c.168.135.3.229.4.3A.739.739,0,0,0,328.806,162.358Z" transform="translate(-304.664 -113.208)" fill="#455a64"/>
    </g>
    <g id="freepik--character-1--inject-7" transform="translate(135.662 119.867)">
      <path id="Path_69286" data-name="Path 69286" d="M227.615,245.87a5.443,5.443,0,0,0-.545,4.884c.336.888.922,1.877.464,2.691s-1.642.875-2.563,1.191a3.606,3.606,0,0,0-2.267,4.037,4.433,4.433,0,0,1,.283,1.776,3.767,3.767,0,0,1-1.063,1.534,4.494,4.494,0,0,0,2.637,7.313,5.724,5.724,0,0,1,2.065.471,6.94,6.94,0,0,1,1.487,1.917,3.774,3.774,0,0,0,6.788-2.24" transform="translate(-193.247 -232.284)" fill="#263238"/>
      <path id="Path_69287" data-name="Path 69287" d="M172.069,234.136a4.126,4.126,0,0,1-1.164-5.241,6.4,6.4,0,0,1,4.743-3.115,9.036,9.036,0,0,1,7.784,2.577c1.07,1.1,1.931,2.543,3.364,3.048,1.272.437,2.691.04,4.037.215a6.055,6.055,0,0,1,4.252,3.061,13.16,13.16,0,0,1,1.514,5.174c.2,1.648.323,3.458,1.467,4.662s2.873,1.42,4.266,2.254a5.833,5.833,0,0,1,1.729,7.973c-.545.8-1.346,1.541-1.4,2.51a6.783,6.783,0,0,0,.78,2.516,3.936,3.936,0,0,1-3.364,4.891c-1.15.067-2.382-.383-3.411.135s-1.406,1.742-2.065,2.691a4.925,4.925,0,0,1-6.008,1.547c-.841-.41-1.642-1.1-2.584-1.036s-1.675.868-2.6,1.043c-1.2.236-2.355-.673-3.075-1.655a17.275,17.275,0,0,0-2.139-2.994c-1.2-1.07-2.9-1.346-4.42-1.864a12.474,12.474,0,0,1-7.044-17.493" transform="translate(-125.947 -225.677)" fill="#263238"/>
      <path id="Path_69288" data-name="Path 69288" d="M187.551,240.329a2.759,2.759,0,0,0-2.462,2.812h0l1.648,37.306c.067,4.407,6.506,6.883,11.222,6.775h0c4.77-.114,4.918-2.449,4.979-6.64.1-7,.094-9.634.094-9.594s6.022-1.009,7.253-8.867c.605-3.909.4-10.314.054-15.548-.3-4.71-3.438-10.489-8.134-9.978Z" transform="translate(-144.941 -229.239)" fill="#b78876"/>
      <path id="Path_69289" data-name="Path 69289" d="M190.2,259.1a1.016,1.016,0,0,1-.969,1.023.969.969,0,0,1-1.043-.908,1,1,0,0,1,.969-1.016.955.955,0,0,1,1.043.9Z" transform="translate(-126.56 -236.316)" fill="#263238"/>
      <path id="Path_69290" data-name="Path 69290" d="M191.641,255.886c-.121.128-.888-.437-1.971-.431s-1.877.552-2.018.417.067-.3.417-.545a2.732,2.732,0,0,1,1.595-.5,2.631,2.631,0,0,1,1.574.5C191.588,255.617,191.7,255.826,191.641,255.886Z" transform="translate(-127.623 -235.216)" fill="#263238"/>
      <path id="Path_69291" data-name="Path 69291" d="M205.945,259.1a1.009,1.009,0,0,1-.969,1.023.969.969,0,0,1-1.036-.908,1,1,0,0,1,.962-1.016.955.955,0,0,1,1.043.9Z" transform="translate(-152.9 -236.316)" fill="#263238"/>
      <path id="Path_69292" data-name="Path 69292" d="M207.482,256.216c-.121.135-.888-.431-1.971-.424s-1.877.545-2.018.417.067-.3.41-.552a2.8,2.8,0,0,1,1.595-.5,2.691,2.691,0,0,1,1.574.5C207.428,255.92,207.542,256.156,207.482,256.216Z" transform="translate(-154.12 -235.324)" fill="#263238"/>
      <path id="Path_69293" data-name="Path 69293" d="M194.044,264.275a7.082,7.082,0,0,1,1.756-.323c.276,0,.538-.087.585-.276a1.386,1.386,0,0,0-.182-.821l-.828-2.106a35.877,35.877,0,0,1-1.85-5.51,35.849,35.849,0,0,1,2.288,5.349c.276.74.538,1.447.794,2.119a1.635,1.635,0,0,1,.141,1.09.673.673,0,0,1-.451.4,1.843,1.843,0,0,1-.471.067A7.166,7.166,0,0,1,194.044,264.275Z" transform="translate(-136.727 -235.35)" fill="#263238"/>
      <path id="Path_69294" data-name="Path 69294" d="M206.963,286.379A19.942,19.942,0,0,1,196.44,283.6s2.691,5.537,10.522,4.784Z" transform="translate(-148.872 -244.629)" fill="#aa6550"/>
      <path id="Path_69295" data-name="Path 69295" d="M201.323,272.194a1.951,1.951,0,0,0-1.749-.72,1.77,1.77,0,0,0-1.231.673,1.13,1.13,0,0,0-.081,1.292,1.305,1.305,0,0,0,1.42.357,4.083,4.083,0,0,0,1.386-.834,1.177,1.177,0,0,0,.309-.323.356.356,0,0,0,0-.4" transform="translate(-144.463 -240.657)" fill="#aa6550"/>
      <path id="Path_69296" data-name="Path 69296" d="M197.368,269.79c.175,0,.182,1.171,1.191,2.018s2.261.673,2.267.868-.276.229-.807.242a2.92,2.92,0,0,1-1.9-.673,2.57,2.57,0,0,1-.922-1.675C197.153,270.079,197.287,269.783,197.368,269.79Z" transform="translate(-143.24 -240.111)" fill="#263238"/>
      <path id="Path_69297" data-name="Path 69297" d="M207.684,253.524c-.108.3-1.184.155-2.456.316s-2.3.5-2.469.235c-.081-.121.1-.4.511-.673a4.319,4.319,0,0,1,3.761-.424C207.516,253.154,207.731,253.383,207.684,253.524Z" transform="translate(-153.839 -234.529)" fill="#263238"/>
      <path id="Path_69298" data-name="Path 69298" d="M191.885,252.929c-.188.249-.942,0-1.837,0s-1.655.168-1.837-.087c-.074-.121.047-.37.377-.605a2.691,2.691,0,0,1,2.954.087C191.865,252.552,191.966,252.808,191.885,252.929Z" transform="translate(-128.27 -234.236)" fill="#263238"/>
      <path id="Path_69299" data-name="Path 69299" d="M177.728,234.617a5.382,5.382,0,0,0,6.338,5.308c1.2-.222,2.516-.827,3.559-.188s1.137,2.321,2.106,3.162c1.386,1.2,3.586.074,5.342.6,1.346.4,2.207,1.7,3.108,2.792s2.254,2.126,3.613,1.722a15.963,15.963,0,0,0-.545-3.62,5.382,5.382,0,0,0-2.018-2.954,17.682,17.682,0,0,1-1.736-1.009c-1.13-.908-1.393-2.5-2.086-3.761a5.894,5.894,0,0,0-4.488-2.98c-1.547-.155-3.135.31-4.642-.074-1.117-.276-2.086-1-3.216-1.218-2.193-.417-4.239,1.164-5.833,2.732" transform="translate(-130.778 -227.853)" fill="#263238"/>
      <path id="Path_69300" data-name="Path 69300" d="M211.74,251.9a.875.875,0,0,0,.336,1.662c2.637.6,2.987-4.555,2.4-6.055a15.3,15.3,0,0,0,2.651-2.785,11.1,11.1,0,0,0,1.218-5.335c.949.054,5-1.285,4.568-1.406-.982-.283-3-.922-3.532-1.776a6.055,6.055,0,0,0-5.234-3.007,4.972,4.972,0,0,0-4.474,3.929,7.145,7.145,0,0,0-6.136,3.949,8.3,8.3,0,0,0,.222,7.7,4.037,4.037,0,0,1,.8,1.9,4.552,4.552,0,0,1-1.09,2.288,7.453,7.453,0,0,0-.188,6.829c.962,2.119,1.642,2.9,3.007,3.33,2.691.841-.424,6.358,4.037,6.358" transform="translate(-168.955 -228.138)" fill="#263238"/>
      <path id="Path_69301" data-name="Path 69301" d="M223.413,263.164a2.3,2.3,0,0,0-3.364-1.951c-.794.464-1.4,1.386-1.346,3.162.2,4.71,4.911,3.559,4.911,3.424S223.494,265.122,223.413,263.164Z" transform="translate(-180.5 -237.219)" fill="#b78876"/>
      <path id="Path_69302" data-name="Path 69302" d="M223.157,266.739a1.539,1.539,0,0,1-.215.128.808.808,0,0,1-.619.04,2.018,2.018,0,0,1-1.016-1.79,2.63,2.63,0,0,1,.182-1.191.948.948,0,0,1,.592-.673.417.417,0,0,1,.5.209c.067.128.04.222.067.229s.1-.081.054-.276a.558.558,0,0,0-.2-.289.606.606,0,0,0-.458-.1,1.171,1.171,0,0,0-.834.767,2.859,2.859,0,0,0-.229,1.346,2.146,2.146,0,0,0,1.285,2.018.881.881,0,0,0,.747-.161C223.157,266.853,223.211,266.746,223.157,266.739Z" transform="translate(-181.59 -237.894)" fill="#aa6550"/>
      <path id="Path_69303" data-name="Path 69303" d="M196.471,255.914a4.228,4.228,0,0,0,.269-.451,3.479,3.479,0,0,0,.424-1.406,3.647,3.647,0,0,0-.5-2.227,4.71,4.71,0,0,0-2.456-1.756,13.137,13.137,0,0,1-3.505-1.547,5.934,5.934,0,0,1-2.018-3.869c-.256-1.554-.128-3.182-.249-4.837a8.746,8.746,0,0,0-.5-2.449,4.884,4.884,0,0,0-1.413-2.086,4.481,4.481,0,0,0-2.321-.949,8.855,8.855,0,0,0-2.5.074,17.033,17.033,0,0,1-2.469.343,3.088,3.088,0,0,1-2.281-.807,9.5,9.5,0,0,1-1.285-1.891,4.319,4.319,0,0,0-1.379-1.507,5.12,5.12,0,0,0-3.546-.767A5.383,5.383,0,0,0,168,231.095a6.963,6.963,0,0,0-1.447,1.837,9.62,9.62,0,0,0-.727,1.87s0-.047,0-.135a2.8,2.8,0,0,1,.074-.383,6.447,6.447,0,0,1,.525-1.413,6.8,6.8,0,0,1,1.433-1.911,5.564,5.564,0,0,1,2.832-1.413,5.382,5.382,0,0,1,3.741.774,4.709,4.709,0,0,1,1.48,1.581,8.746,8.746,0,0,0,1.245,1.823,2.765,2.765,0,0,0,2.065.706,16.688,16.688,0,0,0,2.415-.343,9.043,9.043,0,0,1,2.6-.081,4.851,4.851,0,0,1,2.489,1.016,5.194,5.194,0,0,1,1.507,2.227,9.2,9.2,0,0,1,.518,2.543c.114,1.689,0,3.31.222,4.81a5.678,5.678,0,0,0,1.911,3.7,14.066,14.066,0,0,0,3.424,1.554,4.837,4.837,0,0,1,2.53,1.877,3.72,3.72,0,0,1,.471,2.335,3.431,3.431,0,0,1-.491,1.426A1.763,1.763,0,0,1,196.471,255.914Z" transform="translate(-118.647 -226.921)" fill="#455a64"/>
      <path id="Path_69304" data-name="Path 69304" d="M169.01,250.85s0,.39.067,1.07a7.306,7.306,0,0,0,.834,2.745,7.023,7.023,0,0,0,1.15,1.6,9.215,9.215,0,0,0,1.79,1.413,5.338,5.338,0,0,1,1,.814,2.644,2.644,0,0,1,.673,1.2,8.995,8.995,0,0,1,0,2.785,3.29,3.29,0,0,0,.6,2.483,6.135,6.135,0,0,0,2.059,1.346,7.583,7.583,0,0,1,2.018,1.238,3.1,3.1,0,0,1,.639.888,3.069,3.069,0,0,1,.249.976,3.411,3.411,0,0,1-1,2.732,2.616,2.616,0,0,1-.673.451,1.008,1.008,0,0,1-.269.094,5.546,5.546,0,0,0,.841-.673,3.364,3.364,0,0,0,.854-2.617,2.691,2.691,0,0,0-.841-1.682,7.6,7.6,0,0,0-1.944-1.164,6.478,6.478,0,0,1-2.18-1.433,2.886,2.886,0,0,1-.612-1.285,5.678,5.678,0,0,1-.061-1.433,8.975,8.975,0,0,0,0-2.691,3.27,3.27,0,0,0-1.514-1.85,9.418,9.418,0,0,1-1.817-1.467,7.4,7.4,0,0,1-1.164-1.689,7.24,7.24,0,0,1-.754-2.846,4.706,4.706,0,0,1,0-.8A.842.842,0,0,1,169.01,250.85Z" transform="translate(-103.505 -233.913)" fill="#455a64"/>
      <path id="Path_69305" data-name="Path 69305" d="M215.423,266.094a.564.564,0,0,1-.168-.061,2.143,2.143,0,0,1-.471-.235,3.942,3.942,0,0,1-1.346-1.44,3.889,3.889,0,0,1-.384-3.061,4.219,4.219,0,0,1,2.833-2.812l-.074.222a6.554,6.554,0,0,1-1.258-2.368,3.418,3.418,0,0,1,.471-2.859,2.543,2.543,0,0,1,1.251-.955,3.566,3.566,0,0,1,1.595-.081,6.169,6.169,0,0,0,1.527.061,1.534,1.534,0,0,0,1.144-.807,2.974,2.974,0,0,0,.148-2.166c-.182-.727-.5-1.426-.673-2.173a6.337,6.337,0,0,1,.538-4.252,6.055,6.055,0,0,1,2.691-2.691,6.21,6.21,0,0,1,3.2-.673l-.114.1a3.317,3.317,0,0,1,1.144-2.086,3.593,3.593,0,0,1,1.581-.814,3.324,3.324,0,0,1,1.117-.054,1.851,1.851,0,0,1,.377.1,3.99,3.99,0,0,0-1.46.067,3.661,3.661,0,0,0-1.5.828,3.162,3.162,0,0,0-1.036,1.978v.108h-.108a6.055,6.055,0,0,0-3.061.673,5.88,5.88,0,0,0-2.577,2.59,6.055,6.055,0,0,0-.491,4.037c.161.706.478,1.4.673,2.166a3.317,3.317,0,0,1-.175,2.4,1.884,1.884,0,0,1-1.386.982,6.137,6.137,0,0,1-1.621-.067,3.485,3.485,0,0,0-1.453.067,2.166,2.166,0,0,0-1.09.834,3.068,3.068,0,0,0-.437,2.6,6.216,6.216,0,0,0,1.184,2.274l.128.161-.2.061a3.949,3.949,0,0,0-2.691,2.6,3.721,3.721,0,0,0,.3,2.913,4.076,4.076,0,0,0,1.285,1.453C215.2,265.987,215.437,266.074,215.423,266.094Z" transform="translate(-183.531 -229.337)" fill="#455a64"/>
      <path id="Path_69306" data-name="Path 69306" d="M223.566,238.48a2.866,2.866,0,0,0-.949.794,4.346,4.346,0,0,0-.343,3.27v.121h-.114a4.568,4.568,0,0,0-3.048,2.691,3.559,3.559,0,0,0-.249,1.157,7.62,7.62,0,0,0,.148,1.251,8.432,8.432,0,0,1,.182,1.346,2.213,2.213,0,0,1-.37,1.393,5.772,5.772,0,0,1-2.348,1.763,8.073,8.073,0,0,0-2.2,1.44,5.954,5.954,0,0,0-1.769,3.963,6.25,6.25,0,0,0,.626,2.927c.316.673.579.955.552.976a1,1,0,0,1-.2-.215,4.958,4.958,0,0,1-.464-.673,5.988,5.988,0,0,1,1.043-7.165A8.262,8.262,0,0,1,216.32,252a5.5,5.5,0,0,0,2.22-1.655,3.24,3.24,0,0,0,.148-2.5,7.117,7.117,0,0,1-.141-1.312,3.761,3.761,0,0,1,.276-1.265,4.817,4.817,0,0,1,3.277-2.812l-.087.148a4.353,4.353,0,0,1,.478-3.4,1.9,1.9,0,0,1,.74-.605,1.09,1.09,0,0,1,.336-.114Z" transform="translate(-176.126 -229.866)" fill="#455a64"/>
      <path id="Path_69307" data-name="Path 69307" d="M135.909,352.387h0l13.3-11.337,7.273,1.756s-7.5,15.75-13.456,21.994-9.116,7.125-11.357,7.226c-3.075.135-4.481-3.613-4.481-3.613l-.35-12.312Z" transform="translate(-51.566 -263.428)" fill="#b78876"/>
      <path id="Path_69308" data-name="Path 69308" d="M130.756,308.18h10.011a2.542,2.542,0,0,1,2.328,3.2L133,330.988a2.281,2.281,0,0,1-2.018,1.238h-12.2a1.749,1.749,0,0,1-1.346-2.584l9.735-19.228A4,4,0,0,1,130.756,308.18Z" transform="translate(-31.826 -252.672)" fill="#455a64"/>
      <path id="Path_69309" data-name="Path 69309" d="M130.759,309.94H140.77a1.675,1.675,0,0,1,1.494,2.435l-9.83,19.188a2.274,2.274,0,0,1-2.018,1.238h-12.07a.982.982,0,0,1-.881-1.426l9.715-19.208a4,4,0,0,1,3.579-2.227Z" transform="translate(-31.15 -253.248)" fill="#263238"/>
      <path id="Path_69310" data-name="Path 69310" d="M129.112,321.88l6.1,2.436,1.305,4.911-2.94,7.307L122.808,338.1l3.155-3.223-.41-2.806s-3-.942-3.075-1.406.37-2.018.834-2.072a25.241,25.241,0,0,1,3.606,1.1s-3.727-2.954-3.626-3.425.511-1.689,1.251-1.823,6.728,2.691,6.728,2.691l1.016,2.227.848-3.566S127.786,324.309,129.112,321.88Z" transform="translate(-28.655 -257.155)" fill="#b78876"/>
      <path id="Path_69311" data-name="Path 69311" d="M135.663,337.169c.034,0,.148-.209.209-.606a3.364,3.364,0,0,0-1.05-2.826c-.3-.262-.532-.357-.552-.33A4.71,4.71,0,0,1,135.663,337.169Z" transform="translate(-35.973 -260.926)" fill="#aa6550"/>
      <path id="Path_69312" data-name="Path 69312" d="M137.744,334.184a14.354,14.354,0,0,1-.242-1.594,7.01,7.01,0,0,0-.3-1.769,2.691,2.691,0,0,0-.592-.949,2.778,2.778,0,0,0-1-.626c-1.453-.525-2.765-.955-3.727-1.265a8.68,8.68,0,0,0-1.574-.431,8.38,8.38,0,0,0,1.5.639c.935.363,2.254.834,3.687,1.346a2.6,2.6,0,0,1,.895.545,2.435,2.435,0,0,1,.5.834,8.071,8.071,0,0,1,.363,1.689,3.25,3.25,0,0,0,.484,1.581Z" transform="translate(-35.162 -259.01)" fill="#aa6550"/>
      <path id="Path_69313" data-name="Path 69313" d="M128.594,334.628c.087,0,.067-.552-.04-1.2s-.262-1.164-.35-1.15a2.449,2.449,0,0,0,.04,1.2C128.352,334.11,128.507,334.641,128.594,334.628Z" transform="translate(-24.612 -260.558)" fill="#aa6550"/>
      <path id="Path_69314" data-name="Path 69314" d="M130.557,314.818a1.272,1.272,0,1,1-.37-.9A1.278,1.278,0,0,1,130.557,314.818Z" transform="translate(-26.42 -254.426)" fill="#fafafa"/>
      <path id="Path_69315" data-name="Path 69315" d="M131.46,340.92c.316-4-7.219-43.059-6.5-42.891,2.018.4,6.136,1.346,11.673,8.275,2.88,3.606,9.17,21.98,10.718,26.6l4.366-2.092a2.947,2.947,0,0,1,2.193-.141l9.91,3.283s-13.456,24.557-20.063,24.436a28.432,28.432,0,0,1-2.954-.168h0l14.021,26.367s14.4,12.164,15.01,14.4H121.63S131.15,344.917,131.46,340.92Z" transform="translate(-61.413 -249.351)" fill="#efa00b"/>
      <path id="Path_69316" data-name="Path 69316" d="M206.336,294.7l7.071,2.193c3.478,2.738,4.763,8.248,4.642,12.669l2.637,36.667.222,12.669s-20.244,10.993-42.87-3.243l3.761-10-6.849-23.844c-.491-3.478-.794-10.684.114-14.129,2.328-8.746,7.475-12.574,14.526-14.129,0,0,6.809,6.365,13.045,5.234A4.44,4.44,0,0,0,206.336,294.7Z" transform="translate(-148.043 -247.888)" fill="#263238"/>
      <path id="Path_69317" data-name="Path 69317" d="M164.543,382.783a.566.566,0,0,0-.067-.175l-.249-.5-.955-1.884-3.478-6.661v.061c-.114-2.691-.276-5.793-.478-9.1-.33-5.382-.727-10.226-1.076-13.738-.175-1.756-.336-3.176-.464-4.151-.061-.464-.108-.834-.148-1.124a1.9,1.9,0,0,0-.074-.39,1.61,1.61,0,0,0,0,.4c0,.289.054.673.094,1.13l.357,4.158c.3,3.512.673,8.37.989,13.738.2,3.3.377,6.412.511,9.089v.034h0l3.579,6.6c.424.774.767,1.393,1.023,1.85l.283.484C164.5,382.716,164.536,382.79,164.543,382.783Z" transform="translate(-80.28 -264.759)" fill="#263238"/>
      <path id="Path_69318" data-name="Path 69318" d="M155.044,355.734c.094.034.673-1.346,1.534-2.987s1.763-2.826,1.689-2.886A9.75,9.75,0,0,0,156.3,352.6,11.942,11.942,0,0,0,155.044,355.734Z" transform="translate(-72.328 -266.31)" fill="#263238"/>
      <path id="Path_69319" data-name="Path 69319" d="M179.19,312.455c0,.1,5.537.175,12.359.175s12.359-.074,12.359-.175-5.53-.175-12.359-.175S179.19,312.361,179.19,312.455Z" transform="translate(-134.212 -254.014)" fill="#fafafa"/>
      <path id="Path_69320" data-name="Path 69320" d="M180.96,305.729a5.944,5.944,0,0,0,1,0h2.732l8.989-.175,9-.135,2.691-.061a6.646,6.646,0,0,0,1-.061,4.8,4.8,0,0,0-1-.074c-.639,0-1.574-.04-2.691-.054-2.3,0-5.483,0-9,.034s-6.694.168-9,.276c-1.15.054-2.079.1-2.691.148a5.379,5.379,0,0,0-1.029.1Z" transform="translate(-137.866 -251.687)" fill="#fafafa"/>
      <path id="Path_69321" data-name="Path 69321" d="M183.58,297.66c0,.1,1.951.525,4.366,1.124a42.42,42.42,0,0,0,4.38,1.023,21.463,21.463,0,0,0-4.3-1.346A21.155,21.155,0,0,0,183.58,297.66Z" transform="translate(-125.583 -249.23)" fill="#fafafa"/>
      <path id="Path_69322" data-name="Path 69322" d="M217.13,297.555a5.831,5.831,0,0,0,1.985-.121,5.941,5.941,0,0,0,1.924-.471,5.786,5.786,0,0,0-1.978.121,5.888,5.888,0,0,0-1.931.471Z" transform="translate(-176.868 -248.99)" fill="#fafafa"/>
      <path id="Path_69323" data-name="Path 69323" d="M178.71,321.685a4.707,4.707,0,0,0,.9.081c.579.034,1.42.067,2.456.1,2.079.061,4.952.108,8.121.108s6.055-.054,8.121-.121c1.043-.034,1.884-.067,2.462-.1a3.8,3.8,0,0,0,.9-.087,4.857,4.857,0,0,0-.908-.047H179.612A3.856,3.856,0,0,0,178.71,321.685Z" transform="translate(-131.653 -257.068)" fill="#fafafa"/>
      <path id="Path_69324" data-name="Path 69324" d="M177.81,330.921c0,.094,4.9-.168,10.919-.6s10.906-.848,10.9-.942-4.9.168-10.919.592S177.8,330.827,177.81,330.921Z" transform="translate(-129.004 -259.603)" fill="#fafafa"/>
      <path id="Path_69325" data-name="Path 69325" d="M184.7,339.789c0,.094,3.472-.135,7.737-.518s7.724-.767,7.71-.861-3.472.135-7.737.511S184.693,339.695,184.7,339.789Z" transform="translate(-134.158 -262.557)" fill="#fafafa"/>
      <path id="Path_69326" data-name="Path 69326" d="M175.81,358.409a9.419,9.419,0,0,0,4.979-.949,18.6,18.6,0,0,0-2.489.471,18.173,18.173,0,0,0-2.489.478Z" transform="translate(-108.818 -268.797)" fill="#fafafa"/>
      <path id="Path_69327" data-name="Path 69327" d="M174.87,380.532a4.4,4.4,0,0,0,.848-.249c.538-.175,1.305-.464,2.24-.854A51.39,51.39,0,0,0,185,375.843a52.161,52.161,0,0,0,6.412-4.622c.767-.673,1.346-1.2,1.783-1.6a4.165,4.165,0,0,0,.606-.639,4.181,4.181,0,0,0-.673.538c-.431.363-1.063.881-1.85,1.514a62.57,62.57,0,0,1-6.432,4.514,65.346,65.346,0,0,1-6.957,3.66c-.922.41-1.668.733-2.187.949a4.036,4.036,0,0,0-.828.377Z" transform="translate(-121.193 -272.566)" fill="#fafafa"/>
      <path id="Path_69328" data-name="Path 69328" d="M175.46,369.322a7.214,7.214,0,0,0,1.581-.384c.969-.3,2.281-.753,3.7-1.346a35.5,35.5,0,0,0,3.552-1.7,6.73,6.73,0,0,0,1.386-.861,8,8,0,0,0-1.5.673c-.908.431-2.166,1-3.573,1.595s-2.691,1.09-3.64,1.44a7.625,7.625,0,0,0-1.507.585Z" transform="translate(-113.474 -271.274)" fill="#fafafa"/>
      <path id="Path_69329" data-name="Path 69329" d="M166.141,340.994l1.043,4.037,20.857-15.219,5.685-8.033a7.589,7.589,0,0,1,4.138-2.745h0c1.547-.3,2.886.37,4.541,1.278l4.777,2.967a1.669,1.669,0,0,1,.8,1.689c-.074.437-.323.753-.976.464a42.751,42.751,0,0,0-4.494-1.547l-.8,7.69-3.539,2.563-3.532,2.725-23.548,23.4a10.522,10.522,0,0,1-16.82-2.738l-3.492-9.924Z" transform="translate(-119.192 -256.2)" fill="#b78876"/>
      <path id="Path_69330" data-name="Path 69330" d="M212.991,356.86a1.723,1.723,0,0,0-.875.538,4.589,4.589,0,0,0-1.218,2.16,8.532,8.532,0,0,0-.229,2.462,3.19,3.19,0,0,0,.121,1.016,3.727,3.727,0,0,0,.1-1.016,11.664,11.664,0,0,1,.309-2.382,5.133,5.133,0,0,1,1.076-2.086C212.681,357.1,213.018,356.9,212.991,356.86Z" transform="translate(-164.467 -268.601)" fill="#eb996e"/>
      <path id="Path_69331" data-name="Path 69331" d="M162.513,326.01c.034,0-.067-.269-.309-.626a2.826,2.826,0,0,0-1.346-1.07,1.716,1.716,0,0,0-1.682.323c-.343.33-.33.673-.3.673a1.92,1.92,0,0,1,.444-.478,1.662,1.662,0,0,1,1.44-.2,3.136,3.136,0,0,1,1.251.915C162.311,325.828,162.479,326.03,162.513,326.01Z" transform="translate(-79.145 -257.921)" fill="#aa6550"/>
      <path id="Path_69332" data-name="Path 69332" d="M159.427,329.482s.2-.114.478-.276a2.355,2.355,0,0,1,2.4,0c.283.161.444.3.478.276s-.074-.229-.35-.457a2.146,2.146,0,0,0-1.346-.464,2.106,2.106,0,0,0-1.346.451C159.5,329.253,159.394,329.455,159.427,329.482Z" transform="translate(-79.793 -259.341)" fill="#aa6550"/>
      <path id="Path_69333" data-name="Path 69333" d="M208.705,389.456c2.18-.484,5.806-14.754,5.806-14.754s-1.7-4.844-1.7-6.291,7.986-4.279,7.986-4.279-3.559-26.622-5.423-43.012c-.289-1.346-.464-2.267-.484-2.6,0-.531-.262-3.364-.269-4.414a28.09,28.09,0,0,1,.323-7.125c.256-4.6,13.039-12.406,14.082-11.8,3.936,2.294,10.462,21.987,13.947,36.142,3.579-1.85,8.026-4.111,8.585-4.212.955-.161,1.231,1.635,1.231,1.635V348.3l-8.363,5.833A320.427,320.427,0,0,1,235.9,385.4c-3.243,9.083-.673,11.579-4.279,13.032l-40.125-.39C188.347,395.383,206.526,389.913,208.705,389.456Z" transform="translate(-191.13 -248.409)" fill="#efa00b"/>
      <path id="Path_69334" data-name="Path 69334" d="M203.26,345.88a3.371,3.371,0,0,0,.054.5c.047.33.121.807.222,1.426.209,1.231.538,3.007,1,5.2s1.036,4.784,1.749,7.656c.363,1.433.754,2.933,1.2,4.481a21.175,21.175,0,0,0,1.884,4.636,13.348,13.348,0,0,0,7.367,6.015,8.706,8.706,0,0,0,4.212.256,13.031,13.031,0,0,0,3.424-1.346,39.623,39.623,0,0,0,4.414-2.933l1.15-.868a2.291,2.291,0,0,0,.39-.316,2.861,2.861,0,0,0-.431.269l-1.184.814a42.574,42.574,0,0,1-4.447,2.839,12.964,12.964,0,0,1-3.364,1.285,8.525,8.525,0,0,1-4.077-.283,13.173,13.173,0,0,1-7.179-5.894,20.859,20.859,0,0,1-1.857-4.562c-.458-1.541-.854-3.041-1.218-4.467-.733-2.859-1.346-5.45-1.817-7.629s-.848-3.956-1.09-5.181c-.121-.592-.209-1.056-.283-1.413A2.217,2.217,0,0,0,203.26,345.88Z" transform="translate(-176.824 -265.008)" fill="#263238"/>
      <path id="Path_69335" data-name="Path 69335" d="M205.459,356.783c.047,0,.431-.572,1.137-1.473a21.532,21.532,0,0,1,3.095-3.216A22.247,22.247,0,0,1,213.4,349.6c1.009-.531,1.675-.807,1.655-.854a1.547,1.547,0,0,0-.491.135,11.888,11.888,0,0,0-1.265.525,18.064,18.064,0,0,0-6.876,5.766,10.146,10.146,0,0,0-.74,1.157A1.851,1.851,0,0,0,205.459,356.783Z" transform="translate(-163.031 -265.947)" fill="#263238"/>
      <path id="Path_69336" data-name="Path 69336" d="M211.86,355.177c.04,0,.377-.37,1.009-.908a10.046,10.046,0,0,1,2.779-1.655,9.863,9.863,0,0,1,3.162-.673c.828-.034,1.346.034,1.346,0a3.809,3.809,0,0,0-1.346-.2,8.672,8.672,0,0,0-6.055,2.375A3.686,3.686,0,0,0,211.86,355.177Z" transform="translate(-172.439 -266.925)" fill="#263238"/>
      <path id="Path_69337" data-name="Path 69337" d="M211.84,318.28a4.933,4.933,0,0,0,.087.928c.087.592.222,1.447.424,2.5.4,2.1,1.043,4.985,1.864,8.141s1.669,5.988,2.361,8.006c.343,1.016.639,1.83.861,2.382a5.161,5.161,0,0,0,.383.848,5.873,5.873,0,0,0-.269-.888l-.767-2.409c-.632-2.018-1.447-4.871-2.267-8.02s-1.5-6.055-1.951-8.107l-.518-2.469a5.723,5.723,0,0,0-.209-.908Z" transform="translate(-170.091 -255.977)" fill="#263238"/>
      <path id="Path_69338" data-name="Path 69338" d="M222.568,397.038a2.6,2.6,0,0,0,.431.135,8.462,8.462,0,0,0,1.2.2,13.106,13.106,0,0,0,7.784-1.722,9.487,9.487,0,0,0,1.016-.673c.229-.175.343-.283.33-.3s-.552.323-1.453.794a15.39,15.39,0,0,1-3.714,1.346,15.6,15.6,0,0,1-3.943.336C223.2,397.1,222.575,396.991,222.568,397.038Z" transform="translate(-192.822 -280.972)" fill="#263238"/>
      <path id="Path_69339" data-name="Path 69339" d="M216.11,407.8a.673.673,0,0,0,.2.121,4.788,4.788,0,0,0,.605.289,8.871,8.871,0,0,0,2.4.626,13.557,13.557,0,0,0,7.865-1.628,27.344,27.344,0,0,0,6.392-5.012c.733-.74,1.305-1.346,1.7-1.783a4.89,4.89,0,0,0,.585-.673,4.756,4.756,0,0,0-.673.605l-1.763,1.716a29.673,29.673,0,0,1-6.385,4.891,13.866,13.866,0,0,1-7.73,1.682A13.044,13.044,0,0,1,216.11,407.8Z" transform="translate(-190.993 -282.631)" fill="#263238"/>
      <path id="Path_69340" data-name="Path 69340" d="M194.882,350a3.3,3.3,0,0,0-.182.673,14.871,14.871,0,0,0-.276,1.87,19.96,19.96,0,0,0-.034,2.806,21.071,21.071,0,0,0,.518,3.4,20.485,20.485,0,0,0,1.11,3.256,17.989,17.989,0,0,0,1.346,2.476,15.015,15.015,0,0,0,1.1,1.534,2.934,2.934,0,0,0,.471.5c.047-.034-.585-.794-1.386-2.153a21.583,21.583,0,0,1-1.251-2.476,22.788,22.788,0,0,1-1.07-3.216,22.278,22.278,0,0,1-.532-3.364,21.612,21.612,0,0,1-.034-2.772C194.733,350.949,194.942,350,194.882,350Z" transform="translate(-139.448 -266.356)" fill="#263238"/>
      <path id="Path_69341" data-name="Path 69341" d="M221.75,308.88a20.987,20.987,0,0,0,2.153,0,17.2,17.2,0,0,1,5.086.632,8.551,8.551,0,0,1,4.178,2.805,10.707,10.707,0,0,1,1.036,1.85,1.791,1.791,0,0,0-.135-.565,5.437,5.437,0,0,0-.727-1.42,8.3,8.3,0,0,0-4.259-2.967,15.406,15.406,0,0,0-5.187-.552,13.087,13.087,0,0,0-1.574.114A1.862,1.862,0,0,0,221.75,308.88Z" transform="translate(-193.141 -252.821)" fill="#263238"/>
      <path id="Path_69342" data-name="Path 69342" d="M24.209,429l10.839,12.783s16.6-6.728,18.838-4.568L29.9,459.121,12.2,439.933Z" transform="translate(128.16 -292.205)" fill="#efa00b"/>
      <g id="Group_161927" data-name="Group 161927" transform="translate(140.36 136.795)" opacity="0.3">
        <path id="Path_69343" data-name="Path 69343" d="M24.209,429l10.839,12.783s16.6-6.728,18.838-4.568L29.9,459.121,12.2,439.933Z" transform="translate(-12.2 -429)"/>
      </g>
      <path id="Path_69344" data-name="Path 69344" d="M49.455,456.238a1.346,1.346,0,0,0,.343,1.736,1.285,1.285,0,0,0,1.729-.323,1.406,1.406,0,0,0-.377-1.837,1.346,1.346,0,0,0-1.756.538" transform="translate(105.383 -300.935)" fill="#e0e0e0"/>
      <path id="Path_69345" data-name="Path 69345" d="M13.909,462.856,12.2,460.838l23.635-20.251s1.494-.511,2.059.35Z" transform="translate(144.152 -295.947)" fill="#e0e0e0"/>
      <path id="Path_69346" data-name="Path 69346" d="M41.08,447.271c.1.121-.437.713-.673,1.615s-.087,1.675-.242,1.729-.592-.787-.289-1.877S41.006,447.143,41.08,447.271Z" transform="translate(122.404 -298.177)" fill="#263238"/>
      <path id="Path_69347" data-name="Path 69347" d="M35.069,445.414c.128.087-.2.747-.141,1.608s.417,1.487.3,1.588-.8-.491-.848-1.561S34.968,445.3,35.069,445.414Z" transform="translate(131.88 -297.572)" fill="#263238"/>
      <path id="Path_69348" data-name="Path 69348" d="M29.586,446.615c-.081.121-.78-.316-1.063-1.231s0-1.668.168-1.615.108.673.357,1.453S29.694,446.467,29.586,446.615Z" transform="translate(141.541 -297.037)" fill="#263238"/>
      <path id="Path_69349" data-name="Path 69349" d="M46.349,443.345c.047.148-.673.478-1.258,1.13s-.949,1.346-1.1,1.285-.04-.915.673-1.669S46.309,443.2,46.349,443.345Z" transform="translate(114.343 -296.882)" fill="#263238"/>
      <path id="Path_69350" data-name="Path 69350" d="M52.291,439.495c.047.047-.35.545-1.211,1.09a7.17,7.17,0,0,1-1.608.767,8.384,8.384,0,0,1-1.023.262,2.157,2.157,0,0,1-.619.047.673.673,0,0,1-.626-.572.9.9,0,0,1,.269-.74,2.166,2.166,0,0,1,.511-.35,6.119,6.119,0,0,1,.976-.424,5.671,5.671,0,0,1,1.776-.283,2.691,2.691,0,0,1,1.595.33c0,.087-.626-.034-1.574.061a6.729,6.729,0,0,0-1.628.37,6.927,6.927,0,0,0-.881.417c-.316.168-.532.363-.5.538,0,.061,0,.081.155.108a1.581,1.581,0,0,0,.451-.034,9.11,9.11,0,0,0,2.536-.834,12.116,12.116,0,0,1,1.4-.754Z" transform="translate(106.167 -295.569)" fill="#263238"/>
      <path id="Path_69351" data-name="Path 69351" d="M49.85,437.706a2.614,2.614,0,0,1-1.379-.875,5.282,5.282,0,0,1-1.036-1.46,5.571,5.571,0,0,1-.357-1.009,1.345,1.345,0,0,1,.209-1.305.76.76,0,0,1,.807-.128,2.483,2.483,0,0,1,.531.33,3.581,3.581,0,0,1,.733.807,3.808,3.808,0,0,1,.626,1.709,2.133,2.133,0,0,1-.309,1.608,13.691,13.691,0,0,0-.081-1.547,3.693,3.693,0,0,0-.673-1.473,3.493,3.493,0,0,0-.673-.673c-.269-.215-.552-.336-.626-.222a.922.922,0,0,0-.061.774,5.549,5.549,0,0,0,.3.928,5.994,5.994,0,0,0,.861,1.406C49.352,437.3,49.9,437.666,49.85,437.706Z" transform="translate(108.608 -293.47)" fill="#263238"/>
      <path id="Path_69352" data-name="Path 69352" d="M95.247,396.837,85.828,406.9c-4.326,5.308-8.746,9.7-15.474,9.978h0c-7.9.323-21.274,0-21.274,0L62.1,382.129l31.386-26a19.45,19.45,0,0,1,11.727-3.963h0a19.605,19.605,0,0,1,14.956,7.031l38.524,48.192L143.56,420.432,104.33,385.09Z" transform="translate(-1.458 -267.066)" fill="#263238"/>
      <path id="Path_69353" data-name="Path 69353" d="M42.459,429,53.3,441.783s16.6-6.728,18.838-4.568l-23.985,21.9-17.7-19.188Z" transform="translate(97.632 -292.205)" fill="#efa00b"/>
      <path id="Path_69354" data-name="Path 69354" d="M67.705,456.238a1.346,1.346,0,0,0,.343,1.736,1.285,1.285,0,0,0,1.729-.323,1.406,1.406,0,0,0-.377-1.837,1.346,1.346,0,0,0-1.756.538" transform="translate(74.855 -300.935)" fill="#e0e0e0"/>
      <path id="Path_69355" data-name="Path 69355" d="M32.159,462.856l-1.709-2.018,23.635-20.251s1.494-.511,2.059.35Z" transform="translate(113.624 -295.947)" fill="#e0e0e0"/>
      <path id="Path_69356" data-name="Path 69356" d="M59.289,447.271c.1.121-.437.713-.673,1.615s-.094,1.675-.242,1.729-.592-.787-.289-1.877S59.188,447.143,59.289,447.271Z" transform="translate(91.943 -298.177)" fill="#263238"/>
      <path id="Path_69357" data-name="Path 69357" d="M53.319,445.414c.128.087-.2.747-.141,1.608s.417,1.487.3,1.588-.8-.491-.848-1.561S53.211,445.3,53.319,445.414Z" transform="translate(101.352 -297.572)" fill="#263238"/>
      <path id="Path_69358" data-name="Path 69358" d="M47.836,446.615c-.081.121-.78-.316-1.063-1.231s0-1.668.168-1.615.108.673.357,1.453S47.944,446.467,47.836,446.615Z" transform="translate(111.012 -297.037)" fill="#263238"/>
      <path id="Path_69359" data-name="Path 69359" d="M64.6,443.345c.047.148-.673.478-1.258,1.13s-.949,1.346-1.1,1.285-.04-.915.673-1.669S64.572,443.2,64.6,443.345Z" transform="translate(83.814 -296.882)" fill="#263238"/>
      <path id="Path_69360" data-name="Path 69360" d="M70.541,439.495c.047.047-.35.545-1.211,1.09a7.17,7.17,0,0,1-1.608.767,8.385,8.385,0,0,1-1.023.262,2.157,2.157,0,0,1-.619.047.673.673,0,0,1-.626-.572.9.9,0,0,1,.269-.74,2.166,2.166,0,0,1,.511-.35,6.124,6.124,0,0,1,.976-.424,5.671,5.671,0,0,1,1.776-.283,2.691,2.691,0,0,1,1.595.33c0,.087-.626-.034-1.581.061a6.651,6.651,0,0,0-1.621.37,6.927,6.927,0,0,0-.881.417c-.316.168-.532.363-.5.538,0,.061.034.081.155.108a1.581,1.581,0,0,0,.451-.034,9.11,9.11,0,0,0,2.536-.834,12.117,12.117,0,0,1,1.4-.754Z" transform="translate(75.638 -295.569)" fill="#263238"/>
      <path id="Path_69361" data-name="Path 69361" d="M68.017,437.706a2.6,2.6,0,0,1-1.346-.875,5.282,5.282,0,0,1-1.036-1.46,5.571,5.571,0,0,1-.357-1.009,1.345,1.345,0,0,1,.209-1.305.76.76,0,0,1,.807-.128,2.269,2.269,0,0,1,.525.33,3.467,3.467,0,0,1,.74.807,3.808,3.808,0,0,1,.626,1.709,2.133,2.133,0,0,1-.309,1.608,13.69,13.69,0,0,0-.081-1.547,3.714,3.714,0,0,0-.673-1.473,3.27,3.27,0,0,0-.673-.673c-.269-.215-.552-.336-.626-.222a.922.922,0,0,0-.061.774,5.548,5.548,0,0,0,.3.928,6,6,0,0,0,.861,1.406C67.539,437.3,68.064,437.666,68.017,437.706Z" transform="translate(78.163 -293.47)" fill="#263238"/>
      <path id="Path_69362" data-name="Path 69362" d="M102.8,396.824,93.38,406.882c-4.346,5.308-8.383,9.681-15.111,9.957h0c-.168.276-19.269.235-19.269.235L69.617,382.09l31.372-26a19.45,19.45,0,0,1,11.72-3.963h0a19.612,19.612,0,0,1,14.963,7.031l41.424,47.58L151.28,422.215l-38.6-36.681Z" transform="translate(-18.536 -267.053)" fill="#263238"/>
      <path id="Path_69363" data-name="Path 69363" d="M133,432.868a.534.534,0,0,0,.168,0h2.483c1.709,0,4.178,0,7.233-.2a37.492,37.492,0,0,0,4.965-.626,13.817,13.817,0,0,0,2.691-.841,15.608,15.608,0,0,0,2.516-1.588c3.263-2.456,6.055-5.981,9.13-9.419l16.08-18.435h-.188l4.911,4.81,1.346,1.272.35.323.121.1s0-.047-.1-.128l-.33-.343-1.285-1.312-4.8-4.817-.081-.081-.074.087c-4.037,4.588-9.789,11.121-16.147,18.367-3.095,3.472-5.86,7-9.069,9.419a15.216,15.216,0,0,1-2.456,1.568,13.272,13.272,0,0,1-2.617.834,38.1,38.1,0,0,1-4.925.673c-3.041.229-5.517.249-7.219.289l-2.025-.013h-.511Z" transform="translate(-84.032 -283.237)" fill="#455a64"/>
      <path id="Path_69364" data-name="Path 69364" d="M58.79,352.72a1.575,1.575,0,0,0,.209,0,4.042,4.042,0,0,1,.626.04,14.13,14.13,0,0,1,2.355.417,18.979,18.979,0,0,1,7.6,4.292c2.826,2.442,5.5,6.022,8.652,9.823s6.64,7.966,10.374,12.278c10.59,12.2,20.076,22.485,24.557,27.383v-.094l-2.436,2.3-.619.6a1.079,1.079,0,0,0-.2.215s.081-.061.222-.188.37-.33.673-.572l2.483-2.254.054-.047-.047-.054c-4.4-4.965-13.839-15.293-24.422-27.49-3.734-4.313-7.246-8.45-10.388-12.258s-5.86-7.36-8.746-9.8a18.711,18.711,0,0,0-7.717-4.245,12.822,12.822,0,0,0-2.382-.363h-.632a.674.674,0,0,0-.215.02Z" transform="translate(37.361 -267.239)" fill="#455a64"/>
      <path id="Path_69365" data-name="Path 69365" d="M143.589,387.44a4.891,4.891,0,0,0-.451,1.393,12.984,12.984,0,0,0-.289,3.512,11.438,11.438,0,0,0,.754,3.445,4.757,4.757,0,0,0,.673,1.3,18.584,18.584,0,0,1-1.1-4.763A23.374,23.374,0,0,1,143.589,387.44Z" transform="translate(-50.116 -278.607)" fill="#455a64"/>
      <path id="Path_69366" data-name="Path 69366" d="M143.06,389.83a4.851,4.851,0,0,0,.309,1.5,11.438,11.438,0,0,0,4.36,5.833,4.816,4.816,0,0,0,1.346.72,16.894,16.894,0,0,1-3.754-3.465,16.692,16.692,0,0,1-2.261-4.588Z" transform="translate(-55.07 -279.389)" fill="#455a64"/>
      <path id="Path_69367" data-name="Path 69367" d="M171.519,387.583c.061.074,5.456-4.373,12.05-9.937s11.888-10.132,11.821-10.206-5.456,4.373-12.05,9.937S171.466,387.509,171.519,387.583Z" transform="translate(-120.533 -272.062)" fill="#455a64"/>
    </g>
  </g>
</svg>
