<svg xmlns="http://www.w3.org/2000/svg" width="24" height="24" viewBox="0 0 24 24">
  <g id="Group_161836" data-name="Group 161836" transform="translate(-104.475 -232.7)">
    <path id="Path_69121" data-name="Path 69121" d="M12,0A12,12,0,1,0,24,12,12.014,12.014,0,0,0,12,0Zm0,22.594A10.594,10.594,0,1,1,22.594,12,10.606,10.606,0,0,1,12,22.594Z" transform="translate(104.475 232.7)" fill="#ef0b30"/>
    <path id="Path_69122" data-name="Path 69122" d="M155.887,287.245A5.693,5.693,0,0,0,151.028,290a.708.708,0,1,0,1.215.728,4.248,4.248,0,0,1,7.294.009.708.708,0,1,0,1.217-.725A5.691,5.691,0,0,0,155.887,287.245Z" transform="translate(-39.412 -40.945)" fill="#ef0b30"/>
    <path id="Path_69123" data-name="Path 69123" d="M104.4,184.76a.708.708,0,0,0-1.34-.459,1.676,1.676,0,0,1-3.171,0,.708.708,0,1,0-1.34.458,3.092,3.092,0,0,0,5.851,0Z" transform="translate(10.57 56.879)" fill="#ef0b30"/>
    <path id="Path_69124" data-name="Path 69124" d="M293.445,183.861a.708.708,0,0,0-.9.441,1.676,1.676,0,0,1-3.171,0,.708.708,0,1,0-1.34.458,3.092,3.092,0,0,0,5.851,0A.708.708,0,0,0,293.445,183.861Z" transform="translate(-170.052 56.879)" fill="#ef0b30"/>
  </g>
</svg>
