<svg xmlns="http://www.w3.org/2000/svg" width="24" height="24" viewBox="0 0 24 24">
  <g id="Group_161837" data-name="Group 161837" transform="translate(-135 -232.7)">
    <path id="Path_69121" data-name="Path 69121" d="M12,0A12,12,0,1,0,24,12,12.014,12.014,0,0,0,12,0Zm0,22.594A10.594,10.594,0,1,1,22.594,12,10.606,10.606,0,0,1,12,22.594Z" transform="translate(135 232.7)" fill="#36c12f"/>
    <path id="Path_69122" data-name="Path 69122" d="M155.887,291.08a5.693,5.693,0,0,1-4.859-2.753.708.708,0,0,1,1.215-.728,4.249,4.249,0,0,0,7.294-.009.708.708,0,1,1,1.217.725A5.691,5.691,0,0,1,155.887,291.08Z" transform="translate(-8.887 -40.945)" fill="#36c12f"/>
    <path id="Path_69123" data-name="Path 69123" d="M104.4,185.911a.708.708,0,1,1-1.34.459,1.676,1.676,0,0,0-3.171,0,.708.708,0,1,1-1.34-.458,3.092,3.092,0,0,1,5.851,0Z" transform="translate(41.095 56.879)" fill="#36c12f"/>
    <path id="Path_69124" data-name="Path 69124" d="M293.445,186.811a.708.708,0,0,1-.9-.441,1.676,1.676,0,0,0-3.171,0,.708.708,0,1,1-1.34-.458,3.092,3.092,0,0,1,5.851,0A.708.708,0,0,1,293.445,186.811Z" transform="translate(-139.527 56.879)" fill="#36c12f"/>
  </g>
</svg>
