<svg xmlns="http://www.w3.org/2000/svg" xmlns:xlink="http://www.w3.org/1999/xlink" width="359.674" height="354.318" viewBox="0 0 359.674 354.318">
  <defs>
    <filter id="Path_72639" x="42.39" y="45.874" width="274.576" height="274.568" filterUnits="userSpaceOnUse">
      <feOffset dy="2" input="SourceAlpha"/>
      <feGaussianBlur stdDeviation="5" result="blur"/>
      <feFlood flood-color="#372c51" flood-opacity="0.078"/>
      <feComposite operator="in" in2="blur"/>
      <feComposite in="SourceGraphic"/>
    </filter>
  </defs>
  <g id="Settings-pana" transform="translate(-24.57 -29.593)">
    <g id="freepik--background-complete--inject-2" transform="translate(24.57 89.877)">
      <path id="Path_72631" data-name="Path 72631" d="M39.794,154.12a30.561,30.561,0,0,1,6.074-5.42l-.861-7.5,11.781-4.129,3.985,6.377a30.711,30.711,0,0,1,8.13.454l4.687-5.906,11.271,5.4-1.69,7.349a30.561,30.561,0,0,1,5.428,6.066l7.493-.861,4.129,11.781-6.377,3.985a30.625,30.625,0,0,1-.446,8.122l5.906,4.695-5.412,11.247-7.349-1.682a30.289,30.289,0,0,1-6.074,5.42l.861,7.5-11.781,4.129-3.985-6.377a30.672,30.672,0,0,1-8.122-.454l-4.687,5.906L41.46,204.846l1.69-7.349a30.561,30.561,0,0,1-5.428-6.066l-7.493.861L26.1,180.511l6.377-3.985a30.289,30.289,0,0,1,.446-8.122l-5.906-4.695,5.412-11.247,7.349,1.682Zm8.186,12.713a16.842,16.842,0,1,0,22.478-7.875,16.842,16.842,0,0,0-22.478,7.875Z" transform="translate(-24.88 -108.877)" fill="#ebebeb"/>
      <path id="Path_72632" data-name="Path 72632" d="M397.653,300.242a30.287,30.287,0,0,1,5.978-5.34l-.845-7.389L414.4,283.44l3.946,6.3a30.135,30.135,0,0,1,8.011.438l4.623-5.819,11.087,5.332-1.658,7.245a30.29,30.29,0,0,1,5.34,5.978l7.389-.845,4.073,11.613-6.3,3.946a30.136,30.136,0,0,1-.438,8.011l5.819,4.623-5.3,11.087-7.277-1.674a30.29,30.29,0,0,1-5.978,5.34l.845,7.389-11.613,4.073-3.946-6.3a30.137,30.137,0,0,1-8.011-.438l-4.623,5.819-11.087-5.332,1.658-7.245a30.29,30.29,0,0,1-5.34-5.978l-7.389.845-4.073-11.613,6.3-3.946a30.138,30.138,0,0,1,.438-8.011l-5.819-4.623,5.332-11.071Zm8.066,12.53a16.6,16.6,0,1,0,22.151-7.764,16.6,16.6,0,0,0-22.151,7.764Z" transform="translate(-97.536 -138.579)" fill="#e0e0e0"/>
      <path id="Path_72633" data-name="Path 72633" d="M390.346,161.432a23.115,23.115,0,0,1,4.623-4.129l-.654-5.715,8.983-3.148,3.053,4.87a23.49,23.49,0,0,1,6.193.343l3.579-4.5,8.577,4.129-1.291,5.58a23.181,23.181,0,0,1,4.137,4.623l5.715-.654,3.148,8.983-4.878,3.053a23.163,23.163,0,0,1-.343,6.193l4.5,3.579-4.121,8.577-5.58-1.291a23.225,23.225,0,0,1-4.631,4.137l.662,5.715-8.983,3.188-3.053-4.87a23.163,23.163,0,0,1-6.193-.351l-3.579,4.5-8.577-4.121,1.283-5.58a23.363,23.363,0,0,1-4.129-4.623l-5.715.654-3.156-9.007,4.87-3.053a23.489,23.489,0,0,1,.343-6.193l-4.5-3.579,4.137-8.593Zm6.241,9.692a27.5,27.5,0,1,1,.016,0Z" transform="translate(-96.678 -111.185)" fill="#aeaeae"/>
      <path id="Path_72634" data-name="Path 72634" d="M362.808,110.436a15.558,15.558,0,0,1,3.109-2.782l-.438-3.842,6.034-2.112,2.056,3.276a15.257,15.257,0,0,1,4.161.231l2.391-3.029,5.763,2.774-.861,3.762a16.037,16.037,0,0,1,2.782,3.109l3.834-.438,2.12,6.034-3.268,2.056a15.942,15.942,0,0,1-.231,4.161l3.029,2.391-2.774,5.763-3.77-.869a15.344,15.344,0,0,1-3.109,2.782l.446,3.842-6.034,2.112-2.056-3.276a15.558,15.558,0,0,1-4.161-.231l-2.391,3.029-5.763-2.774.869-3.762a15.781,15.781,0,0,1-2.782-3.109l-3.842.438-2.112-6.034,3.26-2.072a15.256,15.256,0,0,1,.231-4.161l-3.029-2.391,2.774-5.763,3.762.869ZM367,116.948a8.624,8.624,0,1,0,4.923-4.4A8.624,8.624,0,0,0,367,116.948Z" transform="translate(-91.785 -101.7)" fill="#f5f5f5"/>
      <path id="Path_72635" data-name="Path 72635" d="M99.474,372.846a16.038,16.038,0,0,1,3.109-2.782l-.438-3.842,6.034-2.112,2.056,3.276a15.94,15.94,0,0,1,4.161.231l2.391-3.029,5.763,2.774-.869,3.77a15.343,15.343,0,0,1,2.782,3.109l3.842-.446,2.112,6.034-3.252,2.056a15.241,15.241,0,0,1-.231,4.161l3.029,2.391-2.8,5.779-3.762-.869a15.781,15.781,0,0,1-3.109,2.782l.438,3.842-6.034,2.112-2.056-3.276a15.256,15.256,0,0,1-4.161-.231L106.09,401.6l-5.771-2.774.869-3.762a15.558,15.558,0,0,1-2.782-3.109l-3.842.438-2.1-6.058,3.276-2.056a15.583,15.583,0,0,1,.231-4.161l-3.029-2.391,2.774-5.739,3.762.861Zm4.2,6.512a8.624,8.624,0,1,0,4.929-4.411,8.624,8.624,0,0,0-4.929,4.411Z" transform="translate(-73.159 -147.787)" fill="#372c51" opacity="0.59"/>
      <path id="Path_72636" data-name="Path 72636" d="M155.889,398.022a23.962,23.962,0,0,1,4.679-4.185l-.662-5.779,9.087-3.188,3.093,4.934a23.7,23.7,0,0,1,6.265.343l3.619-4.551,8.68,4.161-1.3,5.675a23.505,23.505,0,0,1,4.185,4.679l5.779-.662,3.188,9.087-4.934,3.093a23.7,23.7,0,0,1-.351,6.265l4.559,3.619-4.177,8.68-5.667-1.307a23.267,23.267,0,0,1-4.679,4.185l.662,5.787-9.087,3.188-3.093-4.926a23.7,23.7,0,0,1-6.265-.351l-3.619,4.559-8.68-4.177,1.3-5.667a24.032,24.032,0,0,1-4.185-4.687l-5.779.67-3.188-9.087,4.934-3.093a23.778,23.778,0,0,1,.351-6.273l-4.559-3.611,4.177-8.68Zm6.313,9.8a12.992,12.992,0,1,0,17.337-6.074,12.992,12.992,0,0,0-17.337,6.074Z" transform="translate(-49.073 -159.161)" fill="#372c51" opacity="0.29"/>
      <path id="Path_72637" data-name="Path 72637" d="M74.372,239.68a2.39,2.39,0,0,1-.558.183c-.375.1-.917.263-1.642.414a41.242,41.242,0,0,1-6.145.893,44,44,0,0,1-36.618-15.145,41.273,41.273,0,0,1-3.7-4.99c-.407-.614-.67-1.124-.869-1.451a3.259,3.259,0,0,1-.271-.526,2.56,2.56,0,0,1,.343.478c.223.319.51.8.933,1.411a44.939,44.939,0,0,0,40.181,19.927,47.33,47.33,0,0,0,6.13-.8c.725-.12,1.275-.271,1.65-.343a3.569,3.569,0,0,1,.566-.056Z" transform="translate(-24.57 -125.515)" fill="#e0e0e0"/>
      <path id="Path_72638" data-name="Path 72638" d="M62.117,250.515a4.112,4.112,0,0,1-.861,0,22.142,22.142,0,0,1-2.327-.167,37.354,37.354,0,0,1-7.524-1.594,38.157,38.157,0,0,1-7.03-3.125c-.853-.494-1.53-.925-1.977-1.243a3.754,3.754,0,0,1-.678-.526c.04-.064,1.068.59,2.8,1.507a44.057,44.057,0,0,0,6.99,2.981,45.241,45.241,0,0,0,7.429,1.738C60.906,250.347,62.117,250.443,62.117,250.515Z" transform="translate(-28.05 -130.546)" fill="#e0e0e0"/>
    </g>
    <g id="freepik--Gear--inject-2" transform="translate(81.816 88.323)">
      <g transform="matrix(1, 0, 0, 1, -57.25, -58.73)" filter="url(#Path_72639)">
        <path id="Path_72639-2" data-name="Path 72639" d="M166.6,135.615a100.687,100.687,0,0,1,24.542-10.665l5.053-24.295,41.05-.725,5.906,24.1a100.6,100.6,0,0,1,24.909,9.8l20.724-13.6,29.54,28.52-12.857,21.2a100.87,100.87,0,0,1,10.665,24.55l24.287,5.061.725,41.042-24.1,5.914a100.668,100.668,0,0,1-9.8,24.9l13.6,20.724-28.512,29.532-21.194-12.857a100.869,100.869,0,0,1-24.55,10.665l-5.054,24.3-41.05.717-5.906-24.1a100.288,100.288,0,0,1-24.909-9.8l-20.724,13.6L119.39,295.709l12.865-21.21a100.432,100.432,0,0,1-10.633-24.55l-24.335-5.054-.717-41.05,24.1-5.906a100.543,100.543,0,0,1,9.8-24.9l-13.6-20.724,28.512-29.532L166.6,135.639Zm12.411,48.152a55.373,55.373,0,1,0,78.305-1.379A55.373,55.373,0,0,0,179.012,183.767Z" transform="translate(-39.18 -41.06)" fill="#fff"/>
      </g>
      <path id="Path_72640" data-name="Path 72640" d="M166.6,135.615a100.687,100.687,0,0,1,24.542-10.665l5.053-24.295,41.05-.725,5.906,24.1a100.6,100.6,0,0,1,24.909,9.8l20.724-13.6,29.54,28.52-12.857,21.2a100.87,100.87,0,0,1,10.665,24.55l24.287,5.061.725,41.042-24.1,5.914a100.668,100.668,0,0,1-9.8,24.9l13.6,20.724-28.512,29.532-21.194-12.857a100.869,100.869,0,0,1-24.55,10.665l-5.054,24.3-41.05.717-5.906-24.1a100.288,100.288,0,0,1-24.909-9.8l-20.724,13.6L119.39,295.709l12.865-21.21a100.432,100.432,0,0,1-10.633-24.55l-24.335-5.054-.717-41.05,24.1-5.906a100.543,100.543,0,0,1,9.8-24.9l-13.6-20.724,28.512-29.532L166.6,135.639Zm12.411,48.152a55.373,55.373,0,1,0,78.305-1.379A55.373,55.373,0,0,0,179.012,183.767Z" transform="translate(-96.427 -99.787)" fill="none"/>
      <path id="Path_72641" data-name="Path 72641" d="M196.016,200.773s.8-.9,2.511-2.487a54.018,54.018,0,0,1,14.515-9.621,53.406,53.406,0,0,1,8.2-2.965,56.019,56.019,0,0,1,21.107-1.594,55.293,55.293,0,0,1,24.048,8.768,56.537,56.537,0,0,1,15.5,15.288,58.081,58.081,0,0,1,3.882,6.687,55.66,55.66,0,0,1,5.149,31.883,54.285,54.285,0,0,1-1.809,8.4,51.686,51.686,0,0,1-3.132,8.146,55.612,55.612,0,0,1-24.375,25.251,52.068,52.068,0,0,1-8.035,3.419,54.947,54.947,0,0,1-8.329,2.1,55.708,55.708,0,0,1-32.059-3.985,59.779,59.779,0,0,1-6.815-3.643,56.592,56.592,0,0,1-15.822-14.961,55.261,55.261,0,0,1-9.565-23.729,55.978,55.978,0,0,1,.861-21.147,53.686,53.686,0,0,1,2.678-8.369,55.206,55.206,0,0,1,3.188-6.584,54.545,54.545,0,0,1,5.906-8.266c1.53-1.746,2.391-2.6,2.391-2.6l-.6.67c-.383.454-1.012,1.076-1.738,1.977a56.759,56.759,0,0,0-5.795,8.29,54.575,54.575,0,0,0-3.188,6.576,53.829,53.829,0,0,0-2.63,8.282,55.185,55.185,0,0,0,18.468,55.07,56.328,56.328,0,0,0,6.042,4.392,58.986,58.986,0,0,0,6.775,3.611,55.453,55.453,0,0,0,40.117,1.913,52.088,52.088,0,0,0,7.971-3.4,55.229,55.229,0,0,0,24.191-25.068A51.09,51.09,0,0,0,288.748,255a54.194,54.194,0,0,0,1.793-8.337A55.381,55.381,0,0,0,285.456,215a58.39,58.39,0,0,0-3.85-6.64,54.383,54.383,0,0,0-4.6-5.89,55.314,55.314,0,0,0-34.7-18.094,55.916,55.916,0,0,0-21,1.538,52.374,52.374,0,0,0-8.186,2.925,54.839,54.839,0,0,0-14.539,9.493c-.877.757-1.475,1.411-1.913,1.809Z" transform="translate(-113.431 -116.793)" fill="#263238"/>
      <path id="Path_72642" data-name="Path 72642" d="M166.565,135.579l-21.25-12.8h.08c-7.245,7.532-16.85,17.5-28.48,29.564v-.128l13.614,20.724.04.064-.04.064a101.229,101.229,0,0,0-9.74,24.869v.08h-.08l-24.1,5.914.112-.143c.231,12.921.478,26.638.733,41.05l-.128-.159,24.255,5.069h.1v.1a100.71,100.71,0,0,0,10.657,24.5l.056.1-.056.1-12.825,21.234v-.231l29.54,28.512h-.239l20.724-13.6.1-.072.1.064a101.229,101.229,0,0,0,24.861,9.772h.12v.112c1.857,7.556,3.874,15.79,5.914,24.1l-.2-.151,41.042-.725-.2.167c1.594-7.676,3.324-15.942,5.061-24.295V319.3h.12a100.83,100.83,0,0,0,24.478-10.633h0l.112-.072.1.072,21.21,12.857H292.1l28.512-29.532v.255l-13.59-20.724-.072-.1.064-.112a100.553,100.553,0,0,0,9.852-24.869v-.12h.12l24.1-5.906-.151.2q-.367-21.019-.717-41.05l.151.183-24.3-5.093h-.112v-.1a100.227,100.227,0,0,0-10.641-24.51l-.056-.1.056-.088,12.865-21.2v.207l-29.492-28.52h.191l-20.724,13.59-.072.048-.08-.04a100.592,100.592,0,0,0-24.869-9.8h-.08v-.08c-2.136-8.768-4.065-16.651-5.89-24.1l.12.1-41.05.685.1-.072c-2.041,9.732-3.706,17.7-5.085,24.287h0a100.79,100.79,0,0,0-18.755,7.389c-1.977,1.012-3.419,1.841-4.376,2.391s-1.427.8-1.427.8l1.411-.853c.949-.558,2.391-1.395,4.36-2.391a99.229,99.229,0,0,1,18.755-7.461l-.048.048c1.363-6.6,3.013-14.563,5.03-24.3V100.5h.072l41.05-.749h.1v.1c1.825,7.445,3.77,15.336,5.922,24.1l-.1-.1a101.135,101.135,0,0,1,24.949,9.8h-.151c6.592-4.336,13.439-8.824,20.724-13.606l.112-.072.088.088,29.508,28.52.1.1-.072.12L305.6,170.013v-.183a100.773,100.773,0,0,1,10.689,24.59l-.143-.128,24.3,5.046h.151v.151q.359,20.015.733,41.05v.159h-.151l-24.1,5.914.151-.143a100.759,100.759,0,0,1-9.82,24.949v-.207q6.727,10.266,13.6,20.724l.1.136-.12.12-28.512,29.492-.112.12-.143-.088L271,308.856h.215a101.167,101.167,0,0,1-24.574,10.673l.151-.159c-1.738,8.345-3.467,16.627-5.061,24.295v.159h-.167l-41.042.717h-.167l-.04-.159c-2.033-8.314-4.057-16.547-5.906-24.1l.151.151a101.452,101.452,0,0,1-24.957-9.82h.207l-20.724,13.6-.128.08-.112-.1-29.492-28.527-.1-.1.08-.128,12.857-21.21v.191a101.03,101.03,0,0,1-10.673-24.6l.128.12-24.423-4.918h-.128v-.136c-.247-14.4-.486-28.121-.7-41.042v-.12h.12l24.1-5.9-.1.1a101.292,101.292,0,0,1,9.844-24.988v.128L116.8,152.341l-.048-.072.064-.056,28.535-29.492h.088Z" transform="translate(-96.39 -99.75)" fill="#263238"/>
    </g>
    <g id="freepik--Character--inject-2" transform="translate(144.935 65.908)">
      <path id="Path_72643" data-name="Path 72643" d="M207.65,94.45c5.037-6.171,12.955-9.462,20.863-10.394,3.358-.395,5.457.185,8.69,1.058a14.113,14.113,0,0,1,8.085,5.348,23.957,23.957,0,0,1,4.651,10.856,66.323,66.323,0,0,1,.588,12.233,22.282,22.282,0,0,1-3.812,11.485l-10.377,1.771c-5.726.193-11.536.386-17.119-.924s-11.007-4.307-14-9.235C201.076,109.923,202.612,100.612,207.65,94.45Z" transform="translate(-184.665 -83.93)" fill="#263238"/>
      <path id="Path_72644" data-name="Path 72644" d="M251,138.268a2.246,2.246,0,0,0,.621.546,5.18,5.18,0,0,0,2.133.722,5.388,5.388,0,0,0,2.779-10.293,5.079,5.079,0,0,0-2.208-.453,1.629,1.629,0,0,0-.84.159,7.8,7.8,0,0,1,2.829.688,5.374,5.374,0,0,1,2.208,2.124,5.113,5.113,0,0,1-1.788,6.616,5.423,5.423,0,0,1-2.972.722A7.791,7.791,0,0,1,251,138.268Z" transform="translate(-192.392 -91.126)" fill="#efa00b"/>
      <path id="Path_72645" data-name="Path 72645" d="M196.811,129.593a7.741,7.741,0,0,1,3.509-5.877,5.575,5.575,0,0,1,6.549.563l1.637,1.948a6.717,6.717,0,0,1,3.845,6.717,7.321,7.321,0,0,1-5.088,6,8.127,8.127,0,0,1-7.732-1.872A9.093,9.093,0,0,1,196.811,129.593Z" transform="translate(-183.691 -90.183)" fill="#263238"/>
      <path id="Path_72646" data-name="Path 72646" d="M199.095,137.087a3.459,3.459,0,0,1-.554-2.065,9.371,9.371,0,0,1,2.368-4.66A13.988,13.988,0,0,1,205.064,127c1.217-.655,2.057-.89,2.032-.974a5.7,5.7,0,0,0-2.183.646,12.526,12.526,0,0,0-4.391,3.358,12.03,12.03,0,0,0-1.679,2.519,5.625,5.625,0,0,0-.663,2.426,2.913,2.913,0,0,0,.462,1.679C198.868,136.995,199.078,137.112,199.095,137.087Z" transform="translate(-183.918 -90.684)" fill="#455a64"/>
      <path id="Path_72647" data-name="Path 72647" d="M205.153,140.357a22.691,22.691,0,0,1,.462-6.851,25.1,25.1,0,0,1,2.955-6.2,5.373,5.373,0,0,0-1.377,1.536,14.492,14.492,0,0,0-2.074,4.534,14.315,14.315,0,0,0-.411,4.962A5.491,5.491,0,0,0,205.153,140.357Z" transform="translate(-184.956 -90.889)" fill="#455a64"/>
      <path id="Path_72648" data-name="Path 72648" d="M238.351,144.389c-.067-3.644-.151-6.624-.151-6.607s8.463-.932,10.8-11.754c1.159-5.39,1.377-14.323,1.318-21.636-.05-6.591-5.659-15.557-13.786-15.582l-3.619-.42-13.828,5.5A3.845,3.845,0,0,0,215.43,97.6l-.05,47.016,13.811,34.422,8.782-15.692Z" transform="translate(-186.678 -84.645)" fill="#ffbe9d"/>
      <path id="Path_72649" data-name="Path 72649" d="M236.047,129.8a2.359,2.359,0,0,1,3.661-1.587,3.165,3.165,0,0,1,1.2,2.964h0a2.88,2.88,0,0,1-2.057,1.192,2.957,2.957,0,0,1-.386,0,2.519,2.519,0,0,1-1.738-.688,2.275,2.275,0,0,1-.68-1.881Z" transform="translate(-189.991 -90.968)" fill="#d15f5f"/>
      <path id="Path_72650" data-name="Path 72650" d="M252.654,117.333a1.4,1.4,0,0,1-1.427,1.343,1.343,1.343,0,0,1-1.377-1.343,1.4,1.4,0,0,1,1.427-1.343,1.343,1.343,0,0,1,1.377,1.343Z" transform="translate(-192.208 -89.073)" fill="#263238"/>
      <path id="Path_72651" data-name="Path 72651" d="M252.718,111.949c-.176.176-1.2-.672-2.712-.747s-2.653.613-2.8.42.118-.4.613-.73a3.82,3.82,0,0,1,2.267-.563,3.736,3.736,0,0,1,2.149.84C252.676,111.537,252.81,111.873,252.718,111.949Z" transform="translate(-191.776 -88.163)" fill="#263238"/>
      <path id="Path_72652" data-name="Path 72652" d="M242.488,123.47a10.327,10.327,0,0,1,2.477-.311c.386,0,.756-.076.84-.327a1.956,1.956,0,0,0-.193-1.159q-.462-1.436-.982-3c-1.352-4.265-2.309-7.766-2.133-7.816s1.41,3.358,2.762,7.623l.924,3.014a2.166,2.166,0,0,1,.118,1.52.949.949,0,0,1-.663.529,2.36,2.36,0,0,1-.655.059A9.8,9.8,0,0,1,242.488,123.47Z" transform="translate(-191.025 -88.25)" fill="#263238"/>
      <path id="Path_72653" data-name="Path 72653" d="M239.8,146.32a27.824,27.824,0,0,1-14.432-4.71s3.484,7.8,14.491,7.371Z" transform="translate(-188.281 -93.183)" fill="#844949"/>
      <path id="Path_72654" data-name="Path 72654" d="M237.073,126.83c.243,0,.16,1.679,1.494,2.88s3.09,1.159,3.1,1.385c0,.1-.411.294-1.15.277a4.08,4.08,0,0,1-2.586-1.066,3.543,3.543,0,0,1-1.15-2.4C236.754,127.216,236.964,126.822,237.073,126.83Z" transform="translate(-190.111 -90.812)" fill="#263238"/>
      <path id="Path_72655" data-name="Path 72655" d="M252.383,105.468c-.285.327-1.31-.084-2.519-.168s-2.326.1-2.519-.269c-.092-.185.092-.521.571-.84a3.728,3.728,0,0,1,4.114.353C252.383,104.948,252.509,105.309,252.383,105.468Z" transform="translate(-191.802 -87.107)" fill="#263238"/>
      <path id="Path_72656" data-name="Path 72656" d="M233.43,116.491a1.4,1.4,0,0,0,1.335,1.436,1.343,1.343,0,0,0,1.469-1.234,1.411,1.411,0,0,0-1.335-1.444,1.335,1.335,0,0,0-1.469,1.243Z" transform="translate(-189.573 -88.953)" fill="#263238"/>
      <path id="Path_72657" data-name="Path 72657" d="M229.146,111.346c.168.185,1.251-.588,2.762-.554s2.6.84,2.771.621-.092-.411-.571-.772a3.82,3.82,0,0,0-2.208-.73,3.745,3.745,0,0,0-2.208.672C229.222,110.934,229.062,111.262,229.146,111.346Z" transform="translate(-188.883 -88.097)" fill="#263238"/>
      <path id="Path_72658" data-name="Path 72658" d="M230.433,107.709c.26.353,1.31,0,2.561,0s2.309.269,2.519-.084c.118-.176-.05-.521-.5-.84a3.6,3.6,0,0,0-2.074-.6,3.551,3.551,0,0,0-2.032.68C230.466,107.222,230.315,107.575,230.433,107.709Z" transform="translate(-189.087 -87.501)" fill="#263238"/>
      <path id="Path_72659" data-name="Path 72659" d="M214.662,112.809l1.889,1.965c8.177-7.833,24.163-27.429,23.273-26.262a23.743,23.743,0,0,0-11.687-1.268c-6.079,1.033-17.631,4.072-17.438,11.25S214.662,112.809,214.662,112.809Z" transform="translate(-185.927 -84.423)" fill="#263238"/>
      <path id="Path_72660" data-name="Path 72660" d="M208.871,118.812a13.575,13.575,0,0,0,.076-1.73,26.334,26.334,0,0,1,.621-4.651,31.9,31.9,0,0,1,7.052-13.618A50.641,50.641,0,0,1,228.576,89c1.679-1.041,3.106-1.822,4.08-2.359a11.667,11.667,0,0,0,1.5-.84,1.334,1.334,0,0,0-.42.151c-.269.126-.672.294-1.175.546-1.007.479-2.443,1.226-4.2,2.225a47.7,47.7,0,0,0-12.157,9.789,31.014,31.014,0,0,0-7.019,13.878,23.3,23.3,0,0,0-.47,4.718c0,.563.05,1,.067,1.293a1.678,1.678,0,0,0,.084.411Z" transform="translate(-185.609 -84.23)" fill="#455a64"/>
      <path id="Path_72661" data-name="Path 72661" d="M229.118,85.24a1.5,1.5,0,0,0-.437.143c-.277.1-.688.277-1.2.512-1.041.462-2.519,1.175-4.3,2.166a64.565,64.565,0,0,0-6.037,3.82,37.224,37.224,0,0,0-6.591,5.776,16.74,16.74,0,0,0-2.519,3.837,15.74,15.74,0,0,0-1.226,4.08,24.782,24.782,0,0,0,0,7.162,46.6,46.6,0,0,0,.907,4.727c.126.554.243.974.319,1.268a1.518,1.518,0,0,0,.151.428,12.022,12.022,0,0,0-.277-1.738c-.2-1.117-.512-2.729-.739-4.735a25.5,25.5,0,0,1,.084-7.036,15.465,15.465,0,0,1,1.217-3.946,16.347,16.347,0,0,1,2.426-3.719,37.78,37.78,0,0,1,6.473-5.717,70.447,70.447,0,0,1,5.986-3.87c1.746-1.024,3.2-1.78,4.2-2.3a14.737,14.737,0,0,0,1.562-.856Z" transform="translate(-185.261 -84.14)" fill="#455a64"/>
      <path id="Path_72662" data-name="Path 72662" d="M215.24,113.1a7.4,7.4,0,0,0,.974-.949l2.519-2.7c2.107-2.284,4.987-5.474,8.152-9.009s6-6.767,8.043-9.118l2.393-2.8a7.041,7.041,0,0,0,.84-1.075,6.586,6.586,0,0,0-.965.94l-2.519,2.7c-2.107,2.292-5.037,5.474-8.152,9.017s-6.011,6.767-8.043,9.118l-2.393,2.8A6.845,6.845,0,0,0,215.24,113.1Z" transform="translate(-186.655 -84.494)" fill="#455a64"/>
      <path id="Path_72663" data-name="Path 72663" d="M215.82,120.9c0-.84-.84-2.787-1.587-2.964-2.132-.453-6.011-.487-6.347,4.962-.462,7.455,7.12,6.381,7.145,6.162S215.669,123.711,215.82,120.9Z" transform="translate(-185.472 -89.355)" fill="#ffbe9d"/>
      <path id="Path_72664" data-name="Path 72664" d="M213.876,126.434a3.515,3.515,0,0,1-.361.168,1.3,1.3,0,0,1-.965,0,3.2,3.2,0,0,1-1.31-2.972,4.2,4.2,0,0,1,.479-1.839,1.478,1.478,0,0,1,1.033-.932.672.672,0,0,1,.747.395c.084.218,0,.361.067.378s.168-.109.126-.428a.839.839,0,0,0-.26-.479.965.965,0,0,0-.714-.235,1.83,1.83,0,0,0-1.427,1.075,4.45,4.45,0,0,0-.571,2.049c-.05,1.5.638,2.955,1.679,3.358a1.411,1.411,0,0,0,1.2-.126C213.851,126.61,213.9,126.442,213.876,126.434Z" transform="translate(-185.93 -89.794)" fill="#844949"/>
      <path id="Path_72665" data-name="Path 72665" d="M213.962,139.019a2.255,2.255,0,0,1-.621.546,5.18,5.18,0,0,1-2.141.722,5.387,5.387,0,0,1-2.771-10.293,5.079,5.079,0,0,1,2.208-.453,1.481,1.481,0,0,1,.84.16,7.8,7.8,0,0,0-2.829.688,5.356,5.356,0,0,0-2.2,2.124,4.953,4.953,0,0,0-.386,3.652,5.037,5.037,0,0,0,2.174,2.964,5.357,5.357,0,0,0,2.972.722A7.875,7.875,0,0,0,213.962,139.019Z" transform="translate(-185.05 -91.247)" fill="#efa00b"/>
      <path id="Path_72666" data-name="Path 72666" d="M261.1,398.811l-2.6-22.551-20.905,5.852,5.273,21.627Z" transform="translate(-190.241 -130.827)" fill="#a8605d"/>
      <path id="Path_72667" data-name="Path 72667" d="M262.257,403l3.535,26.287,8.79,19.982a2.729,2.729,0,0,1-1.562,3.652h0a2.72,2.72,0,0,1-2.468-.327c-4.6-3.2-21.476-15.062-21.627-17-.176-2.25-5.575-27.479-5.575-27.479Z" transform="translate(-191.165 -135.117)" fill="#efa00b"/>
      <g id="Group_164042" data-name="Group 164042" transform="translate(57.508 298.737)" opacity="0.6">
        <path id="Path_72668" data-name="Path 72668" d="M274.038,458.85l-24.348-19.1.176,1.108a4.063,4.063,0,0,0,1.343,2.46c1.973,1.679,7.514,6.246,20.276,15.213a2.737,2.737,0,0,0,2.519.311Z" transform="translate(-249.69 -439.75)" fill="#fff"/>
      </g>
      <g id="Group_164043" data-name="Group 164043" transform="translate(59.317 289.326)" opacity="0.6">
        <path id="Path_72669" data-name="Path 72669" d="M254.049,428.658a1.679,1.679,0,0,1,.781,2.049,1.587,1.587,0,0,1-2.032.789,1.746,1.746,0,0,1-.84-2.174,1.679,1.679,0,0,1,2.2-.588" transform="translate(-251.845 -428.54)" fill="#fff"/>
      </g>
      <path id="Path_72670" data-name="Path 72670" d="M269.391,449.3a8.308,8.308,0,0,1,1.981-2.4,9.466,9.466,0,0,1,2.922-1.049c.008-.16-.353-.227-.982-.21a4.131,4.131,0,0,0-2.275.781,4.265,4.265,0,0,0-1.511,1.889C269.308,448.889,269.324,449.3,269.391,449.3Z" transform="translate(-195.336 -141.957)" fill="#263238"/>
      <path id="Path_72671" data-name="Path 72671" d="M272.276,453.35c.143.092.84-.89,2.149-1.494s2.519-.563,2.519-.739-1.293-.5-2.754.21S272.133,453.3,272.276,453.35Z" transform="translate(-195.802 -142.8)" fill="#263238"/>
      <path id="Path_72672" data-name="Path 72672" d="M264.418,444.5a25.412,25.412,0,0,1,3.148-2.519,38.048,38.048,0,0,1,3.744-1.52c-.025-.176-1.981-.2-4.038,1.016A6.142,6.142,0,0,0,264.418,444.5Z" transform="translate(-194.543 -141.113)" fill="#263238"/>
      <path id="Path_72673" data-name="Path 72673" d="M262.339,435.538c.1.143,1.452-.688,3.358-1.058s3.434-.143,3.467-.319-1.578-.663-3.585-.252A5.534,5.534,0,0,0,262.339,435.538Z" transform="translate(-194.211 -140.05)" fill="#263238"/>
      <path id="Path_72674" data-name="Path 72674" d="M260.879,426.374a13.017,13.017,0,0,1,3.425-1.192,15.283,15.283,0,0,1,3.61.327c.067-.16-.3-.344-.966-.6a5.7,5.7,0,0,0-2.72-.3,5.878,5.878,0,0,0-2.561.949C261.089,425.962,260.828,426.323,260.879,426.374Z" transform="translate(-193.976 -138.576)" fill="#263238"/>
      <path id="Path_72675" data-name="Path 72675" d="M263.809,422.661a2.326,2.326,0,0,0-.126-1,7.027,7.027,0,0,0-1.192-2.468,3.065,3.065,0,0,0-1.545-1.251,1.091,1.091,0,0,0-1.175.428,1.788,1.788,0,0,0-.227,1.251,3.845,3.845,0,0,0,3.879,2.989,4.458,4.458,0,0,0,3.954-2.989,1.5,1.5,0,0,0-.126-1.276,1.058,1.058,0,0,0-1.192-.386,3.753,3.753,0,0,0-1.587,1.167A7.818,7.818,0,0,0,263,421.444a2.688,2.688,0,0,0-.26.966,12.813,12.813,0,0,1,2.032-3,3.509,3.509,0,0,1,1.4-.991.588.588,0,0,1,.655.21,1.066,1.066,0,0,1,0,.84,3.971,3.971,0,0,1-3.459,2.519,3.358,3.358,0,0,1-3.358-2.519,1.251,1.251,0,0,1,.126-.84.588.588,0,0,1,.646-.252,2.821,2.821,0,0,1,1.318,1.033A10.477,10.477,0,0,1,263.809,422.661Z" transform="translate(-193.758 -137.509)" fill="#263238"/>
      <path id="Path_72676" data-name="Path 72676" d="M321.052,251.223c-18.471-3.358-56.47,5.927-56.47,5.927l-8.135-9.311H213.629l-7.439,17.446,20.284,30.225,4.744,17.807s20.066-3.174,19.218-3.073,12.871-2.846,13.7-2.955c33.465-4.567,51.315-18.672,61.289-28.646C335.6,268.418,328.1,252.5,321.052,251.223Z" transform="translate(-185.204 -110.225)" fill="#372c51"/>
      <path id="Path_72677" data-name="Path 72677" d="M239.245,318.708c-.092-.6-.361-2.225-.907-5.55-.294-1.78-.663-3.946-1.133-6.44-.243-1.243-.5-2.569-.84-3.963-.16-.7-.327-1.419-.529-2.149-.109-.361-.218-.73-.353-1.1a3.157,3.157,0,0,0-.563-1.091l-.059.269c7.959-2.829,17.9-6.557,28.5-11.032,6.523-2.771,12.669-5.575,18.084-8.488a57.545,57.545,0,0,0,7.413-4.6c2.2-1.62,4.156-3.241,5.995-4.66a32.575,32.575,0,0,1,9.4-5.508,14.182,14.182,0,0,1,1.679-.487,10.2,10.2,0,0,1,1.234-.269l.764-.134a1.073,1.073,0,0,0,.26-.067,2.122,2.122,0,0,0-.269,0l-.772.1a9.5,9.5,0,0,0-1.243.227,15.494,15.494,0,0,0-1.679.453,22.168,22.168,0,0,0-4.324,1.931,43.967,43.967,0,0,0-5.2,3.509c-1.855,1.4-3.828,3.006-6.02,4.609a59.066,59.066,0,0,1-7.4,4.542c-5.407,2.888-11.553,5.676-18.059,8.446-10.6,4.467-20.528,8.228-28.462,11.091l-.218.084.168.193a3.357,3.357,0,0,1,.487.966c.134.361.243.722.344,1.083.21.714.386,1.427.546,2.124.327,1.385.6,2.712.84,3.946.5,2.519.89,4.643,1.209,6.414s.588,3.132.764,4.1c.092.47.168.84.227,1.066S239.245,318.708,239.245,318.708Z" transform="translate(-189.755 -112.727)" fill="#455a64"/>
      <path id="Path_72678" data-name="Path 72678" d="M207.568,251.538l-.378,5.684s-4.811,9.1-5.247,17.245c-.26,4.735-.361,11.712-.4,16.724a21.216,21.216,0,0,0,3.216,11.427l12.669,11.754,7.842,28.957,10.075,35.019,20.989-5.424-3.064-73.572c-.076-10.075-4.66-21.829-10.394-34.053L240.9,249.12Z" transform="translate(-184.457 -110.431)" fill="#372c51"/>
      <path id="Path_72679" data-name="Path 72679" d="M259.14,365.159a1.619,1.619,0,0,1-.05-.311c0-.243-.042-.546-.076-.924-.05-.84-.126-2.04-.227-3.543-.176-3.132-.42-7.556-.73-13.039-.554-11.057-1.326-26.253-2.174-43.036-.269-4.2-.168-8.337-1.058-12.174a34.123,34.123,0,0,0-4.257-10.453,33.483,33.483,0,0,0-6.666-7.758,32.785,32.785,0,0,0-7.556-4.769,34.045,34.045,0,0,0-12.543-3.073,34.6,34.6,0,0,0-3.535,0l-.924.042H219a24.757,24.757,0,0,1,4.786-.277A33.583,33.583,0,0,1,236.5,268.76a32.886,32.886,0,0,1,7.69,4.769,33.582,33.582,0,0,1,6.817,7.85A34.423,34.423,0,0,1,255.37,292c.915,3.929.84,8.085,1.083,12.266.781,16.791,1.486,31.988,2,43.045.227,5.474.411,9.924.537,13.047.05,1.511.092,2.7.118,3.551v.924A1.339,1.339,0,0,1,259.14,365.159Z" transform="translate(-187.259 -113.111)" fill="#455a64"/>
      <path id="Path_72680" data-name="Path 72680" d="M249.478,326.853c-.151-.076,1.15-3.1,2.9-6.767a44.082,44.082,0,0,1,3.451-6.507c.151.067-1.15,3.106-2.9,6.767S249.629,326.929,249.478,326.853Z" transform="translate(-192.146 -120.772)" fill="#455a64"/>
      <path id="Path_72681" data-name="Path 72681" d="M232.064,317.46a9.574,9.574,0,0,1,1.478,3.148,11.156,11.156,0,0,1,.915,3.358,9.889,9.889,0,0,1-1.486-3.148A10.436,10.436,0,0,1,232.064,317.46Z" transform="translate(-189.349 -121.394)" fill="#455a64"/>
      <path id="Path_72682" data-name="Path 72682" d="M219.538,307.11a2.746,2.746,0,0,1,.076.588c0,.453.059,1.007.1,1.679.084,1.545.193,3.635.327,6.171.084,5.231,1.679,12.275,3.434,20.041s3.669,14.726,5.163,19.722c.73,2.519,1.4,4.509,1.872,5.877a18.562,18.562,0,0,1,.73,2.149,2.424,2.424,0,0,1-.277-.52c-.16-.344-.4-.84-.672-1.545-.537-1.36-1.276-3.358-2.065-5.835-1.6-4.987-3.518-11.947-5.34-19.722s-3.3-14.894-3.274-20.15c-.092-2.619-.126-4.727-.134-6.2v-1.679a1.8,1.8,0,0,1,.059-.579Z" transform="translate(-187.335 -119.734)" fill="#455a64"/>
      <path id="Path_72683" data-name="Path 72683" d="M274.03,264c.05.1-1.167.613-2.821,1.906a18.872,18.872,0,0,0-5.1,6.28,24.876,24.876,0,0,0-2.351,7.8c-.277,2.082-.294,3.4-.395,3.4a2.755,2.755,0,0,1-.1-.924,20.225,20.225,0,0,1,.076-2.519,22.055,22.055,0,0,1,2.233-8.026,17.514,17.514,0,0,1,5.39-6.347,12.728,12.728,0,0,1,2.191-1.259A2.621,2.621,0,0,1,274.03,264Z" transform="translate(-194.357 -112.818)" fill="#455a64"/>
      <path id="Path_72684" data-name="Path 72684" d="M312.185,262.048c.109.143-1.755,1.679-3.61,3.954s-2.989,4.408-3.148,4.324.756-2.368,2.678-4.71A12.671,12.671,0,0,1,312.185,262.048Z" transform="translate(-201.121 -112.503)" fill="#455a64"/>
      <path id="Path_72685" data-name="Path 72685" d="M253.656,275.982c-.1,0,0-1.494-.067-3.879a65.253,65.253,0,0,0-1.091-9.286l-1.746-9.235a24.612,24.612,0,0,1-.571-3.862,24.781,24.781,0,0,1,.991,3.77c.521,2.351,1.268,5.583,1.923,9.235a50.993,50.993,0,0,1,.924,9.378,27.54,27.54,0,0,1-.16,2.855,3.527,3.527,0,0,1-.2,1.024Z" transform="translate(-192.261 -110.527)" fill="#455a64"/>
      <path id="Path_72686" data-name="Path 72686" d="M254,251.419a.675.675,0,0,1,.386-.227,1.805,1.805,0,0,1,1.2.16,1.772,1.772,0,0,1,.974,1.562,2,2,0,0,1-1.293,1.855,1.872,1.872,0,0,1-2.133-.722,1.729,1.729,0,0,1-.117-1.839,1.679,1.679,0,0,1,.915-.8c.277-.092.437-.059.445,0a2.151,2.151,0,0,0-.974,1.007,1.36,1.36,0,0,0,1.679,1.8,1.461,1.461,0,0,0,.924-1.285,1.31,1.31,0,0,0-.621-1.175,2.569,2.569,0,0,0-1.385-.336Z" transform="translate(-192.683 -110.757)" fill="#455a64"/>
      <path id="Path_72687" data-name="Path 72687" d="M257,158.15s13.626,4.794,15.112,13.316,8.463,39.141,8.463,39.141l41.139,5.331-4.786,11.124s-46.277,2.342-48.435,0S257,158.15,257,158.15Z" transform="translate(-193.355 -95.837)" fill="#efa00b"/>
      <path id="Path_72688" data-name="Path 72688" d="M205.526,236.587a70.26,70.26,0,0,1,2.292-8.673l-6.893-52.146L196.14,158.4l15.415-4.2c5.659,8.706,22.274,9.412,24.675,0l11.007,3.316s16.2,29.326,15.448,39.569c-.84,11.233,2.745,29.385,2.745,29.385s.395,5.986-3.761,8.79Z" transform="translate(-183.591 -95.203)" fill="#efa00b"/>
      <path id="Path_72689" data-name="Path 72689" d="M193.742,159.17s-8.673,4.508-10.721,13.022c-1.478,6.129-3.241,44.262,0,50.886s5.785,10.839,12.77,12.023,49.988-.579,49.988-.579l2.309-16.607-45.916-6.834s-1.15-34.162-1.679-36.53" transform="translate(-181.193 -96)" fill="#efa00b"/>
      <path id="Path_72690" data-name="Path 72690" d="M214.437,153.51s-.747-3.535,0-3.862,24.927.663,25.095,1.486a24.418,24.418,0,0,1,0,3.56s-2.645,6.532-8.723,6.994S214.756,155.869,214.437,153.51Z" transform="translate(-186.473 -94.462)" fill="#efa00b"/>
      <path id="Path_72691" data-name="Path 72691" d="M265.831,231.5l11.956-.84,5.734,3.887,4.937,6.649a1.679,1.679,0,0,1-2.065.563l1.839,2.225a1.629,1.629,0,0,1-2.292.672l1.133,1.755a2.964,2.964,0,0,1-3.434-1.2,44.506,44.506,0,0,0-3.837-4.744l-4.374-1.452,4.265,4.24,2.368,3.761s-.428,1.184-1.293.638a28.313,28.313,0,0,1-3.249-3.5l-5.037-3.207s-3.56,1.612-4.668,1.629-4.693-2.275-4.693-2.275l-3.409,2.258.915-11.9Z" transform="translate(-193.79 -107.469)" fill="#ffbe9d"/>
      <path id="Path_72692" data-name="Path 72692" d="M291.7,244.454a10.671,10.671,0,0,1-1.461-1.679c-.84-1.083-2.015-2.594-3.274-4.29l-1.2-1.62.059.05c-1.377-.84-2.569-1.587-3.4-2.132a6.843,6.843,0,0,1-1.293-.932,6.891,6.891,0,0,1,1.427.7c.84.479,2.091,1.175,3.493,2h0l1.217,1.62c1.259,1.679,2.376,3.232,3.165,4.366a10.689,10.689,0,0,1,1.268,1.923Z" transform="translate(-197.226 -107.981)" fill="#844949"/>
      <path id="Path_72693" data-name="Path 72693" d="M290.179,247.07a9.631,9.631,0,0,1-1.276-1.578c-.739-1.007-1.746-2.418-2.829-4l-1.066-1.578.084.076a33.847,33.847,0,0,1-4.441-2.342,34.932,34.932,0,0,1,4.626,1.956h.05v.05l1.083,1.562c1.083,1.57,2.04,3.014,2.72,4.072a8.808,8.808,0,0,1,1.049,1.78Z" transform="translate(-197.149 -108.591)" fill="#844949"/>
      <path id="Path_72694" data-name="Path 72694" d="M206.549,238.251a.629.629,0,0,1,.2,0h.621l2.393-.067,9.017-.185,31.618-.529-.193.185c.42-5.205.882-10.864,1.36-16.791l.185.235-11.057-1.679L205.835,214.2h-.168v-.176a224.693,224.693,0,0,0-.445-26.5c-.252-3.2-.529-5.7-.722-7.405-.1-.84-.176-1.486-.227-1.948a1.256,1.256,0,0,0-.059-.5c-.059-.126,0-.168,0-.168v.16c0,.109.05.294.084.5.067.453.16,1.108.285,1.939.227,1.679.537,4.2.84,7.405a212.6,212.6,0,0,1,.621,26.514l-.16-.193,34.867,5.163,11.057,1.679H252v.2c-.487,5.877-.957,11.561-1.394,16.791v.176h-.185l-31.627.369-9.017.076h-3.232Z" transform="translate(-184.883 -98.941)" fill="#263238"/>
      <path id="Path_72695" data-name="Path 72695" d="M239.558,151.43a5.365,5.365,0,0,1,.109,1.2c0,.386,0,.84,0,1.419a5.038,5.038,0,0,1-.369,1.881,3.946,3.946,0,0,1-2.023,1.184,23.685,23.685,0,0,1-2.561.537,34.649,34.649,0,0,1-5.944.462,36.941,36.941,0,0,1-10.7-1.679,9.235,9.235,0,0,1-2.964-1.427,4.435,4.435,0,0,1-.655-.613.906.906,0,0,1-.185-.26,7.057,7.057,0,0,0,.94.739,10.076,10.076,0,0,0,2.955,1.268,40.359,40.359,0,0,0,10.6,1.511,36.935,36.935,0,0,0,5.877-.42,24.34,24.34,0,0,0,2.519-.5,5.039,5.039,0,0,0,1.066-.4,3.064,3.064,0,0,0,.453-.269,1.125,1.125,0,0,0,.336-.319,5.189,5.189,0,0,0,.395-1.746c.05-.537.076-1.007.092-1.394A8.034,8.034,0,0,1,239.558,151.43Z" transform="translate(-186.5 -94.759)" fill="#263238"/>
      <path id="Path_72696" data-name="Path 72696" d="M218.95,156.119a4.912,4.912,0,0,1-1.243-3.073,4.853,4.853,0,0,1,.6-3.266,18.615,18.615,0,0,0-.168,3.224,19.25,19.25,0,0,0,.806,3.115Z" transform="translate(-187.04 -94.494)" fill="#263238"/>
      <path id="Path_72697" data-name="Path 72697" d="M225.028,149.81c.134,0-.151,1.679-.092,3.686s.411,3.652.285,3.686a11.175,11.175,0,0,1-.193-7.371Z" transform="translate(-188.14 -94.499)" fill="#263238"/>
      <path id="Path_72698" data-name="Path 72698" d="M232.57,157.6a15.851,15.851,0,0,1-.168-3.661,16.111,16.111,0,0,1,.269-3.652,14.811,14.811,0,0,1,.168,3.661,15.489,15.489,0,0,1-.269,3.652Z" transform="translate(-189.403 -94.576)" fill="#263238"/>
      <path id="Path_72699" data-name="Path 72699" d="M240.613,151a6.717,6.717,0,0,1,.16,3.258,6.607,6.607,0,0,1-1.066,3.081c-.126-.05.386-1.4.63-3.14S240.479,151,240.613,151Z" transform="translate(-190.577 -94.69)" fill="#263238"/>
      <path id="Path_72700" data-name="Path 72700" d="M265.554,207.887a6.125,6.125,0,0,1,.092-1.175c.092-.756.26-1.839.453-3.174a38.452,38.452,0,0,0,.462-10.495,61.578,61.578,0,0,0-2.183-10.3c-.353-1.243-.646-2.275-.882-3.09a7.08,7.08,0,0,1-.277-1.142,5.441,5.441,0,0,1,.437,1.091c.252.714.613,1.755,1.016,3.048A52.976,52.976,0,0,1,267,193a35.327,35.327,0,0,1-.588,10.587c-.243,1.268-.437,2.326-.6,3.148A5.879,5.879,0,0,1,265.554,207.887Z" transform="translate(-194.353 -99.103)" fill="#263238"/>
      <path id="Path_72701" data-name="Path 72701" d="M324.771,209.235l-16.657,36.849a5.449,5.449,0,0,1-4.458,2.779l-76.846-.1h0a3.249,3.249,0,0,1,3.165-2.871l29.158-.646,14.928-35.816a3.081,3.081,0,0,1,2.821-1.906l46.546-.353a1.461,1.461,0,0,1,1.343,2.065Z" transform="translate(-188.512 -103.701)" fill="#e0e0e0"/>
      <path id="Path_72702" data-name="Path 72702" d="M324.726,209.229a1.007,1.007,0,0,0,.134-.428,1.453,1.453,0,0,0-.411-1.234,1.427,1.427,0,0,0-.89-.437h-4.147l-19.159.076-13.433.076h-9.529a3.627,3.627,0,0,0-2.023.428,3.358,3.358,0,0,0-1.4,1.6c-.269.63-.529,1.268-.8,1.906-4.282,10.251-9.051,21.661-14.155,33.894l.2-.143-15.759.344-8.211.176-4.2.092h-1.058a3.493,3.493,0,0,0-3.358,3.081v.26h.269l47.856.05h29.175a4.954,4.954,0,0,0,1.167-.227,5.466,5.466,0,0,0,3.358-2.9c.588-1.327,1.175-2.628,1.746-3.887,4.534-10.117,8.211-18.3,10.755-23.978l2.9-6.515.739-1.679c.168-.386.243-.588.243-.588l-.285.571c-.185.386-.445.949-.781,1.679-.688,1.494-1.679,3.677-2.981,6.482L309.774,241.83l-1.763,3.879a5.079,5.079,0,0,1-3.174,2.712,6.432,6.432,0,0,1-2.216.21h-7.153l-20.863-.05-47.856-.084.235.26a3.115,3.115,0,0,1,.453-1.276,3.073,3.073,0,0,1,1.5-1.2,3.022,3.022,0,0,1,.949-.185h1.049l4.2-.092,8.211-.176,15.767-.353h.143l.059-.134c5.088-12.241,9.84-23.668,14.1-33.919.269-.638.529-1.276.8-1.906a2.888,2.888,0,0,1,1.234-1.41,3.358,3.358,0,0,1,1.839-.395h1.973l7.556-.067,13.433-.126L319.4,207.3l2.964-.042h1.175a1.368,1.368,0,0,1,.84.4,1.461,1.461,0,0,1,.437,1.175,2.988,2.988,0,0,1-.092.395Z" transform="translate(-188.467 -103.694)" fill="#263238"/>
      <path id="Path_72703" data-name="Path 72703" d="M267,249.251a1.679,1.679,0,0,0,.227-.4c.151-.319.327-.714.554-1.192.487-1.108,1.15-2.594,1.948-4.408,1.629-3.736,3.828-8.916,6.2-14.659s4.5-10.982,5.927-14.776c.722-1.906,1.3-3.451,1.679-4.525.168-.5.3-.907.42-1.243a1.682,1.682,0,0,0,.118-.445,1.367,1.367,0,0,0-.21.411l-.5,1.209-1.814,4.467c-1.578,3.828-3.7,9.009-6.045,14.726s-4.5,10.914-6.078,14.709c-.739,1.839-1.352,3.358-1.814,4.475l-.47,1.226a1.618,1.618,0,0,0-.143.428Z" transform="translate(-194.959 -103.77)" fill="#455a64"/>
      <path id="Path_72704" data-name="Path 72704" d="M302.91,230.454a2.376,2.376,0,1,0,.693-1.686A2.384,2.384,0,0,0,302.91,230.454Z" transform="translate(-200.72 -107.054)" fill="#fff"/>
      <path id="Path_72705" data-name="Path 72705" d="M330.572,234.843a12.744,12.744,0,0,0,3.216-1.033,2.208,2.208,0,0,0,.924-2.057l-.176-.588s1.973-1.679,1.679-3.1c0,0,1.923-1.6,1.268-3.106,0,0,1.763-1.108,1.175-2.191a4.064,4.064,0,0,0-3.073-1.763c-.932-.042-3.887-.672-4.147-.218,0,0-.722,1.2-.118,1.679l.9.714s-2.636-.638-3.031-.118-.84,1.679.2,2.2c0,0-1.049.168-1.058.84s.067,1.461.756,1.679a11.343,11.343,0,0,1,1.343.537s-1.091-.151-1.108.42-.277,1.033.411,1.679,1.923,2.023,1.923,2.023Z" transform="translate(-204.798 -105.859)" fill="#ffbe9d"/>
      <path id="Path_72706" data-name="Path 72706" d="M330.94,229.865a3.892,3.892,0,0,1,.781.109,4.332,4.332,0,0,1,1.679.705,4.2,4.2,0,0,1,1.226,1.377c.235.42.327.714.361.705a1.722,1.722,0,0,0-.21-.781,3.846,3.846,0,0,0-1.243-1.486,3.753,3.753,0,0,0-1.822-.68,1.587,1.587,0,0,0-.772.05Z" transform="translate(-205.217 -107.329)" fill="#844949"/>
      <path id="Path_72707" data-name="Path 72707" d="M336.541,228.828a3.41,3.41,0,0,0-.84-.722,10.075,10.075,0,0,0-2.3-1.234,10.452,10.452,0,0,0-2.569-.63,3.829,3.829,0,0,0-1.091,0,18.846,18.846,0,0,1,3.577.84A17.941,17.941,0,0,1,336.541,228.828Z" transform="translate(-205.024 -106.754)" fill="#844949"/>
      <path id="Path_72708" data-name="Path 72708" d="M338.275,225.383a11.234,11.234,0,0,0-5.314-1.763c0,.067,1.234.277,2.7.764S338.241,225.442,338.275,225.383Z" transform="translate(-205.541 -106.34)" fill="#844949"/>
    </g>
    <g id="freepik--Screen--inject-2" transform="translate(249.101 36.692)">
      <path id="Path_72709" data-name="Path 72709" d="M356.115,43.82H293.68v91.927h6.034l5.492,10.753,7.014-10.753h43.9Z" transform="translate(-293.465 -43.637)" fill="#fafafa"/>
      <path id="Path_72710" data-name="Path 72710" d="M356.052,43.773v6.648c0,4.36,0,10.721.048,18.787,0,16.189.056,39.184.1,66.492v.183H312.157l.175-.088-7.022,10.753-.191.3-.167-.319c-1.714-3.372-3.555-6.966-5.4-10.593l-.088-.167.191.12H293.41v-.207c0-34.777,0-66.66.048-91.927V43.59h.159l45.585.088,12.5.04h-.072l-12.53.048-45.481.08.167-.159c0,25.267,0,57.151.04,91.927l-.207-.207h6.161l.056.112.08.159,5.412,10.593h-.359c2.391-3.7,4.782-7.349,7.022-10.753l.056-.1h44.007l-.191.191c.04-27.26.072-50.216.1-66.365,0-8.09.04-14.467.048-18.835V44.124C356,43.821,356.052,43.773,356.052,43.773Z" transform="translate(-293.41 -43.59)" fill="#263238"/>
      <rect id="Rectangle_148678" data-name="Rectangle 148678" width="3.603" height="60.873" rx="1.801" transform="translate(15.782 16.133)" fill="#e0e0e0"/>
      <path id="Path_72711" data-name="Path 72711" d="M315.088,124.655a1.825,1.825,0,0,0,1.132-.486c.741-.566.438-1.929.486-3.491,0-3.188-.04-7.819-.064-13.55s0-12.49-.048-20.023V65.863a2.8,2.8,0,0,0-.048-.749,1.522,1.522,0,0,0-.335-.622,1.546,1.546,0,0,0-1.307-.5,1.491,1.491,0,0,0-1.22.638,1.475,1.475,0,0,0-.263.654V87.344c0,7.532,0,14.347-.04,20.023s-.048,10.3-.064,13.5v2.12a1.674,1.674,0,0,0,.654,1.3,1.746,1.746,0,0,0,.861.343h.327a1.476,1.476,0,0,1-.327,0,1.634,1.634,0,0,1-.909-.319,1.73,1.73,0,0,1-.725-1.363v-2.12c0-3.188-.04-7.811-.064-13.5s0-12.49-.048-20.023V66.03a7.664,7.664,0,0,1,0-.837,1.826,1.826,0,0,1,.335-.8,1.929,1.929,0,0,1,1.594-.8,2.009,2.009,0,0,1,1.594.638,1.842,1.842,0,0,1,.422.8,3.189,3.189,0,0,1,.064.853V87.161c0,7.532,0,14.347-.048,20.023s-.048,10.3-.064,13.55v2.112a1.809,1.809,0,0,1-.574,1.435,1.522,1.522,0,0,1-1.323.375Z" transform="translate(-297.401 -47.649)" fill="#263238"/>
      <rect id="Rectangle_148679" data-name="Rectangle 148679" width="3.603" height="60.873" rx="1.801" transform="translate(29.635 16.133)" fill="#e0e0e0"/>
      <path id="Path_72712" data-name="Path 72712" d="M332.5,124.661a1.817,1.817,0,0,0,1.132-.486c.741-.566.446-1.929.486-3.491,0-3.188,0-7.819-.064-13.55s0-12.49-.048-20.023V65.877a2.8,2.8,0,0,0-.048-.749,1.419,1.419,0,0,0-.327-.622,1.594,1.594,0,0,0-1.307-.5,1.506,1.506,0,0,0-1.228.638,1.459,1.459,0,0,0-.255.654V87.366c0,7.532,0,14.347-.048,20.023s-.048,10.3-.064,13.5v2.12a1.65,1.65,0,0,0,.654,1.3,1.722,1.722,0,0,0,.853.343h.327a1.476,1.476,0,0,1-.327,0,1.658,1.658,0,0,1-.909-.319,1.754,1.754,0,0,1-.725-1.363v-2.12c0-3.188-.04-7.811-.072-13.5s0-12.49,0-20.023v-22.1a2.017,2.017,0,0,1,.335-.8,1.945,1.945,0,0,1,1.594-.8,1.977,1.977,0,0,1,1.594.638,1.945,1.945,0,0,1,.43.8,3.188,3.188,0,0,1,.056.853v41.257c0,5.675-.048,10.3-.064,13.55v2.112a1.753,1.753,0,0,1-.574,1.435A1.514,1.514,0,0,1,332.5,124.661Z" transform="translate(-300.939 -47.655)" fill="#263238"/>
      <rect id="Rectangle_148680" data-name="Rectangle 148680" width="3.603" height="60.873" rx="1.801" transform="translate(43.481 16.133)" fill="#e0e0e0"/>
      <path id="Path_72713" data-name="Path 72713" d="M349.838,124.655a1.825,1.825,0,0,0,1.132-.486c.741-.566.438-1.929.486-3.491,0-3.188-.04-7.819-.064-13.55s0-12.49-.048-20.023V65.863a2.8,2.8,0,0,0-.048-.749,1.523,1.523,0,0,0-.335-.622,1.546,1.546,0,0,0-1.307-.5,1.491,1.491,0,0,0-1.22.638,1.474,1.474,0,0,0-.263.654V87.344c0,7.532,0,14.347-.04,20.023s-.056,10.3-.064,13.5v2.12a1.674,1.674,0,0,0,.654,1.3,1.746,1.746,0,0,0,.861.343h.327a1.477,1.477,0,0,1-.327,0,1.634,1.634,0,0,1-.909-.319,1.73,1.73,0,0,1-.725-1.363v-2.12c0-3.188-.04-7.811-.064-13.5s0-12.49-.048-20.023V66.03a7.626,7.626,0,0,1,0-.837,1.825,1.825,0,0,1,.335-.8,1.929,1.929,0,0,1,1.594-.8,2.009,2.009,0,0,1,1.594.638,1.842,1.842,0,0,1,.422.8,3.594,3.594,0,0,1,.064.853V87.161c0,7.532,0,14.347-.048,20.023s-.048,10.3-.064,13.55v2.112a1.81,1.81,0,0,1-.574,1.435,1.522,1.522,0,0,1-1.323.375Z" transform="translate(-304.452 -47.649)" fill="#263238"/>
      <rect id="Rectangle_148681" data-name="Rectangle 148681" width="7.66" height="6.998" rx="3.499" transform="translate(13.192 37.662)" fill="#efa00b"/>
      <rect id="Rectangle_148682" data-name="Rectangle 148682" width="7.66" height="6.998" rx="3.499" transform="translate(27.946 50.862)" fill="#efa00b"/>
      <rect id="Rectangle_148683" data-name="Rectangle 148683" width="7.66" height="6.998" rx="3.499" transform="translate(41.297 25.985)" fill="#efa00b"/>
    </g>
    <g id="freepik--speech-bubble--inject-2" transform="translate(81.816 29.593)">
      <path id="Path_72714" data-name="Path 72714" d="M179.943,70.251A29.189,29.189,0,1,0,167.787,95.04h0l10.585,3.906L174.722,88a29.006,29.006,0,0,0,5.221-17.751Z" transform="translate(-121.414 -41.987)" fill="#fafafa"/>
      <path id="Path_72715" data-name="Path 72715" d="M179.9,70.215a3.112,3.112,0,0,1,0,.319v.949a30.585,30.585,0,0,1-.222,3.675,29.061,29.061,0,0,1-4.951,12.888v-.112l3.738,10.936.1.295-.287-.1-10.593-3.89h-.088v-.088h0l.263.1a29.221,29.221,0,0,1-11.5,4.974,30.167,30.167,0,0,1-3.316.454c-1.124.1-2.272.056-3.419.048h-.869l-.861-.1-1.746-.2c-.582-.08-1.148-.239-1.73-.351a11.972,11.972,0,0,1-1.738-.414,29.788,29.788,0,0,1-3.4-1.22c-.558-.247-1.124-.478-1.674-.741l-1.594-.9-.8-.454-.8-.534L132.872,94.6l-1.435-1.188-.725-.614-.662-.678c-.446-.454-.893-.9-1.331-1.363l-1.2-1.5a7.985,7.985,0,0,1-.6-.8l-.534-.8c-.351-.55-.733-1.076-1.052-1.594a30.645,30.645,0,0,1-1.722-3.523c-.231-.614-.526-1.2-.709-1.841s-.375-1.267-.566-1.9a29.436,29.436,0,0,1,1.594-19.473,29.779,29.779,0,0,1,5.117-7.891,31.2,31.2,0,0,1,7.062-5.643,30.584,30.584,0,0,1,7.971-3.125l2.048-.383a19.712,19.712,0,0,1,2.041-.223A28.936,28.936,0,0,1,174.631,54.48c.47.749.98,1.443,1.379,2.16l1.188,2.088c.311.685.566,1.371.8,2.009.12.319.271.63.367.941s.183.622.263.925c.175.59.343,1.156.494,1.69l.287,1.514c.088.47.167.909.239,1.307s.064.8.1,1.092c.048.646.08,1.132.1,1.483a2.669,2.669,0,0,1,0,.51,2.936,2.936,0,0,0-.064-.5c-.064-.327-.088-.845-.151-1.483a8.208,8.208,0,0,0-.112-1.084c-.056-.4-.167-.8-.255-1.3l-.247-1.522c-.159-.526-.327-1.084-.51-1.674-.088-.3-.183-.606-.279-.917s-.239-.614-.367-.933c-.271-.63-.526-1.307-.845-1.993l-1.1-2.072c-.407-.709-.909-1.395-1.387-2.136a28.958,28.958,0,0,0-22.318-12.291,29.9,29.9,0,0,0-3.985.1,19.259,19.259,0,0,0-2.017.223L144.191,43a29.643,29.643,0,0,0-7.907,3.1,31.174,31.174,0,0,0-6.966,5.58,29.436,29.436,0,0,0-5.053,7.843,29.03,29.03,0,0,0-1.594,19.194c.183.63.367,1.251.558,1.881s.47,1.2.7,1.809a29.134,29.134,0,0,0,1.754,3.419c.319.55.693,1.068,1.036,1.594l.526.8c.175.255.391.494.582.741l1.2,1.475c.438.454.869.909,1.307,1.355l.654.67.717.606,1.419,1.2,1.506,1.132.749.526.8.446,1.594.893c.542.255,1.1.486,1.642.733a29.077,29.077,0,0,0,3.356,1.2c.558.2,1.14.271,1.714.414a14.361,14.361,0,0,0,1.706.343l1.722.2.853.1h.853c1.132,0,2.264.064,3.372,0a31.157,31.157,0,0,0,3.276-.438,28.966,28.966,0,0,0,11.382-4.894l.2-.143.064.239h0l-.1-.12,10.577,3.93-.2.183-3.619-10.952V87.95A29.237,29.237,0,0,0,179.581,75.2a33,33,0,0,0,.279-3.667v-.949A1.427,1.427,0,0,1,179.9,70.215Z" transform="translate(-121.371 -41.951)" fill="#263238"/>
      <path id="Path_72716" data-name="Path 72716" d="M143.274,57.97,146.59,60.7l.6,2.136,10,10.792-1.1,1.06-9.74-10.777-2.128-.941-2.543-3.491Z" transform="translate(-125.492 -45.202)" fill="#e0e0e0"/>
      <path id="Path_72717" data-name="Path 72717" d="M143.25,58a5.406,5.406,0,0,1-.4.438l-1.14,1.156v-.112L144.3,62.9l-.064-.048,2.136.917h0l9.565,10.521.207.223h-.295l1.2-1.028v.287c-3.9-4.232-7.381-8.027-9.956-10.832h0c-.215-.8-.407-1.5-.574-2.144l.04.056-2.391-2.041-.638-.566a1.889,1.889,0,0,1-.223-.215,9.19,9.19,0,0,1,.885.654l2.511,1.985h0c.183.646.391,1.347.614,2.128v-.056l10.051,10.745.143.151-.151.136-1.1,1.068-.151.143-.143-.159-.207-.223-9.557-10.569.056.04-2.12-.956h-.04l-2.495-3.523-.048-.064.056-.056,1.235-1.108a3.237,3.237,0,0,1,.4-.367Z" transform="translate(-125.468 -45.208)" fill="#263238"/>
      <path id="Path_72718" data-name="Path 72718" d="M160.479,73.856l1.02,1.092a.925.925,0,0,0,.136.98,1.283,1.283,0,0,0,1.036.271l10.067,11.071a2.694,2.694,0,0,1-.215,3.826l-.6.534a2.7,2.7,0,0,1-3.762-.2l-10.091-11a.949.949,0,0,0-.343-1.028,1.036,1.036,0,0,0-.925-.2l-.949-1.084a1,1,0,0,1,.072-1.395l3.18-2.909A1,1,0,0,1,160.479,73.856Z" transform="translate(-128.318 -48.366)" fill="#efa00b"/>
      <g id="Group_164044" data-name="Group 164044" transform="translate(33.828 29.117)" opacity="0.3">
        <path id="Path_72719" data-name="Path 72719" d="M173.335,89.584l-9.374-10.235a.5.5,0,0,1,0-.717h0a.5.5,0,0,1,.717,0l9.39,10.234a.51.51,0,0,1,0,.717h0a.5.5,0,0,1-.733,0Z" transform="translate(-163.811 -78.481)"/>
      </g>
      <g id="Group_164045" data-name="Group 164045" transform="translate(32.461 30.361)" opacity="0.3">
        <path id="Path_72720" data-name="Path 72720" d="M171.632,91.167,162.243,80.9a.5.5,0,0,1,0-.709h0a.5.5,0,0,1,.717,0l9.421,10.266a.494.494,0,0,1,0,.709h0a.51.51,0,0,1-.749,0Z" transform="translate(-162.096 -80.041)"/>
      </g>
      <g id="Group_164046" data-name="Group 164046" transform="translate(31.006 31.687)" opacity="0.3">
        <path id="Path_72721" data-name="Path 72721" d="M169.819,92.8l-9.4-10.234a.5.5,0,0,1,0-.717h0a.51.51,0,0,1,.717,0l9.39,10.234a.51.51,0,0,1,0,.717h0A.5.5,0,0,1,169.819,92.8Z" transform="translate(-160.271 -81.705)"/>
      </g>
      <path id="Path_72722" data-name="Path 72722" d="M161.8,75.3s-1.036.972-2.335,2.144-2.391,2.112-2.391,2.1,1.036-.972,2.335-2.144S161.8,75.284,161.8,75.3Z" transform="translate(-128.615 -48.718)" fill="#263238"/>
      <path id="Path_72723" data-name="Path 72723" d="M163.321,76.88s-1.012.972-2.3,2.136-2.327,2.1-2.335,2.088,1.044-.941,2.288-2.136S163.305,76.872,163.321,76.88Z" transform="translate(-128.944 -49.039)" fill="#263238"/>
      <path id="Path_72724" data-name="Path 72724" d="M159.025,81.133a2.214,2.214,0,0,1-.12-.215,1.674,1.674,0,0,0-.375-.462,1.794,1.794,0,0,0-.5-.311,1.466,1.466,0,0,1-.239-.088.725.725,0,0,1,.255,0,1.594,1.594,0,0,1,.534.311,1.475,1.475,0,0,1,.375.486.59.59,0,0,1,.072.279Z" transform="translate(-128.761 -49.681)" fill="#263238"/>
      <path id="Path_72725" data-name="Path 72725" d="M159.588,80.544s-.207-.263-.494-.558-.542-.51-.534-.526a2.28,2.28,0,0,1,.582.478A2.08,2.08,0,0,1,159.588,80.544Z" transform="translate(-128.917 -49.562)" fill="#263238"/>
      <path id="Path_72726" data-name="Path 72726" d="M160.14,80.106a4.17,4.17,0,0,1-.534-.55,3.986,3.986,0,0,1-.486-.606,3.986,3.986,0,0,1,.534.558A4.211,4.211,0,0,1,160.14,80.106Z" transform="translate(-129.031 -49.459)" fill="#263238"/>
      <path id="Path_72727" data-name="Path 72727" d="M160.8,79.47a3.028,3.028,0,0,1-.55-.518,4.287,4.287,0,0,1-.486-.582,4.662,4.662,0,0,1,.534.534,4.4,4.4,0,0,1,.5.566Z" transform="translate(-129.161 -49.341)" fill="#263238"/>
      <path id="Path_72728" data-name="Path 72728" d="M161.357,78.892a1.427,1.427,0,0,1-.566-.43,1.459,1.459,0,0,1-.351-.622,3.266,3.266,0,0,0,.406.574,4.694,4.694,0,0,0,.51.478Z" transform="translate(-129.299 -49.234)" fill="#263238"/>
      <path id="Path_72729" data-name="Path 72729" d="M162.2,78.3a1.875,1.875,0,0,1-1.06-1.14,6.279,6.279,0,0,0,.462.638A4.567,4.567,0,0,0,162.2,78.3Z" transform="translate(-129.441 -49.096)" fill="#263238"/>
      <path id="Path_72730" data-name="Path 72730" d="M162.567,77.536a.949.949,0,0,1-.51-.375,1.02,1.02,0,0,1-.247-.582,3.474,3.474,0,0,0,.3.542A3.188,3.188,0,0,0,162.567,77.536Z" transform="translate(-129.577 -48.978)" fill="#263238"/>
      <path id="Path_72731" data-name="Path 72731" d="M163.611,77.176a.534.534,0,0,1-.263,0,1.3,1.3,0,0,1-.566-.271,1.26,1.26,0,0,1-.367-.51.606.606,0,0,1-.056-.255.46.46,0,0,0,.1.239,1.4,1.4,0,0,0,.407.446,1.387,1.387,0,0,0,.534.279Z" transform="translate(-129.688 -48.889)" fill="#263238"/>
      <path id="Path_72732" data-name="Path 72732" d="M176.36,60.6l-.295-.327-3.786,3.93-3.451-3.459,3.643-3.778-.295-.327a6.8,6.8,0,0,0-6.058,2.391,6.2,6.2,0,0,0-1.06,5.747L161,68.816l3.507,3.292,4.065-3.985s3.794,1.164,6.225-1.514A7.7,7.7,0,0,0,176.36,60.6Z" transform="translate(-129.412 -44.92)" fill="#263238"/>
      <path id="Path_72733" data-name="Path 72733" d="M153.412,82.546,149.9,79.27l-4.535,4.5s-4.161-.8-6.225,1.506a7.875,7.875,0,0,0-1.9,5.58c0,.271.343.359.343.359l4.081-3.595,3.451,3.451-3.985,3.451.335.327a6.257,6.257,0,0,0,6.377-2.025,6.174,6.174,0,0,0,1.068-5.739Z" transform="translate(-124.59 -49.524)" fill="#263238"/>
      <path id="Path_72734" data-name="Path 72734" d="M175.982,60.232l-4.073,3.6-3.459-3.459,3.627-3.778a6.095,6.095,0,0,0-7.437,7.772L160.59,68.45l3.507,3.292,4.065-3.985s3.794,1.164,6.225-1.514A7.632,7.632,0,0,0,175.982,60.232Z" transform="translate(-129.329 -44.881)" fill="#455a64"/>
      <path id="Path_72735" data-name="Path 72735" d="M153.031,82.166l-3.5-3.276-4.551,4.472s-4.169-.8-6.225,1.514a7.293,7.293,0,0,0-1.594,5.978l4.081-3.6,3.451,3.451-3.643,3.778a6.265,6.265,0,0,0,6.377-2.017,6.2,6.2,0,0,0,1.06-5.747Z" transform="translate(-124.552 -49.447)" fill="#455a64"/>
    </g>
  </g>
</svg>
