    <svg id="Uplod" xmlns="http://www.w3.org/2000/svg" width="44.158" height="32.131" viewBox="0 0 44.158 32.131">
  <g id="Group_18878" data-name="Group 18878">
    <path id="Path_55162" data-name="Path 55162" d="M34.5,98.781H25.03V89.207H28.16a.979.979,0,0,0,.794-1.552l-6.09-8.427a.971.971,0,0,0-1.579,0l-6.09,8.427a.977.977,0,0,0,.794,1.552H19.12v9.573H8.509C3.772,98.519,0,94.089,0,89.288a8.989,8.989,0,0,1,4.457-7.76,6.026,6.026,0,0,1-.37-2.1A6.111,6.111,0,0,1,10.2,73.309a6.013,6.013,0,0,1,2.093.37,12.247,12.247,0,0,1,23.27,4.042A10.654,10.654,0,0,1,34.5,98.781Z" transform="translate(0 -66.65)" fill="#efa00b"/>
  </g>
</svg>
